<svg xmlns="http://www.w3.org/2000/svg" width="200" height="40" viewBox="0,0,200,40"><path fill="#222" d="M147.13 35.37L147.12 35.36L147.23 35.47Q144.22 31.55 141.60 22.91L141.53 22.85L141.48 22.79Q140.83 20.65 140.03 18.52L140.01 18.51L137.15 27.29L137.30 27.45Q135.46 32.34 133.06 35.58L133.03 35.55L132.96 35.48Q132.17 35.60 130.53 35.75L130.44 35.66L130.47 35.69Q130.61 34.53 130.61 33.28L130.57 33.24L130.70 33.37Q130.65 27.31 127.91 21.18L127.92 21.19L127.88 21.14Q124.66 14.15 118.79 9.17L118.89 9.26L118.81 9.18Q121.10 10.03 123.46 10.56L123.38 10.48L123.29 10.39Q132.14 19.01 133.44 29.98L133.44 29.98L133.39 29.93Q135.08 26.67 136.53 21.30L136.41 21.19L136.34 21.12Q138.44 13.74 138.94 12.33L138.97 12.37L141.11 12.26L141.26 12.41Q141.81 14.29 142.46 16.61L142.47 16.63L143.66 21.01L143.85 21.20Q145.29 26.53 146.70 29.76L146.69 29.75L146.78 29.85Q148.31 18.08 156.22 10.74L156.24 10.75L156.39 10.90Q157.74 10.39 160.71 9.74L160.88 9.91L160.83 9.86Q155.44 14.10 152.39 20.23L152.41 20.25L152.51 20.34Q149.31 26.48 149.31 33.25L149.35 33.29L149.28 33.22Q149.41 34.46 149.49 35.60L149.38 35.49L148.31 35.44L148.28 35.42Q147.68 35.35 147.11 35.35ZM153.47 38.36L153.34 38.23L153.45 38.35Q152.16 34.72 152.27 30.84L152.22 30.80L152.22 30.79Q152.68 19.38 162.05 11.12L161.96 11.03L161.96 11.02Q161.04 11.29 159.10 11.82L159.05 11.78L159.05 11.77Q160.09 11.02 161.99 9.23L161.82 9.06L162.00 9.24Q159.17 9.83 156.23 10.33L156.27 10.36L156.24 10.33Q148.89 17.60 146.98 27.08L146.87 26.97L146.85 26.94Q146.36 25.39 143.51 13.93L143.45 13.87L143.54 13.97Q143.02 13.94 142.07 13.94L142.14 14.01L141.77 12.88L141.84 12.95Q141.75 12.44 141.52 11.94L141.56 11.99L138.52 11.84L138.53 11.85Q137.74 14.33 136.46 19.45L136.51 19.50L136.44 19.43Q135.18 24.56 134.19 27.04L134.14 26.99L134.17 27.02Q132.57 19.10 127.02 12.78L127.00 12.77L127.11 12.87Q126.52 12.70 125.57 12.51L125.67 12.62L125.55 12.49Q124.93 11.76 123.37 10.12L123.40 10.16L123.36 10.12Q119.92 9.26 117.75 8.47L117.80 8.52L117.81 8.53Q123.44 13.17 126.72 19.37L126.68 19.34L126.82 19.48Q130.25 26.06 130.25 33.07L130.19 33.01L130.18 33.00Q130.29 34.67 130.10 36.27L129.93 36.11L130.07 36.25Q130.21 36.15 130.67 36.06L130.66 36.05L130.64 36.03Q131.10 35.94 131.33 35.94L131.48 36.09L131.40 37.04L131.28 36.92Q131.39 37.48 131.47 38.02L131.55 38.10L131.50 38.05Q132.68 38.02 134.97 37.86L134.90 37.80L134.85 37.75Q138.51 32.39 141.25 22.99L141.28 23.01L141.26 22.99Q144.02 31.77 146.99 35.73L146.90 35.64L146.91 35.65Q147.54 35.82 148.38 35.94L148.22 35.78L148.30 35.85Q149.26 37.00 150.32 38.07L150.16 37.91L150.27 38.01Q150.98 38.00 153.38 38.27Z"/><path fill="#333" d="M27.79 27.14L18.61 17.19L18.49 17.07Q19.38 20.82 19.38 24.55L19.49 24.67L19.44 24.61Q19.42 30.56 17.36 36.12L17.39 36.15L17.28 36.04Q16.23 36.32 13.98 37.08L14.04 37.14L13.95 37.05Q16.86 31.36 16.86 24.65L16.78 24.58L16.92 24.72Q16.87 16.02 12.37 8.60L12.41 8.63L12.25 8.48Q12.78 8.74 13.47 9.16L13.44 9.13L13.54 9.24Q25.60 20.42 33.44 29.67L33.31 29.54L33.45 29.68Q33.06 27.15 33.06 24.71L33.15 24.81L33.08 24.74Q33.07 17.49 35.58 11.29L35.63 11.33L35.58 11.29Q37.98 10.83 39.58 10.14L39.47 10.04L39.51 10.07Q36.13 16.17 35.82 23.33L35.95 23.46L35.91 23.42Q35.68 30.84 38.65 37.00L38.52 36.87L38.62 36.98Q37.94 36.79 37.52 36.60L37.55 36.63L37.53 36.61Q33.06 32.75 27.84 27.19L27.76 27.11ZM41.25 40.18L41.27 40.20L41.20 40.12Q41.65 40.27 42.07 40.46L42.17 40.57L43.00 40.90L42.94 40.84Q37.76 33.87 37.76 24.51L37.81 24.56L37.85 24.60Q37.80 17.32 41.12 11.07L41.08 11.04L41.05 11.01Q40.46 11.29 39.05 11.90L39.14 11.99L39.00 11.85Q39.45 11.08 40.29 9.52L40.33 9.56L40.20 9.43Q37.71 10.29 35.27 10.86L35.43 11.03L35.37 10.96Q32.70 17.39 32.70 24.81L32.72 24.83L32.82 24.93Q32.76 26.73 32.95 28.71L32.88 28.65L33.00 28.77Q28.35 23.09 23.59 18.48L23.50 18.39L13.45 8.73L13.39 8.66Q12.88 8.42 11.67 7.85L11.61 7.80L11.62 7.80Q16.57 15.61 16.57 24.71L16.53 24.67L16.55 24.69Q16.46 31.72 13.38 37.73L13.43 37.79L13.52 37.88Q13.71 37.65 15.35 37.04L15.43 37.12L15.37 37.06Q15.11 37.91 14.28 39.40L14.21 39.33L14.17 39.29Q15.56 38.82 19.03 38.02L19.07 38.06L19.10 38.09Q21.32 31.86 21.32 24.67L21.28 24.62L21.41 24.75Q21.35 22.60 21.12 20.47L21.02 20.36L21.04 20.39Q32.70 33.38 41.30 40.23Z"/><path fill="#111" d="M119.17 18.35L119.10 18.28L119.10 18.28Q117.46 14.28 111.25 14.47L111.28 14.50L111.25 14.47Q106.72 14.48 104.74 15.92L104.79 15.97L104.79 15.96Q102.43 17.76 102.43 21.87L102.41 21.85L102.49 23.79L102.29 23.60Q102.42 32.55 111.44 32.55L111.50 32.62L111.37 32.48Q113.41 32.47 114.90 31.67L115.04 31.81L114.96 31.74Q116.87 30.79 116.72 28.93L116.55 28.76L116.63 28.84Q116.49 26.80 112.80 25.88L112.68 25.76L110.81 25.83L110.88 25.91Q109.93 25.91 108.98 25.95L108.98 25.95L108.94 25.90Q108.85 24.86 108.81 22.96L108.78 22.92L108.77 22.92Q116.52 23.02 120.71 22.68L120.70 22.67L120.70 22.67Q120.67 23.51 120.67 24.31L120.64 24.28L120.63 24.27Q120.62 25.06 120.66 25.86L120.76 25.96L120.75 25.95Q119.52 25.83 119.52 25.83L119.51 25.82L119.54 25.84Q118.23 25.91 118.61 25.91L118.52 25.81L118.63 25.93Q119.68 27.50 120.06 29.48L119.96 29.38L120.11 29.54Q120.23 30.27 120.23 30.73L120.09 30.59L120.17 30.67Q120.13 35.26 111.33 35.26L111.32 35.25L111.31 35.24Q104.25 35.30 101.66 33.21L101.67 33.22L101.66 33.21Q99.66 30.83 99.66 25.77L99.74 25.84L99.61 25.72Q99.73 24.77 99.58 22.06L99.53 22.02L99.58 22.06Q99.28 19.56 99.32 18.19L99.33 18.20L99.43 18.30Q99.51 15.41 100.89 13.81L100.84 13.77L100.90 13.83Q103.50 11.82 108.37 11.63L108.28 11.54L111.04 11.56L111.04 11.56Q113.99 11.31 117.42 11.73L117.56 11.88L117.57 11.88Q121.33 12.37 122.28 15.61L122.20 15.52L122.31 15.63Q121.22 16.48 119.13 18.31ZM120.42 20.41L120.58 20.45L120.70 20.58Q121.87 19.46 123.74 17.48L123.63 17.38L123.60 17.34Q123.31 16.41 122.32 14.70L122.40 14.77L122.37 14.75Q121.12 12.01 117.31 11.36L117.41 11.46L117.36 11.41Q115.28 11.34 110.98 11.04L110.93 11.00L108.36 11.24L108.24 11.12Q103.12 11.37 100.54 13.35L100.61 13.42L100.54 13.35Q99.17 14.99 99.06 18.08L98.94 17.96L99.12 18.14Q99.12 17.69 99.35 23.17L99.27 23.09L99.25 23.07Q99.35 24.50 99.42 27.24L99.46 27.28L99.37 27.18Q99.61 31.68 101.36 33.63L101.36 33.63L101.29 33.55Q101.64 34.36 102.51 35.24L102.61 35.34L102.65 35.37Q105.46 37.16 110.98 37.50L111.08 37.60L113.95 37.77L113.90 37.71Q115.54 37.88 117.56 37.76L117.53 37.73L117.41 37.61Q118.86 37.53 120.95 37.00L120.96 37.01L121.05 37.10Q123.08 36.69 123.04 34.37L122.95 34.28L123.03 34.36Q122.98 33.05 121.91 30.27L121.97 30.33L121.91 30.27Q121.61 29.36 121.08 28.56L120.96 28.44L121.01 28.50Q121.74 28.65 122.92 28.84L122.78 28.70L122.82 28.75Q122.59 25.20 122.62 24.51L122.49 24.38L122.65 24.54Q122.09 24.36 121.67 24.32L121.69 24.34L121.67 24.32Q121.40 24.39 121.02 24.47L121.04 24.49L121.06 24.51Q121.10 23.45 121.18 22.38L121.14 22.35L121.02 22.22Q114.79 22.77 108.51 22.66L108.49 22.64L108.59 22.74Q108.64 23.66 108.64 24.57L108.56 24.50L108.51 26.19L108.62 26.31Q108.92 26.23 109.34 26.19L109.35 26.20L109.45 26.30Q109.72 26.15 110.18 26.15L110.26 26.23L110.24 26.22Q110.25 26.68 110.29 27.18L110.27 27.16L110.32 27.20Q110.23 27.57 110.19 28.07L110.23 28.11L110.25 28.13Q111.22 28.03 112.24 27.99L112.37 28.12L112.28 28.02Q113.33 28.05 114.36 28.09L114.29 28.02L114.30 28.02Q115.48 28.41 116.36 28.79L116.25 28.68L116.23 28.70L116.37 28.84Q116.55 30.40 114.88 31.31L114.75 31.18L114.81 31.24Q113.06 32.08 111.35 32.08L111.33 32.06L111.31 32.05Q107.58 32.16 105.14 30.40L105.12 30.39L105.03 30.30Q104.27 28.47 104.42 25.92L104.27 25.76L104.24 25.73Q104.71 21.11 106.56 19.11L106.51 19.05L106.45 19.00Q108.31 17.01 112.99 16.71L112.93 16.65L113.05 16.76Q116.74 16.57 118.68 18.36L118.55 18.23L118.52 18.20Q118.76 18.48 118.88 18.67L118.85 18.65L118.88 18.56L118.92 18.60Q119.62 19.42 120.20 20.52L120.19 20.51L120.57 20.55Z"/><path fill="#111" d="M45.59 34.07L45.43 33.91L45.48 33.96Q47.29 31.51 52.05 24.24L52.14 24.32L52.14 24.32Q56.21 18.15 59.06 14.88L58.97 14.78L58.92 14.74Q56.85 15.06 54.75 15.06L54.90 15.21L54.88 15.19Q49.56 15.12 45.56 13.33L45.51 13.28L45.54 13.30Q44.79 11.30 44.11 9.74L44.27 9.90L44.19 9.83Q48.74 11.98 54.42 12.10L54.52 12.20L54.43 12.11Q59.54 12.16 64.72 10.26L64.71 10.25L64.75 10.29Q64.38 11.13 64.07 11.93L64.01 11.87L63.54 13.57L63.51 13.53Q60.47 17.20 56.47 23.02L56.42 22.97L53.20 27.90L53.16 27.86Q51.34 30.15 49.52 32.44L49.52 32.44L49.63 32.55Q53.00 32.00 56.32 32.08L56.16 31.93L56.27 32.03Q59.64 32.17 62.80 33.08L62.73 33.01L63.17 34.56L63.20 34.58Q63.53 35.49 63.88 36.33L63.76 36.21L63.83 36.28Q59.21 34.74 54.07 34.93L54.04 34.90L54.03 34.90Q48.86 35.05 44.37 37.07L44.30 37.01L44.31 37.01Q44.72 35.98 45.45 33.93ZM43.86 37.86L43.78 37.78L43.78 37.78Q45.10 37.27 45.89 37.00L45.78 36.88L45.73 36.83Q45.61 37.74 44.93 39.27L44.92 39.26L44.90 39.24Q50.62 37.12 56.59 37.34L56.44 37.19L56.44 37.19Q62.83 37.49 67.86 40.27L67.96 40.37L67.86 40.28Q66.41 37.84 65.61 35.67L65.68 35.73L65.75 35.80Q65.26 35.58 63.74 35.01L63.72 34.99L63.72 34.99Q63.44 34.14 63.02 32.66L63.10 32.74L63.06 32.69Q58.96 31.56 53.86 31.75L53.85 31.75L53.73 31.62Q55.91 28.93 59.45 23.37L59.39 23.32L59.47 23.40Q63.05 17.61 64.95 15.06L65.02 15.12L65.04 15.14Q65.60 13.80 66.62 11.09L66.50 10.97L66.51 10.98Q65.81 11.31 64.36 11.92L64.37 11.93L64.50 12.05Q64.80 11.21 65.52 9.68L65.56 9.73L65.51 9.68Q60.16 11.79 54.45 11.71L54.46 11.72L54.39 11.65Q48.50 11.62 43.55 9.11L43.43 8.99L43.49 9.05Q44.58 11.36 45.30 13.60L45.47 13.77L45.34 13.65Q46.58 14.31 47.38 14.54L47.33 14.49L47.27 14.43Q47.53 15.11 47.80 16.56L47.87 16.63L47.88 16.64Q51.55 17.65 56.43 17.46L56.48 17.51L56.47 17.50Q53.94 20.56 50.62 25.55L50.66 25.58L45.18 33.96L45.14 33.92Q44.88 35.30 43.85 37.85Z"/><path fill="#222" d="M166.94 14.71L166.83 14.60L165.30 14.74L165.20 14.65Q163.03 14.84 162.80 16.86L162.82 16.88L162.89 16.95Q162.81 17.66 162.85 18.65L162.78 18.58L162.88 18.69Q162.88 20.59 164.14 21.92L163.98 21.77L164.08 21.87Q165.32 23.18 167.22 23.03L167.24 23.04L167.26 23.07Q169.38 22.97 170.14 22.06L170.01 21.93L169.99 21.91Q171.12 21.07 171.39 18.82L171.32 18.75L171.43 18.86Q171.69 16.61 170.43 15.77L170.48 15.82L170.32 15.66Q169.57 14.98 166.91 14.68ZM172.92 23.89L172.82 23.79L171.59 26.14L171.61 26.16Q168.87 30.92 165.10 35.00L165.10 35.00L165.15 35.05Q163.52 35.20 160.82 36.00L160.77 35.96L160.77 35.95Q166.11 29.68 169.27 24.89L169.21 24.83L169.23 24.84Q168.18 25.47 166.54 25.54L166.70 25.70L166.58 25.58Q163.64 25.80 162.12 23.82L162.20 23.90L162.02 23.72Q160.81 22.14 159.71 17.57L159.86 17.72L159.84 17.70Q159.85 17.26 159.70 16.32L159.65 16.28L159.69 16.32Q159.56 15.41 159.56 14.95L159.49 14.88L159.57 14.95Q159.47 13.07 160.54 12.46L160.46 12.39L160.58 12.51Q161.70 11.64 163.57 11.64L163.66 11.74L163.57 11.65Q166.90 11.78 166.90 11.78L166.92 11.80L166.90 11.78Q168.96 11.71 170.22 11.90L170.18 11.86L170.24 11.92Q172.29 12.11 173.21 12.60L173.26 12.65L173.27 12.67Q174.74 13.53 174.93 15.28L174.94 15.29L174.81 15.16Q174.87 15.44 174.68 18.11L174.62 18.05L174.71 18.14Q174.37 20.32 174.14 21.15L174.06 21.07L174.05 21.06Q173.72 22.52 172.96 23.93ZM174.77 26.24L174.78 26.25L174.90 26.37Q175.86 24.13 176.39 19.83L176.38 19.82L176.34 19.78Q176.61 17.57 176.58 16.70L176.63 16.75L176.56 16.68Q176.57 14.86 175.39 13.95L175.38 13.94L175.03 13.78L175.01 13.76Q174.79 13.04 173.87 12.40L173.80 12.32L173.86 12.38Q171.55 11.36 166.75 11.21L166.69 11.15L166.73 11.19Q165.77 11.18 163.33 11.18L163.43 11.28L163.36 11.20Q161.73 11.33 160.25 12.02L160.17 11.94L160.25 12.02Q158.93 12.64 159.01 14.47L159.10 14.57L159.18 14.65Q159.38 15.57 159.57 17.59L159.50 17.51L159.56 17.57Q160.17 20.20 160.44 21.04L160.34 20.94L160.37 20.98Q160.88 22.78 161.83 24.07L161.88 24.12L161.85 24.09Q162.23 24.55 162.61 24.93L162.56 24.88L162.42 24.74Q162.71 25.22 163.36 26.13L163.50 26.27L163.41 26.18Q164.95 27.61 166.89 27.80L166.90 27.81L166.91 27.82Q164.87 30.35 163.31 32.25L163.30 32.24L159.68 36.61L159.75 36.68Q162.02 35.95 163.66 35.60L163.60 35.54L163.58 35.52Q162.92 36.50 161.36 38.22L161.36 38.22L161.29 38.15Q164.44 37.30 167.56 37.27L167.45 37.16L167.58 37.28Q169.80 34.59 174.14 27.35L174.28 27.49L174.24 27.53L174.22 27.51Q174.47 26.78 174.82 26.28ZM168.85 17.08L168.83 17.06L168.80 17.03Q169.36 16.87 169.82 16.98L169.90 17.06L169.82 16.99Q170.52 17.16 170.91 17.27L170.98 17.35L170.90 17.26Q170.91 17.54 170.99 17.96L171.15 18.13L171.04 18.02Q171.07 18.38 170.95 18.76L171.02 18.83L171.08 18.89Q170.92 20.48 169.74 21.59L169.85 21.70L169.88 21.73Q168.81 22.64 167.18 22.60L167.17 22.60L167.29 22.71Q166.77 22.61 165.25 22.31L165.36 22.42L165.24 22.30Q165.04 21.46 165.04 20.73L165.16 20.85L165.04 20.73Q165.09 20.59 165.09 20.36L164.99 20.26L165.05 20.32Q165.06 18.13 167.35 17.33L167.33 17.31L167.19 17.17Q167.88 16.95 168.72 16.95Z"/><path d="M6 4 C118 3,106 13,191 10" stroke="#888" fill="none"/><path d="M19 5 C119 38,94 6,189 16" stroke="#888" fill="none"/><path fill="#111" d="M85.09 34.83L85.01 34.75L83.10 34.78L83.23 34.92Q82.31 34.95 81.36 35.06L81.28 34.98L81.21 34.92Q81.80 28.72 81.80 24.73L81.91 24.84L81.92 24.85Q77.91 18.14 70.26 9.46L70.18 9.38L70.25 9.45Q72.01 10.41 75.36 11.21L75.43 11.28L75.43 11.28Q80.35 16.73 83.36 21.95L83.43 22.02L83.47 22.06Q86.34 16.36 90.72 11.34L90.75 11.37L90.82 11.44Q93.23 11.03 95.74 10.23L95.79 10.28L95.65 10.14Q89.62 16.25 84.74 24.67L84.80 24.72L84.80 24.72Q84.76 31.72 85.06 34.81ZM94.30 12.37L96.91 9.42L96.88 9.39Q93.77 10.55 90.65 11.00L90.66 11.01L90.64 10.99Q86.50 15.80 83.68 20.90L83.63 20.84L83.57 20.79Q81.61 17.31 78.41 13.42L78.32 13.33L78.34 13.35Q78.02 13.30 77.53 13.22L77.56 13.26L77.67 13.36Q76.94 12.52 75.42 10.85L75.39 10.82L75.29 10.72Q71.91 9.97 68.94 8.41L69.03 8.49L69.10 8.56Q76.76 16.99 81.52 24.91L81.47 24.85L81.49 24.88Q81.47 31.29 80.86 35.44L80.78 35.36L80.80 35.38Q81.53 35.35 82.98 35.23L82.95 35.21L82.97 36.25L82.96 36.24Q83.00 36.74 82.93 37.27L82.97 37.32L82.80 37.15Q86.35 37.15 88.10 37.34L88.19 37.44L88.13 37.38Q86.86 32.68 86.74 26.70L86.91 26.87L86.86 26.82Q91.14 18.27 97.69 10.92L97.72 10.96L94.27 12.34Z"/></svg>