<svg xmlns="http://www.w3.org/2000/svg" width="200" height="40" viewBox="0,0,200,40"><path d="M2 22 C89 2,104 18,194 2" stroke="#333" fill="none"/><path d="M17 32 C114 10,110 10,195 2" stroke="#777" fill="none"/><path fill="#333" d="M25.45 24.26L25.34 24.16L25.41 24.22Q23.59 24.27 22.37 25.60L22.31 25.54L22.29 25.52Q21.10 26.88 20.95 28.78L20.93 28.77L21.01 28.84Q20.69 30.85 21.91 31.86L22.02 31.97L21.96 31.91Q23.12 32.86 25.26 32.79L25.28 32.81L25.30 32.83Q27.55 32.60 28.50 31.65L28.58 31.74L28.53 31.68Q29.68 30.36 29.57 28.53L29.42 28.39L29.53 28.49Q29.28 26.49 28.19 25.30L28.22 25.33L28.35 25.45Q27.24 24.22 25.41 24.22ZM25.30 14.71L25.30 14.71L25.35 14.76Q23.86 14.57 22.53 15.06L22.62 15.15L22.62 15.15Q21.28 15.90 21.50 17.77L21.46 17.72L21.52 17.78Q22.12 21.62 25.47 21.62L25.39 21.54L25.46 21.61Q27.01 21.79 28.00 20.65L27.87 20.52L27.83 20.47Q28.83 19.34 28.86 17.78L28.94 17.85L29.04 17.96Q29.03 16.12 28.30 15.51L28.21 15.42L28.30 15.50Q26.60 14.64 25.30 14.71ZM24.97 35.20L25.01 35.25L21.93 35.21L21.97 35.25Q20.57 35.38 19.24 34.50L19.08 34.34L19.27 34.53Q17.78 33.27 17.93 30.41L17.91 30.39L18.03 30.51Q18.38 23.56 22.00 22.57L22.07 22.63L21.94 22.51Q19.82 21.76 18.49 16.39L18.50 16.40L18.34 16.24Q18.11 14.95 18.19 14.15L18.21 14.17L18.13 14.09Q18.44 11.97 22.14 11.93L22.06 11.85L22.11 11.90Q26.29 11.78 27.74 11.97L27.72 11.95L27.80 12.04Q31.68 12.60 32.13 14.61L32.10 14.58L32.13 14.62Q32.24 15.22 32.24 15.60L32.32 15.68L32.21 15.57Q32.14 16.18 31.95 16.79L32.05 16.89L32.12 16.96Q31.52 21.20 28.59 22.72L28.41 22.54L28.40 22.53Q32.00 23.43 32.50 28.73L32.59 28.82L32.42 28.64Q32.45 28.83 32.49 30.13L32.49 30.13L32.52 30.16Q32.52 32.82 30.92 33.89L31.01 33.97L30.94 33.90Q29.73 34.94 25.16 35.39ZM27.31 37.58L27.27 37.54L30.61 37.61L30.68 37.68Q32.44 37.80 33.96 37.08L34.00 37.11L33.95 37.07Q35.01 36.26 35.09 34.40L35.17 34.48L35.07 34.37Q35.14 33.31 34.76 31.37L34.73 31.33L34.87 31.47Q33.83 26.71 31.74 24.84L31.88 24.99L31.71 24.62L31.41 24.25L31.29 24.02L31.35 24.07Q32.99 22.71 33.91 18.56L33.83 18.49L33.78 18.43Q33.76 18.04 33.84 17.20L33.88 17.24L33.96 17.32Q33.98 16.58 33.91 15.97L33.95 16.01L33.89 15.96Q33.68 14.45 32.50 13.95L32.49 13.94L32.57 13.99L32.45 13.95L32.49 13.98Q32.07 13.11 30.89 12.31L30.94 12.36L30.91 12.29L30.93 12.31Q29.09 11.76 25.01 11.57L24.96 11.51L24.93 11.49Q23.34 11.35 21.97 11.46L22.07 11.55L22.10 11.59Q21.25 11.57 19.95 11.73L19.88 11.65L19.86 11.63Q17.98 12.08 17.75 13.71L17.79 13.75L17.71 13.67Q17.77 14.26 17.81 15.06L17.69 14.95L17.81 15.06Q17.87 15.54 18.44 17.90L18.53 18.00L18.48 17.94Q19.18 21.08 20.93 22.41L20.98 22.46L21.02 22.50L21.10 22.58Q18.20 23.75 17.66 28.93L17.68 28.94L17.67 28.94Q17.63 31.29 17.63 32.20L17.51 32.09L17.59 32.16Q17.71 34.00 18.89 34.91L18.87 34.89L18.75 34.77Q18.89 34.88 19.16 35.07L19.14 35.05L19.11 35.01Q20.23 37.39 27.35 37.62ZM27.05 26.59L26.92 26.46L27.07 26.61Q27.84 26.39 28.72 26.84L28.88 27.01L28.77 26.90Q29.16 27.90 29.12 28.43L29.20 28.51L29.06 28.37Q29.24 28.81 29.24 29.12L29.14 29.02L29.25 29.13Q29.27 31.51 26.98 32.34L26.88 32.24L26.80 32.17Q26.07 32.54 25.27 32.43L25.38 32.54L25.21 32.36Q24.21 32.58 23.07 32.12L22.99 32.05L23.07 32.13Q22.78 31.46 22.86 30.47L22.95 30.56L22.91 30.52Q22.94 28.80 24.14 27.58L24.28 27.72L24.17 27.61Q25.50 26.52 27.10 26.63ZM27.27 17.10L27.24 17.07L27.23 17.06Q27.96 16.88 28.50 17.03L28.58 17.11L28.59 17.92L28.53 17.87Q28.49 19.23 27.57 20.24L27.67 20.34L27.56 20.23Q26.78 21.37 25.41 21.18L25.30 21.07L25.31 21.08Q24.39 21.15 23.97 20.92L24.04 20.99L24.00 20.95Q23.85 20.57 23.73 19.88L23.88 20.03L23.89 20.04Q23.58 18.59 24.80 17.75L24.84 17.79L24.68 17.64Q25.73 16.93 27.14 16.97Z"/><path fill="#333" d="M50.99 35.35L51.10 35.46L51.06 35.43Q46.98 35.65 45.99 33.32L45.98 33.32L46.05 33.38Q46.63 32.26 48.19 30.47L48.25 30.52L48.18 30.45Q48.82 32.61 51.82 32.73L51.73 32.63L51.78 32.68Q55.10 32.69 56.74 31.36L56.83 31.45L56.86 31.48Q58.27 29.88 58.20 27.18L58.08 27.06L58.21 27.19Q57.99 22.06 53.19 22.29L53.12 22.22L53.23 22.33Q50.41 22.48 48.66 23.73L48.69 23.77L48.31 23.54L48.12 23.43L47.99 23.30Q48.39 20.19 48.27 17.45L48.34 17.52L48.23 17.40Q48.15 14.81 47.81 11.50L47.83 11.52L47.90 11.59Q51.55 12.55 55.36 12.43L55.28 12.35L55.26 12.33Q59.13 12.32 62.71 11.06L62.64 10.99L62.16 12.60L62.14 12.59Q61.73 13.24 61.54 14.08L61.58 14.12L61.73 14.27Q58.45 15.14 54.57 15.14L54.67 15.24L54.58 15.15Q53.20 15.22 51.72 15.07L51.72 15.07L51.62 14.98Q51.68 15.80 51.34 20.25L51.27 20.18L51.25 20.16Q52.12 19.74 54.18 19.58L54.27 19.68L54.14 19.55Q57.89 19.79 59.33 21.47L59.34 21.47L59.31 21.44Q60.72 23.00 60.98 26.85L60.92 26.79L60.98 26.84Q61.24 31.02 60.02 33.04L60.04 33.06L60.05 33.07Q57.94 34.88 54.63 35.11L54.75 35.23L54.77 35.26Q53.72 35.27 51.05 35.42ZM57.12 37.72L57.06 37.66L57.00 37.60Q60.50 37.74 62.40 36.64L62.34 36.58L62.36 36.60Q63.48 35.21 63.48 33.11L63.39 33.02L63.37 33.01Q63.45 30.00 62.50 25.89L62.52 25.91L62.37 25.76Q62.01 24.03 60.79 22.62L60.77 22.60L60.96 22.83L60.65 22.44L60.23 22.18L60.30 22.24Q59.99 21.51 59.34 20.82L59.27 20.76L59.38 20.90L59.43 20.96Q57.76 19.13 54.07 19.13L54.07 19.14L53.91 19.24L53.86 19.19Q53.98 18.66 54.17 17.56L54.20 17.59L54.14 17.53Q59.03 17.54 63.06 15.91L63.09 15.94L63.10 15.94Q63.60 14.61 64.55 11.80L64.47 11.72L62.46 12.76L62.40 12.69Q62.80 11.57 63.30 10.43L63.26 10.40L63.22 10.36Q59.45 11.88 55.34 11.95L55.27 11.88L55.41 12.02Q51.29 12.13 47.33 11.03L47.29 10.99L47.26 10.95Q47.90 15.32 47.90 19.74L47.95 19.80L47.98 19.82Q47.93 21.68 47.82 23.58L47.80 23.56L47.79 23.56Q48.09 23.78 48.67 24.09L48.63 24.05L48.69 24.11Q49.13 23.98 49.78 23.64L49.58 23.44L49.67 23.53Q49.73 24.39 49.50 25.91L49.45 25.86L49.36 25.78Q49.75 25.93 50.16 26.16L50.21 26.20L50.27 26.26Q52.93 24.39 54.80 24.39L54.97 24.57L54.80 24.40Q56.17 24.43 57.35 25.08L57.33 25.06L57.36 25.09Q57.73 26.15 57.77 27.10L57.72 27.05L57.69 27.02Q57.87 29.71 56.84 30.82L56.78 30.75L56.76 30.74Q55.38 31.95 53.14 32.17L53.14 32.18L53.19 32.23Q52.22 32.29 51.54 32.21L51.61 32.29L51.51 32.18Q50.74 32.14 49.98 31.80L49.90 31.72L49.96 31.59L49.79 31.64L49.87 31.72Q49.11 31.27 48.57 29.93L48.49 29.85L48.46 29.82Q47.21 31.31 45.54 33.44L45.45 33.36L45.43 33.34Q45.84 34.09 46.68 35.04L46.67 35.04L46.54 34.90Q47.68 36.81 50.50 37.30L50.48 37.29L50.59 37.40Q51.75 37.60 57.12 37.72Z"/><path fill="#222" d="M149.09 18.00L149.11 18.01L149.16 18.06Q147.37 20.80 144.70 26.44L144.64 26.37L142.64 30.62L142.77 30.75Q141.72 32.47 140.38 34.72L140.39 34.72L140.40 34.73Q140.86 34.74 139.19 34.78L139.29 34.88L139.26 34.85Q139.30 34.89 138.04 34.89L137.99 34.83L138.03 34.88Q137.31 33.39 134.38 26.24L134.28 26.14L134.36 26.21Q132.09 20.75 130.00 17.74L130.00 17.74L130.02 17.76Q130.93 21.00 130.93 24.16L130.77 23.99L130.87 24.10Q130.94 30.68 127.97 36.24L127.92 36.18L127.96 36.23Q126.55 36.49 124.19 37.21L124.18 37.20L124.14 37.16Q127.78 31.44 127.78 24.20L127.86 24.29L127.90 24.32Q127.88 15.36 122.47 8.39L122.49 8.41L122.43 8.34Q124.12 9.13 126.48 9.81L126.49 9.82L126.55 9.88Q133.59 16.62 139.68 29.94L139.51 29.77L139.66 29.92Q143.09 22.84 145.30 19.34L145.23 19.27L145.32 19.36Q148.90 13.58 152.86 10.11L152.83 10.09L152.79 10.05Q154.03 9.80 156.39 9.04L156.40 9.05L156.47 9.12Q151.54 15.80 151.54 24.40L151.53 24.39L151.41 24.27Q151.40 30.92 154.82 36.44L154.92 36.53L154.99 36.61Q153.54 36.18 150.80 35.57L150.83 35.60L150.92 35.70Q148.51 30.85 148.51 24.88L148.51 24.87L148.46 24.82Q148.38 21.32 149.07 17.97ZM150.72 36.06L150.68 36.02L150.65 36.00Q151.33 36.10 152.77 36.37L152.86 36.46L152.71 36.31Q153.26 37.16 154.21 38.65L154.16 38.59L154.18 38.62Q156.33 39.05 159.79 40.27L159.71 40.18L159.74 40.21Q153.55 33.95 153.55 24.13L153.55 24.13L153.43 24.01Q153.59 16.43 157.96 10.31L157.85 10.20L155.70 10.93L155.72 10.95Q156.65 9.33 157.29 8.45L157.37 8.53L157.33 8.49Q155.53 9.21 152.91 9.74L152.90 9.73L152.76 9.59Q146.10 15.80 140.05 28.40L140.05 28.41L140.12 28.47Q134.79 17.36 129.84 12.10L129.86 12.12L129.82 12.08Q129.57 12.13 129.00 12.02L128.99 12.02L127.80 10.75L127.67 10.62Q127.15 10.02 126.47 9.42L126.57 9.51L126.39 9.33Q123.50 8.51 121.71 7.79L121.54 7.61L121.70 7.77Q127.54 14.83 127.54 24.23L127.51 24.21L127.59 24.28Q127.64 31.94 123.49 37.81L123.39 37.71L123.53 37.85Q124.24 37.65 125.54 37.23L125.48 37.18L125.52 37.21Q125.39 37.47 123.99 39.56L123.95 39.53L123.85 39.42Q125.67 38.96 129.17 38.20L129.25 38.27L129.29 38.32Q133.02 31.28 132.83 23.51L132.81 23.48L132.76 23.44Q134.26 27.41 137.72 35.29L137.77 35.34L137.78 35.35Q137.89 35.15 138.12 35.15L138.25 35.29L138.66 35.16L138.72 35.23Q139.26 35.99 140.06 37.29L139.94 37.17L139.99 37.22Q141.55 37.14 141.55 37.14L141.64 37.23L141.70 37.29Q142.67 37.23 143.32 37.31L143.20 37.19L143.32 37.31Q144.85 33.24 148.20 25.24L148.24 25.29L148.25 25.30Q148.03 30.63 150.62 35.96Z"/><path fill="#222" d="M79.12 14.28L79.16 14.32L79.12 14.28Q80.09 18.64 80.25 22.22L80.16 22.14L80.20 22.17Q81.34 22.29 82.41 22.29L82.31 22.19L84.64 22.31L84.58 22.25Q85.64 22.25 86.52 20.84L86.43 20.76L86.45 20.78Q87.24 19.66 87.36 18.48L87.27 18.40L87.38 18.50Q87.61 15.35 83.39 14.85L83.48 14.95L83.40 14.87Q81.79 14.90 79.16 14.33ZM80.24 24.96L80.24 24.96L80.22 24.93Q80.11 31.11 78.97 35.53L78.92 35.48L78.93 35.48Q77.61 36.03 75.29 37.10L75.23 37.04L75.32 37.13Q77.65 30.44 77.39 23.17L77.26 23.05L77.40 23.18Q76.97 15.68 74.19 9.24L74.28 9.32L74.21 9.25Q78.36 12.03 84.60 12.03L84.73 12.16L84.72 12.15Q90.64 12.02 90.79 15.48L90.85 15.54L90.79 15.48Q91.00 18.05 90.01 20.72L89.94 20.65L89.88 20.58Q89.44 21.67 88.49 22.89L88.58 22.98L88.59 22.99Q87.25 24.58 84.70 24.85L84.66 24.81L84.79 24.94Q82.53 24.96 80.28 25.00ZM86.40 27.23L86.39 27.22L86.27 27.10Q90.54 27.46 91.80 22.66L91.71 22.57L91.81 22.67Q92.65 18.91 92.50 16.89L92.61 17.00L92.61 17.00Q92.38 15.36 91.62 14.37L91.66 14.41L91.60 14.35Q91.40 14.15 90.90 13.92L90.77 13.79L90.83 13.85Q90.92 13.78 90.31 13.02L90.33 13.04L90.30 13.02Q88.73 11.67 84.77 11.67L84.80 11.70L84.77 11.67Q77.88 11.67 73.66 8.51L73.69 8.54L73.63 8.48Q76.73 15.50 76.99 22.97L77.07 23.04L76.94 22.91Q77.24 30.60 74.58 37.68L74.68 37.78L74.65 37.75Q75.68 37.07 76.67 36.69L76.67 36.70L76.31 37.85L76.28 37.82Q76.08 38.39 75.81 38.96L75.81 38.95L75.89 39.03Q78.30 37.98 81.19 37.44L81.20 37.45L81.18 37.43Q82.12 32.01 82.19 27.29L82.18 27.28L82.06 27.15Q83.16 27.08 84.15 27.08L84.23 27.16L84.16 27.09Q85.64 27.24 86.44 27.28ZM85.43 17.28L85.33 17.18L85.39 17.24Q85.93 17.29 86.92 17.52L86.91 17.50L86.89 17.48Q86.94 17.65 86.98 17.95L87.10 18.07L87.07 18.04Q87.02 18.23 86.95 18.49L87.09 18.63L87.06 18.61Q86.97 19.85 86.25 20.72L86.11 20.59L86.12 20.59Q85.69 21.80 84.66 21.99L84.65 21.99L84.61 21.94Q83.85 21.90 82.21 21.90L82.12 21.81L82.23 21.92Q82.06 19.51 81.83 17.15L81.88 17.20L83.75 17.39L83.65 17.29Q84.61 17.42 85.49 17.34Z"/><path fill="#222" d="M112.45 15.12L112.41 15.08L112.42 15.09Q108.07 15.04 104.38 14.05L104.39 14.07L104.34 14.01Q105.90 18.62 106.09 23.45L106.07 23.44L106.14 23.50Q106.38 28.35 105.17 32.96L105.14 32.94L105.18 32.98Q107.90 32.27 111.40 32.12L111.35 32.06L111.48 32.20Q115.38 31.98 117.17 29.55L117.24 29.61L117.24 29.61Q118.65 27.45 118.84 23.34L118.91 23.41L118.92 23.42Q118.88 21.54 118.42 19.83L118.43 19.84L118.44 19.85Q117.26 15.21 112.54 15.21ZM100.54 37.13L100.58 37.17L100.55 37.14Q103.34 31.36 103.34 24.66L103.38 24.71L103.49 24.81Q103.48 16.27 99.18 9.27L99.23 9.32L99.09 9.19Q104.33 11.83 112.59 12.02L112.73 12.17L112.55 11.99Q121.46 12.22 121.80 19.37L121.91 19.48L121.94 19.51Q122.03 22.19 121.99 23.64L122.01 23.65L121.90 23.55Q121.87 28.27 121.04 30.44L121.08 30.49L120.97 30.38Q120.53 31.46 119.77 32.30L119.80 32.33L119.89 32.42Q118.55 33.97 115.92 34.47L115.87 34.41L115.77 34.31Q114.35 34.76 111.35 34.99L111.19 34.83L111.28 34.92Q105.07 35.30 100.46 37.05ZM118.46 37.00L118.39 36.94L118.54 37.08Q121.31 36.77 122.95 35.29L122.81 35.15L122.82 35.16Q124.13 33.50 124.09 30.76L124.00 30.67L123.93 30.60Q124.06 29.36 123.91 25.86L123.81 25.76L123.54 21.30L123.59 21.35Q123.25 18.91 122.30 16.82L122.39 16.91L122.32 16.84Q121.91 16.02 121.23 15.37L121.11 15.25L121.05 15.04L121.07 15.06Q119.51 12.24 115.09 11.86L115.11 11.88L115.03 11.80Q112.35 11.67 105.34 10.94L105.39 10.99L105.32 10.92Q102.08 10.50 98.39 8.48L98.32 8.41L98.47 8.56Q103.16 15.81 103.16 24.56L103.29 24.69L103.17 24.57Q103.12 31.52 99.77 37.69L99.92 37.84L99.89 37.81Q100.58 37.55 101.91 37.06L101.90 37.05L101.84 36.99Q101.48 37.80 100.60 39.28L100.57 39.25L100.72 39.41Q103.73 38.30 107.08 37.80L107.02 37.74L107.01 37.74Q109.06 37.38 112.71 37.27L112.68 37.23L112.79 37.35Q116.64 37.20 118.47 37.01ZM118.53 23.41L118.42 23.30L118.46 23.34Q118.07 31.32 111.37 31.70L111.50 31.83L111.33 31.67Q109.48 31.87 107.43 32.14L107.49 32.20L107.39 32.10Q108.12 28.26 108.12 24.61L108.14 24.63L108.19 24.68Q108.15 20.95 107.43 17.10L107.35 17.02L107.37 17.05Q109.73 17.50 114.41 17.50L114.28 17.37L114.29 17.38Q115.70 17.27 117.34 18.22L117.39 18.27L117.41 18.29Q118.65 20.52 118.50 23.38Z"/><path fill="#333" d="M169.73 34.85L169.72 34.83L169.78 34.90Q167.87 34.89 165.86 35.08L165.71 34.93L165.69 34.91Q166.45 29.78 166.45 24.94L166.38 24.87L166.49 24.98Q166.47 20.05 165.82 14.83L165.72 14.73L165.88 14.89Q161.26 14.46 158.07 12.79L158.05 12.77L157.22 10.92L157.27 10.96Q157.00 10.39 156.39 9.17L156.57 9.35L156.54 9.32Q161.52 11.90 167.53 12.09L167.54 12.10L167.53 12.09Q173.39 12.24 178.84 10.18L178.80 10.14L178.94 10.29Q178.22 11.70 177.57 13.53L177.60 13.56L177.50 13.46Q173.87 14.74 169.61 14.93L169.70 15.01L169.58 14.90Q169.37 19.91 169.37 24.86L169.44 24.92L169.34 24.82Q169.36 29.79 169.66 34.77ZM179.63 9.61L179.57 9.55L179.55 9.52Q173.71 11.80 167.51 11.61L167.50 11.60L167.58 11.68Q160.77 11.35 155.67 8.38L155.85 8.55L155.69 8.40Q156.57 9.81 157.87 13.08L157.91 13.13L157.83 13.04Q158.43 13.31 159.69 13.88L159.77 13.96L159.78 13.97Q159.99 14.63 160.33 16.16L160.36 16.18L160.41 16.23Q162.62 17.00 165.66 17.23L165.74 17.30L165.60 17.16Q166.06 20.93 166.06 24.70L166.08 24.72L165.95 24.59Q165.96 29.97 165.16 35.34L165.34 35.51L165.19 35.36Q167.01 35.39 167.54 35.39L167.54 35.39L167.43 35.28Q167.50 35.66 167.44 36.33L167.48 36.36L167.36 36.24Q167.43 37.03 167.43 37.37L167.38 37.33L167.37 37.32Q168.44 37.13 169.96 37.20L170.12 37.36L169.94 37.19Q170.87 37.24 172.70 37.40L172.72 37.41L172.77 37.47Q171.63 32.64 171.52 27.46L171.43 27.37L171.52 27.46Q171.36 22.12 171.89 17.21L171.90 17.22L171.90 17.22Q175.88 16.70 179.04 15.49L179.02 15.47L178.87 15.32Q179.65 13.01 180.67 10.95L180.76 11.04L180.76 11.04Q179.30 11.60 178.50 11.90L178.59 11.99L178.48 11.89Q179.04 10.73 179.61 9.59Z"/></svg>