<svg xmlns="http://www.w3.org/2000/svg" width="200" height="40" viewBox="0,0,200,40"><path fill="#222" d="M138.57 35.11L138.64 35.18L136.23 28.32L136.20 28.29Q131.87 15.73 125.93 9.33L125.84 9.25L125.98 9.38Q127.92 10.38 130.51 10.99L130.49 10.97L130.49 10.96Q135.66 17.27 140.00 30.03L139.96 29.99L140.02 30.05Q143.00 21.88 143.69 20.28L143.72 20.31L143.68 20.27Q146.22 14.81 149.03 11.50L148.99 11.46L149.04 11.50Q151.06 11.09 153.68 10.21L153.70 10.23L153.59 10.12Q149.17 14.87 146.12 22.10L145.94 21.92L146.09 22.07Q144.70 25.75 141.01 35.27L141.02 35.28L140.99 35.25Q140.43 35.25 139.86 35.22L139.82 35.18L139.83 35.19Q139.14 35.07 138.57 35.11ZM143.67 37.62L143.63 37.58L143.59 37.54Q146.42 27.58 147.98 23.54L148.02 23.58L148.10 23.67Q151.02 15.88 155.43 11.01L155.35 10.93L155.40 10.98Q154.42 11.41 152.33 12.13L152.22 12.02L153.51 10.83L153.55 10.88Q154.05 10.12 154.66 9.47L154.66 9.48L154.62 9.44Q151.88 10.50 148.87 11.07L148.72 10.92L148.74 10.94Q144.39 16.30 140.51 27.76L140.46 27.71L140.56 27.81Q136.97 17.75 133.78 13.38L133.78 13.38L133.67 13.27Q133.32 13.22 132.44 13.07L132.54 13.17L132.53 13.16Q132.19 12.67 130.60 10.61L130.53 10.55L130.66 10.68Q127.63 9.89 124.92 8.48L124.97 8.53L124.88 8.44Q131.62 15.64 136.00 28.43L135.94 28.37L135.89 28.32Q137.23 32.10 138.41 35.68L138.28 35.55L138.41 35.67Q138.78 35.74 139.61 35.62L139.64 35.64L139.51 35.51Q139.81 36.16 140.50 37.49L140.52 37.52L140.49 37.49Q141.35 37.43 142.07 37.51L142.24 37.67L142.25 37.69Q143.01 37.72 143.77 37.72Z"/><path d="M6 29 C98 19,96 24,184 27" stroke="#555" fill="none"/><path fill="#111" d="M169.22 27.14L160.08 17.24L160.06 17.21Q160.81 20.82 160.81 24.55L160.76 24.50L160.78 24.53Q160.88 30.60 158.82 36.16L158.84 36.17L158.81 36.15Q157.65 36.32 155.40 37.08L155.46 37.14L155.45 37.13Q158.28 31.35 158.28 24.65L158.37 24.74L158.26 24.63Q158.18 15.91 153.69 8.49L153.88 8.68L153.85 8.65Q154.13 8.66 154.82 9.08L154.94 9.21L154.92 9.18Q167.01 20.39 174.85 29.65L174.82 29.62L174.76 29.55Q174.43 27.10 174.43 24.66L174.58 24.80L174.49 24.72Q174.53 17.53 177.04 11.32L177.02 11.30L177.08 11.35Q179.31 10.73 180.91 10.05L180.98 10.12L181.00 10.14Q177.67 16.29 177.36 23.44L177.34 23.41L177.30 23.38Q177.09 30.82 180.06 36.99L180.08 37.01L179.95 36.88Q179.38 36.81 178.96 36.62L179.00 36.65L179.05 36.70Q174.42 32.68 169.21 27.12L169.33 27.25ZM182.64 40.14L182.70 40.20L182.57 40.07Q183.07 40.27 183.49 40.46L183.56 40.53L184.39 40.86L184.33 40.80Q179.19 33.88 179.19 24.51L179.31 24.63L179.30 24.61Q179.28 17.36 182.59 11.12L182.45 10.98L182.47 11.00Q181.82 11.22 180.41 11.83L180.44 11.86L180.43 11.85Q180.77 10.98 181.61 9.42L181.76 9.57L181.71 9.52Q179.19 10.35 176.75 10.92L176.84 11.00L176.76 10.92Q174.06 17.32 174.06 24.75L174.07 24.75L174.25 24.93Q174.06 26.61 174.25 28.59L174.35 28.69L174.38 28.72Q169.67 22.98 164.91 18.38L164.92 18.39L154.85 8.69L154.95 8.79Q154.25 8.36 153.03 7.79L152.96 7.72L152.97 7.73Q157.98 15.59 157.98 24.69L157.85 24.57L157.90 24.62Q157.92 31.75 154.83 37.77L154.94 37.87L154.91 37.84Q155.09 37.60 156.73 36.99L156.78 37.05L156.83 37.09Q156.57 37.93 155.73 39.42L155.67 39.36L155.71 39.40Q157.00 38.83 160.47 38.03L160.51 38.07L160.50 38.06Q162.71 31.82 162.71 24.62L162.75 24.67L162.70 24.61Q162.84 22.66 162.61 20.53L162.46 20.38L162.59 20.50Q174.11 33.36 182.71 40.21Z"/><path d="M5 3 C80 15,102 35,198 23" stroke="#444" fill="none"/><path fill="#333" d="M25.46 35.15L25.51 35.19L23.03 28.25L23.19 28.41Q18.65 15.65 12.71 9.26L12.83 9.38L12.76 9.31Q14.86 10.46 17.45 11.07L17.45 11.07L17.44 11.06Q22.62 17.38 26.96 30.13L26.81 29.98L26.97 30.14Q30.00 22.02 30.68 20.42L30.68 20.42L30.54 20.27Q33.04 14.78 35.85 11.46L35.88 11.49L35.76 11.37Q37.96 11.13 40.59 10.26L40.57 10.24L40.57 10.24Q35.85 14.70 32.80 21.93L32.85 21.98L32.84 21.97Q31.57 25.76 27.88 35.27L27.86 35.25L27.76 35.16Q27.26 35.23 26.69 35.19L26.66 35.16L26.68 35.18Q26.15 35.22 25.58 35.26ZM30.59 37.69L30.48 37.57L30.53 37.63Q33.33 27.63 34.89 23.60L34.78 23.49L34.78 23.49Q37.93 15.94 42.35 11.07L42.35 11.07L42.36 11.08Q41.29 11.42 39.20 12.14L39.24 12.19L40.26 10.73L40.37 10.84Q40.92 10.13 41.53 9.49L41.58 9.54L41.49 9.45Q38.64 10.40 35.63 10.97L35.62 10.97L35.64 10.99Q31.30 16.35 27.42 27.81L27.43 27.82L27.49 27.88Q23.77 17.70 20.58 13.32L20.62 13.36L20.60 13.34Q20.26 13.31 19.39 13.16L19.22 12.99L19.34 13.11Q19.11 12.73 17.51 10.67L17.37 10.54L17.42 10.58Q14.55 9.96 11.85 8.55L11.71 8.41L11.82 8.52Q18.39 15.55 22.77 28.34L22.78 28.35L22.75 28.32Q24.11 32.12 25.29 35.70L25.28 35.69L25.13 35.54Q25.64 35.74 26.48 35.63L26.46 35.61L26.37 35.52Q26.73 36.22 27.42 37.56L27.37 37.51L27.49 37.63Q28.19 37.42 28.92 37.49L28.97 37.55L28.93 37.51Q29.80 37.66 30.56 37.66Z"/><path fill="#333" d="M56.49 34.75L56.65 34.90L56.68 34.94Q54.57 34.73 52.56 34.92L52.63 35.00L52.55 34.92Q53.21 29.67 53.21 24.84L53.36 24.99L53.26 24.89Q53.22 19.94 52.57 14.73L52.60 14.75L52.65 14.80Q48.14 14.48 44.94 12.80L44.94 12.80L44.24 11.07L44.12 10.96Q43.98 10.51 43.37 9.29L43.44 9.36L43.29 9.21Q48.32 11.85 54.34 12.04L54.44 12.14L54.51 12.21Q60.27 12.26 65.72 10.21L65.82 10.30L65.64 10.13Q65.10 11.72 64.45 13.55L64.40 13.50L64.33 13.43Q60.75 14.75 56.48 14.94L56.54 15.00L56.44 14.90Q56.31 19.98 56.31 24.93L56.25 24.87L56.22 24.85Q56.38 29.96 56.69 34.94ZM66.34 9.46L66.36 9.48L66.44 9.56Q60.57 11.80 54.37 11.61L54.35 11.59L54.43 11.67Q47.75 11.46 42.65 8.49L42.53 8.38L42.53 8.38Q43.41 9.78 44.70 13.06L44.68 13.04L44.72 13.07Q45.31 13.33 46.57 13.90L46.57 13.90L46.60 13.93Q46.77 14.56 47.11 16.08L47.21 16.18L47.14 16.10Q49.47 16.99 52.51 17.22L52.47 17.18L52.58 17.28Q52.95 20.97 52.95 24.74L52.98 24.77L52.92 24.71Q52.83 29.99 52.03 35.35L52.16 35.48L52.02 35.34Q53.71 35.24 54.24 35.24L54.24 35.24L54.40 35.39Q54.33 35.63 54.27 36.29L54.15 36.18L54.22 36.24Q54.12 36.87 54.12 37.21L54.18 37.27L54.23 37.32Q55.44 37.27 56.96 37.35L56.90 37.29L56.83 37.22Q57.86 37.37 59.68 37.52L59.63 37.46L59.55 37.39Q58.42 32.57 58.31 27.39L58.36 27.44L58.31 27.39Q58.24 22.15 58.78 17.24L58.73 17.19L58.60 17.06Q62.65 16.62 65.81 15.40L65.82 15.41L65.83 15.42Q66.55 13.05 67.58 11.00L67.56 10.98L67.55 10.98Q66.20 11.64 65.40 11.94L65.31 11.85L65.38 11.92Q65.88 10.71 66.45 9.57Z"/><path fill="#333" d="M79.31 35.39L79.28 35.36L79.25 35.33Q75.26 35.64 74.27 33.32L74.21 33.26L74.16 33.21Q75.09 32.43 76.65 30.64L76.51 30.50L76.49 30.47Q77.07 32.58 80.08 32.70L80.16 32.77L80.03 32.65Q83.51 32.82 85.15 31.48L85.18 31.52L85.06 31.40Q86.41 29.74 86.34 27.04L86.45 27.15L86.39 27.10Q86.28 22.07 81.48 22.30L81.45 22.27L81.55 22.37Q78.72 22.50 76.97 23.76L76.93 23.72L76.62 23.57L76.44 23.46L76.30 23.32Q76.71 20.23 76.60 17.49L76.52 17.41L76.63 17.52Q76.44 14.82 76.10 11.51L76.09 11.50L76.09 11.50Q79.76 12.47 83.57 12.35L83.56 12.35L83.61 12.39Q87.36 12.26 90.94 11.01L90.93 11.00L90.50 12.66L90.34 12.50Q90.11 13.34 89.92 14.18L89.95 14.20L89.83 14.08Q86.84 15.24 82.95 15.24L82.87 15.15L82.86 15.15Q81.45 15.19 79.97 15.03L80.02 15.09L79.90 14.97Q79.85 15.67 79.50 20.13L79.47 20.09L79.55 20.18Q80.49 19.82 82.54 19.66L82.50 19.62L82.49 19.61Q86.18 19.80 87.62 21.47L87.58 21.43L87.58 21.43Q89.06 23.06 89.32 26.90L89.19 26.77L89.31 26.89Q89.51 31.02 88.30 33.03L88.35 33.08L88.42 33.16Q86.22 34.88 82.91 35.11L82.92 35.12L83.06 35.26Q82.04 35.30 79.37 35.45ZM85.43 37.74L85.39 37.70L85.30 37.61Q88.86 37.82 90.76 36.72L90.70 36.66L90.77 36.72Q91.65 35.09 91.65 33.00L91.61 32.96L91.73 33.08Q91.59 29.85 90.63 25.74L90.74 25.84L90.71 25.81Q90.33 24.06 89.11 22.65L89.10 22.65L89.07 22.66L88.97 22.48L88.50 22.15L88.51 22.17Q88.25 21.49 87.60 20.81L87.72 20.92L87.58 20.82L87.61 20.85Q86.18 19.26 82.48 19.26L82.33 19.11L82.10 19.14L82.20 19.25Q82.19 18.59 82.38 17.48L82.37 17.48L82.48 17.59Q87.45 17.68 91.49 16.05L91.52 16.08L91.44 16.00Q91.79 14.53 92.75 11.71L92.86 11.82L90.75 12.76L90.71 12.72Q91.09 11.57 91.58 10.43L91.67 10.51L91.58 10.43Q87.70 11.84 83.59 11.92L83.68 12.01L83.72 12.05Q79.45 12.01 75.49 10.90L75.49 10.90L75.53 10.94Q76.31 15.45 76.31 19.87L76.35 19.90L76.27 19.83Q76.16 21.62 76.04 23.52L76.19 23.67L76.16 23.64Q76.44 23.84 77.01 24.14L77.01 24.14L76.96 24.10Q77.35 23.91 77.99 23.57L78.03 23.60L77.92 23.50Q77.87 24.24 77.64 25.77L77.71 25.84L77.75 25.87Q78.07 25.96 78.48 26.19L78.47 26.18L78.54 26.24Q81.35 24.53 83.22 24.53L83.20 24.52L83.19 24.50Q84.43 24.41 85.61 25.06L85.69 25.13L85.62 25.07Q86.04 26.17 86.08 27.12L86.16 27.21L86.03 27.07Q86.10 29.65 85.07 30.76L85.11 30.80L85.10 30.79Q83.76 32.04 81.52 32.27L81.53 32.28L81.58 32.33Q80.56 32.34 79.88 32.27L79.83 32.22L79.82 32.21Q78.97 32.09 78.21 31.74L78.36 31.89L78.19 31.53L78.18 31.75L78.21 31.78Q77.35 31.23 76.82 29.89L76.77 29.84L76.75 29.82Q75.46 31.28 73.79 33.41L73.86 33.48L73.72 33.34Q74.01 33.97 74.85 34.92L75.02 35.10L74.83 34.91Q76.09 36.92 78.90 37.42L78.84 37.36L78.82 37.33Q80.08 37.64 85.44 37.76Z"/><path fill="#111" d="M107.02 35.43L106.87 35.27L106.87 35.28Q105.51 35.40 103.95 34.98L104.02 35.05L103.93 34.97Q102.66 33.99 102.50 32.35L102.69 32.54L102.53 32.38Q102.60 32.30 102.79 29.67L102.76 29.65L102.75 29.64Q103.86 29.52 105.88 29.14L105.87 29.13L105.58 29.80L105.66 29.88Q105.37 31.60 106.77 32.17L106.73 32.12L106.81 32.21Q107.47 32.41 109.56 32.41L109.72 32.57L109.54 32.39Q111.25 32.34 111.44 32.27L111.39 32.21L111.36 32.19Q112.34 32.11 113.07 31.61L113.01 31.56L113.11 31.65Q114.50 30.68 114.31 28.59L114.32 28.60L114.23 28.51Q114.11 26.14 112.38 24.58L112.46 24.67L112.42 24.62Q110.72 23.10 108.25 23.10L108.23 23.08L108.25 22.88L108.21 22.83Q108.51 22.72 109.39 22.64L109.32 22.58L109.45 22.70Q111.24 22.48 112.61 21.24L112.64 21.26L112.74 21.37Q114.03 20.04 114.18 18.18L114.29 18.30L114.30 18.30Q114.25 17.84 114.25 17.49L114.22 17.46L114.32 17.56Q114.33 16.05 112.96 15.13L112.82 14.99L112.88 15.06Q111.79 14.38 110.19 14.49L110.11 14.41L110.18 14.49Q108.82 14.27 107.60 14.68L107.57 14.66L107.54 14.62Q106.23 15.29 105.92 16.43L105.88 16.39L105.86 16.37Q105.72 17.19 105.80 17.95L105.70 17.85L105.69 17.84Q104.64 17.59 102.58 16.86L102.69 16.97L102.56 16.84Q102.34 15.17 102.38 14.34L102.48 14.44L102.39 14.35Q102.63 12.95 103.70 12.27L103.72 12.29L103.61 12.18Q104.96 11.52 106.56 11.52L106.67 11.63L106.68 11.63Q109.73 11.49 112.89 11.75L113.00 11.86L113.04 11.90Q118.11 12.33 117.81 16.10L117.75 16.04L117.80 16.09Q117.65 17.50 117.16 19.06L117.23 19.14L117.14 19.04Q116.24 22.14 113.88 23.06L113.79 22.97L113.79 22.97Q116.56 23.64 117.17 26.99L117.10 26.92L117.12 26.94Q117.28 28.02 117.36 30.04L117.41 30.09L117.33 30.01Q117.59 34.58 112.99 35.03L112.96 35.00L112.94 34.99Q112.29 35.14 107.00 35.40ZM112.23 37.66L112.13 37.57L112.07 37.50Q112.80 37.67 115.66 37.74L115.62 37.71L115.68 37.76Q117.35 37.76 118.98 37.11L119.01 37.14L119.01 37.13Q120.26 36.25 120.07 34.50L120.02 34.45L119.93 34.36Q119.90 33.11 119.60 31.36L119.54 31.31L119.64 31.41Q118.81 26.80 116.86 25.17L116.95 25.25L116.69 24.80L116.69 24.76L116.75 24.83Q118.36 23.24 119.12 18.86L119.27 19.01L119.13 18.86Q119.23 18.47 119.34 17.52L119.39 17.57L119.40 17.58Q119.43 16.77 119.35 16.08L119.31 16.04L119.25 15.98Q119.22 14.43 117.92 13.74L117.83 13.64L117.79 13.68L117.74 13.63Q117.43 12.64 116.29 12.10L116.37 12.19L116.30 12.11Q114.95 11.61 109.81 11.30L109.82 11.31L109.81 11.30Q108.05 11.14 106.46 11.14L106.50 11.19L106.45 11.14Q104.87 11.16 103.35 11.81L103.37 11.83L103.40 11.85Q102.18 12.61 102.18 14.36L102.16 14.35L102.03 14.21Q102.12 13.89 102.39 17.24L102.46 17.31L102.33 17.19Q102.59 17.21 104.22 17.82L104.32 17.92L104.32 17.92Q104.26 18.38 104.22 18.88L104.29 18.95L104.20 18.86Q104.36 19.52 104.40 20.05L104.24 19.90L104.22 19.87Q106.04 20.28 108.05 20.39L108.06 20.40L108.05 20.39Q108.09 18.49 109.20 17.65L109.19 17.64L109.21 17.66Q110.01 16.98 112.03 16.76L111.96 16.68L111.91 16.64Q113.10 16.68 113.67 16.87L113.77 16.97L113.72 16.92Q113.83 17.11 113.87 17.23L113.70 17.06L113.70 17.25L113.93 17.93L113.82 17.82Q113.94 18.13 113.90 18.28L113.95 18.33L113.85 18.23Q113.70 19.88 112.18 21.06L112.28 21.15L112.24 21.12Q111.31 22.01 109.29 22.20L109.33 22.24L109.27 22.18Q108.65 22.43 107.77 22.43L107.80 22.46L107.67 22.33Q107.79 22.76 107.94 23.44L107.90 23.39L107.92 23.42Q109.64 23.38 111.08 24.11L111.05 24.08L110.92 24.06L109.44 24.33L109.45 24.34Q109.47 24.66 109.58 25.27L109.61 25.30L109.60 25.29Q111.82 25.30 113.54 26.64L113.42 26.52L113.51 26.61Q113.76 27.01 114.06 28.65L113.94 28.53L114.07 28.65Q114.16 31.48 111.23 31.90L111.18 31.86L111.15 31.83Q109.23 32.27 108.66 32.23L108.57 32.14L108.61 32.18Q108.12 32.03 107.58 31.95L107.61 31.98L107.51 31.43L107.66 31.00L107.70 30.62L107.87 30.45L107.82 30.40Q106.81 30.41 106.01 30.60L105.98 30.58L105.96 30.56Q105.90 30.30 105.90 30.11L106.05 30.26L106.06 30.28Q105.98 29.97 105.98 29.74L105.97 29.73L106.04 29.80Q106.06 29.36 106.21 28.64L106.19 28.62L106.27 28.70Q104.44 28.97 102.58 29.31L102.43 29.16L102.42 29.15Q102.40 29.62 102.28 30.75L102.43 30.89L102.31 30.77Q102.18 31.88 102.18 32.49L102.26 32.57L102.29 32.60Q102.26 34.55 103.64 35.31L103.64 35.32L103.77 35.45Q105.13 37.61 109.85 37.42L109.91 37.48L109.90 37.46Q110.66 37.46 112.18 37.61Z"/></svg>