<svg xmlns="http://www.w3.org/2000/svg" width="200" height="40" viewBox="0,0,200,40"><path fill="#222" d="M170.03 34.91L169.93 34.82L168.02 34.85L168.05 34.88Q167.06 34.84 166.11 34.96L166.17 35.02L166.09 34.93Q166.69 28.76 166.69 24.76L166.77 24.84L166.70 24.77Q162.71 18.08 155.06 9.40L155.17 9.51L155.12 9.46Q156.80 10.34 160.15 11.14L160.27 11.26L160.25 11.24Q165.24 16.76 168.25 21.98L168.20 21.93L168.21 21.94Q171.24 16.40 175.61 11.38L175.72 11.48L175.75 11.51Q178.10 11.05 180.61 10.25L180.60 10.23L180.57 10.20Q174.51 16.29 169.64 24.70L169.69 24.76L169.67 24.74Q169.67 31.78 169.98 34.86ZM179.14 12.36L181.68 9.33L181.68 9.33Q178.70 10.62 175.58 11.08L175.58 11.07L175.56 11.06Q171.29 15.74 168.48 20.84L168.43 20.79L168.51 20.87Q166.46 17.30 163.26 13.42L163.23 13.38L163.15 13.31Q162.87 13.29 162.37 13.21L162.51 13.35L162.47 13.31Q161.77 12.50 160.25 10.82L160.14 10.71L160.18 10.75Q156.74 9.93 153.77 8.37L153.84 8.45L153.92 8.53Q161.54 16.91 166.30 24.83L166.29 24.82L166.42 24.94Q166.28 31.25 165.67 35.40L165.55 35.27L165.63 35.35Q166.45 35.41 167.90 35.30L167.91 35.31L167.77 36.19L167.79 36.21Q167.75 36.63 167.67 37.16L167.67 37.16L167.69 37.18Q171.31 37.26 173.06 37.45L172.99 37.38L173.06 37.45Q171.88 32.84 171.76 26.86L171.69 26.79L171.62 26.72Q176.02 18.30 182.57 10.95L182.51 10.89L179.16 12.37Z"/><path fill="#333" d="M112.65 27.14L103.37 17.10L103.33 17.06Q104.23 20.81 104.23 24.54L104.21 24.52L104.25 24.56Q104.28 30.57 102.22 36.13L102.13 36.03L102.25 36.15Q101.06 36.30 98.82 37.06L98.87 37.12L98.90 37.15Q101.72 31.37 101.72 24.67L101.78 24.72L101.80 24.74Q101.61 15.91 97.12 8.49L97.19 8.56L97.18 8.54Q97.59 8.69 98.28 9.11L98.41 9.24L98.32 9.15Q110.49 20.45 118.34 29.70L118.21 29.58L118.23 29.60Q118.00 27.24 118.00 24.80L117.92 24.72L117.94 24.74Q117.96 17.53 120.47 11.32L120.37 11.22L120.50 11.35Q122.79 10.79 124.39 10.10L124.41 10.12L124.41 10.12Q121.08 16.27 120.77 23.42L120.70 23.35L120.77 23.42Q120.53 30.83 123.49 37.00L123.37 36.87L123.45 36.95Q122.91 36.90 122.49 36.71L122.42 36.65L122.43 36.66Q117.87 32.70 112.65 27.14L112.70 27.19ZM126.10 40.18L126.13 40.20L126.16 40.23Q126.55 40.31 126.96 40.50L126.91 40.45L127.82 40.86L127.75 40.79Q122.66 33.92 122.66 24.55L122.62 24.51L122.68 24.57Q122.58 17.24 125.90 11.00L125.95 11.05L125.91 11.01Q125.32 11.29 123.91 11.90L123.89 11.88L123.87 11.86Q124.22 11.00 125.06 9.44L125.10 9.48L125.03 9.41Q122.58 10.30 120.14 10.87L120.23 10.97L120.28 11.01Q117.50 17.33 117.50 24.76L117.62 24.88L117.67 24.93Q117.50 26.62 117.69 28.60L117.86 28.77L117.86 28.77Q113.05 22.94 108.29 18.33L108.27 18.31L98.34 8.75L98.25 8.67Q97.76 8.45 96.55 7.88L96.57 7.90L96.58 7.91Q101.31 15.49 101.31 24.59L101.37 24.66L101.32 24.60Q101.39 31.79 98.30 37.80L98.27 37.77L98.28 37.78Q98.50 37.58 100.13 36.97L100.13 36.96L100.28 37.11Q99.91 37.85 99.07 39.34L99.15 39.41L99.12 39.39Q100.47 38.87 103.94 38.07L103.97 38.10L103.90 38.03Q106.21 31.89 106.21 24.69L106.29 24.77L106.12 24.60Q106.18 22.58 105.95 20.44L106.06 20.55L105.89 20.38Q117.38 33.21 125.99 40.06Z"/><path d="M13 34 C119 16,115 33,187 22" stroke="#777" fill="none"/><path fill="#222" d="M138.79 14.73L138.69 14.63L138.64 14.59Q136.80 14.84 135.85 15.00L135.81 14.95L135.72 14.86Q134.07 15.08 132.85 15.61L132.96 15.72L132.96 15.72Q129.40 17.10 129.28 21.79L129.29 21.79L129.39 21.89Q129.23 24.48 129.88 27.41L129.86 27.39L129.90 27.43Q130.83 31.52 134.45 32.70L134.42 32.68L134.45 32.70Q136.38 33.30 137.82 33.15L137.66 32.98L138.08 32.95L138.23 33.10Q138.39 33.07 138.58 33.10L138.50 33.03L138.53 33.05Q138.61 32.98 138.76 32.94L138.80 32.98L138.88 33.06Q141.55 32.84 142.92 32.26L142.76 32.10L139.23 28.62L139.25 28.63Q139.54 28.27 140.15 27.67L140.26 27.78L141.06 26.76L141.08 26.77Q142.99 28.91 144.97 30.96L144.95 30.95L144.97 30.96Q147.24 29.09 147.51 23.72L147.46 23.67L147.57 23.79Q147.68 22.90 147.68 21.98L147.66 21.97L147.65 21.96Q147.55 16.18 142.48 15.08L142.48 15.08L142.56 15.16Q141.22 14.80 138.71 14.65ZM151.48 36.72L151.39 36.62L151.42 36.65Q150.88 37.14 149.70 38.02L149.72 38.04L145.33 34.37L145.30 34.34Q142.94 35.67 138.67 35.71L138.53 35.56L138.67 35.70Q132.06 35.76 129.24 33.51L129.24 33.51L129.19 33.46Q127.46 31.73 127.00 28.76L126.92 28.67L126.94 28.70Q126.68 26.84 126.30 23.26L126.47 23.43L126.47 23.43Q126.43 22.67 126.32 20.92L126.29 20.89L126.34 20.94Q126.19 19.38 126.23 18.50L126.26 18.53L126.19 18.46Q126.29 15.41 128.04 13.85L128.04 13.84L128.12 13.92Q129.61 12.56 132.81 12.07L132.77 12.02L132.69 11.94Q135.27 11.67 138.17 11.75L138.21 11.79L138.07 11.66Q145.65 11.85 148.77 14.21L148.70 14.14L148.65 14.09Q150.85 16.25 150.59 21.16L150.64 21.22L150.61 21.19Q150.53 24.95 150.34 26.28L150.19 26.14L150.17 26.11Q149.63 30.71 147.31 33.04L147.33 33.06L147.27 33.00Q148.80 34.30 151.54 36.77ZM146.58 12.40L146.61 12.43L146.73 12.55Q144.58 11.70 138.07 11.20L138.16 11.29L138.17 11.30Q136.72 11.26 133.94 11.37L133.96 11.39L133.97 11.40Q129.80 11.68 127.55 13.66L127.40 13.51L127.53 13.64Q125.73 14.96 125.73 18.12L125.79 18.18L125.90 18.29Q125.81 19.04 125.96 20.75L125.92 20.71L125.99 20.77Q126.20 22.55 126.20 23.42L126.03 23.26L126.12 23.35Q126.36 25.18 126.74 28.76L126.58 28.61L126.65 28.67Q127.08 31.61 128.68 33.67L128.69 33.68L128.69 33.68Q128.91 34.39 130.13 35.54L130.14 35.55L130.09 35.50Q132.97 37.66 138.15 37.93L138.03 37.81L138.12 37.90Q138.33 37.76 140.73 37.88L140.86 38.01L140.83 37.98Q145.53 38.04 147.82 36.97L147.90 37.05L147.93 37.09Q148.87 37.83 153.59 41.41L153.56 41.38L153.56 41.38Q154.20 40.88 155.50 39.89L155.37 39.77L155.31 39.71Q154.57 39.16 153.77 38.47L153.75 38.45L152.05 36.94L152.09 36.82L152.26 37.00Q151.52 36.38 150.30 35.35L150.47 35.52L150.29 35.34Q152.27 32.90 152.27 28.37L152.26 28.36L152.19 28.29Q152.24 27.92 152.28 27.08L152.24 27.04L152.26 27.06Q152.28 26.21 152.28 25.79L152.32 25.83L152.45 25.96Q152.33 20.31 151.60 17.95L151.68 18.04L151.55 17.90Q151.17 16.61 150.29 15.54L150.28 15.53L150.34 15.59Q149.55 13.47 146.62 12.44ZM140.71 17.11L140.58 16.98L140.69 17.09Q144.61 16.87 146.44 18.46L146.45 18.47L146.58 18.60Q147.07 19.74 147.19 21.08L147.13 21.02L147.22 21.11Q147.20 22.27 147.13 23.64L147.20 23.72L147.18 23.69Q146.95 28.75 145.00 30.47L144.84 30.30L144.91 30.38Q143.56 29.02 141.04 26.28L141.19 26.42L141.18 26.41Q140.25 27.00 138.69 28.56L138.71 28.59L138.81 28.68Q139.28 29.19 140.42 30.37L140.55 30.51L140.38 30.45L140.32 30.39Q141.03 31.06 142.06 32.13L141.92 31.99L142.00 32.07Q140.96 32.28 138.64 32.59L138.73 32.68L138.09 32.57L137.70 32.60L137.76 32.70L137.75 32.69Q134.18 32.59 132.20 30.95L132.39 31.14L132.20 30.95Q131.25 28.94 131.29 25.81L131.34 25.86L131.20 25.73Q131.51 17.16 140.68 17.09Z"/><path fill="#222" d="M53.94 14.75L53.84 14.64L53.86 14.66Q51.86 14.75 50.91 14.91L50.93 14.93L50.89 14.89Q49.36 15.22 48.14 15.76L48.06 15.68L48.05 15.66Q44.61 17.18 44.50 21.86L44.38 21.74L44.43 21.79Q44.31 24.41 44.95 27.34L44.94 27.33L44.97 27.35Q45.83 31.38 49.45 32.56L49.45 32.56L49.54 32.65Q51.45 33.23 52.90 33.08L52.79 32.97L53.39 33.11L53.27 32.99Q53.57 33.10 53.76 33.14L53.75 33.13L53.64 33.02Q53.91 33.14 54.06 33.10L53.96 32.99L53.89 32.92Q56.57 32.71 57.94 32.14L57.96 32.16L54.46 28.70L54.44 28.68Q54.80 28.40 55.41 27.79L55.43 27.81L56.34 26.89L56.19 26.73Q58.14 28.92 60.12 30.97L60.03 30.88L60.14 30.99Q62.45 29.15 62.72 23.78L62.61 23.68L62.69 23.76Q62.76 22.84 62.76 21.93L62.65 21.81L62.82 21.99Q62.79 16.28 57.72 15.18L57.64 15.09L57.61 15.07Q56.34 14.78 53.83 14.63ZM66.69 36.78L66.66 36.75L66.53 36.62Q66.05 37.17 64.87 38.05L64.95 38.12L60.38 34.28L60.50 34.40Q58.04 35.63 53.78 35.67L53.75 35.65L53.63 35.52Q47.21 35.77 44.40 33.52L44.37 33.50L44.39 33.51Q42.64 31.76 42.18 28.79L42.03 28.64L42.14 28.75Q41.93 26.94 41.55 23.36L41.49 23.31L41.45 23.26Q41.57 22.66 41.45 20.91L41.51 20.96L41.43 20.88Q41.25 19.30 41.29 18.42L41.24 18.38L41.31 18.44Q41.45 15.42 43.20 13.86L43.23 13.90L43.12 13.78Q44.67 12.48 47.87 11.98L47.88 12.00L47.90 12.01Q50.30 11.55 53.19 11.63L53.27 11.71L53.19 11.63Q60.75 11.80 63.87 14.16L63.86 14.16L63.82 14.11Q65.95 16.21 65.69 21.12L65.83 21.27L65.85 21.28Q65.55 24.83 65.36 26.16L65.38 26.18L65.32 26.12Q64.67 30.61 62.35 32.94L62.35 32.94L62.46 33.05Q63.93 34.28 66.67 36.76ZM61.79 12.46L61.74 12.41L61.84 12.52Q59.68 11.65 53.17 11.16L53.18 11.17L53.18 11.17Q51.80 11.19 49.02 11.30L49.12 11.41L49.03 11.32Q44.84 11.58 42.59 13.56L42.70 13.66L42.69 13.65Q40.95 15.04 40.95 18.20L40.99 18.24L40.96 18.21Q41.01 19.09 41.16 20.80L41.12 20.77L41.10 20.75Q41.22 22.42 41.22 23.30L41.29 23.37L41.21 23.29Q41.35 25.03 41.73 28.61L41.73 28.61L41.70 28.58Q42.24 31.63 43.84 33.69L43.82 33.67L43.73 33.58Q44.16 34.51 45.38 35.65L45.27 35.54L45.26 35.53Q48.01 37.55 53.18 37.82L53.20 37.83L53.15 37.78Q53.56 37.85 55.95 37.96L55.88 37.88L56.01 38.02Q60.70 38.06 62.98 36.99L63.07 37.08L63.13 37.14Q63.99 37.81 68.71 41.39L68.72 41.40L68.57 41.25Q69.22 40.76 70.52 39.77L70.52 39.78L70.59 39.84Q69.73 39.17 68.93 38.49L68.89 38.45L67.25 37.00L67.26 36.85L67.25 36.85Q66.79 36.50 65.57 35.47L65.56 35.46L65.57 35.47Q67.50 32.99 67.50 28.46L67.40 28.35L67.47 28.42Q67.51 28.04 67.55 27.21L67.55 27.21L67.39 27.05Q67.52 26.30 67.52 25.88L67.43 25.80L67.55 25.91Q67.53 20.38 66.81 18.02L66.75 17.96L66.85 18.06Q66.30 16.59 65.42 15.52L65.45 15.55L65.46 15.57Q64.71 13.48 61.78 12.45ZM55.73 16.99L55.77 17.03L55.69 16.95Q59.88 16.99 61.71 18.59L61.75 18.63L61.62 18.50Q62.19 19.72 62.30 21.05L62.41 21.16L62.38 21.13Q62.35 22.27 62.27 23.64L62.45 23.82L62.39 23.76Q62.00 28.66 60.06 30.37L59.98 30.30L60.11 30.43Q58.76 29.08 56.25 26.34L56.36 26.45L56.24 26.33Q55.42 27.03 53.86 28.59L53.99 28.73L53.84 28.58Q54.40 29.17 55.54 30.35L55.65 30.46L55.49 30.42L55.60 30.53Q56.19 31.07 57.21 32.14L57.06 31.99L57.04 31.97Q56.06 32.24 53.74 32.55L53.80 32.61L53.40 32.74L52.90 32.66L52.81 32.61L52.92 32.72Q49.49 32.75 47.51 31.11L47.41 31.01L47.49 31.09Q46.50 29.03 46.53 25.91L46.50 25.88L46.41 25.79Q46.54 17.05 55.72 16.98Z"/><path d="M19 31 C101 28,93 1,186 11" stroke="#666" fill="none"/><path fill="#222" d="M18.76 10.89L18.76 10.89L18.72 10.86Q20.63 15.73 21.20 20.91L21.11 20.82L21.14 20.85Q24.91 16.78 30.81 11.94L30.72 11.85L30.80 11.93Q33.97 11.60 36.60 10.80L36.55 10.76L30.06 16.44L30.06 16.44Q26.59 19.34 23.74 22.19L23.74 22.19L23.73 22.18Q31.68 31.31 36.74 36.03L36.78 36.07L36.73 36.02Q33.69 35.15 31.36 34.99L31.36 34.99L31.36 34.99Q25.68 29.69 21.38 23.86L21.29 23.78L21.25 23.74Q21.39 30.39 19.53 35.72L19.55 35.75L19.51 35.70Q19.39 35.85 18.89 36.04L18.80 35.94L18.79 36.12L18.87 36.21Q18.59 36.15 16.04 37.07L16.03 37.06L16.11 37.14Q19.04 30.55 18.70 23.09L18.55 22.95L18.56 22.96Q18.27 15.66 14.73 9.15L14.77 9.19L15.29 9.44L15.83 9.86L15.74 9.74L15.77 9.77Q16.48 10.14 18.69 10.82ZM19.08 10.65L19.02 10.58L19.08 10.64Q16.77 10.04 14.14 8.52L14.01 8.39L14.15 8.53Q18.43 15.82 18.43 24.77L18.41 24.74L18.46 24.79Q18.34 31.68 15.37 37.73L15.50 37.86L17.45 36.92L17.48 36.94Q17.14 38.01 16.45 39.31L16.28 39.13L16.38 39.24Q18.58 38.39 20.52 37.97L20.53 37.98L20.70 37.92L20.69 37.91Q20.89 37.80 21.46 37.65L21.38 37.57L21.41 37.60Q23.12 31.74 23.24 26.94L23.19 26.89L23.13 26.84Q25.22 29.35 27.05 31.21L27.07 31.24L27.11 31.27Q28.32 32.40 31.33 35.37L31.24 35.29L31.42 35.47L31.37 35.42Q32.29 36.15 34.16 37.75L34.31 37.90L34.32 37.91Q38.04 38.47 41.51 40.19L41.53 40.21L41.48 40.16Q32.20 31.60 25.95 24.18L26.04 24.27L26.06 24.29Q30.47 20.01 39.22 11.41L39.24 11.42L39.20 11.38Q36.61 12.48 34.59 12.86L34.65 12.93L34.65 12.92Q35.91 11.98 38.23 9.96L38.19 9.92L38.14 9.87Q34.05 11.30 30.70 11.49L30.67 11.46L30.77 11.55Q27.74 13.66 22.86 18.35L22.88 18.36L22.89 18.38Q22.61 15.88 22.03 13.33L22.03 13.32L22.05 13.35Q20.84 13.16 19.85 12.82L19.80 12.78L19.82 12.79Q19.56 12.00 18.99 10.55Z"/><path fill="#444" d="M81.73 35.28L81.66 35.21L81.76 35.30Q78.22 35.34 76.58 34.81L76.61 34.84L76.64 34.87Q74.57 34.14 74.27 30.75L74.21 30.69L75.76 29.73L75.64 29.61Q76.52 29.23 77.28 28.74L77.24 28.70L77.13 28.59Q77.01 30.64 78.61 31.85L78.51 31.76L78.59 31.84Q79.86 32.84 81.99 32.65L82.06 32.72L81.91 32.56Q86.29 32.15 86.10 28.61L86.26 28.77L86.25 28.76Q86.05 26.47 83.42 25.25L83.33 25.16L83.37 25.19Q80.50 24.11 78.14 22.89L78.08 22.84L78.15 22.91Q75.67 21.65 74.68 16.96L74.69 16.97L74.64 16.92Q74.46 16.40 74.34 15.63L74.34 15.64L74.51 15.80Q74.43 15.03 74.50 14.46L74.31 14.27L74.44 14.40Q74.49 12.70 75.75 12.25L75.83 12.32L75.90 12.40Q78.25 11.47 82.25 11.66L82.25 11.66L82.14 11.56Q83.96 11.66 84.76 11.74L84.85 11.83L84.84 11.81Q86.27 11.95 87.34 12.41L87.35 12.42L87.36 12.43Q89.49 12.93 89.72 15.40L89.73 15.41L89.80 15.48Q88.75 16.18 86.54 17.52L86.54 17.52L86.41 17.39Q86.03 14.42 81.66 14.42L81.60 14.37L81.72 14.48Q79.77 14.44 78.78 15.12L78.86 15.20L78.69 15.03Q77.65 15.67 77.88 17.46L77.77 17.35L77.90 17.48Q78.03 19.55 81.00 21.07L81.05 21.12L80.98 21.06Q81.65 21.41 86.14 23.05L86.10 23.01L86.03 22.95Q88.77 24.55 89.19 28.92L89.15 28.88L89.21 28.94Q89.15 29.04 89.23 30.29L89.30 30.36L89.12 30.18Q89.35 33.11 87.78 34.21L87.64 34.07L87.68 34.11Q85.86 35.11 81.67 35.22ZM83.93 37.55L84.07 37.69L83.94 37.57Q85.54 37.80 87.52 37.80L87.34 37.62L87.37 37.65Q89.43 37.62 90.69 37.20L90.84 37.34L90.84 37.35Q92.02 36.47 91.95 34.68L91.98 34.72L91.92 34.65Q91.88 33.66 91.50 31.61L91.42 31.53L91.41 31.52Q90.61 26.95 88.52 25.09L88.55 25.12L88.53 25.10Q87.72 23.49 86.39 22.77L86.45 22.83L81.01 20.62L81.07 20.68Q80.80 20.57 80.34 20.34L80.26 20.25L80.26 19.99L80.09 19.47L80.16 19.55Q79.98 18.11 81.12 17.50L81.11 17.49L81.13 17.51Q81.92 16.97 83.64 16.78L83.54 16.68L83.70 16.84Q84.81 16.69 85.95 17.15L85.94 17.14L85.98 17.18Q85.89 17.13 86.08 17.96L86.26 18.15L86.23 18.12Q86.45 18.00 86.95 17.77L86.80 17.62L86.81 17.63Q87.56 18.58 87.68 19.72L87.64 19.68L87.66 19.70Q87.75 19.67 91.40 17.08L91.38 17.06L91.49 17.17Q91.10 14.42 89.65 13.73L89.63 13.72L89.78 13.86Q89.21 12.61 87.76 12.07L87.67 11.98L87.64 11.95Q85.36 11.16 82.16 11.16L82.20 11.20L82.13 11.13Q77.36 11.26 75.49 11.95L75.40 11.85L75.45 11.91Q74.15 12.39 74.03 14.07L73.96 13.99L73.97 14.01Q73.92 14.52 74.34 16.73L74.37 16.77L74.28 16.68Q75.00 20.48 77.17 22.73L77.17 22.72L77.21 22.76Q78.05 24.52 79.55 25.20L79.45 25.10L79.45 25.10Q81.02 25.86 84.95 27.42L84.99 27.46L85.00 27.51L85.69 27.90L85.71 27.95L85.56 27.80Q85.80 28.31 85.84 28.65L85.77 28.58L85.82 28.64Q85.99 32.19 82.07 32.35L81.96 32.24L81.89 32.17Q80.73 32.18 79.43 31.80L79.59 31.96L79.52 31.89Q79.14 31.01 79.14 30.29L79.24 30.39L79.16 30.31Q79.18 30.06 79.22 29.80L79.22 29.80L79.18 29.76Q78.89 30.12 78.09 30.61L78.07 30.60L77.99 30.51Q77.52 29.43 77.67 28.06L77.76 28.15L77.67 28.06Q75.61 29.27 74.01 30.68L73.91 30.59L74.08 30.75Q74.06 31.49 74.13 32.52L74.08 32.47L74.17 32.55Q74.46 34.25 75.75 35.01L75.77 35.03L75.68 34.94Q77.05 36.92 79.60 37.30L79.56 37.25L79.52 37.21Q81.06 37.42 83.99 37.61Z"/></svg>