<svg xmlns="http://www.w3.org/2000/svg" width="200" height="40" viewBox="0,0,200,40"><path fill="#333" d="M56.86 34.89L56.89 34.91L54.93 34.90L54.84 34.81Q54.01 34.93 53.06 35.05L53.00 34.98L53.04 35.03Q53.62 28.83 53.62 24.83L53.56 24.77L53.59 24.81Q49.62 18.13 41.97 9.45L41.91 9.39L42.01 9.49Q43.79 10.47 47.14 11.27L47.07 11.20L47.11 11.25Q52.10 16.77 55.11 21.98L55.11 21.99L55.05 21.92Q58.15 16.46 62.53 11.43L62.45 11.35L62.57 11.47Q64.95 11.04 67.46 10.24L67.53 10.31L67.45 10.22Q61.44 16.36 56.57 24.77L56.42 24.62L56.55 24.76Q56.48 31.73 56.79 34.82ZM66.01 12.37L68.55 9.35L68.64 9.44Q65.60 10.66 62.48 11.12L62.46 11.10L62.51 11.15Q58.23 15.81 55.41 20.92L55.46 20.97L55.44 20.95Q53.20 17.18 50.00 13.30L49.95 13.25L49.97 13.27Q49.85 13.41 49.36 13.34L49.34 13.32L49.29 13.27Q48.55 12.41 47.03 10.74L47.02 10.73L47.03 10.74Q43.60 9.94 40.63 8.38L40.72 8.47L40.79 8.53Q48.52 17.03 53.28 24.95L53.17 24.84L53.26 24.93Q53.07 31.17 52.46 35.32L52.49 35.35L52.51 35.38Q53.26 35.36 54.71 35.25L54.79 35.33L54.66 36.23L54.66 36.23Q54.66 36.69 54.59 37.22L54.64 37.28L54.52 37.15Q58.08 37.17 59.83 37.36L59.99 37.53L59.84 37.37Q58.67 32.78 58.56 26.80L58.56 26.81L58.53 26.78Q62.90 18.32 69.45 10.97L69.50 11.02L65.83 12.18Z"/><path fill="#222" d="M84.09 15.04L84.14 15.10L84.20 15.16Q79.93 15.19 76.24 14.20L76.05 14.01L76.04 14.00Q77.63 18.63 77.82 23.47L77.93 23.58L77.86 23.51Q77.97 28.23 76.76 32.84L76.79 32.87L76.80 32.88Q79.60 32.25 83.10 32.10L83.13 32.13L83.09 32.09Q87.13 32.02 88.92 29.58L88.89 29.55L88.76 29.43Q90.38 27.46 90.57 23.35L90.53 23.32L90.62 23.41Q90.56 21.51 90.10 19.80L90.25 19.95L90.12 19.81Q88.86 15.09 84.14 15.09ZM72.30 37.18L72.19 37.07L72.20 37.08Q75.17 31.48 75.17 24.78L75.06 24.67L75.13 24.74Q75.11 16.19 70.81 9.19L70.78 9.16L70.93 9.31Q76.19 11.98 84.45 12.17L84.43 12.15L84.36 12.08Q93.27 12.31 93.61 19.47L93.52 19.37L93.52 19.37Q93.68 22.13 93.64 23.57L93.61 23.53L93.57 23.50Q93.57 28.25 92.73 30.42L92.75 30.44L92.67 30.36Q92.29 31.50 91.53 32.34L91.50 32.32L91.59 32.40Q90.25 33.95 87.62 34.45L87.66 34.49L87.64 34.47Q86.05 34.74 83.04 34.97L82.95 34.88L83.02 34.95Q76.93 35.45 72.33 37.20ZM90.22 37.05L90.11 36.94L90.14 36.97Q93.02 36.76 94.65 35.28L94.61 35.23L94.64 35.26Q95.83 33.48 95.79 30.74L95.79 30.74L95.72 30.67Q95.66 29.24 95.50 25.74L95.55 25.79L95.20 21.24L95.22 21.27Q95.07 19.02 94.12 16.93L94.03 16.83L94.15 16.96Q93.64 16.03 92.95 15.38L92.81 15.24L92.87 15.14L92.91 15.18Q91.19 12.21 86.77 11.83L86.71 11.76L86.80 11.85Q84.08 11.68 77.07 10.96L77.01 10.90L77.06 10.95Q73.71 10.41 70.01 8.39L70.10 8.48L70.05 8.42Q74.87 15.79 74.87 24.55L74.87 24.56L75.00 24.69Q75.01 31.70 71.66 37.87L71.50 37.71L71.60 37.81Q72.33 37.58 73.66 37.09L73.66 37.09L73.59 37.02Q73.33 37.94 72.46 39.42L72.37 39.34L72.28 39.25Q75.39 38.25 78.74 37.75L78.83 37.85L78.75 37.77Q80.77 37.38 84.42 37.27L84.42 37.27L84.42 37.26Q88.46 37.30 90.28 37.11ZM90.23 23.39L90.16 23.32L90.22 23.38Q89.92 31.46 83.22 31.84L83.08 31.70L83.22 31.83Q81.10 31.78 79.05 32.05L79.05 32.05L79.24 32.24Q79.95 28.37 79.95 24.72L79.89 24.67L79.88 24.65Q79.78 20.86 79.06 17.02L79.07 17.03L79.06 17.02Q81.31 17.37 85.99 17.37L86.16 17.54L86.07 17.45Q87.40 17.25 89.04 18.20L89.00 18.17L89.12 18.29Q90.45 20.61 90.30 23.46Z"/><path fill="#222" d="M106.40 28.05L106.30 27.95L106.22 27.86Q109.49 27.67 112.69 27.79L112.56 27.66L112.58 27.68Q112.55 25.14 112.55 22.74L112.56 22.75L112.51 22.70Q112.50 20.21 112.69 17.66L112.75 17.73L112.68 17.65Q111.51 19.41 106.29 27.94ZM116.24 35.33L116.11 35.21L116.17 35.26Q114.55 35.01 112.76 34.94L112.84 35.02L112.84 35.02Q112.56 32.57 112.44 30.09L112.49 30.14L112.39 30.04Q107.15 29.94 102.43 31.34L102.32 31.24L102.29 31.21Q102.48 30.79 102.67 29.80L102.75 29.88L102.65 29.78Q104.50 26.68 108.08 20.40L108.09 20.41L108.12 20.44Q111.01 15.57 114.44 11.68L114.46 11.70L114.37 11.61Q115.16 11.34 116.84 11.08L117.02 11.26L116.92 11.16Q115.04 17.61 115.04 24.66L114.94 24.56L115.05 24.66Q115.00 26.10 115.07 27.58L115.14 27.65L116.41 27.74L116.36 27.69Q117.06 27.82 117.67 27.93L117.59 27.85L117.64 27.90Q117.69 28.83 117.96 30.77L118.08 30.89L118.07 30.89Q116.83 30.59 115.34 30.40L115.20 30.26L115.26 30.32Q115.59 32.44 116.28 35.38ZM117.82 27.44L117.92 27.54L117.81 27.43Q117.76 27.50 117.57 27.50L117.56 27.48L117.11 27.42L117.20 27.51Q117.06 25.99 117.06 24.58L116.92 24.44L116.93 24.45Q116.94 18.06 118.99 12.05L119.09 12.14L119.13 12.19Q118.24 12.33 116.80 12.71L116.86 12.78L116.76 12.67Q117.04 11.96 117.50 10.56L117.62 10.68L117.45 10.51Q116.24 10.97 114.18 11.20L114.22 11.23L114.28 11.30Q110.29 15.56 105.07 24.93L105.09 24.94L107.21 21.31L107.14 21.25Q106.64 22.19 106.37 22.76L106.43 22.83L101.94 31.81L102.08 31.95Q102.70 31.77 103.85 31.39L103.70 31.25L103.72 31.65L103.68 31.60Q103.57 32.30 103.26 33.55L103.28 33.57L103.20 33.49Q107.33 32.18 112.17 32.37L112.12 32.32L112.24 32.44Q112.17 33.29 112.36 35.27L112.34 35.24L112.45 35.36Q113.44 35.28 114.50 35.39L114.51 35.40L114.52 35.41Q114.66 36.08 114.93 37.45L114.88 37.40L114.92 37.44Q116.80 37.64 119.80 38.56L119.92 38.68L119.91 38.66Q118.96 36.58 118.05 33.30L118.00 33.25L119.49 33.75L119.35 33.61Q120.07 33.87 120.75 34.21L120.85 34.31L120.81 34.27Q119.93 31.68 119.77 30.00L119.74 29.97L119.80 30.03Q119.24 29.89 118.10 29.66L118.19 29.75L118.05 29.60Q117.79 28.29 117.79 27.41ZM109.81 27.27L109.94 27.40L109.84 27.30Q110.61 26.02 112.18 23.47L112.29 23.58L112.21 23.50Q112.18 24.43 112.15 25.38L112.08 25.31L112.13 25.36Q112.17 26.39 112.21 27.34L112.28 27.41L112.17 27.31Q111.68 27.35 111.11 27.35L111.14 27.38L111.16 27.40Q110.48 27.33 109.87 27.33Z"/><path d="M15 26 C85 6,100 36,182 26" stroke="#666" fill="none"/><path fill="#222" d="M167.82 25.53L167.67 25.38L167.65 25.35Q164.26 31.80 160.84 35.75L160.87 35.79L160.87 35.79Q159.02 36.22 156.59 37.10L156.58 37.09L156.47 36.98Q161.45 31.46 166.21 23.05L166.21 23.05L166.21 23.04Q161.55 16.02 155.57 9.63L155.63 9.69L155.62 9.67Q158.59 10.93 160.87 11.43L160.89 11.44L160.81 11.36Q165.35 16.47 167.79 20.43L167.82 20.47L167.93 20.57Q170.39 16.11 174.31 11.69L174.38 11.76L174.33 11.72Q175.95 11.43 179.15 10.67L179.15 10.66L179.11 10.63Q172.98 17.03 169.52 22.97L169.66 23.11L169.49 22.93Q174.73 31.68 179.11 36.24L179.17 36.31L179.21 36.34Q176.52 35.44 174.42 35.22L174.49 35.29L174.38 35.17Q171.75 32.35 167.83 25.54ZM174.40 35.61L174.31 35.52L174.35 35.57Q174.75 35.70 175.21 35.81L175.02 35.63L175.13 35.74Q175.98 36.55 177.50 38.14L177.41 38.05L177.35 37.99Q180.89 38.98 183.93 40.35L183.85 40.26L183.85 40.26Q176.68 33.63 171.58 24.87L171.57 24.86L171.54 24.83Q175.32 18.22 181.22 11.37L181.18 11.33L181.30 11.44Q179.87 12.11 177.70 12.65L177.70 12.64L177.72 12.67Q178.56 11.71 180.31 9.92L180.35 9.96L180.17 9.78Q177.91 10.79 174.21 11.37L174.17 11.32L174.27 11.42Q170.68 15.06 168.09 19.36L168.14 19.41L168.18 19.46Q167.25 17.84 166.07 16.36L166.00 16.29L163.73 13.37L163.36 13.38L163.41 13.43Q163.18 13.35 162.95 13.28L163.10 13.43L162.98 13.31Q162.33 12.50 160.84 10.94L160.84 10.94L160.93 11.02Q157.03 10.06 154.44 8.69L154.50 8.74L154.37 8.62Q161.12 15.89 165.68 22.94L165.82 23.07L165.78 23.03Q161.25 31.18 155.50 37.77L155.54 37.80L155.51 37.77Q156.86 37.14 158.99 36.57L158.97 36.55L157.63 37.96L157.72 38.04Q157.65 37.97 156.31 39.30L156.40 39.39L156.44 39.43Q159.39 38.31 162.55 37.81L162.60 37.86L162.47 37.73Q166.46 33.20 169.05 28.44L169.01 28.39L169.04 28.42Q171.60 32.66 174.30 35.51Z"/><path fill="#222" d="M141.58 34.75L141.65 34.82L139.74 34.85L139.66 34.77Q138.69 34.75 137.74 34.87L137.90 35.03L137.91 35.04Q138.37 28.72 138.37 24.72L138.40 24.75L138.45 24.80Q134.44 18.10 126.79 9.42L126.73 9.35L126.89 9.52Q128.56 10.38 131.91 11.18L131.89 11.17L131.85 11.12Q137.09 16.90 140.10 22.12L140.01 22.03L139.93 21.94Q143.01 16.46 147.39 11.44L147.31 11.36L147.38 11.43Q149.77 11.00 152.28 10.20L152.36 10.28L152.34 10.26Q146.15 16.21 141.28 24.62L141.45 24.80L141.35 24.69Q141.47 31.86 141.78 34.95ZM150.82 12.31L153.41 9.35L153.55 9.49Q150.37 10.58 147.25 11.03L147.36 11.14L147.23 11.01Q143.10 15.83 140.28 20.93L140.20 20.84L140.22 20.86Q138.09 17.21 134.89 13.33L134.82 13.26L134.95 13.39Q134.70 13.41 134.21 13.33L134.10 13.23L134.22 13.35Q133.48 12.49 131.96 10.82L131.96 10.82L131.84 10.70Q128.54 10.02 125.57 8.46L125.65 8.54L125.53 8.42Q133.24 16.90 138.00 24.82L138.10 24.91L138.12 24.94Q137.86 31.11 137.25 35.26L137.27 35.28L137.36 35.36Q138.06 35.31 139.51 35.19L139.45 35.13L139.47 36.18L139.62 36.33Q139.45 36.62 139.37 37.15L139.39 37.17L139.54 37.32Q143.01 37.25 144.76 37.44L144.84 37.52L144.83 37.50Q143.43 32.68 143.31 26.70L143.45 26.83L143.45 26.84Q147.76 18.31 154.30 10.97L154.40 11.06L150.84 12.34Z"/><path d="M9 5 C117 14,90 12,187 4" stroke="#999" fill="none"/><path fill="#333" d="M26.32 25.46L26.30 25.44L26.38 25.52Q22.83 31.79 19.40 35.75L19.42 35.76L19.30 35.65Q17.47 36.10 15.03 36.97L15.08 37.02L15.17 37.11Q19.97 31.41 24.73 23.00L24.75 23.01L24.80 23.06Q20.20 16.10 14.22 9.70L14.11 9.59L14.25 9.73Q17.16 10.93 19.45 11.43L19.31 11.29L19.40 11.38Q23.93 16.48 26.37 20.44L26.42 20.49L26.51 20.59Q29.00 16.15 32.92 11.73L32.86 11.67L32.81 11.62Q34.59 11.49 37.78 10.73L37.65 10.60L37.74 10.69Q31.61 17.08 28.14 23.02L28.23 23.10L28.13 23.00Q33.37 31.75 37.75 36.32L37.76 36.33L37.76 36.33Q35.14 35.50 33.05 35.27L33.02 35.24L33.04 35.26Q30.23 32.26 26.31 25.45ZM33.01 35.65L32.97 35.61L32.91 35.55Q33.33 35.70 33.79 35.82L33.61 35.64L33.68 35.71Q34.40 36.39 35.92 37.99L36.11 38.18L36.04 38.11Q39.45 38.97 42.49 40.34L42.43 40.28L42.51 40.35Q35.25 33.63 30.15 24.87L30.10 24.83L30.09 24.81Q33.99 18.32 39.89 11.46L39.92 11.49L39.82 11.40Q38.43 12.10 36.26 12.63L36.15 12.52L36.29 12.67Q37.08 11.66 38.83 9.88L38.83 9.87L38.89 9.94Q36.40 10.71 32.70 11.28L32.65 11.23L32.67 11.25Q29.22 15.04 26.64 19.34L26.81 19.51L26.73 19.43Q25.81 17.83 24.63 16.35L24.73 16.44L22.33 13.39L21.89 13.34L21.98 13.43Q21.84 13.44 21.61 13.36L21.59 13.35L21.49 13.25Q20.95 12.55 19.47 10.99L19.42 10.95L19.51 11.04Q15.69 10.15 13.11 8.78L13.01 8.68L13.01 8.69Q19.72 15.92 24.29 22.97L24.32 23.01L24.24 22.92Q19.92 31.28 14.17 37.87L14.11 37.81L14.02 37.71Q15.41 37.12 17.54 36.55L17.60 36.61L16.30 38.05L16.21 37.96Q16.25 38.01 14.92 39.34L15.00 39.42L14.92 39.34Q17.89 38.23 21.05 37.73L21.11 37.80L21.01 37.70Q25.11 33.27 27.69 28.51L27.76 28.58L27.70 28.52Q30.16 32.64 32.86 35.50Z"/></svg>