<svg xmlns="http://www.w3.org/2000/svg" width="200" height="40" viewBox="0,0,200,40"><path fill="#222" d="M138.23 35.20L138.32 35.29L138.32 35.30Q134.74 35.30 133.10 34.76L133.20 34.87L133.20 34.86Q131.14 34.13 130.83 30.74L130.80 30.71L132.24 29.63L132.22 29.62Q133.06 29.20 133.82 28.70L133.77 28.66L133.79 28.67Q133.58 30.64 135.18 31.86L135.23 31.90L135.16 31.83Q136.47 32.88 138.60 32.69L138.52 32.60L138.53 32.62Q142.98 32.27 142.79 28.72L142.81 28.75L142.71 28.64Q142.55 26.39 139.92 25.18L140.00 25.25L139.88 25.13Q137.21 24.25 134.85 23.03L134.84 23.02L134.70 22.88Q132.26 21.67 131.27 16.98L131.19 16.90L131.27 16.98Q131.02 16.39 130.90 15.62L130.98 15.70L131.08 15.80Q130.80 14.84 130.88 14.27L130.90 14.28L131.07 14.45Q131.22 12.85 132.47 12.40L132.40 12.33L132.30 12.22Q134.74 11.39 138.74 11.58L138.70 11.55L138.79 11.63Q140.63 11.76 141.43 11.83L141.34 11.75L141.45 11.86Q142.96 12.07 144.02 12.53L144.01 12.51L143.90 12.40Q146.08 12.95 146.31 15.42L146.34 15.45L146.30 15.41Q145.16 16.02 142.95 17.35L143.01 17.42L142.96 17.37Q142.61 14.42 138.23 14.42L138.19 14.38L138.18 14.37Q136.35 14.45 135.36 15.14L135.32 15.09L135.43 15.20Q134.21 15.65 134.44 17.44L134.40 17.41L134.31 17.31Q134.66 19.61 137.63 21.13L137.70 21.20L137.71 21.21Q138.26 21.46 142.75 23.10L142.60 22.95L142.73 23.08Q145.37 24.57 145.79 28.95L145.81 28.97L145.80 28.95Q145.64 28.95 145.72 30.21L145.85 30.34L145.74 30.23Q145.86 33.05 144.30 34.15L144.34 34.20L144.37 34.22Q142.43 35.11 138.25 35.22ZM140.63 37.69L140.54 37.60L140.55 37.60Q142.02 37.70 144.00 37.70L144.03 37.74L143.97 37.68Q146.05 37.66 147.30 37.24L147.42 37.35L147.37 37.30Q148.50 36.38 148.42 34.59L148.48 34.65L148.44 34.61Q148.45 33.67 148.07 31.61L148.00 31.54L147.99 31.53Q147.24 27.01 145.15 25.14L145.01 25.01L144.98 24.98Q144.35 23.55 143.02 22.83L142.94 22.75L137.56 20.60L137.61 20.66Q137.39 20.58 136.93 20.36L136.94 20.37L136.78 19.94L136.65 19.47L136.63 19.45Q136.67 18.23 137.81 17.62L137.70 17.51L137.78 17.59Q138.57 17.04 140.28 16.85L140.15 16.72L140.10 16.67Q141.35 16.67 142.49 17.12L142.41 17.04L142.45 17.08Q142.56 17.23 142.75 18.07L142.78 18.09L142.68 18.00Q142.93 17.90 143.42 17.67L143.42 17.67L143.36 17.61Q144.21 18.65 144.32 19.79L144.32 19.79L144.22 19.69Q144.35 19.70 148.00 17.11L148.01 17.12L148.07 17.18Q147.81 14.56 146.36 13.87L146.37 13.89L146.33 13.84Q145.78 12.61 144.33 12.07L144.35 12.09L144.34 12.08Q142.07 11.29 138.87 11.29L138.75 11.18L138.79 11.21Q133.95 11.28 132.08 11.97L132.00 11.89L131.94 11.82Q130.70 12.37 130.58 14.05L130.58 14.04L130.53 13.99Q130.53 14.57 130.95 16.77L130.91 16.73L130.86 16.68Q131.58 20.48 133.75 22.73L133.70 22.69L133.71 22.70Q134.53 24.43 136.04 25.12L136.15 25.23L136.11 25.19Q137.57 25.83 141.49 27.39L141.44 27.34L141.58 27.51L142.08 27.71L142.17 27.84L142.16 27.83Q142.33 28.27 142.37 28.61L142.32 28.56L142.49 28.73Q142.57 32.20 138.65 32.36L138.53 32.23L138.48 32.19Q137.44 32.32 136.15 31.94L136.01 31.81L135.99 31.79Q135.81 31.11 135.81 30.39L135.77 30.35L135.75 30.33Q135.74 30.05 135.78 29.78L135.72 29.73L135.84 29.85Q135.44 30.10 134.64 30.59L134.66 30.61L134.64 30.59Q134.08 29.42 134.23 28.05L134.26 28.08L134.32 28.14Q132.25 29.34 130.65 30.75L130.65 30.75L130.60 30.70Q130.58 31.44 130.65 32.46L130.77 32.58L130.64 32.46Q130.94 34.16 132.24 34.93L132.35 35.04L132.35 35.04Q133.48 36.78 136.04 37.16L136.03 37.16L136.12 37.24Q137.64 37.44 140.57 37.63Z"/><path fill="#444" d="M113.30 34.75L113.36 34.82L111.48 34.88L111.46 34.85Q110.51 34.86 109.56 34.97L109.62 35.04L109.57 34.99Q110.18 28.82 110.18 24.82L110.20 24.84L110.11 24.75Q106.08 18.02 98.42 9.34L98.54 9.45L98.42 9.33Q100.31 10.42 103.66 11.22L103.68 11.24L103.55 11.11Q108.79 16.88 111.80 22.10L111.62 21.92L111.77 22.08Q114.74 16.47 119.11 11.45L119.13 11.46L119.12 11.46Q121.55 11.06 124.06 10.26L124.11 10.31L124.01 10.21Q117.86 16.21 112.99 24.62L113.14 24.78L113.07 24.71Q112.99 31.67 113.29 34.75ZM122.57 12.36L125.25 9.47L125.27 9.49Q122.04 10.52 118.91 10.98L119.06 11.12L119.05 11.12Q114.77 15.79 111.96 20.89L111.90 20.83L112.03 20.96Q109.79 17.20 106.59 13.32L106.62 13.34L106.54 13.26Q106.37 13.36 105.87 13.28L105.90 13.31L105.92 13.33Q105.11 12.40 103.59 10.73L103.61 10.75L103.59 10.73Q100.35 10.12 97.38 8.56L97.28 8.46L97.37 8.55Q105.05 16.98 109.80 24.90L109.69 24.79L109.76 24.86Q109.65 31.18 109.04 35.33L108.96 35.25L109.00 35.29Q109.81 35.34 111.26 35.23L111.29 35.26L111.23 36.23L111.35 36.35Q111.21 36.66 111.13 37.20L111.18 37.24L111.14 37.21Q114.77 37.29 116.52 37.48L116.38 37.34L116.47 37.44Q115.15 32.69 115.04 26.71L115.01 26.69L115.09 26.76Q119.52 18.36 126.07 11.02L126.05 10.99L122.53 12.31Z"/><path fill="#333" d="M85.76 22.16L85.71 22.11L85.81 22.21Q86.51 22.11 87.92 21.96L87.89 21.93L87.89 21.93Q88.03 22.76 88.03 23.40L87.91 23.28L87.85 24.48L87.91 24.54Q87.11 24.57 86.27 24.65L86.29 24.67L86.28 24.65Q85.52 24.77 84.68 24.73L84.62 24.67L84.55 24.61Q81.82 30.90 78.40 35.50L78.22 35.33L78.21 35.32Q75.75 36.02 74.46 36.63L74.55 36.72L74.53 36.70Q78.64 30.99 81.69 24.71L81.65 24.68L78.98 24.63L79.07 24.72Q78.99 23.30 78.87 21.97L79.01 22.11L78.87 21.97Q80.88 22.23 82.93 22.23L82.78 22.07L84.83 18.52L84.69 18.39Q85.81 16.61 87.03 15.02L87.08 15.06L87.07 15.05Q85.48 15.18 83.88 15.18L83.74 15.04L83.87 15.16Q77.73 15.12 73.96 12.91L73.90 12.85L73.36 11.24L73.38 11.26Q72.95 10.33 72.57 9.46L72.62 9.51L72.57 9.46Q76.90 12.08 82.61 12.30L82.68 12.38L82.70 12.40Q87.82 12.61 92.96 10.63L92.84 10.51L93.00 10.67Q92.64 10.92 92.15 11.80L92.30 11.95L92.16 11.81Q88.64 16.67 85.79 22.19ZM93.75 13.17L93.77 13.19L94.90 11.32L94.81 11.23Q93.84 11.70 92.17 12.42L92.18 12.43L92.45 12.21L92.45 12.21Q92.52 12.02 92.63 11.90L92.63 11.89L92.61 11.88Q93.05 11.25 93.77 9.92L93.81 9.95L93.77 9.92Q88.42 12.18 82.67 11.95L82.65 11.93L82.73 12.01Q76.69 11.72 71.94 8.75L71.87 8.69L71.79 8.61Q72.93 10.58 73.76 13.25L73.83 13.31L73.67 13.15Q74.93 13.95 75.72 14.26L75.56 14.09L75.58 14.11Q75.89 14.62 76.35 16.48L76.26 16.39L76.25 16.38Q79.33 17.56 84.85 17.40L84.84 17.39L84.90 17.45Q84.68 18.11 82.70 21.88L82.56 21.74L82.57 21.74Q80.50 21.73 78.52 21.54L78.71 21.73L78.67 21.70Q78.69 22.47 78.69 23.35L78.61 23.27L78.73 25.10L80.37 25.07L80.41 26.52L80.31 26.41Q76.45 33.87 73.67 37.44L73.60 37.37L73.68 37.45Q75.23 36.64 76.87 36.15L76.81 36.09L76.83 36.11Q76.12 36.99 74.75 38.71L74.93 38.89L74.88 38.84Q77.96 37.65 80.39 37.42L80.44 37.47L80.39 37.42Q83.31 33.65 86.44 26.87L86.47 26.91L89.85 27.05L89.94 27.14Q89.87 26.23 89.87 25.31L89.86 25.30L89.87 23.53L89.91 23.57Q89.52 23.44 88.97 23.48L88.98 23.49L89.10 23.61Q88.48 23.58 88.21 23.58L88.28 23.65L88.28 23.65Q88.28 23.53 88.32 23.38L88.20 23.26L88.19 22.99L88.15 22.95Q90.84 17.99 93.92 13.34Z"/><path fill="#222" d="M27.60 15.13L27.69 15.21L27.66 15.19Q23.21 15.04 19.52 14.05L19.47 14.00L19.51 14.04Q21.15 18.73 21.34 23.56L21.22 23.45L21.23 23.45Q21.45 28.28 20.24 32.89L20.25 32.90L20.21 32.86Q23.01 32.24 26.51 32.09L26.58 32.15L26.66 32.23Q30.50 31.96 32.29 29.52L32.26 29.50L32.37 29.60Q33.88 27.54 34.07 23.42L33.96 23.31L33.99 23.34Q34.00 21.52 33.54 19.81L33.65 19.92L33.61 19.88Q32.28 15.08 27.56 15.08ZM15.61 37.05L15.60 37.05L15.62 37.07Q18.60 31.48 18.60 24.78L18.62 24.80L18.67 24.85Q18.52 16.17 14.22 9.17L14.28 9.23L14.34 9.29Q19.63 11.99 27.89 12.18L27.70 11.99L27.72 12.01Q36.69 12.30 37.03 19.46L37.02 19.44L36.93 19.35Q37.15 22.16 37.11 23.61L37.14 23.64L37.09 23.59Q36.91 28.17 36.07 30.34L36.10 30.36L36.25 30.52Q35.69 31.48 34.93 32.31L34.97 32.36L34.93 32.31Q33.63 33.91 31.01 34.41L31.07 34.47L31.06 34.46Q29.44 34.71 26.44 34.94L26.32 34.82L26.51 35.02Q20.36 35.45 15.75 37.20ZM33.52 36.93L33.63 37.03L33.56 36.96Q36.41 36.73 38.04 35.24L37.95 35.15L37.89 35.09Q39.25 33.48 39.22 30.74L39.09 30.61L39.20 30.73Q39.10 29.26 38.95 25.75L39.04 25.84L38.59 21.20L38.59 21.20Q38.48 19.01 37.53 16.91L37.44 16.82L37.57 16.95Q37.06 16.02 36.37 15.37L36.24 15.24L36.38 15.22L36.18 15.03Q34.51 12.10 30.09 11.72L30.14 11.77L30.25 11.88Q27.40 11.57 20.39 10.85L20.57 11.02L20.45 10.91Q17.28 10.55 13.59 8.54L13.47 8.42L13.45 8.40Q18.41 15.91 18.41 24.66L18.30 24.55L18.27 24.53Q18.27 31.53 14.92 37.70L15.09 37.87L15.04 37.82Q15.63 37.45 16.96 36.96L17.09 37.09L17.06 37.06Q16.63 37.81 15.76 39.30L15.79 39.33L15.86 39.40Q18.88 38.31 22.23 37.82L22.10 37.68L22.25 37.83Q24.29 37.47 27.94 37.36L27.96 37.37L27.92 37.33Q31.83 37.25 33.65 37.06ZM33.62 23.36L33.70 23.43L33.74 23.48Q33.32 31.43 26.62 31.81L26.47 31.66L26.67 31.86Q24.58 31.82 22.52 32.09L22.61 32.17L22.52 32.09Q23.29 28.29 23.29 24.63L23.31 24.66L23.22 24.57Q23.19 20.84 22.47 17.00L22.63 17.16L22.53 17.06Q24.83 17.45 29.51 17.45L29.43 17.37L29.52 17.47Q30.81 17.23 32.45 18.18L32.44 18.18L32.49 18.23Q33.73 20.46 33.58 23.32Z"/><path d="M11 22 C121 27,110 13,186 16" stroke="#333" fill="none"/><path fill="#333" d="M53.77 14.69L53.74 14.65L52.12 14.71L52.15 14.74Q49.90 14.85 49.67 16.87L49.60 16.80L49.65 16.85Q49.56 17.55 49.59 18.54L49.56 18.51L49.65 18.59Q49.72 20.57 50.98 21.91L50.88 21.81L50.96 21.88Q52.14 23.15 54.05 23.00L54.12 23.07L54.11 23.06Q56.21 22.96 56.98 22.04L56.91 21.98L56.93 22.00Q57.96 21.05 58.23 18.80L58.33 18.90L58.24 18.81Q58.53 16.59 57.27 15.75L57.23 15.71L57.23 15.71Q56.45 15.00 53.78 14.70ZM59.87 23.98L59.69 23.80L58.47 26.17L58.49 26.19Q55.80 30.99 52.03 35.06L52.01 35.04L51.98 35.02Q50.30 35.12 47.60 35.92L47.61 35.94L47.76 36.09Q53.08 29.79 56.24 25.00L56.16 24.92L56.16 24.92Q55.05 25.48 53.41 25.56L53.40 25.55L53.45 25.60Q50.38 25.69 48.86 23.71L49.02 23.87L49.05 23.90Q47.81 22.28 46.71 17.71L46.62 17.62L46.63 17.63Q46.57 17.11 46.41 16.18L46.46 16.23L46.58 16.35Q46.33 15.32 46.33 14.86L46.41 14.94L46.23 14.76Q46.41 13.15 47.47 12.54L47.40 12.46L47.45 12.52Q48.63 11.71 50.49 11.71L50.46 11.68L50.42 11.64Q53.64 11.66 53.64 11.66L53.68 11.70L53.59 11.62Q55.78 11.67 57.04 11.86L57.10 11.92L57.10 11.92Q59.30 12.26 60.21 12.76L60.23 12.77L60.05 12.59Q61.55 13.49 61.74 15.24L61.79 15.28L61.71 15.20Q61.66 15.38 61.47 18.05L61.49 18.06L61.51 18.09Q61.13 20.22 60.90 21.06L60.91 21.07L60.84 20.99Q60.59 22.54 59.83 23.94ZM61.76 26.37L61.76 26.37L61.65 26.26Q62.72 24.13 63.26 19.83L63.28 19.86L63.16 19.74Q63.55 17.65 63.51 16.78L63.37 16.63L63.40 16.67Q63.42 14.86 62.24 13.94L62.21 13.91L61.98 13.87L61.96 13.85Q61.66 13.06 60.75 12.42L60.80 12.46L60.81 12.47Q58.53 11.49 53.73 11.33L53.73 11.33L53.71 11.31Q52.70 11.26 50.26 11.26L50.17 11.16L50.21 11.20Q48.59 11.34 47.11 12.02L46.97 11.88L46.94 11.85Q45.82 12.67 45.89 14.50L46.01 14.62L45.98 14.58Q46.08 15.41 46.27 17.43L46.26 17.41L46.31 17.47Q46.85 20.03 47.12 20.87L47.12 20.86L47.19 20.94Q47.78 22.81 48.73 24.11L48.78 24.16L48.70 24.09Q49.09 24.55 49.47 24.93L49.43 24.89L49.36 24.82Q49.71 25.36 50.36 26.27L50.37 26.28L50.24 26.16Q51.74 27.54 53.68 27.73L53.66 27.71L53.65 27.70Q51.91 30.53 50.35 32.43L50.22 32.31L46.56 36.64L46.59 36.67Q48.98 36.05 50.62 35.71L50.46 35.55L50.47 35.56Q49.67 36.40 48.11 38.11L48.19 38.19L48.17 38.17Q51.25 37.26 54.38 37.22L54.38 37.22L54.46 37.30Q56.65 34.58 60.99 27.35L61.02 27.38L61.16 27.60L61.01 27.44Q61.36 26.81 61.71 26.31ZM55.76 17.13L55.62 16.99L55.72 17.09Q56.24 16.88 56.69 17.00L56.75 17.05L56.75 17.06Q57.42 17.20 57.81 17.31L57.73 17.24L57.76 17.27Q57.84 17.62 57.92 18.03L57.87 17.99L57.89 18.01Q57.99 18.45 57.88 18.83L57.87 18.82L57.83 18.78Q57.87 20.57 56.69 21.68L56.76 21.75L56.75 21.74Q55.64 22.61 54.00 22.57L54.04 22.61L54.09 22.66Q53.70 22.68 52.17 22.38L52.10 22.31L52.23 22.44Q51.83 21.39 51.83 20.66L51.98 20.82L51.89 20.72Q51.76 20.40 51.76 20.18L51.82 20.24L51.88 20.30Q51.91 18.12 54.20 17.32L54.18 17.31L54.09 17.21Q54.77 16.98 55.61 16.98Z"/><path fill="#111" d="M169.89 34.77L169.88 34.76L168.02 34.85L167.92 34.75Q166.99 34.77 166.04 34.88L166.11 34.95L166.04 34.88Q166.71 28.78 166.71 24.78L166.62 24.69L166.70 24.77Q162.79 18.16 155.14 9.48L155.00 9.34L155.07 9.41Q156.84 10.38 160.19 11.18L160.26 11.25L160.25 11.24Q165.24 16.76 168.24 21.97L168.29 22.02L168.27 22.01Q171.21 16.38 175.59 11.35L175.58 11.34L175.75 11.52Q178.10 11.04 180.61 10.24L180.59 10.23L180.59 10.22Q174.49 16.27 169.62 24.68L169.61 24.67L169.73 24.80Q169.63 31.74 169.93 34.82ZM179.12 12.33L181.80 9.46L181.80 9.45Q178.74 10.66 175.62 11.12L175.53 11.02L175.61 11.11Q171.26 15.70 168.44 20.80L168.54 20.90L168.60 20.96Q166.47 17.31 163.27 13.42L163.15 13.30L163.25 13.40Q162.83 13.25 162.34 13.18L162.40 13.24L162.36 13.20Q161.83 12.55 160.31 10.88L160.19 10.76L160.13 10.70Q156.88 10.08 153.91 8.52L153.94 8.55L153.93 8.53Q161.60 16.97 166.36 24.88L166.26 24.78L166.37 24.90Q166.31 31.27 165.70 35.42L165.61 35.33L165.69 35.41Q166.42 35.38 167.87 35.27L167.79 35.19L167.86 36.29L167.85 36.28Q167.75 36.63 167.67 37.16L167.65 37.15L167.75 37.25Q171.26 37.22 173.02 37.41L172.96 37.35L172.97 37.36Q171.87 32.83 171.76 26.86L171.65 26.75L171.70 26.80Q176.07 18.34 182.62 11.00L182.53 10.91L179.04 12.25Z"/><path d="M17 21 C93 7,103 32,188 37" stroke="#777" fill="none"/></svg>