<svg xmlns="http://www.w3.org/2000/svg" width="200" height="40" viewBox="0,0,200,40"><path fill="#111" d="M163.60 35.43L163.47 35.31L163.46 35.29Q162.12 35.44 160.56 35.02L160.61 35.07L160.45 34.91Q159.37 34.14 159.22 32.50L159.25 32.52L159.12 32.40Q159.08 32.21 159.27 29.58L159.32 29.63L159.32 29.63Q160.29 29.38 162.31 29.00L162.30 28.99L162.09 29.74L162.17 29.81Q161.82 31.48 163.22 32.05L163.23 32.05L163.37 32.20Q164.15 32.52 166.25 32.52L166.12 32.40L166.20 32.47Q167.77 32.30 167.97 32.22L168.03 32.28L167.96 32.22Q168.88 32.07 169.61 31.58L169.74 31.71L169.66 31.64Q170.99 30.61 170.80 28.51L170.88 28.58L170.84 28.55Q170.68 26.14 168.95 24.58L168.87 24.51L168.90 24.53Q167.21 23.01 164.73 23.01L164.81 23.09L164.74 22.80L164.80 22.86Q165.05 22.68 165.93 22.61L165.89 22.57L166.04 22.72Q167.82 22.49 169.19 21.25L169.19 21.25L169.29 21.34Q170.63 20.08 170.78 18.21L170.71 18.14L170.77 18.20Q170.91 17.92 170.91 17.58L170.81 17.47L170.83 17.50Q170.92 16.06 169.55 15.15L169.44 15.05L169.41 15.01Q168.23 14.25 166.63 14.36L166.70 14.43L166.61 14.35Q165.47 14.35 164.25 14.77L164.20 14.72L164.12 14.64Q162.80 15.29 162.49 16.43L162.40 16.34L162.44 16.38Q162.31 17.20 162.38 17.96L162.31 17.89L162.31 17.89Q161.17 17.55 159.11 16.82L159.24 16.95L159.13 16.84Q159.02 15.28 159.05 14.44L158.96 14.35L159.01 14.39Q159.04 12.79 160.11 12.11L160.20 12.20L160.17 12.17Q161.52 11.50 163.11 11.50L163.14 11.52L163.20 11.58Q166.33 11.52 169.49 11.78L169.56 11.86L169.52 11.81Q174.56 12.21 174.26 15.98L174.38 16.10L174.27 15.99Q174.28 17.57 173.79 19.13L173.80 19.14L173.67 19.01Q172.79 22.13 170.43 23.04L170.53 23.13L170.34 22.95Q173.02 23.54 173.63 26.89L173.72 26.98L173.69 26.94Q173.89 28.06 173.97 30.08L174.05 30.16L173.99 30.10Q174.04 34.45 169.43 34.91L169.49 34.96L169.57 35.05Q168.79 35.06 163.50 35.33ZM168.69 37.56L168.64 37.50L168.82 37.69Q169.34 37.64 172.20 37.71L172.13 37.64L172.29 37.80Q174.02 37.86 175.66 37.22L175.64 37.20L175.48 37.04Q176.67 36.10 176.48 34.34L176.59 34.45L176.60 34.46Q176.38 33.02 176.07 31.27L176.23 31.42L176.17 31.37Q175.38 26.81 173.44 25.18L173.44 25.17L173.37 24.91L173.23 24.74L173.29 24.79Q174.96 23.27 175.72 18.89L175.74 18.91L175.78 18.95Q175.72 18.39 175.84 17.44L175.86 17.46L175.98 17.59Q175.92 16.69 175.85 16.01L175.97 16.13L175.85 16.01Q175.74 14.38 174.45 13.69L174.51 13.75L174.45 13.77L174.48 13.80Q174.13 12.76 172.99 12.23L172.93 12.18L173.05 12.30Q171.51 11.60 166.37 11.29L166.28 11.20L166.20 11.12Q164.66 11.17 163.06 11.17L163.06 11.18L162.95 11.07Q161.38 11.09 159.86 11.74L159.93 11.81L159.89 11.77Q158.69 12.55 158.69 14.30L158.66 14.27L158.76 14.38Q158.68 13.87 158.94 17.22L159.03 17.31L158.93 17.21Q159.15 17.20 160.78 17.81L160.84 17.86L160.95 17.98Q160.96 18.51 160.92 19.01L160.94 19.03L160.90 18.99Q160.75 19.33 160.79 19.87L160.96 20.04L160.90 19.98Q162.66 20.33 164.67 20.44L164.73 20.50L164.61 20.37Q164.67 18.49 165.77 17.66L165.71 17.59L165.71 17.60Q166.53 16.93 168.55 16.70L168.65 16.80L168.58 16.73Q169.80 16.81 170.37 17.00L170.20 16.83L170.34 16.97Q170.34 17.05 170.38 17.17L170.29 17.07L170.37 17.34L170.41 17.84L170.47 17.90Q170.55 18.17 170.52 18.33L170.40 18.21L170.47 18.28Q170.31 19.91 168.79 21.09L168.94 21.24L168.93 21.24Q167.94 22.07 165.92 22.26L165.88 22.22L165.85 22.19Q165.15 22.36 164.27 22.36L164.22 22.31L164.22 22.31Q164.28 22.67 164.43 23.36L164.41 23.34L164.49 23.42Q166.28 23.46 167.73 24.18L167.71 24.17L167.61 24.18L166.04 24.36L166.07 24.39Q166.08 24.71 166.20 25.31L166.15 25.27L166.09 25.21Q168.25 25.16 169.96 26.49L170.08 26.61L169.99 26.52Q170.18 26.87 170.49 28.50L170.48 28.50L170.64 28.66Q170.69 31.44 167.76 31.86L167.89 31.99L167.87 31.98Q165.65 32.12 165.08 32.08L165.22 32.21L165.07 32.07Q164.69 32.03 164.15 31.95L164.25 32.05L164.12 31.46L164.27 31.04L164.39 30.74L164.33 30.34L164.29 30.30Q163.44 30.48 162.64 30.67L162.66 30.68L162.66 30.69Q162.59 30.43 162.59 30.24L162.48 30.12L162.62 30.26Q162.58 29.99 162.58 29.76L162.56 29.75L162.52 29.70Q162.69 29.42 162.84 28.69L162.76 28.62L162.81 28.67Q160.95 28.90 159.09 29.24L159.10 29.25L158.95 29.11Q158.99 29.64 158.87 30.76L158.90 30.79L159.02 30.91Q158.90 32.02 158.90 32.63L158.77 32.51L158.74 32.47Q158.99 34.70 160.36 35.46L160.36 35.47L160.35 35.46Q161.70 37.61 166.42 37.42L166.47 37.46L166.39 37.39Q167.12 37.35 168.64 37.50Z"/><path fill="#333" d="M55.79 15.03L55.96 15.21L55.81 15.05Q51.61 15.16 47.92 14.17L47.79 14.04L47.82 14.07Q49.36 18.65 49.55 23.49L49.56 23.49L49.48 23.42Q49.78 28.32 48.56 32.92L48.49 32.86L48.52 32.89Q51.34 32.28 54.84 32.13L54.95 32.24L54.92 32.21Q58.77 31.95 60.56 29.51L60.59 29.53L60.66 29.61Q62.18 27.55 62.37 23.44L62.27 23.34L62.21 23.28Q62.39 21.63 61.93 19.92L61.99 19.97L61.95 19.93Q60.64 15.16 55.91 15.16ZM44.04 37.20L44.01 37.17L44.06 37.22Q46.95 31.55 46.95 24.85L46.85 24.75L46.90 24.80Q46.84 16.21 42.54 9.20L42.61 9.27L42.64 9.31Q47.77 11.85 56.04 12.04L56.01 12.01L56.12 12.12Q64.96 12.28 65.30 19.44L65.27 19.41L65.20 19.34Q65.43 22.16 65.39 23.60L65.39 23.60L65.33 23.54Q65.39 28.36 64.55 30.53L64.36 30.33L64.39 30.37Q64.13 31.63 63.37 32.47L63.26 32.37L63.21 32.31Q61.82 33.81 59.19 34.31L59.34 34.46L59.28 34.39Q57.70 34.68 54.69 34.91L54.73 34.95L54.64 34.86Q48.59 35.39 43.98 37.14ZM61.80 36.92L61.88 37.00L61.98 37.09Q64.64 36.67 66.28 35.19L66.22 35.13L66.22 35.13Q67.49 33.44 67.46 30.70L67.48 30.72L67.33 30.56Q67.45 29.32 67.30 25.81L67.39 25.90L66.98 21.31L66.92 21.25Q66.78 19.01 65.83 16.92L65.76 16.86L65.76 16.86Q65.30 15.97 64.61 15.33L64.61 15.32L64.52 15.08L64.61 15.17Q62.98 12.29 58.57 11.91L58.49 11.83L58.43 11.77Q55.70 11.60 48.70 10.87L48.83 11.01L48.74 10.91Q45.42 10.41 41.72 8.39L41.82 8.49L41.86 8.52Q46.64 15.85 46.64 24.61L46.57 24.54L46.69 24.66Q46.61 31.58 43.26 37.75L43.37 37.87L43.20 37.69Q44.00 37.54 45.33 37.04L45.36 37.07L45.26 36.97Q44.95 37.84 44.07 39.33L44.07 39.32L44.10 39.35Q47.16 38.30 50.51 37.80L50.47 37.76L50.47 37.77Q52.55 37.45 56.20 37.33L56.28 37.41L56.12 37.25Q60.08 37.21 61.91 37.02ZM61.85 23.30L61.85 23.30L61.85 23.30Q61.59 31.42 54.89 31.80L54.93 31.84L54.79 31.69Q52.94 31.90 50.88 32.17L50.94 32.23L50.77 32.05Q51.56 28.27 51.56 24.62L51.59 24.65L51.66 24.72Q51.54 20.91 50.82 17.06L50.75 16.99L50.88 17.13Q53.01 17.35 57.69 17.35L57.72 17.37L57.80 17.46Q59.09 17.23 60.73 18.18L60.73 18.18L60.73 18.18Q62.06 20.50 61.90 23.35Z"/><path fill="#222" d="M106.37 28.02L106.39 28.04L106.27 27.92Q109.38 27.56 112.57 27.67L112.56 27.66L112.53 27.62Q112.65 25.23 112.65 22.84L112.45 22.64L112.51 22.69Q112.55 20.27 112.74 17.72L112.65 17.62L112.80 17.77Q111.56 19.47 106.35 27.99ZM116.23 35.33L116.26 35.35L116.30 35.40Q114.63 35.10 112.84 35.02L112.70 34.88L112.77 34.95Q112.51 32.52 112.40 30.05L112.41 30.06L112.42 30.07Q107.10 29.89 102.38 31.30L102.34 31.26L102.40 31.32Q102.41 30.72 102.61 29.73L102.60 29.73L102.63 29.76Q104.58 26.76 108.15 20.47L107.96 20.28L107.97 20.29Q111.04 15.60 114.47 11.71L114.36 11.61L114.44 11.69Q115.33 11.51 117.01 11.24L117.00 11.24L116.93 11.17Q114.94 17.51 114.94 24.56L115.07 24.69L115.09 24.71Q114.95 26.06 115.03 27.54L115.15 27.66L116.40 27.73L116.49 27.82Q117.05 27.81 117.66 27.92L117.68 27.94L117.56 27.82Q117.81 28.95 118.07 30.89L117.98 30.79L118.09 30.90Q116.71 30.47 115.22 30.28L115.26 30.32L115.38 30.44Q115.47 32.32 116.16 35.25ZM117.85 27.47L117.85 27.47L117.92 27.54Q117.76 27.50 117.57 27.50L117.59 27.51L117.03 27.34L117.10 27.40Q116.91 25.85 116.91 24.44L116.92 24.45L116.95 24.47Q117.00 18.13 119.06 12.12L119.07 12.12L119.06 12.12Q118.38 12.46 116.93 12.84L116.94 12.85L116.88 12.79Q117.13 12.06 117.59 10.65L117.54 10.59L117.62 10.68Q116.28 11.01 114.22 11.24L114.13 11.14L114.27 11.29Q110.22 15.49 105.00 24.86L105.12 24.98L107.13 21.24L107.09 21.20Q106.69 22.25 106.43 22.82L106.37 22.76L101.99 31.86L101.94 31.81Q102.61 31.68 103.75 31.30L103.81 31.36L103.62 31.55L103.67 31.59Q103.56 32.29 103.26 33.55L103.22 33.51L103.15 33.44Q107.34 32.18 112.17 32.37L112.20 32.40L112.14 32.34Q112.14 33.26 112.33 35.24L112.49 35.39L112.36 35.26Q113.45 35.29 114.51 35.40L114.45 35.34L114.44 35.32Q114.63 36.05 114.90 37.42L114.88 37.41L115.03 37.55Q116.79 37.64 119.80 38.55L119.95 38.70L119.86 38.62Q118.83 36.44 117.91 33.16L118.01 33.26L119.33 33.59L119.47 33.73Q120.11 33.91 120.79 34.25L120.71 34.18L120.83 34.30Q119.93 31.68 119.77 30.00L119.75 29.98L119.91 30.14Q119.25 29.90 118.11 29.67L118.08 29.64L118.08 29.64Q117.89 28.38 117.89 27.50ZM109.83 27.29L109.89 27.35L109.93 27.39Q110.70 26.10 112.26 23.55L112.17 23.46L112.16 23.45Q112.19 24.43 112.15 25.38L112.24 25.48L112.24 25.48Q112.11 26.33 112.15 27.29L112.18 27.32L112.19 27.33Q111.69 27.36 111.12 27.36L111.00 27.24L111.00 27.25Q110.51 27.36 109.90 27.36Z"/><path fill="#333" d="M17.25 9.28L17.28 9.32L17.19 9.23Q21.07 11.85 25.83 12.08L25.74 12.00L25.83 12.08Q30.48 12.28 34.74 10.53L34.76 10.55L34.72 10.50Q34.43 11.01 33.67 13.79L33.81 13.93L33.66 13.79Q31.03 14.93 28.06 15.08L27.96 14.97L28.07 15.08Q25.03 15.16 22.13 14.44L22.04 14.34L22.17 14.47Q22.89 18.13 23.08 21.78L23.00 21.70L23.05 21.75Q25.12 22.03 26.71 21.99L26.56 21.84L26.64 21.91Q27.90 21.95 30.29 21.84L30.34 21.88L30.16 21.71Q30.29 22.51 30.29 23.20L30.25 23.17L30.11 24.36L30.20 24.44Q27.75 24.39 22.95 24.47L22.91 24.43L23.01 24.52Q22.98 28.61 22.41 32.61L22.42 32.62L22.40 32.60Q25.07 31.99 27.81 32.10L27.79 32.09L27.81 32.10Q30.59 32.26 33.18 33.10L33.07 32.99L33.20 33.11Q33.19 33.84 33.46 34.60L33.45 34.59L33.90 36.10L33.92 36.13Q30.78 34.89 27.35 34.89L27.35 34.88L27.21 34.74Q22.43 34.83 18.16 37.08L18.04 36.96L18.11 37.02Q20.49 30.27 20.22 23.15L20.23 23.16L20.14 23.07Q19.90 15.94 17.24 9.27ZM17.73 37.86L17.71 37.85L17.61 37.74Q18.87 37.03 19.63 36.68L19.73 36.78L19.72 36.77Q19.56 37.56 18.99 39.08L18.95 39.05L18.89 38.99Q23.40 36.99 28.46 37.25L28.41 37.20L28.48 37.27Q33.69 37.61 37.69 40.31L37.69 40.31L37.58 40.20Q36.56 37.81 35.88 35.87L35.85 35.84L35.75 35.75Q34.84 35.22 33.85 34.87L33.76 34.78L33.74 34.76Q33.43 33.47 33.28 32.67L33.19 32.58L33.27 32.66Q30.15 31.63 26.99 31.63L27.01 31.65L27.02 31.66Q26.00 31.78 24.86 31.90L24.77 31.81L24.68 31.71Q24.88 30.55 24.92 29.33L24.86 29.27L25.02 26.85L24.96 26.78Q26.74 26.66 28.53 26.70L28.55 26.71L28.57 26.73Q30.39 26.77 32.18 26.92L32.32 27.07L32.29 27.03Q32.10 25.96 32.10 25.01L32.05 24.97L32.09 23.10L31.29 23.18L31.38 23.26Q31.02 23.40 30.57 23.40L30.48 23.32L30.42 23.26Q30.49 22.64 30.64 21.34L30.57 21.28L30.64 21.34Q29.08 21.61 27.90 21.65L27.94 21.69L27.91 21.66Q26.83 21.54 25.01 21.46L25.06 21.51L25.12 21.58Q25.00 20.12 24.81 17.30L24.87 17.37L24.82 17.31Q25.90 17.48 26.89 17.48L26.75 17.34L26.82 17.41Q31.59 17.46 35.29 15.56L35.33 15.60L35.27 15.55Q35.76 13.11 36.64 10.90L36.68 10.94L36.75 11.01Q35.43 11.86 34.59 12.20L34.54 12.15L34.57 12.18Q34.91 11.45 35.37 9.89L35.26 9.79L35.25 9.78Q30.57 11.87 25.70 11.57L25.68 11.55L25.70 11.57Q20.50 11.35 16.65 8.50L16.63 8.47L16.64 8.48Q19.45 15.37 19.76 22.99L19.77 23.00L19.76 22.99Q20.06 30.91 17.55 37.68Z"/><path fill="#444" d="M141.63 34.80L141.77 34.94L139.75 34.86L139.67 34.78Q138.80 34.87 137.85 34.98L137.87 35.00L137.81 34.94Q138.36 28.71 138.36 24.71L138.40 24.76L138.46 24.82Q134.35 18.01 126.70 9.33L126.86 9.48L126.80 9.42Q128.61 10.43 131.96 11.23L132.01 11.28L131.97 11.25Q136.96 16.77 139.96 21.98L139.95 21.97L140.08 22.09Q142.92 16.37 147.30 11.35L147.47 11.52L147.41 11.46Q149.80 11.03 152.32 10.24L152.38 10.30L152.33 10.25Q146.34 16.41 141.47 24.82L141.38 24.73L141.35 24.69Q141.46 31.85 141.77 34.94ZM150.68 12.18L153.55 9.49L153.44 9.37Q150.43 10.64 147.31 11.09L147.36 11.14L147.22 11.00Q143.04 15.77 140.23 20.87L140.22 20.87L140.24 20.89Q138.02 17.14 134.82 13.26L134.83 13.27L134.88 13.32Q134.56 13.26 134.06 13.19L134.13 13.25L134.09 13.22Q133.53 12.54 132.01 10.87L131.88 10.74L132.00 10.86Q128.47 9.96 125.50 8.40L125.56 8.46L125.67 8.56Q133.35 17.01 138.11 24.93L137.97 24.79L138.02 24.83Q137.96 31.21 137.35 35.36L137.24 35.25L137.28 35.28Q138.09 35.34 139.54 35.22L139.63 35.31L139.64 36.36L139.60 36.31Q139.48 36.65 139.40 37.18L139.53 37.31L139.50 37.28Q143.03 37.27 144.78 37.46L144.69 37.36L144.82 37.50Q143.57 32.82 143.45 26.84L143.42 26.81L143.35 26.74Q147.80 18.35 154.34 11.01L154.27 10.93L150.69 12.19Z"/><path fill="#333" d="M90.62 35.43L90.63 35.44L90.57 35.38Q87.62 31.52 84.99 22.88L84.99 22.88L85.01 22.89Q84.30 20.70 83.50 18.57L83.53 18.60L80.59 27.31L80.55 27.27Q78.73 32.19 76.33 35.42L76.35 35.44L76.31 35.40Q75.67 35.67 74.03 35.82L73.89 35.68L73.98 35.77Q74.10 34.59 74.10 33.34L74.06 33.30L73.98 33.22Q73.98 27.20 71.24 21.07L71.23 21.07L71.32 21.16Q68.19 14.25 62.32 9.27L62.27 9.21L62.22 9.17Q64.47 9.97 66.83 10.50L66.77 10.44L66.84 10.51Q75.58 19.02 76.88 29.99L76.85 29.96L76.86 29.97Q78.45 26.61 79.90 21.25L79.85 21.20L79.78 21.13Q81.86 13.72 82.35 12.32L82.35 12.31L84.54 12.26L84.51 12.23Q85.23 14.29 85.88 16.61L85.92 16.65L87.14 21.07L87.26 21.19Q88.72 26.53 90.13 29.77L90.21 29.85L90.06 29.70Q91.72 18.07 99.64 10.73L99.72 10.81L99.80 10.88Q101.26 10.48 104.23 9.83L104.17 9.77L104.25 9.85Q98.86 14.09 95.81 20.22L95.94 20.35L95.85 20.26Q92.76 26.50 92.76 33.27L92.83 33.34L92.69 33.20Q92.76 34.38 92.84 35.52L92.87 35.55L91.77 35.48L91.63 35.34Q91.19 35.43 90.62 35.43ZM96.89 38.36L96.76 38.22L96.80 38.26Q95.47 34.61 95.59 30.73L95.76 30.90L95.74 30.89Q96.09 19.36 105.46 11.10L105.37 11.01L105.37 11.01Q104.40 11.22 102.46 11.75L102.49 11.78L102.52 11.82Q103.47 10.97 105.37 9.18L105.34 9.15L105.34 9.16Q102.67 9.91 99.74 10.40L99.77 10.43L99.83 10.49Q92.22 17.50 90.32 26.98L90.28 26.94L90.37 27.03Q89.78 25.38 86.92 13.92L86.81 13.81L86.99 13.99Q86.54 14.03 85.58 14.03L85.50 13.94L85.21 12.90L85.15 12.83Q85.05 12.32 84.83 11.82L84.91 11.91L81.99 11.88L81.96 11.85Q81.20 14.36 79.92 19.48L79.81 19.37L79.82 19.38Q78.64 24.60 77.65 27.07L77.70 27.12L77.69 27.11Q76.14 19.24 70.58 12.92L70.41 12.75L70.56 12.90Q69.99 12.75 69.04 12.56L68.99 12.51L69.07 12.59Q68.24 11.64 66.68 10.00L66.71 10.03L66.85 10.18Q63.44 9.36 61.27 8.56L61.15 8.44L61.27 8.56Q66.89 13.19 70.16 19.39L70.24 19.47L70.10 19.32Q73.63 26.01 73.63 33.02L73.73 33.12L73.54 32.93Q73.57 34.52 73.38 36.12L73.36 36.10L73.41 36.15Q73.68 36.20 74.14 36.10L74.11 36.08L74.20 36.16Q74.58 35.99 74.81 35.99L74.74 35.92L74.77 36.98L74.80 37.01Q74.90 37.57 74.98 38.10L74.95 38.07L74.79 37.92Q76.05 37.96 78.34 37.81L78.28 37.75L78.36 37.83Q82.02 32.47 84.76 23.06L84.65 22.96L84.70 23.00Q87.49 31.81 90.46 35.77L90.38 35.68L90.44 35.75Q90.98 35.83 91.82 35.95L91.84 35.96L91.80 35.92Q92.57 36.89 93.64 37.96L93.61 37.93L93.66 37.98Q94.45 38.05 96.85 38.31Z"/><path d="M8 2 C84 22,91 6,196 26" stroke="#777" fill="none"/><path d="M8 3 C102 5,90 21,191 19" stroke="#666" fill="none"/></svg>