<svg xmlns="http://www.w3.org/2000/svg" width="200" height="40" viewBox="0,0,200,40"><path fill="#222" d="M130.46 9.36L130.35 9.25L130.41 9.30Q134.23 11.87 138.99 12.10L138.97 12.08L138.95 12.06Q143.68 12.33 147.94 10.58L147.90 10.54L147.82 10.46Q147.71 11.15 146.95 13.93L146.79 13.77L146.87 13.85Q144.21 14.96 141.24 15.11L141.10 14.97L141.06 14.93Q138.13 15.13 135.24 14.40L135.22 14.38L135.34 14.50Q135.87 17.96 136.06 21.62L136.06 21.62L136.08 21.63Q138.23 21.99 139.83 21.96L139.69 21.82L139.78 21.91Q140.91 21.82 143.30 21.70L143.44 21.84L143.36 21.76Q143.43 22.52 143.43 23.20L143.45 23.22L143.32 24.42L143.40 24.50Q140.90 24.40 136.11 24.48L136.09 24.46L136.19 24.56Q136.18 28.66 135.61 32.66L135.66 32.72L135.52 32.57Q138.17 31.95 140.91 32.07L141.04 32.19L140.92 32.07Q143.75 32.28 146.34 33.12L146.31 33.08L146.32 33.09Q146.32 33.82 146.59 34.58L146.64 34.64L147.05 36.11L147.05 36.11Q143.79 34.76 140.37 34.76L140.47 34.86L140.32 34.71Q135.46 34.72 131.19 36.97L131.27 37.04L131.36 37.14Q133.57 30.21 133.31 23.09L133.34 23.12L133.34 23.12Q133.14 16.03 130.48 9.37ZM130.69 37.68L130.75 37.74L130.85 37.84Q132.01 37.02 132.77 36.68L132.71 36.62L132.77 36.67Q132.55 37.41 131.98 38.94L132.12 39.08L131.98 38.93Q136.63 37.07 141.69 37.34L141.59 37.23L141.71 37.36Q146.82 37.59 150.82 40.30L150.73 40.21L150.86 40.34Q149.58 37.68 148.89 35.74L148.88 35.73L148.89 35.74Q148.00 35.23 147.01 34.89L146.88 34.76L146.90 34.78Q146.52 33.41 146.37 32.61L146.46 32.71L146.49 32.73Q143.42 31.76 140.26 31.76L140.11 31.61L140.19 31.68Q139.06 31.70 137.92 31.81L137.90 31.79L137.96 31.85Q137.97 30.49 138.01 29.27L138.06 29.33L138.19 26.87L138.23 26.91Q140.03 26.80 141.82 26.84L141.79 26.81L141.83 26.85Q143.57 26.81 145.36 26.96L145.35 26.95L145.30 26.89Q145.28 26.01 145.28 25.05L145.27 25.04L145.31 23.18L144.53 23.27L144.55 23.29Q144.12 23.36 143.67 23.36L143.59 23.29L143.58 23.27Q143.55 22.56 143.70 21.26L143.86 21.42L143.82 21.38Q142.16 21.55 140.98 21.58L140.94 21.55L140.92 21.53Q139.99 21.55 138.16 21.48L138.26 21.57L138.19 21.50Q138.11 20.09 137.92 17.27L137.97 17.32L137.97 17.33Q139.04 17.47 140.03 17.47L139.94 17.38L140.02 17.47Q144.74 17.47 148.43 15.56L148.43 15.56L148.43 15.56Q149.03 13.23 149.90 11.02L149.77 10.88L149.78 10.89Q148.57 11.86 147.73 12.20L147.64 12.10L147.57 12.04Q147.94 11.34 148.40 9.78L148.41 9.80L148.47 9.86Q143.67 11.83 138.80 11.53L138.89 11.62L138.98 11.71Q133.61 11.32 129.76 8.47L129.86 8.56L129.85 8.56Q132.70 15.48 133.01 23.09L133.02 23.11L133.05 23.14Q133.39 31.09 130.88 37.87Z"/><path d="M2 16 C111 28,84 13,183 37" stroke="#333" fill="none"/><path d="M2 38 C114 9,88 34,190 28" stroke="#999" fill="none"/><path fill="#444" d="M22.85 24.69L22.88 24.72L22.78 24.62Q22.82 28.93 22.10 33.08L21.99 32.97L22.15 33.13Q24.32 32.48 27.41 32.37L27.47 32.43L27.45 32.41Q28.69 32.51 29.75 31.50L29.85 31.60L29.91 31.65Q30.85 30.52 30.85 29.19L30.88 29.22L30.87 29.21Q30.89 28.93 30.85 28.66L30.80 28.60L30.74 28.55Q30.65 25.68 28.41 24.84L28.46 24.90L28.49 24.92Q27.58 24.48 26.90 24.55L26.91 24.56L27.02 24.67Q25.95 24.59 24.92 24.63L24.87 24.58L24.83 24.54Q23.82 24.63 22.79 24.63ZM21.62 14.24L21.49 14.12L21.60 14.23Q22.48 17.54 22.75 21.92L22.77 21.95L22.82 22.00Q24.24 22.08 26.90 22.12L26.82 22.03L26.81 22.03Q29.83 22.15 30.17 18.61L30.21 18.65L30.03 18.47Q30.29 16.60 28.88 15.76L28.90 15.78L28.85 15.73Q28.06 15.32 23.64 14.67L23.64 14.67L23.54 14.57Q22.60 14.54 21.68 14.31ZM17.88 37.04L17.85 37.02L17.95 37.11Q20.31 30.34 20.05 22.95L20.14 23.05L20.06 22.97Q19.83 15.73 16.90 9.26L16.88 9.24L16.96 9.32Q20.64 11.75 26.86 11.99L26.97 12.10L27.00 12.12Q33.17 12.32 33.51 15.21L33.43 15.13L33.58 15.28Q33.77 17.91 32.36 20.57L32.51 20.72L32.35 20.56Q31.60 22.05 30.00 22.74L30.10 22.85L30.14 22.88Q33.80 23.57 34.03 28.94L33.96 28.87L33.92 28.83Q33.94 29.88 33.87 31.29L33.92 31.34L34.01 31.43Q33.85 32.65 32.92 33.58L33.04 33.70L32.95 33.61Q32.15 34.68 30.82 34.83L30.71 34.72L30.63 34.64Q29.36 34.93 28.29 34.93L28.29 34.93L28.13 34.76Q22.38 34.73 17.85 37.01ZM30.75 37.43L30.81 37.49L30.78 37.46Q31.71 37.51 33.57 37.62L33.50 37.55L33.50 37.55Q34.90 37.58 36.01 36.71L36.05 36.75L36.02 36.72Q36.90 35.89 36.79 34.33L36.76 34.30L36.69 34.23Q36.58 33.24 35.85 29.77L35.98 29.91L35.92 29.84Q35.17 26.54 33.31 25.06L33.43 25.19L32.88 24.21L32.90 24.23Q34.69 22.94 35.26 19.17L35.13 19.04L35.13 19.04Q35.40 18.01 35.32 16.60L35.36 16.65L35.35 16.63Q35.34 15.36 34.23 14.53L34.17 14.46L34.18 14.47Q33.80 14.21 33.68 14.17L33.70 14.18L33.62 14.10Q33.43 13.65 32.60 12.85L32.68 12.94L32.64 12.90Q31.14 11.85 26.91 11.66L26.96 11.71L26.97 11.71Q20.34 11.45 16.35 8.56L16.23 8.44L16.34 8.55Q19.45 15.39 19.75 22.92L19.93 23.10L19.79 22.96Q20.18 30.86 17.37 37.78L17.41 37.82L19.38 36.79L19.51 36.92Q18.96 37.89 18.47 39.04L18.64 39.21L18.52 39.09Q22.94 37.34 27.97 37.34L27.94 37.32L27.95 37.33Q29.26 37.23 30.71 37.38ZM28.67 26.93L28.65 26.91L28.63 26.89Q29.27 26.73 30.18 27.19L30.18 27.18L30.16 27.16Q30.35 27.58 30.50 28.65L30.45 28.60L30.42 28.57Q30.75 30.08 29.82 31.13L29.81 31.12L29.73 31.04Q28.83 32.12 27.42 32.00L27.44 32.02L25.99 32.18L25.87 32.05Q25.07 32.05 24.35 32.16L24.51 32.33L24.44 32.26Q24.84 30.52 24.91 27.06L24.78 26.92L24.88 27.02Q25.47 26.89 26.73 26.85L26.73 26.86L26.76 26.89Q28.01 26.85 28.62 26.89ZM27.53 17.23L27.64 17.33L28.04 17.36L28.01 17.33Q28.12 17.21 28.31 17.24L28.28 17.21L28.68 17.24L29.07 17.44L29.68 17.51L29.67 17.50Q29.77 17.76 29.77 18.06L29.72 18.01L29.71 18.53L29.75 18.57Q29.75 19.83 28.88 20.76L28.93 20.82L28.90 20.79Q28.04 21.73 26.82 21.73L26.75 21.66L26.71 21.62Q25.74 21.68 25.74 21.68L25.86 21.80L25.79 21.73Q24.38 21.62 24.73 21.62L24.82 21.72L24.72 21.61Q24.77 20.18 24.47 17.13L24.49 17.15L24.34 17.01Q26.00 17.22 27.52 17.22Z"/><path fill="#333" d="M158.63 9.24L158.70 9.31L158.74 9.35Q162.52 11.87 167.28 12.10L167.33 12.15L167.30 12.12Q171.81 12.18 176.08 10.43L176.18 10.53L176.03 10.38Q175.90 11.05 175.14 13.83L175.07 13.77L175.10 13.79Q172.44 14.90 169.47 15.05L169.35 14.93L169.36 14.95Q166.40 15.11 163.51 14.38L163.51 14.38L163.54 14.41Q164.29 18.10 164.48 21.75L164.49 21.76L164.35 21.62Q166.52 22.00 168.12 21.96L168.03 21.88L168.12 21.97Q169.31 21.94 171.71 21.83L171.64 21.76L171.63 21.74Q171.61 22.41 171.61 23.10L171.73 23.21L171.64 24.46L171.55 24.36Q169.22 24.43 164.42 24.51L164.43 24.52L164.46 24.55Q164.45 28.65 163.88 32.65L163.84 32.61L163.82 32.59Q166.46 31.95 169.20 32.07L169.14 32.01L169.20 32.07Q171.95 32.19 174.53 33.02L174.60 33.09L174.54 33.03Q174.52 33.73 174.78 34.49L174.87 34.57L175.27 36.05L175.32 36.09Q172.11 34.79 168.68 34.79L168.78 34.88L168.64 34.74Q163.88 34.86 159.62 37.11L159.62 37.11L159.48 36.97Q161.83 30.18 161.56 23.06L161.63 23.13L161.57 23.07Q161.37 15.98 158.71 9.32ZM159.05 37.75L158.99 37.69L159.06 37.77Q160.31 37.03 161.07 36.69L161.18 36.80L161.12 36.74Q160.86 37.43 160.29 38.95L160.41 39.08L160.24 38.91Q164.78 36.94 169.84 37.20L170.00 37.36L169.84 37.20Q175.03 37.52 179.03 40.22L179.15 40.34L179.04 40.23Q177.88 37.70 177.20 35.76L177.21 35.78L177.22 35.79Q176.26 35.21 175.27 34.87L175.22 34.82L175.31 34.91Q174.95 33.55 174.79 32.75L174.80 32.75L174.70 32.66Q171.60 31.65 168.44 31.65L168.49 31.70L168.42 31.63Q167.35 31.70 166.21 31.82L166.23 31.84L166.10 31.71Q166.22 30.46 166.26 29.24L166.36 29.34L166.36 26.75L166.41 26.80Q168.31 26.80 170.09 26.83L170.02 26.76L170.13 26.87Q171.85 26.80 173.64 26.95L173.57 26.89L173.63 26.94Q173.52 25.96 173.52 25.01L173.59 25.07L173.65 23.23L172.86 23.32L172.75 23.21Q172.43 23.38 171.97 23.38L171.95 23.36L171.93 23.34Q171.83 22.55 171.98 21.26L172.11 21.39L171.98 21.26Q170.45 21.56 169.27 21.59L169.27 21.59L169.24 21.56Q168.23 21.50 166.40 21.43L166.49 21.52L166.56 21.58Q166.50 20.20 166.31 17.38L166.31 17.38L166.20 17.27Q167.36 17.51 168.35 17.51L168.26 17.43L168.30 17.46Q173.06 17.50 176.75 15.60L176.65 15.50L176.65 15.50Q177.23 13.15 178.11 10.94L178.03 10.87L178.17 11.00Q176.87 11.87 176.03 12.21L175.95 12.13L175.88 12.06Q176.18 11.30 176.64 9.73L176.80 9.90L176.70 9.80Q172.04 11.91 167.17 11.61L167.24 11.68L167.22 11.66Q161.93 11.35 158.08 8.50L158.08 8.50L158.04 8.46Q160.88 15.38 161.19 22.99L161.26 23.07L161.25 23.06Q161.59 31.00 159.08 37.78Z"/><path fill="#333" d="M62.38 35.48L62.35 35.45L62.31 35.41Q59.34 31.53 56.72 22.89L56.62 22.79L56.62 22.79Q56.09 20.78 55.29 18.65L55.15 18.50L52.41 27.41L52.39 27.40Q50.57 32.31 48.17 35.55L48.19 35.57L48.19 35.57Q47.29 35.58 45.66 35.73L45.57 35.65L45.63 35.71Q45.77 34.55 45.77 33.29L45.78 33.31L45.73 33.25Q45.67 27.19 42.93 21.06L43.01 21.14L42.94 21.06Q39.83 14.19 33.97 9.20L34.02 9.25L34.12 9.35Q36.11 9.89 38.47 10.42L38.55 10.50L38.49 10.45Q47.23 18.96 48.53 29.93L48.56 29.95L48.44 29.84Q50.14 26.59 51.58 21.22L51.50 21.14L51.59 21.22Q53.54 13.69 54.03 12.28L54.06 12.31L56.32 12.33L56.37 12.37Q57.12 14.46 57.77 16.78L57.67 16.68L58.95 21.16L58.93 21.14Q60.43 26.52 61.84 29.76L61.84 29.76L61.92 29.85Q63.52 18.15 71.44 10.81L71.36 10.73L71.38 10.75Q73.00 10.51 75.97 9.86L75.89 9.78L76.04 9.93Q70.61 14.13 67.57 20.26L67.52 20.22L67.63 20.33Q64.57 26.59 64.57 33.36L64.52 33.32L64.56 33.36Q64.47 34.37 64.54 35.51L64.54 35.51L63.38 35.38L63.47 35.46Q62.86 35.38 62.28 35.38ZM68.56 38.30L68.58 38.33L68.48 38.23Q67.28 34.70 67.39 30.82L67.41 30.84L67.40 30.82Q67.71 19.26 77.08 11.00L77.11 11.04L77.13 11.06Q76.19 11.30 74.25 11.83L74.26 11.84L74.27 11.85Q75.14 10.93 77.04 9.14L77.11 9.21L76.98 9.08Q74.29 9.81 71.36 10.31L71.47 10.42L71.51 10.46Q63.95 17.52 62.05 27.00L61.99 26.94L61.99 26.95Q61.44 25.32 58.58 13.86L58.58 13.86L58.60 13.88Q58.27 14.05 57.32 14.05L57.23 13.95L57.04 13.01L57.01 12.98Q56.80 12.35 56.57 11.86L56.67 11.95L53.64 11.82L53.67 11.84Q52.87 14.32 51.60 19.44L51.57 19.41L51.57 19.41Q50.29 24.53 49.30 27.01L49.26 26.97L49.44 27.14Q47.85 19.23 42.29 12.91L42.23 12.86L42.16 12.78Q41.75 12.79 40.80 12.60L40.77 12.58L40.68 12.48Q40.08 11.77 38.52 10.13L38.41 10.02L38.56 10.18Q35.12 9.32 32.95 8.52L32.89 8.46L33.01 8.58Q38.52 13.10 41.79 19.30L41.88 19.40L41.90 19.41Q45.33 26.01 45.33 33.01L45.28 32.96L45.30 32.98Q45.33 34.57 45.14 36.17L45.21 36.24L45.21 36.23Q45.45 36.25 45.91 36.16L45.80 36.04L45.84 36.09Q46.26 35.95 46.49 35.95L46.56 36.03L46.49 36.98L46.60 37.10Q46.59 37.55 46.67 38.08L46.50 37.91L46.59 38.00Q47.81 38.01 50.10 37.85L50.10 37.85L49.93 37.68Q53.62 32.36 56.37 22.95L56.46 23.05L56.29 22.87Q59.07 31.68 62.04 35.63L62.19 35.78L62.07 35.66Q62.68 35.81 63.51 35.93L63.49 35.90L63.54 35.96Q64.28 36.89 65.35 37.95L65.30 37.90L65.39 38.00Q66.10 37.98 68.50 38.25Z"/><path fill="#333" d="M110.07 24.02L110.19 24.15L110.25 24.20Q108.25 23.92 107.01 25.34L107.09 25.42L107.15 25.49Q105.95 26.95 105.76 28.85L105.75 28.84L105.65 28.75Q105.38 30.76 106.46 31.73L106.60 31.86L106.43 31.69Q107.59 32.74 109.69 32.63L109.67 32.61L109.76 32.70Q111.84 32.54 112.95 31.85L112.94 31.85L112.86 31.77Q113.94 30.60 113.94 29.04L113.96 29.06L114.11 29.20Q114.03 28.75 113.96 28.37L113.92 28.33L113.99 28.41Q114.12 26.78 113.01 25.43L113.01 25.43L113.00 25.42Q111.91 24.08 110.24 24.19ZM109.69 35.18L109.75 35.24L109.82 35.31Q105.40 35.27 103.99 34.51L103.96 34.48L104.01 34.53Q102.87 33.65 102.68 31.94L102.73 31.99L102.65 31.91Q102.72 31.34 102.76 30.61L102.74 30.60L102.74 30.59Q102.76 29.51 102.76 29.05L102.79 29.08L102.80 29.09Q103.37 26.34 103.52 25.66L103.50 25.64L103.50 25.64Q103.81 23.56 104.65 22.15L104.82 22.31L104.78 22.27Q107.41 17.87 113.35 11.51L113.35 11.50L113.29 11.45Q115.96 11.15 118.17 10.35L118.24 10.42L118.26 10.44Q111.34 17.84 108.15 22.07L108.17 22.09L108.20 22.12Q109.21 21.65 110.51 21.65L110.50 21.64L110.55 21.69Q113.74 21.57 115.27 23.51L115.38 23.63L115.38 23.63Q116.63 25.18 116.97 28.72L117.07 28.81L116.95 28.70Q116.95 29.34 116.95 29.95L117.01 30.01L117.11 30.12Q116.96 33.09 114.75 34.15L114.89 34.29L114.88 34.28Q113.56 34.79 109.68 35.17ZM112.03 37.63L111.99 37.60L112.08 37.69Q113.24 37.52 115.22 37.59L115.27 37.64L115.38 37.75Q116.98 37.79 118.54 37.06L118.48 37.00L118.40 36.93Q119.67 36.29 119.67 34.50L119.54 34.37L119.60 34.44Q119.51 33.85 119.34 32.86L119.38 32.90L119.37 32.89Q119.35 32.05 119.35 31.60L119.21 31.45L119.34 31.59Q118.47 26.87 116.87 24.97L116.88 24.97L116.86 24.95Q116.68 24.73 116.52 24.50L116.46 24.44L116.31 24.37L116.15 24.24L116.16 24.25Q115.81 23.75 115.20 22.80L115.31 22.91L115.16 22.76Q114.27 21.83 112.29 21.37L112.25 21.34L112.25 21.34Q113.56 19.83 116.53 16.13L116.59 16.19L120.79 10.88L120.67 10.76Q119.26 11.79 116.86 12.55L116.69 12.37L116.88 12.56Q117.77 11.55 119.56 9.57L119.53 9.54L119.50 9.51Q117.13 10.60 113.25 11.18L113.12 11.05L113.21 11.14Q107.59 17.13 104.62 22.08L104.59 22.05L104.61 22.07Q103.02 24.51 102.45 30.76L102.47 30.78L102.38 30.69Q102.37 31.32 102.44 32.27L102.34 32.17L102.46 32.29Q102.52 34.03 103.63 34.94L103.70 35.02L103.64 34.96Q104.06 35.15 104.02 35.18L104.01 35.18L103.85 35.02Q104.25 35.95 105.05 36.37L105.21 36.52L105.17 36.48Q106.62 37.18 108.56 37.37L108.59 37.39L108.44 37.24Q108.52 37.32 112.02 37.63ZM111.70 26.30L111.81 26.42L111.69 26.30Q112.41 26.33 113.36 26.82L113.37 26.83L113.36 26.82Q113.57 27.64 113.57 28.29L113.63 28.35L113.63 28.35Q113.79 30.19 112.84 31.18L112.89 31.23L112.94 31.28Q111.92 32.05 109.83 32.35L109.81 32.34L109.68 32.20Q108.35 32.32 107.82 32.06L107.77 32.01L107.69 31.92Q107.48 31.45 107.48 31.15L107.64 31.30L107.58 31.24Q107.34 27.96 110.27 26.66L110.18 26.58L110.23 26.63Q111.10 26.39 111.86 26.47Z"/><path fill="#222" d="M78.60 35.29L78.70 35.39L78.63 35.32Q77.27 35.44 75.71 35.02L75.68 35.00L75.78 35.10Q74.52 34.15 74.37 32.51L74.37 32.50L74.29 32.43Q74.28 32.27 74.47 29.64L74.42 29.58L74.56 29.72Q75.57 29.52 77.59 29.14L77.57 29.12L77.39 29.89L77.34 29.84Q76.95 31.47 78.36 32.05L78.51 32.19L78.54 32.23Q79.19 32.41 81.28 32.41L81.40 32.54L81.38 32.51Q82.98 32.36 83.17 32.29L83.21 32.32L83.09 32.21Q84.03 32.08 84.76 31.59L84.86 31.69L84.80 31.63Q86.18 30.65 85.99 28.56L86.06 28.63L86.03 28.60Q85.86 26.18 84.13 24.62L84.00 24.50L84.08 24.57Q82.41 23.07 79.93 23.07L79.91 23.04L79.95 22.86L79.77 22.68Q80.31 22.80 81.18 22.72L81.17 22.71L81.10 22.64Q83.11 22.63 84.48 21.39L84.38 21.29L84.37 21.28Q85.72 20.02 85.87 18.16L86.02 18.30L85.89 18.18Q85.92 17.79 85.92 17.45L85.95 17.48L86.09 17.62Q85.98 15.98 84.61 15.07L84.55 15.01L84.58 15.05Q83.37 14.25 81.77 14.36L81.75 14.34L81.84 14.43Q80.50 14.24 79.28 14.66L79.28 14.65L79.24 14.61Q77.87 15.22 77.56 16.36L77.60 16.40L77.48 16.28Q77.43 17.18 77.50 17.94L77.50 17.93L77.44 17.87Q76.31 17.55 74.26 16.82L74.38 16.94L74.36 16.93Q74.11 15.23 74.15 14.39L74.06 14.30L74.11 14.35Q74.28 12.89 75.35 12.21L75.41 12.27L75.33 12.18Q76.83 11.67 78.43 11.67L78.40 11.64L78.44 11.68Q81.58 11.62 84.74 11.89L84.59 11.74L84.72 11.87Q89.72 12.23 89.42 16.00L89.47 16.05L89.46 16.04Q89.39 17.52 88.89 19.08L88.81 19.01L88.80 18.99Q87.88 22.07 85.52 22.98L85.53 23.00L85.58 23.04Q88.17 23.54 88.78 26.89L88.78 26.90L88.85 26.97Q88.97 27.99 89.04 30.01L89.21 30.17L89.04 30.01Q89.21 34.48 84.61 34.94L84.60 34.93L84.70 35.03Q83.98 35.11 78.69 35.38ZM83.80 37.52L83.77 37.49L83.88 37.61Q84.38 37.53 87.24 37.61L87.36 37.73L87.27 37.64Q89.01 37.70 90.65 37.06L90.71 37.12L90.68 37.09Q91.98 36.26 91.79 34.50L91.75 34.47L91.78 34.50Q91.61 33.11 91.31 31.36L91.20 31.26L91.25 31.31Q90.54 26.83 88.60 25.19L88.67 25.26L88.45 24.85L88.30 24.66L88.30 24.66Q90.08 23.24 90.84 18.87L90.97 19.00L90.83 18.85Q90.85 18.38 90.97 17.43L91.01 17.48L91.01 17.47Q91.10 16.73 91.03 16.04L91.12 16.14L90.97 15.99Q90.90 14.39 89.60 13.71L89.54 13.65L89.60 13.78L89.45 13.63Q89.18 12.67 88.04 12.14L88.06 12.17L88.04 12.15Q86.52 11.46 81.38 11.15L81.42 11.19L81.35 11.13Q79.79 11.16 78.19 11.16L78.21 11.18L78.25 11.22Q76.54 11.11 75.02 11.76L75.05 11.79L75.08 11.82Q73.75 12.47 73.75 14.22L73.80 14.27L73.89 14.36Q73.73 13.79 74.00 17.14L74.01 17.15L74.11 17.25Q74.36 17.27 76.00 17.88L75.97 17.85L76.08 17.96Q75.98 18.39 75.94 18.89L76.04 18.99L75.92 18.86Q75.98 19.42 76.02 19.95L76.08 20.02L76.04 19.98Q77.89 20.42 79.91 20.53L79.88 20.51L79.73 20.36Q79.72 18.40 80.82 17.56L80.76 17.50L80.84 17.58Q81.69 16.94 83.70 16.71L83.77 16.78L83.77 16.78Q84.88 16.75 85.45 16.94L85.52 17.01L85.39 16.88Q85.38 16.95 85.42 17.06L85.57 17.21L85.58 17.42L85.64 17.92L85.71 18.00Q85.56 18.04 85.52 18.19L85.53 18.20L85.54 18.21Q85.55 20.01 84.03 21.19L83.98 21.14L83.98 21.14Q83.04 22.03 81.02 22.22L81.06 22.25L81.07 22.27Q80.33 22.41 79.46 22.41L79.39 22.34L79.43 22.37Q79.54 22.79 79.69 23.48L79.63 23.42L79.72 23.51Q81.36 23.40 82.81 24.12L82.84 24.15L82.74 24.16L81.20 24.37L81.14 24.31Q81.23 24.71 81.35 25.32L81.29 25.27L81.35 25.33Q83.37 25.13 85.08 26.47L85.10 26.49L85.24 26.63Q85.42 26.96 85.72 28.60L85.60 28.47L85.72 28.59Q85.82 31.43 82.89 31.85L82.99 31.95L83.05 32.01Q80.85 32.18 80.28 32.14L80.26 32.11L80.34 32.19Q79.81 32.01 79.28 31.94L79.28 31.93L79.34 31.54L79.37 31.00L79.50 30.71L79.45 30.31L79.55 30.41Q78.51 30.40 77.71 30.59L77.68 30.57L77.75 30.64Q77.66 30.35 77.66 30.16L77.64 30.14L77.61 30.11Q77.78 30.05 77.78 29.83L77.71 29.76L77.71 29.76Q77.79 29.38 77.94 28.65L77.99 28.70L77.86 28.58Q76.11 28.91 74.24 29.26L74.18 29.19L74.13 29.14Q74.11 29.62 74.00 30.74L74.11 30.86L74.08 30.82Q73.95 31.94 73.95 32.55L73.97 32.56L74.05 32.64Q73.98 34.55 75.35 35.31L75.49 35.45L75.44 35.41Q76.83 37.59 81.55 37.40L81.61 37.47L81.59 37.44Q82.30 37.39 83.83 37.55Z"/></svg>