<svg xmlns="http://www.w3.org/2000/svg" width="200" height="40" viewBox="0,0,200,40"><path fill="#222" d="M175.71 18.33L175.66 18.27L175.62 18.24Q173.95 14.21 167.75 14.40L167.75 14.40L167.80 14.45Q163.27 14.45 161.29 15.90L161.35 15.96L161.37 15.98Q159.05 17.80 159.05 21.91L159.05 21.92L158.89 23.62L159.03 23.76Q158.93 32.49 167.95 32.49L168.01 32.55L168.04 32.58Q170.04 32.52 171.52 31.72L171.52 31.72L171.47 31.67Q173.29 30.64 173.14 28.78L173.27 28.91L173.21 28.85Q173.03 26.76 169.33 25.84L169.39 25.90L167.44 25.89L167.41 25.86Q166.37 25.77 165.41 25.81L165.51 25.90L165.38 25.77Q165.41 24.85 165.37 22.95L165.38 22.96L165.50 23.08Q172.99 22.91 177.17 22.57L177.28 22.67L177.33 22.73Q177.26 23.53 177.26 24.33L177.20 24.27L177.16 24.23Q177.15 25.02 177.19 25.82L177.37 26.00L177.19 25.82Q176.13 25.86 176.13 25.86L176.19 25.93L176.12 25.85Q174.76 25.86 175.14 25.86L175.07 25.80L175.07 25.80Q176.34 27.59 176.72 29.57L176.53 29.39L176.61 29.46Q176.65 30.12 176.65 30.57L176.82 30.74L176.68 30.60Q176.79 35.36 168.00 35.36L167.91 35.27L167.94 35.30Q160.79 35.27 158.20 33.17L158.25 33.22L158.24 33.21Q156.31 30.90 156.31 25.84L156.34 25.87L156.17 25.70Q156.30 24.76 156.14 22.06L156.15 22.07L156.15 22.06Q156.02 19.72 156.06 18.35L155.90 18.20L155.90 18.20Q156.02 15.35 157.39 13.75L157.53 13.88L157.48 13.83Q160.04 11.79 164.91 11.60L164.93 11.62L167.51 11.45L167.62 11.57Q170.74 11.49 174.17 11.91L173.99 11.73L174.00 11.74Q177.75 12.22 178.70 15.46L178.74 15.49L178.77 15.52Q177.86 16.56 175.77 18.38ZM177.00 20.42L177.22 20.52L177.16 20.46Q178.29 19.30 180.15 17.32L180.30 17.47L180.14 17.31Q179.96 16.48 178.97 14.77L178.88 14.68L179.04 14.84Q177.68 12.00 173.87 11.35L173.96 11.43L173.91 11.38Q171.91 11.41 167.61 11.10L167.55 11.04L164.86 11.17L164.88 11.18Q159.77 11.44 157.18 13.42L157.09 13.33L157.14 13.39Q155.75 15.00 155.64 18.09L155.63 18.08L155.51 17.96Q155.55 17.54 155.78 23.02L155.85 23.10L155.84 23.09Q155.90 24.47 155.97 27.21L155.96 27.20L156.02 27.26Q156.04 31.55 157.80 33.49L157.84 33.54L157.80 33.50Q158.21 34.37 159.09 35.24L159.12 35.28L159.17 35.33Q162.13 37.25 167.65 37.59L167.53 37.48L170.36 37.61L170.55 37.80Q172.09 37.85 174.11 37.74L174.17 37.80L174.02 37.65Q175.52 37.62 177.61 37.09L177.54 37.02L177.69 37.17Q179.63 36.68 179.59 34.35L179.45 34.21L179.49 34.25Q179.61 33.11 178.54 30.33L178.42 30.21L178.53 30.32Q178.18 29.36 177.64 28.56L177.63 28.54L177.56 28.47Q178.25 28.59 179.43 28.78L179.46 28.81L179.32 28.67Q179.17 25.22 179.21 24.53L179.05 24.37L179.21 24.53Q178.76 24.46 178.34 24.42L178.28 24.36L178.33 24.41Q177.94 24.36 177.56 24.44L177.55 24.43L177.62 24.50Q177.65 23.42 177.72 22.36L177.73 22.37L177.72 22.35Q171.39 22.80 165.11 22.69L165.15 22.72L165.08 22.66Q165.16 23.61 165.16 24.53L165.06 24.43L165.17 26.29L165.19 26.31Q165.55 26.29 165.97 26.25L166.06 26.34L165.89 26.17Q166.33 26.19 166.78 26.19L166.75 26.15L166.82 26.22Q166.76 26.62 166.80 27.12L166.78 27.10L166.91 27.23Q166.92 27.69 166.88 28.19L166.73 28.04L166.70 28.01Q167.80 28.04 168.82 28.00L168.92 28.10L168.87 28.05Q169.94 28.08 170.96 28.12L171.00 28.16L170.90 28.06Q171.89 28.25 172.77 28.63L172.88 28.74L172.78 28.68L172.85 28.75Q173.05 30.32 171.38 31.24L171.45 31.31L171.31 31.17Q169.66 32.11 167.94 32.11L167.95 32.11L167.90 32.06Q164.04 32.04 161.60 30.29L161.71 30.40L161.80 30.49Q160.80 28.43 160.96 25.88L160.96 25.89L160.82 25.74Q161.22 21.04 163.06 19.04L163.03 19.01L163.02 18.99Q164.96 17.09 169.64 16.78L169.58 16.73L169.53 16.68Q173.31 16.57 175.25 18.36L175.21 18.32L175.09 18.20Q175.29 18.43 175.40 18.62L175.43 18.65L175.42 18.53L175.57 18.68Q176.13 19.35 176.70 20.46L176.74 20.50L177.04 20.46Z"/><path fill="#333" d="M27.78 27.12L18.65 17.24L18.47 17.05Q19.34 20.78 19.34 24.51L19.44 24.61L19.32 24.49Q19.31 30.46 17.25 36.01L17.38 36.14L17.29 36.05Q16.29 36.39 14.05 37.15L14.07 37.17L14.11 37.21Q16.90 31.40 16.90 24.70L16.78 24.58L16.79 24.59Q16.94 16.10 12.45 8.68L12.26 8.49L12.45 8.68Q12.78 8.74 13.47 9.16L13.50 9.19L13.46 9.16Q25.59 20.40 33.43 29.65L33.43 29.66L33.32 29.55Q33.14 27.23 33.14 24.79L33.07 24.72L33.09 24.74Q33.18 17.60 35.69 11.40L35.68 11.39L35.58 11.28Q37.94 10.80 39.54 10.11L39.44 10.01L39.46 10.02Q36.17 16.22 35.87 23.38L36.02 23.52L35.95 23.45Q35.68 30.84 38.65 37.01L38.49 36.85L38.57 36.92Q37.94 36.79 37.52 36.60L37.58 36.66L37.54 36.62Q33.10 32.79 27.88 27.23L27.78 27.12ZM41.19 40.12L41.16 40.08L41.12 40.04Q41.67 40.29 42.09 40.48L42.07 40.46L42.95 40.85L42.95 40.85Q37.87 33.98 37.87 24.61L37.85 24.59L37.76 24.51Q37.83 17.34 41.14 11.10L41.07 11.03L41.14 11.09Q40.50 11.33 39.09 11.94L38.96 11.81L39.01 11.86Q39.47 11.10 40.31 9.54L40.30 9.54L40.18 9.42Q37.77 10.35 35.33 10.92L35.35 10.95L35.43 11.02Q32.77 17.46 32.77 24.89L32.67 24.79L32.65 24.77Q32.66 26.64 32.85 28.62L32.95 28.72L33.00 28.77Q28.26 23.00 23.50 18.40L23.51 18.41L13.41 8.68L13.39 8.66Q12.89 8.43 11.67 7.86L11.72 7.91L11.55 7.74Q16.49 15.53 16.49 24.63L16.41 24.56L16.53 24.68Q16.49 31.75 13.41 37.76L13.43 37.79L13.34 37.69Q13.65 37.59 15.29 36.98L15.32 37.01L15.38 37.07Q14.98 37.78 14.14 39.26L14.18 39.30L14.23 39.35Q15.48 38.74 18.95 37.94L19.00 37.99L19.07 38.06Q21.43 31.97 21.43 24.78L21.43 24.77L21.38 24.72Q21.26 22.51 21.03 20.38L21.09 20.43L21.10 20.45Q32.68 33.36 41.28 40.21Z"/><path fill="#333" d="M140.22 35.20L140.17 35.15L138.08 35.34L138.08 35.35Q137.64 35.36 136.67 35.41L136.58 35.33L136.71 35.46Q135.62 35.39 135.12 35.39L135.16 35.44L135.21 35.48Q133.47 35.38 132.44 34.54L132.38 34.48L132.54 34.64Q133.33 33.52 134.96 31.39L134.97 31.39L135.01 31.44Q136.20 32.93 138.41 32.70L138.44 32.73L138.38 32.67Q139.37 32.64 140.02 31.99L139.87 31.84L139.98 31.95Q140.55 31.23 140.44 30.35L140.40 30.32L140.39 30.31Q140.42 25.84 140.50 21.27L140.36 21.14L140.37 21.15Q140.41 16.55 140.94 11.94L141.06 12.06L141.04 12.03Q143.00 11.86 145.13 10.84L145.09 10.79L145.12 10.83Q143.27 17.58 143.27 24.82L143.19 24.73L143.16 24.70Q143.14 28.22 143.60 31.73L143.61 31.73L143.73 31.86Q143.70 32.09 143.70 32.44L143.80 32.53L143.70 32.44Q143.65 32.96 143.42 33.49L143.50 33.57L143.61 33.67Q142.96 34.85 140.14 35.12ZM145.01 37.89L145.15 38.03L145.48 38.02L145.60 37.73L146.02 37.76L145.91 37.66Q146.35 37.52 146.42 37.41L146.42 37.40L146.25 37.24Q146.63 36.24 146.36 35.25L146.17 35.06L146.17 35.06Q145.00 29.44 145.27 23.08L145.10 22.91L145.13 22.94Q145.42 16.87 147.21 10.97L147.18 10.94L147.20 10.96Q146.32 11.60 145.06 12.32L145.14 12.40L145.14 12.40Q145.23 11.54 145.65 10.02L145.76 10.13L145.72 10.09Q143.15 11.37 140.49 11.67L140.61 11.80L140.44 11.62Q140.21 16.16 140.14 21.11L140.06 21.03L140.10 21.07Q139.93 26.88 140.01 30.31L140.04 30.34L140.07 30.37Q140.14 32.15 138.39 32.31L138.33 32.24L138.33 32.25Q136.76 32.50 135.09 30.86L134.97 30.74L134.99 30.76Q132.99 33.34 132.04 34.90L132.03 34.89L132.02 34.88Q132.55 35.41 133.58 35.64L133.63 35.69L133.58 35.64Q133.63 35.92 133.36 36.15L133.25 36.03L133.37 36.15Q134.69 36.98 136.67 37.24L136.78 37.36L136.71 37.28Q137.06 37.29 140.35 37.59L140.36 37.60L140.39 37.64Q143.71 37.96 145.08 37.96Z"/><path d="M3 16 C104 22,106 10,188 34" stroke="#888" fill="none"/><path fill="#333" d="M119.10 18.28L119.19 18.38L119.15 18.34Q117.29 14.12 111.09 14.31L111.13 14.35L111.15 14.38Q106.74 14.49 104.76 15.94L104.75 15.93L104.75 15.93Q102.32 17.65 102.32 21.76L102.47 21.91L102.36 23.67L102.45 23.75Q102.30 32.43 111.32 32.43L111.34 32.45L111.47 32.58Q113.50 32.56 114.99 31.76L115.05 31.82L114.96 31.73Q116.78 30.70 116.63 28.84L116.59 28.79L116.61 28.82Q116.47 26.77 112.78 25.86L112.66 25.75L110.88 25.91L110.90 25.92Q109.89 25.87 108.94 25.91L108.83 25.80L108.98 25.95Q108.84 24.85 108.80 22.95L108.83 22.98L108.90 23.04Q116.56 23.06 120.75 22.72L120.75 22.71L120.62 22.59Q120.66 23.50 120.66 24.30L120.72 24.36L120.69 24.33Q120.64 25.08 120.68 25.88L120.62 25.82L120.70 25.90Q119.52 25.82 119.52 25.82L119.63 25.94L119.50 25.80Q118.13 25.81 118.51 25.81L118.48 25.77L118.57 25.86Q119.74 27.57 120.12 29.55L119.96 29.39L120.03 29.45Q120.23 30.27 120.23 30.72L120.18 30.67L120.11 30.60Q120.16 35.29 111.36 35.29L111.46 35.40L111.39 35.32Q104.33 35.38 101.74 33.28L101.76 33.31L101.59 33.13Q99.70 30.86 99.70 25.80L99.59 25.69L99.63 25.73Q99.75 24.78 99.60 22.08L99.44 21.93L99.44 21.92Q99.44 19.72 99.48 18.35L99.50 18.37L99.36 18.23Q99.60 15.50 100.97 13.90L101.00 13.93L101.00 13.93Q103.46 11.79 108.34 11.60L108.29 11.55L111.05 11.57L110.96 11.48Q114.01 11.33 117.43 11.75L117.59 11.91L117.53 11.84Q121.18 12.22 122.13 15.45L122.13 15.46L122.15 15.47Q121.29 16.56 119.20 18.38ZM120.55 20.53L120.69 20.56L120.58 20.45Q121.83 19.42 123.70 17.44L123.69 17.43L123.57 17.32Q123.36 16.46 122.37 14.75L122.28 14.65L122.46 14.84Q121.25 12.13 117.44 11.49L117.46 11.51L117.48 11.52Q115.23 11.29 110.92 10.99L110.94 11.00L108.32 11.19L108.34 11.22Q103.18 11.42 100.59 13.40L100.45 13.26L100.54 13.36Q99.10 14.92 98.99 18.01L99.07 18.10L98.98 18.00Q99.10 17.66 99.32 23.14L99.38 23.20L99.25 23.07Q99.33 24.48 99.41 27.22L99.40 27.22L99.48 27.29Q99.60 31.68 101.35 33.62L101.26 33.52L101.31 33.58Q101.78 34.50 102.65 35.38L102.52 35.25L102.63 35.35Q105.41 37.10 110.93 37.45L110.93 37.45L113.92 37.73L113.97 37.79Q115.54 37.87 117.56 37.76L117.49 37.69L117.47 37.68Q118.94 37.62 121.04 37.09L121.11 37.17L121.08 37.13Q123.07 36.68 123.03 34.36L122.90 34.23L123.00 34.33Q123.03 33.11 121.97 30.33L121.86 30.22L121.83 30.19Q121.65 29.40 121.11 28.60L120.96 28.44L121.10 28.59Q121.70 28.61 122.88 28.80L122.89 28.82L122.80 28.72Q122.62 25.24 122.66 24.55L122.61 24.50L122.47 24.36Q122.20 24.47 121.78 24.43L121.82 24.47L121.83 24.48Q121.35 24.34 120.96 24.41L121.08 24.53L120.96 24.41Q121.04 23.39 121.12 22.32L121.09 22.30L121.15 22.35Q114.86 22.84 108.58 22.73L108.55 22.70L108.56 22.71Q108.51 23.54 108.51 24.45L108.60 24.54L108.59 26.28L108.53 26.22Q108.94 26.25 109.36 26.21L109.33 26.18L109.49 26.34Q109.68 26.12 110.14 26.12L110.26 26.23L110.19 26.17Q110.22 26.65 110.25 27.14L110.25 27.14L110.28 27.17Q110.25 27.60 110.21 28.09L110.28 28.16L110.21 28.09Q111.22 28.03 112.25 28.00L112.36 28.10L112.31 28.06Q113.38 28.09 114.40 28.13L114.43 28.16L114.44 28.16Q115.36 28.29 116.23 28.67L116.37 28.80L116.23 28.70L116.27 28.74Q116.43 30.27 114.75 31.19L114.76 31.19L114.84 31.27Q113.05 32.07 111.33 32.07L111.32 32.05L111.35 32.09Q107.61 32.18 105.17 30.43L105.11 30.38L105.23 30.49Q104.16 28.36 104.31 25.81L104.28 25.77L104.42 25.91Q104.71 21.11 106.56 19.11L106.44 18.99L106.52 19.07Q108.30 17.00 112.98 16.70L112.92 16.64L113.04 16.75Q116.65 16.48 118.59 18.27L118.56 18.24L118.70 18.38Q118.71 18.43 118.83 18.62L118.88 18.68L118.86 18.54L118.90 18.58Q119.47 19.26 120.04 20.36L120.22 20.55L120.42 20.40Z"/><path fill="#222" d="M84.23 15.19L84.20 15.15L84.16 15.12Q79.78 15.03 76.08 14.04L76.13 14.09L76.08 14.04Q77.72 18.72 77.91 23.56L77.85 23.50L77.87 23.52Q77.95 28.21 76.74 32.82L76.84 32.93L76.72 32.81Q79.63 32.28 83.13 32.13L83.16 32.16L83.16 32.16Q87.02 31.91 88.81 29.47L88.85 29.51L88.93 29.59Q90.40 27.49 90.59 23.37L90.54 23.32L90.47 23.26Q90.61 21.57 90.16 19.86L90.13 19.83L90.20 19.90Q88.83 15.07 84.11 15.07ZM72.17 37.05L72.24 37.12L72.19 37.06Q75.22 31.53 75.22 24.83L75.05 24.66L75.15 24.76Q75.07 16.16 70.77 9.15L70.76 9.14L70.84 9.22Q76.15 11.94 84.42 12.14L84.42 12.14L84.33 12.05Q93.20 12.24 93.54 19.39L93.66 19.51L93.51 19.36Q93.64 22.08 93.60 23.53L93.57 23.49L93.62 23.55Q93.52 28.21 92.68 30.38L92.66 30.35L92.79 30.48Q92.40 31.61 91.64 32.45L91.48 32.29L91.49 32.30Q90.19 33.90 87.56 34.39L87.55 34.38L87.64 34.48Q85.91 34.60 82.90 34.83L83.02 34.96L82.96 34.89Q76.81 35.33 72.21 37.08ZM90.26 37.09L90.12 36.95L90.19 37.02Q93.03 36.77 94.66 35.29L94.63 35.26L94.49 35.12Q95.78 33.43 95.74 30.69L95.80 30.75L95.71 30.67Q95.71 29.29 95.56 25.79L95.61 25.84L95.17 21.21L95.13 21.18Q94.99 18.94 94.04 16.84L94.09 16.90L93.98 16.79Q93.49 15.88 92.81 15.23L92.97 15.40L92.91 15.18L92.79 15.06Q91.26 12.28 86.84 11.90L86.68 11.74L86.86 11.91Q84.12 11.73 77.12 11.00L77.03 10.92L76.98 10.86Q73.85 10.55 70.16 8.54L70.03 8.40L70.04 8.42Q74.94 15.87 74.94 24.62L74.86 24.55L74.98 24.66Q75.00 31.69 71.65 37.86L71.49 37.70L71.54 37.74Q72.28 37.54 73.62 37.04L73.66 37.09L73.50 36.93Q73.16 37.77 72.28 39.25L72.47 39.43L72.29 39.26Q75.49 38.35 78.84 37.86L78.71 37.72L78.72 37.73Q80.85 37.47 84.51 37.35L84.54 37.38L84.44 37.29Q88.29 37.13 90.11 36.94ZM90.15 23.31L90.28 23.44L90.27 23.44Q89.83 31.37 83.13 31.75L83.18 31.80L83.12 31.74Q81.12 31.79 79.06 32.06L79.17 32.17L79.25 32.24Q79.83 28.25 79.83 24.60L79.87 24.65L79.79 24.57Q79.82 20.90 79.10 17.06L79.05 17.01L79.16 17.12Q81.34 17.39 86.02 17.39L86.10 17.47L86.17 17.54Q87.52 17.37 89.16 18.32L89.09 18.25L89.05 18.22Q90.42 20.57 90.26 23.43Z"/><path d="M13 14 C94 29,95 8,186 29" stroke="#777" fill="none"/><path fill="#222" d="M55.93 15.17L55.94 15.18L55.92 15.17Q51.55 15.10 47.86 14.11L47.82 14.06L47.80 14.04Q49.30 18.59 49.49 23.42L49.59 23.53L49.57 23.50Q49.84 28.38 48.62 32.99L48.64 33.00L48.63 33.00Q51.37 32.31 54.88 32.16L54.80 32.09L54.88 32.16Q58.77 31.94 60.56 29.50L60.63 29.57L60.53 29.48Q62.16 27.53 62.35 23.42L62.21 23.28L62.25 23.32Q62.38 21.62 61.92 19.91L61.82 19.80L61.90 19.88Q60.55 15.07 55.83 15.07ZM43.97 37.13L44.06 37.22L44.05 37.21Q46.79 31.38 46.79 24.68L46.93 24.82L46.89 24.79Q46.87 16.23 42.57 9.23L42.51 9.17L42.52 9.18Q47.75 11.82 56.01 12.01L56.06 12.07L56.04 12.05Q65.02 12.35 65.36 19.50L65.31 19.45L65.25 19.39Q65.33 22.06 65.30 23.51L65.40 23.61L65.32 23.54Q65.35 28.32 64.51 30.49L64.47 30.44L64.44 30.42Q64.04 31.54 63.28 32.38L63.23 32.33L63.25 32.35Q61.83 33.83 59.20 34.32L59.29 34.41L59.25 34.36Q57.79 34.77 54.79 35.00L54.61 34.83L54.63 34.84Q48.56 35.36 43.95 37.11ZM61.99 37.10L61.83 36.94L61.98 37.09Q64.63 36.67 66.27 35.18L66.33 35.24L66.35 35.26Q67.46 33.40 67.43 30.66L67.43 30.66L67.50 30.74Q67.48 29.35 67.33 25.85L67.24 25.76L67.01 21.34L66.91 21.24Q66.79 19.03 65.84 16.94L65.80 16.89L65.83 16.92Q65.35 16.03 64.67 15.38L64.63 15.34L64.60 15.16L64.53 15.09Q62.98 12.29 58.57 11.91L58.47 11.81L58.51 11.85Q55.77 11.66 48.77 10.94L48.73 10.90L48.82 10.99Q45.45 10.44 41.75 8.42L41.89 8.56L41.82 8.48Q46.61 15.82 46.61 24.58L46.65 24.62L46.56 24.53Q46.72 31.69 43.37 37.86L43.24 37.73L43.29 37.78Q43.95 37.50 45.29 37.00L45.39 37.10L45.40 37.11Q44.92 37.82 44.05 39.30L44.00 39.26L44.17 39.43Q47.06 38.20 50.41 37.71L50.53 37.83L50.55 37.84Q52.47 37.37 56.13 37.26L56.22 37.35L56.19 37.32Q60.17 37.30 62.00 37.11ZM61.91 23.36L62.03 23.48L61.90 23.35Q61.48 31.30 54.78 31.68L54.90 31.80L54.80 31.71Q52.88 31.84 50.82 32.11L50.84 32.12L50.78 32.06Q51.67 28.38 51.67 24.73L51.61 24.67L51.50 24.56Q51.51 20.88 50.79 17.04L50.91 17.16L50.77 17.01Q53.04 17.39 57.73 17.39L57.80 17.45L57.84 17.50Q59.07 17.20 60.70 18.16L60.88 18.33L60.80 18.25Q62.07 20.52 61.92 23.37Z"/></svg>