<svg xmlns="http://www.w3.org/2000/svg" width="200" height="40" viewBox="0,0,200,40"><path d="M10 7 C89 26,88 39,199 4" stroke="#999" fill="none"/><path fill="#444" d="M84.43 27.21L75.15 17.17L75.14 17.15Q75.91 20.78 75.91 24.51L75.95 24.55L75.93 24.53Q75.96 30.53 73.90 36.09L73.98 36.17L73.85 36.04Q72.86 36.38 70.61 37.15L70.51 37.04L70.57 37.10Q73.39 31.32 73.39 24.62L73.47 24.69L73.38 24.61Q73.41 16.00 68.92 8.58L68.88 8.54L68.84 8.50Q69.32 8.71 70.00 9.12L70.13 9.25L70.10 9.22Q82.08 20.32 89.92 29.58L89.89 29.55L89.92 29.57Q89.69 27.21 89.69 24.77L89.76 24.85L89.63 24.72Q89.68 17.53 92.19 11.33L92.16 11.29L92.12 11.26Q94.51 10.79 96.11 10.10L96.14 10.14L96.11 10.10Q92.85 16.32 92.54 23.48L92.56 23.49L92.51 23.45Q92.12 30.71 95.09 36.87L95.25 37.04L95.14 36.93Q94.50 36.78 94.08 36.59L94.19 36.70L94.14 36.65Q89.56 32.68 84.35 27.12L84.31 27.08ZM97.84 40.19L97.82 40.17L97.86 40.22Q98.33 40.38 98.75 40.57L98.62 40.44L99.46 40.79L99.58 40.91Q94.28 33.82 94.28 24.46L94.32 24.50L94.36 24.53Q94.29 17.23 97.60 10.99L97.70 11.08L97.71 11.09Q97.06 11.32 95.65 11.93L95.65 11.93L95.68 11.96Q96.01 11.07 96.84 9.51L96.89 9.55L96.82 9.48Q94.35 10.36 91.91 10.93L91.93 10.95L91.92 10.94Q89.27 17.39 89.27 24.81L89.29 24.83L89.20 24.74Q89.31 26.71 89.50 28.69L89.42 28.62L89.52 28.71Q84.91 23.08 80.15 18.47L80.04 18.36L69.91 8.61L70.05 8.76Q69.50 8.46 68.28 7.89L68.17 7.78L68.30 7.91Q73.02 15.49 73.02 24.59L73.06 24.63L73.15 24.72Q73.04 31.73 69.96 37.75L69.92 37.71L69.92 37.70Q70.29 37.66 71.93 37.05L71.92 37.04L71.96 37.08Q71.54 37.77 70.71 39.25L70.79 39.33L70.74 39.29Q72.13 38.82 75.60 38.02L75.68 38.10L75.56 37.98Q77.83 31.80 77.83 24.60L77.94 24.72L77.85 24.62Q77.82 22.50 77.59 20.37L77.67 20.44L77.77 20.55Q89.15 33.26 97.75 40.11Z"/><path fill="#333" d="M112.43 15.10L112.52 15.19L112.43 15.10Q108.15 15.12 104.46 14.13L104.51 14.18L104.43 14.10Q105.90 18.62 106.09 23.45L106.22 23.58L106.04 23.41Q106.34 28.31 105.13 32.92L105.12 32.92L105.02 32.82Q107.95 32.31 111.45 32.16L111.50 32.21L111.52 32.23Q115.29 31.89 117.08 29.45L117.16 29.53L117.13 29.50Q118.56 27.36 118.75 23.25L118.76 23.26L118.94 23.44Q118.95 21.61 118.49 19.90L118.45 19.86L118.55 19.97Q117.26 15.21 112.54 15.21ZM100.48 37.07L100.49 37.08L100.46 37.05Q103.50 31.52 103.50 24.82L103.53 24.86L103.48 24.80Q103.48 16.28 99.18 9.27L99.21 9.30L99.13 9.23Q104.39 11.90 112.65 12.09L112.58 12.02L112.56 11.99Q121.59 12.34 121.93 19.50L121.84 19.41L121.78 19.35Q121.95 22.10 121.91 23.55L121.98 23.62L121.98 23.62Q121.95 28.35 121.11 30.52L120.94 30.35L121.07 30.48Q120.60 31.53 119.83 32.36L119.91 32.44L119.83 32.36Q118.55 33.98 115.93 34.47L115.93 34.48L115.82 34.37Q114.33 34.74 111.32 34.96L111.21 34.85L111.34 34.99Q105.16 35.39 100.55 37.14ZM118.41 36.95L118.56 37.10L118.56 37.10Q121.25 36.71 122.88 35.22L122.88 35.22L122.94 35.28Q124.00 33.36 123.96 30.62L124.00 30.66L123.94 30.60Q124.01 29.30 123.85 25.80L123.84 25.79L123.55 21.31L123.46 21.22Q123.22 18.89 122.27 16.79L122.36 16.89L122.36 16.89Q121.91 16.02 121.23 15.37L121.18 15.32L121.14 15.13L121.13 15.12Q119.54 12.27 115.12 11.89L115.09 11.86L115.06 11.83Q112.42 11.74 105.41 11.01L105.35 10.95L105.32 10.92Q102.11 10.52 98.41 8.51L98.38 8.47L98.32 8.41Q103.27 15.92 103.27 24.67L103.20 24.60L103.27 24.67Q103.13 31.53 99.78 37.70L99.87 37.79L99.81 37.73Q100.64 37.61 101.97 37.12L101.81 36.95L101.92 37.07Q101.59 37.91 100.72 39.40L100.64 39.33L100.66 39.34Q103.63 38.20 106.98 37.70L107.08 37.80L107.06 37.78Q109.19 37.52 112.84 37.40L112.73 37.29L112.85 37.41Q116.67 37.23 118.50 37.04ZM118.47 23.35L118.48 23.35L118.52 23.40Q118.13 31.39 111.43 31.77L111.53 31.86L111.51 31.85Q109.51 31.90 107.46 32.17L107.37 32.08L107.37 32.08Q108.12 28.26 108.12 24.61L108.16 24.65L108.16 24.65Q108.17 20.96 107.44 17.12L107.42 17.09L107.43 17.11Q109.70 17.47 114.39 17.47L114.37 17.46L114.33 17.42Q115.66 17.23 117.30 18.18L117.37 18.25L117.29 18.17Q118.62 20.49 118.46 23.34Z"/><path fill="#333" d="M166.94 14.60L166.98 14.64L166.92 14.58Q165.10 14.85 164.15 15.01L164.04 14.90L164.06 14.91Q162.52 15.25 161.31 15.78L161.17 15.64L161.25 15.72Q157.63 17.05 157.52 21.74L157.58 21.80L157.56 21.78Q157.61 24.57 158.25 27.50L158.14 27.39L158.25 27.50Q158.97 31.37 162.58 32.55L162.66 32.63L162.70 32.66Q164.60 33.23 166.05 33.08L166.00 33.03L166.37 32.95L166.52 33.10Q166.55 32.94 166.74 32.98L166.85 33.09L166.90 33.14Q166.90 32.99 167.06 32.95L167.19 33.08L167.07 32.96Q169.66 32.67 171.03 32.09L171.15 32.21L167.50 28.60L167.61 28.71Q167.91 28.36 168.52 27.76L168.43 27.66L169.38 26.78L169.38 26.79Q171.19 28.82 173.17 30.88L173.17 30.88L173.31 31.02Q175.58 29.14 175.84 23.77L175.89 23.81L175.76 23.68Q175.88 22.82 175.88 21.90L175.80 21.82L175.96 21.99Q175.80 16.15 170.73 15.04L170.79 15.10L170.79 15.10Q169.62 14.92 167.11 14.77ZM179.72 36.66L179.73 36.68L179.72 36.67Q179.20 37.17 178.02 38.05L178.01 38.04L173.61 34.36L173.59 34.35Q171.10 35.55 166.84 35.59L166.76 35.51L166.87 35.62Q160.26 35.68 157.45 33.43L157.53 33.51L157.41 33.39Q155.77 31.75 155.31 28.78L155.22 28.69L155.23 28.70Q155.07 26.94 154.69 23.36L154.58 23.25L154.63 23.30Q154.58 22.53 154.47 20.78L154.49 20.80L154.59 20.91Q154.34 19.25 154.38 18.37L154.37 18.36L154.43 18.42Q154.64 15.48 156.40 13.91L156.28 13.80L156.31 13.83Q157.75 12.41 160.94 11.92L161.03 12.00L160.98 11.96Q163.53 11.65 166.43 11.72L166.33 11.62L166.41 11.71Q173.95 11.87 177.07 14.23L177.08 14.24L177.05 14.20Q179.24 16.35 178.97 21.26L178.97 21.26L178.92 21.21Q178.78 24.92 178.59 26.25L178.48 26.14L178.61 26.27Q177.94 30.74 175.62 33.06L175.54 32.98L175.51 32.95Q176.93 34.14 179.67 36.62ZM174.87 12.40L174.85 12.39L174.84 12.37Q172.82 11.64 166.31 11.15L166.38 11.22L166.42 11.26Q164.99 11.24 162.21 11.35L162.22 11.37L162.22 11.36Q157.96 11.56 155.72 13.54L155.78 13.60L155.79 13.61Q154.09 15.04 154.09 18.20L154.10 18.20L154.12 18.22Q154.02 18.96 154.17 20.68L154.23 20.73L154.34 20.84Q154.45 22.52 154.45 23.39L154.47 23.41L154.48 23.42Q154.62 25.16 155.00 28.73L155.01 28.75L155.04 28.78Q155.38 31.63 156.98 33.68L156.87 33.58L156.94 33.65Q157.32 34.52 158.54 35.66L158.53 35.65L158.48 35.61Q161.10 37.51 166.28 37.77L166.38 37.87L166.34 37.83Q166.64 37.79 169.04 37.90L169.16 38.03L169.20 38.07Q173.85 38.07 176.14 37.01L176.24 37.11L176.23 37.10Q177.05 37.73 181.77 41.31L181.82 41.35L181.83 41.37Q182.41 40.80 183.70 39.81L183.69 39.80L183.74 39.85Q182.71 39.01 181.91 38.33L181.99 38.41L180.32 36.92L180.53 36.98L180.41 36.86Q179.89 36.46 178.67 35.43L178.74 35.50L178.61 35.36Q180.66 33.00 180.66 28.47L180.48 28.29L180.63 28.44Q180.48 27.88 180.52 27.04L180.67 27.19L180.51 27.02Q180.73 26.37 180.73 25.95L180.72 25.94L180.54 25.77Q180.60 20.30 179.87 17.94L179.91 17.97L180.01 18.08Q179.50 16.65 178.62 15.58L178.68 15.64L178.68 15.65Q177.83 13.46 174.90 12.43ZM168.87 16.99L168.96 17.07L168.84 16.96Q173.01 16.98 174.84 18.58L174.74 18.48L174.90 18.64Q175.32 19.71 175.44 21.04L175.58 21.19L175.49 21.09Q175.50 22.29 175.43 23.66L175.42 23.65L175.58 23.81Q175.23 28.75 173.29 30.47L173.25 30.42L173.18 30.35Q171.85 29.03 169.34 26.29L169.31 26.26L169.47 26.42Q168.60 27.07 167.04 28.63L166.96 28.55L167.13 28.73Q167.65 29.28 168.79 30.46L168.74 30.41L168.66 30.44L168.68 30.46Q169.20 30.95 170.23 32.01L170.32 32.10L170.30 32.09Q169.26 32.29 166.93 32.60L166.93 32.60L166.50 32.70L166.06 32.68L166.11 32.76L166.01 32.66Q162.59 32.71 160.61 31.07L160.61 31.07L160.56 31.02Q159.45 28.85 159.49 25.73L159.61 25.85L159.66 25.90Q159.67 17.03 168.84 16.96Z"/><path d="M19 12 C85 23,107 13,188 34" stroke="#777" fill="none"/><path fill="#333" d="M56.15 27.21L46.81 17.11L46.86 17.16Q47.68 20.84 47.68 24.57L47.72 24.60L47.58 24.47Q47.77 30.63 45.71 36.19L45.66 36.14L45.55 36.02Q44.55 36.36 42.31 37.12L42.39 37.21L42.23 37.04Q45.19 31.41 45.19 24.71L45.16 24.67L45.22 24.74Q45.11 15.98 40.62 8.56L40.74 8.68L40.63 8.57Q41.10 8.77 41.78 9.19L41.79 9.20L41.67 9.08Q53.93 20.47 61.78 29.72L61.79 29.73L61.65 29.59Q61.31 27.12 61.31 24.68L61.30 24.67L61.36 24.73Q61.36 17.50 63.87 11.29L63.87 11.29L63.94 11.36Q66.13 10.69 67.73 10.01L67.78 10.06L67.80 10.08Q64.52 16.28 64.21 23.44L64.23 23.45L64.22 23.44Q63.85 30.72 66.82 36.89L66.86 36.93L66.81 36.88Q66.35 36.92 65.93 36.73L65.89 36.68L65.96 36.76Q61.28 32.68 56.06 27.12L56.05 27.11ZM69.40 40.05L69.57 40.21L69.57 40.21Q69.95 40.29 70.37 40.48L70.46 40.57L71.24 40.85L71.34 40.95Q66.13 33.95 66.13 24.59L66.08 24.54L66.01 24.47Q66.12 17.35 69.43 11.10L69.39 11.06L69.35 11.02Q68.78 11.33 67.37 11.94L67.32 11.89L67.27 11.83Q67.77 11.12 68.61 9.56L68.53 9.48L68.48 9.43Q66.04 10.34 63.61 10.91L63.69 10.99L63.72 11.03Q61.01 17.42 61.01 24.84L60.93 24.76L61.04 24.87Q61.02 26.71 61.21 28.69L61.22 28.70L61.26 28.75Q56.58 23.03 51.82 18.43L51.74 18.34L41.67 8.65L41.72 8.71Q41.16 8.42 39.94 7.84L39.97 7.87L39.96 7.86Q44.71 15.47 44.71 24.57L44.81 24.67L44.76 24.61Q44.72 31.69 41.63 37.71L41.75 37.82L41.73 37.80Q41.96 37.61 43.59 37.00L43.58 36.99L43.72 37.12Q43.27 37.78 42.43 39.27L42.60 39.43L42.44 39.28Q43.77 38.74 47.24 37.94L47.24 37.95L47.40 38.10Q49.64 31.90 49.64 24.70L49.68 24.74L49.61 24.67Q49.56 22.52 49.33 20.39L49.36 20.43L49.39 20.45Q60.82 33.21 69.42 40.06Z"/><path fill="#333" d="M138.56 24.23L138.53 24.20L138.49 24.16Q136.57 24.11 135.35 25.44L135.44 25.53L135.50 25.59Q134.21 26.85 134.06 28.76L134.15 28.85L134.10 28.79Q133.90 30.91 135.12 31.92L135.12 31.93L135.11 31.91Q136.25 32.85 138.38 32.77L138.44 32.83L138.36 32.75Q140.78 32.70 141.73 31.74L141.73 31.74L141.64 31.65Q142.66 30.20 142.55 28.37L142.70 28.53L142.55 28.38Q142.45 26.52 141.37 25.33L141.52 25.48L141.33 25.29Q140.29 24.14 138.47 24.14ZM138.39 14.66L138.39 14.66L138.48 14.74Q137.02 14.58 135.69 15.08L135.69 15.08L135.77 15.16Q134.47 15.95 134.70 17.82L134.60 17.72L134.68 17.80Q135.17 21.53 138.52 21.53L138.44 21.44L138.51 21.51Q140.07 21.70 141.06 20.56L141.12 20.62L141.11 20.61Q142.10 19.47 142.14 17.91L142.10 17.87L142.09 17.86Q142.19 16.13 141.46 15.52L141.53 15.59L141.48 15.54Q139.74 14.64 138.45 14.72ZM138.28 35.37L138.23 35.33L135.20 35.34L135.20 35.34Q133.56 35.22 132.23 34.35L132.30 34.42L132.30 34.42Q130.93 33.27 131.08 30.42L131.02 30.36L131.08 30.42Q131.45 23.48 135.07 22.49L135.15 22.57L135.16 22.58Q132.97 21.77 131.64 16.40L131.65 16.41L131.53 16.28Q131.18 14.87 131.25 14.07L131.38 14.19L131.32 14.14Q131.62 12.00 135.31 11.96L135.27 11.92L135.29 11.94Q139.60 11.95 141.05 12.14L140.95 12.04L141.04 12.13Q144.84 12.62 145.30 14.64L145.31 14.65L145.16 14.50Q145.28 15.11 145.28 15.49L145.31 15.52L145.39 15.61Q145.38 16.28 145.19 16.89L145.21 16.91L145.17 16.87Q144.57 21.10 141.63 22.62L141.61 22.60L141.61 22.60Q145.09 23.38 145.59 28.67L145.69 28.78L145.73 28.82Q145.62 28.86 145.66 30.15L145.75 30.24L145.68 30.18Q145.75 32.91 144.15 33.97L144.07 33.89L144.09 33.91Q142.74 34.81 138.17 35.26ZM140.54 37.67L140.43 37.56L143.89 37.74L143.79 37.65Q145.64 37.86 147.16 37.14L147.09 37.06L147.08 37.05Q148.31 36.41 148.38 34.55L148.30 34.47L148.25 34.42Q148.32 33.34 147.94 31.40L147.86 31.33L148.05 31.52Q146.98 26.71 144.88 24.85L145.03 24.99L144.66 24.43L144.57 24.27L144.44 24.02L144.46 24.04Q145.96 22.54 146.88 18.39L147.01 18.52L146.96 18.47Q146.92 18.04 146.99 17.21L146.96 17.17L147.11 17.33Q147.05 16.50 146.97 15.89L146.98 15.90L146.96 15.88Q146.86 14.48 145.68 13.99L145.73 14.04L145.69 13.96L145.55 13.90L145.66 14.01Q145.37 13.27 144.19 12.47L144.13 12.40L144.06 12.30L144.23 12.46Q142.14 11.67 138.06 11.48L138.17 11.58L138.01 11.43Q136.62 11.48 135.25 11.60L135.14 11.49L135.14 11.49Q134.43 11.61 133.13 11.76L133.04 11.67L133.04 11.67Q131.22 12.17 130.99 13.80L130.95 13.77L130.93 13.75Q130.82 14.17 130.86 14.97L130.88 14.99L130.92 15.03Q131.06 15.59 131.64 17.95L131.50 17.82L131.67 17.99Q132.46 21.21 134.21 22.55L134.08 22.41L134.29 22.62L134.22 22.56Q131.46 23.86 130.92 29.04L130.90 29.02L130.86 28.98Q130.68 31.20 130.68 32.11L130.76 32.19L130.64 32.07Q130.74 33.89 131.92 34.80L131.99 34.87L132.06 34.94Q132.04 34.88 132.31 35.07L132.41 35.17L132.37 35.14Q133.36 37.38 140.47 37.60ZM140.17 26.56L140.06 26.45L140.15 26.54Q141.14 26.54 142.01 27.00L141.94 26.93L141.85 26.84Q142.27 27.87 142.24 28.40L142.25 28.41L142.30 28.47Q142.40 28.84 142.40 29.14L142.34 29.08L142.25 28.99Q142.26 31.36 139.98 32.20L139.95 32.17L139.99 32.21Q139.22 32.55 138.42 32.43L138.53 32.54L138.50 32.51Q137.26 32.49 136.12 32.03L136.13 32.05L136.13 32.04Q135.84 31.37 135.91 30.38L136.00 30.47L136.06 30.53Q136.10 28.82 137.30 27.60L137.29 27.59L137.27 27.57Q138.63 26.51 140.23 26.62ZM140.32 17.01L140.33 17.01L140.37 17.06Q141.20 16.97 141.73 17.13L141.63 17.03L141.72 17.92L141.72 17.91Q141.68 19.28 140.76 20.29L140.81 20.33L140.76 20.29Q139.86 21.31 138.49 21.12L138.57 21.20L138.45 21.07Q137.56 21.18 137.14 20.95L137.14 20.95L137.16 20.96Q137.09 20.67 136.98 19.98L137.01 20.02L136.91 19.91Q136.75 18.62 137.97 17.78L137.83 17.63L137.86 17.67Q139.06 17.11 140.47 17.15Z"/><path fill="#444" d="M22.68 35.33L22.77 35.42L22.78 35.43Q18.71 35.67 17.72 33.34L17.64 33.27L17.74 33.36Q18.41 32.32 19.97 30.53L19.90 30.46L19.91 30.47Q20.42 32.50 23.43 32.61L23.50 32.69L23.57 32.76Q26.87 32.74 28.50 31.41L28.49 31.40L28.59 31.50Q29.88 29.78 29.80 27.07L29.82 27.09L29.93 27.20Q29.70 22.06 24.90 22.29L24.89 22.28L24.89 22.28Q22.17 22.53 20.42 23.78L20.37 23.73L19.98 23.50L19.87 23.46L19.77 23.36Q20.04 20.13 19.93 17.39L19.93 17.39L20.11 17.57Q19.99 14.94 19.64 11.63L19.50 11.48L19.54 11.52Q23.20 12.48 27.01 12.36L27.03 12.38L27.06 12.42Q30.84 12.31 34.42 11.06L34.34 10.98L33.88 12.61L33.87 12.60Q33.57 13.37 33.38 14.20L33.41 14.24L33.26 14.08Q30.14 15.11 26.25 15.11L26.31 15.17L26.28 15.14Q24.93 15.24 23.45 15.08L23.42 15.06L23.44 15.08Q23.37 15.77 23.03 20.23L22.94 20.13L22.95 20.15Q23.82 19.72 25.87 19.57L25.89 19.58L25.95 19.64Q29.53 19.72 30.97 21.39L31.01 21.43L31.04 21.46Q32.36 22.93 32.62 26.77L32.60 26.75L32.61 26.76Q32.90 30.98 31.69 32.99L31.75 33.06L31.84 33.15Q29.64 34.87 26.33 35.10L26.39 35.16L26.46 35.23Q25.30 35.13 22.63 35.29ZM28.74 37.62L28.72 37.61L28.81 37.70Q32.16 37.70 34.07 36.59L34.08 36.61L34.09 36.62Q35.05 35.06 35.05 32.97L35.09 33.01L35.04 32.96Q35.10 29.94 34.15 25.82L34.18 25.85L34.16 25.83Q33.82 24.12 32.60 22.71L32.51 22.63L32.65 22.80L32.44 22.52L32.10 22.33L32.01 22.24Q31.71 21.52 31.06 20.83L31.03 20.81L31.12 20.93L31.02 20.83Q29.54 19.20 25.85 19.20L25.86 19.21L25.49 19.11L25.68 19.30Q25.73 18.70 25.92 17.60L25.91 17.59L25.77 17.44Q30.92 17.72 34.95 16.08L34.93 16.06L34.94 16.07Q35.31 14.61 36.26 11.80L36.16 11.69L34.12 12.70L34.13 12.71Q34.44 11.49 34.93 10.35L35.09 10.51L35.10 10.52Q31.20 11.92 27.09 11.99L27.16 12.06L27.16 12.06Q22.87 11.99 18.91 10.89L19.02 11.00L18.92 10.90Q19.77 15.48 19.77 19.90L19.63 19.76L19.67 19.79Q19.59 21.62 19.47 23.52L19.63 23.68L19.49 23.54Q19.85 23.83 20.42 24.13L20.46 24.16L20.50 24.20Q20.75 23.88 21.39 23.54L21.48 23.62L21.37 23.51Q21.42 24.36 21.19 25.89L21.12 25.81L21.08 25.78Q21.59 26.06 22.01 26.29L21.89 26.17L21.98 26.25Q24.75 24.50 26.62 24.50L26.55 24.43L26.70 24.58Q27.96 24.51 29.14 25.16L29.19 25.21L29.06 25.08Q29.47 26.17 29.51 27.13L29.54 27.15L29.52 27.14Q29.58 29.70 28.55 30.81L28.63 30.89L28.48 30.74Q27.16 32.01 24.92 32.24L24.93 32.26L24.90 32.22Q24.02 32.37 23.34 32.30L23.35 32.31L23.29 32.25Q22.49 32.17 21.73 31.83L21.76 31.86L21.61 31.52L21.45 31.59L21.50 31.64Q20.80 31.24 20.27 29.91L20.13 29.78L20.24 29.89Q18.93 31.32 17.26 33.45L17.15 33.34L17.27 33.47Q17.53 34.07 18.37 35.02L18.36 35.01L18.26 34.91Q19.36 36.77 22.18 37.27L22.31 37.40L22.26 37.35Q23.50 37.64 28.87 37.75Z"/></svg>