<svg xmlns="http://www.w3.org/2000/svg" width="200" height="40" viewBox="0,0,200,40"><path d="M9 17 C80 2,91 39,185 6" stroke="#333" fill="none"/><path fill="#444" d="M141.02 27.22L131.61 17.06L131.72 17.16Q132.54 20.84 132.54 24.57L132.48 24.51L132.63 24.66Q132.45 30.46 130.40 36.02L130.40 36.02L130.43 36.05Q129.37 36.32 127.13 37.09L127.09 37.05L127.19 37.15Q129.92 31.27 129.92 24.57L130.06 24.71L130.04 24.70Q130.01 16.02 125.52 8.60L125.57 8.65L125.52 8.60Q125.89 8.71 126.58 9.12L126.68 9.23L126.54 9.09Q138.71 20.38 146.55 29.63L146.57 29.65L146.57 29.65Q146.17 27.13 146.17 24.69L146.18 24.69L146.29 24.81Q146.33 17.61 148.84 11.40L148.82 11.38L148.78 11.34Q151.12 10.83 152.72 10.14L152.69 10.11L152.74 10.16Q149.36 16.27 149.06 23.42L149.14 23.50L149.13 23.49Q148.79 30.81 151.76 36.97L151.67 36.89L151.70 36.92Q151.25 36.96 150.83 36.77L150.77 36.71L150.68 36.62Q146.12 32.66 140.90 27.11L141.00 27.20ZM154.30 40.08L154.30 40.09L154.44 40.23Q154.81 40.29 155.23 40.48L155.24 40.50L156.16 40.91L156.12 40.88Q150.92 33.89 150.92 24.53L150.93 24.54L150.92 24.53Q150.88 17.25 154.19 11.00L154.28 11.09L154.33 11.15Q153.61 11.30 152.21 11.91L152.23 11.93L152.14 11.84Q152.47 10.96 153.31 9.40L153.44 9.54L153.31 9.40Q150.88 10.32 148.44 10.89L148.51 10.95L148.40 10.85Q145.93 17.48 145.93 24.90L145.81 24.78L145.93 24.90Q145.78 26.61 145.97 28.59L146.03 28.66L146.00 28.63Q141.48 23.08 136.72 18.47L136.59 18.34L126.56 8.69L126.53 8.66Q125.97 8.37 124.76 7.80L124.87 7.92L124.71 7.75Q129.57 15.47 129.57 24.57L129.68 24.67L129.57 24.57Q129.56 31.68 126.48 37.70L126.66 37.87L126.63 37.85Q126.77 37.56 128.40 36.96L128.59 37.14L128.55 37.10Q128.26 37.91 127.42 39.40L127.31 39.29L127.41 39.38Q128.74 38.85 132.21 38.06L132.18 38.03L132.23 38.08Q134.46 31.86 134.46 24.66L134.45 24.66L134.46 24.66Q134.46 22.57 134.23 20.44L134.31 20.52L134.27 20.47Q145.76 33.30 154.36 40.15Z"/><path d="M13 33 C84 31,86 28,180 4" stroke="#888" fill="none"/><path fill="#222" d="M162.87 27.95L162.87 27.95L162.83 27.90Q166.00 27.62 169.20 27.73L169.22 27.74L169.07 27.60Q169.22 25.23 169.22 22.83L169.06 22.68L169.16 22.78Q169.03 20.17 169.22 17.62L169.33 17.73L169.31 17.71Q168.07 19.41 162.86 27.93ZM172.69 35.22L172.70 35.22L172.68 35.21Q171.07 34.97 169.28 34.89L169.34 34.95L169.22 34.83Q169.07 32.51 168.96 30.04L168.96 30.03L168.99 30.06Q163.77 29.99 159.05 31.40L158.95 31.30L158.86 31.21Q159.01 30.75 159.20 29.76L159.29 29.85L159.33 29.89Q161.03 26.64 164.61 20.36L164.57 20.32L164.64 20.39Q167.59 15.58 171.02 11.69L170.94 11.61L170.89 11.57Q171.82 11.42 173.49 11.16L173.53 11.19L173.57 11.24Q171.50 17.51 171.50 24.55L171.54 24.58L171.67 24.71Q171.60 26.13 171.68 27.62L171.66 27.60L173.02 27.78L173.04 27.80Q173.61 27.80 174.22 27.92L174.21 27.90L174.12 27.81Q174.31 28.88 174.58 30.82L174.65 30.90L174.61 30.85Q173.40 30.59 171.91 30.40L171.83 30.32L171.94 30.43Q172.16 32.44 172.84 35.37ZM174.37 27.41L174.49 27.54L174.43 27.48Q174.35 27.51 174.16 27.51L174.15 27.50L173.61 27.34L173.67 27.40Q173.67 26.03 173.67 24.63L173.48 24.43L173.58 24.53Q173.51 18.07 175.57 12.05L175.60 12.09L175.54 12.02Q174.81 12.32 173.36 12.70L173.43 12.77L173.52 12.86Q173.63 11.98 174.08 10.57L174.06 10.54L174.20 10.68Q172.85 11.01 170.79 11.23L170.76 11.21L170.70 11.15Q166.85 15.55 161.63 24.92L161.72 25.01L163.75 21.29L163.71 21.25Q163.20 22.19 162.94 22.76L163.04 22.86L158.65 31.95L158.64 31.94Q159.14 31.64 160.28 31.26L160.34 31.32L160.16 31.52L160.24 31.59Q160.10 32.26 159.79 33.51L159.76 33.48L159.89 33.60Q163.85 32.12 168.68 32.31L168.80 32.43L168.68 32.31Q168.72 33.27 168.91 35.25L168.94 35.27L168.92 35.25Q169.98 35.24 171.04 35.36L171.03 35.34L171.07 35.39Q171.21 36.06 171.48 37.43L171.49 37.44L171.45 37.41Q173.39 37.67 176.40 38.58L176.42 38.60L176.49 38.67Q175.34 36.38 174.43 33.11L174.45 33.13L176.04 33.73L176.01 33.70Q176.60 33.84 177.29 34.18L177.42 34.31L177.38 34.27Q176.59 31.77 176.44 30.09L176.35 30.01L176.47 30.12Q175.78 29.86 174.64 29.63L174.76 29.75L174.69 29.68Q174.45 28.37 174.45 27.49ZM166.37 27.25L166.45 27.33L166.42 27.31Q167.27 26.10 168.83 23.55L168.76 23.49L168.77 23.49Q168.73 24.40 168.69 25.35L168.79 25.45L168.79 25.45Q168.71 26.36 168.74 27.31L168.86 27.43L168.76 27.33Q168.29 27.38 167.71 27.38L167.66 27.33L167.54 27.21Q167.09 27.37 166.48 27.37Z"/><path fill="#222" d="M103.64 10.92L103.69 10.96L103.68 10.95Q105.52 15.76 106.09 20.94L106.00 20.85L106.15 21.01Q109.69 16.70 115.60 11.87L115.70 11.98L115.69 11.96Q118.95 11.72 121.57 10.92L121.55 10.90L114.95 16.48L114.84 16.37Q111.41 19.30 108.56 22.15L108.59 22.18L108.57 22.16Q116.69 31.46 121.75 36.18L121.61 36.04L121.61 36.04Q118.58 35.19 116.26 35.03L116.34 35.12L116.28 35.05Q110.51 29.66 106.21 23.84L106.19 23.82L106.26 23.89Q106.27 30.41 104.40 35.74L104.43 35.77L104.40 35.74Q104.12 35.73 103.63 35.92L103.73 36.02L103.58 36.05L103.64 36.11Q103.45 36.16 100.90 37.07L100.99 37.16L100.94 37.11Q103.89 30.55 103.55 23.08L103.45 22.99L103.52 23.06Q103.15 15.68 99.61 9.17L99.67 9.23L100.26 9.55L100.63 9.81L100.72 9.86L100.63 9.77Q101.28 10.08 103.49 10.77ZM103.89 10.60L103.80 10.50L103.88 10.58Q101.55 9.96 98.92 8.44L99.03 8.55L98.92 8.44Q103.30 15.83 103.30 24.78L103.20 24.68L103.20 24.67Q103.24 31.72 100.27 37.78L100.33 37.83L102.37 36.98L102.33 36.94Q101.89 37.91 101.21 39.21L101.32 39.32L101.21 39.21Q103.44 38.39 105.38 37.97L105.38 37.97L105.55 37.92L105.47 37.84Q105.80 37.86 106.37 37.71L106.42 37.75L106.36 37.70Q107.89 31.65 108.00 26.85L108.05 26.90L108.05 26.89Q110.24 29.51 112.07 31.37L112.03 31.34L112.06 31.37Q113.23 32.46 116.24 35.43L116.16 35.35L116.14 35.33L116.15 35.34Q117.19 36.20 119.06 37.79L118.99 37.73L119.14 37.87Q122.98 38.56 126.45 40.27L126.36 40.18L126.41 40.23Q117.21 31.76 110.97 24.33L110.94 24.30L110.93 24.30Q115.34 20.02 124.09 11.42L124.16 11.49L124.02 11.35Q121.46 12.48 119.45 12.86L119.60 13.01L119.43 12.85Q120.80 12.01 123.13 10.00L123.10 9.97L123.00 9.87Q119.02 11.41 115.67 11.60L115.49 11.42L115.63 11.56Q112.62 13.69 107.74 18.37L107.77 18.39L107.78 18.41Q107.36 15.78 106.79 13.22L106.77 13.21L106.92 13.36Q105.74 13.20 104.75 12.86L104.60 12.72L104.70 12.81Q104.33 11.91 103.76 10.46Z"/><path fill="#333" d="M53.32 35.15L53.46 35.30L53.45 35.28Q49.90 35.31 48.26 34.78L48.32 34.84L48.20 34.72Q46.26 34.11 45.95 30.72L46.04 30.81L47.54 29.79L47.36 29.61Q48.10 29.10 48.86 28.60L48.89 28.63L49.03 28.77Q48.67 30.58 50.27 31.80L50.32 31.85L50.20 31.73Q51.54 32.80 53.67 32.61L53.70 32.64L53.61 32.55Q58.15 32.29 57.96 28.75L57.83 28.62L57.91 28.71Q57.70 26.40 55.08 25.19L55.17 25.28L55.17 25.28Q52.35 24.25 49.99 23.03L49.82 22.86L49.81 22.85Q47.37 21.63 46.38 16.95L46.40 16.96L46.41 16.98Q46.32 16.54 46.20 15.78L46.13 15.71L46.03 15.61Q46.06 14.95 46.13 14.38L46.10 14.34L46.08 14.33Q46.27 12.76 47.52 12.30L47.48 12.26L47.44 12.22Q49.98 11.49 53.98 11.68L54.00 11.70L53.98 11.68Q55.85 11.84 56.65 11.91L56.60 11.87L56.57 11.83Q58.13 12.10 59.19 12.55L59.20 12.56L59.01 12.37Q61.21 12.94 61.44 15.41L61.42 15.39L61.47 15.44Q60.38 16.10 58.17 17.43L58.13 17.39L58.16 17.42Q57.75 14.43 53.38 14.43L53.30 14.35L53.35 14.40Q51.41 14.36 50.42 15.04L50.50 15.13L50.56 15.19Q49.29 15.59 49.52 17.38L49.61 17.47L49.58 17.44Q49.78 19.59 52.75 21.11L52.84 21.20L52.86 21.22Q53.42 21.47 57.91 23.11L57.85 23.05L57.87 23.07Q60.42 24.48 60.84 28.86L60.87 28.89L60.94 28.96Q60.92 29.08 60.99 30.34L60.84 30.19L61.02 30.36Q61.08 33.13 59.52 34.24L59.47 34.19L59.47 34.18Q57.49 35.02 53.30 35.14ZM55.66 37.58L55.80 37.72L55.64 37.55Q57.17 37.71 59.15 37.71L59.08 37.65L59.11 37.67Q61.15 37.62 62.41 37.20L62.52 37.31L62.49 37.28Q63.74 36.48 63.67 34.69L63.56 34.59L63.72 34.74Q63.68 33.75 63.30 31.70L63.24 31.64L63.12 31.52Q62.30 26.93 60.21 25.06L60.31 25.16L60.25 25.11Q59.44 23.50 58.11 22.77L58.14 22.80L52.86 20.76L52.80 20.71Q52.38 20.43 51.92 20.21L52.05 20.33L51.91 19.92L51.81 19.49L51.84 19.52Q51.80 18.22 52.94 17.61L52.80 17.47L52.87 17.53Q53.64 16.97 55.35 16.78L55.27 16.70L55.36 16.79Q56.40 16.57 57.54 17.03L57.66 17.15L57.61 17.10Q57.74 17.26 57.93 18.10L57.83 18.01L57.91 18.09Q58.10 17.93 58.60 17.70L58.64 17.74L58.54 17.64Q59.36 18.66 59.48 19.80L59.47 19.80L59.34 19.66Q59.41 19.63 63.07 17.04L63.23 17.20L63.16 17.13Q62.86 14.47 61.41 13.78L61.45 13.82L61.49 13.86Q60.78 12.47 59.34 11.93L59.42 12.02L59.50 12.10Q57.20 11.28 54.00 11.28L53.84 11.12L54.01 11.29Q49.11 11.30 47.25 11.99L47.21 11.95L47.07 11.81Q45.89 12.42 45.78 14.10L45.61 13.93L45.72 14.04Q45.75 14.64 46.17 16.85L46.12 16.81L46.10 16.78Q46.81 20.58 48.98 22.82L48.85 22.69L48.99 22.83Q49.66 24.42 51.17 25.10L51.34 25.27L51.19 25.13Q52.83 25.95 56.75 27.51L56.76 27.52L56.54 27.33L57.22 27.71L57.34 27.87L57.35 27.88Q57.58 28.38 57.62 28.72L57.59 28.69L57.62 28.72Q57.64 32.12 53.71 32.28L53.69 32.25L53.63 32.19Q52.48 32.22 51.18 31.84L51.30 31.95L51.16 31.81Q50.97 31.13 50.97 30.41L50.88 30.31L50.89 30.33Q50.89 30.06 50.93 29.80L51.03 29.90L51.05 29.92Q50.47 29.98 49.67 30.47L49.81 30.61L49.67 30.48Q49.30 29.50 49.45 28.13L49.43 28.10L49.43 28.11Q47.36 29.31 45.76 30.72L45.65 30.61L45.68 30.64Q45.82 31.54 45.90 32.57L45.75 32.42L45.73 32.40Q46.22 34.30 47.51 35.06L47.51 35.06L47.48 35.02Q48.69 36.84 51.24 37.23L51.16 37.14L51.21 37.20Q52.79 37.45 55.73 37.64Z"/><path fill="#333" d="M81.86 24.10L81.83 24.08L81.78 24.02Q79.97 23.93 78.74 25.36L78.76 25.39L78.78 25.40Q77.61 26.90 77.42 28.80L77.41 28.79L77.41 28.79Q77.24 30.91 78.33 31.88L78.22 31.77L78.27 31.81Q79.26 32.70 81.36 32.58L81.35 32.58L81.48 32.71Q83.56 32.54 84.66 31.86L84.62 31.81L84.70 31.89Q85.73 30.68 85.73 29.12L85.71 29.09L85.75 29.13Q85.83 28.83 85.75 28.45L85.61 28.31L85.70 28.40Q85.78 26.73 84.68 25.38L84.59 25.29L84.64 25.34Q83.61 24.06 81.93 24.18ZM81.54 35.31L81.48 35.26L81.43 35.21Q76.98 35.14 75.57 34.37L75.66 34.46L75.64 34.44Q74.68 33.75 74.49 32.04L74.35 31.90L74.43 31.98Q74.36 31.26 74.40 30.54L74.39 30.52L74.51 30.65Q74.59 29.63 74.59 29.17L74.57 29.15L74.52 29.10Q75.07 26.33 75.22 25.65L75.24 25.67L75.14 25.57Q75.64 23.67 76.48 22.26L76.43 22.21L76.48 22.26Q79.12 17.86 85.06 11.50L85.02 11.47L85.10 11.54Q87.67 11.15 89.88 10.35L89.89 10.35L89.95 10.42Q83.04 17.83 79.85 22.05L79.98 22.18L79.85 22.05Q80.90 21.62 82.20 21.62L82.24 21.67L82.24 21.66Q85.39 21.50 86.91 23.44L86.95 23.48L87.08 23.61Q88.25 25.09 88.59 28.63L88.72 28.76L88.58 28.62Q88.74 29.43 88.74 30.04L88.68 29.97L88.75 30.04Q88.82 33.23 86.61 34.30L86.50 34.19L86.60 34.29Q85.41 34.93 81.53 35.31ZM83.73 37.63L83.63 37.53L83.67 37.57Q84.95 37.51 86.93 37.58L87.05 37.70L86.93 37.58Q88.63 37.73 90.19 37.00L90.17 36.98L90.31 37.12Q91.31 36.21 91.31 34.42L91.40 34.52L91.27 34.39Q91.25 33.87 91.08 32.88L91.10 32.90L91.12 32.92Q90.96 31.95 90.96 31.49L90.87 31.40L90.93 31.46Q90.12 26.80 88.52 24.90L88.52 24.90L88.54 24.92Q88.51 24.85 88.35 24.62L88.28 24.54L87.94 24.28L87.96 24.34L87.81 24.19Q87.45 23.68 86.84 22.73L86.97 22.86L87.01 22.90Q86.10 21.94 84.12 21.49L84.11 21.48L83.99 21.36Q85.34 19.90 88.31 16.20L88.14 16.03L92.48 10.85L92.44 10.82Q90.94 11.75 88.54 12.51L88.53 12.50L88.41 12.38Q89.32 11.39 91.11 9.41L91.28 9.57L91.28 9.58Q88.84 10.60 84.96 11.17L84.99 11.20L84.81 11.03Q79.24 17.07 76.27 22.02L76.18 21.92L76.18 21.92Q74.76 24.54 74.19 30.79L74.07 30.67L74.15 30.75Q74.03 31.27 74.11 32.22L74.13 32.25L74.24 32.35Q74.25 34.04 75.35 34.96L75.35 34.95L75.37 34.97Q75.63 35.01 75.59 35.04L75.63 35.08L75.72 35.17Q76.02 36.00 76.82 36.42L76.80 36.40L76.86 36.47Q78.22 37.06 80.16 37.25L80.31 37.40L80.25 37.34Q80.33 37.42 83.83 37.72ZM83.42 26.31L83.56 26.45L83.47 26.36Q84.03 26.24 84.99 26.73L85.07 26.81L85.11 26.86Q85.31 27.67 85.31 28.31L85.30 28.31L85.46 28.47Q85.48 30.16 84.53 31.15L84.71 31.33L84.54 31.16Q83.56 31.97 81.47 32.28L81.37 32.18L81.38 32.19Q80.08 32.34 79.55 32.07L79.39 31.91L79.48 32.00Q79.22 31.48 79.22 31.18L79.37 31.32L79.23 31.18Q79.05 27.95 81.98 26.66L82.00 26.68L82.08 26.76Q82.73 26.31 83.49 26.38Z"/><path fill="#111" d="M25.53 14.61L25.68 14.77L25.63 14.72Q23.55 14.74 22.60 14.89L22.68 14.96L22.62 14.90Q20.93 15.08 19.72 15.62L19.71 15.61L19.81 15.71Q16.20 17.05 16.08 21.73L16.13 21.78L16.09 21.73Q16.16 24.55 16.81 27.48L16.81 27.48L16.67 27.35Q17.70 31.54 21.32 32.72L21.26 32.65L21.24 32.63Q23.17 33.24 24.62 33.08L24.59 33.06L25.07 33.08L25.04 33.05Q25.27 33.09 25.46 33.12L25.48 33.15L25.33 33.00Q25.54 33.05 25.69 33.02L25.71 33.03L25.77 33.09Q28.23 32.66 29.60 32.09L29.75 32.23L26.10 28.63L26.13 28.65Q26.47 28.35 27.08 27.74L27.02 27.68L28.05 26.88L28.00 26.84Q29.88 28.94 31.86 31.00L31.73 30.87L31.86 31.00Q34.05 29.04 34.32 23.68L34.35 23.70L34.35 23.71Q34.48 22.84 34.48 21.93L34.45 21.90L34.38 21.83Q34.51 16.29 29.44 15.18L29.33 15.07L29.48 15.21Q28.11 14.83 25.59 14.68ZM38.39 36.77L38.40 36.78L38.26 36.64Q37.72 37.12 36.54 38.00L36.68 38.14L32.10 34.29L32.16 34.35Q29.76 35.64 25.50 35.67L25.35 35.53L25.44 35.62Q18.95 35.79 16.14 33.55L16.04 33.45L16.14 33.55Q14.28 31.70 13.83 28.73L13.89 28.79L13.84 28.74Q13.57 26.87 13.19 23.29L13.22 23.32L13.19 23.29Q13.17 22.55 13.06 20.80L13.14 20.88L13.18 20.92Q13.08 19.41 13.12 18.54L12.99 18.41L13.00 18.42Q13.14 15.40 14.89 13.84L14.98 13.92L14.85 13.80Q16.51 12.60 19.70 12.10L19.53 11.93L19.62 12.02Q22.11 11.65 25.00 11.73L25.03 11.76L24.95 11.68Q32.39 11.73 35.51 14.09L35.69 14.27L35.52 14.10Q37.85 16.39 37.58 21.30L37.43 21.15L37.48 21.20Q37.23 24.80 37.04 26.13L37.11 26.20L37.10 26.18Q36.45 30.67 34.12 32.99L34.14 33.01L34.14 33.01Q35.58 34.22 38.32 36.70ZM33.48 12.44L33.54 12.50L33.58 12.54Q31.40 11.65 24.89 11.16L24.90 11.17L24.90 11.17Q23.63 11.31 20.85 11.43L20.91 11.49L20.90 11.47Q16.50 11.53 14.25 13.51L14.40 13.65L14.34 13.60Q12.65 15.03 12.65 18.19L12.60 18.13L12.73 18.27Q12.59 18.96 12.74 20.67L12.87 20.80L12.88 20.81Q12.95 22.44 12.95 23.32L12.96 23.33L13.05 23.42Q13.20 25.17 13.58 28.75L13.53 28.69L13.45 28.62Q13.78 31.46 15.38 33.51L15.45 33.58L15.37 33.51Q15.88 34.51 17.10 35.65L16.93 35.48L16.98 35.53Q19.71 37.54 24.89 37.81L24.88 37.80L24.93 37.85Q25.22 37.80 27.62 37.92L27.75 38.04L27.68 37.97Q32.55 38.19 34.83 37.13L34.86 37.15L34.77 37.07Q35.73 37.84 40.45 41.42L40.42 41.38L40.40 41.36Q41.05 40.88 42.35 39.89L42.22 39.76L42.30 39.84Q41.37 39.10 40.57 38.41L40.66 38.50L38.87 36.91L39.03 36.91L38.93 36.81Q38.50 36.50 37.28 35.47L37.26 35.44L37.18 35.36Q39.18 32.95 39.18 28.42L39.09 28.33L39.09 28.32Q39.14 27.96 39.17 27.12L39.10 27.05L39.17 27.12Q39.27 26.34 39.27 25.92L39.29 25.94L39.17 25.83Q39.24 20.37 38.52 18.01L38.41 17.90L38.57 18.06Q38.17 16.75 37.29 15.68L37.26 15.65L37.19 15.58Q36.43 13.49 33.50 12.46ZM27.46 17.00L27.52 17.06L27.45 17.00Q31.65 17.04 33.47 18.64L33.47 18.64L33.45 18.62Q33.97 19.79 34.09 21.12L33.98 21.01L34.17 21.20Q34.18 22.39 34.10 23.76L34.01 23.67L34.07 23.73Q33.79 28.75 31.85 30.46L31.85 30.45L31.88 30.48Q30.58 29.19 28.07 26.45L28.05 26.42L28.03 26.41Q27.09 26.99 25.53 28.55L25.67 28.69L25.58 28.60Q26.22 29.28 27.36 30.46L27.35 30.44L27.31 30.52L27.36 30.57Q27.86 31.04 28.89 32.10L28.79 32.01L28.96 32.17Q27.89 32.36 25.57 32.66L25.45 32.54L25.04 32.66L24.59 32.64L24.50 32.59L24.63 32.71Q21.09 32.64 19.11 31.00L19.15 31.04L19.07 30.96Q18.19 29.02 18.23 25.90L18.10 25.76L18.20 25.87Q18.40 17.20 27.58 17.12Z"/></svg>