<svg xmlns="http://www.w3.org/2000/svg" width="200" height="40" viewBox="0,0,200,40"><path fill="#333" d="M50.45 35.42L50.28 35.25L50.46 35.44Q48.93 35.39 47.37 34.97L47.30 34.90L47.33 34.93Q46.22 34.12 46.06 32.49L46.05 32.48L45.93 32.35Q46.07 32.34 46.26 29.71L46.08 29.54L46.12 29.57Q47.20 29.43 49.21 29.05L49.25 29.09L48.98 29.77L49.07 29.86Q48.77 31.57 50.18 32.14L50.08 32.05L50.26 32.23Q51.07 32.58 53.16 32.58L53.16 32.58L53.00 32.42Q54.66 32.33 54.86 32.26L54.88 32.28L54.84 32.24Q55.73 32.06 56.45 31.57L56.56 31.68L56.49 31.60Q57.99 30.74 57.79 28.65L57.66 28.51L57.69 28.55Q57.62 26.23 55.89 24.67L55.79 24.57L55.70 24.48Q54.14 23.09 51.67 23.09L51.64 23.06L51.63 22.83L51.68 22.88Q51.94 22.72 52.82 22.64L52.75 22.58L52.75 22.58Q54.65 22.46 56.02 21.22L56.14 21.34L56.15 21.35Q57.40 19.99 57.55 18.12L57.69 18.26L57.63 18.21Q57.64 17.80 57.64 17.45L57.78 17.59L57.73 17.55Q57.77 16.06 56.40 15.14L56.26 15.01L56.27 15.01Q55.17 14.33 53.57 14.45L53.44 14.32L53.62 14.49Q52.32 14.34 51.10 14.76L51.00 14.66L50.99 14.64Q49.54 15.18 49.24 16.32L49.19 16.27L49.21 16.30Q49.16 17.19 49.23 17.95L49.25 17.97L49.23 17.95Q48.19 17.71 46.13 16.99L46.06 16.91L46.04 16.89Q45.87 15.28 45.91 14.44L45.80 14.33L45.97 14.50Q45.98 12.87 47.04 12.18L47.04 12.18L46.98 12.12Q48.53 11.65 50.13 11.65L50.07 11.60L50.12 11.64Q53.27 11.59 56.43 11.86L56.43 11.87L56.38 11.82Q61.53 12.32 61.23 16.09L61.12 15.99L61.21 16.07Q61.05 17.48 60.56 19.04L60.55 19.03L60.58 19.06Q59.71 22.18 57.35 23.10L57.28 23.03L57.27 23.02Q59.96 23.62 60.57 26.97L60.55 26.95L60.43 26.83Q60.70 28.02 60.78 30.03L60.75 30.00L60.91 30.16Q60.90 34.45 56.29 34.91L56.30 34.91L56.41 35.03Q55.56 34.98 50.27 35.24ZM55.52 37.52L55.60 37.61L55.62 37.63Q56.25 37.69 59.11 37.76L59.12 37.77L58.97 37.62Q60.85 37.83 62.48 37.18L62.40 37.10L62.52 37.22Q63.62 36.19 63.43 34.43L63.33 34.33L63.40 34.40Q63.31 33.10 63.01 31.35L62.91 31.25L62.98 31.32Q62.29 26.86 60.35 25.23L60.44 25.31L60.06 24.75L60.04 24.68L60.16 24.81Q61.84 23.29 62.60 18.91L62.66 18.97L62.71 19.02Q62.59 18.41 62.71 17.46L62.72 17.47L62.79 17.54Q62.91 16.82 62.83 16.13L62.69 15.99L62.70 16.00Q62.59 14.37 61.30 13.69L61.40 13.79L61.24 13.71L61.19 13.66Q60.90 12.68 59.76 12.15L59.87 12.26L59.90 12.29Q58.25 11.47 53.11 11.17L53.24 11.30L53.18 11.24Q51.53 11.19 49.93 11.19L49.92 11.18L49.81 11.07Q48.29 11.15 46.76 11.79L46.82 11.85L46.67 11.70Q45.45 12.45 45.45 14.21L45.50 14.26L45.56 14.32Q45.63 13.97 45.90 17.32L45.78 17.20L45.74 17.16Q46.15 17.34 47.79 17.95L47.69 17.86L47.71 17.88Q47.72 18.42 47.68 18.91L47.65 18.88L47.66 18.89Q47.79 19.52 47.83 20.05L47.74 19.96L47.65 19.88Q49.57 20.38 51.58 20.49L51.56 20.47L51.64 20.55Q51.48 18.44 52.58 17.61L52.48 17.51L52.51 17.54Q53.46 17.00 55.48 16.77L55.33 16.63L55.45 16.74Q56.67 16.82 57.24 17.01L57.16 16.93L57.20 16.97Q57.08 16.93 57.12 17.04L57.14 17.07L57.16 17.28L57.31 17.88L57.40 17.97Q57.35 18.11 57.31 18.26L57.23 18.18L57.34 18.30Q57.30 20.04 55.78 21.22L55.62 21.06L55.73 21.17Q54.87 22.15 52.86 22.34L52.69 22.17L52.72 22.20Q52.07 22.43 51.20 22.43L51.26 22.50L51.23 22.46Q51.14 22.67 51.29 23.36L51.28 23.35L51.33 23.40Q53.07 23.39 54.51 24.11L54.46 24.06L54.50 24.21L52.94 24.40L52.97 24.44Q52.89 24.66 53.01 25.27L53.03 25.29L52.96 25.22Q55.17 25.22 56.88 26.56L56.97 26.64L56.91 26.58Q57.19 27.01 57.49 28.65L57.47 28.63L57.45 28.60Q57.55 31.45 54.62 31.87L54.74 31.99L54.66 31.91Q52.67 32.28 52.10 32.24L52.07 32.21L51.94 32.09Q51.53 32.02 51.00 31.94L51.00 31.94L50.93 31.42L51.22 31.13L51.22 30.72L51.20 30.35L51.17 30.32Q50.24 30.42 49.44 30.61L49.46 30.63L49.45 30.62Q49.39 30.37 49.39 30.18L49.47 30.26L49.43 30.22Q49.43 29.99 49.43 29.76L49.50 29.83L49.47 29.81Q49.46 29.34 49.62 28.62L49.72 28.72L49.57 28.57Q47.71 28.81 45.85 29.15L45.88 29.18L45.94 29.24Q45.82 29.61 45.70 30.74L45.72 30.75L45.74 30.78Q45.70 31.97 45.70 32.58L45.78 32.66L45.73 32.61Q45.79 34.65 47.16 35.41L47.19 35.44L47.08 35.33Q48.52 37.57 53.24 37.38L53.35 37.49L53.35 37.49Q54.01 37.38 55.53 37.54Z"/><path d="M19 36 C90 24,101 32,188 1" stroke="#666" fill="none"/><path fill="#333" d="M114.07 22.18L113.99 22.10L114.05 22.16Q114.84 22.15 116.25 22.00L116.18 21.93L116.33 22.09Q116.22 22.66 116.22 23.30L116.31 23.40L116.27 24.61L116.22 24.56Q115.34 24.52 114.50 24.59L114.61 24.70L114.49 24.58Q113.71 24.68 112.88 24.64L112.81 24.58L112.96 24.73Q110.07 30.86 106.64 35.47L106.54 35.36L106.53 35.35Q104.09 36.07 102.79 36.68L102.87 36.76L102.83 36.72Q106.99 31.05 110.04 24.77L109.90 24.64L107.34 24.71L107.37 24.74Q107.35 23.38 107.23 22.05L107.30 22.11L107.18 21.99Q109.19 22.25 111.24 22.25L111.21 22.21L113.12 18.53L113.02 18.43Q114.06 16.57 115.27 14.97L115.30 15.00L115.34 15.04Q113.68 15.10 112.08 15.10L112.09 15.11L112.19 15.20Q106.02 15.13 102.25 12.92L102.25 12.91L101.70 11.30L101.67 11.26Q101.31 10.41 100.93 9.54L100.97 9.58L100.90 9.51Q105.30 12.19 111.01 12.42L110.94 12.36L111.02 12.43Q116.06 12.57 121.20 10.59L121.29 10.68L121.29 10.68Q121.10 11.10 120.61 11.97L120.62 11.98L120.50 11.86Q116.90 16.63 114.04 22.15ZM122.10 13.23L122.07 13.20L123.11 11.24L123.20 11.33Q122.12 11.69 120.44 12.41L120.40 12.37L120.59 12.07L120.73 12.21Q120.89 12.10 121.00 11.98L120.88 11.86L120.93 11.91Q121.32 11.24 122.04 9.91L122.03 9.89L121.97 9.83Q116.78 12.25 111.03 12.03L110.86 11.85L110.86 11.86Q104.91 11.65 100.15 8.68L100.14 8.67L100.22 8.75Q101.14 10.51 101.98 13.18L101.98 13.17L102.00 13.20Q103.05 13.79 103.85 14.09L103.94 14.18L103.96 14.21Q104.10 14.53 104.55 16.40L104.61 16.46L104.61 16.46Q107.62 17.57 113.14 17.41L113.13 17.40L113.19 17.46Q112.95 18.09 110.97 21.86L110.85 21.74L111.01 21.90Q108.87 21.82 106.89 21.63L106.81 21.54L106.82 21.56Q106.93 22.43 106.93 23.30L107.06 23.43L107.07 25.16L108.57 24.99L108.64 26.46L108.62 26.44Q104.67 33.80 101.89 37.38L101.91 37.40L102.03 37.52Q103.55 36.67 105.18 36.18L105.24 36.24L105.14 36.13Q104.46 37.05 103.09 38.77L103.05 38.73L103.07 38.74Q106.33 37.74 108.77 37.51L108.80 37.54L108.64 37.39Q111.66 33.71 114.78 26.93L114.70 26.85L118.22 27.14L118.17 27.09Q118.14 26.22 118.14 25.30L118.15 25.31L118.16 23.53L118.05 23.43Q117.88 23.52 117.33 23.56L117.40 23.63L117.31 23.54Q116.66 23.48 116.40 23.48L116.54 23.62L116.53 23.62Q116.44 23.41 116.47 23.26L116.62 23.40L116.61 23.13L116.61 23.12Q119.09 17.95 122.17 13.31Z"/><path fill="#222" d="M81.66 35.21L81.73 35.28L81.73 35.28Q78.28 35.41 76.64 34.88L76.63 34.86L76.50 34.73Q74.63 34.19 74.32 30.80L74.35 30.83L75.76 29.73L75.75 29.72Q76.48 29.19 77.24 28.70L77.14 28.59L77.25 28.70Q76.89 30.51 78.49 31.73L78.49 31.74L78.57 31.82Q79.78 32.76 81.91 32.57L82.00 32.66L81.97 32.63Q86.44 32.30 86.25 28.76L86.18 28.69L86.22 28.73Q86.02 26.43 83.39 25.21L83.29 25.12L83.33 25.16Q80.53 24.15 78.17 22.93L78.11 22.86L78.24 23.00Q75.62 21.59 74.63 16.91L74.59 16.87L74.62 16.91Q74.53 16.47 74.41 15.71L74.32 15.61L74.40 15.69Q74.29 14.89 74.36 14.32L74.35 14.31L74.41 14.37Q74.53 12.74 75.79 12.28L75.80 12.30L75.87 12.36Q78.12 11.34 82.12 11.53L82.23 11.65L82.28 11.69Q84.03 11.73 84.83 11.81L84.93 11.91L84.75 11.73Q86.24 11.93 87.31 12.38L87.48 12.55L87.45 12.52Q89.40 12.83 89.63 15.31L89.68 15.36L89.77 15.45Q88.67 16.10 86.46 17.43L86.57 17.54L86.49 17.46Q86.04 14.42 81.66 14.42L81.72 14.49L81.77 14.53Q79.82 14.49 78.83 15.17L78.75 15.10L78.78 15.12Q77.68 15.70 77.91 17.49L77.82 17.40L77.88 17.46Q78.06 19.58 81.03 21.11L80.98 21.05L81.04 21.11Q81.66 21.43 86.16 23.07L86.18 23.10L86.19 23.11Q88.63 24.41 89.05 28.78L89.06 28.79L89.13 28.86Q89.06 28.95 89.14 30.20L89.18 30.24L89.30 30.36Q89.30 33.07 87.74 34.17L87.79 34.22L87.66 34.09Q85.78 35.02 81.59 35.14ZM84.07 37.70L84.06 37.68L83.98 37.61Q85.53 37.78 87.51 37.78L87.45 37.73L87.34 37.62Q89.48 37.66 90.74 37.25L90.74 37.24L90.75 37.25Q91.92 36.37 91.84 34.58L92.01 34.75L91.99 34.73Q91.91 33.69 91.53 31.64L91.60 31.71L91.58 31.69Q90.52 26.87 88.43 25.00L88.41 24.98L88.54 25.11Q87.80 23.57 86.47 22.85L86.36 22.74L81.15 20.77L81.15 20.77Q80.74 20.51 80.28 20.28L80.40 20.40L80.16 19.90L80.16 19.55L80.06 19.45Q80.05 18.18 81.19 17.57L81.07 17.45L81.10 17.48Q81.84 16.88 83.55 16.69L83.64 16.79L83.65 16.79Q84.67 16.56 85.81 17.01L85.81 17.01L85.84 17.05Q86.03 17.27 86.22 18.11L86.26 18.15L86.16 18.05Q86.27 17.82 86.77 17.59L86.83 17.65L86.91 17.73Q87.60 18.61 87.71 19.75L87.69 19.73L87.74 19.78Q87.80 19.72 91.45 17.14L91.37 17.05L91.35 17.04Q91.17 14.50 89.73 13.81L89.63 13.72L89.79 13.87Q89.16 12.56 87.71 12.02L87.74 12.05L87.65 11.97Q85.41 11.21 82.22 11.21L82.19 11.19L82.22 11.21Q77.39 11.30 75.53 11.98L75.46 11.92L75.49 11.95Q74.01 12.25 73.89 13.93L73.93 13.97L73.96 13.99Q73.98 14.58 74.40 16.79L74.35 16.75L74.29 16.68Q75.00 20.48 77.17 22.72L77.26 22.82L77.30 22.86Q77.93 24.40 79.44 25.09L79.54 25.19L79.50 25.15Q81.11 25.94 85.03 27.50L84.97 27.44L84.84 27.35L85.61 27.81L85.60 27.85L85.66 27.90Q85.70 28.21 85.74 28.55L85.92 28.73L85.78 28.60Q85.89 32.09 81.97 32.24L81.91 32.18L81.92 32.19Q80.74 32.20 79.45 31.82L79.51 31.88L79.56 31.93Q79.13 31.00 79.13 30.28L79.25 30.40L79.28 30.43Q79.11 29.99 79.14 29.72L79.32 29.90L79.24 29.82Q78.73 29.96 77.93 30.46L77.96 30.48L78.04 30.57Q77.43 29.34 77.58 27.97L77.65 28.04L77.62 28.01Q75.66 29.32 74.06 30.73L73.99 30.66L73.90 30.57Q74.04 31.47 74.12 32.50L74.06 32.45L74.15 32.54Q74.41 34.20 75.70 34.96L75.75 35.01L75.65 34.91Q76.86 36.73 79.41 37.11L79.60 37.30L79.55 37.25Q81.11 37.48 84.04 37.67Z"/><path fill="#333" d="M147.12 35.36L147.10 35.34L147.18 35.42Q144.07 31.40 141.44 22.76L141.63 22.94L141.59 22.91Q140.90 20.73 140.10 18.60L139.98 18.47L137.26 27.41L137.21 27.36Q135.31 32.20 132.91 35.43L132.89 35.41L132.92 35.44Q132.10 35.53 130.46 35.68L130.58 35.80L130.49 35.71Q130.63 34.56 130.63 33.30L130.54 33.21L130.58 33.25Q130.63 27.28 127.88 21.15L127.80 21.06L127.88 21.15Q124.67 14.16 118.80 9.18L118.88 9.26L118.96 9.33Q121.12 10.05 123.48 10.58L123.31 10.41L123.29 10.39Q132.00 18.87 133.30 29.84L133.43 29.97L133.26 29.80Q134.97 26.57 136.42 21.20L136.40 21.18L136.39 21.16Q138.33 13.63 138.82 12.22L138.84 12.24L141.10 12.25L141.26 12.41Q141.91 14.39 142.55 16.71L142.52 16.68L143.70 21.05L143.70 21.05Q145.25 26.49 146.66 29.72L146.65 29.72L146.63 29.69Q148.44 18.22 156.36 10.87L156.32 10.83L156.41 10.92Q157.78 10.42 160.75 9.78L160.83 9.86L160.78 9.81Q155.43 14.09 152.38 20.22L152.42 20.26L152.50 20.34Q149.32 26.49 149.32 33.26L149.43 33.37L149.28 33.22Q149.37 34.41 149.44 35.55L149.37 35.48L148.25 35.39L148.37 35.50Q147.62 35.29 147.05 35.29ZM153.31 38.20L153.38 38.27L153.37 38.26Q152.15 34.72 152.27 30.84L152.19 30.76L152.32 30.89Q152.58 19.28 161.95 11.02L161.88 10.95L161.98 11.05Q161.01 11.26 159.07 11.79L159.12 11.85L159.00 11.72Q159.97 10.91 161.88 9.12L161.88 9.13L161.84 9.08Q159.32 9.98 156.39 10.48L156.32 10.41L156.40 10.49Q148.78 17.49 146.88 26.97L146.84 26.93L146.89 26.98Q146.39 25.42 143.53 13.96L143.52 13.95L143.43 13.86Q143.02 13.94 142.07 13.94L142.03 13.91L141.87 12.97L141.75 12.86Q141.62 12.31 141.39 11.81L141.44 11.86L138.67 11.99L138.54 11.86Q137.72 14.31 136.45 19.43L136.38 19.37L136.45 19.43Q135.19 24.57 134.20 27.05L134.21 27.06L134.19 27.04Q132.73 19.26 127.17 12.94L127.15 12.91L127.07 12.84Q126.57 12.75 125.62 12.56L125.70 12.64L125.65 12.60Q124.82 11.65 123.26 10.01L123.37 10.12L123.36 10.12Q119.91 9.25 117.74 8.45L117.86 8.57L117.74 8.45Q123.42 13.15 126.69 19.35L126.76 19.42L126.72 19.38Q130.27 26.08 130.27 33.09L130.25 33.07L130.25 33.07Q130.20 34.58 130.01 36.18L130.06 36.23L129.99 36.16Q130.26 36.21 130.72 36.11L130.63 36.03L130.60 35.99Q131.14 35.97 131.36 35.97L131.40 36.01L131.35 36.99L131.42 37.06Q131.29 37.39 131.37 37.92L131.46 38.01L131.45 38.00Q132.67 38.00 134.95 37.85L134.81 37.70L134.97 37.86Q138.46 32.33 141.20 22.93L141.18 22.91L141.15 22.88Q144.01 31.76 146.98 35.72L147.04 35.77L147.03 35.77Q147.39 35.66 148.22 35.78L148.29 35.84L148.32 35.88Q149.08 36.82 150.14 37.89L150.23 37.98L150.29 38.03Q151.02 38.04 153.42 38.31Z"/><path fill="#111" d="M22.60 25.66L22.61 25.67L22.67 25.73Q22.57 25.63 25.96 25.60L26.01 25.65L25.88 25.52Q28.16 25.51 29.23 25.55L29.33 25.65L29.31 25.64Q28.23 22.72 25.79 17.09L25.72 17.01L25.86 17.16Q25.26 18.54 24.21 21.39L24.22 21.40L24.15 21.32Q23.17 24.25 22.60 25.66ZM30.43 28.12L30.41 28.11L30.51 28.20Q28.03 27.97 25.83 28.01L26.02 28.20L25.92 28.10Q23.62 28.08 21.33 28.27L21.48 28.42L21.37 28.31Q19.93 31.82 16.69 36.01L16.70 36.02L16.68 35.99Q14.09 36.61 12.72 37.10L12.64 37.02L12.60 36.98Q17.82 31.43 22.51 18.07L22.50 18.06L22.50 18.06Q23.77 14.64 25.14 11.41L25.03 11.30L25.09 11.36Q25.49 11.45 25.83 11.45L25.87 11.49L26.51 11.41L26.45 11.35Q27.31 12.82 32.14 24.47L32.06 24.38L31.99 24.31Q35.42 32.31 39.42 36.46L39.35 36.39L39.42 36.47Q38.79 36.21 34.91 35.34L34.97 35.40L35.05 35.48Q32.37 32.23 30.39 28.08ZM34.84 35.69L34.84 35.69L35.44 35.79L35.41 35.76Q35.62 35.75 35.93 35.86L36.06 36.00L36.02 35.95Q36.35 36.32 38.17 38.34L38.18 38.34L38.18 38.35Q41.80 39.22 44.19 40.25L44.14 40.19L44.23 40.28Q38.74 35.75 34.74 27.75L34.65 27.66L34.79 27.80Q33.00 24.34 31.56 20.38L31.70 20.53L28.98 13.04L28.89 12.95Q28.67 13.08 28.44 13.08L28.34 12.98L27.95 13.11L27.95 13.11Q27.57 12.44 26.85 11.07L26.68 10.90L26.84 11.05Q26.26 11.00 25.80 10.97L25.72 10.89L25.84 11.00Q25.42 11.00 24.89 11.00L24.73 10.85L24.89 11.01Q23.32 14.77 19.44 24.93L19.50 25.00L19.60 25.10Q16.39 32.97 11.75 37.76L11.74 37.76L11.83 37.84Q12.87 37.44 14.89 36.83L14.79 36.73L14.77 36.71Q13.96 37.54 12.40 39.33L12.57 39.50L12.53 39.46Q14.16 38.73 18.08 37.96L18.11 37.99L18.11 37.99Q21.52 33.64 23.08 30.40L23.03 30.35L23.07 30.40Q24.89 30.35 27.22 30.39L27.11 30.29L27.18 30.36Q29.84 30.31 31.21 30.39L31.18 30.35L31.18 30.35Q32.56 32.84 34.92 35.77ZM27.14 21.02L27.17 21.06L27.12 21.00Q27.92 23.03 28.68 25.12L28.70 25.14L25.38 25.13L25.37 25.12Q26.07 23.80 27.14 21.02Z"/><path fill="#222" d="M164.67 21.77L164.64 21.74L164.72 21.82Q166.57 22.03 168.39 22.03L168.36 21.99L168.26 21.90Q170.18 22.02 172.00 21.87L171.99 21.86L172.05 21.92Q171.82 22.44 171.82 23.17L171.84 23.19L171.75 24.44L171.95 24.63Q169.52 24.57 164.76 24.68L164.75 24.66L164.77 24.69Q164.70 30.56 163.56 35.54L163.57 35.56L163.51 35.49Q161.39 36.27 159.91 37.07L159.80 36.97L159.83 36.99Q162.16 30.18 161.89 23.06L161.99 23.17L161.90 23.07Q161.61 15.89 158.94 9.23L159.03 9.31L159.00 9.28Q162.65 11.79 167.41 12.02L167.38 12.00L167.50 12.12Q172.03 12.15 176.18 10.40L176.29 10.51L176.18 10.40Q175.97 11.30 175.74 12.10L175.69 12.04L175.32 13.77L175.34 13.78Q172.51 14.76 169.54 14.91L169.54 14.91L169.69 15.07Q166.75 15.20 163.89 14.48L163.83 14.42L163.84 14.43Q164.46 17.75 164.65 21.75ZM176.85 9.74L176.99 9.88L176.83 9.71Q172.23 11.86 167.36 11.55L167.47 11.67L167.44 11.63Q162.17 11.39 158.44 8.53L158.34 8.43L158.34 8.44Q161.20 15.37 161.51 22.99L161.48 22.95L161.61 23.09Q161.96 31.05 159.45 37.83L159.31 37.70L159.34 37.72Q159.98 37.29 161.35 36.64L161.38 36.68L161.47 36.77Q161.18 37.43 160.61 38.95L160.59 38.94L160.58 38.93Q162.90 37.85 165.79 37.36L165.85 37.42L165.84 37.41Q166.45 32.53 166.64 26.82L166.60 26.78L166.61 26.80Q168.38 26.73 170.20 26.73L170.23 26.76L170.29 26.82Q172.17 26.91 174.00 27.10L173.91 27.01L173.83 26.94Q173.73 25.99 173.73 25.08L173.81 25.17L173.80 23.25L173.73 23.17Q173.03 23.35 172.19 23.35L172.20 23.36L172.11 23.27Q172.17 22.46 172.25 21.43L172.35 21.53L172.28 21.46Q170.81 21.56 169.41 21.56L169.57 21.72L169.52 21.68Q167.98 21.54 166.61 21.50L166.80 21.69L166.67 19.43L166.65 19.41Q166.59 18.28 166.48 17.22L166.41 17.15L166.53 17.28Q167.38 17.20 168.36 17.20L168.44 17.28L168.37 17.21Q173.19 17.27 176.80 15.37L176.90 15.46L176.76 15.32Q177.26 13.49 178.17 10.87L178.32 11.01L178.22 10.91Q176.93 11.76 176.13 12.10L176.22 12.19L176.11 12.08Q176.38 11.32 176.87 9.76Z"/><path d="M7 9 C98 23,89 10,193 34" stroke="#666" fill="none"/></svg>