<svg xmlns="http://www.w3.org/2000/svg" width="200" height="40" viewBox="0,0,200,40"><path fill="#444" d="M113.44 34.90L113.45 34.90L111.44 34.84L111.54 34.94Q110.47 34.82 109.52 34.94L109.55 34.97L109.54 34.95Q110.13 28.77 110.13 24.77L110.21 24.85L110.12 24.76Q106.17 18.11 98.52 9.43L98.49 9.40L98.46 9.37Q100.29 10.40 103.64 11.20L103.63 11.20L103.73 11.29Q108.77 16.87 111.78 22.08L111.78 22.09L111.65 21.95Q114.76 16.49 119.13 11.47L119.07 11.40L119.08 11.41Q121.54 11.06 124.05 10.26L123.93 10.14L124.00 10.21Q117.89 16.24 113.02 24.65L113.13 24.76L113.10 24.74Q113.03 31.71 113.34 34.80ZM122.44 12.22L125.25 9.47L125.27 9.49Q122.10 10.59 118.98 11.04L118.99 11.05L119.01 11.07Q114.70 15.71 111.88 20.81L111.98 20.91L112.01 20.95Q109.87 17.28 106.67 13.40L106.61 13.34L106.59 13.32Q106.41 13.40 105.92 13.33L105.95 13.36L105.80 13.21Q105.13 12.42 103.61 10.75L103.68 10.82L103.70 10.85Q100.22 9.98 97.25 8.42L97.30 8.48L97.22 8.40Q105.01 16.95 109.76 24.86L109.73 24.83L109.86 24.96Q109.66 31.20 109.05 35.35L109.02 35.31L109.10 35.39Q109.75 35.28 111.19 35.16L111.35 35.32L111.25 36.25L111.21 36.21Q111.28 36.74 111.21 37.27L111.16 37.22L111.17 37.24Q114.80 37.32 116.55 37.51L116.39 37.35L116.52 37.48Q115.20 32.73 115.08 26.75L115.10 26.77L115.20 26.87Q119.57 18.41 126.11 11.06L126.13 11.07L122.55 12.33Z"/><path fill="#333" d="M55.32 35.16L55.31 35.15L53.20 35.32L53.21 35.33Q52.68 35.26 51.71 35.31L51.72 35.32L51.82 35.42Q50.74 35.37 50.25 35.37L50.20 35.33L50.25 35.38Q48.64 35.41 47.61 34.57L47.58 34.53L47.55 34.51Q48.43 33.49 50.07 31.35L49.98 31.26L49.96 31.25Q51.40 32.99 53.61 32.76L53.53 32.68L53.51 32.66Q54.37 32.49 55.02 31.85L55.07 31.90L55.15 31.98Q55.77 31.31 55.66 30.43L55.56 30.33L55.53 30.30Q55.59 25.87 55.67 21.31L55.59 21.22L55.66 21.30Q55.53 16.52 56.06 11.92L56.08 11.94L56.20 12.05Q58.07 11.79 60.20 10.76L60.17 10.73L60.20 10.76Q58.30 17.47 58.30 24.70L58.40 24.80L58.37 24.77Q58.34 28.28 58.79 31.78L58.91 31.90L58.90 31.89Q58.91 32.16 58.91 32.50L58.98 32.57L58.81 32.41Q58.96 33.12 58.73 33.65L58.69 33.61L58.74 33.67Q58.17 34.92 55.35 35.19ZM60.32 38.07L60.18 37.92L60.64 38.04L60.77 37.75L61.06 37.66L61.08 37.68Q61.32 37.35 61.39 37.23L61.40 37.23L61.47 37.31Q61.74 36.20 61.47 35.21L61.32 35.07L61.33 35.08Q60.11 29.40 60.38 23.05L60.25 22.91L60.41 23.07Q60.56 16.86 62.34 10.96L62.31 10.93L62.28 10.90Q61.41 11.56 60.16 12.28L60.24 12.36L60.23 12.35Q60.39 11.56 60.81 10.04L60.91 10.14L60.85 10.08Q58.41 11.49 55.75 11.79L55.59 11.63L55.69 11.74Q55.35 16.16 55.28 21.11L55.25 21.08L55.31 21.14Q55.18 26.99 55.26 30.41L55.22 30.38L55.23 30.39Q55.25 32.12 53.50 32.27L53.52 32.29L53.59 32.36Q51.74 32.33 50.06 30.70L50.12 30.76L50.18 30.81Q48.03 33.24 47.08 34.80L47.21 34.93L47.12 34.84Q47.84 35.55 48.86 35.78L48.77 35.69L48.88 35.79Q48.79 35.93 48.52 36.16L48.46 36.10L48.49 36.13Q49.81 36.96 51.79 37.23L51.86 37.29L51.82 37.26Q52.22 37.31 55.52 37.62L55.47 37.57L55.56 37.67Q58.86 37.97 60.23 37.97Z"/><path fill="#222" d="M175.46 35.42L175.45 35.40L175.34 35.29Q172.49 31.53 169.86 22.89L169.86 22.88L169.73 22.76Q169.18 20.72 168.38 18.59L168.25 18.46L165.57 27.43L165.51 27.37Q163.70 32.30 161.30 35.54L161.24 35.47L161.27 35.50Q160.34 35.49 158.71 35.64L158.86 35.79L158.75 35.68Q158.91 34.55 158.91 33.30L158.86 33.25L158.99 33.37Q158.94 27.31 156.20 21.18L156.08 21.06L156.16 21.14Q153.12 14.34 147.26 9.35L147.21 9.30L147.18 9.26Q149.38 10.02 151.74 10.56L151.71 10.52L151.67 10.48Q160.26 18.84 161.55 29.81L161.69 29.95L161.56 29.82Q163.26 26.57 164.71 21.20L164.63 21.12L164.70 21.19Q166.80 13.81 167.29 12.40L167.28 12.38L169.41 12.27L169.54 12.40Q170.14 14.33 170.79 16.66L170.82 16.69L172.10 21.17L171.96 21.03Q173.53 26.48 174.94 29.72L174.93 29.71L175.02 29.80Q176.72 18.21 184.64 10.86L184.53 10.75L184.66 10.89Q186.04 10.40 189.01 9.75L189.08 9.82L189.06 9.80Q183.68 14.05 180.63 20.18L180.78 20.33L180.67 20.22Q177.59 26.47 177.59 33.24L177.72 33.37L177.72 33.37Q177.72 34.48 177.80 35.62L177.81 35.63L176.51 35.36L176.47 35.32Q176.06 35.45 175.49 35.45ZM181.69 38.29L181.74 38.35L181.67 38.27Q180.44 34.72 180.55 30.84L180.49 30.78L180.57 30.86Q180.84 19.24 190.20 10.98L190.18 10.96L190.14 10.92Q189.33 11.30 187.39 11.83L187.34 11.77L187.32 11.75Q188.37 11.01 190.27 9.23L190.14 9.09L190.14 9.10Q187.61 9.99 184.68 10.49L184.64 10.45L184.63 10.44Q177.00 17.43 175.10 26.91L175.24 27.05L175.18 26.99Q174.69 25.44 171.84 13.98L171.78 13.92L171.84 13.98Q171.36 13.99 170.41 13.99L170.30 13.89L170.11 12.93L170.02 12.84Q169.96 12.37 169.74 11.87L169.73 11.87L166.91 11.94L166.93 11.96Q166.02 14.32 164.74 19.44L164.78 19.48L164.65 19.36Q163.48 24.58 162.49 27.05L162.42 26.98L162.48 27.04Q160.94 19.18 155.38 12.86L155.39 12.87L155.26 12.75Q154.83 12.73 153.87 12.54L153.82 12.48L153.85 12.51Q153.25 11.80 151.69 10.16L151.72 10.19L151.60 10.07Q148.28 9.34 146.11 8.54L146.14 8.57L146.01 8.44Q151.69 13.13 154.96 19.33L155.08 19.45L155.03 19.40Q158.51 26.05 158.51 33.05L158.49 33.03L158.49 33.02Q158.51 34.61 158.32 36.21L158.36 36.25L158.39 36.27Q158.52 36.17 158.97 36.08L158.92 36.02L158.92 36.03Q159.44 35.99 159.67 35.99L159.63 35.96L159.72 37.08L159.64 36.99Q159.70 37.51 159.78 38.04L159.67 37.93L159.67 37.94Q160.95 38.00 163.24 37.85L163.20 37.81L163.16 37.78Q166.88 32.47 169.62 23.06L169.51 22.95L169.56 23.01Q172.24 31.70 175.21 35.66L175.33 35.78L175.18 35.63Q175.81 35.81 176.65 35.92L176.68 35.95L176.65 35.92Q177.45 36.91 178.52 37.98L178.56 38.02L178.45 37.91Q179.26 38.00 181.66 38.26Z"/><path d="M13 6 C119 39,84 14,189 22" stroke="#888" fill="none"/><path fill="#222" d="M90.90 18.37L90.89 18.37L90.82 18.29Q89.03 14.14 82.83 14.33L82.87 14.38L82.93 14.44Q78.46 14.49 76.48 15.94L76.45 15.91L76.57 16.03Q74.19 17.80 74.19 21.91L74.05 21.78L74.07 23.66L74.00 23.59Q74.10 32.52 83.12 32.52L83.09 32.49L83.13 32.53Q85.23 32.57 86.71 31.77L86.62 31.68L86.59 31.65Q88.43 30.64 88.28 28.77L88.26 28.76L88.26 28.75Q88.11 26.70 84.42 25.78L84.52 25.89L82.58 25.89L82.51 25.82Q81.61 25.87 80.65 25.90L80.58 25.83L80.69 25.94Q80.69 24.98 80.65 23.08L80.62 23.06L80.52 22.96Q88.25 23.03 92.44 22.69L92.44 22.69L92.49 22.75Q92.45 23.57 92.45 24.37L92.37 24.30L92.31 24.23Q92.31 25.04 92.35 25.84L92.42 25.90L92.37 25.86Q91.38 25.97 91.38 25.97L91.34 25.93L91.31 25.90Q89.94 25.90 90.32 25.90L90.33 25.91L90.28 25.86Q91.43 27.54 91.81 29.52L91.71 29.42L91.72 29.43Q91.97 30.29 91.97 30.75L91.97 30.75L91.91 30.69Q91.89 35.32 83.10 35.32L83.17 35.39L83.04 35.26Q76.05 35.38 73.46 33.29L73.37 33.20L73.38 33.21Q71.30 30.75 71.30 25.69L71.32 25.70L71.34 25.73Q71.44 24.76 71.28 22.05L71.32 22.09L71.34 22.11Q71.07 19.64 71.11 18.26L71.08 18.23L71.12 18.27Q71.33 15.51 72.70 13.92L72.67 13.88L72.60 13.82Q75.17 11.78 80.05 11.59L80.12 11.66L82.74 11.54L82.78 11.59Q85.70 11.30 89.12 11.72L89.15 11.75L89.21 11.81Q92.96 12.29 93.92 15.52L94.03 15.64L93.95 15.56Q92.88 16.43 90.78 18.26ZM92.10 20.37L92.42 20.57L92.33 20.48Q93.58 19.45 95.44 17.47L95.45 17.47L95.35 17.38Q95.01 16.39 94.02 14.67L94.11 14.76L94.03 14.68Q92.83 12.01 89.03 11.36L89.16 11.49L89.03 11.36Q86.98 11.33 82.68 11.03L82.61 10.96L79.92 11.08L79.97 11.14Q74.81 11.34 72.22 13.32L72.26 13.36L72.32 13.42Q70.95 15.06 70.84 18.14L70.76 18.07L70.67 17.97Q70.75 17.60 70.98 23.08L71.02 23.12L70.96 23.06Q71.06 24.50 71.14 27.24L71.04 27.14L71.11 27.21Q71.21 31.58 72.96 33.52L73.07 33.62L73.09 33.64Q73.49 34.50 74.36 35.37L74.21 35.22L74.36 35.37Q77.13 37.12 82.65 37.46L82.72 37.53L85.59 37.69L85.56 37.66Q87.26 37.88 89.28 37.76L89.21 37.70L89.17 37.65Q90.60 37.56 92.69 37.03L92.82 37.15L92.74 37.07Q94.69 36.59 94.65 34.26L94.68 34.29L94.74 34.36Q94.62 32.98 93.55 30.20L93.56 30.20L93.66 30.31Q93.31 29.35 92.78 28.55L92.77 28.54L92.69 28.46Q93.33 28.53 94.51 28.72L94.59 28.80L94.49 28.70Q94.33 25.23 94.37 24.55L94.18 24.36L94.27 24.45Q93.82 24.37 93.40 24.33L93.53 24.46L93.41 24.34Q93.09 24.37 92.71 24.45L92.65 24.39L92.70 24.44Q92.73 23.36 92.80 22.29L92.87 22.36L92.85 22.34Q86.49 22.75 80.20 22.64L80.13 22.57L80.26 22.69Q80.28 23.59 80.28 24.51L80.24 24.46L80.28 26.25L80.20 26.17Q80.69 26.29 81.11 26.25L81.11 26.25L81.03 26.16Q81.58 26.30 82.04 26.30L81.96 26.22L81.96 26.22Q81.97 26.69 82.01 27.19L82.00 27.17L82.07 27.24Q81.93 27.56 81.89 28.05L81.89 28.05L81.93 28.09Q83.00 28.10 84.03 28.06L84.14 28.17L83.96 28.00Q85.12 28.13 86.15 28.17L86.19 28.20L86.09 28.10Q87.06 28.28 87.94 28.66L88.05 28.77L87.99 28.75L87.93 28.68Q88.15 30.27 86.47 31.19L86.60 31.31L86.61 31.33Q84.93 32.24 83.22 32.24L83.22 32.24L83.12 32.14Q79.20 32.07 76.77 30.31L76.80 30.35L76.83 30.38Q75.91 28.39 76.06 25.84L76.06 25.84L76.08 25.87Q76.26 20.94 78.11 18.94L78.12 18.95L78.13 18.96Q79.97 16.96 84.66 16.66L84.65 16.65L84.65 16.65Q88.39 16.51 90.33 18.30L90.30 18.26L90.28 18.25Q90.33 18.33 90.44 18.53L90.43 18.52L90.62 18.59L90.54 18.51Q91.23 19.31 91.80 20.42L91.81 20.43L92.20 20.47Z"/><path d="M3 29 C114 27,120 21,193 20" stroke="#222" fill="none"/><path fill="#333" d="M18.73 10.86L18.68 10.81L18.68 10.81Q20.71 15.82 21.29 20.99L21.24 20.95L21.23 20.94Q24.83 16.70 30.73 11.86L30.75 11.88L30.83 11.96Q33.99 11.62 36.62 10.82L36.67 10.87L30.14 16.53L30.05 16.43Q26.66 19.40 23.80 22.26L23.89 22.34L23.88 22.33Q31.69 31.32 36.75 36.04L36.81 36.10L36.74 36.03Q33.72 35.18 31.40 35.03L31.48 35.11L31.33 34.96Q25.58 29.59 21.28 23.77L21.41 23.90L21.31 23.80Q21.49 30.49 19.63 35.82L19.60 35.79L19.48 35.67Q19.30 35.76 18.80 35.95L18.80 35.94L18.89 36.22L18.80 36.14Q18.62 36.18 16.07 37.10L16.03 37.06L16.10 37.13Q18.97 30.48 18.63 23.02L18.57 22.96L18.63 23.02Q18.30 15.68 14.76 9.17L14.87 9.28L15.42 9.57L15.85 9.88L15.78 9.78L15.88 9.88Q16.42 10.08 18.63 10.76ZM18.91 10.47L18.99 10.55L19.00 10.56Q16.64 9.91 14.01 8.39L14.11 8.49L14.07 8.44Q18.34 15.73 18.34 24.68L18.33 24.66L18.37 24.70Q18.43 31.77 15.46 37.82L15.40 37.76L17.38 36.85L17.37 36.83Q17.12 38.00 16.44 39.29L16.46 39.31L16.29 39.14Q18.58 38.39 20.52 37.97L20.60 38.05L20.72 37.94L20.72 37.94Q20.85 37.77 21.42 37.62L21.55 37.74L21.57 37.76Q23.15 31.77 23.27 26.97L23.28 26.99L23.28 26.98Q25.35 29.48 27.18 31.34L27.05 31.21L27.21 31.38Q28.38 32.46 31.38 35.43L31.27 35.31L31.42 35.47L31.35 35.39Q32.31 36.17 34.18 37.77L34.26 37.85L34.25 37.84Q38.19 38.63 41.66 40.34L41.53 40.21L41.52 40.20Q32.20 31.60 25.96 24.18L26.12 24.34L25.96 24.18Q30.48 20.02 39.24 11.42L39.20 11.39L39.25 11.44Q36.57 12.45 34.56 12.83L34.72 13.00L34.74 13.01Q35.86 11.93 38.18 9.91L38.14 9.87L38.22 9.95Q34.13 11.38 30.78 11.57L30.79 11.57L30.62 11.41Q27.80 13.73 22.93 18.41L22.98 18.47L22.87 18.36Q22.45 15.72 21.87 13.17L22.06 13.36L21.91 13.21Q20.85 13.18 19.86 12.84L19.81 12.78L19.87 12.84Q19.65 12.09 19.08 10.65Z"/><path fill="#444" d="M135.26 35.38L135.29 35.41L135.19 35.31Q133.79 35.39 132.23 34.97L132.33 35.08L132.19 34.93Q131.04 34.09 130.89 32.45L130.88 32.45L130.83 32.39Q130.85 32.26 131.04 29.64L131.06 29.65L131.00 29.60Q132.14 29.52 134.16 29.14L134.00 28.98L133.87 29.80L133.85 29.78Q133.63 31.58 135.04 32.15L135.02 32.13L134.97 32.08Q135.83 32.48 137.92 32.48L138.01 32.57L137.93 32.49Q139.62 32.43 139.81 32.35L139.79 32.33L139.75 32.29Q140.64 32.12 141.37 31.63L141.28 31.54L141.29 31.55Q142.80 30.70 142.61 28.61L142.59 28.58L142.62 28.61Q142.44 26.19 140.71 24.63L140.70 24.62L140.69 24.61Q138.98 23.07 136.51 23.07L136.36 22.93L136.34 22.68L136.42 22.76Q136.87 22.78 137.74 22.71L137.61 22.58L137.72 22.69Q139.60 22.55 140.97 21.31L140.92 21.26L140.88 21.22Q142.30 20.04 142.45 18.17L142.40 18.12L142.41 18.13Q142.55 17.84 142.55 17.50L142.53 17.48L142.49 17.45Q142.53 15.97 141.16 15.05L141.17 15.06L141.11 15.00Q140.04 14.35 138.44 14.46L138.44 14.47L138.48 14.50Q137.04 14.21 135.82 14.62L135.81 14.61L135.91 14.71Q134.52 15.29 134.21 16.44L134.08 16.30L134.10 16.33Q133.86 17.04 133.93 17.80L134.10 17.96L134.02 17.89Q132.96 17.62 130.91 16.90L131.01 17.01L130.96 16.95Q130.69 15.23 130.72 14.40L130.82 14.49L130.63 14.30Q130.75 12.78 131.81 12.10L131.85 12.14L131.97 12.25Q133.35 11.61 134.95 11.61L134.90 11.56L134.97 11.64Q138.12 11.59 141.28 11.86L141.22 11.79L141.29 11.87Q146.36 12.29 146.05 16.06L145.90 15.90L146.08 16.09Q145.96 17.53 145.47 19.09L145.45 19.07L145.39 19.01Q144.59 22.21 142.23 23.13L142.24 23.13L142.17 23.07Q144.83 23.63 145.44 26.98L145.47 27.01L145.33 26.87Q145.61 28.07 145.69 30.09L145.66 30.06L145.71 30.11Q145.92 34.61 141.31 35.07L141.31 35.07L141.25 35.01Q140.43 34.99 135.14 35.26ZM140.47 37.62L140.51 37.66L140.45 37.60Q141.08 37.66 143.94 37.74L143.94 37.74L143.91 37.71Q145.74 37.86 147.38 37.22L147.39 37.23L147.23 37.07Q148.48 36.19 148.29 34.44L148.24 34.39L148.33 34.47Q148.14 33.06 147.83 31.31L147.80 31.28L147.86 31.34Q147.19 26.90 145.25 25.27L145.18 25.20L145.03 24.86L144.89 24.68L144.97 24.76Q146.68 23.27 147.44 18.90L147.41 18.86L147.47 18.92Q147.46 18.42 147.57 17.47L147.65 17.54L147.73 17.62Q147.70 16.75 147.62 16.06L147.58 16.03L147.55 15.99Q147.45 14.37 146.15 13.68L146.28 13.81L146.13 13.74L146.04 13.65Q145.84 12.76 144.70 12.23L144.67 12.20L144.72 12.25Q143.21 11.58 138.07 11.28L138.05 11.26L138.07 11.28Q136.24 11.05 134.64 11.05L134.78 11.18L134.64 11.04Q133.12 11.12 131.60 11.77L131.59 11.76L131.58 11.75Q130.36 12.51 130.36 14.26L130.32 14.22L130.40 14.30Q130.39 13.87 130.66 17.22L130.59 17.15L130.60 17.16Q130.96 17.30 132.60 17.91L132.63 17.94L132.59 17.90Q132.52 18.37 132.48 18.86L132.50 18.87L132.54 18.91Q132.57 19.44 132.61 19.98L132.55 19.92L132.66 20.02Q134.37 20.32 136.38 20.44L136.38 20.43L136.30 20.36Q136.39 18.50 137.49 17.66L137.52 17.69L137.50 17.68Q138.37 17.05 140.38 16.82L140.38 16.82L140.24 16.68Q141.34 16.64 141.91 16.83L141.98 16.89L141.97 16.89Q142.05 17.04 142.09 17.15L142.01 17.08L142.07 17.33L142.18 17.90L142.09 17.81Q142.22 18.12 142.18 18.28L142.08 18.17L142.10 18.20Q142.14 20.03 140.62 21.21L140.47 21.06L140.48 21.07Q139.65 22.07 137.63 22.26L137.64 22.27L137.71 22.34Q136.84 22.34 135.97 22.34L135.95 22.33L136.02 22.39Q136.13 22.81 136.28 23.49L136.12 23.33L136.18 23.39Q137.98 23.44 139.42 24.16L139.49 24.23L139.23 24.08L137.80 24.41L137.82 24.42Q137.73 24.64 137.85 25.25L137.85 25.26L137.87 25.28Q140.08 25.28 141.79 26.61L141.71 26.52L141.72 26.53Q142.01 26.98 142.32 28.62L142.17 28.47L142.19 28.49Q142.46 31.50 139.53 31.92L139.50 31.89L139.47 31.86Q137.42 32.17 136.85 32.14L136.80 32.09L136.95 32.23Q136.43 32.06 135.90 31.98L135.90 31.98L135.82 31.45L136.03 31.08L136.00 30.64L136.11 30.41L136.00 30.29Q135.17 30.49 134.37 30.68L134.40 30.71L134.33 30.64Q134.20 30.32 134.20 30.13L134.33 30.26L134.17 30.10Q134.39 30.09 134.39 29.86L134.34 29.81L134.27 29.74Q134.29 29.30 134.44 28.58L134.43 28.57L134.56 28.70Q132.56 28.79 130.69 29.14L130.81 29.26L130.72 29.16Q130.76 29.69 130.64 30.82L130.58 30.76L130.69 30.87Q130.63 32.04 130.63 32.65L130.54 32.56L130.61 32.63Q130.69 34.69 132.06 35.45L131.97 35.36L131.95 35.35Q133.54 37.74 138.26 37.54L138.13 37.41L138.17 37.45Q138.98 37.50 140.50 37.65Z"/></svg>