<svg xmlns="http://www.w3.org/2000/svg" width="200" height="40" viewBox="0,0,200,40"><path d="M15 6 C90 35,111 34,183 33" stroke="#111" fill="none"/><path fill="#333" d="M138.48 24.15L138.48 24.15L138.48 24.15Q136.60 24.13 135.38 25.47L135.35 25.44L135.49 25.58Q134.28 26.92 134.13 28.82L134.05 28.74L134.08 28.78Q133.84 30.85 135.05 31.86L135.07 31.88L135.05 31.85Q136.38 32.98 138.52 32.90L138.42 32.81L138.47 32.86Q140.82 32.74 141.77 31.78L141.65 31.67L141.75 31.76Q142.78 30.31 142.66 28.49L142.65 28.47L142.72 28.54Q142.61 26.68 141.52 25.48L141.49 25.45L141.36 25.32Q140.44 24.28 138.61 24.28ZM138.51 14.78L138.43 14.70L138.50 14.76Q137.00 14.56 135.66 15.05L135.71 15.10L135.81 15.20Q134.39 15.87 134.62 17.74L134.73 17.85L134.75 17.87Q135.12 21.48 138.47 21.48L138.58 21.59L138.55 21.56Q139.98 21.62 140.97 20.48L141.02 20.52L140.98 20.48Q142.14 19.52 142.18 17.96L142.04 17.81L142.02 17.79Q142.23 16.18 141.51 15.57L141.35 15.41L141.49 15.55Q139.84 14.74 138.55 14.82ZM138.30 35.39L138.27 35.37L135.20 35.34L135.18 35.32Q133.70 35.36 132.37 34.48L132.31 34.43L132.31 34.43Q130.98 33.33 131.13 30.47L131.17 30.51L131.08 30.42Q131.63 23.66 135.25 22.67L135.07 22.49L135.23 22.66Q132.90 21.69 131.56 16.32L131.62 16.37L131.51 16.27Q131.14 14.84 131.22 14.04L131.19 14.01L131.22 14.04Q131.66 12.04 135.35 12.00L135.33 11.98L135.18 11.83Q139.57 11.92 141.02 12.11L140.97 12.06L140.95 12.04Q144.75 12.53 145.21 14.55L145.29 14.63L145.27 14.61Q145.41 15.25 145.41 15.63L145.45 15.67L145.39 15.60Q145.36 16.26 145.17 16.87L145.10 16.80L145.19 16.89Q144.64 21.17 141.71 22.70L141.64 22.63L141.66 22.65Q145.21 23.49 145.70 28.79L145.69 28.77L145.71 28.79Q145.55 28.78 145.58 30.07L145.68 30.17L145.61 30.10Q145.79 32.95 144.19 34.01L144.19 34.01L144.19 34.01Q142.70 34.76 138.13 35.22ZM140.58 37.71L140.41 37.54L143.85 37.71L143.94 37.79Q145.51 37.73 147.03 37.01L147.15 37.12L147.18 37.15Q148.26 36.36 148.33 34.50L148.21 34.38L148.25 34.41Q148.35 33.38 147.97 31.43L148.02 31.48L147.89 31.35Q147.03 26.77 144.94 24.90L144.95 24.91L144.75 24.52L144.63 24.32L144.32 23.90L144.40 23.98Q146.05 22.62 146.96 18.47L146.89 18.39L146.96 18.47Q147.00 18.12 147.07 17.29L147.05 17.26L147.02 17.24Q147.18 16.63 147.10 16.02L147.04 15.96L147.08 16.01Q146.90 14.53 145.72 14.03L145.78 14.09L145.66 13.94L145.46 13.81L145.62 13.97Q145.34 13.23 144.16 12.43L144.12 12.39L144.16 12.40L144.14 12.38Q142.21 11.74 138.13 11.54L138.13 11.54L138.05 11.46Q136.53 11.39 135.16 11.50L135.18 11.53L135.20 11.54Q134.44 11.62 133.15 11.78L132.99 11.61L133.00 11.62Q131.05 12.00 130.82 13.63L130.82 13.64L130.95 13.77Q130.82 14.17 130.86 14.97L130.96 15.07L130.81 14.93Q131.10 15.63 131.68 17.99L131.54 17.86L131.51 17.83Q132.34 21.10 134.09 22.43L134.07 22.41L134.27 22.61L134.29 22.63Q131.36 23.77 130.82 28.94L130.99 29.11L130.86 28.98Q130.74 31.26 130.74 32.17L130.62 32.06L130.64 32.08Q130.79 33.94 131.97 34.85L131.91 34.79L131.92 34.79Q132.10 34.94 132.37 35.13L132.42 35.19L132.41 35.17Q133.32 37.34 140.44 37.57ZM140.23 26.62L140.23 26.62L140.05 26.45Q140.99 26.39 141.86 26.85L141.87 26.86L141.93 26.92Q142.27 27.86 142.23 28.39L142.34 28.51L142.27 28.44Q142.33 28.76 142.33 29.06L142.34 29.08L142.38 29.11Q142.36 31.46 140.07 32.29L140.10 32.32L140.06 32.28Q139.20 32.52 138.40 32.41L138.37 32.38L138.43 32.43Q137.26 32.49 136.12 32.03L136.19 32.10L136.28 32.19Q135.91 31.44 135.98 30.45L136.08 30.54L135.97 30.43Q136.09 28.80 137.29 27.58L137.29 27.59L137.33 27.63Q138.53 26.41 140.13 26.52ZM140.46 17.15L140.35 17.04L140.30 16.99Q141.27 17.04 141.80 17.20L141.62 17.01L141.64 17.83L141.74 17.93Q141.80 19.40 140.88 20.41L140.78 20.30L140.74 20.26Q139.92 21.37 138.55 21.18L138.49 21.11L138.52 21.15Q137.56 21.18 137.14 20.95L137.09 20.90L137.16 20.96Q137.15 20.73 137.04 20.05L136.96 19.97L136.90 19.91Q136.75 18.62 137.97 17.78L137.95 17.76L137.85 17.66Q138.93 16.99 140.34 17.03Z"/><path d="M4 4 C121 12,94 25,197 29" stroke="#888" fill="none"/><path fill="#444" d="M110.27 14.61L110.19 14.54L108.69 14.71L108.70 14.72Q106.48 14.86 106.25 16.88L106.29 16.92L106.35 16.97Q106.18 17.61 106.22 18.59L106.25 18.63L106.28 18.66Q106.25 20.53 107.50 21.86L107.52 21.88L107.60 21.96Q108.67 23.11 110.58 22.96L110.69 23.07L110.66 23.04Q112.67 22.84 113.43 21.92L113.58 22.07L113.40 21.89Q114.59 21.10 114.85 18.85L114.82 18.82L114.88 18.88Q115.13 16.62 113.87 15.78L113.92 15.83L113.87 15.78Q112.94 14.93 110.28 14.62ZM116.36 23.90L116.29 23.84L115.13 26.25L114.95 26.07Q112.41 31.03 108.64 35.10L108.52 34.98L108.61 35.08Q106.86 35.11 104.15 35.91L104.20 35.95L104.32 36.07Q109.55 29.69 112.71 24.89L112.79 24.97L112.76 24.95Q111.72 25.59 110.09 25.66L109.97 25.54L109.97 25.54Q107.09 25.83 105.57 23.85L105.49 23.77L105.61 23.88Q104.33 22.22 103.22 17.65L103.15 17.59L103.27 17.70Q103.17 17.14 103.01 16.21L103.03 16.22L103.06 16.25Q102.99 15.40 102.99 14.95L102.94 14.90L102.97 14.93Q102.82 12.99 103.89 12.38L104.01 12.50L103.89 12.39Q105.16 11.68 107.03 11.68L106.98 11.63L106.99 11.64Q110.23 11.68 110.23 11.68L110.23 11.68L110.21 11.66Q112.34 11.66 113.60 11.85L113.73 11.98L113.65 11.90Q115.90 12.29 116.81 12.78L116.65 12.62L116.82 12.78Q118.05 13.41 118.24 15.16L118.32 15.24L118.23 15.15Q118.34 15.49 118.15 18.16L118.03 18.03L118.11 18.11Q117.72 20.23 117.49 21.07L117.42 21.00L117.42 21.00Q117.01 22.38 116.24 23.79ZM118.21 26.25L118.20 26.23L118.21 26.24Q119.23 24.06 119.76 19.76L119.82 19.83L119.69 19.69Q120.00 17.53 119.96 16.65L120.06 16.76L120.05 16.74Q119.88 14.74 118.70 13.83L118.85 13.98L118.40 13.72L118.52 13.85Q118.18 13.01 117.27 12.36L117.37 12.46L117.21 12.30Q114.98 11.37 110.18 11.21L110.14 11.17L110.28 11.31Q109.22 11.21 106.79 11.21L106.78 11.20L106.73 11.15Q105.02 11.19 103.53 11.87L103.60 11.95L103.56 11.90Q102.35 12.64 102.43 14.46L102.56 14.59L102.50 14.53Q102.79 15.55 102.98 17.57L103.00 17.58L102.91 17.50Q103.55 20.15 103.81 20.99L103.78 20.96L103.78 20.95Q104.25 22.72 105.20 24.01L105.38 24.19L105.21 24.02Q105.53 24.41 105.91 24.79L105.94 24.83L105.99 24.88Q106.31 25.38 106.95 26.30L106.90 26.24L106.76 26.11Q108.33 27.56 110.27 27.75L110.19 27.67L110.27 27.75Q108.38 30.43 106.82 32.33L106.91 32.42L103.25 36.75L103.22 36.72Q105.43 35.93 107.07 35.59L107.18 35.70L107.10 35.62Q106.40 36.55 104.84 38.27L104.80 38.23L104.85 38.28Q107.82 37.25 110.94 37.21L110.95 37.22L110.99 37.26Q113.39 34.75 117.73 27.52L117.68 27.47L117.57 27.43L117.62 27.49Q117.96 26.84 118.30 26.34ZM112.22 17.02L112.23 17.03L112.31 17.11Q112.74 16.82 113.20 16.94L113.39 17.13L113.21 16.94Q113.96 17.17 114.34 17.28L114.28 17.21L114.28 17.22Q114.44 17.65 114.52 18.07L114.48 18.03L114.55 18.10Q114.60 18.49 114.49 18.87L114.56 18.95L114.50 18.88Q114.38 20.51 113.20 21.61L113.29 21.71L113.23 21.65Q112.38 22.78 110.75 22.74L110.69 22.68L110.69 22.69Q110.26 22.67 108.74 22.37L108.79 22.42L108.68 22.31Q108.43 21.42 108.43 20.70L108.46 20.72L108.41 20.67Q108.41 20.48 108.41 20.26L108.42 20.26L108.39 20.23Q108.38 18.02 110.67 17.22L110.63 17.18L110.78 17.33Q111.37 17.01 112.21 17.01Z"/><path fill="#111" d="M81.85 24.09L81.97 24.21L81.94 24.18Q80.02 23.97 78.78 25.40L78.81 25.43L78.72 25.34Q77.48 26.77 77.29 28.67L77.37 28.75L77.40 28.78Q77.11 30.77 78.20 31.75L78.25 31.80L78.25 31.80Q79.26 32.70 81.36 32.58L81.37 32.60L81.43 32.65Q83.47 32.45 84.58 31.77L84.53 31.72L84.59 31.78Q85.81 30.75 85.81 29.19L85.83 29.22L85.67 29.06Q85.85 28.85 85.77 28.47L85.60 28.30L85.62 28.32Q85.84 26.79 84.73 25.44L84.61 25.31L84.60 25.30Q83.53 23.98 81.86 24.10ZM81.55 35.32L81.48 35.26L81.35 35.13Q77.14 35.29 75.73 34.53L75.74 34.54L75.76 34.56Q74.59 33.65 74.40 31.94L74.52 32.07L74.36 31.90Q74.49 31.39 74.53 30.67L74.47 30.61L74.47 30.61Q74.46 29.50 74.46 29.04L74.53 29.11L74.60 29.18Q75.01 26.27 75.16 25.59L75.08 25.51L75.26 25.69Q75.57 23.60 76.41 22.20L76.50 22.28L76.40 22.19Q79.03 17.77 84.97 11.42L85.17 11.61L85.06 11.51Q87.68 11.15 89.89 10.35L89.94 10.41L89.97 10.43Q83.16 17.94 79.96 22.17L79.86 22.07L79.88 22.09Q80.91 21.63 82.20 21.63L82.23 21.65L82.10 21.53Q85.56 21.67 87.08 23.62L86.92 23.45L87.09 23.62Q88.41 25.25 88.76 28.79L88.68 28.71L88.62 28.65Q88.72 29.40 88.72 30.01L88.80 30.09L88.79 30.08Q88.69 33.11 86.49 34.17L86.49 34.17L86.52 34.20Q85.37 34.88 81.48 35.26ZM83.78 37.67L83.70 37.59L83.70 37.59Q85.13 37.69 87.11 37.76L87.00 37.66L87.05 37.70Q88.67 37.77 90.24 37.05L90.16 36.97L90.23 37.04Q91.29 36.20 91.29 34.41L91.36 34.48L91.37 34.49Q91.38 34.01 91.21 33.02L91.09 32.89L91.16 32.97Q90.96 31.95 90.96 31.49L91.04 31.57L90.91 31.44Q90.00 26.68 88.40 24.78L88.53 24.91L88.42 24.80Q88.36 24.70 88.21 24.47L88.33 24.59L88.03 24.38L87.82 24.20L87.80 24.18Q87.56 23.79 86.95 22.84L86.99 22.87L87.01 22.89Q85.92 21.77 83.94 21.31L84.02 21.39L84.10 21.47Q85.20 19.76 88.17 16.06L88.18 16.07L92.36 10.73L92.48 10.86Q90.97 11.78 88.58 12.54L88.50 12.47L88.46 12.43Q89.50 11.57 91.29 9.59L91.19 9.49L91.18 9.48Q88.71 10.47 84.83 11.04L84.86 11.08L84.84 11.05Q79.20 17.03 76.23 21.98L76.14 21.89L76.16 21.91Q74.75 24.53 74.18 30.77L74.10 30.70L74.10 30.70Q74.00 31.24 74.07 32.19L74.13 32.25L74.15 32.26Q74.12 33.91 75.22 34.83L75.34 34.94L75.27 34.87Q75.77 35.14 75.73 35.18L75.65 35.10L75.67 35.12Q76.00 35.98 76.80 36.40L76.76 36.36L76.89 36.49Q78.33 37.17 80.27 37.36L80.14 37.23L80.21 37.30Q80.21 37.30 83.71 37.60ZM83.54 26.43L83.58 26.47L83.49 26.38Q84.13 26.33 85.08 26.83L85.08 26.83L85.00 26.74Q85.35 27.71 85.35 28.35L85.45 28.46L85.32 28.32Q85.56 30.24 84.60 31.23L84.66 31.28L84.60 31.22Q83.58 31.99 81.49 32.30L81.54 32.35L81.43 32.24Q80.05 32.30 79.51 32.03L79.54 32.06L79.49 32.01Q79.33 31.59 79.33 31.28L79.36 31.31L79.23 31.18Q79.02 27.93 81.96 26.63L82.01 26.69L82.01 26.69Q82.74 26.32 83.50 26.39Z"/><path fill="#222" d="M24.22 34.83L24.25 34.87L24.24 34.86Q20.20 34.44 18.38 32.99L18.38 32.99L18.24 32.86Q16.51 31.50 16.09 28.49L16.13 28.54L16.13 28.54Q16.00 28.06 15.65 23.30L15.57 23.22L15.69 23.34Q15.71 22.14 15.63 20.88L15.69 20.94L15.73 20.98Q15.46 15.83 17.67 14.08L17.66 14.08L17.72 14.14Q20.40 12.06 28.17 11.37L28.04 11.25L28.09 11.30Q29.44 11.16 31.08 11.20L31.06 11.19L31.11 11.23Q30.99 11.11 33.96 11.11L34.06 11.21L34.03 11.19Q34.92 11.24 36.64 11.39L36.61 11.36L36.66 11.42Q36.08 12.28 35.05 15.37L35.14 15.45L35.11 15.42Q32.97 14.15 29.96 14.15L30.04 14.23L30.04 14.23Q29.25 14.21 28.45 14.28L28.42 14.26L28.50 14.34Q23.24 14.63 20.73 16.61L20.75 16.63L20.90 16.78Q18.70 18.20 18.55 21.55L18.62 21.62L18.72 21.72Q18.52 22.17 18.56 23.42L18.61 23.48L18.61 23.48Q18.80 28.38 21.19 30.48L21.18 30.46L21.15 30.43Q23.30 32.36 28.29 32.66L28.26 32.64L28.23 32.60Q31.48 32.88 34.49 31.09L34.42 31.03L34.45 31.06Q35.00 33.74 35.61 35.11L35.56 35.06L35.66 35.16Q33.52 35.38 31.89 35.34L31.94 35.40L31.88 35.34Q27.47 35.34 24.35 34.96ZM39.35 38.58L39.44 38.67L39.39 38.62Q37.68 35.70 37.00 33.11L37.03 33.15L36.91 33.02Q36.48 33.27 35.49 33.65L35.48 33.64L35.45 33.62Q35.17 32.88 34.98 32.05L35.00 32.07L34.72 30.45L34.58 30.31Q31.27 32.33 28.15 32.22L28.24 32.31L28.17 32.23Q24.00 32.14 21.68 30.39L21.73 30.44L21.58 30.29Q20.57 28.60 20.64 25.66L20.59 25.61L20.54 25.56Q20.67 21.04 23.14 18.91L23.29 19.06L23.30 19.07Q25.25 16.98 29.93 16.37L30.10 16.55L30.11 16.56Q30.87 16.40 31.60 16.40L31.54 16.34L31.56 16.36Q34.33 16.36 36.43 17.88L36.49 17.95L36.34 17.80Q36.87 15.70 38.09 12.47L38.10 12.47L38.10 12.48Q37.79 12.43 37.24 12.37L37.37 12.51L37.40 12.54Q36.81 12.44 36.54 12.44L36.50 12.39L36.59 12.48Q36.74 11.92 37.20 10.93L37.12 10.85L37.09 10.81Q36.97 10.92 34.47 10.85L34.38 10.75L34.35 10.72Q31.97 10.76 31.32 10.79L31.26 10.73L31.27 10.74Q20.82 11.15 17.36 13.74L17.36 13.74L17.36 13.74Q15.33 15.56 15.33 19.48L15.32 19.46L15.33 19.47Q15.32 20.57 15.44 23.27L15.46 23.30L15.47 23.31Q15.45 26.72 15.68 28.43L15.76 28.51L15.75 28.49Q16.13 31.62 17.73 33.14L17.66 33.07L17.69 33.10Q18.13 33.73 19.39 34.88L19.37 34.86L19.42 34.91Q22.65 36.65 27.90 37.41L28.02 37.54L27.93 37.44Q34.44 38.47 39.43 38.66Z"/><path fill="#333" d="M53.79 14.59L53.79 14.59L53.83 14.63Q51.84 14.73 50.88 14.88L51.01 15.01L50.86 14.86Q49.23 15.10 48.02 15.63L48.06 15.68L48.05 15.67Q44.58 17.14 44.46 21.82L44.46 21.83L44.40 21.77Q44.49 24.59 45.13 27.52L44.96 27.35L45.10 27.49Q45.83 31.37 49.44 32.55L49.57 32.68L49.44 32.55Q51.45 33.23 52.90 33.08L52.97 33.15L53.21 32.93L53.33 33.05Q53.45 32.99 53.64 33.02L53.62 33.00L53.74 33.12Q53.74 32.97 53.90 32.93L54.02 33.06L54.02 33.05Q56.53 32.67 57.90 32.10L57.91 32.11L54.41 28.65L54.36 28.60Q54.73 28.32 55.33 27.71L55.28 27.65L56.25 26.79L56.33 26.88Q58.18 28.96 60.16 31.01L60.15 31.00L60.12 30.97Q62.38 29.08 62.64 23.71L62.72 23.78L62.72 23.79Q62.64 22.72 62.64 21.81L62.74 21.91L62.78 21.94Q62.74 16.23 57.68 15.13L57.60 15.05L57.74 15.19Q56.28 14.72 53.77 14.57ZM66.53 36.63L66.71 36.80L66.57 36.66Q65.99 37.11 64.81 37.98L64.94 38.12L60.41 34.31L60.40 34.30Q57.92 35.52 53.66 35.55L53.73 35.63L53.81 35.70Q47.24 35.80 44.43 33.55L44.31 33.43L44.39 33.52Q42.56 31.69 42.11 28.72L42.15 28.77L42.03 28.64Q41.99 27.01 41.61 23.43L41.63 23.44L41.51 23.33Q41.54 22.63 41.42 20.88L41.45 20.90L41.49 20.95Q41.20 19.24 41.24 18.37L41.22 18.35L41.23 18.37Q41.34 15.31 43.09 13.75L43.12 13.78L43.17 13.84Q44.69 12.50 47.89 12.01L47.87 11.99L47.80 11.92Q50.34 11.60 53.24 11.68L53.30 11.74L53.23 11.67Q60.68 11.73 63.80 14.09L63.79 14.09L63.88 14.17Q65.99 16.25 65.73 21.16L65.72 21.16L65.79 21.22Q65.57 24.85 65.38 26.18L65.50 26.30L65.32 26.12Q64.66 30.60 62.34 32.92L62.46 33.05L62.47 33.05Q63.79 34.15 66.53 36.62ZM61.73 12.41L61.70 12.37L61.73 12.41Q59.87 11.84 53.36 11.34L53.17 11.16L53.34 11.32Q51.80 11.19 49.02 11.30L49.04 11.32L49.20 11.48Q44.94 11.68 42.70 13.66L42.72 13.69L42.68 13.64Q41.03 15.12 41.03 18.28L40.98 18.23L41.03 18.28Q40.93 19.01 41.08 20.72L41.21 20.86L41.13 20.78Q41.31 22.51 41.31 23.39L41.24 23.32L41.17 23.25Q41.50 25.18 41.88 28.76L41.86 28.74L41.78 28.66Q42.10 31.49 43.70 33.55L43.79 33.64L43.80 33.65Q44.18 34.52 45.40 35.66L45.26 35.52L45.31 35.57Q47.95 37.50 53.13 37.76L53.14 37.77L53.24 37.87Q53.63 37.92 56.03 38.04L56.03 38.04L55.94 37.95Q60.70 38.06 62.99 37.00L63.11 37.13L63.01 37.02Q63.95 37.77 68.67 41.35L68.68 41.36L68.73 41.41Q69.20 40.74 70.50 39.75L70.45 39.70L70.61 39.86Q69.70 39.15 68.90 38.46L68.96 38.51L67.21 36.96L67.39 36.99L67.28 36.87Q66.79 36.50 65.57 35.47L65.57 35.47L65.49 35.39Q67.41 32.90 67.41 28.37L67.51 28.47L67.45 28.41Q67.44 27.98 67.48 27.14L67.55 27.21L67.46 27.12Q67.54 26.32 67.54 25.90L67.59 25.96L67.59 25.95Q67.45 20.29 66.73 17.93L66.76 17.97L66.72 17.93Q66.48 16.78 65.61 15.71L65.46 15.56L65.50 15.61Q64.68 13.45 61.74 12.42ZM55.68 16.94L55.87 17.13L55.71 16.97Q59.84 16.95 61.67 18.55L61.66 18.54L61.75 18.63Q62.25 19.78 62.36 21.11L62.26 21.01L62.36 21.11Q62.41 22.34 62.34 23.71L62.37 23.75L62.41 23.79Q62.07 28.74 60.13 30.45L60.15 30.47L60.07 30.39Q58.83 29.15 56.32 26.41L56.27 26.36L56.32 26.41Q55.53 27.14 53.97 28.70L53.81 28.55L53.95 28.69Q54.48 29.25 55.62 30.43L55.58 30.39L55.44 30.37L55.56 30.48Q56.21 31.10 57.24 32.16L57.13 32.06L57.19 32.11Q56.19 32.37 53.86 32.67L53.75 32.56L53.25 32.60L52.98 32.74L52.90 32.69L52.96 32.76Q49.49 32.75 47.51 31.11L47.45 31.06L47.41 31.02Q46.31 28.85 46.35 25.73L46.36 25.74L46.53 25.91Q46.63 17.14 55.80 17.06Z"/><path fill="#333" d="M170.05 34.93L170.04 34.93L168.01 34.84L167.99 34.82Q167.01 34.79 166.06 34.91L166.09 34.93L166.14 34.99Q166.69 28.76 166.69 24.76L166.77 24.84L166.60 24.67Q162.78 18.15 155.13 9.47L155.08 9.42L154.98 9.32Q156.87 10.41 160.22 11.21L160.21 11.20L160.13 11.12Q165.36 16.89 168.37 22.10L168.28 22.01L168.36 22.09Q171.33 16.50 175.71 11.47L175.68 11.45L175.70 11.46Q178.10 11.05 180.62 10.25L180.64 10.27L180.56 10.20Q174.57 16.35 169.70 24.76L169.61 24.68L169.63 24.70Q169.66 31.77 169.97 34.85ZM178.97 12.18L181.84 9.49L181.67 9.32Q178.61 10.53 175.49 10.99L175.64 11.14L175.49 10.99Q171.27 15.72 168.46 20.82L168.49 20.85L168.56 20.92Q166.45 17.29 163.25 13.40L163.16 13.31L163.10 13.25Q162.93 13.35 162.43 13.27L162.46 13.30L162.35 13.18Q161.72 12.45 160.20 10.77L160.16 10.73L160.21 10.78Q156.73 9.93 153.76 8.37L153.91 8.51L153.79 8.40Q161.67 17.04 166.43 24.96L166.28 24.80L166.29 24.82Q166.19 31.15 165.58 35.30L165.57 35.29L165.60 35.32Q166.30 35.26 167.75 35.15L167.84 35.23L167.84 36.27L167.77 36.19Q167.74 36.63 167.67 37.16L167.79 37.28L167.84 37.33Q171.26 37.21 173.01 37.40L172.95 37.34L173.07 37.46Q171.74 32.70 171.62 26.72L171.77 26.88L171.76 26.86Q176.04 18.31 182.59 10.96L182.67 11.05L179.11 12.32Z"/></svg>