<svg xmlns="http://www.w3.org/2000/svg" width="200" height="40" viewBox="0,0,200,40"><path fill="#222" d="M135.90 35.40L135.90 35.41L135.78 35.29Q131.82 35.64 130.83 33.31L130.86 33.34L130.87 33.35Q131.53 32.30 133.10 30.51L133.14 30.56L133.06 30.48Q133.68 32.62 136.69 32.73L136.68 32.72L136.61 32.66Q139.99 32.73 141.63 31.40L141.71 31.47L141.58 31.35Q143.04 29.80 142.97 27.10L142.94 27.07L143.05 27.18Q142.87 22.09 138.07 22.31L137.95 22.20L138.05 22.29Q135.14 22.35 133.39 23.61L133.50 23.72L133.22 23.59L133.02 23.46L133.04 23.49Q133.33 20.28 133.22 17.53L133.22 17.54L133.21 17.53Q133.01 14.82 132.67 11.51L132.67 11.51L132.62 11.46Q136.38 12.51 140.19 12.40L140.14 12.35L140.24 12.45Q143.88 12.21 147.46 10.96L147.58 11.07L146.95 12.54L146.98 12.57Q146.71 13.37 146.52 14.21L146.50 14.19L146.46 14.15Q143.44 15.27 139.56 15.27L139.43 15.14L139.46 15.17Q137.99 15.15 136.50 15.00L136.53 15.02L136.55 15.05Q136.55 15.80 136.20 20.26L136.19 20.24L136.21 20.26Q137.00 19.76 139.06 19.61L139.01 19.56L139.03 19.59Q142.70 19.75 144.15 21.43L144.24 21.52L144.14 21.42Q145.64 23.07 145.91 26.92L145.77 26.77L145.84 26.84Q146.02 30.94 144.80 32.96L144.85 33.02L144.85 33.02Q142.78 34.87 139.47 35.10L139.50 35.13L139.63 35.26Q138.55 35.24 135.88 35.39ZM141.88 37.62L141.86 37.60L141.83 37.57Q145.35 37.74 147.26 36.64L147.15 36.54L147.30 36.68Q148.19 35.06 148.19 32.97L148.15 32.93L148.21 32.99Q148.14 29.84 147.19 25.72L147.26 25.79L147.26 25.80Q146.89 24.06 145.67 22.65L145.70 22.67L145.81 22.82L145.48 22.42L145.11 22.20L145.11 22.20Q144.88 21.55 144.23 20.86L144.21 20.84L144.22 20.89L144.26 20.93Q142.73 19.25 139.04 19.25L138.99 19.20L138.75 19.22L138.77 19.25Q138.85 18.67 139.04 17.57L139.07 17.60L139.07 17.60Q144.07 17.73 148.11 16.10L147.92 15.91L147.96 15.95Q148.44 14.60 149.39 11.78L149.35 11.74L147.36 12.80L147.25 12.68Q147.65 11.56 148.14 10.42L148.18 10.45L148.12 10.40Q144.38 11.95 140.27 12.02L140.20 11.96L140.28 12.04Q136.05 12.03 132.09 10.93L132.08 10.92L132.12 10.96Q132.80 15.37 132.80 19.78L132.82 19.80L132.81 19.79Q132.82 21.70 132.70 23.61L132.79 23.70L132.75 23.66Q132.91 23.74 133.48 24.04L133.48 24.04L133.63 24.20Q133.87 23.86 134.52 23.52L134.46 23.46L134.55 23.56Q134.47 24.27 134.24 25.80L134.24 25.79L134.32 25.87Q134.70 26.03 135.12 26.26L135.21 26.34L135.03 26.16Q137.89 24.49 139.76 24.49L139.77 24.51L139.75 24.49Q141.14 24.54 142.32 25.19L142.22 25.09L142.24 25.12Q142.65 26.21 142.69 27.16L142.68 27.15L142.70 27.17Q142.69 29.67 141.66 30.78L141.67 30.79L141.73 30.85Q140.27 31.98 138.02 32.20L138.08 32.26L138.01 32.19Q137.16 32.37 136.48 32.29L136.43 32.25L136.45 32.27Q135.51 32.05 134.75 31.71L134.90 31.86L134.76 31.52L134.79 31.79L134.60 31.60Q133.87 31.18 133.34 29.84L133.37 29.88L133.38 29.88Q132.08 31.32 130.40 33.45L130.28 33.33L130.37 33.42Q130.74 34.13 131.58 35.08L131.45 34.96L131.40 34.91Q132.48 36.75 135.30 37.25L135.31 37.25L135.34 37.29Q136.47 37.46 141.84 37.58Z"/><path fill="#333" d="M81.95 24.19L81.78 24.02L81.81 24.06Q80.12 24.07 78.88 25.50L78.88 25.50L78.80 25.42Q77.66 26.94 77.47 28.85L77.44 28.82L77.33 28.71Q77.12 30.79 78.21 31.76L78.17 31.72L78.16 31.71Q79.34 32.78 81.44 32.66L81.31 32.54L81.45 32.68Q83.54 32.52 84.64 31.83L84.55 31.74L84.64 31.83Q85.70 30.65 85.70 29.09L85.82 29.20L85.65 29.04Q85.75 28.76 85.68 28.38L85.62 28.32L85.67 28.37Q85.70 26.65 84.60 25.30L84.71 25.41L84.57 25.27Q83.48 23.93 81.80 24.05ZM81.39 35.17L81.45 35.22L81.54 35.32Q77.06 35.21 75.65 34.45L75.75 34.55L75.62 34.42Q74.72 33.79 74.53 32.08L74.45 32.00L74.40 31.95Q74.49 31.38 74.52 30.66L74.40 30.54L74.36 30.50Q74.51 29.54 74.51 29.09L74.54 29.11L74.57 29.15Q75.10 26.37 75.25 25.68L75.21 25.64L75.09 25.52Q75.53 23.56 76.37 22.15L76.47 22.25L76.44 22.22Q79.09 17.83 85.03 11.47L85.08 11.53L85.03 11.48Q87.72 11.20 89.93 10.40L89.91 10.38L90.01 10.48Q83.13 17.91 79.93 22.13L79.89 22.10L79.97 22.17Q80.95 21.67 82.24 21.67L82.13 21.56L82.20 21.62Q85.58 21.69 87.10 23.63L86.99 23.52L87.09 23.62Q88.40 25.24 88.74 28.78L88.77 28.80L88.76 28.79Q88.67 29.35 88.67 29.96L88.68 29.98L88.77 30.06Q88.73 33.14 86.52 34.21L86.64 34.32L86.56 34.25Q85.24 34.75 81.35 35.13ZM83.67 37.56L83.65 37.54L83.73 37.62Q84.98 37.54 86.96 37.62L87.06 37.71L86.91 37.57Q88.72 37.81 90.28 37.09L90.26 37.07L90.13 36.94Q91.41 36.31 91.41 34.52L91.38 34.50L91.29 34.41Q91.37 33.99 91.19 33.00L91.16 32.96L91.22 33.02Q91.02 32.01 91.02 31.55L91.05 31.57L91.05 31.58Q90.19 26.87 88.59 24.97L88.54 24.92L88.50 24.88Q88.35 24.69 88.20 24.46L88.33 24.60L87.91 24.25L87.82 24.20L87.93 24.31Q87.54 23.77 86.93 22.82L86.87 22.76L86.96 22.84Q86.01 21.86 84.03 21.40L84.12 21.49L84.01 21.38Q85.17 19.73 88.14 16.03L88.23 16.12L92.41 10.78L92.43 10.81Q90.95 11.76 88.56 12.53L88.42 12.38L88.47 12.44Q89.32 11.39 91.11 9.41L91.26 9.56L91.14 9.43Q88.88 10.64 85.00 11.21L84.92 11.13L84.88 11.10Q79.22 17.05 76.25 22.00L76.27 22.02L76.15 21.89Q74.67 24.45 74.10 30.69L74.19 30.79L74.14 30.74Q74.15 31.39 74.23 32.35L74.09 32.21L74.05 32.17Q74.24 34.03 75.34 34.94L75.35 34.96L75.41 35.01Q75.68 35.05 75.64 35.09L75.62 35.07L75.65 35.10Q76.14 36.13 76.94 36.55L76.92 36.52L76.94 36.54Q78.34 37.18 80.28 37.37L80.24 37.33L80.21 37.30Q80.21 37.30 83.71 37.60ZM83.47 26.36L83.55 26.44L83.52 26.41Q84.13 26.34 85.08 26.83L85.02 26.77L85.11 26.85Q85.36 27.71 85.36 28.36L85.39 28.40L85.38 28.39Q85.47 30.15 84.52 31.14L84.55 31.17L84.64 31.26Q83.54 31.95 81.45 32.26L81.48 32.29L81.53 32.34Q80.07 32.33 79.54 32.06L79.39 31.92L79.46 31.98Q79.28 31.54 79.28 31.23L79.31 31.26L79.22 31.17Q79.03 27.93 81.96 26.64L81.88 26.56L81.95 26.63Q82.77 26.34 83.53 26.42Z"/><path d="M6 26 C93 6,99 18,191 39" stroke="#666" fill="none"/><path d="M7 23 C115 19,107 9,190 22" stroke="#333" fill="none"/><path fill="#333" d="M53.38 35.21L53.31 35.15L53.34 35.17Q49.98 35.40 48.35 34.86L48.29 34.81L48.21 34.72Q46.27 34.12 45.97 30.73L45.92 30.69L47.52 29.78L47.36 29.62Q48.18 29.18 48.94 28.68L48.88 28.62L49.02 28.76Q48.65 30.56 50.25 31.78L50.18 31.71L50.27 31.80Q51.63 32.90 53.76 32.71L53.79 32.73L53.61 32.55Q58.01 32.16 57.82 28.62L57.97 28.76L57.89 28.69Q57.66 26.36 55.04 25.15L55.18 25.28L55.04 25.15Q52.30 24.19 49.94 22.98L49.90 22.94L49.93 22.97Q47.39 21.65 46.40 16.97L46.34 16.91L46.41 16.98Q46.19 16.42 46.08 15.66L46.17 15.74L46.11 15.69Q46.01 14.90 46.09 14.33L46.15 14.40L46.03 14.27Q46.34 12.83 47.60 12.38L47.45 12.23L47.44 12.22Q49.83 11.33 53.83 11.53L53.83 11.53L54.02 11.71Q55.73 11.72 56.53 11.80L56.62 11.88L56.47 11.73Q58.00 11.97 59.07 12.43L59.09 12.45L59.18 12.54Q61.21 12.93 61.44 15.40L61.34 15.31L61.44 15.41Q60.45 16.16 58.24 17.50L58.28 17.54L58.20 17.46Q57.86 14.54 53.49 14.54L53.48 14.53L53.40 14.45Q51.50 14.45 50.51 15.14L50.51 15.14L50.46 15.08Q49.35 15.65 49.58 17.44L49.60 17.47L49.59 17.45Q49.90 19.70 52.87 21.22L52.87 21.23L52.78 21.13Q53.36 21.41 57.85 23.05L57.72 22.92L57.72 22.91Q60.49 24.54 60.90 28.92L60.95 28.97L60.92 28.93Q60.88 29.05 60.95 30.30L61.03 30.38L60.96 30.31Q60.99 33.05 59.43 34.15L59.40 34.12L59.48 34.20Q57.66 35.20 53.48 35.31ZM55.73 37.64L55.72 37.63L55.69 37.60Q57.13 37.67 59.11 37.67L59.22 37.78L59.07 37.63Q61.19 37.66 62.45 37.24L62.40 37.19L62.56 37.35Q63.70 36.44 63.62 34.65L63.65 34.68L63.56 34.59Q63.62 33.69 63.24 31.64L63.17 31.57L63.25 31.65Q62.23 26.86 60.14 24.99L60.24 25.10L60.22 25.08Q59.50 23.56 58.17 22.84L58.09 22.75L52.88 20.78L52.71 20.61Q52.52 20.57 52.06 20.34L52.03 20.31L51.93 19.95L51.84 19.51L51.94 19.61Q51.69 18.10 52.83 17.50L52.85 17.52L52.84 17.51Q53.65 16.98 55.36 16.79L55.25 16.68L55.32 16.75Q56.53 16.71 57.68 17.17L57.57 17.05L57.64 17.13Q57.79 17.32 57.98 18.16L57.97 18.14L57.85 18.02Q58.09 17.92 58.58 17.69L58.48 17.59L58.49 17.60Q59.39 18.69 59.50 19.83L59.47 19.80L59.50 19.82Q59.43 19.64 63.08 17.05L63.22 17.19L63.24 17.21Q62.94 14.54 61.49 13.86L61.42 13.79L61.41 13.78Q60.94 12.62 59.49 12.09L59.33 11.93L59.50 12.10Q57.14 11.22 53.94 11.22L53.93 11.21L53.93 11.21Q48.92 11.11 47.05 11.80L47.07 11.81L47.09 11.83Q45.88 12.42 45.77 14.09L45.61 13.93L45.74 14.06Q45.72 14.61 46.14 16.82L46.13 16.81L46.13 16.81Q46.80 20.56 48.97 22.81L48.93 22.77L48.91 22.75Q49.83 24.58 51.33 25.26L51.21 25.15L51.33 25.27Q52.74 25.86 56.66 27.42L56.60 27.35L56.72 27.52L57.33 27.82L57.27 27.80L57.39 27.91Q57.50 28.30 57.54 28.64L57.51 28.61L57.52 28.62Q57.68 32.17 53.76 32.32L53.65 32.21L53.62 32.18Q52.50 32.24 51.20 31.86L51.24 31.90L51.26 31.91Q50.99 31.15 50.99 30.42L51.00 30.44L50.90 30.34Q50.90 30.07 50.94 29.81L51.02 29.88L50.94 29.80Q50.48 29.99 49.68 30.49L49.81 30.62L49.84 30.65Q49.31 29.51 49.47 28.14L49.32 28.00L49.45 28.13Q47.33 29.28 45.73 30.69L45.66 30.62L45.78 30.74Q45.71 31.43 45.78 32.45L45.82 32.49L45.86 32.53Q46.21 34.29 47.50 35.05L47.43 34.97L47.46 35.00Q48.64 36.80 51.20 37.18L51.15 37.14L51.31 37.29Q52.70 37.35 55.63 37.54Z"/><path fill="#333" d="M105.56 14.27L105.39 14.10L105.53 14.23Q106.66 18.72 106.82 21.92L106.81 21.91L106.75 21.85Q107.21 21.85 111.59 21.97L111.68 22.06L111.67 22.05Q114.09 21.96 114.47 18.49L114.48 18.51L114.64 18.67Q114.74 16.82 113.82 15.90L113.79 15.87L113.90 15.98Q112.45 14.91 110.47 14.76L110.47 14.76L110.55 14.83Q107.35 14.64 105.48 14.18ZM106.88 23.81L106.84 23.77L106.85 23.78Q106.98 29.73 105.19 35.67L105.22 35.70L105.30 35.78Q104.00 36.04 101.41 37.07L101.35 37.01L101.39 37.05Q104.19 30.52 103.85 23.06L103.99 23.20L103.94 23.15Q103.55 15.72 100.24 9.21L100.31 9.28L100.37 9.34Q105.20 12.11 112.16 12.11L112.20 12.15L112.17 12.12Q117.85 12.16 118.12 15.70L118.01 15.60L117.98 15.57Q118.03 16.15 117.95 16.76L117.97 16.78L117.92 17.94L117.88 17.90Q117.21 22.00 115.08 23.71L115.05 23.68L115.02 23.65Q114.14 24.25 113.11 24.25L113.25 24.39L110.65 24.38L110.65 24.38Q116.23 31.60 120.76 36.16L120.71 36.12L120.70 36.11Q118.39 35.24 115.46 34.90L115.52 34.95L115.47 34.91Q111.86 31.11 106.95 23.87ZM115.43 35.37L115.44 35.37L115.66 35.29L117.00 36.62L116.97 36.60Q117.53 37.12 118.18 37.73L118.24 37.79L118.20 37.76Q121.73 38.35 125.30 40.21L125.31 40.22L125.25 40.16Q118.48 33.58 113.07 26.65L113.09 26.67L114.79 26.61L114.72 26.55Q117.86 26.60 119.19 22.07L119.09 21.97L119.19 22.07Q119.83 19.82 119.83 17.12L119.83 17.11L119.85 17.13Q119.86 14.86 118.15 14.21L118.15 14.22L118.18 14.24Q117.94 13.74 117.37 13.06L117.53 13.22L117.52 13.20Q115.87 11.78 112.22 11.71L112.20 11.69L112.07 11.56Q104.24 11.46 99.56 8.45L99.52 8.41L99.64 8.53Q103.37 15.35 103.71 23.04L103.64 22.97L103.58 22.91Q103.92 30.86 100.80 37.71L100.92 37.84L100.95 37.86Q102.10 37.19 102.90 36.89L102.96 36.94L101.91 39.17L101.96 39.22Q104.62 38.11 107.29 37.61L107.25 37.57L107.31 37.63Q108.55 32.48 108.74 27.27L108.75 27.28L108.85 27.37Q112.24 32.21 115.40 35.33ZM114.10 17.36L114.22 17.48L114.18 17.44Q114.25 17.74 114.25 18.08L114.33 18.16L114.20 18.60L114.30 18.70Q114.22 19.72 113.53 20.67L113.52 20.66L113.46 20.61Q112.86 21.38 111.95 21.57L112.05 21.67L112.08 21.70Q111.75 21.64 110.15 21.68L110.23 21.75L110.25 21.77Q109.56 21.69 108.73 21.58L108.73 21.58L108.83 21.68Q108.75 20.20 108.41 17.15L108.42 17.17L108.33 17.07Q109.65 17.17 110.33 17.17L110.34 17.18L110.32 17.16Q112.20 17.21 114.15 17.41Z"/><path fill="#111" d="M25.13 35.25L25.13 35.25L25.01 35.13Q21.65 35.35 20.01 34.81L20.03 34.83L20.01 34.81Q18.07 34.20 17.76 30.81L17.67 30.72L19.19 29.73L19.15 29.69Q19.93 29.21 20.69 28.72L20.66 28.69L20.72 28.74Q20.38 30.58 21.98 31.80L22.03 31.85L21.93 31.75Q23.34 32.89 25.48 32.70L25.45 32.67L25.44 32.67Q29.74 32.17 29.55 28.63L29.63 28.71L29.56 28.64Q29.40 26.39 26.78 25.17L26.73 25.12L26.83 25.23Q23.95 24.14 21.59 22.92L21.70 23.03L21.61 22.94Q19.02 21.56 18.03 16.88L17.99 16.84L18.04 16.90Q18.05 16.56 17.94 15.80L17.77 15.64L17.83 15.69Q17.66 14.84 17.74 14.27L17.80 14.33L17.80 14.33Q17.99 12.77 19.24 12.31L19.20 12.26L19.16 12.22Q21.61 11.40 25.60 11.59L25.64 11.63L25.73 11.72Q27.56 11.83 28.36 11.91L28.28 11.83L28.26 11.81Q29.76 12.01 30.82 12.47L30.81 12.45L30.72 12.37Q32.86 12.87 33.09 15.35L33.22 15.47L33.06 15.32Q32.20 16.21 30.00 17.54L29.88 17.43L29.91 17.46Q29.49 14.45 25.11 14.45L25.14 14.47L25.02 14.36Q23.16 14.40 22.17 15.08L22.13 15.04L22.29 15.20Q21.02 15.61 21.25 17.40L21.19 17.34L21.32 17.47Q21.60 19.69 24.57 21.21L24.57 21.21L24.42 21.06Q24.96 21.30 29.45 22.94L29.44 22.93L29.58 23.07Q32.10 24.44 32.52 28.82L32.52 28.83L32.57 28.88Q32.58 29.03 32.65 30.29L32.68 30.32L32.63 30.26Q32.71 33.05 31.15 34.15L31.15 34.15L31.14 34.14Q29.22 35.04 25.03 35.15ZM27.38 37.58L27.38 37.58L27.49 37.68Q28.97 37.80 30.95 37.80L30.91 37.76L30.86 37.70Q32.87 37.63 34.13 37.21L34.24 37.31L34.14 37.22Q35.37 36.40 35.30 34.61L35.30 34.61L35.40 34.71Q35.30 33.66 34.92 31.60L34.84 31.52L34.98 31.66Q33.99 26.91 31.90 25.04L31.85 24.99L31.98 25.12Q31.16 23.51 29.83 22.78L29.77 22.72L24.60 20.78L24.52 20.71Q24.10 20.44 23.64 20.21L23.78 20.35L23.63 19.93L23.52 19.48L23.49 19.45Q23.34 18.04 24.48 17.43L24.62 17.57L24.56 17.51Q25.35 16.97 27.07 16.78L26.96 16.67L27.02 16.73Q28.26 16.72 29.40 17.17L29.32 17.09L29.35 17.12Q29.44 17.25 29.63 18.09L29.53 17.99L29.59 18.05Q29.88 17.99 30.37 17.76L30.27 17.67L30.24 17.63Q31.06 18.64 31.17 19.79L31.15 19.76L31.03 19.64Q31.29 19.78 34.94 17.20L34.79 17.05L34.80 17.05Q34.51 14.40 33.06 13.72L33.08 13.73L33.20 13.85Q32.64 12.61 31.19 12.08L31.03 11.91L31.11 11.99Q28.87 11.23 25.67 11.23L25.70 11.27L25.59 11.16Q20.77 11.24 18.90 11.93L18.91 11.93L18.89 11.92Q17.56 12.38 17.45 14.05L17.42 14.03L17.52 14.12Q17.32 14.49 17.74 16.70L17.70 16.67L17.72 16.69Q18.53 20.58 20.70 22.83L20.63 22.76L20.60 22.72Q21.41 24.45 22.92 25.14L22.86 25.08L22.86 25.08Q24.45 25.85 28.37 27.41L28.29 27.34L28.38 27.46L29.06 27.84L29.08 27.90L29.04 27.85Q29.27 28.35 29.31 28.69L29.17 28.56L29.31 28.70Q29.33 32.11 25.41 32.26L25.42 32.26L25.45 32.30Q24.23 32.25 22.93 31.87L22.95 31.89L23.02 31.96Q22.54 30.99 22.54 30.26L22.65 30.38L22.67 30.40Q22.65 30.11 22.69 29.84L22.74 29.89L22.68 29.83Q22.28 30.08 21.48 30.58L21.51 30.60L21.40 30.49Q21.04 29.53 21.20 28.16L21.09 28.05L21.08 28.04Q19.08 29.31 17.48 30.72L17.40 30.64L17.50 30.74Q17.53 31.53 17.60 32.56L17.49 32.45L17.62 32.58Q17.90 34.27 19.20 35.03L19.18 35.01L19.10 34.93Q20.46 36.90 23.01 37.28L22.91 37.18L22.94 37.21Q24.46 37.40 27.39 37.59Z"/><path fill="#222" d="M174.78 32.97L174.73 32.91L174.67 32.86Q175.07 33.94 175.60 35.96L175.52 35.87L175.64 35.99Q171.24 34.49 166.64 34.76L166.64 34.77L166.78 34.90Q162.22 35.17 158.22 37.15L158.11 37.04L158.14 37.08Q158.42 36.44 158.45 36.51L158.34 36.40L158.40 36.46Q162.12 32.49 166.05 28.08L166.11 28.14L166.03 28.06Q170.47 23.09 171.65 18.41L171.77 18.53L171.58 18.34Q172.09 16.64 170.81 15.46L170.88 15.53L170.86 15.51Q169.53 14.28 167.75 14.43L167.75 14.44L167.77 14.46Q167.43 14.42 167.08 14.42L167.06 14.39L167.10 14.43Q165.54 14.40 164.29 15.31L164.40 15.42L164.31 15.34Q162.99 16.68 163.21 19.34L163.22 19.35L163.25 19.38Q161.38 18.95 160.16 18.50L160.26 18.60L160.22 18.56Q159.98 17.10 159.90 15.65L159.93 15.68L159.97 15.72Q159.92 14.11 160.53 12.97L160.43 12.87L160.59 13.02Q162.22 11.50 165.57 11.50L165.75 11.68L167.43 11.61L167.36 11.54Q169.63 11.56 170.58 11.67L170.71 11.80L170.67 11.76Q175.02 12.19 175.28 14.62L175.33 14.67L175.20 14.54Q175.42 15.25 175.34 16.05L175.21 15.92L175.32 16.03Q175.16 16.56 175.01 17.25L175.00 17.24L175.06 17.29Q173.41 25.38 165.83 32.24L165.83 32.23L165.80 32.21Q167.24 32.08 168.61 32.08L168.64 32.12L168.57 32.05Q171.83 32.07 174.68 32.87ZM174.22 12.15L174.15 12.09L174.15 12.08Q172.47 11.35 170.76 11.28L170.86 11.38L167.49 11.25L167.38 11.14Q162.93 10.87 160.72 11.97L160.73 11.99L160.83 12.08Q159.68 13.37 159.68 15.43L159.63 15.38L159.74 15.49Q159.82 16.25 160.12 19.07L160.08 19.03L160.07 19.01Q160.53 19.17 161.71 19.48L161.83 19.59L161.81 20.60L161.76 20.56Q161.74 21.03 161.82 21.56L161.71 21.45L161.69 21.44Q163.01 21.62 165.49 21.84L165.61 21.96L165.46 21.82Q165.48 21.50 165.48 21.15L165.50 21.17L165.44 21.11Q165.42 19.27 166.64 17.92L166.77 18.05L166.59 17.86Q167.81 16.52 169.60 16.63L169.60 16.63L169.77 16.80Q170.54 16.85 171.30 17.00L171.14 16.84L171.22 16.92Q171.35 17.31 171.43 17.73L171.39 17.70L171.39 17.70Q171.44 18.13 171.37 18.48L171.35 18.45L171.31 18.42Q170.15 23.27 165.74 28.11L165.62 27.99L165.66 28.03Q163.52 30.27 158.08 36.33L158.15 36.39L158.12 36.36Q157.97 37.24 157.62 37.81L157.49 37.68L157.51 37.70Q159.12 36.83 160.64 36.30L160.80 36.46L160.68 36.34Q160.07 37.03 159.12 38.51L159.12 38.51L159.13 38.52Q158.99 38.84 158.88 39.18L158.89 39.20L158.75 39.05Q163.65 37.02 169.13 37.21L169.14 37.22L169.18 37.26Q174.86 37.43 179.43 39.79L179.47 39.82L178.47 37.68L178.47 37.69Q177.75 36.28 177.48 35.48L177.46 35.45L177.45 35.44Q176.77 35.06 175.55 34.65L175.47 34.57L175.53 34.63Q175.37 33.90 174.99 32.53L174.97 32.50L175.09 32.63Q172.78 31.95 170.49 31.76L170.47 31.74L170.57 31.84Q175.25 27.27 176.78 19.01L176.82 19.05L176.89 16.04L177.03 16.18Q176.78 14.22 175.56 13.53L175.57 13.54L175.57 13.58L175.68 13.69Q175.55 13.52 175.48 13.52L175.51 13.55L175.57 13.62Q175.20 12.64 174.10 12.03Z"/></svg>