<svg xmlns="http://www.w3.org/2000/svg" width="200" height="40" viewBox="0,0,200,40"><path d="M14 23 C109 36,81 28,190 30" stroke="#555" fill="none"/><path d="M18 4 C114 9,110 23,190 27" stroke="#777" fill="none"/><path fill="#444" d="M45.46 9.21L45.56 9.32L45.63 9.38Q49.34 11.84 54.10 12.06L54.11 12.07L54.06 12.02Q58.78 12.29 63.04 10.54L62.95 10.45L62.95 10.44Q62.69 10.99 61.93 13.77L62.02 13.86L61.96 13.80Q59.31 14.91 56.34 15.06L56.34 15.07L56.21 14.94Q53.29 15.14 50.39 14.41L50.41 14.42L50.50 14.52Q51.03 17.98 51.22 21.63L51.23 21.64L51.31 21.73Q53.30 21.93 54.90 21.89L54.93 21.92L54.85 21.83Q56.17 21.94 58.57 21.83L58.49 21.74L58.49 21.75Q58.42 22.37 58.42 23.05L58.44 23.07L58.50 24.46L58.58 24.54Q56.19 24.55 51.39 24.62L51.30 24.53L51.21 24.44Q51.28 28.62 50.71 32.62L50.72 32.63L50.74 32.65Q53.31 31.95 56.05 32.06L56.15 32.16L56.00 32.01Q58.85 32.23 61.44 33.07L61.45 33.08L61.42 33.06Q61.39 33.74 61.65 34.51L61.66 34.51L62.16 36.08L62.21 36.12Q58.92 34.74 55.49 34.74L55.60 34.85L55.53 34.77Q50.71 34.83 46.45 37.08L46.51 37.14L46.51 37.14Q48.68 30.18 48.42 23.06L48.44 23.08L48.42 23.06Q48.22 15.97 45.55 9.31ZM45.85 37.70L45.87 37.72L45.87 37.72Q47.17 37.03 47.93 36.69L47.86 36.62L47.92 36.69Q47.82 37.53 47.24 39.05L47.16 38.97L47.15 38.96Q51.79 37.09 56.85 37.35L56.69 37.19L56.69 37.19Q61.99 37.62 65.98 40.32L65.94 40.27L66.04 40.38Q64.69 37.65 64.00 35.71L64.10 35.81L64.17 35.88Q63.19 35.28 62.20 34.94L62.17 34.90L62.08 34.82Q61.64 33.39 61.49 32.59L61.53 32.63L61.55 32.65Q58.49 31.69 55.33 31.69L55.28 31.64L55.36 31.71Q54.14 31.63 53.00 31.75L53.03 31.78L53.10 31.85Q53.24 30.62 53.28 29.40L53.11 29.24L53.21 26.75L53.35 26.89Q55.03 26.66 56.82 26.70L56.98 26.86L56.81 26.69Q58.75 26.85 60.54 27.00L60.56 27.01L60.42 26.88Q60.50 26.08 60.50 25.13L60.46 25.08L60.51 23.23L59.71 23.31L59.57 23.17Q59.30 23.39 58.84 23.39L58.84 23.40L58.80 23.35Q58.74 22.61 58.89 21.31L58.87 21.29L58.89 21.31Q57.32 21.57 56.14 21.61L56.18 21.65L56.10 21.57Q55.23 21.65 53.41 21.58L53.41 21.58L53.32 21.49Q53.28 20.12 53.09 17.30L53.14 17.35L53.03 17.24Q54.17 17.46 55.16 17.46L55.03 17.34L55.06 17.37Q59.83 17.42 63.53 15.52L63.56 15.55L63.48 15.47Q64.14 13.19 65.01 10.98L65.03 11.01L64.93 10.90Q63.63 11.77 62.79 12.12L62.84 12.16L62.76 12.09Q63.15 11.41 63.61 9.85L63.51 9.75L63.58 9.82Q58.86 11.88 53.99 11.57L53.95 11.54L54.02 11.61Q48.74 11.32 44.90 8.46L44.90 8.46L44.98 8.54Q47.72 15.35 48.02 22.97L48.16 23.10L48.07 23.02Q48.48 31.03 45.96 37.81Z"/><path fill="#333" d="M110.01 35.28L109.88 35.15L109.94 35.20Q106.49 35.33 104.85 34.80L104.80 34.75L104.88 34.83Q102.91 34.19 102.61 30.80L102.48 30.68L104.03 29.71L104.06 29.74Q104.74 29.16 105.50 28.67L105.47 28.64L105.53 28.70Q105.23 30.57 106.83 31.78L106.87 31.83L106.76 31.72Q108.13 32.82 110.26 32.63L110.35 32.72L110.18 32.55Q114.67 32.25 114.48 28.71L114.41 28.63L114.45 28.68Q114.30 26.43 111.67 25.21L111.67 25.21L111.77 25.31Q108.75 24.08 106.39 22.86L106.47 22.94L106.50 22.97Q103.93 21.61 102.94 16.93L102.87 16.86L102.95 16.95Q102.76 16.41 102.65 15.65L102.68 15.69L102.61 15.62Q102.52 14.84 102.59 14.27L102.76 14.43L102.64 14.31Q102.79 12.71 104.05 12.25L104.01 12.22L104.04 12.24Q106.44 11.38 110.44 11.57L110.53 11.66L110.42 11.55Q112.28 11.69 113.08 11.77L113.21 11.90L113.07 11.76Q114.62 12.02 115.69 12.48L115.59 12.37L115.72 12.51Q117.78 12.93 118.01 15.41L118.06 15.46L118.02 15.42Q116.90 16.05 114.69 17.38L114.76 17.45L114.68 17.37Q114.41 14.51 110.04 14.51L109.95 14.42L109.93 14.41Q108.07 14.45 107.08 15.14L106.97 15.03L107.14 15.19Q105.81 15.54 106.04 17.33L106.07 17.36L106.13 17.42Q106.39 19.63 109.36 21.15L109.27 21.05L109.37 21.16Q109.86 21.34 114.35 22.98L114.48 23.11L114.29 22.92Q116.99 24.48 117.41 28.85L117.52 28.96L117.44 28.88Q117.47 29.06 117.54 30.32L117.43 30.21L117.50 30.28Q117.57 33.05 116.01 34.15L116.05 34.20L116.04 34.18Q114.09 35.05 109.90 35.17ZM112.38 37.72L112.20 37.54L112.36 37.70Q113.67 37.64 115.65 37.64L115.78 37.77L115.66 37.65Q117.87 37.77 119.13 37.35L119.10 37.32L119.06 37.28Q120.23 36.40 120.16 34.61L120.19 34.65L120.29 34.74Q120.07 33.57 119.69 31.52L119.82 31.65L119.85 31.68Q118.96 27.01 116.86 25.15L116.73 25.01L116.70 24.98Q116.07 23.55 114.74 22.83L114.73 22.83L109.29 20.62L109.43 20.76Q109.00 20.49 108.55 20.26L108.57 20.28L108.38 19.82L108.36 19.46L108.48 19.58Q108.20 18.04 109.34 17.43L109.41 17.50L109.49 17.58Q110.12 16.88 111.83 16.69L111.91 16.77L111.90 16.76Q113.05 16.65 114.19 17.11L114.24 17.16L114.28 17.20Q114.24 17.19 114.43 18.03L114.52 18.12L114.44 18.04Q114.55 17.81 115.05 17.58L115.09 17.63L115.13 17.66Q115.83 18.55 115.94 19.70L115.94 19.69L116.05 19.80Q116.15 19.79 119.80 17.20L119.76 17.16L119.66 17.06Q119.46 14.50 118.01 13.81L118.04 13.84L118.00 13.80Q117.35 12.46 115.90 11.93L115.90 11.93L116.02 12.05Q113.69 11.20 110.50 11.20L110.42 11.13L110.57 11.28Q105.54 11.16 103.68 11.85L103.68 11.85L103.73 11.90Q102.39 12.35 102.28 14.03L102.32 14.07L102.21 13.95Q102.28 14.60 102.70 16.81L102.69 16.80L102.75 16.86Q103.24 20.44 105.41 22.68L105.60 22.87L105.47 22.74Q106.22 24.41 107.73 25.09L107.75 25.11L107.83 25.20Q109.24 25.79 113.16 27.35L113.22 27.41L113.18 27.40L113.94 27.86L114.02 27.97L114.01 27.97Q114.17 28.39 114.21 28.74L114.20 28.73L114.04 28.57Q114.22 32.14 110.30 32.29L110.23 32.22L110.17 32.16Q109.04 32.21 107.75 31.83L107.86 31.94L107.74 31.82Q107.45 31.04 107.45 30.32L107.48 30.35L107.43 30.29Q107.57 30.17 107.61 29.90L107.54 29.83L107.50 29.79Q107.08 30.02 106.28 30.51L106.25 30.48L106.25 30.49Q105.78 29.41 105.93 28.04L105.90 28.00L105.94 28.05Q103.81 29.19 102.22 30.60L102.23 30.61L102.19 30.58Q102.36 31.50 102.43 32.53L102.31 32.41L102.39 32.49Q102.67 34.17 103.96 34.94L103.93 34.90L103.95 34.93Q105.19 36.78 107.74 37.16L107.81 37.22L107.72 37.13Q109.38 37.46 112.31 37.65Z"/><path fill="#222" d="M173.46 23.72L173.46 23.73L167.62 23.86L167.60 23.84Q164.55 23.77 161.62 23.69L161.75 23.82L161.76 23.83Q161.83 30.48 159.77 36.00L159.65 35.88L159.68 35.91Q157.94 36.49 156.19 37.18L156.07 37.06L156.23 37.22Q159.02 31.52 159.02 24.86L158.90 24.74L158.83 24.67Q158.83 16.17 154.71 9.13L154.73 9.15L154.87 9.29Q156.28 9.97 158.75 10.77L158.82 10.84L158.81 10.82Q160.98 15.93 161.52 20.80L161.43 20.72L161.52 20.81Q164.70 21.21 167.56 21.17L167.60 21.22L167.55 21.17Q170.23 21.18 173.54 20.91L173.45 20.83L173.41 20.78Q173.97 16.47 175.72 11.37L175.72 11.37L175.70 11.35Q177.61 10.89 179.85 10.06L179.98 10.18L179.80 10.01Q176.37 16.93 176.37 24.89L176.28 24.79L176.20 24.71Q176.37 31.09 178.73 36.42L178.66 36.35L178.59 36.28Q177.08 35.76 175.02 35.45L174.90 35.33L174.95 35.38Q173.39 30.47 173.51 23.77ZM174.65 35.69L174.79 35.83L174.75 35.79Q175.72 35.89 176.83 36.15L176.88 36.21L176.89 36.22Q177.17 36.88 177.82 38.36L177.86 38.40L177.87 38.41Q181.25 39.40 183.04 40.31L182.90 40.17L182.92 40.19Q178.49 34.05 178.19 25.79L178.14 25.74L178.15 25.75Q177.89 17.76 181.54 10.95L181.52 10.92L180.54 11.46L180.55 11.47Q180.06 11.71 179.45 11.86L179.44 11.85L179.40 11.81Q179.81 11.01 180.65 9.45L180.75 9.54L180.62 9.42Q178.02 10.51 175.40 11.01L175.42 11.03L175.30 10.91Q173.63 15.75 173.17 20.43L173.23 20.49L173.15 20.41Q170.69 20.65 168.26 20.65L168.42 20.82L168.36 20.76Q165.91 20.71 163.40 20.56L163.33 20.48L163.37 20.52Q163.13 17.24 162.03 13.17L162.17 13.32L162.18 13.32Q161.35 13.06 159.90 12.68L159.94 12.72L159.86 12.64Q159.64 11.58 159.18 10.55L159.05 10.42L159.17 10.54Q156.35 9.70 154.06 8.44L154.17 8.55L154.05 8.42Q158.64 15.88 158.64 24.67L158.63 24.66L158.60 24.63Q158.63 31.62 155.51 37.75L155.55 37.79L155.44 37.68Q156.19 37.45 157.53 36.88L157.63 36.98L157.69 37.04Q157.31 37.84 156.51 39.36L156.44 39.30L156.39 39.24Q159.31 38.36 161.55 37.94L161.52 37.90L161.42 37.80Q163.36 32.32 163.55 26.15L163.63 26.23L163.55 26.15Q165.15 26.07 168.34 26.03L168.30 25.99L168.44 26.13Q171.14 25.94 173.05 26.02L173.07 26.04L173.07 26.04Q173.30 31.75 174.63 35.67Z"/><path fill="#222" d="M23.28 21.81L23.29 21.81L23.36 21.89Q25.01 21.90 26.83 21.90L26.98 22.04L26.96 22.03Q28.73 22.01 30.56 21.85L30.56 21.86L30.62 21.91Q30.39 22.44 30.39 23.17L30.36 23.14L30.33 24.45L30.34 24.45Q28.05 24.52 23.29 24.64L23.39 24.73L23.39 24.73Q23.23 30.52 22.09 35.50L22.08 35.49L22.14 35.55Q20.02 36.32 18.53 37.12L18.54 37.13L18.51 37.10Q20.76 30.21 20.49 23.09L20.51 23.11L20.55 23.15Q20.17 15.88 17.50 9.22L17.49 9.20L17.51 9.23Q21.26 11.83 26.02 12.06L26.00 12.04L26.08 12.12Q30.69 12.24 34.84 10.49L34.91 10.56L34.88 10.53Q34.65 11.40 34.42 12.20L34.42 12.20L33.79 13.66L33.88 13.75Q31.24 14.92 28.27 15.07L28.24 15.04L28.14 14.95Q25.21 15.10 22.35 14.37L22.45 14.47L22.44 14.46Q23.01 17.73 23.20 21.73ZM35.41 9.73L35.48 9.80L35.47 9.79Q30.87 11.92 26.00 11.62L26.08 11.70L25.97 11.60Q20.73 11.38 17.00 8.52L17.01 8.54L16.89 8.41Q19.83 15.42 20.13 23.04L20.10 23.00L20.10 23.01Q20.42 30.94 17.91 37.72L17.95 37.76L18.03 37.84Q18.56 37.30 19.93 36.65L20.07 36.80L20.09 36.81Q19.89 37.57 19.32 39.09L19.21 38.98L19.17 38.94Q21.49 37.88 24.39 37.38L24.35 37.35L24.52 37.51Q25.08 32.60 25.27 26.89L25.28 26.90L25.25 26.87Q27.03 26.81 28.86 26.81L28.91 26.86L28.91 26.87Q30.60 26.77 32.43 26.96L32.44 26.97L32.54 27.07Q32.36 26.05 32.36 25.14L32.39 25.17L32.31 23.18L32.41 23.28Q31.61 23.36 30.77 23.36L30.83 23.42L30.85 23.44Q30.84 22.56 30.92 21.53L30.74 21.35L30.84 21.45Q29.55 21.72 28.14 21.72L27.97 21.55L28.00 21.58Q26.68 21.66 25.31 21.63L25.30 21.62L25.20 19.39L25.22 19.41Q25.09 18.21 24.97 17.14L25.00 17.17L25.02 17.19Q26.06 17.32 27.05 17.32L27.05 17.32L27.13 17.39Q31.85 17.36 35.46 15.45L35.32 15.31L35.35 15.34Q35.93 13.59 36.84 10.97L36.85 10.97L36.81 10.94Q35.52 11.78 34.72 12.12L34.81 12.21L34.66 12.06Q34.92 11.29 35.42 9.73Z"/><path fill="#333" d="M138.40 24.08L138.35 24.02L138.40 24.07Q136.58 23.97 135.34 25.39L135.29 25.34L135.43 25.48Q134.15 26.87 133.96 28.77L134.01 28.81L134.01 28.82Q133.64 30.73 134.73 31.70L134.73 31.70L134.72 31.70Q135.97 32.84 138.07 32.72L138.01 32.66L137.96 32.61Q140.09 32.50 141.19 31.81L141.15 31.77L141.17 31.79Q142.37 30.74 142.37 29.18L142.39 29.21L142.42 29.24Q142.38 28.81 142.30 28.43L142.24 28.37L142.20 28.33Q142.25 26.62 141.14 25.27L141.15 25.27L141.26 25.39Q140.10 23.98 138.42 24.09ZM138.03 35.23L138.08 35.29L138.05 35.25Q133.73 35.31 132.32 34.55L132.20 34.43L132.17 34.40Q131.13 33.63 130.94 31.92L131.11 32.09L131.10 32.07Q130.88 31.21 130.92 30.49L131.01 30.57L131.00 30.57Q131.17 29.63 131.17 29.17L131.17 29.18L131.22 29.23Q131.58 26.27 131.73 25.59L131.74 25.60L131.68 25.54Q132.17 23.63 133.01 22.22L133.13 22.34L133.08 22.29Q135.65 17.82 141.59 11.46L141.68 11.55L141.70 11.57Q144.28 11.18 146.49 10.39L146.44 10.34L146.57 10.47Q139.68 17.89 136.48 22.11L136.36 22.00L136.48 22.12Q137.52 21.67 138.82 21.67L138.84 21.70L138.79 21.64Q141.99 21.54 143.52 23.48L143.51 23.47L143.63 23.59Q144.87 25.14 145.21 28.68L145.17 28.63L145.22 28.68Q145.35 29.46 145.35 30.07L145.34 30.06L145.25 29.97Q145.41 33.25 143.20 34.32L143.11 34.23L143.21 34.33Q141.88 34.83 138.00 35.21ZM140.26 37.58L140.25 37.57L140.32 37.64Q141.55 37.53 143.53 37.61L143.66 37.75L143.49 37.58Q145.16 37.69 146.72 36.96L146.87 37.11L146.78 37.02Q147.86 36.20 147.86 34.41L147.83 34.38L147.82 34.37Q147.87 33.92 147.69 32.93L147.68 32.92L147.61 32.85Q147.57 31.98 147.57 31.52L147.61 31.57L147.46 31.42Q146.67 26.79 145.07 24.88L145.10 24.91L145.15 24.96Q144.99 24.76 144.84 24.53L144.85 24.54L144.52 24.29L144.55 24.36L144.54 24.35Q144.01 23.67 143.40 22.72L143.55 22.87L143.51 22.82Q142.55 21.83 140.57 21.37L140.69 21.49L140.53 21.33Q141.74 19.73 144.71 16.03L144.82 16.14L149.07 10.87L148.99 10.79Q147.52 11.76 145.12 12.52L145.14 12.53L145.15 12.55Q146.08 11.57 147.87 9.59L147.72 9.45L147.79 9.52Q145.41 10.60 141.52 11.17L141.56 11.20L141.51 11.15Q135.84 17.10 132.87 22.05L132.72 21.90L132.72 21.90Q131.26 24.47 130.69 30.71L130.76 30.78L130.76 30.78Q130.55 31.22 130.63 32.17L130.73 32.28L130.62 32.16Q130.74 33.97 131.85 34.88L131.86 34.89L131.95 34.98Q132.25 35.05 132.21 35.09L132.25 35.13L132.22 35.10Q132.56 35.97 133.36 36.39L133.50 36.53L133.40 36.43Q134.82 37.09 136.76 37.28L136.79 37.31L136.74 37.25Q136.73 37.24 140.23 37.55ZM140.11 26.43L140.03 26.35L140.01 26.33Q140.62 26.26 141.57 26.75L141.53 26.70L141.54 26.71Q141.96 27.74 141.96 28.39L142.04 28.47L141.86 28.29Q142.12 30.22 141.16 31.21L141.27 31.32L141.14 31.19Q140.21 32.05 138.12 32.36L137.97 32.21L138.12 32.35Q136.61 32.30 136.08 32.03L136.09 32.04L136.04 31.99Q135.77 31.45 135.77 31.15L135.79 31.16L135.86 31.23Q135.64 27.97 138.57 26.68L138.65 26.76L138.50 26.61Q139.41 26.42 140.17 26.49Z"/><path fill="#333" d="M78.07 28.01L77.96 27.89L78.11 28.04Q81.16 27.63 84.36 27.75L84.22 27.60L84.23 27.61Q84.23 25.10 84.23 22.70L84.27 22.74L84.29 22.76Q84.33 20.32 84.52 17.77L84.51 17.77L84.52 17.78Q83.29 19.48 78.08 28.01ZM88.01 35.39L88.00 35.38L87.89 35.27Q86.16 34.91 84.37 34.83L84.38 34.85L84.53 34.99Q84.32 32.62 84.21 30.15L84.18 30.12L84.16 30.10Q78.79 29.87 74.07 31.28L74.05 31.25L74.06 31.26Q74.16 30.75 74.35 29.76L74.44 29.85L74.36 29.78Q76.28 26.74 79.85 20.46L79.71 20.32L79.86 20.47Q82.57 15.41 86.00 11.53L86.08 11.61L86.15 11.68Q86.89 11.36 88.57 11.09L88.72 11.24L88.56 11.08Q86.82 17.68 86.82 24.72L86.68 24.58L86.80 24.71Q86.79 26.18 86.87 27.66L86.92 27.71L88.05 27.66L88.03 27.65Q88.76 27.80 89.36 27.91L89.41 27.96L89.38 27.93Q89.40 28.83 89.67 30.77L89.76 30.86L89.61 30.71Q88.53 30.58 87.04 30.39L86.99 30.34L86.93 30.28Q87.33 32.47 88.02 35.40ZM89.63 27.53L89.59 27.49L89.68 27.58Q89.38 27.40 89.19 27.40L89.29 27.49L88.87 27.46L88.82 27.41Q88.71 25.93 88.71 24.52L88.73 24.54L88.77 24.58Q88.72 18.13 90.78 12.12L90.80 12.14L90.80 12.14Q89.92 12.29 88.47 12.67L88.64 12.84L88.62 12.82Q88.86 12.07 89.32 10.66L89.18 10.52L89.33 10.67Q87.86 10.88 85.81 11.11L85.88 11.18L85.82 11.12Q81.94 15.51 76.73 24.87L76.68 24.83L78.81 21.20L78.78 21.18Q78.45 22.30 78.19 22.87L78.21 22.89L73.77 31.93L73.67 31.82Q74.44 31.80 75.58 31.42L75.59 31.43L75.34 31.56L75.32 31.53Q75.28 32.29 74.97 33.55L74.86 33.43L74.85 33.43Q78.98 32.11 83.81 32.30L83.81 32.30L83.93 32.42Q83.84 33.24 84.03 35.22L84.05 35.24L84.10 35.29Q85.15 35.27 86.21 35.39L86.18 35.35L86.24 35.41Q86.30 36.01 86.57 37.38L86.76 37.57L86.59 37.40Q88.55 37.69 91.56 38.60L91.52 38.56L91.52 38.56Q90.56 36.46 89.65 33.19L89.73 33.26L91.02 33.57L91.03 33.57Q91.82 33.91 92.50 34.25L92.47 34.22L92.52 34.27Q91.77 31.80 91.62 30.13L91.45 29.96L91.63 30.15Q90.99 29.92 89.85 29.70L89.92 29.77L89.82 29.66Q89.59 28.36 89.59 27.49ZM81.61 27.36L81.52 27.27L81.62 27.36Q82.41 26.10 83.97 23.55L83.83 23.41L83.92 23.50Q83.99 24.51 83.95 25.47L83.81 25.33L83.90 25.42Q83.97 26.48 84.00 27.43L83.88 27.30L83.94 27.36Q83.32 27.27 82.74 27.27L82.88 27.41L82.87 27.40Q82.31 27.45 81.70 27.45Z"/></svg>