<svg xmlns="http://www.w3.org/2000/svg" width="200" height="40" viewBox="0,0,200,40"><path d="M11 39 C107 35,119 29,191 22" stroke="#888" fill="none"/><path fill="#222" d="M138.60 14.66L138.60 14.66L137.08 14.81L136.92 14.65Q134.67 14.77 134.44 16.78L134.44 16.78L134.63 16.97Q134.37 17.51 134.41 18.50L134.46 18.55L134.56 18.65Q134.54 20.54 135.80 21.87L135.86 21.93L135.89 21.96Q137.02 23.17 138.93 23.02L138.87 22.97L138.91 23.00Q141.04 22.92 141.80 22.01L141.84 22.04L141.83 22.04Q142.91 21.14 143.17 18.89L143.16 18.88L143.02 18.74Q143.45 16.65 142.19 15.82L142.04 15.66L142.16 15.79Q141.28 14.98 138.61 14.67ZM144.56 23.81L144.59 23.84L143.23 26.07L143.27 26.11Q140.59 30.93 136.83 35.00L136.96 35.13L136.90 35.08Q135.20 35.16 132.49 35.96L132.49 35.96L132.51 35.98Q137.80 29.65 140.96 24.86L140.98 24.88L140.93 24.83Q139.99 25.57 138.35 25.64L138.35 25.64L138.43 25.72Q135.35 25.80 133.83 23.82L133.71 23.71L133.75 23.75Q132.57 22.18 131.46 17.61L131.54 17.69L131.51 17.66Q131.41 17.10 131.26 16.17L131.25 16.16L131.35 16.26Q131.22 15.35 131.22 14.90L131.16 14.83L131.18 14.85Q131.18 13.06 132.25 12.46L132.27 12.48L132.30 12.50Q133.46 11.69 135.32 11.69L135.28 11.65L135.36 11.72Q138.44 11.60 138.44 11.60L138.49 11.65L138.55 11.72Q140.64 11.67 141.90 11.86L141.88 11.85L142.05 12.02Q144.12 12.22 145.04 12.72L145.09 12.77L144.96 12.64Q146.41 13.48 146.60 15.23L146.50 15.13L146.48 15.11Q146.64 15.50 146.45 18.16L146.45 18.17L146.31 18.03Q146.05 20.28 145.82 21.11L145.72 21.02L145.74 21.04Q145.43 22.52 144.67 23.93ZM146.61 26.36L146.61 26.36L146.47 26.22Q147.62 24.17 148.15 19.87L147.96 19.68L147.97 19.69Q148.40 17.64 148.36 16.77L148.24 16.64L148.35 16.76Q148.26 14.84 147.08 13.92L147.10 13.95L146.73 13.77L146.73 13.77Q146.45 12.99 145.54 12.34L145.63 12.44L145.55 12.35Q143.26 11.36 138.46 11.21L138.40 11.15L138.50 11.24Q137.58 11.28 135.14 11.28L135.08 11.21L135.19 11.33Q133.35 11.24 131.87 11.92L131.82 11.88L131.97 12.03Q130.74 12.74 130.81 14.56L130.72 14.46L130.78 14.53Q130.92 15.39 131.11 17.41L131.11 17.41L131.11 17.41Q131.83 20.14 132.09 20.98L132.03 20.92L132.10 20.99Q132.69 22.87 133.64 24.16L133.65 24.18L133.67 24.20Q133.79 24.40 134.18 24.78L134.26 24.86L134.14 24.74Q134.50 25.29 135.14 26.20L135.05 26.11L135.13 26.19Q136.55 27.50 138.49 27.69L138.56 27.76L138.66 27.85Q136.57 30.34 135.01 32.24L135.19 32.42L131.44 36.66L131.47 36.69Q133.65 35.86 135.29 35.52L135.28 35.51L135.35 35.58Q134.71 36.58 133.15 38.30L133.00 38.14L133.15 38.29Q136.10 37.25 139.22 37.21L139.24 37.23L139.25 37.24Q141.49 34.56 145.83 27.33L145.96 27.46L145.86 27.44L145.82 27.40Q146.17 26.76 146.52 26.27ZM140.44 16.96L140.47 16.99L140.52 17.03Q141.16 16.95 141.61 17.06L141.49 16.94L141.64 17.09Q142.16 17.08 142.54 17.19L142.59 17.24L142.61 17.26Q142.82 17.74 142.90 18.16L142.83 18.09L142.71 17.96Q142.84 18.44 142.73 18.82L142.84 18.94L142.72 18.82Q142.81 20.66 141.63 21.76L141.59 21.73L141.59 21.72Q140.53 22.65 138.90 22.61L139.00 22.71L139.00 22.71Q138.45 22.58 136.92 22.27L137.04 22.39L137.08 22.43Q136.86 21.56 136.86 20.84L136.82 20.80L136.69 20.67Q136.72 20.51 136.72 20.28L136.62 20.18L136.80 20.36Q136.76 18.11 139.04 17.31L138.98 17.25L138.99 17.26Q139.68 17.03 140.52 17.03Z"/><path d="M4 23 C107 30,96 5,180 15" stroke="#666" fill="none"/><path fill="#444" d="M164.03 14.34L163.97 14.27L164.07 14.37Q164.90 18.59 165.05 22.17L164.96 22.08L164.96 22.08Q166.12 22.21 167.19 22.21L167.29 22.31L169.48 22.30L169.49 22.31Q170.41 22.16 171.28 20.75L171.27 20.74L171.41 20.88Q172.04 19.61 172.16 18.43L172.18 18.45L172.17 18.44Q172.65 15.53 168.42 15.03L168.36 14.98L168.34 14.95Q166.63 14.88 164.00 14.31ZM165.01 24.87L165.13 24.99L165.04 24.90Q165.07 31.21 163.92 35.62L163.96 35.66L163.91 35.61Q162.40 35.96 160.07 37.03L160.14 37.09L160.00 36.96Q162.47 30.40 162.20 23.13L162.28 23.20L162.15 23.08Q161.92 15.76 159.14 9.33L159.09 9.28L159.08 9.27Q163.23 12.05 169.47 12.05L169.55 12.13L169.46 12.04Q175.54 12.06 175.69 15.53L175.68 15.51L175.76 15.60Q175.78 17.98 174.79 20.64L174.77 20.62L174.72 20.57Q174.34 21.72 173.39 22.93L173.44 22.99L173.51 23.05Q172.06 24.53 169.51 24.80L169.56 24.85L169.48 24.78Q167.39 24.97 165.15 25.01ZM171.27 27.24L171.19 27.17L171.25 27.23Q175.29 27.35 176.55 22.55L176.62 22.62L176.53 22.53Q177.54 18.93 177.39 16.92L177.43 16.96L177.48 17.01Q177.23 15.35 176.47 14.36L176.57 14.47L176.50 14.39Q176.28 14.18 175.79 13.95L175.68 13.85L175.72 13.88Q175.80 13.81 175.19 13.05L175.17 13.03L175.12 12.98Q173.58 11.66 169.62 11.66L169.55 11.59L169.59 11.63Q162.72 11.66 158.50 8.50L158.47 8.47L158.54 8.54Q161.63 15.55 161.90 23.01L161.98 23.10L161.98 23.10Q162.29 30.79 159.62 37.87L159.61 37.86L159.63 37.88Q160.69 37.22 161.68 36.84L161.65 36.81L161.11 37.80L161.29 37.97Q160.97 38.42 160.71 38.99L160.73 39.01L160.84 39.12Q163.19 38.01 166.08 37.48L166.02 37.41L166.17 37.57Q166.93 31.97 167.01 27.25L166.92 27.16L167.05 27.29Q168.16 27.22 169.15 27.22L168.99 27.06L169.15 27.22Q170.39 27.13 171.19 27.17ZM170.32 17.31L170.26 17.25L170.33 17.32Q170.68 17.18 171.67 17.41L171.71 17.45L171.78 17.51Q171.95 17.80 171.99 18.11L171.84 17.95L171.95 18.07Q171.93 18.27 171.85 18.54L171.77 18.46L171.90 18.59Q171.79 19.81 171.06 20.68L171.10 20.72L171.11 20.73Q170.49 21.75 169.46 21.94L169.33 21.81L169.37 21.84Q168.75 21.95 167.11 21.95L167.07 21.90L167.08 21.91Q167.07 19.66 166.84 17.30L166.74 17.19L168.51 17.30L168.49 17.27Q169.30 17.24 170.17 17.16Z"/><path fill="#333" d="M102.22 9.40L102.22 9.40L102.12 9.30Q105.96 11.88 110.71 12.11L110.73 12.12L110.63 12.03Q115.32 12.26 119.59 10.51L119.58 10.51L119.53 10.46Q119.24 10.96 118.48 13.74L118.51 13.78L118.55 13.82Q115.74 14.78 112.78 14.93L112.92 15.07L112.82 14.97Q109.79 15.07 106.90 14.35L107.08 14.53L107.03 14.48Q107.69 18.07 107.88 21.72L107.81 21.65L107.80 21.65Q109.94 21.99 111.54 21.96L111.57 21.99L111.43 21.85Q112.67 21.87 115.07 21.75L115.17 21.85L115.12 21.81Q115.10 22.47 115.10 23.16L115.10 23.16L115.07 24.46L115.07 24.46Q112.70 24.48 107.90 24.56L107.95 24.61L107.92 24.58Q107.80 28.57 107.23 32.57L107.21 32.55L107.36 32.70Q109.97 32.04 112.72 32.15L112.72 32.15L112.69 32.13Q115.35 32.16 117.94 33.00L118.05 33.11L118.02 33.08Q118.08 33.87 118.35 34.63L118.28 34.56L118.71 36.06L118.84 36.19Q115.62 34.87 112.19 34.87L112.13 34.81L112.15 34.83Q107.33 34.88 103.07 37.13L102.99 37.05L102.93 36.99Q105.38 30.30 105.12 23.18L104.97 23.04L104.97 23.04Q104.81 15.99 102.14 9.32ZM102.59 37.87L102.50 37.77L102.42 37.69Q103.74 37.03 104.50 36.69L104.58 36.77L104.55 36.75Q104.29 37.43 103.72 38.95L103.80 39.04L103.86 39.09Q108.31 37.04 113.37 37.31L113.35 37.28L113.25 37.18Q118.61 37.67 122.61 40.38L122.50 40.26L122.52 40.28Q121.30 37.69 120.61 35.75L120.63 35.77L120.63 35.77Q119.69 35.20 118.70 34.86L118.60 34.77L118.72 34.88Q118.40 33.58 118.25 32.78L118.22 32.75L118.15 32.68Q115.07 31.69 111.91 31.69L111.97 31.76L111.98 31.77Q110.81 31.73 109.67 31.85L109.57 31.75L109.60 31.78Q109.75 30.56 109.79 29.34L109.78 29.33L109.85 26.81L109.88 26.85Q111.77 26.84 113.56 26.87L113.44 26.75L113.37 26.68Q115.37 26.89 117.16 27.04L117.06 26.94L117.10 26.98Q117.02 26.03 117.02 25.08L116.92 24.97L117.02 23.18L116.22 23.24L116.26 23.29Q115.86 23.38 115.40 23.38L115.29 23.27L115.39 23.37Q115.40 22.70 115.56 21.40L115.48 21.32L115.51 21.36Q113.94 21.62 112.76 21.66L112.68 21.57L112.70 21.59Q111.75 21.59 109.92 21.51L109.87 21.47L109.95 21.55Q109.88 20.14 109.69 17.32L109.71 17.35L109.69 17.33Q110.69 17.41 111.68 17.41L111.69 17.42L111.69 17.43Q116.48 17.50 120.18 15.59L120.01 15.43L120.19 15.61Q120.68 13.17 121.56 10.96L121.48 10.88L121.63 11.03Q120.26 11.83 119.42 12.17L119.34 12.10L119.35 12.11Q119.74 11.42 120.19 9.86L120.07 9.74L120.08 9.75Q115.41 11.86 110.54 11.55L110.60 11.61L110.62 11.63Q105.37 11.37 101.53 8.52L101.42 8.41L101.55 8.54Q104.34 15.40 104.64 23.01L104.68 23.05L104.62 23.00Q104.98 30.97 102.47 37.74Z"/><path fill="#222" d="M51.01 35.38L50.99 35.35L51.09 35.46Q46.99 35.66 46.00 33.34L45.92 33.26L45.96 33.29Q46.79 32.41 48.35 30.62L48.22 30.49L48.34 30.61Q48.68 32.47 51.69 32.59L51.73 32.63L51.87 32.77Q55.13 32.72 56.76 31.38L56.74 31.37L56.89 31.51Q58.17 29.79 58.10 27.08L58.12 27.10L58.19 27.18Q57.89 21.96 53.09 22.19L53.25 22.35L53.13 22.23Q50.41 22.48 48.66 23.74L48.64 23.72L48.22 23.45L48.11 23.41L48.07 23.38Q48.38 20.18 48.27 17.44L48.31 17.48L48.37 17.55Q48.25 14.91 47.90 11.60L47.83 11.52L47.93 11.63Q51.53 12.52 55.34 12.41L55.26 12.33L55.35 12.42Q59.18 12.37 62.76 11.11L62.68 11.03L62.22 12.67L62.22 12.67Q61.92 13.43 61.72 14.27L61.64 14.18L61.69 14.23Q58.49 15.18 54.61 15.18L54.62 15.19L54.55 15.13Q53.14 15.16 51.65 15.00L51.65 15.00L51.69 15.04Q51.70 15.82 51.36 20.27L51.22 20.13L51.34 20.25Q52.14 19.75 54.19 19.60L54.26 19.67L54.24 19.65Q57.86 19.76 59.31 21.44L59.40 21.53L59.27 21.40Q60.75 23.03 61.01 26.88L60.90 26.77L60.97 26.83Q61.28 31.07 60.06 33.09L60.11 33.13L59.97 32.99Q58.03 34.98 54.72 35.20L54.75 35.24L54.76 35.25Q53.64 35.19 50.98 35.35ZM57.04 37.64L57.11 37.71L57.13 37.72Q60.40 37.65 62.30 36.54L62.48 36.72L62.36 36.60Q63.44 35.17 63.44 33.07L63.41 33.04L63.33 32.96Q63.35 29.90 62.40 25.79L62.36 25.75L62.50 25.89Q61.96 23.98 60.74 22.57L60.85 22.68L60.83 22.69L60.55 22.34L60.36 22.30L60.23 22.17Q60.05 21.58 59.41 20.89L59.33 20.82L59.44 20.97L59.39 20.91Q57.87 19.25 54.18 19.25L54.06 19.13L53.97 19.30L53.92 19.25Q53.91 18.59 54.10 17.49L54.06 17.45L54.08 17.47Q59.13 17.65 63.17 16.01L63.19 16.03L63.10 15.95Q63.48 14.50 64.43 11.68L64.57 11.82L62.42 12.72L62.41 12.71Q62.91 11.68 63.40 10.54L63.36 10.50L63.34 10.48Q59.51 11.93 55.39 12.01L55.35 11.97L55.35 11.96Q51.20 12.04 47.24 10.93L47.30 10.99L47.32 11.01Q47.91 15.33 47.91 19.75L48.04 19.88L48.06 19.90Q48.03 21.78 47.92 23.68L47.85 23.61L47.93 23.69Q48.15 23.84 48.72 24.14L48.65 24.07L48.69 24.11Q49.12 23.97 49.77 23.63L49.76 23.62L49.77 23.63Q49.74 24.40 49.51 25.92L49.33 25.74L49.44 25.86Q49.86 26.04 50.27 26.27L50.28 26.27L50.23 26.22Q53.09 24.55 54.96 24.55L54.87 24.46L54.90 24.49Q56.15 24.41 57.33 25.06L57.42 25.15L57.42 25.15Q57.68 26.10 57.72 27.05L57.72 27.05L57.82 27.15Q57.77 29.61 56.74 30.72L56.88 30.85L56.81 30.79Q55.47 32.03 53.22 32.26L53.14 32.17L53.25 32.29Q52.23 32.30 51.55 32.22L51.54 32.22L51.62 32.29Q50.75 32.15 49.99 31.80L50.05 31.87L49.91 31.53L49.85 31.71L49.78 31.63Q49.13 31.29 48.60 29.96L48.51 29.87L48.51 29.87Q47.19 31.29 45.51 33.42L45.47 33.38L45.39 33.30Q45.89 34.14 46.73 35.09L46.65 35.01L46.69 35.05Q47.74 36.87 50.56 37.36L50.57 37.37L50.48 37.28Q51.63 37.48 56.99 37.59Z"/><path fill="#222" d="M26.93 35.05L27.08 35.20L24.89 35.29L24.98 35.38Q24.49 35.35 23.52 35.41L23.53 35.42L23.54 35.43Q22.51 35.43 22.01 35.43L21.95 35.36L22.10 35.51Q20.31 35.36 19.28 34.52L19.30 34.54L19.38 34.62Q20.09 33.43 21.73 31.30L21.84 31.41L21.73 31.30Q23.04 32.92 25.25 32.69L25.34 32.77L25.32 32.76Q26.18 32.59 26.83 31.95L26.71 31.83L26.71 31.82Q27.47 31.29 27.35 30.41L27.25 30.31L27.30 30.36Q27.30 25.87 27.38 21.30L27.20 21.12L27.30 21.23Q27.33 16.61 27.86 12.00L27.90 12.03L27.83 11.97Q29.76 11.76 31.89 10.74L32.04 10.88L31.91 10.76Q30.16 17.61 30.16 24.84L30.16 24.84L29.98 24.67Q30.08 28.31 30.54 31.81L30.61 31.88L30.45 31.72Q30.63 32.17 30.63 32.51L30.54 32.42L30.54 32.42Q30.70 33.15 30.47 33.68L30.40 33.62L30.30 33.51Q29.89 34.93 27.08 35.20ZM31.99 38.02L32.00 38.02L32.28 37.97L32.56 37.83L32.73 37.62L32.78 37.66Q33.20 37.52 33.28 37.40L33.13 37.25L33.29 37.42Q33.37 36.12 33.10 35.13L33.04 35.07L33.07 35.10Q31.75 29.33 32.02 22.97L32.07 23.02L31.97 22.92Q32.38 16.97 34.16 11.07L34.12 11.03L34.14 11.05Q33.16 11.59 31.90 12.31L31.94 12.35L31.97 12.38Q32.17 11.62 32.59 10.10L32.51 10.03L32.63 10.15Q30.04 11.40 27.38 11.71L27.47 11.80L27.42 11.74Q27.08 16.17 27.00 21.12L26.93 21.05L26.97 21.08Q26.96 27.05 27.04 30.48L26.99 30.43L26.87 30.31Q27.02 32.17 25.27 32.32L25.15 32.20L25.20 32.26Q23.52 32.40 21.85 30.77L21.93 30.85L21.91 30.84Q19.87 33.36 18.92 34.92L18.76 34.76L18.90 34.91Q19.54 35.55 20.57 35.78L20.58 35.79L20.54 35.75Q20.53 35.96 20.27 36.19L20.15 36.08L20.22 36.14Q21.60 37.03 23.58 37.29L23.63 37.35L23.65 37.37Q23.94 37.31 27.23 37.62L27.20 37.59L27.28 37.67Q30.53 37.93 31.90 37.93Z"/><path fill="#333" d="M78.00 27.93L78.10 28.04L78.10 28.03Q81.17 27.64 84.37 27.76L84.23 27.61L84.39 27.78Q84.29 25.16 84.29 22.76L84.29 22.76L84.21 22.69Q84.21 20.21 84.40 17.66L84.36 17.62L84.41 17.67Q83.16 19.35 77.94 27.88ZM87.98 35.36L87.89 35.27L88.00 35.38Q86.33 35.08 84.54 35.01L84.39 34.85L84.36 34.82Q84.30 32.59 84.18 30.12L84.15 30.08L84.10 30.04Q78.76 29.84 74.04 31.25L74.00 31.21L74.02 31.22Q74.15 30.75 74.34 29.76L74.39 29.80L74.31 29.73Q76.16 26.63 79.74 20.34L79.87 20.47L79.78 20.38Q82.71 15.55 86.13 11.66L86.07 11.60L86.01 11.54Q86.98 11.45 88.66 11.18L88.60 11.12L88.70 11.22Q86.84 17.70 86.84 24.74L86.68 24.59L86.78 24.69Q86.65 26.04 86.72 27.52L86.74 27.53L88.19 27.81L88.20 27.81Q88.68 27.72 89.29 27.84L89.31 27.86L89.26 27.81Q89.52 28.94 89.78 30.88L89.65 30.75L89.77 30.87Q88.48 30.54 87.00 30.35L87.09 30.43L87.06 30.41Q87.19 32.33 87.88 35.26ZM89.66 27.57L89.66 27.56L89.64 27.54Q89.49 27.51 89.30 27.51L89.17 27.38L88.86 27.45L88.82 27.41Q88.82 26.04 88.82 24.63L88.72 24.53L88.76 24.56Q88.75 18.16 90.80 12.15L90.73 12.07L90.80 12.15Q90.11 12.48 88.66 12.86L88.54 12.74L88.60 12.80Q88.72 11.93 89.18 10.52L89.30 10.64L89.31 10.66Q87.96 10.98 85.91 11.21L85.98 11.28L85.87 11.17Q82.08 15.64 76.86 25.01L76.84 24.98L78.93 21.33L78.89 21.29Q78.46 22.30 78.19 22.87L78.27 22.95L73.71 31.87L73.74 31.89Q74.39 31.74 75.53 31.36L75.50 31.33L75.44 31.66L75.34 31.56Q75.28 32.29 74.97 33.55L74.91 33.49L74.87 33.45Q78.95 32.08 83.79 32.27L83.81 32.29L83.89 32.37Q83.97 33.37 84.16 35.35L84.12 35.31L84.11 35.30Q85.12 35.25 86.19 35.36L86.16 35.33L86.33 35.50Q86.30 36.01 86.57 37.38L86.63 37.44L86.74 37.55Q88.52 37.65 91.52 38.56L91.68 38.72L91.59 38.63Q90.62 36.52 89.71 33.25L89.62 33.16L91.05 33.60L91.11 33.66Q91.78 33.87 92.47 34.22L92.51 34.26L92.41 34.15Q91.77 31.81 91.62 30.13L91.63 30.15L91.58 30.09Q91.07 30.00 89.92 29.77L89.89 29.74L89.86 29.70Q89.64 28.42 89.64 27.54ZM81.68 27.43L81.57 27.31L81.59 27.33Q82.31 26.00 83.87 23.45L83.99 23.57L83.98 23.56Q83.94 24.47 83.90 25.42L83.88 25.40L83.79 25.31Q83.86 26.37 83.90 27.32L83.91 27.34L83.88 27.30Q83.26 27.22 82.69 27.22L82.85 27.37L82.78 27.31Q82.30 27.44 81.69 27.44Z"/></svg>