<svg xmlns="http://www.w3.org/2000/svg" width="200" height="40" viewBox="0,0,200,40"><path d="M16 31 C118 7,99 29,198 22" stroke="#555" fill="none"/><path fill="#333" d="M62.43 18.19L62.53 18.29L62.45 18.20Q60.87 14.27 54.67 14.46L54.59 14.38L54.69 14.48Q50.13 14.45 48.15 15.90L48.24 15.99L48.31 16.06Q45.73 17.63 45.73 21.74L45.77 21.78L45.75 23.62L45.85 23.72Q45.73 32.44 54.75 32.44L54.88 32.57L54.92 32.60Q56.81 32.44 58.30 31.64L58.48 31.83L58.45 31.80Q60.17 30.66 60.02 28.79L60.04 28.82L60.14 28.91Q59.88 26.75 56.18 25.84L56.26 25.92L54.16 25.75L54.16 25.76Q53.34 25.88 52.39 25.92L52.38 25.91L52.24 25.78Q52.30 24.89 52.26 22.98L52.36 23.08L52.24 22.96Q59.87 22.93 64.05 22.59L64.20 22.73L64.08 22.62Q64.15 23.57 64.15 24.36L64.19 24.40L64.00 24.22Q64.08 25.09 64.12 25.89L64.03 25.81L64.08 25.85Q63.07 25.94 63.07 25.94L63.11 25.99L63.00 25.88Q61.62 25.87 62.00 25.87L61.94 25.80L61.94 25.81Q63.05 27.45 63.43 29.43L63.44 29.44L63.44 29.44Q63.67 30.28 63.67 30.74L63.52 30.58L63.63 30.70Q63.63 35.34 54.84 35.34L54.78 35.29L54.85 35.35Q47.75 35.37 45.16 33.28L45.13 33.25L45.18 33.29Q43.18 30.92 43.18 25.86L43.11 25.78L43.07 25.75Q43.03 24.64 42.88 21.94L43.01 22.06L43.01 22.06Q42.88 19.73 42.92 18.36L42.77 18.21L42.93 18.37Q43.06 15.53 44.43 13.93L44.37 13.87L44.39 13.89Q46.91 11.81 51.79 11.62L51.80 11.63L54.43 11.52L54.39 11.48Q57.54 11.43 60.96 11.85L60.85 11.74L61.03 11.91Q64.80 12.41 65.75 15.64L65.64 15.54L65.58 15.47Q64.69 16.52 62.59 18.35ZM63.92 20.47L64.03 20.47L63.98 20.42Q65.18 19.33 67.04 17.35L67.05 17.36L67.16 17.47Q66.82 16.48 65.83 14.77L65.79 14.74L65.78 14.72Q64.61 12.06 60.80 11.42L60.72 11.34L60.77 11.39Q58.75 11.38 54.45 11.08L54.44 11.07L51.78 11.23L51.73 11.18Q46.46 11.28 43.87 13.26L43.93 13.31L43.91 13.30Q42.55 14.94 42.43 18.03L42.52 18.11L42.45 18.04Q42.56 17.69 42.78 23.17L42.74 23.13L42.78 23.17Q42.66 24.38 42.73 27.12L42.74 27.12L42.89 27.28Q42.93 31.58 44.68 33.52L44.68 33.52L44.72 33.56Q45.05 34.35 45.93 35.22L46.06 35.36L46.07 35.37Q48.98 37.25 54.50 37.59L54.37 37.46L57.25 37.64L57.35 37.73Q58.96 37.87 60.98 37.75L60.83 37.61L60.84 37.61Q62.44 37.69 64.54 37.16L64.38 37.00L64.41 37.03Q66.38 36.57 66.34 34.24L66.44 34.34L66.39 34.29Q66.36 33.01 65.30 30.23L65.39 30.32L65.39 30.33Q65.05 29.38 64.52 28.58L64.47 28.52L64.46 28.51Q65.12 28.61 66.30 28.80L66.25 28.75L66.28 28.78Q65.99 25.18 66.03 24.49L65.91 24.37L65.95 24.41Q65.67 24.51 65.25 24.47L65.14 24.36L65.26 24.48Q64.83 24.39 64.45 24.47L64.43 24.45L64.38 24.40Q64.47 23.38 64.54 22.32L64.52 22.30L64.50 22.28Q58.27 22.82 51.99 22.71L51.87 22.59L51.98 22.70Q51.99 23.58 51.99 24.50L52.08 24.59L51.92 26.18L51.98 26.24Q52.47 26.35 52.89 26.32L52.86 26.28L52.80 26.23Q53.11 26.11 53.56 26.11L53.71 26.25L53.67 26.21Q53.69 26.70 53.73 27.19L53.62 27.08L53.65 27.11Q53.63 27.55 53.59 28.04L53.76 28.21L53.59 28.04Q54.76 28.15 55.79 28.11L55.85 28.17L55.68 28.00Q56.72 28.01 57.75 28.05L57.74 28.04L57.75 28.05Q58.77 28.27 59.65 28.65L59.79 28.79L59.63 28.68L59.70 28.74Q59.88 30.29 58.20 31.21L58.14 31.14L58.30 31.30Q56.65 32.24 54.94 32.24L54.90 32.20L54.78 32.09Q50.95 32.10 48.51 30.35L48.57 30.41L48.57 30.40Q47.70 28.47 47.85 25.91L47.73 25.80L47.84 25.91Q48.14 21.10 49.99 19.11L49.94 19.06L50.00 19.12Q51.68 16.96 56.36 16.65L56.36 16.65L56.48 16.77Q60.09 16.50 62.04 18.29L61.94 18.19L62.01 18.27Q62.20 18.49 62.32 18.68L62.25 18.62L62.29 18.54L62.43 18.68Q62.89 19.26 63.46 20.36L63.46 20.36L63.96 20.52Z"/><path fill="#222" d="M147.16 35.41L147.19 35.43L147.10 35.34Q144.09 31.42 141.47 22.78L141.50 22.81L141.58 22.89Q140.78 20.61 139.98 18.47L140.16 18.65L137.10 27.25L137.22 27.36Q135.29 32.17 132.89 35.41L132.89 35.40L132.89 35.40Q132.15 35.58 130.51 35.73L130.43 35.65L130.53 35.75Q130.55 34.47 130.55 33.22L130.59 33.26L130.60 33.27Q130.55 27.20 127.81 21.08L127.93 21.19L127.84 21.11Q124.73 14.23 118.87 9.24L118.82 9.20L118.98 9.36Q120.96 9.89 123.32 10.42L123.47 10.57L123.43 10.53Q132.10 18.98 133.40 29.94L133.38 29.92L133.28 29.82Q135.03 26.62 136.47 21.25L136.45 21.23L136.46 21.23Q138.49 13.78 138.98 12.37L138.93 12.32L141.18 12.33L141.17 12.32Q141.93 14.42 142.58 16.74L142.63 16.79L143.68 21.03L143.68 21.04Q145.37 26.60 146.78 29.84L146.65 29.71L146.74 29.80Q148.40 18.18 156.32 10.83L156.32 10.83L156.41 10.92Q157.87 10.52 160.84 9.87L160.86 9.89L160.87 9.90Q155.39 14.05 152.34 20.18L152.34 20.17L152.35 20.18Q149.38 26.54 149.38 33.32L149.44 33.37L149.40 33.34Q149.37 34.41 149.45 35.55L149.42 35.53L148.27 35.40L148.37 35.51Q147.71 35.38 147.14 35.38ZM153.47 38.36L153.36 38.25L153.48 38.37Q152.05 34.62 152.17 30.74L152.26 30.83L152.32 30.89Q152.49 19.19 161.86 10.93L161.98 11.05L161.96 11.03Q161.09 11.34 159.15 11.87L159.10 11.82L159.06 11.79Q159.98 10.91 161.88 9.12L161.83 9.07L161.88 9.12Q159.16 9.82 156.23 10.32L156.40 10.50L156.37 10.46Q148.73 17.44 146.82 26.92L146.99 27.09L146.84 26.93Q146.31 25.34 143.46 13.88L143.52 13.94L143.51 13.93Q143.05 13.97 142.10 13.97L142.19 14.06L141.83 12.94L141.88 12.99Q141.68 12.37 141.45 11.88L141.50 11.93L138.54 11.86L138.67 11.99Q137.82 14.41 136.54 19.53L136.44 19.42L136.38 19.37Q135.09 24.47 134.10 26.94L134.29 27.13L134.20 27.05Q132.72 19.25 127.16 12.93L127.06 12.82L127.10 12.87Q126.67 12.85 125.71 12.66L125.65 12.60L125.70 12.65Q124.89 11.72 123.33 10.08L123.38 10.14L123.36 10.12Q119.89 9.23 117.72 8.43L117.85 8.56L117.87 8.58Q123.37 13.09 126.64 19.30L126.74 19.40L126.76 19.42Q130.24 26.05 130.24 33.06L130.25 33.07L130.11 32.93Q130.22 34.60 130.03 36.20L130.06 36.23L130.07 36.24Q130.31 36.26 130.77 36.16L130.64 36.03L130.68 36.07Q131.18 36.02 131.41 36.02L131.44 36.05L131.33 36.96L131.47 37.11Q131.47 37.56 131.54 38.10L131.45 38.00L131.53 38.08Q132.55 37.89 134.84 37.74L134.90 37.80L134.92 37.82Q138.41 32.29 141.16 22.89L141.32 23.05L141.27 23.00Q144.02 31.76 146.99 35.72L146.93 35.67L147.06 35.80Q147.53 35.81 148.37 35.93L148.39 35.95L148.40 35.95Q149.23 36.97 150.29 38.04L150.23 37.97L150.14 37.89Q150.99 38.01 153.39 38.28Z"/><path fill="#333" d="M107.73 24.72L107.68 24.67L107.58 24.57Q107.59 28.84 106.87 32.99L106.86 32.98L106.93 33.05Q109.14 32.44 112.22 32.33L112.31 32.41L112.27 32.37Q113.51 32.47 114.58 31.46L114.70 31.59L114.59 31.48Q115.67 30.49 115.67 29.15L115.78 29.27L115.70 29.18Q115.65 28.82 115.61 28.56L115.62 28.57L115.78 28.72Q115.51 25.68 113.26 24.84L113.30 24.88L113.32 24.89Q112.49 24.52 111.80 24.60L111.93 24.73L111.95 24.74Q110.82 24.60 109.79 24.64L109.85 24.70L109.69 24.54Q108.64 24.60 107.62 24.60ZM106.49 14.26L106.47 14.24L106.54 14.31Q107.32 17.53 107.58 21.90L107.53 21.84L107.64 21.96Q109.13 22.12 111.79 22.15L111.68 22.04L111.69 22.04Q114.63 22.09 114.97 18.55L115.07 18.65L115.02 18.60Q115.10 16.56 113.70 15.72L113.71 15.73L113.77 15.80Q112.84 15.24 108.42 14.59L108.40 14.57L108.42 14.59Q107.42 14.50 106.50 14.27ZM102.81 37.12L102.79 37.09L102.73 37.03Q105.35 30.52 105.08 23.13L104.96 23.01L105.02 23.07Q104.69 15.74 101.76 9.27L101.82 9.33L101.67 9.17Q105.64 11.89 111.86 12.13L111.85 12.12L111.78 12.05Q117.96 12.25 118.30 15.15L118.28 15.13L118.38 15.22Q118.77 18.05 117.36 20.72L117.39 20.74L117.24 20.60Q116.46 22.07 114.87 22.75L115.01 22.89L114.91 22.79Q118.51 23.42 118.74 28.79L118.88 28.94L118.74 28.80Q118.94 30.03 118.87 31.43L118.90 31.47L118.87 31.44Q118.86 32.79 117.92 33.73L117.89 33.69L117.94 33.74Q116.95 34.62 115.62 34.77L115.63 34.78L115.64 34.79Q114.19 34.90 113.12 34.90L113.13 34.91L113.16 34.94Q107.34 34.83 102.81 37.12ZM115.66 37.48L115.65 37.47L115.68 37.50Q116.60 37.54 118.46 37.66L118.30 37.49L118.44 37.63Q119.79 37.61 120.90 36.74L120.95 36.79L120.84 36.68Q121.75 35.87 121.63 34.31L121.55 34.23L121.52 34.20Q121.44 33.25 120.72 29.78L120.82 29.88L120.85 29.91Q120.02 26.53 118.15 25.05L118.17 25.06L117.88 24.35L117.90 24.38Q119.48 22.88 120.05 19.11L120.02 19.07L120.06 19.11Q120.25 18.01 120.17 16.60L120.16 16.58L120.15 16.58Q120.15 15.32 119.05 14.48L119.07 14.51L119.03 14.47Q118.70 14.25 118.59 14.21L118.46 14.08L118.57 14.20Q118.30 13.66 117.46 12.86L117.51 12.91L117.50 12.90Q115.98 11.83 111.75 11.64L111.82 11.71L111.64 11.53Q105.08 11.33 101.09 8.44L101.09 8.44L101.20 8.55Q104.45 15.53 104.75 23.07L104.79 23.10L104.78 23.10Q104.94 30.75 102.12 37.68L102.24 37.80L104.24 36.79L104.36 36.91Q103.87 37.95 103.37 39.09L103.44 39.16L103.44 39.15Q107.75 37.29 112.77 37.29L112.63 37.15L112.65 37.17Q114.14 37.25 115.58 37.40ZM113.53 26.94L113.39 26.80L113.50 26.91Q114.09 26.70 115.00 27.15L115.02 27.17L115.15 27.30Q115.21 27.59 115.36 28.65L115.38 28.67L115.32 28.61Q115.49 29.96 114.55 31.00L114.58 31.03L114.65 31.10Q113.69 32.12 112.29 32.01L112.17 31.89L110.69 32.01L110.78 32.10Q110.01 32.13 109.28 32.25L109.33 32.29L109.26 32.22Q109.51 30.34 109.59 26.88L109.76 27.05L109.63 26.91Q110.30 26.86 111.55 26.82L111.68 26.95L111.53 26.80Q112.81 26.79 113.42 26.83ZM112.42 17.26L112.46 17.30L112.88 17.34L112.73 17.19Q113.04 17.27 113.23 17.31L113.20 17.27L113.60 17.30L114.02 17.52L114.51 17.48L114.58 17.56Q114.64 17.77 114.64 18.07L114.70 18.13L114.58 18.54L114.71 18.67Q114.70 19.92 113.82 20.85L113.77 20.80L113.74 20.77Q112.85 21.68 111.63 21.68L111.59 21.64L111.62 21.67Q110.64 21.72 110.64 21.72L110.61 21.70L110.58 21.67Q109.40 21.77 109.74 21.77L109.65 21.68L109.73 21.77Q109.56 20.11 109.25 17.06L109.32 17.13L109.27 17.08Q110.89 17.25 112.41 17.25Z"/><path fill="#111" d="M166.79 14.57L166.86 14.64L165.28 14.73L165.32 14.77Q163.09 14.90 162.86 16.92L162.75 16.80L162.84 16.89Q162.83 17.68 162.87 18.67L162.72 18.53L162.75 18.55Q162.92 20.63 164.17 21.96L164.03 21.81L164.01 21.79Q165.36 23.22 167.27 23.07L167.31 23.12L167.26 23.07Q169.21 22.80 169.97 21.89L170.01 21.93L170.02 21.94Q171.09 21.03 171.36 18.79L171.44 18.87L171.36 18.79Q171.64 16.56 170.38 15.72L170.40 15.74L170.36 15.70Q169.47 14.88 166.80 14.57ZM172.93 23.90L172.92 23.89L171.67 26.22L171.64 26.18Q168.97 31.02 165.21 35.10L165.19 35.08L165.06 34.95Q163.54 35.22 160.84 36.02L160.77 35.96L160.87 36.05Q166.12 29.69 169.28 24.89L169.21 24.82L169.36 24.98Q168.28 25.57 166.64 25.64L166.63 25.63L166.57 25.57Q163.57 25.73 162.05 23.75L162.15 23.86L162.03 23.74Q160.89 22.21 159.78 17.64L159.88 17.74L159.81 17.67Q159.79 17.19 159.64 16.26L159.63 16.26L159.58 16.21Q159.38 15.22 159.38 14.77L159.51 14.89L159.43 14.82Q159.54 13.14 160.60 12.53L160.49 12.42L160.49 12.41Q161.70 11.64 163.56 11.64L163.56 11.64L163.61 11.68Q166.83 11.71 166.83 11.71L166.79 11.67L166.78 11.66Q168.93 11.68 170.19 11.87L170.17 11.85L170.23 11.92Q172.46 12.27 173.37 12.77L173.21 12.61L173.39 12.79Q174.68 13.47 174.87 15.22L174.89 15.24L174.76 15.11Q174.79 15.37 174.60 18.03L174.74 18.17L174.72 18.16Q174.23 20.17 174.00 21.01L173.97 20.98L174.14 21.15Q173.58 22.38 172.82 23.79ZM174.81 26.28L174.75 26.21L174.72 26.19Q175.78 24.05 176.32 19.75L176.36 19.80L176.28 19.72Q176.62 17.58 176.58 16.70L176.54 16.66L176.58 16.71Q176.57 14.86 175.39 13.95L175.28 13.84L174.99 13.74L175.02 13.77Q174.76 13.01 173.84 12.37L173.87 12.39L173.77 12.29Q171.51 11.32 166.71 11.17L166.81 11.27L166.75 11.21Q165.80 11.21 163.36 11.21L163.47 11.32L163.34 11.18Q161.65 11.25 160.16 11.93L160.10 11.87L160.06 11.83Q159.04 12.75 159.11 14.57L159.19 14.65L159.02 14.48Q159.20 15.39 159.39 17.41L159.45 17.46L159.50 17.51Q160.13 20.16 160.39 21.00L160.28 20.88L160.28 20.88Q160.84 22.74 161.79 24.03L161.90 24.14L161.96 24.20Q162.24 24.55 162.62 24.93L162.45 24.77L162.44 24.75Q162.84 25.35 163.49 26.26L163.47 26.24L163.35 26.12Q164.92 27.57 166.86 27.77L166.78 27.69L166.87 27.78Q164.86 30.34 163.30 32.24L163.47 32.41L159.85 36.79L159.77 36.71Q162.00 35.93 163.64 35.58L163.68 35.62L163.58 35.52Q162.99 36.57 161.43 38.28L161.42 38.28L161.35 38.21Q164.44 37.30 167.56 37.26L167.47 37.18L167.56 37.26Q169.94 34.73 174.28 27.50L174.12 27.34L174.29 27.58L174.20 27.50Q174.41 26.71 174.75 26.22ZM168.78 17.01L168.82 17.05L168.75 16.98Q169.39 16.89 169.84 17.01L169.87 17.03L169.90 17.07Q170.61 17.24 170.99 17.36L170.80 17.16L170.97 17.34Q171.09 17.72 171.17 18.14L171.02 18.00L171.17 18.14Q171.16 18.48 171.05 18.86L171.06 18.87L171.01 18.82Q170.93 20.49 169.75 21.60L169.76 21.60L169.84 21.69Q168.90 22.72 167.26 22.68L167.26 22.68L167.26 22.68Q166.74 22.59 165.22 22.28L165.29 22.35L165.39 22.45Q165.05 21.46 165.05 20.74L165.10 20.79L165.05 20.74Q164.91 20.41 164.91 20.18L164.98 20.26L164.96 20.24Q164.93 17.99 167.21 17.19L167.22 17.20L167.26 17.24Q167.89 16.96 168.73 16.96Z"/><path d="M20 5 C107 9,119 15,185 23" stroke="#333" fill="none"/><path fill="#222" d="M29.28 22.25L29.24 22.21L29.21 22.18Q30.06 22.23 31.47 22.08L31.32 21.93L31.35 21.96Q31.44 22.74 31.44 23.39L31.47 23.41L31.35 24.55L31.30 24.50Q30.57 24.61 29.73 24.68L29.76 24.71L29.62 24.57Q28.76 24.58 27.92 24.55L28.09 24.71L28.12 24.74Q25.12 30.77 21.70 35.38L21.68 35.36L21.72 35.40Q19.29 36.13 18.00 36.74L17.91 36.65L17.85 36.59Q22.00 30.92 25.05 24.64L25.05 24.65L22.46 24.68L22.36 24.59Q22.41 23.30 22.29 21.96L22.38 22.06L22.43 22.10Q24.16 22.08 26.21 22.08L26.30 22.17L28.13 18.40L28.27 18.53Q29.27 16.64 30.49 15.05L30.36 14.92L30.42 14.98Q28.79 15.06 27.19 15.06L27.30 15.17L27.26 15.13Q21.13 15.09 17.36 12.88L17.48 13.00L16.83 11.29L16.66 11.12Q16.38 10.34 16.00 9.46L15.98 9.45L16.08 9.54Q20.31 12.06 26.02 12.29L26.02 12.29L26.11 12.38Q31.17 12.53 36.31 10.55L36.31 10.55L36.28 10.52Q36.07 10.92 35.58 11.80L35.61 11.83L35.63 11.85Q32.03 16.63 29.18 22.15ZM37.29 13.28L37.20 13.19L38.30 11.28L38.27 11.25Q37.38 11.81 35.71 12.53L35.60 12.43L35.75 12.08L35.80 12.13Q36.03 12.09 36.14 11.98L36.07 11.91L36.04 11.88Q36.41 11.18 37.13 9.85L37.17 9.89L37.11 9.83Q31.88 12.21 26.13 11.99L26.06 11.91L26.17 12.03Q20.08 11.68 15.32 8.71L15.39 8.78L15.27 8.66Q16.41 10.64 17.25 13.31L17.23 13.28L17.21 13.27Q18.26 13.86 19.06 14.16L19.00 14.11L19.12 14.22Q19.14 14.44 19.60 16.30L19.59 16.29L19.59 16.29Q22.91 17.71 28.43 17.56L28.46 17.59L28.35 17.48Q27.98 17.98 26.00 21.75L26.06 21.81L26.15 21.90Q24.09 21.89 22.11 21.70L22.08 21.68L21.99 21.59Q22.06 22.42 22.06 23.29L22.03 23.26L22.13 25.07L23.80 25.07L23.76 26.44L23.86 26.54Q19.84 33.83 17.06 37.41L17.02 37.36L17.07 37.41Q18.63 36.62 20.27 36.12L20.42 36.27L20.39 36.24Q19.67 37.11 18.30 38.83L18.31 38.84L18.25 38.78Q21.49 37.76 23.93 37.54L23.97 37.57L23.81 37.41Q26.80 33.71 29.92 26.93L29.93 26.94L33.34 27.11L33.37 27.14Q33.24 26.17 33.24 25.26L33.21 25.23L33.31 23.54L33.29 23.52Q32.91 23.41 32.36 23.45L32.55 23.64L32.45 23.53Q31.91 23.59 31.65 23.59L31.70 23.65L31.70 23.64Q31.70 23.53 31.74 23.38L31.62 23.26L31.68 23.06L31.66 23.04Q34.28 18.00 37.36 13.35Z"/><path fill="#333" d="M78.59 35.28L78.75 35.44L78.70 35.39Q77.17 35.34 75.61 34.92L75.62 34.94L75.62 34.94Q74.52 34.14 74.37 32.51L74.38 32.52L74.39 32.53Q74.27 32.25 74.46 29.62L74.47 29.64L74.49 29.66Q75.52 29.47 77.54 29.09L77.60 29.15L77.25 29.76L77.28 29.79Q76.98 31.50 78.39 32.07L78.39 32.07L78.45 32.14Q79.19 32.42 81.29 32.42L81.36 32.49L81.31 32.44Q82.93 32.31 83.12 32.23L83.05 32.17L83.05 32.16Q84.10 32.15 84.82 31.66L84.86 31.69L84.77 31.60Q86.22 30.69 86.03 28.60L86.06 28.63L85.91 28.48Q85.84 26.16 84.11 24.60L84.04 24.53L84.15 24.64Q82.34 23.01 79.87 23.01L79.91 23.04L79.96 22.87L79.91 22.82Q80.23 22.72 81.10 22.64L81.03 22.57L81.08 22.62Q82.97 22.49 84.34 21.25L84.50 21.41L84.33 21.24Q85.72 20.03 85.87 18.16L85.85 18.14L85.92 18.21Q85.90 17.77 85.90 17.43L85.97 17.50L86.01 17.54Q85.96 15.97 84.59 15.05L84.69 15.15L84.64 15.10Q83.45 14.33 81.86 14.45L81.76 14.35L81.86 14.45Q80.48 14.21 79.26 14.63L79.22 14.59L79.33 14.70Q77.84 15.19 77.53 16.33L77.48 16.28L77.58 16.38Q77.34 17.09 77.42 17.85L77.50 17.93L77.49 17.93Q76.38 17.62 74.33 16.90L74.35 16.92L74.41 16.97Q74.16 15.28 74.20 14.45L74.21 14.46L74.20 14.44Q74.24 12.84 75.30 12.16L75.34 12.20L75.37 12.22Q76.65 11.49 78.25 11.49L78.32 11.56L78.28 11.52Q81.57 11.61 84.73 11.88L84.66 11.81L84.71 11.86Q89.74 12.24 89.43 16.01L89.38 15.95L89.41 15.99Q89.34 17.48 88.85 19.04L88.79 18.98L88.80 18.99Q87.96 22.15 85.60 23.07L85.60 23.07L85.61 23.08Q88.27 23.64 88.88 26.99L88.83 26.94L88.72 26.84Q89.04 28.07 89.12 30.08L89.03 30.00L89.11 30.07Q89.34 34.61 84.73 35.07L84.65 34.98L84.58 34.91Q83.85 34.98 78.56 35.25ZM83.82 37.54L83.91 37.63L83.84 37.56Q84.48 37.63 87.33 37.70L87.41 37.78L87.25 37.62Q89.04 37.74 90.68 37.09L90.71 37.12L90.81 37.23Q91.85 36.13 91.66 34.38L91.80 34.51L91.73 34.45Q91.58 33.08 91.28 31.33L91.30 31.36L91.25 31.30Q90.63 26.92 88.69 25.28L88.60 25.19L88.49 24.89L88.46 24.82L88.47 24.83Q90.21 23.37 90.97 19.00L90.89 18.91L91.00 19.03Q90.98 18.51 91.10 17.56L91.06 17.52L91.03 17.49Q91.16 16.78 91.08 16.10L91.07 16.08L91.05 16.07Q90.81 14.31 89.52 13.62L89.64 13.75L89.48 13.66L89.53 13.70Q89.27 12.76 88.13 12.23L88.03 12.13L88.17 12.27Q86.64 11.58 81.50 11.28L81.39 11.16L81.51 11.29Q79.72 11.09 78.12 11.09L78.07 11.04L78.21 11.18Q76.48 11.05 74.96 11.70L74.97 11.72L74.94 11.68Q73.86 12.58 73.86 14.33L73.87 14.34L73.80 14.27Q73.89 13.94 74.16 17.29L74.03 17.17L74.09 17.23Q74.44 17.35 76.08 17.96L76.04 17.92L76.03 17.91Q75.97 18.38 75.93 18.87L75.96 18.91L75.99 18.94Q76.00 19.44 76.04 19.97L76.04 19.97L76.06 20.00Q77.88 20.41 79.90 20.52L79.85 20.47L79.92 20.54Q79.83 18.51 80.93 17.67L80.94 17.68L80.92 17.66Q81.74 17.00 83.76 16.77L83.68 16.69L83.72 16.73Q84.96 16.83 85.53 17.02L85.35 16.83L85.38 16.87Q85.44 17.01 85.48 17.12L85.50 17.14L85.47 17.30L85.72 18.00L85.63 17.91Q85.69 18.17 85.65 18.32L85.50 18.17L85.64 18.30Q85.55 20.00 84.02 21.18L83.95 21.11L83.90 21.06Q83.09 22.07 81.07 22.27L81.12 22.32L81.13 22.33Q80.37 22.44 79.50 22.44L79.39 22.34L79.40 22.35Q79.44 22.69 79.59 23.37L79.55 23.34L79.74 23.52Q81.42 23.45 82.86 24.17L82.81 24.12L82.67 24.09L81.09 24.27L81.12 24.29Q81.14 24.62 81.26 25.23L81.26 25.23L81.38 25.36Q83.50 25.27 85.21 26.60L85.22 26.61L85.22 26.61Q85.36 26.90 85.67 28.54L85.65 28.52L85.79 28.67Q85.82 31.43 82.89 31.85L82.88 31.84L83.01 31.97Q80.91 32.23 80.34 32.19L80.27 32.13L80.36 32.22Q79.83 32.02 79.29 31.95L79.30 31.95L79.38 31.58L79.34 30.97L79.48 30.69L79.46 30.32L79.52 30.38Q78.56 30.45 77.76 30.64L77.84 30.72L77.71 30.60Q77.65 30.34 77.65 30.15L77.62 30.12L77.76 30.27Q77.67 29.95 77.67 29.72L77.68 29.72L77.83 29.88Q77.84 29.43 77.99 28.71L77.94 28.65L77.84 28.55Q76.08 28.88 74.21 29.23L74.12 29.13L74.26 29.28Q74.26 29.77 74.14 30.89L74.08 30.83L74.17 30.92Q74.02 32.01 74.02 32.62L73.88 32.47L73.98 32.58Q74.08 34.65 75.45 35.42L75.33 35.29L75.48 35.44Q76.81 37.57 81.53 37.38L81.54 37.39L81.53 37.38Q82.25 37.35 83.78 37.50Z"/></svg>