<svg xmlns="http://www.w3.org/2000/svg" width="200" height="40" viewBox="0,0,200,40"><path fill="#444" d="M112.68 27.17L103.44 17.17L103.50 17.23Q104.25 20.84 104.25 24.57L104.21 24.53L104.21 24.52Q104.24 30.53 102.18 36.09L102.15 36.06L102.22 36.12Q101.18 36.42 98.94 37.18L98.85 37.10L98.81 37.06Q101.61 31.26 101.61 24.56L101.70 24.64L101.68 24.62Q101.62 15.92 97.13 8.49L97.18 8.55L97.19 8.55Q97.61 8.71 98.29 9.13L98.26 9.10L98.37 9.21Q110.38 20.34 118.23 29.59L118.29 29.66L118.18 29.55Q117.93 27.16 117.93 24.73L117.93 24.73L118.05 24.85Q118.05 17.62 120.57 11.41L120.50 11.35L120.43 11.28Q122.78 10.78 124.38 10.09L124.41 10.12L124.44 10.15Q121.00 16.18 120.69 23.34L120.74 23.39L120.79 23.45Q120.54 30.85 123.51 37.01L123.47 36.97L123.35 36.85Q122.86 36.86 122.45 36.67L122.53 36.76L122.41 36.64Q117.86 32.70 112.65 27.14L112.72 27.21ZM126.05 40.12L126.02 40.09L126.11 40.18Q126.62 40.38 127.04 40.58L126.87 40.41L127.75 40.79L127.87 40.91Q122.65 33.91 122.65 24.54L122.70 24.59L122.60 24.49Q122.56 17.22 125.88 10.98L125.87 10.97L125.96 11.06Q125.37 11.34 123.96 11.95L123.84 11.84L123.97 11.96Q124.26 11.04 125.10 9.47L125.15 9.53L125.11 9.49Q122.56 10.29 120.12 10.86L120.13 10.87L120.25 10.99Q117.51 17.35 117.51 24.77L117.59 24.85L117.60 24.85Q117.66 26.78 117.85 28.76L117.86 28.77L117.73 28.64Q113.12 23.01 108.36 18.40L108.46 18.49L98.26 8.68L98.21 8.63Q97.75 8.43 96.53 7.86L96.43 7.76L96.46 7.79Q101.46 15.64 101.46 24.74L101.36 24.64L101.46 24.74Q101.41 31.81 98.32 37.83L98.21 37.71L98.25 37.75Q98.58 37.67 100.22 37.06L100.18 37.02L100.24 37.08Q99.83 37.77 98.99 39.26L99.13 39.39L99.17 39.43Q100.31 38.71 103.77 37.91L103.86 37.99L103.97 38.11Q106.23 31.92 106.23 24.72L106.28 24.77L106.12 24.61Q106.22 22.61 105.99 20.48L106.04 20.53L106.00 20.49Q117.39 33.21 126.00 40.07Z"/><path fill="#222" d="M82.23 14.75L82.11 14.62L82.07 14.59Q80.18 14.79 79.23 14.95L79.27 14.99L79.32 15.03Q77.58 15.16 76.36 15.69L76.28 15.62L76.45 15.79Q72.87 17.15 72.75 21.83L72.84 21.92L72.80 21.88Q72.71 24.53 73.36 27.46L73.33 27.43L73.36 27.46Q74.25 31.51 77.87 32.69L77.77 32.60L77.81 32.64Q79.68 33.18 81.13 33.02L81.08 32.97L81.52 32.95L81.58 33.02Q81.76 33.00 81.95 33.04L82.01 33.10L81.92 33.02Q82.19 33.13 82.34 33.09L82.36 33.11L82.35 33.11Q84.80 32.66 86.17 32.09L86.18 32.10L82.70 28.65L82.76 28.72Q83.04 28.34 83.64 27.73L83.59 27.68L84.61 26.87L84.60 26.86Q86.31 28.80 88.29 30.85L88.40 30.96L88.33 30.90Q90.65 29.07 90.92 23.70L90.86 23.65L90.97 23.75Q91.04 22.83 91.04 21.92L90.99 21.87L91.12 22.00Q91.11 16.32 86.05 15.21L85.91 15.07L86.01 15.18Q84.58 14.73 82.07 14.58ZM94.98 36.78L94.83 36.64L95.00 36.80Q94.26 37.10 93.08 37.97L93.17 38.06L88.66 34.28L88.75 34.36Q86.19 35.49 81.92 35.53L82.04 35.64L81.93 35.53Q75.51 35.77 72.69 33.53L72.70 33.54L72.56 33.40Q70.95 31.79 70.49 28.82L70.40 28.73L70.36 28.68Q70.27 27.00 69.89 23.42L69.78 23.31L69.85 23.38Q69.78 22.59 69.67 20.84L69.75 20.92L69.68 20.85Q69.65 19.41 69.68 18.53L69.56 18.41L69.54 18.38Q69.73 15.42 71.49 13.86L71.40 13.77L71.37 13.74Q72.89 12.41 76.09 11.92L76.10 11.93L76.09 11.92Q78.68 11.65 81.57 11.73L81.46 11.62L81.64 11.79Q89.02 11.79 92.14 14.15L92.26 14.27L92.26 14.27Q94.42 16.40 94.16 21.31L94.17 21.32L94.08 21.23Q93.79 24.78 93.60 26.11L93.61 26.12L93.62 26.14Q93.14 30.79 90.81 33.11L90.65 32.95L90.72 33.02Q92.16 34.23 94.90 36.71ZM90.06 12.45L89.99 12.38L90.07 12.46Q88.06 11.74 81.55 11.25L81.49 11.19L81.62 11.32Q80.08 11.19 77.30 11.30L77.35 11.35L77.31 11.31Q73.09 11.54 70.84 13.52L70.92 13.60L70.97 13.65Q69.21 15.01 69.21 18.17L69.26 18.22L69.22 18.19Q69.23 19.02 69.38 20.74L69.31 20.67L69.37 20.73Q69.55 22.47 69.55 23.35L69.50 23.30L69.63 23.42Q69.77 25.16 70.15 28.74L70.10 28.69L70.18 28.77Q70.47 31.58 72.07 33.64L71.96 33.52L72.13 33.69Q72.39 34.45 73.61 35.59L73.52 35.51L73.59 35.57Q76.24 37.50 81.42 37.77L81.53 37.88L81.52 37.87Q81.87 37.88 84.27 37.99L84.20 37.92L84.34 38.06Q89.02 38.10 91.30 37.03L91.32 37.05L91.33 37.05Q92.29 37.83 97.01 41.40L96.91 41.30L97.01 41.40Q97.62 40.87 98.91 39.88L98.82 39.78L98.75 39.71Q97.88 39.04 97.08 38.35L97.24 38.51L95.48 36.94L95.67 36.98L95.65 36.96Q94.99 36.41 93.77 35.39L93.81 35.43L93.71 35.33Q95.78 32.98 95.78 28.45L95.76 28.43L95.72 28.39Q95.70 27.95 95.74 27.11L95.79 27.16L95.65 27.02Q95.84 26.34 95.84 25.92L95.84 25.92L95.75 25.83Q95.72 20.28 95.00 17.92L95.06 17.99L95.11 18.03Q94.73 16.74 93.86 15.67L93.74 15.56L93.90 15.72Q93.00 13.49 90.07 12.46ZM84.04 17.02L84.00 16.97L84.03 17.00Q88.19 17.01 90.01 18.61L89.96 18.56L90.05 18.65Q90.44 19.69 90.56 21.02L90.64 21.10L90.62 21.08Q90.68 22.32 90.60 23.69L90.70 23.79L90.57 23.65Q90.31 28.69 88.37 30.40L88.33 30.36L88.27 30.30Q87.03 29.06 84.52 26.32L84.61 26.42L84.64 26.44Q83.74 27.07 82.18 28.63L82.26 28.71L82.21 28.66Q82.79 29.28 83.93 30.46L83.97 30.50L83.79 30.43L83.92 30.56Q84.32 30.92 85.35 31.99L85.48 32.12L85.38 32.02Q84.42 32.32 82.10 32.62L82.04 32.56L81.59 32.65L81.24 32.71L81.20 32.71L81.16 32.67Q77.77 32.75 75.79 31.11L75.76 31.08L75.65 30.97Q74.63 28.88 74.67 25.76L74.66 25.75L74.67 25.76Q74.80 17.02 83.97 16.95Z"/><path fill="#333" d="M53.50 24.03L53.60 24.13L53.62 24.15Q51.69 23.93 50.45 25.35L50.45 25.36L50.56 25.47Q49.28 26.85 49.09 28.75L49.04 28.70L49.14 28.80Q48.87 30.82 49.95 31.79L49.94 31.77L49.99 31.83Q51.04 32.76 53.14 32.65L53.10 32.61L53.05 32.57Q55.15 32.42 56.25 31.73L56.39 31.87L56.36 31.83Q57.48 30.71 57.48 29.15L57.49 29.16L57.54 29.21Q57.38 28.67 57.30 28.29L57.36 28.34L57.40 28.39Q57.45 26.69 56.35 25.33L56.37 25.36L56.34 25.32Q55.29 24.03 53.61 24.14ZM53.19 35.25L53.17 35.24L53.18 35.24Q48.70 35.14 47.29 34.38L47.41 34.50L47.31 34.39Q46.34 33.70 46.15 31.98L46.24 32.08L46.12 31.95Q46.18 31.37 46.22 30.64L46.12 30.54L46.12 30.54Q46.24 29.56 46.24 29.10L46.36 29.22L46.36 29.22Q46.77 26.32 46.92 25.64L46.92 25.63L46.89 25.60Q47.43 23.74 48.26 22.33L48.09 22.16L48.26 22.33Q50.81 17.84 56.75 11.48L56.79 11.52L56.71 11.43Q59.40 11.16 61.60 10.36L61.68 10.43L61.65 10.40Q54.75 17.81 51.55 22.04L51.63 22.12L51.54 22.03Q52.69 21.70 53.99 21.70L53.92 21.63L53.91 21.62Q57.21 21.61 58.73 23.55L58.75 23.56L58.70 23.52Q60.06 25.18 60.40 28.72L60.36 28.68L60.34 28.66Q60.55 29.52 60.55 30.13L60.50 30.08L60.55 30.12Q60.57 33.27 58.36 34.33L58.31 34.29L58.20 34.17Q57.01 34.81 53.13 35.19ZM55.45 37.62L55.51 37.69L55.37 37.54Q56.72 37.57 58.70 37.64L58.81 37.75L58.70 37.64Q60.27 37.65 61.83 36.93L61.87 36.96L61.97 37.06Q62.94 36.13 62.94 34.34L63.07 34.47L62.96 34.37Q63.00 33.91 62.82 32.92L62.95 33.04L62.93 33.02Q62.65 31.92 62.65 31.47L62.67 31.48L62.71 31.52Q61.89 26.86 60.29 24.96L60.26 24.92L60.28 24.94Q60.12 24.75 59.97 24.52L60.00 24.55L59.61 24.23L59.52 24.19L59.63 24.30Q59.29 23.80 58.68 22.85L58.70 22.88L58.71 22.88Q57.77 21.90 55.79 21.45L55.81 21.47L55.78 21.44Q57.06 19.89 60.03 16.20L59.86 16.03L64.21 10.87L64.24 10.90Q62.61 11.71 60.21 12.47L60.30 12.56L60.30 12.56Q61.10 11.45 62.88 9.47L62.88 9.46L62.93 9.52Q60.42 10.47 56.54 11.04L56.54 11.04L56.73 11.23Q50.86 16.97 47.89 21.92L47.87 21.90L47.95 21.98Q46.41 24.48 45.84 30.72L45.83 30.71L45.81 30.69Q45.72 31.25 45.80 32.20L45.78 32.19L45.95 32.35Q46.00 34.08 47.11 35.00L47.02 34.90L47.09 34.98Q47.43 35.09 47.39 35.13L47.45 35.19L47.29 35.02Q47.68 35.95 48.48 36.37L48.57 36.46L48.64 36.53Q49.91 37.03 51.85 37.23L51.97 37.34L51.94 37.32Q51.85 37.23 55.35 37.53ZM55.15 26.32L55.20 26.38L55.14 26.31Q55.80 26.29 56.75 26.78L56.75 26.78L56.81 26.85Q56.99 27.63 56.99 28.28L57.13 28.42L57.18 28.47Q57.20 30.16 56.25 31.15L56.28 31.18L56.31 31.21Q55.25 31.94 53.16 32.25L53.21 32.30L53.20 32.30Q51.76 32.30 51.22 32.03L51.26 32.07L51.19 32.00Q50.96 31.50 50.96 31.20L51.02 31.26L51.08 31.32Q50.71 27.90 53.64 26.61L53.60 26.57L53.69 26.65Q54.40 26.26 55.16 26.34Z"/><path fill="#333" d="M28.26 34.81L28.28 34.82L28.32 34.86Q26.36 34.81 24.35 35.00L24.32 34.97L24.28 34.93Q25.00 29.75 25.00 24.92L25.04 24.96L24.93 24.85Q24.95 19.96 24.30 14.74L24.44 14.87L24.44 14.88Q19.74 14.36 16.54 12.69L16.56 12.71L15.89 11.01L15.89 11.01Q15.58 10.40 14.97 9.18L15.12 9.33L15.08 9.29Q20.13 11.94 26.15 12.13L26.09 12.07L26.21 12.19Q31.94 12.21 37.38 10.15L37.39 10.16L37.36 10.13Q36.70 11.60 36.05 13.43L36.12 13.50L36.17 13.55Q32.40 14.69 28.14 14.88L28.27 15.01L28.28 15.03Q27.97 19.94 27.97 24.88L27.99 24.90L28.02 24.93Q28.02 29.88 28.33 34.87ZM38.11 9.51L38.20 9.61L38.08 9.48Q32.28 11.79 26.07 11.60L26.15 11.68L26.00 11.53Q19.36 11.36 14.25 8.39L14.35 8.48L14.42 8.55Q15.02 9.68 16.31 12.96L16.42 13.06L16.44 13.09Q17.11 13.41 18.36 13.98L18.20 13.81L18.20 13.82Q18.48 14.56 18.83 16.08L18.92 16.17L18.83 16.09Q21.12 16.92 24.16 17.15L24.15 17.14L24.17 17.16Q24.58 20.89 24.58 24.66L24.70 24.77L24.57 24.64Q24.61 30.05 23.81 35.41L23.84 35.44L23.91 35.52Q25.45 35.27 25.99 35.27L25.93 35.22L25.98 35.27Q25.95 35.54 25.89 36.21L26.04 36.36L25.97 36.28Q26.00 37.04 26.00 37.38L25.85 37.22L25.90 37.28Q27.18 37.30 28.71 37.38L28.70 37.37L28.53 37.20Q29.45 37.25 31.28 37.40L31.27 37.39L31.43 37.55Q30.20 32.63 30.09 27.45L30.09 27.46L30.04 27.41Q29.93 22.12 30.46 17.21L30.47 17.22L30.44 17.19Q34.37 16.62 37.53 15.40L37.50 15.37L37.47 15.34Q38.12 12.91 39.15 10.86L39.13 10.84L39.13 10.84Q37.88 11.61 37.08 11.91L37.13 11.96L37.07 11.90Q37.60 10.71 38.17 9.57Z"/><path fill="#444" d="M138.66 35.20L138.63 35.17L136.35 28.44L136.21 28.30Q131.96 15.83 126.02 9.43L125.84 9.25L125.84 9.24Q127.90 10.36 130.49 10.97L130.52 10.99L130.58 11.05Q135.63 17.25 139.97 30.00L139.94 29.97L140.04 30.07Q143.03 21.91 143.72 20.31L143.79 20.38L143.69 20.28Q146.16 14.75 148.97 11.44L148.99 11.46L148.94 11.41Q151.00 11.03 153.62 10.15L153.62 10.15L153.72 10.25Q149.02 14.72 145.98 21.96L145.99 21.97L145.94 21.92Q144.60 25.65 140.91 35.16L140.87 35.13L140.97 35.23Q140.38 35.21 139.81 35.17L139.74 35.10L139.71 35.07Q139.14 35.07 138.56 35.10ZM143.75 37.70L143.77 37.72L143.73 37.68Q146.52 27.68 148.08 23.65L148.11 23.67L148.01 23.57Q151.02 15.89 155.44 11.02L155.52 11.10L155.37 10.95Q154.38 11.36 152.28 12.09L152.42 12.22L153.46 10.79L153.53 10.86Q154.10 10.18 154.71 9.53L154.63 9.45L154.54 9.36Q151.72 10.35 148.72 10.92L148.84 11.04L148.80 11.00Q144.46 16.37 140.58 27.83L140.49 27.74L140.59 27.84Q136.89 17.67 133.69 13.29L133.78 13.38L133.63 13.23Q133.35 13.25 132.47 13.10L132.35 12.98L132.44 13.07Q132.25 12.72 130.65 10.66L130.64 10.66L130.53 10.55Q127.74 10.00 125.04 8.59L124.85 8.41L124.99 8.55Q131.61 15.62 135.99 28.42L135.93 28.36L135.85 28.28Q137.24 32.11 138.42 35.69L138.33 35.59L138.28 35.55Q138.68 35.64 139.51 35.52L139.52 35.53L139.48 35.48Q139.98 36.33 140.67 37.66L140.62 37.62L140.62 37.61Q141.53 37.61 142.25 37.69L142.10 37.53L142.20 37.64Q142.91 37.62 143.67 37.62Z"/><path d="M20 6 C91 26,80 38,193 28" stroke="#222" fill="none"/><path d="M4 6 C96 33,105 12,191 15" stroke="#777" fill="none"/><path fill="#111" d="M167.00 14.65L167.05 14.71L167.01 14.67Q165.05 14.81 164.10 14.96L164.04 14.90L164.08 14.94Q162.49 15.22 161.28 15.75L161.19 15.66L161.29 15.76Q157.80 17.23 157.69 21.91L157.51 21.73L157.55 21.77Q157.52 24.48 158.17 27.41L158.20 27.45L158.13 27.38Q159.11 31.51 162.72 32.69L162.69 32.66L162.67 32.64Q164.49 33.13 165.94 32.98L165.95 32.98L166.34 32.92L166.44 33.02Q166.63 33.01 166.82 33.05L166.80 33.04L166.81 33.05Q167.00 33.08 167.15 33.05L167.04 32.93L167.19 33.08Q169.72 32.72 171.09 32.15L171.12 32.18L167.48 28.58L167.46 28.56Q167.89 28.34 168.50 27.73L168.55 27.78L169.33 26.73L169.32 26.73Q171.26 28.90 173.24 30.95L173.21 30.92L173.19 30.90Q175.63 29.19 175.90 23.83L175.89 23.81L175.76 23.68Q175.92 22.85 175.92 21.94L175.81 21.83L175.81 21.84Q175.96 16.31 170.89 15.20L170.77 15.08L170.88 15.19Q169.46 14.76 166.95 14.61ZM179.85 36.80L179.76 36.71L179.81 36.76Q179.09 37.07 177.91 37.95L178.04 38.07L173.69 34.45L173.58 34.33Q171.05 35.49 166.78 35.53L166.95 35.70L166.85 35.60Q160.28 35.70 157.47 33.45L157.40 33.38L157.43 33.41Q155.63 31.62 155.18 28.65L155.27 28.74L155.29 28.76Q155.02 26.89 154.64 23.31L154.58 23.25L154.59 23.26Q154.61 22.56 154.50 20.81L154.47 20.78L154.60 20.92Q154.41 19.31 154.45 18.44L154.52 18.51L154.40 18.39Q154.50 15.33 156.25 13.77L156.22 13.74L156.40 13.92Q157.79 12.46 160.99 11.96L161.11 12.08L161.06 12.03Q163.44 11.55 166.33 11.63L166.45 11.75L166.43 11.73Q173.85 11.76 176.97 14.12L177.09 14.24L177.12 14.27Q179.21 16.32 178.94 21.23L178.84 21.13L178.97 21.26Q178.80 24.93 178.61 26.26L178.57 26.23L178.53 26.18Q177.86 30.66 175.54 32.98L175.56 33.00L175.66 33.10Q177.00 34.21 179.74 36.68ZM175.00 12.53L175.01 12.54L175.02 12.55Q172.93 11.76 166.42 11.27L166.36 11.20L166.45 11.29Q165.03 11.28 162.25 11.39L162.25 11.40L162.30 11.44Q157.94 11.54 155.70 13.52L155.73 13.55L155.76 13.59Q154.10 15.05 154.10 18.21L154.11 18.21L154.15 18.26Q154.04 18.98 154.19 20.69L154.20 20.70L154.27 20.77Q154.41 22.47 154.41 23.35L154.38 23.32L154.45 23.39Q154.64 25.18 155.02 28.76L154.85 28.59L154.91 28.64Q155.38 31.63 156.98 33.68L156.89 33.60L156.86 33.57Q157.32 34.52 158.54 35.66L158.52 35.65L158.53 35.66Q161.09 37.49 166.27 37.76L166.42 37.91L166.38 37.87Q166.66 37.81 169.06 37.92L169.03 37.90L169.15 38.01Q173.96 38.18 176.24 37.11L176.24 37.11L176.27 37.14Q177.08 37.76 181.80 41.34L181.73 41.26L181.84 41.37Q182.33 40.72 183.62 39.73L183.75 39.86L183.64 39.75Q182.74 39.04 181.94 38.36L181.93 38.34L180.34 36.95L180.46 36.92L180.46 36.91Q179.90 36.47 178.68 35.44L178.72 35.48L178.62 35.38Q180.55 32.89 180.55 28.36L180.50 28.31L180.56 28.37Q180.57 27.96 180.61 27.13L180.53 27.05L180.55 27.07Q180.68 26.32 180.68 25.90L180.64 25.86L180.57 25.79Q180.62 20.32 179.90 17.96L179.96 18.03L179.86 17.93Q179.53 16.68 178.66 15.62L178.60 15.56L178.73 15.70Q177.93 13.56 175.00 12.54ZM168.87 16.99L168.94 17.06L168.85 16.97Q173.08 17.04 174.90 18.64L174.88 18.62L174.85 18.59Q175.40 19.79 175.51 21.12L175.53 21.13L175.55 21.15Q175.62 22.40 175.54 23.77L175.53 23.76L175.55 23.78Q175.11 28.63 173.16 30.34L173.13 30.30L173.22 30.40Q171.91 29.09 169.40 26.35L169.50 26.45L169.32 26.26Q168.62 27.09 167.06 28.65L167.04 28.63L167.00 28.60Q167.68 29.31 168.83 30.49L168.80 30.47L168.76 30.54L168.69 30.48Q169.28 31.03 170.31 32.09L170.34 32.12L170.28 32.07Q169.30 32.34 166.97 32.64L167.03 32.70L166.50 32.70L166.07 32.69L165.98 32.64L165.96 32.62Q162.53 32.65 160.55 31.01L160.65 31.11L160.51 30.97Q159.55 28.95 159.59 25.83L159.61 25.85L159.67 25.90Q159.76 17.13 168.94 17.05Z"/></svg>