<svg xmlns="http://www.w3.org/2000/svg" width="200" height="40" viewBox="0,0,200,40"><path fill="#333" d="M53.54 24.07L53.68 24.20L53.59 24.12Q51.79 24.03 50.55 25.46L50.49 25.40L50.55 25.46Q49.22 26.79 49.03 28.69L49.16 28.82L49.05 28.71Q48.80 30.75 49.89 31.72L49.96 31.79L49.98 31.81Q50.97 32.69 53.07 32.58L53.19 32.70L53.13 32.65Q55.32 32.58 56.42 31.90L56.26 31.74L56.29 31.77Q57.53 30.76 57.53 29.20L57.49 29.16L57.43 29.10Q57.37 28.66 57.29 28.28L57.42 28.40L57.33 28.32Q57.38 26.62 56.28 25.26L56.28 25.26L56.28 25.26Q55.20 23.94 53.53 24.06ZM53.08 35.14L53.20 35.27L53.24 35.30Q48.80 35.24 47.39 34.48L47.47 34.56L47.47 34.56Q46.33 33.68 46.14 31.97L46.14 31.98L46.08 31.91Q46.14 31.33 46.18 30.60L46.10 30.52L46.20 30.63Q46.24 29.56 46.24 29.10L46.21 29.07L46.20 29.07Q46.77 26.32 46.92 25.63L46.88 25.60L46.81 25.52Q47.38 23.69 48.21 22.28L48.26 22.33L48.17 22.24Q50.77 17.79 56.71 11.44L56.77 11.50L56.69 11.42Q59.47 11.23 61.68 10.43L61.71 10.46L61.67 10.43Q54.87 17.94 51.67 22.16L51.54 22.03L51.52 22.01Q52.69 21.69 53.98 21.69L53.80 21.51L53.92 21.64Q57.20 21.60 58.72 23.54L58.79 23.61L58.80 23.62Q60.09 25.21 60.43 28.75L60.41 28.73L60.44 28.76Q60.38 29.35 60.38 29.96L60.56 30.14L60.44 30.02Q60.39 33.09 58.18 34.15L58.35 34.32L58.35 34.32Q56.98 34.78 53.10 35.16ZM55.45 37.63L55.48 37.66L55.38 37.56Q56.67 37.52 58.65 37.60L58.67 37.61L58.72 37.66Q60.38 37.76 61.94 37.04L61.88 36.98L61.96 37.06Q63.11 36.31 63.11 34.52L63.03 34.44L63.10 34.51Q62.97 33.88 62.80 32.89L62.76 32.85L62.95 33.04Q62.66 31.93 62.66 31.48L62.74 31.56L62.64 31.46Q61.89 26.86 60.29 24.96L60.26 24.93L60.28 24.94Q60.07 24.70 59.92 24.47L59.93 24.49L59.64 24.27L59.64 24.31L59.69 24.35Q59.34 23.86 58.74 22.91L58.59 22.76L58.58 22.76Q57.69 21.82 55.71 21.36L55.76 21.41L55.66 21.31Q57.02 19.86 59.99 16.16L60.03 16.21L64.07 10.73L64.07 10.73Q62.65 11.75 60.26 12.51L60.24 12.50L60.27 12.52Q61.04 11.39 62.83 9.42L62.94 9.52L62.88 9.47Q60.60 10.65 56.72 11.22L56.68 11.18L56.56 11.06Q50.87 16.99 47.90 21.94L47.93 21.96L47.96 21.99Q46.43 24.50 45.86 30.74L45.89 30.77L45.93 30.81Q45.77 31.30 45.85 32.25L45.76 32.16L45.89 32.30Q45.85 33.93 46.96 34.84L46.96 34.85L47.08 34.97Q47.44 35.10 47.40 35.14L47.30 35.03L47.41 35.14Q47.83 36.09 48.62 36.51L48.50 36.39L48.64 36.52Q50.07 37.19 52.01 37.38L51.85 37.23L52.04 37.41Q51.99 37.36 55.49 37.67ZM55.31 26.49L55.13 26.31L55.28 26.45Q55.72 26.21 56.67 26.70L56.67 26.70L56.81 26.85Q57.02 27.67 57.02 28.31L57.06 28.35L57.11 28.40Q57.32 30.29 56.37 31.28L56.25 31.16L56.34 31.24Q55.17 31.86 53.07 32.17L53.19 32.29L53.25 32.35Q51.64 32.18 51.11 31.91L51.23 32.03L51.26 32.07Q51.06 31.60 51.06 31.29L50.98 31.22L50.91 31.15Q50.71 27.90 53.65 26.61L53.63 26.59L53.65 26.62Q54.49 26.35 55.25 26.43Z"/><path fill="#444" d="M25.27 24.09L25.29 24.10L25.34 24.15Q23.46 24.14 22.24 25.47L22.24 25.47L22.27 25.50Q21.12 26.90 20.96 28.80L20.83 28.67L20.89 28.73Q20.67 30.83 21.88 31.83L21.96 31.91L21.95 31.89Q23.09 32.83 25.22 32.75L25.30 32.84L25.32 32.85Q27.55 32.61 28.50 31.66L28.49 31.64L28.66 31.82Q29.69 30.37 29.58 28.54L29.53 28.50L29.47 28.44Q29.28 26.49 28.19 25.30L28.26 25.37L28.33 25.43Q27.13 24.11 25.30 24.11ZM25.36 14.77L25.33 14.74L25.30 14.71Q24.00 14.71 22.67 15.20L22.61 15.15L22.56 15.09Q21.27 15.90 21.50 17.77L21.47 17.73L21.58 17.84Q22.10 21.60 25.45 21.60L25.37 21.52L25.33 21.48Q26.93 21.71 27.92 20.57L27.86 20.50L27.87 20.51Q28.87 19.38 28.91 17.82L29.03 17.95L29.00 17.91Q29.09 16.18 28.37 15.57L28.25 15.46L28.26 15.46Q26.64 14.68 25.34 14.76ZM25.15 35.39L25.06 35.29L22.04 35.32L22.02 35.30Q20.46 35.26 19.13 34.39L19.16 34.42L19.07 34.33Q17.80 33.29 17.95 30.43L18.04 30.53L17.99 30.48Q18.32 23.49 21.94 22.50L22.05 22.61L21.97 22.53Q19.75 21.68 18.41 16.31L18.39 16.29L18.47 16.37Q18.04 14.87 18.11 14.07L18.17 14.13L18.10 14.06Q18.44 11.97 22.14 11.93L22.17 11.96L22.17 11.96Q26.31 11.80 27.76 11.99L27.82 12.05L27.83 12.06Q31.72 12.65 32.18 14.66L32.14 14.62L32.11 14.59Q32.22 15.20 32.22 15.58L32.30 15.66L32.15 15.51Q32.24 16.28 32.05 16.89L32.02 16.86L32.05 16.90Q31.44 21.12 28.51 22.64L28.56 22.69L28.55 22.68Q31.93 23.36 32.42 28.65L32.52 28.75L32.58 28.81Q32.55 28.92 32.59 30.22L32.56 30.19L32.49 30.12Q32.65 32.95 31.05 34.02L30.94 33.90L30.94 33.90Q29.68 34.89 25.11 35.35ZM27.43 37.70L27.30 37.58L30.69 37.69L30.72 37.72Q32.37 37.73 33.89 37.01L33.96 37.07L33.92 37.04Q35.04 36.29 35.11 34.42L35.07 34.38L35.13 34.44Q35.12 33.28 34.74 31.34L34.78 31.39L34.80 31.40Q33.88 26.76 31.79 24.89L31.85 24.96L31.68 24.59L31.34 24.17L31.27 23.99L31.33 24.06Q32.96 22.67 33.87 18.52L33.89 18.54L33.81 18.46Q33.91 18.18 33.99 17.35L33.83 17.18L33.80 17.16Q34.05 16.65 33.98 16.04L33.80 15.87L33.85 15.92Q33.76 14.53 32.58 14.03L32.61 14.06L32.56 13.97L32.43 13.92L32.48 13.98Q32.13 13.16 30.95 12.36L30.87 12.29L30.96 12.34L30.93 12.31Q29.06 11.74 24.99 11.55L25.00 11.56L25.03 11.59Q23.32 11.32 21.95 11.43L21.98 11.47L22.01 11.50Q21.16 11.48 19.87 11.64L19.84 11.61L19.95 11.73Q18.04 12.13 17.81 13.77L17.82 13.78L17.83 13.79Q17.68 14.18 17.72 14.98L17.67 14.92L17.76 15.01Q17.89 15.56 18.46 17.92L18.40 17.86L18.38 17.84Q19.25 21.15 21.00 22.48L21.06 22.54L21.09 22.57L21.07 22.55Q18.28 23.84 17.75 29.01L17.66 28.93L17.77 29.03Q17.61 31.27 17.61 32.19L17.66 32.23L17.65 32.23Q17.57 33.86 18.75 34.77L18.92 34.94L18.81 34.83Q18.94 34.92 19.20 35.11L19.23 35.14L19.21 35.12Q20.16 37.32 27.28 37.55ZM26.91 26.45L27.02 26.56L26.94 26.48Q27.88 26.42 28.75 26.88L28.74 26.87L28.80 26.93Q29.19 27.93 29.15 28.46L29.23 28.53L29.11 28.42Q29.13 28.71 29.13 29.01L29.12 29.00L29.21 29.10Q29.14 31.38 26.86 32.22L26.87 32.23L26.89 32.25Q26.13 32.60 25.33 32.48L25.27 32.43L25.37 32.52Q24.19 32.56 23.05 32.10L23.07 32.12L23.04 32.10Q22.84 31.51 22.91 30.52L22.79 30.40L22.93 30.54Q23.04 28.90 24.24 27.68L24.15 27.59L24.24 27.68Q25.40 26.42 27.00 26.53ZM27.23 17.06L27.29 17.12L27.24 17.07Q28.10 17.01 28.63 17.16L28.67 17.20L28.65 17.99L28.62 17.96Q28.62 19.37 27.71 20.37L27.57 20.24L27.74 20.41Q26.69 21.28 25.32 21.09L25.34 21.11L25.30 21.07Q24.30 21.06 23.88 20.83L23.93 20.87L23.99 20.94Q23.83 20.55 23.72 19.87L23.74 19.89L23.80 19.95Q23.46 18.47 24.68 17.63L24.71 17.66L24.81 17.76Q25.77 16.97 27.18 17.01Z"/><path d="M9 27 C85 21,97 2,190 14" stroke="#777" fill="none"/><path fill="#111" d="M168.41 35.10L168.45 35.14L166.23 35.21L166.42 35.40Q165.89 35.32 164.92 35.38L164.93 35.39L164.82 35.28Q163.87 35.36 163.37 35.36L163.41 35.39L163.45 35.44Q161.79 35.41 160.76 34.57L160.84 34.65L160.85 34.66Q161.57 33.47 163.20 31.34L163.16 31.30L163.22 31.36Q164.53 32.97 166.73 32.74L166.62 32.63L166.70 32.70Q167.58 32.56 168.22 31.91L168.28 31.97L168.30 31.99Q168.91 31.30 168.79 30.42L168.67 30.30L168.74 30.37Q168.74 25.88 168.82 21.31L168.78 21.28L168.81 21.30Q168.78 16.63 169.31 12.02L169.33 12.04L169.31 12.02Q171.31 11.89 173.45 10.86L173.44 10.86L173.44 10.86Q171.50 17.53 171.50 24.76L171.56 24.82L171.58 24.84Q171.53 28.33 171.99 31.83L172.01 31.85L171.88 31.72Q171.98 32.09 171.98 32.43L172.01 32.46L172.01 32.46Q172.03 33.05 171.80 33.59L171.75 33.53L171.90 33.68Q171.23 34.84 168.41 35.11ZM173.44 38.04L173.41 38.01L173.66 37.91L174.01 37.85L174.32 37.77L174.23 37.69Q174.52 37.40 174.59 37.29L174.65 37.35L174.60 37.30Q174.78 36.10 174.51 35.11L174.50 35.10L174.54 35.14Q173.18 29.33 173.45 22.97L173.43 22.95L173.42 22.95Q173.68 16.85 175.47 10.95L175.55 11.03L175.53 11.01Q174.72 11.72 173.47 12.45L173.36 12.34L173.33 12.31Q173.57 11.59 173.98 10.07L173.90 9.99L173.91 10.00Q171.55 11.48 168.89 11.79L168.76 11.66L168.79 11.69Q168.41 16.07 168.33 21.01L168.36 21.05L168.33 21.01Q168.27 26.93 168.34 30.36L168.38 30.39L168.42 30.43Q168.32 32.05 166.57 32.20L166.65 32.28L166.73 32.36Q164.94 32.40 163.27 30.76L163.30 30.79L163.19 30.68Q161.27 33.33 160.32 34.89L160.22 34.79L160.37 34.94Q160.85 35.43 161.88 35.66L162.03 35.80L161.87 35.64Q161.91 35.92 161.65 36.15L161.63 36.13L161.69 36.19Q163.13 37.13 165.11 37.40L165.07 37.36L165.04 37.33Q165.44 37.38 168.73 37.69L168.71 37.67L168.79 37.75Q171.97 37.94 173.34 37.94Z"/><path fill="#333" d="M110.39 35.22L110.36 35.18L107.93 28.30L107.95 28.32Q103.61 15.76 97.67 9.36L97.73 9.42L97.73 9.42Q99.76 10.50 102.34 11.11L102.17 10.93L102.19 10.95Q107.37 17.27 111.71 30.02L111.69 30.00L111.73 30.05Q114.86 22.02 115.55 20.43L115.37 20.25L115.39 20.27Q117.83 14.72 120.65 11.40L120.63 11.38L120.59 11.35Q122.71 11.03 125.34 10.16L125.36 10.17L125.33 10.15Q120.71 14.70 117.67 21.94L117.75 22.02L117.83 22.10Q116.37 25.70 112.67 35.22L112.55 35.09L112.65 35.19Q112.02 35.13 111.45 35.09L111.44 35.09L111.48 35.13Q110.96 35.18 110.39 35.22ZM115.48 37.71L115.34 37.57L115.41 37.65Q118.24 27.69 119.80 23.65L119.81 23.66L119.68 23.53Q122.70 15.85 127.11 10.98L127.10 10.97L127.23 11.09Q126.08 11.36 123.99 12.08L124.08 12.17L125.18 10.79L125.12 10.73Q125.71 10.07 126.32 9.42L126.29 9.39L126.35 9.45Q123.60 10.51 120.59 11.08L120.46 10.94L120.45 10.94Q116.16 16.35 112.27 27.81L112.30 27.83L112.22 27.76Q108.52 17.59 105.32 13.21L105.41 13.30L105.32 13.21Q105.07 13.26 104.19 13.11L104.20 13.11L104.06 12.97Q103.92 12.68 102.32 10.63L102.36 10.66L102.25 10.55Q99.28 9.83 96.57 8.42L96.58 8.42L96.61 8.46Q103.22 15.52 107.60 28.31L107.73 28.45L107.60 28.31Q108.84 31.99 110.02 35.57L110.09 35.64L109.97 35.51Q110.37 35.61 111.20 35.50L111.22 35.52L111.37 35.66Q111.59 36.23 112.28 37.56L112.31 37.60L112.21 37.49Q113.05 37.42 113.78 37.50L113.90 37.62L113.90 37.62Q114.68 37.68 115.44 37.68Z"/><path d="M21 1 C102 25,120 29,194 10" stroke="#999" fill="none"/><path fill="#111" d="M75.29 10.85L75.23 10.80L75.24 10.80Q77.25 15.78 77.82 20.95L77.68 20.82L77.78 20.92Q81.41 16.70 87.31 11.87L87.34 11.90L87.36 11.92Q90.47 11.53 93.10 10.73L93.27 10.90L86.67 16.49L86.70 16.51Q83.27 19.44 80.41 22.30L80.42 22.30L80.37 22.25Q88.31 31.38 93.38 36.10L93.45 36.17L93.34 36.06Q90.26 35.15 87.94 35.00L87.97 35.02L88.01 35.07Q82.15 29.59 77.85 23.77L77.89 23.81L77.90 23.82Q77.95 30.37 76.08 35.70L76.19 35.82L76.12 35.74Q75.88 35.77 75.39 35.96L75.49 36.07L75.42 36.19L75.33 36.10Q75.10 36.09 72.55 37.00L72.71 37.17L72.55 37.01Q75.53 30.47 75.19 23.01L75.16 22.98L75.27 23.09Q74.94 15.75 71.40 9.24L71.32 9.17L71.83 9.41L72.28 9.74L72.41 9.83L72.34 9.76Q73.13 10.22 75.34 10.90ZM75.60 10.60L75.61 10.60L75.54 10.54Q73.26 9.97 70.64 8.44L70.57 8.37L70.62 8.42Q75.04 15.85 75.04 24.80L74.88 24.64L74.93 24.70Q74.95 31.72 71.98 37.77L71.93 37.72L73.96 36.86L74.08 36.97Q73.69 37.99 73.00 39.29L72.86 39.14L72.96 39.25Q75.18 38.42 77.13 38.00L77.20 38.08L77.22 37.86L77.25 37.90Q77.52 37.86 78.09 37.71L78.14 37.76L77.97 37.59Q79.67 31.72 79.79 26.92L79.72 26.85L79.82 26.96Q81.88 29.43 83.71 31.30L83.80 31.39L83.65 31.24Q84.88 32.39 87.88 35.36L87.90 35.38L88.03 35.50L87.92 35.39Q88.88 36.17 90.75 37.77L90.73 37.75L90.87 37.89Q94.77 38.63 98.23 40.34L98.18 40.29L98.05 40.16Q88.91 31.74 82.67 24.32L82.55 24.20L82.57 24.22Q86.94 19.92 95.70 11.31L95.75 11.36L95.72 11.33Q93.15 12.46 91.14 12.84L91.16 12.86L91.25 12.95Q92.51 12.01 94.84 9.99L94.83 9.99L94.82 9.97Q90.66 11.34 87.31 11.53L87.35 11.57L87.23 11.44Q84.27 13.63 79.40 18.31L79.52 18.43L79.42 18.33Q79.06 15.76 78.49 13.21L78.57 13.30L78.50 13.23Q77.46 13.21 76.47 12.86L76.40 12.80L76.35 12.75Q76.10 11.96 75.53 10.52Z"/><path fill="#333" d="M134.56 27.92L134.51 27.87L134.67 28.03Q137.68 27.58 140.88 27.69L140.88 27.69L140.91 27.73Q140.79 25.10 140.79 22.70L140.78 22.68L140.77 22.67Q140.79 20.22 140.98 17.67L141.10 17.79L141.04 17.73Q139.73 19.35 134.52 27.88ZM144.53 35.34L144.50 35.32L144.42 35.23Q142.87 35.05 141.08 34.97L140.95 34.85L141.09 34.98Q140.78 32.51 140.67 30.03L140.64 30.01L140.81 30.18Q135.36 29.87 130.64 31.28L130.76 31.39L130.69 31.33Q130.87 30.90 131.06 29.91L131.07 29.91L131.00 29.84Q132.69 26.58 136.27 20.30L136.36 20.40L136.41 20.45Q139.17 15.44 142.60 11.56L142.75 11.71L142.61 11.57Q143.47 11.36 145.14 11.10L145.29 11.24L145.22 11.17Q143.25 17.54 143.25 24.58L143.41 24.74L143.32 24.65Q143.39 26.21 143.47 27.69L143.35 27.57L144.68 27.73L144.78 27.83Q145.21 27.69 145.82 27.80L145.96 27.94L145.94 27.92Q146.08 28.94 146.35 30.88L146.33 30.86L146.30 30.83Q145.06 30.54 143.57 30.35L143.67 30.44L143.66 30.44Q143.75 32.32 144.44 35.25ZM146.22 27.55L146.09 27.42L146.20 27.53Q146.01 27.45 145.82 27.45L145.78 27.41L145.43 27.45L145.34 27.36Q145.34 25.99 145.34 24.58L145.29 24.53L145.38 24.62Q145.34 18.18 147.40 12.17L147.40 12.18L147.32 12.09Q146.57 12.37 145.12 12.75L145.24 12.86L145.18 12.81Q145.42 12.06 145.88 10.65L145.81 10.58L145.88 10.66Q144.55 11.00 142.50 11.23L142.42 11.16L142.42 11.16Q138.55 15.54 133.33 24.90L133.37 24.94L135.39 21.21L135.46 21.28Q134.93 22.20 134.66 22.77L134.66 22.77L130.21 31.80L130.22 31.80Q130.97 31.75 132.11 31.37L132.10 31.36L131.93 31.58L131.92 31.56Q131.91 32.35 131.60 33.60L131.42 33.42L131.57 33.57Q135.64 32.20 140.48 32.39L140.40 32.32L140.47 32.39Q140.57 33.40 140.76 35.38L140.73 35.35L140.69 35.31Q141.70 35.25 142.77 35.37L142.91 35.51L142.75 35.35Q143.06 36.19 143.32 37.56L143.27 37.51L143.32 37.56Q145.11 37.67 148.12 38.58L148.18 38.65L148.05 38.52Q147.21 36.54 146.30 33.27L146.18 33.14L147.77 33.75L147.64 33.61Q148.40 33.92 149.09 34.26L149.12 34.30L149.01 34.19Q148.29 31.75 148.13 30.07L148.09 30.03L148.21 30.15Q147.62 29.98 146.48 29.75L146.36 29.63L146.49 29.77Q146.16 28.37 146.16 27.49ZM138.15 27.33L138.24 27.41L138.13 27.30Q138.96 26.08 140.52 23.53L140.47 23.47L140.42 23.42Q140.43 24.38 140.39 25.34L140.43 25.38L140.54 25.49Q140.42 26.36 140.46 27.31L140.54 27.39L140.55 27.40Q139.96 27.35 139.39 27.35L139.29 27.25L139.44 27.39Q138.82 27.39 138.22 27.39Z"/></svg>