<svg xmlns="http://www.w3.org/2000/svg" width="200" height="40" viewBox="0,0,200,40"><path fill="#333" d="M26.93 35.05L26.93 35.05L24.93 35.33L24.83 35.23Q24.52 35.38 23.55 35.44L23.41 35.30L23.37 35.26Q22.52 35.44 22.03 35.44L21.92 35.33L21.97 35.38Q20.41 35.47 19.39 34.63L19.39 34.63L19.37 34.61Q20.11 33.45 21.74 31.31L21.71 31.28L21.87 31.44Q22.96 32.83 25.16 32.60L25.16 32.59L25.32 32.75Q26.15 32.56 26.80 31.92L26.83 31.95L26.87 31.99Q27.48 31.30 27.37 30.43L27.37 30.43L27.36 30.42Q27.21 25.78 27.28 21.21L27.22 21.14L27.39 21.31Q27.34 16.62 27.87 12.01L27.85 11.99L27.80 11.94Q29.90 11.91 32.04 10.88L31.87 10.71L31.99 10.84Q30.12 17.57 30.12 24.81L30.16 24.84L30.13 24.82Q30.11 28.33 30.56 31.83L30.44 31.71L30.62 31.89Q30.61 32.15 30.61 32.49L30.57 32.45L30.59 32.47Q30.58 33.03 30.35 33.56L30.45 33.66L30.31 33.52Q29.82 34.86 27.01 35.13ZM31.94 37.96L31.95 37.97L32.19 37.88L32.62 37.89L32.84 37.73L32.82 37.71Q33.20 37.51 33.27 37.40L33.20 37.33L33.20 37.33Q33.42 36.17 33.15 35.18L33.11 35.14L33.20 35.23Q31.76 29.34 32.03 22.98L32.08 23.03L32.09 23.04Q32.30 16.90 34.09 11.00L33.99 10.90L33.98 10.89Q33.15 11.58 31.90 12.31L31.90 12.31L31.85 12.25Q32.16 11.62 32.58 10.10L32.50 10.02L32.62 10.13Q30.10 11.46 27.44 11.77L27.39 11.72L27.43 11.76Q27.13 16.22 27.05 21.16L26.89 21.00L27.00 21.11Q26.96 27.04 27.03 30.47L27.00 30.44L26.99 30.43Q26.98 32.14 25.23 32.29L25.31 32.37L25.23 32.28Q23.61 32.49 21.93 30.85L21.81 30.73L21.90 30.82Q19.84 33.33 18.89 34.89L18.94 34.94L18.91 34.91Q19.55 35.55 20.57 35.78L20.50 35.70L20.51 35.71Q20.46 35.89 20.19 36.12L20.10 36.03L20.24 36.16Q21.70 37.13 23.68 37.40L23.55 37.27L23.68 37.40Q23.89 37.27 27.18 37.57L27.22 37.60L27.19 37.58Q30.55 37.95 31.92 37.95Z"/><path fill="#333" d="M167.00 35.26L166.96 35.21L164.57 28.37L164.56 28.36Q160.07 15.64 154.13 9.25L154.19 9.31L154.27 9.39Q156.23 10.40 158.82 11.01L158.76 10.95L158.90 11.09Q164.04 17.38 168.38 30.13L168.30 30.04L168.26 30.01Q171.30 21.89 171.99 20.29L172.07 20.37L171.97 20.28Q174.49 14.80 177.31 11.49L177.32 11.50L177.21 11.40Q179.36 11.11 181.99 10.23L182.01 10.25L181.95 10.19Q177.36 14.78 174.31 22.01L174.35 22.05L174.22 21.92Q172.98 25.74 169.29 35.26L169.12 35.09L169.15 35.12Q168.73 35.28 168.16 35.24L168.03 35.11L168.14 35.22Q167.47 35.12 166.90 35.16ZM171.96 37.63L172.05 37.72L171.99 37.66Q174.72 27.59 176.28 23.56L176.37 23.65L176.40 23.67Q179.25 15.83 183.67 10.96L183.65 10.94L183.64 10.93Q182.71 11.41 180.62 12.14L180.60 12.12L181.66 10.70L181.82 10.86Q182.29 10.08 182.90 9.43L182.97 9.50L183.01 9.54Q180.15 10.49 177.14 11.06L177.01 10.93L177.15 11.07Q172.72 16.34 168.83 27.80L168.81 27.77L168.86 27.82Q165.17 17.66 161.97 13.28L162.04 13.35L162.04 13.35Q161.57 13.19 160.69 13.04L160.80 13.14L160.72 13.06Q160.51 12.70 158.91 10.64L159.00 10.73L158.82 10.55Q155.87 9.84 153.16 8.44L153.26 8.53L153.17 8.44Q159.77 15.50 164.15 28.29L164.19 28.33L164.32 28.46Q165.38 31.96 166.56 35.54L166.54 35.52L166.65 35.63Q167.03 35.70 167.87 35.59L167.87 35.60L167.81 35.53Q168.16 36.23 168.85 37.56L168.80 37.51L168.95 37.66Q169.79 37.59 170.51 37.66L170.46 37.61L170.43 37.58Q171.10 37.53 171.86 37.53Z"/><path d="M6 27 C119 9,83 33,198 7" stroke="#555" fill="none"/><path fill="#333" d="M135.14 35.26L135.14 35.26L135.25 35.37Q133.89 35.49 132.33 35.07L132.31 35.05L132.17 34.92Q130.99 34.04 130.84 32.40L130.90 32.46L130.98 32.54Q130.82 32.23 131.01 29.61L131.05 29.64L131.06 29.65Q131.96 29.34 133.98 28.96L134.10 29.08L133.79 29.72L133.86 29.79Q133.71 31.66 135.12 32.23L135.06 32.17L135.01 32.12Q135.83 32.48 137.92 32.48L137.93 32.49L138.00 32.56Q139.57 32.38 139.76 32.30L139.76 32.30L139.78 32.33Q140.60 32.08 141.33 31.58L141.42 31.67L141.32 31.58Q142.84 30.74 142.65 28.64L142.57 28.57L142.59 28.58Q142.40 26.14 140.66 24.58L140.71 24.63L140.59 24.51Q138.92 23.01 136.44 23.01L136.54 23.11L136.39 22.72L136.51 22.85Q136.77 22.69 137.65 22.62L137.80 22.76L137.70 22.67Q139.54 22.49 140.91 21.25L140.89 21.23L140.90 21.24Q142.31 20.05 142.46 18.18L142.40 18.11L142.58 18.30Q142.59 17.88 142.59 17.54L142.59 17.54L142.54 17.49Q142.54 15.98 141.17 15.06L141.29 15.17L141.12 15.01Q140.03 14.33 138.43 14.45L138.44 14.46L138.33 14.35Q137.19 14.35 135.97 14.77L135.92 14.72L135.86 14.66Q134.51 15.29 134.21 16.44L134.18 16.40L134.20 16.43Q133.89 17.07 133.97 17.83L134.03 17.89L134.03 17.89Q133.06 17.72 131.00 17.00L130.90 16.90L130.86 16.86Q130.64 15.19 130.68 14.35L130.63 14.31L130.65 14.32Q130.81 12.84 131.87 12.16L131.84 12.12L131.85 12.13Q133.29 11.56 134.89 11.56L134.98 11.65L134.88 11.55Q138.03 11.50 141.19 11.77L141.26 11.84L141.33 11.91Q146.35 12.28 146.04 16.05L146.01 16.01L145.98 15.98Q145.84 17.41 145.34 18.97L145.34 18.97L145.40 19.02Q144.60 22.22 142.24 23.14L142.05 22.95L142.23 23.12Q144.68 23.48 145.29 26.83L145.38 26.92L145.31 26.85Q145.62 28.07 145.69 30.09L145.76 30.16L145.76 30.15Q145.94 34.64 141.34 35.10L141.27 35.03L141.31 35.08Q140.52 35.08 135.23 35.35ZM140.44 37.59L140.42 37.56L140.52 37.67Q141.08 37.66 143.94 37.74L143.81 37.61L143.83 37.63Q145.66 37.79 147.30 37.14L147.26 37.10L147.25 37.09Q148.42 36.13 148.23 34.38L148.31 34.46L148.28 34.43Q148.17 33.10 147.87 31.35L147.94 31.42L147.91 31.39Q147.23 26.94 145.29 25.31L145.25 25.26L145.05 24.88L144.90 24.69L145.03 24.82Q146.66 23.25 147.42 18.87L147.48 18.93L147.40 18.85Q147.46 18.42 147.57 17.47L147.70 17.59L147.55 17.45Q147.78 16.84 147.71 16.15L147.73 16.17L147.70 16.15Q147.46 14.38 146.16 13.69L146.28 13.81L146.16 13.76L146.07 13.67Q145.87 12.79 144.73 12.26L144.58 12.12L144.64 12.17Q143.05 11.42 137.91 11.12L138.06 11.26L138.00 11.20Q136.32 11.12 134.72 11.12L134.77 11.18L134.79 11.19Q133.22 11.22 131.70 11.87L131.65 11.82L131.59 11.76Q130.33 12.48 130.33 14.23L130.34 14.24L130.37 14.27Q130.33 13.81 130.59 17.16L130.58 17.15L130.69 17.26Q130.89 17.23 132.53 17.84L132.68 17.99L132.61 17.92Q132.51 18.36 132.48 18.85L132.56 18.94L132.49 18.86Q132.49 19.36 132.53 19.89L132.59 19.95L132.55 19.92Q134.41 20.37 136.43 20.48L136.43 20.48L136.45 20.50Q136.42 18.53 137.52 17.69L137.44 17.61L137.49 17.66Q138.29 16.98 140.31 16.75L140.37 16.81L140.23 16.67Q141.46 16.76 142.03 16.95L141.97 16.88L141.95 16.87Q142.04 17.03 142.08 17.15L142.07 17.14L142.07 17.33L142.15 17.87L142.15 17.86Q142.11 18.02 142.07 18.17L142.13 18.23L142.23 18.33Q142.17 20.05 140.64 21.23L140.64 21.23L140.50 21.09Q139.64 22.06 137.62 22.25L137.58 22.20L137.64 22.27Q136.95 22.45 136.07 22.45L136.03 22.41L135.96 22.34Q136.06 22.74 136.21 23.42L136.16 23.37L136.15 23.37Q137.98 23.44 139.42 24.16L139.43 24.17L139.32 24.17L137.69 24.29L137.67 24.27Q137.72 24.63 137.83 25.24L137.89 25.29L137.80 25.21Q140.10 25.30 141.81 26.63L141.69 26.51L141.83 26.64Q141.86 26.83 142.17 28.47L142.24 28.54L142.31 28.61Q142.47 31.51 139.54 31.93L139.45 31.84L139.43 31.82Q137.41 32.16 136.84 32.12L136.86 32.15L136.94 32.23Q136.44 32.06 135.90 31.99L135.86 31.94L135.94 31.57L135.90 30.95L135.96 30.60L136.09 30.38L136.13 30.43Q135.10 30.43 134.30 30.62L134.33 30.65L134.34 30.65Q134.26 30.38 134.26 30.19L134.33 30.26L134.20 30.13Q134.25 29.95 134.25 29.73L134.27 29.74L134.28 29.76Q134.29 29.31 134.45 28.59L134.44 28.58L134.43 28.57Q132.54 28.78 130.67 29.12L130.71 29.15L130.83 29.27Q130.79 29.73 130.68 30.85L130.62 30.79L130.72 30.90Q130.45 31.86 130.45 32.47L130.64 32.66L130.46 32.48Q130.57 34.58 131.94 35.34L131.90 35.29L132.00 35.40Q133.42 37.61 138.14 37.42L138.24 37.53L138.11 37.39Q138.82 37.34 140.34 37.49Z"/><path fill="#444" d="M110.15 24.11L110.08 24.04L110.19 24.14Q108.40 24.07 107.16 25.50L107.13 25.47L107.00 25.33Q105.94 26.94 105.75 28.84L105.64 28.74L105.68 28.78Q105.46 30.83 106.54 31.80L106.60 31.86L106.53 31.79Q107.67 32.82 109.76 32.70L109.66 32.60L109.72 32.66Q111.86 32.56 112.97 31.87L112.96 31.87L112.85 31.75Q113.96 30.62 113.96 29.06L114.12 29.22L114.01 29.11Q114.01 28.73 113.94 28.35L113.93 28.34L114.01 28.42Q114.05 26.72 112.95 25.37L113.01 25.43L112.98 25.40Q111.85 24.02 110.18 24.14ZM109.64 35.14L109.65 35.14L109.66 35.15Q105.43 35.30 104.03 34.54L103.90 34.42L104.03 34.55Q102.87 33.65 102.68 31.94L102.67 31.93L102.83 32.09Q102.70 31.32 102.74 30.59L102.71 30.56L102.81 30.66Q102.76 29.51 102.76 29.05L102.94 29.23L102.89 29.18Q103.37 26.35 103.53 25.67L103.45 25.59L103.45 25.59Q103.96 23.70 104.79 22.29L104.73 22.23L104.69 22.18Q107.48 17.93 113.42 11.57L113.26 11.42L113.35 11.51Q116.07 11.26 118.28 10.46L118.16 10.34L118.29 10.47Q111.39 17.89 108.19 22.11L108.20 22.12L108.09 22.01Q109.19 21.62 110.48 21.62L110.55 21.69L110.42 21.56Q113.78 21.61 115.30 23.55L115.36 23.60L115.20 23.44Q116.58 25.13 116.92 28.67L116.87 28.62L116.91 28.65Q117.04 29.43 117.04 30.04L116.98 29.98L117.10 30.10Q117.04 33.16 114.83 34.23L114.88 34.28L114.83 34.23Q113.65 34.88 109.77 35.26ZM112.00 37.61L112.03 37.63L112.01 37.62Q113.25 37.53 115.23 37.60L115.35 37.72L115.31 37.68Q116.85 37.66 118.41 36.93L118.59 37.11L118.50 37.02Q119.62 36.24 119.62 34.45L119.60 34.44L119.60 34.43Q119.56 33.90 119.39 32.91L119.52 33.04L119.51 33.03Q119.26 31.96 119.26 31.50L119.28 31.52L119.28 31.53Q118.34 26.74 116.74 24.83L116.74 24.84L116.80 24.89Q116.77 24.82 116.61 24.59L116.55 24.53L116.32 24.38L116.17 24.26L116.15 24.24Q115.92 23.86 115.31 22.91L115.14 22.73L115.23 22.83Q114.37 21.93 112.39 21.47L112.37 21.45L112.39 21.47Q113.59 19.86 116.56 16.16L116.57 16.18L120.68 10.77L120.82 10.91Q119.27 11.80 116.87 12.56L116.76 12.45L116.87 12.55Q117.63 11.41 119.42 9.43L119.47 9.48L119.50 9.51Q117.01 10.49 113.13 11.06L113.23 11.16L113.26 11.19Q107.53 17.07 104.56 22.02L104.44 21.90L104.45 21.91Q103.06 24.55 102.49 30.80L102.52 30.83L102.34 30.65Q102.28 31.24 102.36 32.19L102.35 32.18L102.39 32.22Q102.53 34.04 103.64 34.96L103.60 34.92L103.58 34.90Q104.01 35.10 103.97 35.14L103.97 35.14L103.93 35.10Q104.28 35.98 105.08 36.40L105.11 36.43L105.15 36.47Q106.64 37.19 108.58 37.38L108.46 37.27L108.58 37.38Q108.58 37.38 112.08 37.69ZM111.76 26.36L111.80 26.40L111.73 26.33Q112.43 26.35 113.39 26.85L113.41 26.87L113.34 26.81Q113.56 27.63 113.56 28.28L113.57 28.29L113.65 28.37Q113.85 30.25 112.90 31.24L112.83 31.17L112.93 31.27Q111.87 31.99 109.77 32.30L109.73 32.25L109.65 32.18Q108.20 32.17 107.66 31.90L107.67 31.91L107.77 32.01Q107.59 31.56 107.59 31.25L107.58 31.25L107.48 31.15Q107.36 27.98 110.29 26.68L110.19 26.58L110.34 26.73Q110.99 26.27 111.75 26.35Z"/><path fill="#333" d="M53.43 35.27L53.43 35.26L53.39 35.22Q49.92 35.34 48.29 34.80L48.24 34.76L48.27 34.79Q46.28 34.13 45.98 30.74L46.05 30.81L47.39 29.64L47.49 29.74Q48.10 29.10 48.86 28.60L48.96 28.70L48.89 28.63Q48.67 30.59 50.27 31.80L50.36 31.89L50.18 31.71Q51.49 32.75 53.62 32.56L53.67 32.61L53.72 32.66Q58.11 32.25 57.92 28.71L57.85 28.65L57.87 28.66Q57.66 26.36 55.03 25.14L55.05 25.16L55.12 25.23Q52.17 24.07 49.81 22.85L49.94 22.98L49.97 23.01Q47.34 21.60 46.35 16.91L46.28 16.85L46.39 16.96Q46.17 16.39 46.05 15.63L46.12 15.69L46.19 15.76Q45.98 14.87 46.06 14.30L46.21 14.45L46.13 14.38Q46.33 12.82 47.58 12.36L47.50 12.28L47.46 12.24Q49.88 11.38 53.87 11.57L53.86 11.56L53.92 11.62Q55.66 11.64 56.46 11.72L56.54 11.80L56.47 11.74Q58.13 12.10 59.20 12.56L59.19 12.55L59.04 12.40Q61.21 12.93 61.44 15.41L61.37 15.34L61.39 15.36Q60.38 16.10 58.17 17.43L58.18 17.44L58.19 17.45Q57.78 14.45 53.40 14.45L53.48 14.53L53.31 14.36Q51.55 14.50 50.56 15.19L50.46 15.09L50.51 15.14Q49.36 15.66 49.58 17.45L49.59 17.46L49.45 17.32Q49.75 19.56 52.72 21.08L52.81 21.16L52.77 21.13Q53.34 21.39 57.83 23.03L57.76 22.96L57.79 22.99Q60.48 24.54 60.90 28.92L60.92 28.94L60.89 28.90Q60.89 29.06 60.96 30.31L60.88 30.23L60.88 30.22Q61.09 33.14 59.53 34.24L59.51 34.23L59.53 34.25Q57.59 35.12 53.40 35.23ZM55.64 37.55L55.72 37.63L55.63 37.54Q57.09 37.63 59.07 37.63L59.12 37.68L59.19 37.75Q61.27 37.74 62.53 37.32L62.52 37.32L62.45 37.24Q63.62 36.36 63.55 34.57L63.66 34.68L63.64 34.66Q63.51 33.58 63.13 31.52L63.14 31.54L63.29 31.68Q62.37 26.99 60.27 25.13L60.24 25.09L60.13 24.98Q59.53 23.59 58.20 22.86L58.17 22.83L52.75 20.65L52.83 20.73Q52.53 20.59 52.07 20.36L52.01 20.29L51.98 20.00L51.89 19.57L51.77 19.45Q51.74 18.16 52.88 17.55L52.85 17.51L52.78 17.44Q53.70 17.03 55.41 16.84L55.38 16.81L55.36 16.79Q56.43 16.60 57.57 17.06L57.55 17.03L57.52 17.01Q57.63 17.15 57.82 17.99L57.89 18.07L57.82 17.99Q58.10 17.93 58.60 17.70L58.63 17.73L58.60 17.71Q59.34 18.64 59.45 19.78L59.38 19.71L59.38 19.70Q59.40 19.62 63.06 17.03L63.05 17.02L63.19 17.16Q62.93 14.54 61.49 13.86L61.33 13.70L61.40 13.77Q60.79 12.47 59.34 11.94L59.44 12.04L59.49 12.09Q57.12 11.20 53.92 11.20L53.97 11.25L53.99 11.27Q49.02 11.22 47.16 11.90L47.11 11.85L47.06 11.80Q45.77 12.30 45.65 13.98L45.75 14.07L45.66 13.98Q45.76 14.65 46.18 16.86L46.13 16.81L46.04 16.72Q46.80 20.56 48.97 22.81L48.89 22.73L48.98 22.82Q49.82 24.57 51.32 25.25L51.17 25.11L51.30 25.24Q52.66 25.78 56.58 27.34L56.65 27.41L56.58 27.37L57.35 27.85L57.34 27.87L57.28 27.80Q57.59 28.39 57.63 28.73L57.52 28.62L57.51 28.61Q57.61 32.10 53.69 32.25L53.63 32.19L53.68 32.24Q52.57 32.31 51.28 31.93L51.16 31.81L51.28 31.94Q50.91 31.07 50.91 30.35L50.93 30.37L50.90 30.34Q50.89 30.06 50.93 29.79L50.93 29.79L50.93 29.79Q50.62 30.14 49.82 30.63L49.74 30.55L49.80 30.60Q49.15 29.35 49.30 27.98L49.47 28.15L49.37 28.04Q47.27 29.22 45.67 30.63L45.69 30.65L45.65 30.61Q45.81 31.53 45.89 32.56L45.91 32.58L45.74 32.41Q46.24 34.31 47.53 35.08L47.51 35.05L47.42 34.97Q48.75 36.90 51.30 37.28L51.30 37.28L51.17 37.15Q52.75 37.40 55.68 37.59Z"/><path d="M17 37 C96 31,80 5,181 3" stroke="#777" fill="none"/><path fill="#111" d="M79.21 25.69L79.08 25.57L79.12 25.61Q79.13 25.62 82.52 25.58L82.50 25.56L82.47 25.54Q84.87 25.64 85.93 25.68L85.84 25.59L85.83 25.58Q84.76 22.68 82.33 17.05L82.47 17.20L82.30 17.02Q81.79 18.49 80.74 21.35L80.72 21.33L80.70 21.31Q79.69 24.20 79.12 25.60ZM86.90 28.02L87.07 28.19L86.89 28.01Q84.65 28.02 82.44 28.05L82.48 28.09L82.56 28.17Q80.33 28.22 78.04 28.41L77.87 28.24L77.97 28.34Q76.54 31.86 73.30 36.04L73.28 36.02L73.23 35.97Q70.58 36.53 69.21 37.02L69.19 37.00L69.19 37.00Q74.37 31.40 79.05 18.04L79.11 18.10L78.99 17.98Q80.34 14.64 81.71 11.41L81.75 11.45L81.73 11.43Q82.07 11.46 82.41 11.46L82.28 11.33L83.06 11.39L83.03 11.36Q83.72 12.66 88.56 24.31L88.60 24.35L88.66 24.41Q91.86 32.18 95.86 36.33L95.82 36.30L95.89 36.37Q95.50 36.35 91.61 35.47L91.50 35.36L91.61 35.47Q88.98 32.27 87.00 28.12ZM91.49 35.77L91.36 35.64L92.05 35.83L92.11 35.89Q92.36 35.92 92.67 36.03L92.60 35.96L92.55 35.91Q92.87 36.27 94.70 38.29L94.72 38.31L94.70 38.30Q98.37 39.22 100.76 40.25L100.75 40.23L100.74 40.22Q95.36 35.79 91.36 27.80L91.23 27.67L91.35 27.79Q89.65 24.41 88.20 20.45L88.26 20.51L85.43 12.92L85.46 12.95Q85.16 12.99 84.93 12.99L84.94 13.00L84.43 13.03L84.50 13.10Q84.11 12.40 83.38 11.03L83.26 10.90L83.40 11.04Q82.90 11.08 82.45 11.04L82.31 10.91L82.45 11.04Q81.95 10.97 81.42 10.97L81.39 10.94L81.38 10.93Q80.06 14.94 76.18 25.10L76.18 25.10L76.08 25.01Q73.02 33.03 68.38 37.82L68.35 37.79L68.26 37.70Q69.41 37.40 71.42 36.79L71.30 36.67L71.28 36.65Q70.59 37.60 69.03 39.39L69.14 39.49L69.09 39.45Q70.68 38.67 74.60 37.91L74.69 38.00L74.68 37.99Q78.06 33.61 79.62 30.37L79.67 30.42L79.70 30.45Q81.52 30.40 83.84 30.44L83.70 30.30L83.84 30.44Q86.56 30.45 87.93 30.53L87.89 30.50L87.83 30.44Q89.11 32.82 91.47 35.75ZM83.78 21.10L83.65 20.96L83.78 21.09Q84.64 23.17 85.40 25.27L85.26 25.12L82.05 25.22L82.07 25.25Q82.57 23.73 83.64 20.95Z"/></svg>