<svg xmlns="http://www.w3.org/2000/svg" width="200" height="40" viewBox="0,0,200,40"><path fill="#222" d="M103.50 10.77L103.67 10.94L103.53 10.80Q105.49 15.74 106.06 20.92L106.13 20.98L105.97 20.83Q109.71 16.72 115.61 11.88L115.57 11.84L115.56 11.83Q118.92 11.70 121.55 10.90L121.47 10.82L115.00 16.53L114.99 16.52Q111.45 19.33 108.59 22.19L108.58 22.18L108.67 22.27Q116.57 31.34 121.63 36.06L121.72 36.16L121.61 36.05Q118.66 35.26 116.34 35.11L116.33 35.11L116.18 34.95Q110.49 29.65 106.19 23.82L106.26 23.89L106.16 23.79Q106.28 30.42 104.42 35.75L104.48 35.82L104.44 35.77Q104.13 35.73 103.63 35.92L103.79 36.08L103.71 36.19L103.58 36.06Q103.43 36.14 100.88 37.05L100.95 37.12L100.85 37.03Q103.76 30.41 103.42 22.95L103.44 22.98L103.59 23.13Q103.24 15.77 99.70 9.26L99.57 9.13L100.29 9.59L100.57 9.75L100.63 9.77L100.62 9.77Q101.46 10.26 103.67 10.95ZM103.86 10.56L103.93 10.64L103.81 10.51Q101.55 9.97 98.93 8.45L98.84 8.37L99.03 8.55Q103.26 15.78 103.26 24.73L103.28 24.75L103.22 24.70Q103.29 31.77 100.32 37.82L100.18 37.68L102.31 36.92L102.32 36.93Q102.01 38.02 101.32 39.32L101.20 39.20L101.23 39.23Q103.52 38.47 105.46 38.05L105.51 38.10L105.49 37.86L105.45 37.82Q105.74 37.80 106.31 37.65L106.24 37.57L106.29 37.63Q107.90 31.66 108.02 26.87L108.04 26.89L108.03 26.88Q110.21 29.48 112.04 31.35L112.09 31.39L112.05 31.36Q113.17 32.40 116.18 35.37L116.23 35.42L116.22 35.41L116.16 35.35Q117.19 36.19 119.05 37.79L119.03 37.77L119.04 37.78Q122.95 38.52 126.41 40.24L126.37 40.19L126.41 40.24Q117.21 31.76 110.97 24.33L110.88 24.24L110.93 24.29Q115.37 20.06 124.13 11.45L124.16 11.48L123.97 11.30Q121.59 12.61 119.57 12.99L119.55 12.96L119.59 13.01Q120.69 11.90 123.01 9.89L123.10 9.97L123.11 9.98Q118.88 11.27 115.53 11.46L115.65 11.58L115.50 11.43Q112.67 13.75 107.80 18.43L107.80 18.43L107.84 18.46Q107.32 15.74 106.75 13.19L106.76 13.20L106.77 13.21Q105.55 13.02 104.56 12.68L104.74 12.86L104.67 12.78Q104.39 11.97 103.82 10.52Z"/><path fill="#222" d="M73.76 9.23L73.82 9.28L73.86 9.33Q77.73 11.94 82.49 12.17L82.49 12.17L82.45 12.13Q87.01 12.24 91.28 10.49L91.33 10.54L91.32 10.53Q91.12 11.13 90.36 13.91L90.34 13.90L90.38 13.93Q87.59 14.91 84.63 15.07L84.59 15.03L84.66 15.10Q81.67 15.23 78.78 14.51L78.77 14.50L78.67 14.40Q79.41 18.07 79.60 21.73L79.65 21.78L79.53 21.65Q81.59 21.93 83.19 21.89L83.10 21.80L83.29 21.99Q84.34 21.82 86.74 21.71L86.79 21.76L86.73 21.70Q86.87 22.52 86.87 23.21L86.69 23.03L86.74 24.42L86.85 24.53Q84.35 24.42 79.55 24.50L79.54 24.48L79.56 24.51Q79.59 28.64 79.01 32.64L79.11 32.73L78.99 32.62Q81.55 31.91 84.30 32.02L84.45 32.18L84.34 32.07Q87.13 32.23 89.72 33.06L89.68 33.03L89.62 32.97Q89.77 33.84 90.03 34.60L89.95 34.52L90.53 36.16L90.51 36.14Q87.30 34.83 83.87 34.83L83.75 34.71L83.82 34.78Q78.92 34.75 74.66 37.00L74.72 37.06L74.68 37.02Q77.01 30.22 76.75 23.10L76.68 23.04L76.68 23.03Q76.54 16.00 73.87 9.34ZM74.19 37.75L74.22 37.78L74.20 37.76Q75.45 37.04 76.22 36.69L76.25 36.73L76.14 36.62Q76.10 37.53 75.53 39.05L75.51 39.03L75.40 38.92Q80.01 37.03 85.08 37.29L85.13 37.35L85.08 37.30Q90.18 37.53 94.18 40.23L94.25 40.29L94.19 40.24Q93.13 37.81 92.44 35.86L92.43 35.85L92.47 35.89Q91.47 35.27 90.48 34.93L90.30 34.75L90.39 34.84Q89.92 33.38 89.77 32.58L89.84 32.66L89.94 32.75Q86.83 31.74 83.67 31.74L83.65 31.72L83.66 31.73Q82.50 31.71 81.36 31.82L81.32 31.79L81.32 31.78Q81.40 30.50 81.44 29.28L81.50 29.34L81.58 26.83L81.52 26.77Q83.35 26.70 85.14 26.74L85.20 26.80L85.18 26.77Q86.95 26.76 88.74 26.91L88.78 26.95L88.80 26.97Q88.73 26.03 88.73 25.08L88.67 25.01L88.71 23.15L87.86 23.18L87.89 23.20Q87.45 23.25 86.99 23.25L87.08 23.34L87.10 23.36Q87.00 22.58 87.15 21.28L87.27 21.40L87.16 21.29Q85.58 21.54 84.40 21.58L84.39 21.57L84.49 21.67Q83.41 21.54 81.59 21.47L81.67 21.55L81.72 21.60Q81.46 20.01 81.27 17.20L81.46 17.39L81.31 17.23Q82.44 17.45 83.43 17.45L83.44 17.46L83.43 17.45Q88.06 17.36 91.75 15.45L91.83 15.53L91.89 15.59Q92.31 13.08 93.18 10.87L93.30 10.99L93.22 10.91Q91.93 11.78 91.09 12.13L90.98 12.02L91.10 12.14Q91.42 11.39 91.87 9.83L91.91 9.86L91.88 9.83Q87.23 11.96 82.36 11.66L82.23 11.53L82.42 11.72Q76.96 11.25 73.12 8.40L73.28 8.56L73.15 8.42Q76.15 15.50 76.45 23.11L76.39 23.05L76.41 23.07Q76.73 31.00 74.21 37.78Z"/><path fill="#333" d="M166.93 35.19L166.93 35.18L164.63 28.43L164.53 28.33Q160.25 15.83 154.31 9.43L154.20 9.32L154.21 9.33Q156.17 10.34 158.76 10.95L158.90 11.09L158.84 11.02Q163.90 17.23 168.24 29.98L168.21 29.95L168.40 30.15Q171.28 21.87 171.97 20.27L171.97 20.28L171.98 20.29Q174.48 14.79 177.29 11.48L177.16 11.34L177.22 11.40Q179.23 10.98 181.86 10.10L181.96 10.21L181.88 10.12Q177.33 14.75 174.29 21.98L174.26 21.95L174.37 22.07Q173.00 25.76 169.30 35.27L169.32 35.29L169.16 35.13Q168.66 35.20 168.09 35.16L168.14 35.22L168.08 35.15Q167.48 35.13 166.91 35.16ZM172.02 37.69L171.90 37.56L171.88 37.55Q174.83 27.70 176.39 23.67L176.32 23.60L176.27 23.55Q179.27 15.85 183.69 10.98L183.75 11.04L183.69 10.98Q182.70 11.40 180.61 12.12L180.66 12.18L181.81 10.85L181.70 10.74Q182.39 10.18 183.00 9.53L182.87 9.40L182.88 9.41Q180.05 10.38 177.04 10.95L177.07 10.99L177.10 11.01Q172.75 16.38 168.87 27.83L168.89 27.86L168.81 27.78Q165.23 17.72 162.03 13.35L162.03 13.35L161.90 13.21Q161.69 13.31 160.81 13.15L160.82 13.16L160.72 13.07Q160.50 12.69 158.90 10.63L158.86 10.59L158.95 10.69Q155.92 9.90 153.22 8.49L153.22 8.49L153.25 8.52Q159.91 15.64 164.29 28.43L164.32 28.46L164.29 28.43Q165.45 32.03 166.63 35.60L166.65 35.63L166.61 35.59Q166.91 35.59 167.75 35.47L167.79 35.51L167.93 35.65Q168.18 36.24 168.86 37.57L168.87 37.58L168.92 37.63Q169.75 37.55 170.47 37.62L170.35 37.50L170.47 37.62Q171.16 37.59 171.92 37.59Z"/><path fill="#333" d="M51.63 21.87L51.57 21.81L51.55 21.79Q53.35 21.95 55.18 21.95L55.17 21.94L55.13 21.90Q56.90 21.89 58.73 21.74L58.89 21.90L58.86 21.87Q58.68 22.45 58.68 23.17L58.63 23.12L58.72 24.55L58.70 24.53Q56.37 24.55 51.61 24.67L51.49 24.55L51.66 24.72Q51.54 30.53 50.39 35.52L50.52 35.65L50.54 35.67Q48.27 36.29 46.79 37.09L46.73 37.04L46.69 37.00Q49.10 30.27 48.83 23.15L48.80 23.12L48.76 23.08Q48.56 15.98 45.89 9.32L45.77 9.20L45.92 9.35Q49.61 11.90 54.37 12.13L54.43 12.18L54.37 12.12Q58.88 12.15 63.03 10.40L63.21 10.57L63.18 10.55Q62.81 11.28 62.58 12.08L62.56 12.06L62.16 13.75L62.18 13.77Q59.34 14.73 56.37 14.88L56.49 15.01L56.54 15.06Q53.56 15.16 50.70 14.44L50.65 14.38L50.73 14.46Q51.34 17.77 51.53 21.77ZM63.86 9.89L63.83 9.86L63.79 9.82Q59.15 11.92 54.28 11.61L54.34 11.68L54.32 11.66Q49.03 11.39 45.29 8.53L45.30 8.54L45.14 8.38Q48.14 15.45 48.44 23.06L48.42 23.04L48.42 23.04Q48.82 31.05 46.30 37.83L46.16 37.68L46.29 37.81Q47.00 37.46 48.37 36.81L48.29 36.73L48.18 36.62Q48.10 37.49 47.53 39.01L47.42 38.90L47.48 38.97Q49.83 37.93 52.72 37.43L52.78 37.49L52.67 37.38Q53.30 32.53 53.49 26.82L53.54 26.87L53.53 26.86Q55.31 26.81 57.14 26.81L57.24 26.91L57.05 26.72Q58.90 26.78 60.72 26.97L60.73 26.97L60.74 26.98Q60.72 26.13 60.72 25.21L60.59 25.08L60.61 23.21L60.68 23.27Q59.97 23.44 59.14 23.44L59.14 23.45L59.00 23.31Q59.11 22.54 59.19 21.51L59.10 21.43L59.02 21.35Q57.74 21.63 56.34 21.63L56.37 21.67L56.41 21.70Q55.03 21.73 53.66 21.70L53.66 21.69L53.53 19.43L53.44 19.34Q53.53 18.37 53.41 17.30L53.35 17.23L53.34 17.23Q54.32 17.29 55.31 17.29L55.25 17.24L55.35 17.34Q60.11 17.34 63.73 15.43L63.60 15.30L63.61 15.31Q64.19 13.57 65.10 10.94L65.09 10.93L65.07 10.91Q63.80 11.77 63.00 12.11L62.92 12.04L63.00 12.11Q63.34 11.43 63.83 9.86Z"/><path fill="#333" d="M25.23 24.05L25.23 24.04L25.34 24.16Q23.47 24.00 22.23 25.42L22.33 25.52L22.15 25.34Q20.98 26.84 20.79 28.74L20.78 28.74L20.85 28.80Q20.49 30.72 21.57 31.69L21.68 31.80L21.71 31.83Q22.75 32.76 24.85 32.65L24.77 32.57L24.93 32.72Q26.88 32.43 27.98 31.75L28.14 31.90L27.94 31.71Q29.08 30.60 29.08 29.04L29.19 29.15L29.25 29.20Q29.17 28.75 29.09 28.37L29.18 28.45L29.17 28.44Q29.26 26.78 28.16 25.43L28.08 25.35L28.16 25.43Q26.98 24.01 25.31 24.12ZM24.86 35.21L24.83 35.18L24.83 35.17Q20.58 35.31 19.18 34.55L19.06 34.43L19.11 34.48Q18.10 33.74 17.91 32.02L17.94 32.06L17.85 31.97Q17.85 31.32 17.89 30.60L17.88 30.59L17.79 30.50Q18.03 29.64 18.03 29.18L17.95 29.10L17.93 29.08Q18.35 26.19 18.50 25.50L18.61 25.61L18.61 25.61Q18.99 23.59 19.83 22.18L19.94 22.29L19.79 22.15Q22.63 17.94 28.57 11.58L28.41 11.43L28.51 11.53Q31.06 11.11 33.27 10.31L33.27 10.31L33.29 10.33Q26.56 17.92 23.37 22.14L23.35 22.13L23.29 22.07Q24.26 21.55 25.55 21.55L25.54 21.54L25.64 21.63Q28.84 21.53 30.37 23.47L30.35 23.45L30.38 23.49Q31.85 25.25 32.19 28.79L32.04 28.64L32.09 28.69Q32.13 29.38 32.13 29.99L32.19 30.05L32.18 30.05Q32.26 33.25 30.06 34.32L30.02 34.28L29.98 34.24Q28.67 34.76 24.79 35.14ZM27.24 37.71L27.19 37.65L27.19 37.65Q28.43 37.57 30.41 37.64L30.35 37.58L30.41 37.64Q31.98 37.64 33.54 36.92L33.73 37.11L33.73 37.11Q34.69 36.17 34.69 34.38L34.74 34.43L34.82 34.51Q34.66 33.85 34.49 32.86L34.50 32.88L34.59 32.97Q34.31 31.86 34.31 31.41L34.34 31.44L34.34 31.44Q33.46 26.72 31.86 24.81L31.85 24.80L31.97 24.92Q31.86 24.77 31.71 24.54L31.61 24.45L31.36 24.27L31.41 24.36L31.37 24.32Q31.04 23.84 30.43 22.89L30.45 22.91L30.39 22.84Q29.35 21.77 27.37 21.31L27.42 21.36L27.48 21.42Q28.69 19.81 31.66 16.12L31.73 16.19L35.90 10.85L35.89 10.84Q34.24 11.62 31.84 12.38L31.96 12.50L31.82 12.36Q32.85 11.49 34.64 9.51L34.67 9.54L34.64 9.51Q32.20 10.53 28.32 11.10L28.30 11.09L28.35 11.14Q22.60 17.00 19.63 21.95L19.71 22.02L19.72 22.04Q18.23 24.58 17.66 30.83L17.53 30.70L17.48 30.65Q17.52 31.33 17.60 32.29L17.58 32.27L17.63 32.32Q17.61 33.98 18.72 34.89L18.79 34.96L18.78 34.96Q19.18 35.13 19.14 35.16L19.08 35.10L19.12 35.14Q19.40 35.95 20.20 36.37L20.19 36.36L20.18 36.35Q21.78 37.19 23.72 37.38L23.69 37.35L23.57 37.23Q23.73 37.39 27.24 37.70ZM27.03 26.49L27.03 26.49L27.00 26.46Q27.51 26.29 28.46 26.78L28.51 26.83L28.42 26.74Q28.85 27.78 28.85 28.43L28.89 28.46L28.73 28.30Q29.04 30.29 28.09 31.28L27.96 31.15L28.10 31.29Q27.02 32.00 24.93 32.31L24.85 32.23L24.90 32.28Q23.41 32.24 22.88 31.97L22.97 32.06L22.93 32.03Q22.69 31.51 22.69 31.21L22.63 31.15L22.79 31.31Q22.55 28.02 25.48 26.73L25.36 26.61L25.48 26.73Q26.17 26.32 26.94 26.40Z"/><path d="M8 35 C108 29,118 18,190 36" stroke="#222" fill="none"/><path fill="#333" d="M138.49 24.16L138.44 24.11L138.50 24.17Q136.54 23.93 135.31 25.36L135.33 25.38L135.40 25.45Q134.20 26.91 134.01 28.82L133.97 28.78L133.92 28.73Q133.69 30.79 134.78 31.76L134.90 31.87L134.78 31.76Q135.98 32.84 138.07 32.73L138.07 32.73L138.00 32.65Q140.07 32.48 141.18 31.80L141.12 31.74L141.12 31.74Q142.26 30.64 142.26 29.08L142.31 29.12L142.29 29.10Q142.23 28.66 142.15 28.28L142.22 28.35L142.26 28.39Q142.37 26.75 141.27 25.40L141.18 25.31L141.20 25.33Q140.05 23.93 138.37 24.04ZM138.02 35.23L137.98 35.18L138.05 35.25Q133.72 35.31 132.31 34.55L132.31 34.54L132.21 34.44Q131.20 33.70 131.01 31.99L130.98 31.96L131.10 32.08Q130.88 31.21 130.92 30.49L131.06 30.63L130.92 30.49Q131.07 29.53 131.07 29.07L131.05 29.06L131.10 29.11Q131.60 26.29 131.75 25.61L131.78 25.63L131.73 25.59Q132.27 23.73 133.11 22.32L132.94 22.15L133.08 22.29Q135.61 17.78 141.55 11.42L141.57 11.44L141.69 11.56Q144.40 11.31 146.61 10.51L146.47 10.36L146.47 10.36Q139.58 17.79 136.39 22.02L136.52 22.16L136.52 22.16Q137.42 21.56 138.71 21.56L138.81 21.66L138.66 21.51Q141.99 21.53 143.51 23.48L143.49 23.45L143.48 23.44Q144.89 25.15 145.23 28.69L145.29 28.75L145.32 28.78Q145.29 29.40 145.29 30.00L145.41 30.13L145.27 29.99Q145.28 33.12 143.07 34.19L143.12 34.24L143.11 34.23Q141.85 34.79 137.97 35.17ZM140.26 37.58L140.23 37.55L140.38 37.70Q141.54 37.53 143.52 37.61L143.57 37.66L143.55 37.64Q145.22 37.75 146.78 37.02L146.68 36.92L146.76 37.00Q147.96 36.30 147.96 34.51L147.86 34.41L147.89 34.43Q147.96 34.01 147.79 33.02L147.69 32.93L147.81 33.04Q147.52 31.94 147.52 31.48L147.57 31.53L147.47 31.43Q146.75 26.86 145.15 24.96L144.98 24.79L144.98 24.79Q144.94 24.71 144.78 24.48L144.90 24.60L144.54 24.31L144.47 24.28L144.43 24.24Q144.13 23.79 143.52 22.83L143.58 22.90L143.52 22.83Q142.53 21.81 140.55 21.35L140.58 21.38L140.69 21.49Q141.87 19.85 144.84 16.16L144.75 16.07L149.03 10.84L148.98 10.78Q147.49 11.72 145.09 12.49L145.13 12.53L144.97 12.37Q146.02 11.51 147.81 9.53L147.78 9.50L147.73 9.45Q145.33 10.52 141.44 11.09L141.53 11.17L141.42 11.07Q135.84 17.09 132.87 22.04L132.80 21.98L132.79 21.96Q131.21 24.42 130.64 30.66L130.63 30.65L130.66 30.69Q130.58 31.25 130.66 32.20L130.78 32.32L130.80 32.35Q130.71 33.93 131.81 34.84L131.86 34.89L131.98 35.02Q132.33 35.13 132.29 35.17L132.23 35.11L132.25 35.13Q132.61 36.02 133.41 36.44L133.49 36.52L133.45 36.49Q134.84 37.11 136.79 37.30L136.81 37.33L136.89 37.41Q136.75 37.27 140.25 37.57ZM140.04 26.36L140.02 26.34L140.15 26.47Q140.56 26.20 141.52 26.69L141.50 26.68L141.56 26.74Q142.02 27.81 142.02 28.45L141.84 28.28L141.88 28.31Q142.17 30.27 141.21 31.26L141.15 31.20L141.11 31.16Q140.09 31.93 137.99 32.23L138.08 32.31L138.07 32.31Q136.59 32.27 136.06 32.01L136.07 32.02L136.07 32.02Q135.75 31.44 135.75 31.13L135.91 31.29L135.84 31.22Q135.72 28.05 138.65 26.76L138.48 26.59L138.57 26.68Q139.22 26.22 139.98 26.30Z"/><path d="M11 3 C120 29,114 33,192 33" stroke="#888" fill="none"/></svg>