<svg xmlns="http://www.w3.org/2000/svg" width="200" height="40" viewBox="0,0,200,40"><path fill="#222" d="M130.35 9.24L130.48 9.38L130.38 9.27Q134.21 11.85 138.97 12.08L139.06 12.17L138.88 11.99Q143.67 12.32 147.93 10.57L147.76 10.40L147.79 10.43Q147.69 11.13 146.93 13.91L146.92 13.90L146.78 13.76Q144.04 14.79 141.07 14.94L141.06 14.93L141.08 14.95Q138.19 15.18 135.29 14.45L135.22 14.38L135.26 14.42Q135.91 18.00 136.10 21.65L136.14 21.69L136.10 21.66Q138.21 21.98 139.81 21.94L139.78 21.91L139.78 21.91Q141.04 21.95 143.44 21.84L143.33 21.73L143.40 21.80Q143.30 22.38 143.30 23.07L143.39 23.16L143.27 24.37L143.31 24.42Q140.86 24.36 136.06 24.44L136.07 24.45L136.14 24.51Q136.07 28.56 135.50 32.55L135.68 32.73L135.65 32.70Q138.28 32.06 141.02 32.17L141.00 32.15L141.05 32.20Q143.65 32.18 146.24 33.01L146.30 33.08L146.30 33.07Q146.25 33.74 146.51 34.51L146.49 34.49L147.00 36.06L147.14 36.20Q143.88 34.84 140.45 34.84L140.37 34.76L140.51 34.90Q135.60 34.87 131.34 37.11L131.30 37.07L131.19 36.96Q133.55 30.19 133.29 23.07L133.35 23.14L133.39 23.17Q133.09 15.98 130.43 9.32ZM130.78 37.77L130.75 37.74L130.81 37.80Q132.05 37.06 132.81 36.72L132.86 36.77L132.80 36.70Q132.57 37.43 132.00 38.95L131.97 38.92L132.06 39.01Q136.48 36.92 141.54 37.19L141.57 37.21L141.62 37.26Q146.79 37.56 150.78 40.26L150.84 40.32L150.72 40.20Q149.70 37.81 149.02 35.87L148.93 35.78L148.99 35.84Q147.89 35.12 146.90 34.78L146.93 34.81L147.02 34.90Q146.63 33.52 146.48 32.72L146.43 32.67L146.43 32.67Q143.35 31.69 140.19 31.69L140.23 31.73L140.16 31.66Q139.05 31.69 137.90 31.80L137.82 31.72L137.89 31.78Q137.96 30.49 138.00 29.27L138.10 29.37L138.17 26.85L138.05 26.73Q139.96 26.74 141.75 26.77L141.73 26.75L141.76 26.79Q143.56 26.80 145.35 26.95L145.31 26.91L145.45 27.05Q145.30 26.02 145.30 25.07L145.30 25.07L145.32 23.19L144.45 23.19L144.54 23.28Q143.97 23.21 143.52 23.21L143.65 23.34L143.60 23.30Q143.56 22.57 143.71 21.27L143.75 21.31L143.77 21.33Q142.11 21.50 140.93 21.54L141.04 21.65L140.91 21.52Q140.01 21.57 138.18 21.49L138.21 21.52L138.23 21.54Q138.12 20.10 137.93 17.28L137.95 17.31L137.92 17.27Q138.87 17.31 139.86 17.31L140.03 17.47L140.04 17.48Q144.71 17.44 148.40 15.54L148.35 15.48L148.44 15.57Q148.95 13.15 149.83 10.94L149.75 10.87L149.81 10.92Q148.46 11.75 147.63 12.09L147.68 12.15L147.74 12.21Q147.98 11.38 148.44 9.82L148.38 9.76L148.44 9.82Q143.87 12.03 138.99 11.72L138.91 11.64L138.83 11.56Q133.68 11.39 129.83 8.54L129.77 8.48L129.81 8.52Q132.70 15.48 133.00 23.09L132.88 22.96L132.99 23.07Q133.38 31.08 130.86 37.85Z"/><path fill="#222" d="M25.46 24.28L25.27 24.09L25.29 24.10Q23.50 24.18 22.29 25.52L22.31 25.54L22.24 25.47Q21.03 26.81 20.88 28.72L20.97 28.81L20.96 28.80Q20.78 30.94 22.00 31.95L21.87 31.82L21.92 31.87Q23.19 32.93 25.32 32.85L25.22 32.76L25.29 32.83Q27.72 32.78 28.67 31.82L28.55 31.71L28.58 31.73Q29.51 30.19 29.40 28.36L29.42 28.38L29.45 28.41Q29.37 26.58 28.28 25.38L28.22 25.33L28.32 25.42Q27.11 24.09 25.28 24.09ZM25.31 14.72L25.30 14.71L25.39 14.80Q24.00 14.71 22.67 15.20L22.52 15.05L22.68 15.21Q21.20 15.83 21.43 17.70L21.53 17.79L21.44 17.70Q21.97 21.47 25.32 21.47L25.44 21.59L25.45 21.60Q26.93 21.71 27.92 20.57L28.01 20.65L28.02 20.67Q28.99 19.50 29.03 17.94L28.93 17.84L28.89 17.80Q29.06 16.15 28.33 15.54L28.34 15.55L28.36 15.56Q26.65 14.69 25.36 14.77ZM24.97 35.21L25.12 35.36L21.94 35.22L22.01 35.29Q20.54 35.34 19.21 34.47L19.22 34.48L19.07 34.33Q17.84 33.33 17.99 30.47L17.94 30.42L18.03 30.51Q18.35 23.52 21.97 22.53L21.95 22.51L21.97 22.54Q19.66 21.59 18.33 16.23L18.49 16.39L18.37 16.27Q18.11 14.94 18.18 14.14L18.18 14.14L18.22 14.18Q18.37 11.89 22.06 11.85L22.11 11.90L22.08 11.87Q26.31 11.80 27.76 11.99L27.91 12.14L27.81 12.04Q31.60 12.53 32.06 14.54L32.20 14.69L32.14 14.62Q32.19 15.17 32.19 15.55L32.25 15.61L32.19 15.55Q32.13 16.18 31.94 16.78L31.95 16.79L32.12 16.96Q31.49 21.17 28.56 22.69L28.44 22.57L28.47 22.60Q31.95 23.38 32.45 28.67L32.46 28.68L32.49 28.71Q32.45 28.83 32.49 30.12L32.58 30.22L32.58 30.21Q32.60 32.89 31.00 33.96L31.01 33.98L31.10 34.06Q29.57 34.78 25.00 35.24ZM27.31 37.59L27.29 37.57L30.72 37.72L30.66 37.66Q32.48 37.84 34.00 37.11L33.91 37.03L34.00 37.11Q35.15 36.41 35.23 34.54L35.09 34.40L35.13 34.44Q35.28 33.45 34.90 31.50L34.74 31.35L34.85 31.45Q34.00 26.87 31.91 25.01L31.88 24.99L31.62 24.53L31.40 24.23L31.33 24.05L31.21 23.93Q32.82 22.54 33.74 18.39L33.76 18.41L33.92 18.58Q33.73 18.00 33.81 17.17L33.83 17.19L33.84 17.19Q33.94 16.54 33.86 15.93L33.99 16.06L33.99 16.05Q33.77 14.54 32.59 14.05L32.54 14.00L32.64 14.06L32.42 13.92L32.33 13.83Q32.16 13.19 30.98 12.39L30.91 12.33L30.94 12.32L30.93 12.31Q29.08 11.75 25.01 11.56L24.92 11.48L25.05 11.60Q23.37 11.37 22.00 11.49L21.97 11.45L21.98 11.47Q21.13 11.46 19.84 11.61L19.86 11.63L19.86 11.63Q18.05 12.15 17.82 13.78L17.73 13.69L17.78 13.74Q17.76 14.25 17.80 15.05L17.84 15.09L17.84 15.10Q17.83 15.50 18.40 17.86L18.50 17.96L18.36 17.82Q19.31 21.20 21.06 22.54L20.93 22.40L21.01 22.49L21.15 22.63Q18.22 23.77 17.69 28.95L17.69 28.95L17.72 28.98Q17.66 31.32 17.66 32.23L17.64 32.22L17.58 32.16Q17.62 33.91 18.80 34.82L18.79 34.81L18.88 34.90Q18.97 34.95 19.24 35.14L19.18 35.08L19.25 35.16Q20.29 37.45 27.40 37.68ZM26.96 26.49L27.05 26.59L27.10 26.64Q27.88 26.42 28.75 26.88L28.86 26.99L28.86 26.99Q29.27 28.01 29.23 28.54L29.10 28.41L29.22 28.53Q29.22 28.80 29.22 29.10L29.12 29.00L29.27 29.15Q29.21 31.45 26.92 32.28L26.81 32.18L26.80 32.16Q26.03 32.50 25.23 32.38L25.33 32.48L25.22 32.37Q24.23 32.60 23.09 32.14L23.09 32.14L23.14 32.20Q22.83 31.50 22.91 30.51L22.85 30.46L22.77 30.38Q22.95 28.80 24.15 27.59L24.13 27.57L24.23 27.67Q25.41 26.43 27.01 26.55ZM27.21 17.04L27.23 17.06L27.24 17.07Q27.96 16.88 28.49 17.03L28.58 17.12L28.58 17.92L28.66 17.99Q28.61 19.35 27.70 20.36L27.69 20.36L27.59 20.25Q26.75 21.34 25.38 21.15L25.36 21.13L25.31 21.08Q24.32 21.08 23.91 20.85L23.99 20.94L23.88 20.83Q23.99 20.71 23.88 20.03L23.88 20.03L23.89 20.03Q23.54 18.54 24.75 17.71L24.70 17.65L24.78 17.73Q25.79 16.99 27.20 17.03Z"/><path fill="#333" d="M51.52 21.77L51.65 21.89L51.59 21.83Q53.45 22.05 55.27 22.05L55.22 22.00L55.16 21.94Q56.90 21.89 58.72 21.73L58.74 21.75L58.79 21.80Q58.77 22.54 58.77 23.27L58.73 23.22L58.64 24.46L58.67 24.50Q56.41 24.59 51.65 24.71L51.67 24.73L51.60 24.66Q51.58 30.58 50.44 35.57L50.48 35.61L50.37 35.50Q48.18 36.20 46.70 37.00L46.66 36.96L46.81 37.11Q48.99 30.16 48.72 23.04L48.82 23.13L48.85 23.17Q48.62 16.04 45.95 9.38L45.83 9.26L45.78 9.21Q49.49 11.78 54.25 12.01L54.36 12.12L54.35 12.11Q58.89 12.15 63.04 10.40L63.05 10.41L63.05 10.41Q62.82 11.29 62.59 12.09L62.63 12.13L62.16 13.75L62.21 13.80Q59.34 14.74 56.37 14.89L56.39 14.91L56.52 15.03Q53.57 15.17 50.72 14.45L50.72 14.46L50.65 14.39Q51.30 17.74 51.49 21.74ZM63.70 9.73L63.73 9.76L63.86 9.89Q59.16 11.93 54.29 11.62L54.29 11.62L54.19 11.53Q48.89 11.25 45.16 8.40L45.19 8.43L45.28 8.52Q48.12 15.43 48.43 23.05L48.48 23.10L48.37 22.99Q48.71 30.95 46.20 37.72L46.29 37.81L46.26 37.78Q46.85 37.30 48.22 36.66L48.21 36.65L48.28 36.72Q48.01 37.40 47.43 38.92L47.55 39.04L47.53 39.02Q49.86 37.95 52.75 37.46L52.80 37.51L52.73 37.44Q53.30 32.53 53.49 26.82L53.44 26.77L53.60 26.93Q55.28 26.78 57.10 26.78L57.05 26.73L57.19 26.86Q58.87 26.75 60.70 26.94L60.82 27.06L60.71 26.95Q60.67 26.07 60.67 25.16L60.56 25.05L60.57 23.16L60.60 23.19Q59.89 23.35 59.05 23.35L59.10 23.41L59.01 23.31Q59.13 22.56 59.20 21.53L59.14 21.47L59.04 21.36Q57.84 21.73 56.43 21.73L56.33 21.62L56.29 21.58Q54.91 21.61 53.54 21.57L53.57 21.61L53.47 19.37L53.44 19.34Q53.52 18.36 53.41 17.29L53.30 17.19L53.38 17.26Q54.33 17.30 55.32 17.30L55.32 17.30L55.36 17.34Q60.02 17.25 63.64 15.34L63.72 15.42L63.65 15.35Q64.15 13.53 65.06 10.91L65.11 10.95L65.09 10.93Q63.85 11.82 63.05 12.16L63.09 12.21L63.09 12.20Q63.33 11.42 63.83 9.86Z"/><path d="M9 29 C118 19,101 20,185 20" stroke="#444" fill="none"/><path d="M17 27 C95 19,107 31,186 3" stroke="#888" fill="none"/><path fill="#222" d="M169.86 34.75L170.06 34.94L167.99 34.82L167.94 34.76Q167.16 34.94 166.21 35.05L166.21 35.06L166.12 34.96Q166.68 28.74 166.68 24.75L166.66 24.73L166.66 24.73Q162.79 18.16 155.14 9.48L154.99 9.33L155.14 9.48Q156.84 10.38 160.19 11.18L160.22 11.21L160.24 11.23Q165.32 16.84 168.33 22.06L168.21 21.94L168.22 21.96Q171.24 16.41 175.62 11.38L175.70 11.46L175.77 11.53Q178.05 11.00 180.57 10.20L180.49 10.12L180.49 10.12Q174.47 16.24 169.59 24.66L169.60 24.66L169.56 24.63Q169.69 31.79 169.99 34.88ZM179.02 12.23L181.78 9.43L181.83 9.49Q178.69 10.61 175.57 11.06L175.46 10.96L175.48 10.97Q171.30 15.74 168.48 20.84L168.61 20.97L168.45 20.81Q166.39 17.23 163.19 13.34L163.20 13.35L163.20 13.35Q163.01 13.42 162.51 13.35L162.37 13.21L162.40 13.24Q161.64 12.36 160.12 10.69L160.17 10.74L160.27 10.84Q156.88 10.08 153.91 8.52L153.82 8.42L153.88 8.49Q161.59 16.95 166.35 24.87L166.32 24.85L166.43 24.96Q166.16 31.12 165.55 35.27L165.66 35.38L165.62 35.34Q166.42 35.38 167.87 35.27L167.80 35.19L167.78 36.21L167.85 36.28Q167.92 36.81 167.85 37.34L167.74 37.23L167.79 37.28Q171.22 37.17 172.97 37.36L173.13 37.52L172.99 37.38Q171.73 32.69 171.62 26.72L171.73 26.83L171.69 26.79Q176.06 18.33 182.61 10.99L182.59 10.97L179.07 12.28Z"/><path fill="#111" d="M82.86 25.42L82.83 25.39L82.84 25.40Q79.30 31.69 75.87 35.65L75.94 35.71L75.98 35.75Q74.03 36.09 71.59 36.96L71.68 37.05L71.73 37.10Q76.60 31.46 81.36 23.05L81.26 22.95L81.41 23.10Q76.74 16.07 70.76 9.68L70.76 9.67L70.80 9.71Q73.67 10.87 75.95 11.36L76.01 11.42L76.02 11.43Q80.51 16.49 82.95 20.45L83.08 20.58L83.00 20.50Q85.52 16.10 89.45 11.68L89.39 11.63L89.41 11.65Q91.08 11.41 94.28 10.65L94.26 10.64L94.26 10.63Q88.23 17.13 84.77 23.07L84.76 23.06L84.76 23.06Q89.88 31.68 94.26 36.25L94.34 36.33L94.17 36.17Q91.58 35.36 89.48 35.13L89.55 35.20L89.66 35.31Q86.84 32.30 82.92 25.49ZM89.47 35.54L89.60 35.67L89.49 35.56Q89.80 35.60 90.26 35.72L90.26 35.72L90.24 35.70Q91.14 36.56 92.66 38.16L92.55 38.05L92.56 38.06Q95.90 38.84 98.94 40.21L99.01 40.28L99.07 40.34Q91.78 33.58 86.68 24.83L86.69 24.84L86.78 24.93Q90.55 18.30 96.45 11.45L96.36 11.36L96.30 11.31Q94.87 11.97 92.70 12.50L92.87 12.67L92.76 12.56Q93.55 11.57 95.30 9.78L95.42 9.90L95.49 9.96Q93.09 10.84 89.40 11.41L89.40 11.40L89.26 11.27Q85.80 15.04 83.21 19.35L83.35 19.48L83.34 19.47Q82.48 17.92 81.30 16.44L81.26 16.41L79.01 13.51L78.53 13.41L78.46 13.33Q78.41 13.44 78.19 13.37L78.09 13.27L78.22 13.40Q77.55 12.58 76.06 11.02L75.95 10.90L75.89 10.84Q72.09 9.97 69.50 8.60L69.59 8.69L69.53 8.63Q76.42 16.06 80.99 23.10L80.94 23.05L80.94 23.05Q76.48 31.26 70.73 37.85L70.60 37.72L70.66 37.78Q72.07 37.21 74.20 36.64L74.05 36.49L72.74 37.92L72.90 38.08Q72.80 37.98 71.47 39.31L71.53 39.38L71.47 39.31Q74.41 38.18 77.57 37.68L77.61 37.73L77.69 37.81Q81.66 33.25 84.25 28.49L84.25 28.49L84.23 28.47Q86.72 32.63 89.42 35.49Z"/><path fill="#333" d="M107.49 25.69L107.43 25.64L107.47 25.67Q107.46 25.67 110.85 25.63L110.81 25.58L110.92 25.69Q113.10 25.59 114.17 25.63L114.05 25.51L114.06 25.53Q113.01 22.64 110.57 17.01L110.63 17.07L110.74 17.18Q110.11 18.53 109.06 21.38L109.11 21.43L108.98 21.30Q107.91 24.14 107.34 25.55ZM115.21 28.04L115.18 28.01L115.25 28.08Q112.90 27.98 110.69 28.01L110.81 28.14L110.75 28.08Q108.47 28.08 106.19 28.27L106.23 28.31L106.33 28.41Q104.78 31.82 101.55 36.00L101.49 35.95L101.49 35.94Q99.00 36.65 97.63 37.15L97.58 37.10L97.56 37.08Q102.63 31.38 107.31 18.01L107.40 18.10L107.43 18.14Q108.64 14.66 110.01 11.43L109.90 11.32L109.93 11.35Q110.35 11.46 110.69 11.46L110.66 11.42L111.26 11.30L111.40 11.44Q112.06 12.71 116.89 24.36L116.89 24.36L116.99 24.45Q120.11 32.15 124.11 36.30L124.20 36.38L124.27 36.46Q123.67 36.24 119.79 35.37L119.86 35.44L119.81 35.39Q117.24 32.24 115.26 28.09ZM119.72 35.72L119.65 35.65L120.37 35.87L120.39 35.89Q120.58 35.85 120.88 35.96L120.78 35.86L120.92 36.00Q121.18 36.30 123.01 38.32L123.13 38.44L123.07 38.38Q126.64 39.21 129.04 40.24L129.01 40.21L129.11 40.30Q123.47 35.62 119.48 27.63L119.50 27.65L119.58 27.73Q117.97 24.45 116.52 20.49L116.54 20.50L113.79 12.99L113.79 12.99Q113.47 13.02 113.24 13.02L113.34 13.11L112.69 13.00L112.82 13.12Q112.29 12.29 111.56 10.92L111.53 10.89L111.54 10.90Q111.20 11.09 110.74 11.05L110.69 11.00L110.64 10.95Q110.22 10.94 109.68 10.94L109.70 10.96L109.63 10.89Q108.34 14.93 104.46 25.10L104.35 24.99L104.40 25.04Q101.18 32.90 96.54 37.70L96.63 37.79L96.61 37.77Q97.63 37.34 99.65 36.73L99.71 36.79L99.57 36.65Q98.92 37.64 97.36 39.43L97.42 39.49L97.31 39.39Q99.10 38.82 103.03 38.05L103.01 38.03L102.96 37.99Q106.36 33.62 107.92 30.39L107.88 30.35L107.99 30.46Q109.77 30.37 112.09 30.40L112.09 30.41L112.07 30.38Q114.81 30.43 116.19 30.50L116.03 30.35L116.14 30.46Q117.43 32.85 119.79 35.78ZM111.99 21.01L111.92 20.95L112.05 21.07Q112.94 23.18 113.70 25.28L113.56 25.14L110.35 25.24L110.32 25.21Q110.95 23.82 112.01 21.04Z"/></svg>