<svg xmlns="http://www.w3.org/2000/svg" width="200" height="40" viewBox="0,0,200,40"><path fill="#111" d="M166.87 24.26L166.86 24.25L166.78 24.17Q164.85 24.10 163.63 25.43L163.78 25.58L163.65 25.45Q162.56 26.91 162.40 28.81L162.32 28.73L162.41 28.82Q162.16 30.89 163.38 31.90L163.39 31.91L163.45 31.97Q164.61 32.93 166.75 32.85L166.63 32.74L166.64 32.75Q168.96 32.59 169.92 31.64L170.01 31.73L169.95 31.68Q171.11 30.36 171.00 28.54L170.91 28.45L170.97 28.50Q170.80 26.58 169.71 25.38L169.62 25.29L169.76 25.43Q168.71 24.27 166.89 24.27ZM166.84 14.82L166.67 14.65L166.85 14.83Q165.33 14.60 163.99 15.10L164.04 15.15L164.05 15.16Q162.72 15.91 162.94 17.78L162.91 17.74L162.97 17.80Q163.38 21.45 166.73 21.45L166.81 21.53L166.84 21.56Q168.30 21.65 169.29 20.51L169.38 20.60L169.34 20.56Q170.44 19.52 170.48 17.96L170.30 17.78L170.31 17.80Q170.50 16.16 169.78 15.55L169.83 15.61L169.72 15.49Q168.10 14.71 166.81 14.79ZM166.58 35.39L166.45 35.25L163.52 35.37L163.52 35.38Q161.84 35.21 160.51 34.34L160.62 34.45L160.63 34.47Q159.22 33.28 159.37 30.43L159.37 30.42L159.41 30.47Q159.87 23.61 163.48 22.62L163.51 22.64L163.51 22.65Q161.20 21.71 159.87 16.34L159.85 16.33L159.93 16.40Q159.58 14.99 159.66 14.19L159.49 14.02L159.55 14.08Q159.92 12.01 163.61 11.98L163.62 11.99L163.57 11.93Q167.70 11.76 169.15 11.95L169.21 12.01L169.33 12.14Q173.07 12.57 173.53 14.58L173.63 14.68L173.63 14.68Q173.74 15.29 173.74 15.67L173.65 15.58L173.72 15.65Q173.71 16.33 173.52 16.94L173.41 16.82L173.48 16.89Q172.95 21.20 170.02 22.72L170.00 22.70L169.91 22.61Q173.48 23.48 173.97 28.77L173.91 28.71L173.95 28.74Q173.88 28.83 173.92 30.13L174.06 30.26L173.93 30.13Q174.05 32.92 172.45 33.99L172.37 33.91L172.43 33.97Q171.01 34.80 166.45 35.25ZM168.81 37.65L168.87 37.71L172.04 37.61L172.07 37.64Q173.92 37.85 175.44 37.13L175.28 36.97L175.41 37.10Q176.60 36.43 176.68 34.56L176.54 34.42L176.51 34.39Q176.64 33.38 176.26 31.44L176.32 31.50L176.24 31.42Q175.28 26.72 173.18 24.86L173.31 24.99L173.06 24.54L172.82 24.23L172.62 23.91L172.70 24.00Q174.28 22.57 175.20 18.42L175.29 18.51L175.23 18.46Q175.20 18.04 175.28 17.21L175.42 17.35L175.27 17.20Q175.40 16.57 175.33 15.96L175.37 16.01L175.27 15.91Q175.19 14.53 174.01 14.04L173.93 13.96L174.01 14.00L173.92 13.98L173.81 13.87Q173.49 13.10 172.31 12.30L172.34 12.33L172.39 12.34L172.37 12.32Q170.55 11.80 166.48 11.61L166.36 11.49L166.43 11.55Q164.82 11.40 163.45 11.51L163.37 11.43L163.47 11.53Q162.60 11.50 161.31 11.65L161.40 11.75L161.35 11.70Q159.34 12.01 159.12 13.65L159.11 13.64L159.21 13.74Q159.16 14.23 159.20 15.03L159.27 15.09L159.25 15.07Q159.37 15.61 159.94 17.97L159.82 17.85L159.93 17.96Q160.63 21.09 162.38 22.43L162.47 22.52L162.43 22.48L162.48 22.53Q159.72 23.84 159.19 29.02L159.24 29.08L159.28 29.11Q158.99 31.22 158.99 32.13L158.92 32.06L159.00 32.15Q159.11 33.97 160.29 34.88L160.24 34.83L160.33 34.93Q160.41 34.97 160.68 35.16L160.72 35.20L160.66 35.14Q161.68 37.41 168.80 37.64ZM168.51 26.62L168.39 26.50L168.35 26.46Q169.33 26.45 170.21 26.91L170.22 26.92L170.32 27.02Q170.61 27.92 170.57 28.45L170.51 28.39L170.67 28.55Q170.61 28.76 170.61 29.07L170.65 29.10L170.61 29.06Q170.66 31.48 168.38 32.31L168.30 32.24L168.37 32.30Q167.58 32.62 166.78 32.50L166.74 32.47L166.79 32.51Q165.58 32.52 164.44 32.06L164.57 32.19L164.47 32.09Q164.25 31.50 164.33 30.51L164.23 30.41L164.26 30.44Q164.39 28.82 165.59 27.60L165.71 27.72L165.69 27.70Q166.92 26.51 168.52 26.63ZM168.63 17.03L168.58 16.98L168.67 17.07Q169.49 16.98 170.03 17.13L170.03 17.14L169.92 17.83L170.03 17.94Q170.04 19.36 169.13 20.37L169.04 20.28L169.04 20.27Q168.09 21.25 166.71 21.05L166.73 21.07L166.75 21.09Q165.87 21.20 165.45 20.97L165.37 20.89L165.30 20.82Q165.31 20.60 165.20 19.92L165.15 19.87L165.17 19.89Q165.07 18.65 166.29 17.81L166.24 17.76L166.13 17.65Q167.16 16.93 168.57 16.97Z"/><path d="M14 18 C81 37,109 35,194 37" stroke="#555" fill="none"/><path fill="#222" d="M138.55 14.61L138.53 14.59L136.98 14.72L136.92 14.66Q134.68 14.78 134.45 16.79L134.51 16.85L134.56 16.90Q134.41 17.55 134.44 18.54L134.55 18.64L134.44 18.53Q134.54 20.54 135.80 21.87L135.89 21.96L135.88 21.95Q137.04 23.19 138.95 23.04L139.02 23.11L139.03 23.12Q140.99 22.87 141.75 21.96L141.84 22.05L141.69 21.90Q142.83 21.06 143.10 18.82L143.12 18.83L143.04 18.75Q143.39 16.60 142.14 15.76L142.18 15.80L142.18 15.80Q141.22 14.92 138.56 14.62ZM144.72 23.97L144.64 23.90L143.27 26.10L143.39 26.22Q140.67 31.00 136.90 35.08L136.89 35.07L136.95 35.12Q135.23 35.20 132.53 36.00L132.43 35.90L132.56 36.03Q137.90 29.76 141.06 24.96L141.04 24.94L140.95 24.85Q139.95 25.52 138.31 25.60L138.27 25.56L138.43 25.72Q135.42 25.87 133.89 23.89L133.79 23.78L133.90 23.89Q132.63 22.24 131.52 17.67L131.51 17.65L131.45 17.60Q131.55 17.24 131.40 16.31L131.32 16.23L131.30 16.21Q131.19 15.32 131.19 14.86L131.15 14.82L131.17 14.84Q131.23 13.12 132.30 12.51L132.18 12.38L132.19 12.40Q133.38 11.61 135.25 11.61L135.26 11.63L135.33 11.70Q138.63 11.80 138.63 11.80L138.58 11.74L138.47 11.63Q140.66 11.70 141.92 11.89L141.93 11.90L141.93 11.90Q144.18 12.28 145.09 12.78L145.03 12.71L145.06 12.74Q146.32 13.40 146.51 15.15L146.54 15.17L146.62 15.25Q146.54 15.40 146.35 18.07L146.47 18.19L146.41 18.13Q146.08 20.31 145.85 21.15L145.68 20.97L145.83 21.13Q145.38 22.46 144.62 23.87ZM146.56 26.31L146.51 26.26L146.45 26.20Q147.59 24.15 148.13 19.84L148.14 19.86L148.09 19.81Q148.26 17.50 148.22 16.63L148.25 16.66L148.20 16.61Q148.23 14.81 147.05 13.90L147.10 13.95L146.78 13.81L146.83 13.86Q146.47 13.01 145.56 12.37L145.56 12.37L145.53 12.34Q143.27 11.37 138.47 11.22L138.46 11.21L138.48 11.23Q137.45 11.15 135.02 11.15L135.20 11.34L135.14 11.28Q133.33 11.21 131.84 11.90L131.88 11.94L131.90 11.96Q130.75 12.75 130.83 14.58L130.82 14.57L130.85 14.60Q131.09 15.57 131.28 17.58L131.26 17.56L131.16 17.46Q131.87 20.18 132.13 21.02L132.00 20.89L132.04 20.93Q132.71 22.90 133.67 24.19L133.50 24.02L133.61 24.13Q133.93 24.53 134.31 24.91L134.25 24.85L134.25 24.85Q134.50 25.29 135.15 26.21L135.09 26.14L135.22 26.28Q136.56 27.50 138.50 27.69L138.56 27.76L138.51 27.70Q136.73 30.49 135.17 32.40L135.09 32.32L131.41 36.63L131.41 36.63Q133.84 36.05 135.48 35.71L135.34 35.57L135.28 35.51Q134.67 36.54 133.11 38.25L133.03 38.18L133.05 38.19Q136.12 37.27 139.24 37.23L139.27 37.26L139.35 37.34Q141.52 34.59 145.86 27.36L145.86 27.36L145.87 27.45L145.86 27.44Q146.17 26.76 146.51 26.27ZM140.60 17.12L140.45 16.97L140.60 17.11Q141.11 16.90 141.56 17.01L141.52 16.97L141.64 17.09Q142.24 17.15 142.62 17.27L142.55 17.20L142.62 17.27Q142.80 17.71 142.87 18.13L142.85 18.11L142.85 18.11Q142.86 18.46 142.75 18.84L142.80 18.90L142.77 18.87Q142.79 20.63 141.61 21.74L141.59 21.73L141.62 21.76Q140.62 22.73 138.98 22.69L139.00 22.71L138.96 22.67Q138.45 22.58 136.92 22.27L137.07 22.42L137.11 22.46Q136.87 21.57 136.87 20.85L136.77 20.74L136.76 20.74Q136.75 20.53 136.75 20.31L136.78 20.34L136.80 20.36Q136.80 18.15 139.09 17.35L139.07 17.34L139.09 17.36Q139.66 17.01 140.50 17.01Z"/><path d="M5 10 C117 25,106 22,184 16" stroke="#444" fill="none"/><path fill="#333" d="M102.10 9.28L102.21 9.39L102.13 9.31Q105.83 11.76 110.59 11.99L110.60 11.99L110.71 12.11Q115.38 12.32 119.64 10.57L119.59 10.52L119.52 10.44Q119.41 11.13 118.64 13.91L118.64 13.91L118.51 13.77Q115.89 14.93 112.92 15.08L112.84 15.00L112.87 15.03Q109.79 15.07 106.89 14.34L106.94 14.39L106.97 14.42Q107.66 18.04 107.85 21.69L107.79 21.63L107.80 21.64Q109.94 21.99 111.54 21.95L111.40 21.82L111.56 21.97Q112.76 21.96 115.16 21.85L115.15 21.84L115.15 21.84Q114.98 22.35 114.98 23.03L115.01 23.07L115.14 24.53L115.13 24.52Q112.57 24.35 107.77 24.43L107.79 24.45L107.83 24.49Q107.77 28.54 107.20 32.54L107.26 32.59L107.39 32.73Q109.98 32.05 112.73 32.16L112.69 32.13L112.57 32.01Q115.32 32.13 117.91 32.97L117.90 32.96L118.05 33.11Q118.13 33.91 118.40 34.68L118.30 34.58L118.68 36.02L118.78 36.12Q115.47 34.72 112.04 34.72L112.07 34.75L112.10 34.77Q107.24 34.79 102.98 37.04L102.92 36.98L103.03 37.09Q105.26 30.18 105.00 23.07L105.15 23.22L104.96 23.03Q104.76 15.94 102.10 9.28ZM102.59 37.86L102.43 37.70L102.44 37.71Q103.67 36.97 104.43 36.63L104.47 36.66L104.60 36.79Q104.29 37.43 103.72 38.95L103.67 38.91L103.77 39.01Q108.19 36.92 113.26 37.19L113.42 37.35L113.29 37.22Q118.50 37.56 122.50 40.26L122.52 40.28L122.45 40.22Q121.27 37.66 120.59 35.72L120.63 35.76L120.60 35.74Q119.62 35.13 118.63 34.79L118.65 34.82L118.60 34.77Q118.22 33.40 118.07 32.60L118.25 32.78L118.25 32.78Q115.08 31.71 111.92 31.71L111.94 31.72L111.89 31.67Q110.85 31.77 109.70 31.88L109.71 31.89L109.66 31.84Q109.69 30.50 109.73 29.28L109.71 29.26L109.92 26.88L109.80 26.77Q111.71 26.77 113.50 26.81L113.45 26.76L113.37 26.68Q115.39 26.91 117.18 27.06L117.09 26.98L117.08 26.96Q116.99 26.00 116.99 25.04L117.02 25.07L117.03 23.19L116.12 23.15L116.21 23.24Q115.87 23.39 115.41 23.39L115.24 23.22L115.42 23.40Q115.27 22.56 115.42 21.27L115.53 21.38L115.55 21.40Q113.98 21.65 112.80 21.69L112.74 21.63L112.63 21.52Q111.70 21.55 109.88 21.47L110.00 21.60L109.87 21.47Q109.95 20.21 109.76 17.40L109.65 17.29L109.57 17.21Q110.76 17.48 111.75 17.48L111.77 17.50L111.61 17.35Q116.35 17.36 120.04 15.46L120.00 15.42L120.10 15.51Q120.72 13.20 121.59 11.00L121.56 10.97L121.58 10.99Q120.26 11.83 119.42 12.17L119.41 12.16L119.33 12.08Q119.62 11.31 120.08 9.74L120.11 9.78L120.20 9.86Q115.41 11.85 110.54 11.55L110.55 11.56L110.61 11.62Q105.30 11.30 101.46 8.45L101.47 8.46L101.40 8.40Q104.41 15.48 104.72 23.09L104.63 23.01L104.61 22.99Q105.03 31.02 102.52 37.79Z"/><path fill="#222" d="M25.58 35.26L25.58 35.27L23.19 28.42L23.01 28.24Q18.78 15.79 12.84 9.39L12.85 9.40L12.81 9.36Q14.72 10.32 17.31 10.93L17.41 11.02L17.43 11.04Q22.54 17.30 26.88 30.05L26.95 30.12L26.92 30.10Q29.97 21.99 30.65 20.39L30.52 20.25L30.57 20.30Q32.94 14.68 35.76 11.37L35.81 11.42L35.90 11.51Q37.83 11.00 40.45 10.13L40.43 10.10L40.52 10.19Q35.86 14.70 32.81 21.94L32.82 21.95L32.94 22.06Q31.56 25.75 27.87 35.27L27.78 35.18L27.88 35.28Q27.15 35.12 26.58 35.08L26.60 35.10L26.59 35.10Q26.09 35.17 25.52 35.21ZM30.50 37.60L30.45 37.55L30.48 37.57Q33.31 27.61 34.87 23.58L34.86 23.57L34.82 23.53Q37.90 15.90 42.31 11.03L42.37 11.09L42.30 11.02Q41.31 11.44 39.21 12.16L39.21 12.16L40.32 10.79L40.23 10.71Q40.92 10.13 41.53 9.49L41.58 9.54L41.52 9.48Q38.63 10.39 35.62 10.96L35.77 11.11L35.72 11.07Q31.39 16.45 27.51 27.90L27.32 27.72L27.41 27.80Q23.74 17.67 20.54 13.29L20.51 13.25L20.51 13.26Q20.10 13.14 19.22 12.99L19.25 13.02L19.28 13.05Q19.14 12.76 17.54 10.70L17.55 10.71L17.43 10.59Q14.49 9.89 11.78 8.49L11.76 8.46L11.75 8.46Q18.35 15.51 22.73 28.30L22.87 28.44L22.80 28.37Q24.11 32.11 25.29 35.69L25.22 35.63L25.17 35.58Q25.58 35.68 26.41 35.56L26.45 35.60L26.34 35.49Q26.77 36.26 27.46 37.60L27.42 37.56L27.36 37.50Q28.34 37.57 29.06 37.64L28.91 37.49L28.94 37.52Q29.73 37.59 30.49 37.59Z"/><path fill="#333" d="M77.25 14.24L77.19 14.18L77.12 14.11Q78.29 18.63 78.44 21.83L78.39 21.77L78.53 21.92Q78.91 21.84 83.29 21.95L83.33 21.99L83.35 22.02Q85.83 21.99 86.21 18.52L86.19 18.50L86.31 18.62Q86.53 16.89 85.61 15.98L85.54 15.91L85.54 15.90Q84.32 15.07 82.34 14.91L82.31 14.88L82.32 14.89Q79.13 14.71 77.26 14.25ZM78.64 23.85L78.66 23.87L78.64 23.85Q78.85 29.88 77.06 35.82L76.92 35.69L77.02 35.78Q75.65 35.97 73.06 37.00L73.11 37.05L73.20 37.14Q76.02 30.63 75.68 23.17L75.71 23.21L75.64 23.14Q75.37 15.82 72.05 9.31L71.96 9.22L71.93 9.19Q76.82 12.02 83.78 12.02L83.77 12.01L83.83 12.06Q89.42 12.02 89.69 15.56L89.71 15.58L89.68 15.55Q89.87 16.28 89.80 16.89L89.72 16.81L89.67 17.98L89.67 17.97Q88.88 21.95 86.75 23.66L86.63 23.54L86.80 23.71Q85.83 24.22 84.80 24.22L84.96 24.38L82.31 24.32L82.20 24.21Q87.88 31.54 92.41 36.10L92.49 36.18L92.46 36.15Q90.15 35.29 87.22 34.95L87.28 35.01L87.29 35.02Q83.49 31.02 78.58 23.79ZM87.21 35.43L87.17 35.39L87.52 35.43L88.67 36.59L88.71 36.62Q89.25 37.13 89.90 37.74L89.98 37.82L89.86 37.70Q93.52 38.43 97.10 40.29L97.08 40.27L96.99 40.18Q90.17 33.55 84.76 26.62L84.79 26.65L86.44 26.55L86.55 26.66Q89.47 26.50 90.81 21.97L90.97 22.14L90.97 22.14Q91.65 19.92 91.65 17.21L91.60 17.17L91.56 17.13Q91.49 14.77 89.77 14.12L89.82 14.17L89.91 14.26Q89.85 13.93 89.28 13.25L89.11 13.08L89.19 13.16Q87.54 11.74 83.89 11.66L83.84 11.61L83.79 11.57Q76.06 11.56 71.38 8.56L71.29 8.47L71.25 8.42Q74.94 15.20 75.28 22.89L75.35 22.97L75.26 22.87Q75.73 30.96 72.61 37.81L72.49 37.69L72.65 37.85Q73.85 37.22 74.65 36.91L74.60 36.87L73.62 39.16L73.65 39.19Q76.30 38.07 78.96 37.57L79.11 37.72L79.02 37.63Q80.34 32.56 80.53 27.34L80.51 27.32L80.59 27.40Q84.00 32.26 87.16 35.38ZM85.98 17.53L85.99 17.53L85.87 17.41Q85.87 17.65 85.87 17.99L85.97 18.09L85.86 18.55L85.90 18.59Q85.95 19.74 85.26 20.69L85.16 20.59L85.33 20.75Q84.74 21.53 83.82 21.73L83.66 21.56L83.83 21.73Q83.45 21.62 81.86 21.66L81.98 21.79L81.91 21.72Q81.37 21.79 80.54 21.68L80.50 21.64L80.48 21.62Q80.46 20.19 80.12 17.15L80.02 17.05L80.07 17.10Q81.38 17.19 82.06 17.19L82.15 17.28L82.23 17.36Q83.90 17.20 85.85 17.39Z"/><path fill="#222" d="M56.18 27.24L46.87 17.17L46.80 17.10Q47.73 20.89 47.73 24.62L47.70 24.59L47.62 24.51Q47.59 30.46 45.54 36.02L45.65 36.13L45.56 36.04Q44.52 36.33 42.28 37.10L42.27 37.09L42.27 37.09Q45.14 31.35 45.14 24.65L45.22 24.73L45.12 24.63Q45.21 16.08 40.72 8.66L40.71 8.65L40.60 8.54Q41.00 8.67 41.68 9.09L41.80 9.21L41.77 9.18Q53.87 20.41 61.72 29.66L61.74 29.68L61.68 29.62Q61.29 27.10 61.29 24.66L61.33 24.70L61.46 24.83Q61.46 17.60 63.98 11.40L63.83 11.25L63.84 11.26Q66.13 10.70 67.73 10.01L67.81 10.09L67.89 10.17Q64.42 16.18 64.11 23.33L64.25 23.48L64.24 23.46Q63.90 30.78 66.87 36.94L66.82 36.90L66.79 36.86Q66.37 36.94 65.95 36.75L65.97 36.77L65.87 36.67Q61.36 32.76 56.14 27.20L56.08 27.14ZM69.47 40.11L69.44 40.08L69.46 40.11Q69.96 40.30 70.38 40.49L70.39 40.50L71.26 40.88L71.20 40.82Q66.00 33.82 66.00 24.46L66.06 24.52L66.04 24.50Q66.17 17.39 69.48 11.15L69.36 11.03L69.30 10.97Q68.67 11.22 67.26 11.83L67.24 11.81L67.27 11.83Q67.71 11.06 68.55 9.50L68.63 9.58L68.54 9.49Q66.01 10.31 63.58 10.88L63.71 11.02L63.73 11.04Q60.96 17.36 60.96 24.79L60.97 24.80L60.99 24.81Q60.92 26.61 61.11 28.59L61.24 28.72L61.11 28.60Q56.63 23.09 51.88 18.48L51.83 18.43L41.67 8.66L41.65 8.64Q41.20 8.46 39.98 7.89L39.95 7.85L39.91 7.81Q44.77 15.53 44.77 24.63L44.86 24.72L44.79 24.64Q44.74 31.72 41.66 37.73L41.72 37.80L41.77 37.85Q41.92 37.57 43.55 36.96L43.58 36.99L43.56 36.96Q43.24 37.76 42.41 39.24L42.56 39.39L42.46 39.29Q43.89 38.86 47.36 38.06L47.35 38.06L47.31 38.01Q49.53 31.78 49.53 24.58L49.52 24.58L49.52 24.58Q49.72 22.68 49.49 20.55L49.41 20.47L49.46 20.52Q60.88 33.28 69.49 40.13Z"/></svg>