<svg xmlns="http://www.w3.org/2000/svg" width="200" height="40" viewBox="0,0,200,40"><path fill="#444" d="M50.94 14.39L50.97 14.42L50.96 14.41Q51.76 18.60 51.92 22.18L51.85 22.11L51.86 22.12Q52.97 22.20 54.03 22.20L54.00 22.17L56.24 22.20L56.26 22.22Q57.40 22.30 58.28 20.89L58.23 20.84L58.21 20.82Q58.99 19.70 59.11 18.52L59.08 18.50L58.96 18.37Q59.37 15.40 55.15 14.90L55.18 14.93L55.24 14.99Q53.56 14.95 50.93 14.38ZM52.01 25.02L52.03 25.03L51.96 24.96Q51.97 31.25 50.82 35.67L50.67 35.52L50.65 35.49Q49.34 36.05 47.02 37.12L46.92 37.01L46.96 37.05Q49.33 30.40 49.06 23.13L49.14 23.21L49.15 23.22Q48.76 15.75 45.98 9.31L45.98 9.32L46.05 9.39Q50.21 12.17 56.45 12.17L56.39 12.11L56.38 12.10Q62.36 12.03 62.51 15.49L62.64 15.62L62.53 15.51Q62.61 17.95 61.62 20.62L61.59 20.59L61.64 20.63Q61.23 21.75 60.28 22.97L60.28 22.96L60.26 22.95Q59.01 24.63 56.46 24.89L56.49 24.93L56.45 24.89Q54.15 24.86 51.90 24.90ZM58.15 27.27L58.15 27.27L58.13 27.25Q62.29 27.49 63.54 22.69L63.50 22.65L63.44 22.59Q64.48 19.02 64.33 17.00L64.20 16.87L64.29 16.96Q64.15 15.42 63.39 14.43L63.32 14.35L63.32 14.36Q63.07 14.11 62.57 13.88L62.47 13.78L62.51 13.81Q62.56 13.71 61.95 12.95L62.01 13.01L62.04 13.04Q60.33 11.56 56.37 11.56L56.47 11.65L56.34 11.53Q49.65 11.72 45.42 8.56L45.33 8.47L45.24 8.39Q48.43 15.50 48.70 22.96L48.84 23.10L48.81 23.07Q49.06 30.70 46.39 37.78L46.34 37.73L46.40 37.79Q47.43 37.10 48.42 36.72L48.39 36.69L48.04 37.87L48.00 37.83Q47.83 38.42 47.56 38.99L47.59 39.02L47.58 39.01Q50.11 38.08 53.00 37.54L52.98 37.52L52.98 37.52Q53.87 32.05 53.95 27.33L53.92 27.30L53.81 27.20Q54.86 27.06 55.85 27.06L55.85 27.07L56.02 27.24Q57.26 27.14 58.06 27.18ZM57.05 17.18L57.03 17.17L57.03 17.16Q57.66 17.30 58.65 17.53L58.59 17.46L58.58 17.46Q58.77 17.76 58.81 18.07L58.70 17.96L58.71 17.97Q58.81 18.29 58.73 18.56L58.62 18.45L58.81 18.64Q58.65 19.81 57.92 20.69L57.84 20.61L57.86 20.62Q57.35 21.75 56.33 21.94L56.21 21.83L56.26 21.88Q55.44 21.78 53.80 21.78L53.79 21.77L53.84 21.82Q53.91 19.64 53.68 17.28L53.52 17.12L55.30 17.22L55.38 17.30Q56.29 17.38 57.16 17.30Z"/><path d="M12 31 C109 11,93 17,189 17" stroke="#888" fill="none"/><path fill="#111" d="M170.57 22.11L170.70 22.24L170.58 22.12Q171.43 22.18 172.84 22.02L172.83 22.01L172.79 21.97Q172.73 22.60 172.73 23.24L172.73 23.25L172.79 24.56L172.75 24.52Q171.97 24.58 171.14 24.66L171.11 24.63L171.07 24.59Q170.37 24.77 169.53 24.73L169.52 24.72L169.43 24.63Q166.67 30.89 163.24 35.49L163.08 35.33L163.21 35.46Q160.67 36.08 159.37 36.69L159.32 36.64L159.41 36.72Q163.38 30.88 166.43 24.60L166.45 24.62L163.98 24.77L163.87 24.67Q163.80 23.26 163.69 21.93L163.84 22.08L163.86 22.10Q165.66 22.15 167.71 22.15L167.81 22.24L169.72 18.56L169.70 18.54Q170.55 16.50 171.77 14.90L171.78 14.91L171.88 15.01Q170.34 15.18 168.74 15.18L168.73 15.17L168.72 15.16Q162.67 15.20 158.90 12.99L158.82 12.91L158.14 11.16L158.22 11.24Q157.88 10.41 157.50 9.54L157.53 9.56L157.40 9.44Q161.72 12.05 167.43 12.28L167.56 12.40L167.53 12.37Q172.72 12.65 177.86 10.67L177.71 10.52L177.79 10.60Q177.53 10.95 177.03 11.82L177.14 11.93L177.20 11.99Q173.48 16.65 170.62 22.17ZM178.77 13.33L178.64 13.20L179.75 11.31L179.67 11.23Q178.80 11.80 177.12 12.52L176.99 12.39L177.21 12.12L177.34 12.24Q177.45 12.09 177.57 11.98L177.52 11.94L177.40 11.81Q177.79 11.13 178.51 9.80L178.49 9.78L178.62 9.90Q173.26 12.16 167.51 11.93L167.51 11.94L167.45 11.88Q161.47 11.64 156.71 8.67L156.73 8.69L156.75 8.71Q157.78 10.58 158.62 13.24L158.60 13.23L158.50 13.12Q159.70 13.87 160.50 14.17L160.50 14.18L160.44 14.11Q160.58 14.44 161.04 16.31L161.07 16.34L161.03 16.30Q164.30 17.67 169.82 17.52L169.87 17.56L169.88 17.58Q169.49 18.06 167.51 21.83L167.51 21.83L167.54 21.86Q165.40 21.78 163.42 21.59L163.46 21.62L163.47 21.64Q163.64 22.56 163.64 23.44L163.53 23.34L163.50 25.01L165.27 25.11L165.23 26.48L165.25 26.50Q161.22 33.77 158.44 37.35L158.58 37.49L158.48 37.40Q160.18 36.73 161.81 36.24L161.73 36.15L161.76 36.18Q161.15 37.17 159.78 38.88L159.63 38.74L159.61 38.71Q162.91 37.75 165.35 37.52L165.31 37.48L165.26 37.44Q168.23 33.70 171.35 26.92L171.42 27.00L174.73 27.08L174.72 27.06Q174.72 26.23 174.72 25.31L174.78 25.37L174.80 23.60L174.79 23.59Q174.47 23.54 173.92 23.58L173.81 23.46L173.86 23.52Q173.29 23.53 173.02 23.53L173.02 23.53L173.07 23.58Q173.15 23.55 173.19 23.40L173.10 23.31L173.06 23.00L173.07 23.01Q175.60 17.89 178.68 13.25Z"/><path fill="#333" d="M110.16 24.12L110.29 24.24L110.14 24.10Q108.41 24.24 107.20 25.57L107.13 25.50L107.19 25.57Q105.89 26.82 105.74 28.72L105.82 28.80L105.73 28.71Q105.55 30.85 106.77 31.86L106.86 31.95L106.85 31.94Q108.10 32.98 110.23 32.91L110.14 32.81L110.11 32.78Q112.52 32.72 113.47 31.77L113.38 31.67L113.40 31.70Q114.45 30.27 114.33 28.44L114.25 28.36L114.32 28.43Q114.17 26.52 113.08 25.33L113.22 25.47L113.21 25.45Q112.11 24.24 110.28 24.24ZM110.18 14.73L110.27 14.82L110.22 14.77Q108.87 14.72 107.54 15.21L107.49 15.16L107.35 15.03Q106.07 15.84 106.30 17.71L106.48 17.88L106.33 17.74Q106.89 21.53 110.24 21.53L110.25 21.54L110.15 21.44Q111.70 21.62 112.69 20.48L112.68 20.47L112.70 20.49Q113.72 19.38 113.76 17.82L113.81 17.87L113.72 17.78Q113.93 16.17 113.21 15.56L113.23 15.57L113.09 15.44Q111.52 14.71 110.23 14.78ZM109.86 35.24L109.98 35.35L106.90 35.32L106.87 35.30Q105.30 35.24 103.96 34.37L104.09 34.50L104.06 34.46Q102.64 33.27 102.79 30.42L102.77 30.40L102.83 30.46Q103.18 23.49 106.80 22.51L106.93 22.64L106.80 22.51Q104.51 21.59 103.18 16.22L103.17 16.21L103.24 16.29Q102.99 14.97 103.07 14.17L102.92 14.02L103.01 14.11Q103.31 11.97 107.00 11.93L107.01 11.94L106.91 11.85Q111.27 11.91 112.72 12.10L112.74 12.12L112.65 12.03Q116.58 12.64 117.03 14.66L116.98 14.61L117.04 14.67Q117.01 15.13 117.01 15.51L117.16 15.66L117.17 15.67Q117.12 16.31 116.93 16.91L116.87 16.86L116.92 16.91Q116.20 21.02 113.27 22.54L113.36 22.64L113.42 22.69Q116.85 23.42 117.35 28.71L117.33 28.69L117.32 28.69Q117.35 28.87 117.39 30.17L117.47 30.25L117.46 30.23Q117.44 32.88 115.84 33.94L115.81 33.92L115.79 33.89Q114.48 34.83 109.91 35.29ZM112.23 37.65L112.22 37.63L115.56 37.71L115.60 37.74Q117.30 37.81 118.83 37.09L118.73 36.99L118.73 36.99Q119.87 36.26 119.94 34.40L119.93 34.39L120.05 34.50Q120.02 33.33 119.64 31.39L119.75 31.49L119.67 31.42Q118.66 26.68 116.57 24.82L116.57 24.82L116.50 24.55L116.36 24.34L116.12 23.99L116.09 23.95Q117.74 22.60 118.66 18.45L118.60 18.39L118.59 18.38Q118.65 18.06 118.72 17.23L118.75 17.25L118.75 17.25Q118.74 16.48 118.67 15.87L118.83 16.04L118.73 15.93Q118.68 14.59 117.50 14.10L117.44 14.04L117.37 13.93L117.20 13.84L117.18 13.81Q117.11 13.29 115.93 12.49L115.81 12.37L115.81 12.34L115.77 12.29Q113.98 11.80 109.91 11.61L109.72 11.42L109.88 11.58Q108.18 11.33 106.81 11.44L106.91 11.54L106.85 11.48Q106.04 11.50 104.74 11.66L104.77 11.68L104.71 11.62Q102.89 12.13 102.66 13.77L102.54 13.65L102.65 13.75Q102.49 14.13 102.53 14.93L102.60 15.00L102.69 15.08Q102.75 15.57 103.32 17.93L103.31 17.91L103.28 17.89Q104.00 21.04 105.75 22.38L105.88 22.50L106.01 22.63L105.94 22.57Q103.24 23.93 102.71 29.11L102.62 29.02L102.60 29.01Q102.35 31.16 102.35 32.07L102.51 32.23L102.52 32.23Q102.42 33.85 103.60 34.76L103.74 34.90L103.73 34.90Q103.74 34.87 104.01 35.06L104.01 35.06L104.05 35.10Q105.16 37.47 112.28 37.69ZM111.88 26.56L111.79 26.47L111.90 26.59Q112.82 26.51 113.70 26.97L113.69 26.97L113.58 26.85Q114.07 27.95 114.04 28.49L114.01 28.46L114.09 28.55Q114.02 28.74 114.02 29.04L114.12 29.14L113.98 29.01Q114.13 31.51 111.84 32.35L111.72 32.23L111.74 32.24Q110.97 32.58 110.17 32.46L110.10 32.40L110.24 32.53Q109.12 32.63 107.98 32.18L107.96 32.15L108.00 32.20Q107.60 31.42 107.68 30.43L107.75 30.50L107.75 30.50Q107.80 28.80 109.00 27.58L109.14 27.72L109.12 27.70Q110.28 26.45 111.88 26.56ZM112.16 17.13L112.07 17.05L112.15 17.12Q112.97 17.03 113.50 17.18L113.42 17.10L113.50 17.98L113.46 17.94Q113.42 19.31 112.51 20.32L112.59 20.40L112.41 20.22Q111.52 21.25 110.15 21.06L110.29 21.20L110.13 21.04Q109.14 21.04 108.72 20.81L108.87 20.96L108.85 20.94Q108.83 20.69 108.72 20.01L108.73 20.02L108.66 19.95Q108.45 18.60 109.67 17.76L109.66 17.75L109.54 17.64Q110.70 17.04 112.11 17.08Z"/><path fill="#222" d="M25.22 24.04L25.30 24.12L25.32 24.13Q23.48 24.01 22.25 25.44L22.20 25.39L22.26 25.45Q20.98 26.84 20.79 28.74L20.77 28.72L20.81 28.76Q20.58 30.82 21.67 31.79L21.69 31.81L21.75 31.87Q22.67 32.67 24.76 32.56L24.81 32.60L24.89 32.69Q26.88 32.43 27.99 31.75L28.00 31.76L27.95 31.71Q29.09 30.61 29.09 29.05L29.09 29.05L29.11 29.07Q29.18 28.76 29.11 28.38L29.07 28.34L29.20 28.47Q29.18 26.70 28.08 25.35L28.05 25.32L28.12 25.39Q27.05 24.08 25.38 24.19ZM24.84 35.19L24.90 35.24L24.79 35.14Q20.57 35.30 19.16 34.54L19.03 34.40L19.03 34.40Q18.06 33.70 17.87 31.99L17.90 32.01L17.95 32.07Q17.79 31.26 17.83 30.54L17.88 30.59L17.97 30.68Q17.92 29.53 17.92 29.07L17.90 29.05L18.08 29.22Q18.51 26.35 18.66 25.66L18.66 25.66L18.51 25.51Q19.09 23.69 19.93 22.28L19.83 22.19L19.95 22.31Q22.50 17.81 28.44 11.45L28.55 11.57L28.53 11.55Q31.16 11.21 33.37 10.41L33.46 10.50L33.29 10.32Q26.59 17.94 23.39 22.16L23.36 22.14L23.40 22.17Q24.37 21.67 25.67 21.67L25.58 21.57L25.55 21.55Q28.99 21.68 30.52 23.62L30.45 23.55L30.52 23.63Q31.68 25.09 32.02 28.63L32.16 28.77L32.02 28.63Q32.22 29.48 32.22 30.09L32.12 29.98L32.14 30.00Q32.24 33.22 30.03 34.29L29.97 34.23L29.95 34.21Q28.81 34.89 24.92 35.27ZM27.24 37.70L27.17 37.63L27.08 37.55Q28.36 37.49 30.34 37.57L30.39 37.62L30.54 37.76Q32.11 37.78 33.67 37.06L33.69 37.08L33.61 36.99Q34.80 36.27 34.80 34.49L34.79 34.48L34.80 34.49Q34.68 33.87 34.50 32.88L34.51 32.88L34.61 32.98Q34.47 32.02 34.47 31.57L34.33 31.43L34.40 31.51Q33.47 26.73 31.88 24.83L31.85 24.80L31.92 24.88Q31.75 24.66 31.60 24.44L31.75 24.58L31.44 24.35L31.22 24.17L31.40 24.36Q30.93 23.73 30.33 22.78L30.29 22.74L30.39 22.85Q29.38 21.80 27.40 21.34L27.49 21.43L27.57 21.51Q28.61 19.73 31.58 16.04L31.63 16.09L35.87 10.81L35.88 10.82Q34.24 11.62 31.84 12.38L31.95 12.49L31.90 12.44Q32.92 11.56 34.71 9.58L34.67 9.54L34.55 9.42Q32.13 10.46 28.25 11.03L28.34 11.13L28.43 11.21Q22.66 17.05 19.69 22.00L19.71 22.03L19.60 21.92Q18.18 24.53 17.61 30.77L17.67 30.84L17.64 30.80Q17.43 31.24 17.51 32.19L17.63 32.32L17.54 32.23Q17.65 34.01 18.75 34.93L18.82 34.99L18.66 34.83Q19.03 34.98 19.00 35.02L19.11 35.14L19.17 35.19Q19.50 36.06 20.30 36.47L20.25 36.42L20.22 36.39Q21.72 37.13 23.66 37.32L23.71 37.37L23.69 37.35Q23.72 37.38 27.22 37.69ZM26.87 26.33L26.97 26.43L26.98 26.44Q27.53 26.30 28.48 26.80L28.36 26.68L28.48 26.80Q28.90 27.83 28.90 28.47L28.81 28.39L28.88 28.46Q28.99 30.24 28.04 31.23L27.98 31.17L28.00 31.19Q27.02 32.00 24.93 32.31L24.96 32.34L24.84 32.22Q23.50 32.33 22.97 32.06L22.85 31.95L22.97 32.06Q22.67 31.50 22.67 31.20L22.64 31.16L22.64 31.16Q22.44 27.92 25.38 26.63L25.50 26.75L25.35 26.61Q26.09 26.23 26.85 26.31Z"/><path fill="#222" d="M141.75 34.92L141.65 34.82L139.64 34.75L139.66 34.77Q138.78 34.84 137.83 34.96L137.84 34.97L137.83 34.96Q138.36 28.71 138.36 24.71L138.38 24.73L138.46 24.82Q134.40 18.06 126.75 9.38L126.88 9.50L126.84 9.47Q128.48 10.31 131.83 11.11L132.02 11.29L131.86 11.13Q137.00 16.81 140.01 22.02L140.04 22.05L140.00 22.02Q143.06 16.51 147.44 11.49L147.42 11.46L147.48 11.53Q149.88 11.11 152.39 10.31L152.20 10.12L152.31 10.23Q146.16 16.22 141.29 24.64L141.38 24.73L141.38 24.72Q141.44 31.83 141.74 34.91ZM150.86 12.36L153.50 9.44L153.52 9.46Q150.37 10.58 147.25 11.03L147.29 11.07L147.34 11.12Q143.09 15.82 140.28 20.92L140.15 20.79L140.29 20.94Q138.05 17.18 134.86 13.29L135.00 13.44L134.93 13.37Q134.65 13.36 134.16 13.28L134.11 13.23L134.22 13.35Q133.55 12.56 132.03 10.89L131.86 10.71L131.96 10.82Q128.47 9.95 125.50 8.39L125.54 8.43L125.56 8.45Q133.21 16.86 137.97 24.78L137.96 24.78L138.00 24.82Q137.92 31.16 137.31 35.31L137.28 35.28L137.43 35.44Q138.15 35.39 139.59 35.28L139.53 35.21L139.50 36.21L139.61 36.32Q139.62 36.79 139.54 37.32L139.51 37.29L139.43 37.21Q143.08 37.31 144.83 37.50L144.78 37.46L144.84 37.51Q143.50 32.75 143.38 26.77L143.47 26.86L143.31 26.70Q147.68 18.24 154.23 10.89L154.35 11.02L150.85 12.35Z"/><path d="M16 8 C95 11,100 30,179 33" stroke="#888" fill="none"/><path fill="#222" d="M85.80 22.20L85.73 22.13L85.72 22.12Q86.49 22.09 87.90 21.94L87.94 21.98L87.99 22.03Q88.03 22.75 88.03 23.40L87.90 23.27L87.89 24.52L87.97 24.59Q87.02 24.48 86.18 24.56L86.32 24.69L86.23 24.61Q85.33 24.58 84.49 24.55L84.58 24.64L84.61 24.67Q81.69 30.77 78.27 35.37L78.26 35.37L78.35 35.46Q75.76 36.03 74.47 36.64L74.51 36.68L74.43 36.60Q78.57 30.92 81.61 24.64L81.58 24.60L79.13 24.78L78.99 24.64Q78.95 23.27 78.83 21.93L78.94 22.04L78.84 21.94Q80.77 22.12 82.82 22.12L82.97 22.26L84.71 18.41L84.83 18.52Q85.83 16.64 87.05 15.04L87.01 14.99L87.01 14.99Q85.34 15.04 83.74 15.04L83.89 15.19L83.76 15.06Q77.82 15.21 74.05 13.00L74.05 13.00L73.42 11.30L73.30 11.18Q73.00 10.39 72.62 9.51L72.65 9.55L72.59 9.48Q76.85 12.03 82.56 12.26L82.72 12.42L82.74 12.44Q87.87 12.66 93.01 10.68L92.88 10.55L92.87 10.54Q92.73 11.01 92.23 11.88L92.28 11.93L92.27 11.92Q88.70 16.73 85.85 22.25ZM93.92 13.34L93.76 13.18L94.83 11.24L94.85 11.26Q93.86 11.71 92.18 12.44L92.14 12.40L92.39 12.15L92.39 12.15Q92.46 11.96 92.57 11.84L92.61 11.88L92.62 11.89Q92.95 11.15 93.67 9.82L93.82 9.96L93.66 9.81Q88.44 12.20 82.69 11.97L82.66 11.94L82.68 11.96Q76.69 11.72 71.93 8.75L71.88 8.70L71.84 8.65Q72.97 10.62 73.80 13.29L73.71 13.19L73.72 13.20Q74.86 13.89 75.66 14.19L75.55 14.08L75.72 14.25Q75.79 14.51 76.25 16.38L76.20 16.33L76.17 16.30Q79.48 17.71 85.00 17.56L84.94 17.49L84.95 17.50Q84.55 17.98 82.57 21.75L82.74 21.92L82.61 21.78Q80.58 21.82 78.61 21.63L78.57 21.59L78.53 21.55Q78.65 22.44 78.65 23.31L78.75 23.42L78.59 24.96L80.34 25.03L80.42 26.53L80.33 26.44Q76.41 33.82 73.63 37.40L73.58 37.35L73.69 37.46Q75.34 36.75 76.98 36.26L76.88 36.16L76.85 36.13Q76.25 37.12 74.88 38.84L74.78 38.74L74.76 38.72Q78.06 37.76 80.49 37.53L80.42 37.45L80.40 37.43Q83.31 33.64 86.43 26.87L86.39 26.83L89.91 27.11L89.94 27.14Q89.79 26.15 89.79 25.23L89.91 25.36L89.86 23.52L89.94 23.60Q89.55 23.48 89.00 23.52L89.06 23.57L88.98 23.50Q88.49 23.60 88.23 23.60L88.26 23.63L88.12 23.49Q88.21 23.46 88.24 23.31L88.31 23.37L88.32 23.12L88.21 23.01Q90.73 17.88 93.81 13.24Z"/></svg>