<svg xmlns="http://www.w3.org/2000/svg" width="200" height="40" viewBox="0,0,200,40"><path fill="#333" d="M138.57 35.11L138.73 35.27L136.21 28.29L136.21 28.29Q131.93 15.79 125.99 9.40L125.88 9.28L125.87 9.28Q128.04 10.49 130.63 11.10L130.57 11.05L130.62 11.10Q135.70 17.31 140.04 30.07L140.10 30.13L140.00 30.03Q143.14 22.02 143.83 20.42L143.76 20.35L143.67 20.26Q146.23 14.83 149.05 11.52L148.97 11.44L149.00 11.47Q151.09 11.12 153.72 10.25L153.72 10.25L153.68 10.21Q149.13 14.84 146.09 22.07L146.07 22.05L146.03 22.01Q144.61 25.65 140.91 35.17L140.94 35.19L141.00 35.26Q140.30 35.13 139.73 35.09L139.71 35.07L139.86 35.22Q139.14 35.07 138.57 35.11ZM143.62 37.57L143.59 37.54L143.71 37.66Q146.39 27.55 147.95 23.51L148.08 23.64L148.10 23.67Q151.07 15.94 155.49 11.06L155.39 10.97L155.38 10.96Q154.49 11.48 152.40 12.20L152.40 12.20L153.48 10.81L153.51 10.84Q154.09 10.17 154.70 9.52L154.60 9.41L154.59 9.41Q151.91 10.53 148.90 11.10L148.91 11.11L148.75 10.95Q144.38 16.29 140.50 27.75L140.65 27.90L140.52 27.77Q136.88 17.66 133.69 13.28L133.68 13.28L133.75 13.35Q133.26 13.17 132.39 13.02L132.45 13.08L132.44 13.06Q132.24 12.71 130.64 10.66L130.63 10.65L130.60 10.62Q127.69 9.96 124.99 8.55L124.85 8.41L124.90 8.45Q131.64 15.66 136.02 28.45L136.03 28.46L135.88 28.31Q137.11 31.98 138.29 35.56L138.33 35.59L138.27 35.53Q138.64 35.60 139.48 35.49L139.49 35.50L139.50 35.51Q139.98 36.33 140.67 37.67L140.62 37.62L140.52 37.52Q141.44 37.53 142.17 37.60L142.06 37.49L142.15 37.58Q142.82 37.53 143.58 37.53Z"/><path fill="#222" d="M168.52 35.21L168.33 35.03L166.30 35.27L166.24 35.22Q165.79 35.23 164.82 35.28L164.92 35.38L164.87 35.34Q163.99 35.48 163.50 35.48L163.44 35.43L163.46 35.45Q161.84 35.47 160.82 34.63L160.79 34.60L160.71 34.52Q161.62 33.53 163.25 31.39L163.21 31.35L163.13 31.27Q164.37 32.81 166.57 32.58L166.63 32.64L166.57 32.58Q167.67 32.65 168.32 32.01L168.27 31.95L168.20 31.88Q168.90 31.29 168.79 30.42L168.79 30.42L168.76 30.39Q168.75 25.88 168.82 21.32L168.79 21.29L168.78 21.27Q168.78 16.63 169.31 12.02L169.29 12.00L169.34 12.05Q171.22 11.80 173.35 10.77L173.35 10.77L173.33 10.75Q171.56 17.58 171.56 24.81L171.57 24.82L171.48 24.73Q171.43 28.22 171.88 31.72L171.86 31.71L171.98 31.82Q172.05 32.15 172.05 32.50L172.11 32.56L172.07 32.52Q172.01 33.03 171.78 33.57L171.72 33.50L171.80 33.58Q171.15 34.76 168.34 35.03ZM173.40 38.00L173.32 37.92L173.77 38.03L174.02 37.86L174.15 37.61L174.34 37.80Q174.52 37.40 174.59 37.29L174.55 37.25L174.61 37.31Q174.77 36.10 174.50 35.11L174.63 35.23L174.62 35.23Q173.18 29.33 173.45 22.97L173.39 22.91L173.50 23.03Q173.73 16.90 175.52 11.00L175.59 11.07L175.51 10.99Q174.57 11.57 173.31 12.29L173.34 12.32L173.41 12.39Q173.60 11.63 174.02 10.10L174.04 10.13L173.96 10.04Q171.38 11.31 168.72 11.62L168.71 11.61L168.74 11.64Q168.46 16.12 168.38 21.06L168.42 21.10L168.40 21.08Q168.23 26.89 168.30 30.31L168.29 30.30L168.38 30.40Q168.47 32.19 166.72 32.34L166.68 32.30L166.74 32.37Q165.00 32.46 163.33 30.82L163.26 30.75L163.37 30.87Q161.17 33.23 160.22 34.80L160.34 34.92L160.32 34.90Q160.91 35.49 161.94 35.72L161.86 35.63L161.90 35.68Q161.94 35.94 161.67 36.17L161.69 36.18L161.64 36.14Q163.04 37.04 165.01 37.30L164.98 37.27L164.93 37.22Q165.32 37.27 168.62 37.58L168.65 37.61L168.65 37.61Q171.92 37.89 173.29 37.89Z"/><path d="M16 4 C86 6,115 39,181 14" stroke="#444" fill="none"/><path d="M13 17 C95 12,121 15,183 19" stroke="#555" fill="none"/><path fill="#222" d="M18.78 10.91L18.67 10.80L18.81 10.94Q20.62 15.72 21.19 20.90L21.23 20.94L21.28 20.99Q24.89 16.76 30.79 11.92L30.79 11.92L30.72 11.85Q33.91 11.54 36.54 10.74L36.55 10.76L29.99 16.38L30.08 16.46Q26.63 19.38 23.78 22.23L23.88 22.33L23.70 22.15Q31.85 31.48 36.91 36.20L36.74 36.03L36.90 36.19Q33.75 35.21 31.43 35.06L31.39 35.02L31.46 35.09Q25.69 29.70 21.39 23.87L21.28 23.76L21.29 23.78Q21.34 30.34 19.47 35.66L19.47 35.66L19.63 35.83Q19.27 35.73 18.78 35.92L18.82 35.96L18.76 36.09L18.85 36.19Q18.65 36.21 16.10 37.12L16.10 37.13L16.17 37.19Q19.07 30.58 18.73 23.12L18.57 22.96L18.65 23.05Q18.37 15.76 14.83 9.25L14.89 9.31L15.26 9.41L15.76 9.80L15.82 9.81L15.78 9.78Q16.47 10.13 18.68 10.81ZM19.01 10.57L18.92 10.48L18.95 10.51Q16.75 10.02 14.12 8.50L14.09 8.47L14.18 8.56Q18.43 15.81 18.43 24.76L18.47 24.80L18.44 24.77Q18.39 31.73 15.43 37.79L15.41 37.77L17.38 36.85L17.40 36.87Q16.97 37.84 16.28 39.14L16.47 39.32L16.36 39.22Q18.63 38.44 20.57 38.02L20.54 37.99L20.69 37.91L20.59 37.81Q20.95 37.86 21.52 37.71L21.37 37.57L21.52 37.71Q23.19 31.80 23.30 27.01L23.23 26.94L23.19 26.89Q25.22 29.35 27.05 31.21L27.07 31.24L27.08 31.24Q28.24 32.33 31.25 35.29L31.28 35.33L31.36 35.41L31.44 35.49Q32.36 36.22 34.22 37.82L34.17 37.76L34.25 37.84Q38.06 38.49 41.52 40.20L41.64 40.32L41.51 40.19Q32.22 31.62 25.97 24.20L25.98 24.20L25.96 24.18Q30.42 19.96 39.17 11.36L39.28 11.47L39.13 11.32Q36.74 12.62 34.73 13.00L34.71 12.99L34.74 13.01Q35.93 11.99 38.25 9.98L38.21 9.94L38.22 9.95Q34.14 11.39 30.79 11.58L30.73 11.52L30.65 11.44Q27.83 13.75 22.95 18.44L22.89 18.38L23.00 18.48Q22.45 15.73 21.88 13.18L21.91 13.20L22.03 13.32Q20.69 13.01 19.70 12.67L19.71 12.68L19.71 12.68Q19.63 12.07 19.06 10.62Z"/><path fill="#222" d="M106.32 27.97L106.39 28.03L106.33 27.98Q109.44 27.62 112.63 27.73L112.67 27.77L112.68 27.78Q112.50 25.08 112.50 22.68L112.65 22.84L112.47 22.66Q112.54 20.25 112.73 17.70L112.83 17.81L112.78 17.76Q111.51 19.41 106.30 27.94ZM116.27 35.37L116.20 35.29L116.13 35.23Q114.57 35.04 112.78 34.96L112.66 34.84L112.74 34.92Q112.56 32.57 112.45 30.10L112.40 30.05L112.40 30.04Q107.13 29.92 102.41 31.33L102.36 31.28L102.31 31.23Q102.51 30.82 102.70 29.83L102.65 29.78L102.68 29.81Q104.56 26.74 108.14 20.46L108.08 20.40L108.10 20.42Q110.95 15.50 114.38 11.62L114.44 11.68L114.36 11.60Q115.19 11.37 116.87 11.10L117.02 11.26L116.92 11.16Q115.11 17.68 115.11 24.73L114.94 24.56L115.09 24.71Q115.03 26.14 115.11 27.62L115.18 27.69L116.37 27.70L116.37 27.70Q117.01 27.77 117.62 27.88L117.55 27.82L117.71 27.97Q117.80 28.94 118.07 30.88L117.95 30.77L118.03 30.85Q116.78 30.55 115.29 30.36L115.31 30.37L115.26 30.32Q115.58 32.43 116.26 35.36ZM117.91 27.53L117.96 27.57L117.80 27.42Q117.62 27.35 117.43 27.35L117.45 27.37L117.14 27.44L117.04 27.34Q117.08 26.01 117.08 24.60L116.94 24.47L116.95 24.47Q117.08 18.21 119.13 12.19L119.12 12.18L119.05 12.10Q118.26 12.35 116.81 12.73L116.82 12.73L116.82 12.73Q117.07 11.99 117.53 10.59L117.48 10.54L117.52 10.57Q116.22 10.95 114.16 11.18L114.10 11.12L114.27 11.29Q110.36 15.64 105.15 25.00L105.09 24.95L107.10 21.21L107.18 21.29Q106.69 22.25 106.43 22.82L106.47 22.86L101.95 31.82L102.10 31.97Q102.63 31.70 103.77 31.32L103.84 31.39L103.66 31.59L103.56 31.49Q103.44 32.17 103.14 33.43L103.25 33.54L103.29 33.58Q107.41 32.26 112.25 32.45L112.18 32.38L112.19 32.39Q112.15 33.26 112.34 35.24L112.42 35.32L112.38 35.29Q113.48 35.32 114.55 35.43L114.53 35.42L114.46 35.34Q114.62 36.04 114.89 37.41L114.95 37.48L114.92 37.45Q116.83 37.68 119.84 38.59L119.85 38.60L119.88 38.64Q118.84 36.45 117.93 33.18L118.03 33.28L119.31 33.57L119.42 33.68Q120.19 33.99 120.88 34.34L120.79 34.25L120.87 34.33Q119.98 31.73 119.83 30.06L119.91 30.14L119.91 30.14Q119.31 29.95 118.16 29.72L118.13 29.69L118.18 29.74Q117.92 28.42 117.92 27.54ZM109.96 27.41L109.94 27.40L109.98 27.44Q110.68 26.08 112.24 23.53L112.29 23.58L112.28 23.57Q112.13 24.37 112.09 25.33L112.15 25.38L112.25 25.49Q112.18 26.40 112.22 27.35L112.16 27.29L112.26 27.40Q111.57 27.24 111.00 27.24L111.15 27.39L111.03 27.28Q110.58 27.43 109.97 27.43Z"/><path fill="#333" d="M56.77 34.80L56.90 34.93L54.84 34.81L54.98 34.95Q53.90 34.82 52.95 34.94L52.96 34.95L52.95 34.94Q53.51 28.72 53.51 24.73L53.49 24.70L53.51 24.72Q49.55 18.06 41.90 9.38L41.88 9.36L42.01 9.50Q43.67 10.35 47.02 11.15L46.98 11.12L47.10 11.23Q52.04 16.71 55.05 21.92L55.22 22.09L55.11 21.98Q58.08 16.39 62.46 11.37L62.49 11.40L62.59 11.50Q64.90 10.99 67.42 10.19L67.38 10.16L67.49 10.26Q61.49 16.41 56.61 24.82L56.50 24.71L56.55 24.75Q56.61 31.86 56.92 34.95ZM65.93 12.29L68.70 9.50L68.67 9.46Q65.54 10.60 62.42 11.06L62.38 11.02L62.41 11.05Q58.29 15.87 55.47 20.98L55.38 20.88L55.38 20.88Q53.24 17.22 50.04 13.34L50.03 13.33L50.00 13.29Q49.87 13.43 49.38 13.36L49.24 13.22L49.18 13.16Q48.50 12.37 46.98 10.70L47.06 10.77L47.08 10.80Q43.76 10.10 40.79 8.54L40.75 8.50L40.71 8.46Q48.42 16.93 53.18 24.85L53.22 24.89L53.20 24.87Q52.99 31.10 52.39 35.25L52.57 35.43L52.53 35.39Q53.31 35.41 54.75 35.29L54.66 35.20L54.64 36.21L54.76 36.32Q54.63 36.65 54.55 37.19L54.66 37.29L54.71 37.34Q58.09 37.19 59.84 37.38L59.96 37.50L59.90 37.43Q58.70 32.81 58.59 26.83L58.61 26.86L58.53 26.77Q62.85 18.26 69.40 10.92L69.48 11.00L66.00 12.35Z"/><path fill="#222" d="M78.72 35.41L78.59 35.28L78.55 35.24Q77.26 35.43 75.70 35.01L75.65 34.97L75.74 35.05Q74.41 34.04 74.26 32.40L74.39 32.53L74.32 32.46Q74.37 32.35 74.56 29.73L74.38 29.54L74.42 29.59Q75.54 29.49 77.56 29.11L77.48 29.04L77.35 29.85L77.32 29.82Q77.13 31.65 78.54 32.22L78.54 32.23L78.47 32.15Q79.25 32.47 81.34 32.47L81.32 32.45L81.37 32.50Q82.91 32.30 83.11 32.22L83.09 32.20L83.18 32.29Q84.01 32.06 84.74 31.57L84.88 31.71L84.73 31.56Q86.20 30.67 86.01 28.57L86.07 28.63L86.07 28.63Q85.89 26.21 84.16 24.65L84.17 24.66L84.07 24.56Q82.36 23.02 79.88 23.02L79.93 23.07L79.86 22.76L79.97 22.88Q80.35 22.84 81.23 22.76L81.10 22.64L81.06 22.60Q83.03 22.55 84.40 21.31L84.40 21.32L84.42 21.33Q85.68 19.98 85.83 18.12L85.96 18.24L85.88 18.17Q86.09 17.96 86.09 17.62L86.09 17.62L86.06 17.58Q85.94 15.94 84.57 15.03L84.64 15.10L84.56 15.02Q83.44 14.32 81.84 14.44L81.75 14.34L81.88 14.47Q80.46 14.19 79.24 14.61L79.22 14.59L79.21 14.58Q77.85 15.20 77.54 16.34L77.57 16.37L77.46 16.26Q77.32 17.07 77.40 17.83L77.37 17.80L77.46 17.90Q76.35 17.59 74.30 16.86L74.34 16.90L74.26 16.82Q74.07 15.19 74.11 14.35L74.25 14.49L74.08 14.32Q74.36 12.96 75.42 12.28L75.30 12.16L75.42 12.28Q76.83 11.66 78.42 11.66L78.32 11.56L78.30 11.54Q81.46 11.50 84.62 11.76L84.73 11.88L84.60 11.74Q89.82 12.33 89.52 16.10L89.52 16.10L89.48 16.06Q89.43 17.57 88.94 19.13L88.90 19.09L88.91 19.11Q88.03 22.22 85.67 23.13L85.67 23.14L85.57 23.03Q88.28 23.65 88.89 27.00L88.81 26.92L88.90 27.01Q89.12 28.15 89.20 30.16L89.04 30.01L89.10 30.07Q89.23 34.50 84.62 34.95L84.67 35.00L84.76 35.10Q83.91 35.04 78.62 35.31ZM83.86 37.58L83.77 37.50L83.91 37.63Q84.42 37.57 87.28 37.65L87.30 37.67L87.36 37.73Q89.17 37.86 90.80 37.22L90.67 37.08L90.63 37.04Q91.81 36.09 91.62 34.34L91.71 34.43L91.80 34.52Q91.53 33.03 91.23 31.28L91.26 31.32L91.36 31.42Q90.65 26.94 88.71 25.30L88.65 25.24L88.52 24.92L88.33 24.69L88.42 24.78Q90.23 23.39 90.99 19.01L90.92 18.94L90.87 18.90Q91.00 18.53 91.11 17.58L90.99 17.46L91.10 17.56Q91.06 16.68 90.98 16.00L91.04 16.05L90.97 15.98Q90.98 14.48 89.69 13.79L89.66 13.76L89.60 13.78L89.49 13.67Q89.25 12.75 88.11 12.21L87.99 12.10L88.16 12.26Q86.49 11.43 81.35 11.13L81.33 11.11L81.39 11.16Q79.82 11.20 78.22 11.20L78.25 11.22L78.18 11.15Q76.60 11.17 75.08 11.82L75.11 11.85L74.98 11.72Q73.86 12.58 73.86 14.33L73.74 14.21L73.87 14.34Q73.73 13.79 74.00 17.14L74.04 17.18L74.05 17.18Q74.35 17.26 75.99 17.87L75.95 17.83L76.11 17.99Q75.94 18.36 75.91 18.85L76.00 18.95L75.98 18.93Q75.92 19.36 75.96 19.90L75.97 19.90L76.07 20.00Q77.72 20.25 79.74 20.36L79.76 20.38L79.92 20.54Q79.86 18.54 80.96 17.70L80.88 17.62L80.83 17.57Q81.75 17.00 83.76 16.77L83.72 16.73L83.71 16.72Q84.92 16.79 85.49 16.98L85.45 16.94L85.52 17.01Q85.37 16.94 85.41 17.05L85.54 17.18L85.59 17.42L85.57 17.86L85.58 17.87Q85.68 18.16 85.65 18.31L85.60 18.27L85.67 18.34Q85.48 19.93 83.95 21.11L84.05 21.21L83.94 21.10Q83.04 22.03 81.02 22.22L81.02 22.22L81.00 22.19Q80.26 22.33 79.38 22.33L79.47 22.42L79.54 22.48Q79.57 22.83 79.73 23.51L79.69 23.48L79.68 23.47Q81.37 23.41 82.82 24.13L82.88 24.19L82.67 24.09L81.16 24.34L81.10 24.27Q81.26 24.74 81.38 25.35L81.31 25.28L81.40 25.38Q83.39 25.16 85.11 26.49L85.16 26.55L85.25 26.64Q85.40 26.94 85.71 28.58L85.64 28.51L85.79 28.66Q85.94 31.55 83.01 31.97L83.03 32.00L82.86 31.82Q80.96 32.28 80.39 32.24L80.38 32.23L80.34 32.20Q79.93 32.13 79.40 32.05L79.23 31.88L79.36 31.56L79.36 30.99L79.51 30.71L79.53 30.40L79.57 30.43Q78.52 30.41 77.72 30.60L77.83 30.72L77.77 30.65Q77.78 30.47 77.78 30.28L77.68 30.18L77.74 30.25Q77.65 29.93 77.65 29.70L77.82 29.86L77.82 29.86Q77.80 29.39 77.95 28.66L77.97 28.68L77.94 28.66Q76.14 28.94 74.27 29.29L74.24 29.25L74.27 29.29Q74.10 29.61 73.99 30.73L74.13 30.88L74.17 30.92Q74.02 32.01 74.02 32.62L73.93 32.52L74.02 32.62Q74.00 34.57 75.37 35.33L75.51 35.47L75.41 35.37Q76.91 37.67 81.63 37.48L81.61 37.47L81.62 37.47Q82.41 37.50 83.93 37.65Z"/></svg>