<svg xmlns="http://www.w3.org/2000/svg" width="200" height="40" viewBox="0,0,200,40"><path fill="#333" d="M147.38 18.28L147.44 18.34L147.30 18.20Q145.66 14.20 139.45 14.39L139.38 14.31L139.49 14.42Q135.08 14.55 133.10 15.99L133.00 15.89L133.07 15.96Q130.73 17.77 130.73 21.88L130.70 21.85L130.73 23.75L130.64 23.66Q130.76 32.61 139.78 32.61L139.75 32.58L139.65 32.48Q141.73 32.50 143.22 31.71L143.18 31.67L143.33 31.82Q145.08 30.72 144.93 28.85L144.95 28.87L144.91 28.83Q144.63 26.65 140.94 25.73L140.95 25.75L139.15 25.89L139.12 25.86Q138.11 25.79 137.15 25.83L137.26 25.94L137.17 25.85Q137.17 24.89 137.13 22.99L137.24 23.10L137.17 23.04Q144.73 22.94 148.92 22.60L149.00 22.68L148.99 22.67Q148.88 23.43 148.88 24.23L148.85 24.20L148.87 24.22Q148.89 25.04 148.93 25.84L149.00 25.92L148.95 25.87Q147.97 25.99 147.97 25.99L147.88 25.90L147.92 25.94Q146.38 25.77 146.76 25.77L146.91 25.92L146.80 25.81Q147.95 27.49 148.33 29.47L148.39 29.53L148.37 29.51Q148.50 30.25 148.50 30.71L148.49 30.70L148.36 30.57Q148.45 35.30 139.66 35.30L139.73 35.38L139.69 35.33Q132.55 35.31 129.96 33.22L129.92 33.18L130.04 33.30Q127.89 30.77 127.89 25.71L127.95 25.76L128.07 25.88Q127.87 24.62 127.72 21.92L127.85 22.04L127.74 21.94Q127.71 19.70 127.75 18.33L127.65 18.23L127.66 18.24Q127.80 15.41 129.17 13.81L129.23 13.87L129.28 13.93Q131.72 11.76 136.59 11.57L136.65 11.62L139.28 11.51L139.20 11.44Q142.40 11.43 145.82 11.85L145.76 11.79L145.80 11.82Q149.51 12.26 150.46 15.50L150.60 15.64L150.53 15.56Q149.46 16.44 147.36 18.27ZM148.78 20.48L148.86 20.45L148.85 20.44Q150.15 19.45 152.02 17.47L151.91 17.37L152.04 17.49Q151.72 16.53 150.73 14.82L150.64 14.72L150.64 14.73Q149.48 12.09 145.68 11.44L145.66 11.42L145.65 11.41Q143.48 11.26 139.18 10.96L139.21 10.99L136.57 11.16L136.64 11.23Q131.47 11.43 128.88 13.41L128.90 13.43L128.80 13.33Q127.43 14.96 127.31 18.05L127.31 18.05L127.28 18.02Q127.30 17.58 127.53 23.06L127.56 23.09L127.54 23.07Q127.64 24.51 127.72 27.25L127.67 27.20L127.73 27.26Q127.91 31.70 129.66 33.64L129.65 33.63L129.54 33.52Q130.04 34.48 130.92 35.36L130.83 35.27L130.89 35.33Q133.74 37.15 139.26 37.49L139.19 37.42L142.08 37.61L142.14 37.67Q143.79 37.84 145.81 37.73L145.85 37.76L145.73 37.65Q147.16 37.55 149.26 37.02L149.33 37.10L149.36 37.12Q151.34 36.67 151.30 34.34L151.18 34.23L151.18 34.23Q151.15 32.94 150.08 30.16L150.07 30.14L150.07 30.15Q149.93 29.40 149.40 28.60L149.31 28.51L149.36 28.56Q149.90 28.53 151.08 28.72L151.20 28.84L151.16 28.80Q150.81 25.14 150.85 24.45L150.91 24.51L150.83 24.43Q150.41 24.39 149.99 24.36L150.00 24.37L150.08 24.44Q149.76 24.46 149.37 24.54L149.22 24.39L149.29 24.46Q149.32 23.38 149.39 22.31L149.35 22.27L149.34 22.25Q143.05 22.74 136.77 22.63L136.75 22.61L136.74 22.61Q136.90 23.63 136.90 24.55L136.93 24.58L136.85 26.25L136.79 26.20Q137.25 26.27 137.67 26.23L137.69 26.26L137.63 26.20Q138.13 26.28 138.59 26.28L138.47 26.16L138.56 26.25Q138.47 26.61 138.51 27.11L138.65 27.25L138.52 27.12Q138.47 27.53 138.44 28.03L138.60 28.19L138.53 28.13Q139.55 28.07 140.57 28.04L140.66 28.13L140.64 28.11Q141.72 28.16 142.75 28.19L142.58 28.03L142.69 28.13Q143.78 28.42 144.65 28.80L144.58 28.72L144.49 28.68L144.61 28.79Q144.78 30.34 143.10 31.25L143.09 31.23L143.13 31.28Q141.43 32.16 139.71 32.16L139.78 32.22L139.64 32.08Q135.91 32.21 133.48 30.46L133.38 30.36L133.39 30.37Q132.47 28.38 132.62 25.83L132.71 25.92L132.64 25.85Q132.94 21.05 134.79 19.05L134.76 19.02L134.86 19.12Q136.52 16.94 141.20 16.63L141.30 16.73L141.38 16.81Q144.98 16.52 146.92 18.31L146.88 18.28L146.81 18.21Q147.02 18.46 147.14 18.65L147.13 18.64L147.10 18.50L147.13 18.52Q147.94 19.45 148.51 20.55L148.43 20.48L148.71 20.41Z"/><path fill="#222" d="M164.68 21.78L164.67 21.77L164.71 21.81Q166.54 22.00 168.36 22.00L168.26 21.89L168.35 21.98Q170.13 21.98 171.96 21.83L171.94 21.81L171.93 21.79Q171.78 22.41 171.78 23.13L171.84 23.19L171.83 24.52L171.79 24.48Q169.42 24.47 164.66 24.58L164.66 24.58L164.70 24.61Q164.66 30.51 163.52 35.50L163.65 35.64L163.57 35.56Q161.35 36.23 159.87 37.03L159.80 36.97L159.88 37.04Q162.21 30.23 161.94 23.11L161.99 23.16L161.91 23.08Q161.74 16.03 159.08 9.36L159.06 9.35L158.92 9.21Q162.77 11.91 167.53 12.14L167.43 12.04L167.55 12.16Q172.02 12.14 176.17 10.39L176.32 10.54L176.27 10.49Q176.09 11.42 175.86 12.22L175.67 12.02L175.18 13.63L175.32 13.77Q172.51 14.77 169.54 14.92L169.57 14.95L169.70 15.07Q166.76 15.22 163.90 14.49L163.79 14.38L163.86 14.45Q164.48 17.77 164.67 21.77ZM176.92 9.81L176.90 9.79L176.99 9.88Q172.27 11.90 167.40 11.59L167.38 11.57L167.39 11.58Q162.08 11.30 158.35 8.44L158.27 8.37L158.37 8.47Q161.25 15.42 161.56 23.03L161.47 22.95L161.60 23.08Q161.96 31.05 159.45 37.83L159.31 37.69L159.37 37.75Q160.01 37.33 161.38 36.68L161.37 36.67L161.36 36.66Q161.24 37.49 160.67 39.01L160.58 38.92L160.63 38.97Q163.06 38.01 165.95 37.52L165.79 37.36L165.81 37.38Q166.52 32.60 166.71 26.89L166.75 26.94L166.60 26.78Q168.48 26.83 170.30 26.83L170.24 26.77L170.25 26.78Q172.08 26.82 173.91 27.01L173.96 27.07L173.97 27.07Q173.79 26.05 173.79 25.14L173.75 25.10L173.80 23.24L173.75 23.20Q173.13 23.45 172.29 23.45L172.13 23.29L172.16 23.32Q172.24 22.53 172.32 21.50L172.19 21.37L172.24 21.42Q170.83 21.57 169.42 21.57L169.40 21.55L169.45 21.60Q168.15 21.71 166.78 21.68L166.79 21.68L166.53 19.29L166.55 19.31Q166.64 18.34 166.53 17.27L166.44 17.18L166.39 17.13Q167.51 17.34 168.50 17.34L168.40 17.24L168.39 17.23Q173.21 17.29 176.83 15.39L176.82 15.38L176.79 15.35Q177.35 13.59 178.27 10.96L178.18 10.87L178.33 11.03Q177.00 11.83 176.20 12.17L176.20 12.17L176.25 12.22Q176.46 11.41 176.96 9.85Z"/><path fill="#444" d="M111.90 35.17L111.89 35.15L109.68 35.23L109.74 35.29Q109.36 35.37 108.39 35.43L108.39 35.43L108.24 35.27Q107.35 35.41 106.86 35.41L106.83 35.39L106.79 35.34Q105.32 35.52 104.30 34.68L104.14 34.53L104.25 34.63Q105.09 33.57 106.73 31.44L106.57 31.28L106.72 31.43Q107.91 32.92 110.12 32.69L110.13 32.71L110.07 32.65Q111.00 32.55 111.64 31.90L111.70 31.96L111.68 31.94Q112.31 31.27 112.19 30.40L112.14 30.34L112.19 30.39Q112.10 25.81 112.17 21.24L112.10 21.16L112.06 21.12Q112.11 16.53 112.64 11.92L112.76 12.04L112.74 12.02Q114.68 11.83 116.81 10.80L116.89 10.88L116.83 10.82Q114.93 17.52 114.93 24.75L114.91 24.74L115.02 24.85Q114.88 28.25 115.34 31.75L115.41 31.82L115.35 31.77Q115.50 32.18 115.50 32.52L115.52 32.54L115.46 32.48Q115.48 33.08 115.25 33.61L115.25 33.60L115.28 33.63Q114.65 34.83 111.83 35.10ZM116.73 37.90L116.82 37.99L117.09 37.92L117.46 37.87L117.62 37.65L117.63 37.66Q117.95 37.41 118.02 37.29L118.05 37.32L118.10 37.37Q118.29 36.19 118.03 35.20L118.02 35.19L117.96 35.13Q116.73 29.45 117.00 23.09L116.95 23.05L116.90 23.00Q117.21 16.94 119.00 11.04L119.02 11.07L118.89 10.94Q118.12 11.69 116.87 12.42L116.81 12.36L116.75 12.30Q116.97 11.57 117.39 10.05L117.42 10.07L117.36 10.01Q114.86 11.36 112.19 11.66L112.18 11.66L112.15 11.63Q111.88 16.11 111.81 21.06L111.72 20.97L111.79 21.04Q111.74 26.97 111.81 30.40L111.87 30.45L111.78 30.36Q111.81 32.11 110.06 32.26L110.03 32.23L110.12 32.31Q108.46 32.48 106.78 30.85L106.80 30.87L106.65 30.71Q104.63 33.26 103.67 34.82L103.77 34.91L103.73 34.88Q104.30 35.45 105.33 35.67L105.43 35.78L105.44 35.79Q105.29 35.86 105.02 36.09L105.00 36.07L104.97 36.04Q106.53 37.11 108.51 37.37L108.39 37.25L108.37 37.24Q108.92 37.44 112.21 37.74L112.23 37.76L112.21 37.74Q115.35 37.89 116.72 37.89Z"/><path fill="#222" d="M27.84 27.19L18.52 17.11L18.48 17.07Q19.48 20.93 19.48 24.66L19.49 24.66L19.36 24.54Q19.36 30.51 17.31 36.07L17.38 36.14L17.42 36.18Q16.35 36.45 14.10 37.21L14.01 37.11L14.09 37.19Q16.82 31.32 16.82 24.62L16.91 24.71L16.78 24.58Q16.77 15.92 12.27 8.50L12.28 8.51L12.30 8.53Q12.74 8.70 13.43 9.12L13.45 9.14L13.55 9.24Q25.63 20.44 33.47 29.70L33.32 29.54L33.43 29.66Q33.18 27.27 33.18 24.83L33.13 24.79L33.12 24.78Q33.14 17.57 35.66 11.36L35.56 11.27L35.53 11.24Q37.90 10.75 39.50 10.07L39.54 10.10L39.47 10.04Q36.28 16.33 35.98 23.49L35.85 23.36L35.83 23.33Q35.58 30.74 38.55 36.91L38.58 36.94L38.56 36.91Q38.06 36.91 37.64 36.72L37.61 36.69L37.59 36.67Q32.97 32.66 27.75 27.10L27.88 27.23ZM41.12 40.05L41.30 40.23L41.20 40.13Q41.72 40.34 42.13 40.53L42.04 40.43L42.91 40.82L43.04 40.94Q37.72 33.83 37.72 24.47L37.86 24.61L37.72 24.46Q37.77 17.28 41.08 11.04L41.00 10.96L41.13 11.09Q40.39 11.22 38.98 11.83L38.95 11.80L39.08 11.93Q39.37 11.00 40.21 9.44L40.26 9.49L40.23 9.46Q37.77 10.35 35.33 10.92L35.30 10.89L35.41 11.00Q32.70 17.39 32.70 24.82L32.71 24.82L32.66 24.77Q32.67 26.65 32.86 28.63L33.00 28.76L32.95 28.71Q28.20 22.94 23.44 18.34L23.53 18.42L13.46 8.74L13.52 8.79Q12.91 8.45 11.69 7.88L11.54 7.73L11.54 7.73Q16.56 15.60 16.56 24.70L16.58 24.72L16.47 24.61Q16.58 31.84 13.50 37.86L13.40 37.76L13.36 37.72Q13.66 37.59 15.29 36.99L15.27 36.96L15.38 37.08Q15.12 37.92 14.29 39.41L14.13 39.25L14.17 39.29Q15.51 38.76 18.97 37.96L19.05 38.04L19.10 38.09Q21.25 31.79 21.25 24.59L21.25 24.59L21.28 24.63Q21.39 22.64 21.16 20.51L21.05 20.40L21.19 20.53Q32.59 33.27 41.19 40.12Z"/><path fill="#333" d="M61.67 33.00L61.66 32.99L61.52 32.85Q61.89 33.90 62.42 35.92L62.51 36.01L62.41 35.91Q58.27 34.67 53.67 34.93L53.58 34.84L53.68 34.95Q48.97 35.07 44.97 37.05L45.10 37.17L44.96 37.03Q45.27 36.43 45.31 36.51L45.31 36.52L45.25 36.45Q49.08 32.59 53.00 28.18L52.91 28.09L52.93 28.11Q57.40 23.17 58.58 18.48L58.58 18.49L58.45 18.36Q59.04 16.74 57.77 15.56L57.64 15.43L57.79 15.59Q56.42 14.31 54.63 14.46L54.59 14.42L54.70 14.53Q54.32 14.45 53.98 14.45L53.98 14.46L54.02 14.50Q52.49 14.49 51.23 15.40L51.22 15.39L51.23 15.40Q49.88 16.72 50.11 19.38L50.02 19.29L50.10 19.38Q48.38 19.10 47.17 18.65L47.15 18.63L47.03 18.52Q47.00 17.27 46.93 15.82L46.75 15.64L46.93 15.82Q46.68 14.01 47.29 12.87L47.45 13.03L47.28 12.86Q49.10 11.52 52.45 11.52L52.42 11.49L54.32 11.63L54.33 11.65Q56.63 11.71 57.59 11.82L57.42 11.65L57.52 11.76Q61.78 12.09 62.04 14.53L62.16 14.65L62.07 14.55Q62.12 15.10 62.04 15.90L62.07 15.92L62.09 15.94Q62.00 16.54 61.85 17.23L61.91 17.29L61.87 17.25Q60.26 25.38 52.68 32.24L52.67 32.22L52.65 32.20Q54.21 32.20 55.58 32.20L55.56 32.18L55.52 32.14Q58.81 32.20 61.67 33.00ZM60.91 11.99L61.07 12.15L61.10 12.18Q59.48 11.50 57.76 11.43L57.66 11.32L54.31 11.21L54.20 11.10Q49.72 10.81 47.51 11.91L47.64 12.04L47.62 12.02Q46.55 13.38 46.55 15.44L46.53 15.42L46.61 15.50Q46.60 16.18 46.91 19.00L46.94 19.03L46.98 19.07Q47.42 19.21 48.61 19.51L48.65 19.55L48.50 20.44L48.61 20.55Q48.65 21.09 48.73 21.62L48.57 21.46L48.70 21.59Q49.81 21.56 52.28 21.78L52.27 21.77L52.28 21.78Q52.25 21.41 52.25 21.06L52.31 21.13L52.32 21.14Q52.38 19.37 53.60 18.02L53.58 18.00L53.54 17.96Q54.82 16.67 56.61 16.78L56.51 16.69L56.57 16.74Q57.26 16.71 58.02 16.86L58.04 16.89L58.11 16.95Q58.27 17.37 58.34 17.79L58.26 17.71L58.31 17.76Q58.37 18.20 58.30 18.55L58.20 18.45L58.14 18.39Q56.96 23.23 52.55 28.06L52.60 28.11L52.54 28.06Q50.39 30.28 44.94 36.33L44.88 36.28L45.06 36.45Q44.83 37.25 44.48 37.82L44.36 37.69L44.53 37.86Q46.01 36.86 47.53 36.33L47.56 36.36L47.63 36.43Q46.82 36.91 45.86 38.40L45.91 38.45L45.94 38.47Q45.84 38.83 45.73 39.17L45.63 39.07L45.62 39.07Q50.51 37.02 55.99 37.21L55.97 37.19L56.07 37.30Q61.69 37.40 66.26 39.76L66.25 39.75L65.32 37.68L65.19 37.55Q64.62 36.29 64.36 35.50L64.44 35.57L64.35 35.49Q63.63 35.08 62.42 34.66L62.41 34.65L62.34 34.58Q62.36 34.03 61.98 32.66L61.97 32.65L61.93 32.61Q59.60 31.92 57.32 31.73L57.39 31.81L57.35 31.76Q62.10 27.26 63.62 19.00L63.52 18.90L63.81 16.11L63.79 16.08Q63.65 14.23 62.44 13.55L62.52 13.63L62.53 13.68L62.54 13.69Q62.45 13.57 62.38 13.57L62.30 13.49L62.34 13.53Q62.05 12.63 60.95 12.02Z"/><path d="M11 6 C96 10,116 13,182 14" stroke="#222" fill="none"/><path fill="#222" d="M81.58 35.13L81.77 35.32L81.60 35.15Q78.14 35.27 76.50 34.74L76.67 34.90L76.49 34.72Q74.68 34.25 74.38 30.86L74.38 30.86L75.78 29.74L75.82 29.78Q76.42 29.13 77.18 28.63L77.14 28.60L77.15 28.60Q76.88 30.50 78.47 31.72L78.58 31.82L78.65 31.89Q79.82 32.80 81.95 32.61L82.07 32.73L81.93 32.58Q86.32 32.18 86.13 28.63L86.23 28.74L86.15 28.65Q86.03 26.45 83.40 25.23L83.47 25.29L83.31 25.13Q80.62 24.24 78.26 23.02L78.13 22.88L78.24 23.00Q75.69 21.67 74.70 16.99L74.59 16.87L74.62 16.90Q74.54 16.48 74.43 15.72L74.31 15.61L74.31 15.60Q74.43 15.03 74.50 14.46L74.49 14.45L74.42 14.38Q74.58 12.78 75.83 12.33L75.74 12.24L75.89 12.39Q78.12 11.34 82.12 11.53L82.24 11.65L82.25 11.66Q84.01 11.71 84.81 11.79L84.92 11.90L84.88 11.86Q86.32 12.00 87.38 12.46L87.48 12.55L87.37 12.45Q89.54 12.97 89.76 15.45L89.70 15.38L89.66 15.34Q88.73 16.17 86.52 17.50L86.47 17.45L86.45 17.42Q86.14 14.53 81.77 14.53L81.73 14.50L81.67 14.43Q79.71 14.38 78.72 15.06L78.71 15.05L78.74 15.08Q77.58 15.59 77.80 17.38L77.88 17.46L77.90 17.48Q78.12 19.64 81.09 21.17L81.00 21.07L80.98 21.05Q81.53 21.30 86.02 22.93L86.14 23.05L86.04 22.96Q88.74 24.51 89.16 28.89L89.18 28.91L89.20 28.93Q89.13 29.01 89.20 30.27L89.17 30.23L89.16 30.22Q89.37 33.14 87.81 34.24L87.82 34.25L87.76 34.19Q85.87 35.11 81.68 35.23ZM84.02 37.65L83.97 37.60L83.94 37.56Q85.45 37.70 87.42 37.70L87.49 37.76L87.40 37.68Q89.53 37.72 90.79 37.30L90.69 37.20L90.79 37.30Q92.08 36.53 92.00 34.74L91.90 34.63L92.02 34.76Q91.94 33.73 91.56 31.67L91.43 31.54L91.59 31.70Q90.61 26.96 88.52 25.09L88.47 25.04L88.53 25.10Q87.76 23.53 86.43 22.81L86.42 22.80L81.07 20.68L81.07 20.68Q80.70 20.47 80.25 20.24L80.29 20.29L80.15 19.88L80.12 19.51L80.09 19.47Q80.07 18.21 81.22 17.60L81.22 17.60L81.10 17.48Q81.82 16.87 83.53 16.68L83.53 16.67L83.54 16.69Q84.86 16.75 86.00 17.20L85.85 17.05L85.93 17.14Q85.88 17.12 86.07 17.96L86.24 18.12L86.25 18.14Q86.33 17.87 86.82 17.64L86.90 17.72L86.88 17.71Q87.51 18.52 87.62 19.66L87.68 19.72L87.77 19.81Q87.81 19.74 91.46 17.15L91.44 17.13L91.42 17.10Q91.20 14.52 89.75 13.84L89.81 13.89L89.69 13.77Q89.13 12.53 87.68 11.99L87.70 12.01L87.70 12.01Q85.43 11.23 82.23 11.23L82.13 11.12L82.14 11.14Q77.21 11.11 75.34 11.80L75.48 11.94L75.46 11.92Q74.04 12.29 73.93 13.96L73.95 13.99L73.97 14.01Q74.00 14.61 74.42 16.82L74.41 16.81L74.27 16.66Q74.99 20.47 77.16 22.71L77.15 22.70L77.15 22.70Q77.98 24.44 79.48 25.13L79.55 25.20L79.52 25.17Q81.09 25.93 85.02 27.49L85.03 27.50L84.82 27.33L85.57 27.78L85.57 27.81L85.68 27.93Q85.71 28.22 85.75 28.56L85.86 28.68L85.83 28.64Q85.96 32.17 82.04 32.32L81.96 32.24L81.98 32.26Q80.80 32.25 79.50 31.87L79.41 31.78L79.50 31.87Q79.28 31.15 79.28 30.43L79.24 30.39L79.21 30.36Q79.13 30.01 79.16 29.74L79.33 29.91L79.27 29.85Q78.89 30.12 78.09 30.61L78.10 30.63L77.99 30.51Q77.48 29.39 77.63 28.02L77.66 28.05L77.61 28.00Q75.61 29.27 74.01 30.68L74.07 30.75L73.99 30.66Q74.00 31.44 74.08 32.47L74.00 32.39L74.16 32.54Q74.40 34.19 75.69 34.95L75.83 35.09L75.79 35.05Q77.06 36.92 79.61 37.30L79.50 37.20L79.49 37.19Q81.10 37.47 84.04 37.66Z"/><path d="M3 26 C101 2,112 28,196 2" stroke="#666" fill="none"/></svg>