<svg xmlns="http://www.w3.org/2000/svg" width="200" height="40" viewBox="0,0,200,40"><path fill="#222" d="M107.41 14.29L107.43 14.31L107.46 14.34Q108.40 18.67 108.55 22.25L108.49 22.18L108.57 22.26Q109.59 22.25 110.66 22.25L110.73 22.33L112.76 22.15L112.93 22.32Q113.92 22.24 114.79 20.83L114.70 20.74L114.71 20.75Q115.47 19.61 115.59 18.43L115.56 18.40L115.54 18.38Q115.99 15.44 111.77 14.95L111.83 15.02L111.81 15.00Q110.10 14.92 107.48 14.35ZM108.46 24.89L108.55 24.98L108.48 24.91Q108.52 31.24 107.38 35.65L107.30 35.57L107.29 35.56Q105.82 35.96 103.50 37.03L103.59 37.11L103.47 36.99Q105.91 30.41 105.64 23.14L105.63 23.13L105.60 23.10Q105.28 15.69 102.50 9.26L102.56 9.32L102.62 9.38Q106.60 11.99 112.84 11.99L112.91 12.06L112.94 12.09Q119.01 12.11 119.16 15.57L119.14 15.55L119.18 15.58Q119.29 18.06 118.30 20.72L118.31 20.73L118.16 20.58Q117.71 21.65 116.76 22.87L116.88 23.00L116.91 23.02Q115.55 24.59 113.00 24.86L113.06 24.92L112.99 24.85Q110.71 24.86 108.46 24.90ZM114.68 27.23L114.59 27.14L114.66 27.21Q118.84 27.46 120.09 22.67L120.12 22.70L120.01 22.59Q121.08 19.05 120.93 17.03L120.85 16.95L120.82 16.93Q120.74 15.43 119.98 14.44L120.04 14.51L119.92 14.38Q119.58 14.04 119.08 13.82L119.17 13.90L119.22 13.96Q119.05 13.63 118.44 12.87L118.50 12.93L118.44 12.87Q116.89 11.55 112.93 11.55L112.99 11.60L112.99 11.60Q106.08 11.59 101.86 8.43L101.96 8.53L101.81 8.38Q105.05 15.54 105.31 23.00L105.33 23.01L105.41 23.10Q105.65 30.72 102.98 37.80L103.00 37.82L102.94 37.76Q103.99 37.10 104.98 36.72L105.01 36.75L104.66 37.91L104.63 37.89Q104.42 38.44 104.16 39.01L104.21 39.07L104.08 38.94Q106.55 37.94 109.44 37.41L109.41 37.38L109.42 37.39Q110.28 31.89 110.36 27.17L110.52 27.33L110.37 27.18Q111.43 27.06 112.42 27.06L112.54 27.18L112.57 27.21Q113.86 27.17 114.66 27.21ZM113.74 17.31L113.63 17.19L113.67 17.23Q114.16 17.23 115.15 17.45L115.11 17.42L115.09 17.40Q115.24 17.66 115.28 17.97L115.40 18.09L115.32 18.01Q115.32 18.24 115.25 18.51L115.21 18.47L115.20 18.46Q115.15 19.74 114.42 20.61L114.47 20.66L114.48 20.67Q113.90 21.73 112.87 21.92L112.76 21.80L112.76 21.81Q112.15 21.92 110.52 21.92L110.36 21.77L110.51 21.92Q110.50 19.66 110.27 17.30L110.29 17.32L111.87 17.23L111.85 17.21Q112.85 17.36 113.72 17.29Z"/><path fill="#111" d="M162.93 28.00L162.97 28.05L162.98 28.05Q165.94 27.55 169.14 27.66L169.22 27.75L169.15 27.68Q169.08 25.09 169.08 22.69L169.05 22.67L169.09 22.71Q169.15 20.29 169.34 17.74L169.37 17.77L169.23 17.64Q168.02 19.36 162.81 27.88ZM172.73 35.26L172.69 35.21L172.72 35.24Q171.04 34.93 169.25 34.86L169.33 34.94L169.37 34.98Q169.04 32.47 168.92 30.00L169.09 30.17L169.05 30.13Q163.69 29.91 158.97 31.31L158.95 31.30L158.90 31.25Q158.99 30.73 159.18 29.74L159.28 29.84L159.30 29.85Q161.15 26.75 164.72 20.47L164.68 20.43L164.56 20.31Q167.60 15.58 171.03 11.70L170.85 11.52L171.01 11.69Q171.83 11.44 173.51 11.17L173.44 11.10L173.54 11.20Q171.57 17.57 171.57 24.61L171.58 24.63L171.50 24.54Q171.61 26.14 171.69 27.62L171.61 27.55L172.99 27.75L172.89 27.65Q173.53 27.72 174.14 27.83L174.15 27.84L174.29 27.98Q174.37 28.94 174.64 30.88L174.48 30.72L174.52 30.76Q173.41 30.60 171.92 30.41L171.88 30.37L171.96 30.45Q172.14 32.42 172.83 35.35ZM174.49 27.54L174.47 27.51L174.49 27.54Q174.25 27.41 174.06 27.41L174.08 27.44L173.77 27.50L173.62 27.35Q173.52 25.88 173.52 24.47L173.56 24.51L173.50 24.45Q173.60 18.15 175.65 12.14L175.63 12.11L175.71 12.20Q174.91 12.43 173.47 12.81L173.38 12.72L173.39 12.73Q173.60 11.95 174.06 10.54L174.14 10.63L174.19 10.67Q172.84 11.01 170.79 11.23L170.84 11.28L170.76 11.21Q166.80 15.50 161.58 24.87L161.63 24.92L163.81 21.34L163.74 21.28Q163.24 22.23 162.98 22.80L163.00 22.82L158.57 31.87L158.50 31.80Q159.15 31.65 160.29 31.27L160.33 31.31L160.30 31.65L160.27 31.63Q160.17 32.33 159.87 33.58L159.79 33.51L159.74 33.46Q163.88 32.15 168.71 32.34L168.74 32.37L168.84 32.47Q168.71 33.25 168.90 35.23L169.06 35.39L168.93 35.27Q170.04 35.30 171.10 35.42L171.18 35.50L171.08 35.39Q171.22 36.06 171.48 37.44L171.61 37.56L171.56 37.51Q173.34 37.62 176.35 38.53L176.39 38.57L176.46 38.64Q175.48 36.52 174.57 33.25L174.52 33.20L175.95 33.64L176.05 33.74Q176.67 33.91 177.36 34.25L177.40 34.30L177.30 34.19Q176.53 31.71 176.38 30.03L176.43 30.09L176.42 30.07Q175.81 29.89 174.67 29.66L174.74 29.73L174.66 29.65Q174.37 28.29 174.37 27.42ZM166.50 27.39L166.48 27.37L166.47 27.35Q167.14 25.97 168.70 23.42L168.86 23.58L168.88 23.60Q168.69 24.36 168.65 25.31L168.71 25.37L168.68 25.34Q168.70 26.35 168.73 27.30L168.77 27.34L168.80 27.36Q168.15 27.25 167.58 27.25L167.71 27.38L167.71 27.38Q167.12 27.40 166.51 27.40Z"/><path fill="#222" d="M135.82 35.33L135.96 35.46L135.88 35.39Q131.78 35.59 130.79 33.27L130.85 33.33L130.79 33.27Q131.66 32.42 133.22 30.63L133.10 30.51L133.04 30.45Q133.67 32.61 136.68 32.73L136.54 32.58L136.71 32.76Q140.11 32.84 141.74 31.51L141.75 31.51L141.58 31.35Q143.13 29.89 143.06 27.19L142.93 27.06L142.95 27.08Q142.83 22.05 138.04 22.28L138.09 22.33L137.97 22.22Q135.27 22.48 133.52 23.74L133.49 23.71L133.12 23.49L132.90 23.34L133.02 23.47Q133.33 20.27 133.21 17.53L133.25 17.57L133.07 17.39Q133.10 14.91 132.76 11.60L132.79 11.63L132.71 11.54Q136.44 12.58 140.25 12.46L140.24 12.45L140.26 12.47Q143.92 12.25 147.50 10.99L147.59 11.09L147.06 12.65L146.89 12.48Q146.66 13.31 146.47 14.15L146.40 14.08L146.45 14.13Q143.44 15.28 139.56 15.28L139.41 15.12L139.49 15.21Q138.05 15.21 136.56 15.06L136.53 15.03L136.61 15.11Q136.58 15.83 136.23 20.29L136.11 20.17L136.17 20.22Q136.90 19.66 138.95 19.50L139.09 19.64L138.98 19.53Q142.73 19.78 144.18 21.46L144.24 21.51L144.26 21.54Q145.62 23.05 145.88 26.89L145.89 26.90L145.76 26.77Q146.03 30.96 144.82 32.98L144.86 33.03L144.87 33.04Q142.80 34.89 139.49 35.12L139.62 35.24L139.55 35.17Q138.52 35.22 135.86 35.37ZM141.94 37.68L141.84 37.58L141.99 37.73Q145.37 37.76 147.27 36.66L147.25 36.63L147.30 36.68Q148.16 35.03 148.16 32.93L148.26 33.03L148.26 33.04Q148.33 30.02 147.38 25.91L147.24 25.77L147.25 25.78Q146.97 24.13 145.75 22.72L145.76 22.73L145.77 22.78L145.43 22.37L145.24 22.33L145.08 22.17Q144.87 21.53 144.22 20.85L144.31 20.94L144.30 20.97L144.28 20.95Q142.62 19.13 138.92 19.13L139.04 19.24L138.69 19.17L138.80 19.27Q138.74 18.57 138.93 17.46L139.05 17.58L139.05 17.58Q143.98 17.64 148.02 16.00L148.08 16.07L148.09 16.07Q148.47 14.63 149.42 11.81L149.44 11.83L147.34 12.77L147.25 12.69Q147.59 11.50 148.08 10.36L148.26 10.54L148.26 10.54Q144.24 11.81 140.13 11.89L140.29 12.05L140.28 12.03Q136.07 12.06 132.12 10.95L132.16 11.00L132.20 11.04Q132.77 15.34 132.77 19.75L132.85 19.83L132.79 19.78Q132.74 21.63 132.63 23.53L132.79 23.69L132.71 23.61Q132.90 23.73 133.47 24.03L133.53 24.09L133.58 24.14Q133.81 23.80 134.46 23.46L134.49 23.49L134.62 23.62Q134.41 24.21 134.18 25.74L134.26 25.81L134.26 25.81Q134.63 25.96 135.05 26.19L135.21 26.34L135.08 26.22Q137.88 24.48 139.75 24.48L139.76 24.50L139.75 24.48Q141.18 24.58 142.36 25.23L142.18 25.05L142.22 25.10Q142.64 26.20 142.68 27.15L142.55 27.03L142.59 27.07Q142.65 29.64 141.63 30.74L141.78 30.90L141.64 30.76Q140.36 32.07 138.12 32.30L138.02 32.20L138.02 32.20Q137.05 32.25 136.36 32.18L136.40 32.21L136.49 32.31Q135.68 32.22 134.92 31.88L134.93 31.89L134.80 31.57L134.67 31.67L134.69 31.69Q133.81 31.11 133.27 29.78L133.31 29.81L133.32 29.82Q132.12 31.37 130.45 33.50L130.32 33.37L130.28 33.33Q130.57 33.96 131.40 34.91L131.45 34.95L131.45 34.96Q132.47 36.74 135.29 37.24L135.31 37.25L135.39 37.33Q136.53 37.52 141.90 37.64Z"/><path d="M17 9 C112 28,114 21,196 9" stroke="#888" fill="none"/><path d="M10 21 C96 7,104 30,195 25" stroke="#666" fill="none"/><path fill="#111" d="M26.93 35.05L27.09 35.21L24.81 35.21L24.86 35.27Q24.48 35.34 23.50 35.40L23.42 35.31L23.51 35.41Q22.55 35.47 22.05 35.47L22.06 35.48L21.96 35.37Q20.44 35.49 19.42 34.66L19.26 34.50L19.26 34.50Q20.08 33.41 21.71 31.28L21.80 31.36L21.71 31.27Q22.98 32.86 25.19 32.63L25.14 32.58L25.32 32.76Q26.13 32.54 26.77 31.89L26.72 31.83L26.79 31.91Q27.45 31.27 27.33 30.39L27.40 30.46L27.37 30.43Q27.26 25.83 27.34 21.26L27.27 21.19L27.23 21.15Q27.26 16.53 27.79 11.93L27.86 12.00L27.83 11.97Q29.73 11.74 31.86 10.71L31.90 10.75L31.95 10.80Q30.05 17.50 30.05 24.74L30.03 24.72L30.00 24.68Q30.12 28.35 30.58 31.85L30.49 31.76L30.55 31.82Q30.55 32.08 30.55 32.43L30.54 32.41L30.69 32.57Q30.63 33.08 30.40 33.62L30.31 33.52L30.40 33.62Q29.73 34.76 26.91 35.03ZM31.95 37.98L31.91 37.94L32.27 37.96L32.55 37.82L32.77 37.65L32.74 37.62Q33.15 37.47 33.23 37.36L33.12 37.24L33.14 37.26Q33.34 36.10 33.08 35.11L33.03 35.06L33.05 35.08Q31.80 29.37 32.06 23.01L32.09 23.05L32.11 23.06Q32.32 16.91 34.11 11.01L34.07 10.97L34.04 10.94Q33.14 11.57 31.88 12.29L31.94 12.35L31.92 12.33Q32.15 11.60 32.57 10.08L32.56 10.08L32.63 10.14Q30.01 11.37 27.34 11.67L27.30 11.63L27.35 11.68Q27.11 16.19 27.03 21.14L26.98 21.09L27.05 21.16Q26.80 26.89 26.88 30.32L26.92 30.36L27.00 30.44Q26.99 32.15 25.24 32.30L25.20 32.26L25.20 32.26Q23.55 32.44 21.88 30.80L21.78 30.70L21.75 30.67Q19.70 33.19 18.75 34.76L18.86 34.86L18.82 34.83Q19.55 35.55 20.58 35.78L20.43 35.63L20.55 35.75Q20.44 35.88 20.18 36.10L20.19 36.12L20.19 36.11Q21.55 36.98 23.53 37.25L23.70 37.42L23.62 37.33Q23.96 37.34 27.26 37.64L27.31 37.70L27.20 37.59Q30.56 37.96 31.93 37.96Z"/><path fill="#333" d="M51.65 21.90L51.53 21.77L51.53 21.77Q53.42 22.02 55.24 22.02L55.15 21.93L55.11 21.89Q56.92 21.91 58.75 21.76L58.78 21.79L58.86 21.87Q58.79 22.56 58.79 23.28L58.74 23.24L58.68 24.51L58.71 24.54Q56.38 24.56 51.62 24.68L51.63 24.69L51.58 24.64Q51.68 30.68 50.54 35.67L50.39 35.52L50.39 35.52Q48.25 36.27 46.76 37.07L46.73 37.03L46.70 37.01Q48.98 30.15 48.72 23.03L48.72 23.04L48.86 23.17Q48.58 16.00 45.91 9.34L45.96 9.39L45.96 9.39Q49.49 11.78 54.25 12.00L54.36 12.12L54.28 12.03Q58.90 12.17 63.05 10.41L63.06 10.42L63.11 10.47Q62.76 11.22 62.53 12.02L62.68 12.18L62.21 13.80L62.10 13.69Q59.41 14.80 56.44 14.95L56.47 14.99L56.48 14.99Q53.45 15.05 50.59 14.33L50.61 14.34L50.63 14.36Q51.44 17.88 51.63 21.87ZM63.74 9.78L63.79 9.82L63.82 9.86Q59.09 11.86 54.22 11.56L54.21 11.54L54.32 11.65Q48.98 11.34 45.25 8.49L45.22 8.46L45.14 8.38Q48.06 15.37 48.36 22.99L48.35 22.97L48.34 22.96Q48.83 31.06 46.32 37.84L46.19 37.72L46.29 37.82Q46.86 37.32 48.23 36.67L48.37 36.81L48.36 36.80Q48.14 37.53 47.57 39.06L47.47 38.95L47.44 38.92Q49.93 38.03 52.82 37.53L52.82 37.53L52.70 37.41Q53.38 32.61 53.57 26.90L53.54 26.87L53.54 26.86Q55.30 26.80 57.12 26.80L57.06 26.73L57.16 26.84Q58.90 26.79 60.73 26.98L60.81 27.06L60.71 26.96Q60.58 25.98 60.58 25.07L60.73 25.23L60.74 23.34L60.55 23.14Q59.94 23.41 59.11 23.41L59.08 23.38L59.02 23.32Q59.03 22.46 59.10 21.43L59.05 21.37L59.15 21.47Q57.70 21.59 56.29 21.59L56.36 21.66L56.41 21.70Q54.96 21.66 53.59 21.63L53.51 21.54L53.51 19.41L53.47 19.37Q53.44 18.28 53.33 17.21L53.27 17.16L53.30 17.19Q54.37 17.34 55.36 17.34L55.34 17.32L55.40 17.38Q60.07 17.29 63.68 15.39L63.61 15.31L63.65 15.36Q64.15 13.54 65.07 10.91L65.15 10.99L65.15 10.99Q63.89 11.86 63.09 12.20L63.10 12.22L63.06 12.18Q63.32 11.41 63.81 9.85Z"/><path fill="#444" d="M73.74 33.93L73.86 34.05L73.86 34.05Q75.57 31.50 80.33 24.22L80.42 24.32L80.42 24.32Q84.39 18.05 87.24 14.77L87.30 14.83L87.28 14.81Q85.27 15.20 83.18 15.20L83.10 15.12L83.01 15.04Q77.88 15.16 73.88 13.37L73.80 13.28L73.95 13.43Q73.10 11.33 72.42 9.77L72.42 9.77L72.57 9.92Q77.03 11.98 82.70 12.10L82.70 12.10L82.76 12.16Q87.80 12.13 92.98 10.23L93.10 10.35L93.03 10.28Q92.60 11.07 92.30 11.87L92.32 11.89L91.74 13.48L91.87 13.62Q88.66 17.10 84.66 22.93L84.69 22.96L81.29 27.71L81.49 27.90Q79.66 30.18 77.83 32.47L77.84 32.47L77.93 32.57Q81.20 31.91 84.51 31.99L84.49 31.97L84.49 31.97Q87.85 32.09 91.01 33.01L90.93 32.92L91.48 34.58L91.47 34.56Q91.83 35.50 92.17 36.34L92.06 36.23L92.12 36.29Q87.48 34.73 82.34 34.92L82.30 34.88L82.31 34.89Q77.22 35.13 72.73 37.15L72.71 37.13L72.60 37.02Q73.04 36.01 73.76 33.96ZM72.00 37.71L72.07 37.78L72.08 37.79Q73.27 37.15 74.07 36.88L74.17 36.99L74.14 36.96Q73.77 37.62 73.09 39.14L73.06 39.12L73.10 39.16Q78.84 37.05 84.82 37.28L84.84 37.30L84.72 37.18Q91.16 37.54 96.19 40.32L96.08 40.20L96.23 40.36Q94.81 37.94 94.01 35.77L94.04 35.80L93.98 35.74Q93.51 35.54 91.98 34.97L91.95 34.94L91.99 34.98Q91.68 34.10 91.27 32.61L91.36 32.71L91.33 32.68Q87.14 31.46 82.04 31.65L82.15 31.76L82.15 31.76Q84.31 29.04 87.85 23.49L87.85 23.48L87.68 23.32Q91.36 17.63 93.26 15.08L93.31 15.13L93.25 15.06Q93.80 13.71 94.82 11.01L94.75 10.93L94.83 11.02Q94.22 11.43 92.77 12.04L92.79 12.06L92.66 11.93Q92.96 11.09 93.69 9.57L93.72 9.60L93.70 9.58Q88.42 11.76 82.71 11.69L82.71 11.69L82.68 11.65Q76.65 11.49 71.71 8.98L71.78 9.05L71.90 9.17Q73.01 11.50 73.73 13.75L73.61 13.63L73.70 13.71Q74.85 14.29 75.65 14.52L75.65 14.52L75.55 14.42Q75.74 15.04 76.01 16.48L76.06 16.53L76.11 16.59Q79.74 17.54 84.61 17.35L84.79 17.53L84.62 17.37Q82.39 20.73 79.08 25.72L78.95 25.59L73.47 33.97L73.49 33.99Q73.08 35.21 72.05 37.76Z"/></svg>