<svg xmlns="http://www.w3.org/2000/svg" width="200" height="40" viewBox="0,0,200,40"><path fill="#111" d="M106.91 35.31L106.88 35.28L106.98 35.38Q105.54 35.43 103.98 35.02L103.91 34.94L104.06 35.09Q102.73 34.06 102.57 32.42L102.54 32.40L102.62 32.47Q102.52 32.22 102.71 29.59L102.77 29.65L102.70 29.58Q103.86 29.53 105.88 29.14L105.71 28.98L105.61 29.83L105.70 29.91Q105.32 31.56 106.73 32.13L106.78 32.17L106.80 32.20Q107.46 32.40 109.55 32.40L109.70 32.55L109.68 32.52Q111.33 32.42 111.52 32.35L111.41 32.24L111.38 32.21Q112.42 32.18 113.14 31.68L113.13 31.67L113.04 31.58Q114.51 30.69 114.32 28.60L114.25 28.53L114.19 28.47Q114.18 26.21 112.44 24.65L112.32 24.52L112.31 24.51Q110.55 22.93 108.07 22.93L108.25 23.10L108.07 22.70L108.14 22.76Q108.61 22.81 109.48 22.74L109.37 22.62L109.51 22.76Q111.34 22.58 112.71 21.34L112.69 21.31L112.70 21.33Q114.15 20.17 114.30 18.30L114.11 18.11L114.20 18.20Q114.29 17.87 114.29 17.53L114.35 17.59L114.29 17.53Q114.20 15.92 112.83 15.01L112.96 15.13L112.98 15.16Q111.62 14.21 110.02 14.33L110.12 14.43L110.05 14.35Q108.85 14.29 107.63 14.71L107.62 14.71L107.50 14.59Q106.23 15.29 105.92 16.44L105.88 16.39L105.90 16.42Q105.57 17.03 105.64 17.79L105.79 17.94L105.80 17.95Q104.75 17.70 102.69 16.98L102.70 16.98L102.58 16.86Q102.39 15.22 102.43 14.39L102.51 14.47L102.41 14.37Q102.48 12.80 103.54 12.11L103.57 12.14L103.69 12.26Q105.02 11.57 106.62 11.57L106.58 11.53L106.70 11.66Q109.77 11.52 112.93 11.79L113.01 11.88L112.93 11.79Q118.02 12.24 117.72 16.01L117.76 16.05L117.61 15.91Q117.69 17.55 117.20 19.11L117.18 19.09L117.08 18.99Q116.24 22.15 113.88 23.06L113.80 22.98L113.87 23.05Q116.59 23.67 117.20 27.03L117.02 26.84L117.03 26.86Q117.28 28.02 117.35 30.03L117.34 30.02L117.35 30.03Q117.65 34.64 113.05 35.09L112.91 34.96L112.90 34.94Q112.23 35.08 106.94 35.34ZM112.16 37.60L112.17 37.60L112.23 37.67Q112.69 37.55 115.55 37.63L115.61 37.69L115.60 37.68Q117.45 37.86 119.08 37.21L118.91 37.04L118.99 37.11Q120.23 36.22 120.04 34.47L120.04 34.47L120.01 34.45Q119.87 33.09 119.57 31.34L119.52 31.29L119.53 31.30Q118.91 26.91 116.97 25.28L116.82 25.12L116.79 24.90L116.62 24.70L116.63 24.70Q118.36 23.23 119.12 18.86L119.25 18.99L119.10 18.84Q119.19 18.43 119.30 17.48L119.41 17.59L119.26 17.44Q119.51 16.85 119.43 16.17L119.42 16.16L119.44 16.17Q119.27 14.47 117.97 13.79L117.83 13.65L117.87 13.76L117.93 13.82Q117.55 12.76 116.41 12.22L116.33 12.15L116.30 12.11Q114.79 11.45 109.65 11.14L109.63 11.12L109.71 11.20Q108.07 11.15 106.47 11.15L106.46 11.15L106.44 11.13Q104.93 11.21 103.41 11.86L103.34 11.80L103.29 11.75Q102.14 12.57 102.14 14.32L102.16 14.35L102.16 14.35Q102.18 13.95 102.45 17.30L102.39 17.24L102.37 17.22Q102.68 17.30 104.31 17.91L104.22 17.82L104.29 17.88Q104.35 18.48 104.31 18.97L104.32 18.98L104.25 18.91Q104.19 19.35 104.23 19.88L104.37 20.02L104.31 19.96Q106.02 20.26 108.04 20.38L108.07 20.41L108.15 20.48Q107.95 18.35 109.05 17.51L109.09 17.54L109.22 17.68Q110.02 16.99 112.03 16.76L112.02 16.75L111.99 16.71Q113.18 16.77 113.75 16.96L113.67 16.87L113.71 16.91Q113.82 17.10 113.86 17.22L113.86 17.21L113.83 17.38L113.81 17.81L113.86 17.86Q113.81 18.00 113.77 18.16L113.84 18.22L113.86 18.24Q113.79 19.96 112.27 21.14L112.32 21.19L112.25 21.13Q111.40 22.10 109.38 22.29L109.29 22.20L109.33 22.24Q108.52 22.30 107.64 22.30L107.77 22.43L107.76 22.42Q107.82 22.79 107.97 23.47L107.87 23.37L107.85 23.34Q109.73 23.48 111.18 24.20L111.04 24.06L111.04 24.17L109.35 24.24L109.46 24.35Q109.44 24.63 109.55 25.24L109.59 25.28L109.52 25.21Q111.71 25.19 113.42 26.52L113.39 26.49L113.39 26.49Q113.65 26.90 113.95 28.54L114.07 28.65L113.89 28.48Q114.21 31.54 111.28 31.96L111.33 32.01L111.29 31.97Q109.21 32.25 108.64 32.21L108.57 32.14L108.52 32.09Q108.21 32.12 107.67 32.04L107.50 31.87L107.62 31.53L107.71 31.05L107.65 30.58L107.69 30.27L107.87 30.45Q106.75 30.36 105.95 30.55L106.09 30.68L105.98 30.58Q106.00 30.41 106.00 30.22L106.07 30.29L105.92 30.13Q106.12 30.11 106.12 29.88L106.08 29.84L106.10 29.86Q106.07 29.38 106.23 28.65L106.29 28.72L106.18 28.61Q104.40 28.93 102.54 29.27L102.41 29.14L102.52 29.25Q102.48 29.70 102.36 30.83L102.32 30.79L102.29 30.75Q102.34 32.04 102.34 32.65L102.23 32.54L102.17 32.48Q102.24 34.52 103.61 35.29L103.77 35.45L103.76 35.44Q105.16 37.63 109.88 37.44L109.89 37.46L109.86 37.43Q110.65 37.46 112.18 37.61Z"/><path fill="#333" d="M162.88 27.96L162.92 27.99L162.80 27.87Q165.93 27.54 169.13 27.66L169.25 27.78L169.16 27.69Q169.15 25.17 169.15 22.77L169.04 22.65L169.11 22.72Q169.17 20.31 169.36 17.76L169.40 17.81L169.32 17.72Q168.11 19.44 162.90 27.97ZM172.83 35.35L172.85 35.38L172.72 35.25Q171.13 35.02 169.34 34.95L169.34 34.95L169.37 34.98Q169.09 32.53 168.97 30.05L168.91 29.99L168.96 30.03Q163.60 29.82 158.88 31.22L158.88 31.23L158.87 31.22Q159.15 30.89 159.34 29.90L159.24 29.80L159.25 29.81Q161.02 26.63 164.60 20.35L164.63 20.38L164.60 20.34Q167.56 15.54 170.98 11.66L170.87 11.54L170.87 11.55Q171.82 11.42 173.49 11.16L173.53 11.19L173.48 11.15Q171.61 17.62 171.61 24.66L171.53 24.57L171.54 24.59Q171.54 26.07 171.61 27.55L171.58 27.52L172.96 27.72L172.98 27.74Q173.50 27.68 174.10 27.80L174.12 27.81L174.11 27.80Q174.27 28.84 174.54 30.78L174.54 30.78L174.50 30.74Q173.39 30.58 171.90 30.39L171.82 30.30L171.77 30.26Q172.18 32.46 172.87 35.39ZM174.39 27.44L174.35 27.40L174.51 27.55Q174.28 27.44 174.09 27.44L174.00 27.35L173.71 27.44L173.72 27.45Q173.54 25.90 173.54 24.49L173.58 24.53L173.53 24.48Q173.57 18.13 175.63 12.11L175.71 12.20L175.54 12.02Q174.82 12.33 173.37 12.71L173.51 12.85L173.35 12.69Q173.69 12.04 174.14 10.63L174.12 10.61L174.07 10.56Q172.72 10.88 170.66 11.11L170.69 11.13L170.73 11.18Q166.84 15.55 161.63 24.91L161.58 24.87L163.66 21.20L163.66 21.20Q163.33 22.32 163.07 22.89L162.98 22.80L158.61 31.91L158.63 31.93Q159.14 31.64 160.28 31.26L160.46 31.44L160.21 31.57L160.31 31.67Q160.01 32.17 159.71 33.42L159.75 33.46L159.75 33.46Q164.00 32.27 168.83 32.46L168.75 32.38L168.78 32.41Q168.87 33.41 169.06 35.39L169.00 35.33L168.94 35.28Q170.13 35.40 171.20 35.51L171.14 35.45L171.16 35.47Q171.24 36.09 171.51 37.46L171.51 37.46L171.48 37.43Q173.39 37.66 176.40 38.58L176.34 38.52L176.39 38.57Q175.54 36.58 174.62 33.30L174.44 33.12L176.04 33.73L175.94 33.63Q176.75 33.99 177.44 34.33L177.42 34.31L177.32 34.22Q176.60 31.78 176.45 30.11L176.35 30.00L176.42 30.08Q175.78 29.85 174.63 29.62L174.75 29.74L174.75 29.73Q174.53 28.46 174.53 27.58ZM166.39 27.27L166.53 27.42L166.40 27.29Q167.29 26.12 168.85 23.57L168.81 23.53L168.83 23.56Q168.84 24.51 168.80 25.46L168.70 25.36L168.69 25.35Q168.77 26.42 168.81 27.37L168.82 27.39L168.72 27.28Q168.27 27.37 167.70 27.37L167.56 27.23L167.65 27.32Q167.13 27.41 166.52 27.41Z"/><path fill="#333" d="M24.35 34.96L24.35 34.97L24.31 34.92Q20.03 34.27 18.21 32.82L18.26 32.88L18.38 32.99Q16.40 31.39 15.98 28.38L16.13 28.53L16.05 28.45Q15.97 28.03 15.62 23.27L15.71 23.36L15.59 23.23Q15.76 22.19 15.69 20.93L15.60 20.85L15.57 20.82Q15.40 15.78 17.61 14.03L17.64 14.06L17.62 14.03Q20.45 12.10 28.21 11.42L28.17 11.38L28.18 11.39Q29.54 11.26 31.17 11.29L31.11 11.24L31.02 11.14Q31.03 11.16 34.00 11.16L34.11 11.26L34.11 11.27Q34.80 11.12 36.52 11.27L36.60 11.35L36.65 11.40Q36.04 12.24 35.01 15.33L35.16 15.47L35.05 15.36Q32.91 14.10 29.91 14.10L29.98 14.18L30.08 14.27Q29.22 14.17 28.42 14.25L28.34 14.18L28.50 14.34Q23.42 14.81 20.90 16.79L20.78 16.66L20.85 16.74Q18.70 18.20 18.55 21.55L18.54 21.54L18.66 21.66Q18.66 22.31 18.70 23.57L18.60 23.47L18.54 23.41Q18.69 28.27 21.08 30.37L21.23 30.52L21.07 30.36Q23.36 32.42 28.35 32.72L28.21 32.58L28.36 32.73Q31.45 32.86 34.46 31.07L34.40 31.00L34.52 31.13Q34.97 33.71 35.58 35.08L35.71 35.21L35.67 35.17Q33.58 35.44 31.94 35.40L31.97 35.43L31.93 35.39Q27.42 35.29 24.30 34.91ZM39.32 38.56L39.50 38.74L39.40 38.64Q37.62 35.64 36.94 33.05L37.04 33.15L37.04 33.15Q36.55 33.35 35.56 33.73L35.45 33.62L35.53 33.69Q35.17 32.88 34.98 32.04L35.08 32.14L34.63 30.36L34.54 30.27Q31.26 32.32 28.14 32.21L28.25 32.32L28.32 32.39Q24.06 32.20 21.74 30.45L21.59 30.30L21.71 30.42Q20.48 28.51 20.56 25.58L20.61 25.63L20.57 25.59Q20.68 21.05 23.15 18.92L23.19 18.96L23.22 18.99Q25.29 17.03 29.98 16.42L30.11 16.55L29.92 16.36Q30.85 16.38 31.58 16.38L31.46 16.26L31.45 16.26Q34.37 16.40 36.47 17.92L36.32 17.77L36.33 17.78Q36.85 15.67 38.06 12.44L38.04 12.42L38.16 12.53Q37.88 12.52 37.32 12.46L37.29 12.42L37.22 12.36Q36.72 12.35 36.45 12.35L36.55 12.44L36.45 12.34Q36.59 11.76 37.04 10.77L37.16 10.88L37.14 10.86Q36.83 10.79 34.34 10.71L34.32 10.70L34.38 10.75Q31.95 10.74 31.30 10.77L31.21 10.69L31.21 10.69Q20.71 11.03 17.24 13.62L17.38 13.76L17.36 13.74Q15.21 15.43 15.21 19.35L15.32 19.46L15.33 19.47Q15.21 20.46 15.33 23.16L15.33 23.17L15.42 23.25Q15.48 26.75 15.71 28.46L15.76 28.51L15.77 28.51Q16.05 31.54 17.65 33.06L17.69 33.10L17.75 33.17Q18.21 33.81 19.47 34.96L19.43 34.92L19.38 34.86Q22.69 36.70 27.95 37.46L28.05 37.56L28.10 37.61Q34.44 38.47 39.43 38.66Z"/><path fill="#333" d="M140.78 15.16L140.65 15.04L140.69 15.07Q136.34 15.02 132.65 14.03L132.65 14.04L132.73 14.11Q134.26 18.70 134.46 23.53L134.43 23.51L134.34 23.42Q134.69 28.37 133.47 32.98L133.32 32.83L133.45 32.96Q136.19 32.27 139.69 32.12L139.72 32.15L139.67 32.10Q143.54 31.86 145.33 29.42L145.36 29.45L145.37 29.46Q147.00 27.52 147.19 23.41L147.16 23.37L147.17 23.38Q147.26 21.64 146.80 19.93L146.84 19.97L146.70 19.82Q145.41 15.08 140.69 15.08ZM128.84 37.15L128.75 37.06L128.76 37.06Q131.81 31.54 131.81 24.84L131.73 24.77L131.66 24.69Q131.66 16.17 127.36 9.16L127.40 9.21L127.46 9.26Q132.61 11.83 140.87 12.02L140.90 12.05L140.91 12.06Q149.88 12.35 150.22 19.51L150.24 19.52L150.06 19.34Q150.26 22.13 150.22 23.58L150.25 23.60L150.30 23.66Q150.23 28.35 149.39 30.52L149.27 30.39L149.25 30.37Q148.88 31.53 148.12 32.37L148.15 32.39L148.16 32.40Q146.82 33.95 144.19 34.45L144.22 34.48L144.09 34.34Q142.61 34.73 139.60 34.96L139.50 34.86L139.66 35.02Q133.37 35.31 128.76 37.06ZM146.71 36.97L146.72 36.98L146.75 37.00Q149.58 36.76 151.22 35.27L151.13 35.18L151.06 35.11Q152.34 33.42 152.30 30.68L152.36 30.74L152.34 30.72Q152.27 29.28 152.12 25.78L152.11 25.77L151.84 21.31L151.79 21.27Q151.54 18.92 150.59 16.82L150.66 16.89L150.68 16.92Q150.24 16.06 149.55 15.41L149.44 15.30L149.32 15.03L149.50 15.21Q147.68 12.12 143.26 11.74L143.35 11.84L143.34 11.83Q140.61 11.65 133.61 10.92L133.69 11.00L133.65 10.97Q130.30 10.43 126.60 8.41L126.72 8.53L126.57 8.38Q131.51 15.87 131.51 24.62L131.54 24.65L131.55 24.67Q131.48 31.60 128.13 37.76L128.17 37.81L128.19 37.82Q128.77 37.45 130.10 36.96L130.10 36.96L130.14 37.00Q129.84 37.88 128.97 39.36L129.02 39.42L128.97 39.37Q131.94 38.23 135.29 37.73L135.34 37.78L135.41 37.85Q137.43 37.47 141.09 37.36L141.07 37.35L141.00 37.27Q144.95 37.22 146.78 37.03ZM146.72 23.31L146.79 23.38L146.84 23.44Q146.36 31.33 139.66 31.71L139.78 31.83L139.66 31.70Q137.87 31.98 135.82 32.24L135.77 32.20L135.74 32.16Q136.41 28.26 136.41 24.61L136.49 24.69L136.41 24.62Q136.37 20.88 135.65 17.04L135.68 17.07L135.64 17.03Q137.87 17.36 142.55 17.36L142.63 17.43L142.71 17.51Q144.04 17.32 145.68 18.27L145.68 18.28L145.66 18.25Q146.94 20.53 146.79 23.38Z"/><path d="M13 21 C121 13,94 3,183 34" stroke="#555" fill="none"/><path fill="#111" d="M62.34 35.44L62.34 35.44L62.29 35.39Q59.22 31.40 56.59 22.76L56.61 22.78L56.69 22.86Q56.01 20.69 55.21 18.56L55.23 18.58L52.27 27.27L52.27 27.27Q50.61 32.35 48.21 35.58L48.06 35.43L48.07 35.45Q47.28 35.57 45.64 35.72L45.56 35.64L45.61 35.68Q45.72 34.50 45.72 33.25L45.75 33.28L45.80 33.32Q45.83 27.34 43.09 21.21L43.04 21.17L43.07 21.19Q39.97 14.32 34.10 9.33L34.00 9.23L33.96 9.19Q36.12 9.90 38.48 10.43L38.56 10.52L38.58 10.54Q47.17 18.90 48.47 29.87L48.52 29.92L48.44 29.84Q50.08 26.53 51.53 21.16L51.58 21.21L51.57 21.21Q53.61 13.77 54.11 12.36L54.07 12.32L56.24 12.24L56.40 12.40Q56.95 14.29 57.60 16.61L57.78 16.79L58.93 21.14L58.88 21.09Q60.53 26.63 61.94 29.86L61.83 29.75L61.85 29.77Q63.60 18.23 71.52 10.89L71.42 10.79L71.45 10.82Q72.96 10.46 75.93 9.82L75.96 9.85L75.99 9.87Q70.70 14.22 67.66 20.35L67.57 20.26L67.60 20.29Q64.40 26.42 64.40 33.19L64.55 33.34L64.58 33.37Q64.50 34.40 64.58 35.54L64.63 35.59L63.52 35.52L63.38 35.38Q62.83 35.36 62.26 35.36ZM68.45 38.20L68.58 38.33L68.49 38.24Q67.32 34.75 67.43 30.86L67.32 30.75L67.36 30.79Q67.63 19.18 76.99 10.92L77.03 10.95L77.07 10.99Q76.12 11.22 74.18 11.76L74.14 11.72L74.25 11.83Q75.19 10.98 77.10 9.19L77.03 9.13L76.96 9.05Q74.45 9.97 71.52 10.47L71.47 10.42L71.51 10.46Q63.94 17.51 62.03 26.99L62.13 27.08L62.11 27.06Q61.43 25.31 58.57 13.85L58.59 13.88L58.63 13.91Q58.18 13.96 57.23 13.96L57.35 14.08L56.92 12.89L57.03 13.00Q56.86 12.41 56.63 11.91L56.56 11.84L53.62 11.80L53.81 11.98Q52.97 14.42 51.69 19.54L51.63 19.48L51.52 19.36Q50.40 24.64 49.41 27.11L49.33 27.03L49.26 26.96Q47.87 19.25 42.31 12.93L42.25 12.87L42.18 12.80Q41.82 12.86 40.87 12.67L40.69 12.50L40.68 12.48Q39.99 11.68 38.43 10.04L38.51 10.12L38.46 10.07Q35.12 9.32 32.95 8.52L32.92 8.49L32.96 8.53Q38.69 13.27 41.96 19.47L41.97 19.49L41.90 19.41Q45.30 25.98 45.30 32.98L45.35 33.02L45.27 32.95Q45.43 34.67 45.24 36.27L45.17 36.20L45.06 36.09Q45.46 36.26 45.92 36.17L45.79 36.04L45.74 35.99Q46.30 35.99 46.52 35.99L46.61 36.08L46.48 36.97L46.45 36.95Q46.61 37.56 46.68 38.09L46.63 38.03L46.68 38.09Q47.77 37.96 50.05 37.81L50.10 37.85L50.08 37.83Q53.61 32.34 56.35 22.94L56.45 23.04L56.29 22.88Q59.20 31.80 62.17 35.76L62.22 35.81L62.14 35.73Q62.57 35.71 63.41 35.82L63.54 35.95L63.51 35.93Q64.24 36.85 65.31 37.91L65.35 37.95L65.40 38.00Q66.20 38.08 68.60 38.35Z"/><path fill="#222" d="M82.78 25.35L82.96 25.52L82.85 25.42Q79.47 31.86 76.04 35.82L75.93 35.70L75.91 35.68Q74.11 36.16 71.67 37.04L71.72 37.09L71.57 36.94Q76.52 31.38 81.28 22.97L81.40 23.09L81.25 22.94Q76.79 16.12 70.81 9.73L70.66 9.57L70.78 9.69Q73.60 10.79 75.88 11.29L75.90 11.31L75.93 11.34Q80.69 16.67 83.13 20.63L83.04 20.54L83.03 20.53Q85.61 16.18 89.53 11.77L89.51 11.75L89.42 11.66Q91.04 11.38 94.24 10.62L94.35 10.73L94.17 10.54Q88.25 17.15 84.79 23.09L84.70 23.01L84.66 22.96Q89.97 31.77 94.35 36.34L94.32 36.31L94.19 36.18Q91.74 35.52 89.64 35.29L89.51 35.16L89.58 35.23Q86.72 32.18 82.80 25.37ZM89.53 35.60L89.52 35.59L89.45 35.52Q89.71 35.51 90.16 35.62L90.34 35.80L90.35 35.81Q91.06 36.48 92.58 38.08L92.51 38.01L92.53 38.03Q95.98 38.93 99.03 40.30L98.89 40.16L99.07 40.35Q91.80 33.60 86.70 24.85L86.66 24.81L86.80 24.95Q90.41 18.17 96.31 11.32L96.35 11.35L96.34 11.34Q95.01 12.11 92.84 12.64L92.70 12.50L92.69 12.49Q93.66 11.67 95.41 9.88L95.44 9.91L95.48 9.95Q93.01 10.75 89.31 11.32L89.22 11.23L89.31 11.32Q85.87 15.11 83.28 19.41L83.27 19.40L83.21 19.35Q82.45 17.90 81.27 16.41L81.21 16.36L78.96 13.45L78.45 13.33L78.53 13.41Q78.32 13.34 78.09 13.27L78.11 13.29L78.24 13.42Q77.47 12.50 75.99 10.94L75.97 10.93L76.08 11.03Q72.23 10.11 69.64 8.74L69.50 8.60L69.55 8.65Q76.42 16.06 80.99 23.10L80.91 23.02L80.88 22.99Q76.49 31.27 70.74 37.86L70.58 37.70L70.60 37.72Q71.94 37.08 74.07 36.51L74.12 36.56L72.92 38.10L72.85 38.03Q72.77 37.95 71.44 39.28L71.49 39.33L71.56 39.40Q74.50 38.27 77.66 37.78L77.59 37.70L77.74 37.85Q81.69 33.28 84.28 28.52L84.27 28.51L84.22 28.46Q86.76 32.67 89.46 35.53Z"/><path d="M20 27 C79 31,91 2,194 30" stroke="#666" fill="none"/></svg>