<svg xmlns="http://www.w3.org/2000/svg" width="200" height="40" viewBox="0,0,200,40"><path fill="#333" d="M56.77 34.80L56.82 34.85L54.86 34.83L54.78 34.75Q53.87 34.79 52.92 34.90L52.99 34.98L52.90 34.89Q53.62 28.83 53.62 24.83L53.61 24.83L53.49 24.71Q49.62 18.13 41.97 9.45L42.02 9.51L41.92 9.40Q43.68 10.36 47.03 11.16L47.04 11.18L47.02 11.15Q52.12 16.79 55.13 22.01L55.23 22.11L55.17 22.05Q58.16 16.47 62.54 11.44L62.50 11.41L62.51 11.42Q64.84 10.93 67.35 10.13L67.45 10.23L67.36 10.14Q61.35 16.27 56.47 24.68L56.56 24.76L56.43 24.64Q56.48 31.73 56.79 34.82ZM65.85 12.20L68.69 9.48L68.67 9.47Q65.48 10.54 62.35 10.99L62.38 11.02L62.51 11.15Q58.21 15.79 55.39 20.90L55.45 20.95L55.39 20.90Q53.33 17.31 50.13 13.42L49.97 13.27L49.98 13.27Q49.84 13.41 49.35 13.33L49.29 13.27L49.21 13.19Q48.69 12.56 47.17 10.88L46.99 10.70L47.12 10.84Q43.63 9.97 40.66 8.41L40.70 8.45L40.69 8.43Q48.49 17.00 53.25 24.92L53.11 24.78L53.20 24.87Q53.12 31.22 52.51 35.37L52.52 35.38L52.45 35.31Q53.21 35.31 54.66 35.20L54.63 35.18L54.59 36.16L54.62 36.19Q54.60 36.62 54.52 37.16L54.65 37.29L54.52 37.15Q58.21 37.30 59.96 37.49L59.93 37.46L59.83 37.36Q58.65 32.76 58.53 26.78L58.54 26.79L58.58 26.83Q62.85 18.27 69.40 10.92L69.47 10.99L65.84 12.19Z"/><path fill="#333" d="M164.10 14.40L164.12 14.42L164.08 14.38Q164.82 18.51 164.97 22.09L164.99 22.11L165.13 22.25Q166.17 22.26 167.23 22.26L167.17 22.20L169.53 22.34L169.42 22.24Q170.55 22.30 171.43 20.89L171.25 20.72L171.43 20.89Q172.05 19.62 172.17 18.44L172.09 18.36L172.23 18.50Q172.49 15.38 168.27 14.88L168.40 15.01L168.34 14.95Q166.67 14.92 164.04 14.35ZM165.08 24.94L165.03 24.89L165.19 25.05Q164.94 31.08 163.80 35.50L163.83 35.53L163.92 35.62Q162.45 36.02 160.13 37.08L160.14 37.10L160.10 37.05Q162.43 30.36 162.16 23.09L162.19 23.12L162.21 23.14Q161.98 15.82 159.20 9.39L159.16 9.35L159.06 9.26Q163.28 12.10 169.53 12.10L169.57 12.15L169.52 12.10Q175.60 12.13 175.76 15.59L175.64 15.48L175.69 15.53Q175.82 18.01 174.83 20.68L174.77 20.62L174.80 20.66Q174.36 21.74 173.41 22.95L173.38 22.92L173.45 23.00Q172.13 24.61 169.58 24.87L169.65 24.95L169.65 24.94Q167.33 24.90 165.08 24.94ZM171.21 27.19L171.28 27.26L171.15 27.12Q175.32 27.38 176.58 22.58L176.61 22.61L176.57 22.57Q177.59 18.98 177.43 16.97L177.33 16.86L177.47 17.00Q177.28 15.40 176.52 14.41L176.52 14.41L176.49 14.39Q176.21 14.10 175.71 13.87L175.66 13.82L175.73 13.89Q175.66 13.67 175.05 12.91L175.09 12.94L175.06 12.91Q173.54 11.62 169.58 11.62L169.64 11.68L169.53 11.57Q162.66 11.59 158.43 8.43L158.48 8.48L158.51 8.51Q161.54 15.46 161.80 22.92L161.81 22.93L161.85 22.96Q162.18 30.68 159.51 37.76L159.48 37.73L159.57 37.81Q160.63 37.17 161.62 36.79L161.63 36.80L161.21 37.90L161.12 37.80Q160.92 38.37 160.65 38.94L160.78 39.07L160.71 39.00Q163.25 38.08 166.15 37.54L166.00 37.40L166.09 37.49Q166.98 32.02 167.05 27.30L167.04 27.28L166.95 27.19Q168.18 27.24 169.17 27.24L169.03 27.10L169.16 27.23Q170.33 27.06 171.13 27.10ZM170.23 17.22L170.33 17.32L170.34 17.33Q170.81 17.31 171.80 17.54L171.70 17.44L171.68 17.42Q171.80 17.65 171.83 17.95L171.81 17.93L171.89 18.01Q171.91 18.26 171.83 18.52L171.83 18.52L171.80 18.49Q171.81 19.83 171.09 20.71L171.01 20.63L171.04 20.66Q170.49 21.75 169.47 21.94L169.49 21.96L169.33 21.81Q168.69 21.88 167.05 21.88L166.94 21.77L167.00 21.84Q167.06 19.65 166.83 17.29L166.73 17.18L168.43 17.21L168.45 17.23Q169.36 17.31 170.24 17.23Z"/><path d="M14 1 C120 36,83 28,196 17" stroke="#555" fill="none"/><path fill="#333" d="M141.47 34.87L141.49 34.89L141.45 34.85Q139.52 34.82 137.50 35.01L137.43 34.94L137.45 34.96Q138.13 29.74 138.13 24.91L138.19 24.96L138.23 25.01Q138.15 20.01 137.50 14.80L137.44 14.74L137.51 14.81Q133.01 14.49 129.81 12.82L129.81 12.81L129.02 11.00L128.98 10.96Q128.71 10.39 128.10 9.17L128.26 9.33L128.12 9.19Q133.29 11.95 139.30 12.14L139.29 12.13L139.20 12.04Q145.07 12.20 150.51 10.14L150.62 10.26L150.49 10.12Q149.95 11.72 149.30 13.54L149.24 13.48L149.23 13.47Q145.67 14.82 141.40 15.01L141.47 15.07L141.41 15.01Q141.18 20.00 141.18 24.95L141.24 25.00L141.13 24.90Q141.11 29.83 141.42 34.81ZM151.26 9.52L151.30 9.56L151.21 9.47Q145.49 11.86 139.29 11.67L139.18 11.57L139.21 11.59Q132.61 11.47 127.51 8.50L127.54 8.53L127.49 8.48Q128.16 9.68 129.45 12.95L129.60 13.10L129.54 13.04Q130.26 13.42 131.52 13.99L131.34 13.82L131.42 13.89Q131.75 14.68 132.09 16.20L131.97 16.08L131.99 16.10Q134.38 17.05 137.43 17.28L137.47 17.32L137.47 17.32Q137.69 20.85 137.69 24.62L137.73 24.66L137.73 24.66Q137.85 30.15 137.05 35.51L136.96 35.42L137.05 35.51Q138.72 35.40 139.26 35.40L139.25 35.39L139.12 35.26Q139.23 35.67 139.17 36.34L139.08 36.25L139.06 36.22Q139.00 36.89 139.00 37.24L139.14 37.38L138.97 37.20Q140.25 37.23 141.77 37.30L141.77 37.30L141.67 37.20Q142.70 37.36 144.53 37.51L144.58 37.56L144.53 37.51Q143.37 32.66 143.26 27.48L143.14 27.37L143.12 27.35Q143.04 22.08 143.57 17.17L143.63 17.23L143.49 17.10Q147.54 16.65 150.70 15.43L150.75 15.49L150.71 15.45Q151.34 12.99 152.37 10.94L152.46 11.02L152.35 10.92Q151.06 11.65 150.26 11.95L150.19 11.88L150.17 11.86Q150.75 10.72 151.32 9.58Z"/><path fill="#222" d="M90.90 18.37L90.81 18.28L90.84 18.31Q89.12 14.24 82.92 14.43L82.89 14.40L82.94 14.45Q78.50 14.53 76.52 15.98L76.58 16.04L76.54 16.00Q74.17 17.78 74.17 21.89L74.20 21.92L74.10 23.69L74.10 23.69Q74.10 32.52 83.12 32.52L83.06 32.46L83.20 32.60Q85.10 32.44 86.58 31.64L86.62 31.68L86.61 31.67Q88.40 30.61 88.25 28.74L88.38 28.87L88.42 28.91Q88.25 26.83 84.55 25.92L84.50 25.87L82.43 25.74L82.47 25.78Q81.65 25.91 80.70 25.95L80.52 25.77L80.67 25.92Q80.61 24.91 80.57 23.01L80.48 22.91L80.67 23.10Q88.20 22.98 92.39 22.64L92.45 22.70L92.42 22.67Q92.36 23.48 92.36 24.28L92.35 24.27L92.34 24.27Q92.31 25.03 92.35 25.83L92.50 25.99L92.51 26.00Q91.35 25.94 91.35 25.94L91.39 25.98L91.35 25.94Q89.83 25.80 90.21 25.80L90.37 25.95L90.23 25.81Q91.30 27.41 91.68 29.39L91.67 29.38L91.73 29.44Q91.89 30.22 91.89 30.67L91.96 30.74L91.81 30.59Q91.94 35.36 83.15 35.36L83.17 35.39L83.03 35.25Q76.05 35.38 73.46 33.29L73.45 33.28L73.30 33.13Q71.40 30.85 71.40 25.79L71.42 25.80L71.44 25.83Q71.42 24.74 71.27 22.04L71.20 21.97L71.28 22.05Q71.14 19.70 71.17 18.33L71.17 18.32L71.16 18.31Q71.29 15.47 72.66 13.87L72.52 13.74L72.60 13.81Q75.10 11.71 79.98 11.52L79.96 11.50L82.75 11.56L82.76 11.57Q85.83 11.44 89.26 11.86L89.20 11.80L89.28 11.88Q93.00 12.33 93.96 15.57L93.97 15.58L93.96 15.57Q92.88 16.43 90.78 18.26ZM92.09 20.36L92.37 20.53L92.41 20.57Q93.51 19.39 95.38 17.41L95.42 17.44L95.36 17.39Q95.11 16.49 94.12 14.78L94.12 14.77L94.08 14.74Q92.99 12.16 89.18 11.52L89.12 11.45L89.02 11.36Q87.01 11.36 82.71 11.06L82.76 11.11L80.04 11.20L80.07 11.23Q74.87 11.40 72.28 13.38L72.18 13.28L72.34 13.44Q70.80 14.91 70.69 18.00L70.69 18.00L70.82 18.12Q70.72 17.57 70.95 23.05L70.97 23.07L71.03 23.14Q71.07 24.50 71.15 27.25L71.17 27.27L71.09 27.19Q71.35 31.71 73.10 33.66L72.99 33.55L73.07 33.62Q73.45 34.46 74.32 35.34L74.31 35.33L74.30 35.31Q77.22 37.21 82.74 37.55L82.77 37.58L85.57 37.67L85.55 37.66Q87.25 37.87 89.27 37.76L89.19 37.68L89.13 37.61Q90.72 37.68 92.81 37.15L92.70 37.04L92.81 37.15Q94.74 36.64 94.70 34.32L94.63 34.25L94.65 34.27Q94.67 33.03 93.61 30.25L93.50 30.14L93.65 30.30Q93.38 29.42 92.85 28.62L92.71 28.49L92.68 28.45Q93.37 28.57 94.55 28.76L94.49 28.70L94.52 28.73Q94.15 25.04 94.18 24.36L94.34 24.51L94.19 24.37Q93.91 24.47 93.50 24.43L93.50 24.44L93.50 24.44Q93.15 24.43 92.77 24.50L92.70 24.43L92.81 24.55Q92.66 23.30 92.74 22.23L92.78 22.27L92.85 22.34Q86.56 22.83 80.28 22.71L80.24 22.68L80.25 22.68Q80.17 23.48 80.17 24.39L80.18 24.41L80.31 26.28L80.27 26.24Q80.72 26.31 81.14 26.27L81.12 26.26L81.13 26.26Q81.46 26.18 81.92 26.18L82.02 26.28L81.95 26.21Q81.95 26.67 81.99 27.17L81.98 27.15L82.08 27.25Q82.00 27.63 81.96 28.12L82.04 28.20L81.99 28.15Q83.04 28.14 84.07 28.10L84.06 28.09L84.02 28.05Q85.15 28.15 86.18 28.19L86.14 28.15L86.14 28.16Q87.20 28.41 88.08 28.80L88.06 28.78L88.05 28.81L88.04 28.79Q88.22 30.35 86.55 31.26L86.53 31.25L86.45 31.17Q84.87 32.18 83.16 32.18L83.12 32.14L83.20 32.22Q79.25 32.11 76.81 30.36L76.94 30.49L76.77 30.32Q75.89 28.38 76.05 25.83L76.07 25.85L76.04 25.82Q76.31 20.98 78.15 18.99L78.13 18.97L78.23 19.06Q80.03 17.02 84.71 16.71L84.65 16.65L84.77 16.78Q88.39 16.51 90.33 18.30L90.28 18.25L90.32 18.29Q90.43 18.43 90.54 18.62L90.57 18.65L90.69 18.66L90.71 18.67Q91.26 19.35 91.84 20.45L91.90 20.51L92.20 20.47Z"/><path d="M19 11 C85 28,109 13,181 38" stroke="#666" fill="none"/><path fill="#222" d="M110.44 35.27L110.28 35.11L107.88 28.26L107.96 28.33Q103.66 15.81 97.72 9.41L97.60 9.29L97.57 9.26Q99.59 10.33 102.18 10.94L102.21 10.97L102.32 11.08Q107.47 17.38 111.81 30.13L111.67 29.99L111.66 29.97Q114.81 21.97 115.49 20.37L115.41 20.29L115.45 20.33Q117.94 14.83 120.76 11.52L120.59 11.34L120.78 11.53Q122.83 11.14 125.45 10.27L125.36 10.17L125.43 10.24Q120.89 14.88 117.85 22.11L117.84 22.11L117.72 21.99Q116.25 25.58 112.55 35.10L112.71 35.25L112.65 35.19Q112.05 35.17 111.48 35.13L111.42 35.06L111.44 35.08Q110.94 35.16 110.37 35.19ZM115.39 37.63L115.29 37.53L115.30 37.53Q118.12 27.56 119.68 23.53L119.77 23.62L119.65 23.50Q122.77 15.92 127.18 11.05L127.20 11.07L127.14 11.00Q126.17 11.44 124.07 12.16L123.98 12.07L125.26 10.87L125.11 10.72Q125.83 10.19 126.44 9.54L126.30 9.40L126.27 9.38Q123.50 10.41 120.50 10.98L120.45 10.94L120.48 10.97Q116.13 16.33 112.25 27.79L112.24 27.78L112.26 27.79Q108.54 17.60 105.34 13.23L105.34 13.23L105.44 13.33Q105.03 13.22 104.15 13.07L104.24 13.15L104.16 13.07Q103.88 12.64 102.28 10.58L102.40 10.70L102.30 10.60Q99.29 9.84 96.59 8.43L96.61 8.45L96.71 8.55Q103.24 15.55 107.62 28.34L107.61 28.32L107.70 28.42Q108.91 32.06 110.09 35.64L110.09 35.64L110.11 35.66Q110.38 35.63 111.22 35.51L111.24 35.53L111.31 35.61Q111.60 36.23 112.28 37.57L112.37 37.66L112.36 37.64Q113.14 37.51 113.86 37.59L113.94 37.66L113.78 37.50Q114.55 37.55 115.31 37.55Z"/><path fill="#333" d="M32.01 23.71L32.03 23.73L26.01 23.69L26.12 23.79Q23.09 23.73 20.16 23.65L20.21 23.71L20.21 23.71Q20.43 30.51 18.37 36.03L18.24 35.90L18.25 35.91Q16.40 36.38 14.65 37.07L14.72 37.14L14.67 37.08Q17.46 31.39 17.46 24.73L17.48 24.75L17.49 24.76Q17.56 16.34 13.45 9.29L13.39 9.23L13.48 9.33Q14.95 10.07 17.42 10.87L17.44 10.89L17.39 10.84Q19.46 15.84 19.99 20.71L20.07 20.79L20.10 20.82Q23.34 21.27 26.19 21.24L26.12 21.17L26.07 21.11Q28.86 21.24 32.17 20.97L32.04 20.84L32.12 20.93Q32.49 16.42 34.24 11.32L34.30 11.38L34.22 11.30Q36.23 10.95 38.48 10.11L38.45 10.08L38.52 10.15Q34.79 16.77 34.79 24.73L34.90 24.84L34.82 24.76Q34.78 30.93 37.14 36.26L37.11 36.23L37.26 36.38Q35.71 35.82 33.65 35.51L33.46 35.32L33.61 35.47Q31.83 30.34 31.94 23.64ZM33.32 35.79L33.37 35.84L33.39 35.86Q34.31 35.90 35.41 36.17L35.38 36.14L35.38 36.13Q35.84 36.98 36.49 38.46L36.37 38.34L36.32 38.29Q39.69 39.26 41.47 40.17L41.62 40.32L41.58 40.28Q37.02 34.01 36.72 25.75L36.89 25.92L36.79 25.83Q36.57 17.87 40.22 11.05L40.12 10.95L39.15 11.51L39.06 11.42Q38.61 11.69 38.01 11.85L37.98 11.82L37.90 11.74Q38.46 11.08 39.30 9.52L39.29 9.51L39.30 9.53Q36.56 10.48 33.94 10.98L33.88 10.92L33.97 11.01Q32.22 15.77 31.76 20.45L31.78 20.46L31.82 20.50Q29.25 20.64 26.81 20.64L26.91 20.74L26.82 20.65Q24.50 20.73 21.99 20.57L22.07 20.66L21.97 20.56Q21.72 17.26 20.62 13.19L20.60 13.17L20.64 13.21Q19.91 13.05 18.46 12.67L18.61 12.82L18.49 12.70Q18.22 11.59 17.76 10.56L17.73 10.53L17.63 10.43Q14.94 9.72 12.66 8.47L12.72 8.53L12.59 8.39Q17.18 15.85 17.18 24.64L17.20 24.65L17.30 24.75Q17.31 31.73 14.19 37.86L14.09 37.76L14.17 37.84Q14.81 37.50 16.15 36.93L16.08 36.86L16.09 36.87Q15.86 37.82 15.06 39.34L14.94 39.22L14.98 39.26Q17.75 38.23 20.00 37.81L20.10 37.91L20.10 37.91Q21.92 32.31 22.11 26.14L22.10 26.13L22.19 26.22Q23.70 26.06 26.90 26.02L26.89 26.01L27.01 26.13Q29.88 26.11 31.78 26.18L31.70 26.10L31.63 26.03Q31.89 31.77 33.22 35.69Z"/></svg>