<svg xmlns="http://www.w3.org/2000/svg" width="200" height="40" viewBox="0,0,200,40"><path fill="#111" d="M160.23 10.93L160.19 10.89L160.18 10.89Q162.11 15.78 162.68 20.96L162.71 20.99L162.65 20.93Q166.34 16.78 172.24 11.95L172.17 11.87L172.21 11.91Q175.36 11.56 177.98 10.76L178.04 10.81L171.53 16.48L171.59 16.54Q168.12 19.44 165.27 22.29L165.21 22.23L165.29 22.31Q173.10 31.30 178.16 36.02L178.18 36.05L178.30 36.17Q175.16 35.19 172.83 35.04L172.82 35.02L172.90 35.10Q167.00 29.58 162.70 23.76L162.69 23.75L162.84 23.90Q162.82 30.39 160.95 35.72L161.03 35.80L160.95 35.71Q160.67 35.71 160.18 35.90L160.32 36.04L160.15 36.06L160.15 36.06Q160.10 36.23 157.55 37.15L157.46 37.06L157.45 37.04Q160.47 30.56 160.13 23.09L160.05 23.01L160.12 23.08Q159.86 15.81 156.32 9.30L156.14 9.13L156.82 9.54L157.19 9.80L157.24 9.81L157.22 9.79Q157.93 10.16 160.14 10.84ZM160.39 10.52L160.51 10.64L160.44 10.58Q158.15 10.00 155.53 8.48L155.49 8.45L155.49 8.44Q159.82 15.77 159.82 24.72L159.79 24.69L159.76 24.66Q159.76 31.67 156.79 37.72L156.94 37.88L158.85 36.89L158.84 36.88Q158.50 37.95 157.82 39.24L157.87 39.29L157.74 39.16Q160.03 38.41 161.97 37.99L162.03 38.05L161.97 37.77L162.13 37.92Q162.34 37.83 162.91 37.68L162.89 37.66L162.84 37.60Q164.61 31.80 164.73 27.01L164.69 26.97L164.57 26.85Q166.68 29.38 168.51 31.25L168.57 31.31L168.55 31.29Q169.83 32.49 172.84 35.46L172.77 35.39L172.72 35.34L172.85 35.47Q173.71 36.14 175.58 37.74L175.67 37.83L175.60 37.76Q179.57 38.57 183.03 40.29L183.05 40.30L182.92 40.17Q173.69 31.67 167.45 24.25L167.38 24.18L167.48 24.27Q171.96 20.08 180.72 11.48L180.69 11.45L180.62 11.38Q178.16 12.61 176.14 12.99L176.16 13.01L176.17 13.02Q177.36 12.00 179.68 9.98L179.54 9.84L179.67 9.97Q175.48 11.30 172.13 11.49L172.19 11.55L172.08 11.44Q169.24 13.74 164.36 18.42L164.29 18.34L164.38 18.43Q163.93 15.78 163.36 13.23L163.45 13.32L163.48 13.34Q162.14 13.03 161.15 12.69L161.24 12.78L161.14 12.68Q161.07 12.08 160.50 10.63Z"/><path fill="#444" d="M84.27 15.23L84.08 15.03L84.22 15.17Q79.81 15.06 76.11 14.07L76.16 14.12L76.04 14.00Q77.58 18.59 77.77 23.42L77.83 23.48L77.82 23.47Q78.02 28.27 76.80 32.88L76.74 32.82L76.81 32.89Q79.61 32.26 83.11 32.11L83.21 32.21L83.05 32.05Q87.06 31.94 88.84 29.51L88.80 29.46L88.86 29.52Q90.30 27.39 90.49 23.27L90.53 23.32L90.65 23.43Q90.65 21.60 90.19 19.89L90.26 19.96L90.27 19.97Q88.97 15.21 84.25 15.21ZM72.29 37.16L72.24 37.12L72.18 37.05Q75.07 31.38 75.07 24.68L75.14 24.74L75.08 24.69Q75.24 16.33 70.94 9.32L70.81 9.18L70.75 9.13Q76.08 11.87 84.34 12.06L84.38 12.10L84.45 12.17Q93.17 12.21 93.51 19.37L93.49 19.35L93.53 19.38Q93.69 22.14 93.65 23.58L93.72 23.64L93.69 23.62Q93.67 28.35 92.83 30.52L92.69 30.38L92.75 30.44Q92.25 31.46 91.49 32.30L91.63 32.45L91.63 32.44Q90.17 33.88 87.55 34.38L87.49 34.32L87.64 34.47Q85.91 34.60 82.90 34.83L83.05 34.98L82.99 34.92Q76.95 35.47 72.35 37.22ZM90.18 37.01L90.15 36.98L90.10 36.93Q92.89 36.64 94.53 35.15L94.56 35.18L94.58 35.21Q95.82 33.47 95.78 30.73L95.73 30.68L95.67 30.63Q95.74 29.33 95.59 25.82L95.52 25.75L95.30 21.34L95.22 21.26Q94.95 18.90 93.99 16.80L94.11 16.91L94.10 16.91Q93.56 15.95 92.87 15.30L92.83 15.26L92.84 15.12L92.78 15.05Q91.23 12.25 86.82 11.87L86.82 11.88L86.77 11.82Q84.02 11.63 77.02 10.91L77.03 10.92L77.11 11.00Q73.74 10.45 70.05 8.43L70.03 8.41L70.12 8.50Q74.84 15.77 74.84 24.52L74.90 24.59L74.87 24.56Q74.89 31.58 71.54 37.74L71.55 37.76L71.55 37.75Q72.18 37.44 73.51 36.94L73.67 37.09L73.59 37.02Q73.24 37.84 72.36 39.33L72.36 39.33L72.39 39.36Q75.45 38.31 78.80 37.81L78.68 37.69L78.69 37.70Q80.85 37.46 84.50 37.35L84.42 37.26L84.53 37.37Q88.29 37.14 90.12 36.95ZM90.25 23.42L90.14 23.31L90.18 23.34Q89.94 31.48 83.24 31.86L83.24 31.86L83.12 31.73Q81.27 31.94 79.21 32.21L79.08 32.08L79.15 32.15Q79.83 28.26 79.83 24.60L79.85 24.63L79.88 24.66Q79.81 20.89 79.09 17.05L79.04 17.00L79.02 16.98Q81.38 17.44 86.07 17.44L85.98 17.35L86.01 17.38Q87.48 17.33 89.12 18.28L89.15 18.31L88.99 18.16Q90.42 20.57 90.27 23.43Z"/><path fill="#333" d="M141.55 34.95L141.52 34.92L141.47 34.87Q139.58 34.88 137.56 35.08L137.40 34.91L137.53 35.04Q138.22 29.83 138.22 25.00L138.11 24.89L138.04 24.82Q138.15 20.02 137.51 14.80L137.51 14.81L137.55 14.85Q132.84 14.32 129.64 12.65L129.63 12.64L128.95 10.93L129.10 11.08Q128.78 10.46 128.17 9.24L128.14 9.21L128.22 9.28Q133.29 11.96 139.31 12.15L139.21 12.05L139.27 12.11Q145.20 12.33 150.64 10.27L150.56 10.20L150.58 10.22Q149.91 11.67 149.26 13.50L149.26 13.50L149.20 13.44Q145.72 14.87 141.46 15.06L141.41 15.01L141.45 15.05Q141.17 19.99 141.17 24.94L141.18 24.95L141.18 24.94Q141.05 29.77 141.36 34.76ZM151.28 9.54L151.32 9.58L151.21 9.47Q145.52 11.89 139.32 11.70L139.17 11.56L139.33 11.71Q132.67 11.53 127.57 8.56L127.41 8.40L127.57 8.56Q128.22 9.74 129.51 13.01L129.55 13.05L129.60 13.10Q130.16 13.32 131.42 13.89L131.43 13.90L131.50 13.97Q131.68 14.61 132.02 16.14L132.14 16.25L132.08 16.19Q134.31 16.97 137.35 17.20L137.42 17.26L137.40 17.25Q137.70 20.85 137.70 24.62L137.82 24.74L137.82 24.75Q137.66 29.96 136.86 35.32L137.02 35.48L136.89 35.35Q138.62 35.29 139.15 35.29L139.14 35.28L139.16 35.30Q139.14 35.59 139.09 36.26L139.15 36.31L139.11 36.28Q139.06 36.95 139.06 37.30L139.08 37.31L139.09 37.32Q140.29 37.27 141.82 37.35L141.83 37.37L141.82 37.35Q142.61 37.27 144.44 37.42L144.46 37.44L144.42 37.40Q143.27 32.56 143.15 27.38L143.21 27.44L143.17 27.40Q143.05 22.10 143.58 17.19L143.63 17.24L143.55 17.15Q147.60 16.71 150.76 15.49L150.61 15.34L150.61 15.34Q151.32 12.97 152.35 10.92L152.40 10.97L152.32 10.89Q151.06 11.64 150.26 11.95L150.21 11.90L150.17 11.86Q150.64 10.62 151.21 9.48Z"/><path d="M1 27 C85 13,115 33,185 17" stroke="#555" fill="none"/><path fill="#222" d="M50.85 25.63L50.85 25.63L50.95 25.72Q50.96 25.73 54.35 25.70L54.28 25.63L54.21 25.55Q56.49 25.55 57.55 25.59L57.52 25.55L57.53 25.56Q56.56 22.77 54.12 17.13L54.17 17.18L54.15 17.16Q53.62 18.61 52.57 21.46L52.58 21.47L52.44 21.34Q51.40 24.19 50.83 25.60ZM58.75 28.15L58.62 28.03L58.66 28.07Q56.50 28.16 54.30 28.19L54.20 28.10L54.13 28.03Q52.02 28.20 49.73 28.39L49.70 28.36L49.60 28.25Q48.22 31.83 44.99 36.02L44.86 35.89L45.01 36.04Q42.42 36.65 41.05 37.14L40.88 36.98L40.91 37.00Q46.14 31.45 50.82 18.09L50.84 18.11L50.88 18.15Q51.94 14.53 53.31 11.29L53.43 11.42L53.47 11.45Q53.64 11.32 53.98 11.32L53.99 11.32L54.83 11.44L54.86 11.48Q55.50 12.72 60.33 24.37L60.28 24.32L60.34 24.38Q63.52 32.13 67.52 36.28L67.60 36.35L67.64 36.40Q67.13 36.26 63.24 35.39L63.32 35.47L63.15 35.30Q60.61 32.19 58.63 28.04ZM63.14 35.71L63.07 35.63L63.65 35.72L63.75 35.82Q63.98 35.82 64.28 35.93L64.27 35.92L64.26 35.91Q64.60 36.29 66.43 38.31L66.39 38.27L66.47 38.35Q69.99 39.13 72.39 40.16L72.42 40.19L72.54 40.31Q66.99 35.72 63.00 27.72L63.05 27.77L63.07 27.80Q61.30 24.35 59.85 20.39L59.93 20.47L57.26 13.04L57.26 13.04Q57.01 13.13 56.78 13.13L56.61 12.96L56.13 13.01L56.16 13.04Q55.76 12.34 55.04 10.97L55.08 11.01L54.96 10.89Q54.50 10.96 54.04 10.92L54.07 10.96L54.11 10.99Q53.60 10.90 53.07 10.90L53.08 10.91L53.17 11.01Q51.78 14.94 47.89 25.10L47.72 24.93L47.91 25.12Q44.67 32.96 40.02 37.75L40.15 37.88L40.13 37.86Q41.00 37.28 43.02 36.67L43.06 36.72L43.00 36.66Q42.24 37.53 40.68 39.32L40.84 39.48L40.86 39.51Q42.52 38.80 46.44 38.04L46.33 37.93L46.43 38.03Q49.74 33.57 51.30 30.34L51.42 30.46L51.30 30.34Q53.06 30.23 55.38 30.27L55.46 30.35L55.43 30.32Q58.22 30.40 59.59 30.48L59.58 30.47L59.45 30.34Q60.73 32.72 63.09 35.66ZM55.36 20.96L55.44 21.04L55.36 20.96Q56.39 23.21 57.15 25.30L57.10 25.25L53.85 25.31L53.77 25.23Q54.42 23.86 55.48 21.08Z"/><path d="M5 2 C83 5,82 35,185 25" stroke="#777" fill="none"/><path fill="#444" d="M24.30 34.92L24.25 34.86L24.22 34.83Q20.10 34.33 18.27 32.88L18.24 32.85L18.25 32.87Q16.43 31.42 16.01 28.42L15.96 28.37L16.09 28.49Q15.96 28.02 15.62 23.26L15.75 23.39L15.66 23.31Q15.74 22.17 15.66 20.91L15.58 20.82L15.75 21.00Q15.47 15.85 17.68 14.10L17.76 14.17L17.74 14.15Q20.42 12.07 28.18 11.39L28.14 11.35L28.13 11.33Q29.35 11.08 30.99 11.11L31.10 11.22L31.08 11.21Q31.07 11.19 34.04 11.19L34.10 11.26L34.02 11.18Q34.95 11.26 36.66 11.42L36.68 11.44L36.56 11.32Q36.05 12.25 35.02 15.34L35.03 15.34L34.99 15.30Q32.96 14.15 29.95 14.15L30.06 14.26L29.95 14.14Q29.21 14.17 28.41 14.24L28.41 14.24L28.49 14.32Q23.38 14.77 20.87 16.75L20.81 16.69L20.73 16.61Q18.71 18.21 18.56 21.56L18.60 21.60L18.56 21.56Q18.51 22.16 18.55 23.42L18.68 23.54L18.54 23.40Q18.70 28.29 21.10 30.39L21.18 30.47L21.14 30.42Q23.40 32.46 28.39 32.76L28.29 32.66L28.26 32.63Q31.47 32.87 34.48 31.08L34.53 31.14L34.44 31.05Q35.05 33.79 35.66 35.16L35.74 35.24L35.68 35.18Q33.55 35.41 31.92 35.37L31.99 35.45L31.94 35.40Q27.51 35.38 24.39 35.00ZM39.52 38.75L39.39 38.62L39.49 38.72Q37.54 35.55 36.85 32.96L36.90 33.01L36.98 33.10Q36.45 33.24 35.46 33.62L35.45 33.61L35.56 33.73Q35.14 32.85 34.95 32.01L35.07 32.14L34.66 30.39L34.72 30.45Q31.34 32.40 28.21 32.28L28.26 32.33L28.30 32.37Q23.95 32.09 21.63 30.34L21.69 30.40L21.65 30.36Q20.47 28.50 20.55 25.57L20.64 25.66L20.67 25.69Q20.77 21.14 23.24 19.01L23.13 18.90L23.29 19.06Q25.38 17.12 30.06 16.51L30.12 16.56L30.08 16.52Q30.83 16.36 31.55 16.36L31.64 16.44L31.49 16.30Q34.35 16.37 36.44 17.90L36.40 17.86L36.41 17.86Q36.83 15.66 38.05 12.42L38.19 12.57L38.19 12.56Q37.81 12.45 37.26 12.40L37.21 12.35L37.26 12.40Q36.70 12.33 36.43 12.33L36.45 12.34L36.52 12.42Q36.65 11.82 37.11 10.83L37.20 10.92L37.11 10.83Q36.85 10.80 34.35 10.73L34.40 10.77L34.46 10.83Q31.83 10.62 31.19 10.66L31.22 10.69L31.28 10.75Q20.86 11.18 17.39 13.77L17.32 13.70L17.26 13.64Q15.21 15.43 15.21 19.35L15.37 19.51L15.37 19.51Q15.33 20.58 15.44 23.28L15.30 23.14L15.35 23.19Q15.46 26.73 15.69 28.44L15.69 28.44L15.84 28.59Q16.12 31.61 17.72 33.13L17.71 33.12L17.74 33.15Q18.25 33.85 19.50 34.99L19.38 34.86L19.39 34.88Q22.69 36.70 27.95 37.46L28.06 37.57L28.00 37.52Q34.44 38.47 39.43 38.66Z"/><path fill="#444" d="M113.34 34.80L113.45 34.91L111.51 34.90L111.48 34.88Q110.55 34.90 109.60 35.01L109.57 34.99L109.52 34.94Q110.02 28.66 110.02 24.67L110.02 24.66L110.14 24.78Q106.25 18.19 98.59 9.51L98.51 9.42L98.57 9.49Q100.23 10.34 103.58 11.14L103.72 11.28L103.58 11.14Q108.63 16.73 111.64 21.94L111.77 22.07L111.65 21.95Q114.68 16.41 119.05 11.39L119.16 11.49L119.12 11.46Q121.52 11.03 124.03 10.24L124.05 10.26L124.00 10.21Q117.86 16.21 112.99 24.62L113.13 24.76L113.06 24.69Q113.03 31.70 113.33 34.79ZM122.42 12.20L125.18 9.41L125.15 9.37Q122.03 10.52 118.91 10.97L118.95 11.02L118.99 11.06Q114.77 15.79 111.96 20.89L111.90 20.84L111.90 20.83Q109.79 17.20 106.59 13.31L106.59 13.31L106.65 13.37Q106.31 13.30 105.82 13.23L105.88 13.29L105.86 13.27Q105.11 12.41 103.59 10.73L103.69 10.83L103.58 10.72Q100.35 10.12 97.38 8.55L97.31 8.49L97.32 8.50Q105.08 17.02 109.83 24.93L109.85 24.95L109.80 24.90Q109.68 31.21 109.07 35.36L109.07 35.36L109.04 35.33Q109.75 35.28 111.20 35.17L111.33 35.30L111.34 36.34L111.32 36.32Q111.28 36.74 111.21 37.27L111.23 37.30L111.14 37.20Q114.79 37.32 116.54 37.51L116.50 37.47L116.56 37.53Q115.20 32.73 115.08 26.75L115.09 26.76L115.08 26.75Q119.49 18.33 126.04 10.99L126.01 10.96L122.48 12.26Z"/></svg>