<svg xmlns="http://www.w3.org/2000/svg" width="200" height="40" viewBox="0,0,200,40"><path fill="#222" d="M77.25 14.24L77.27 14.25L77.24 14.23Q78.29 18.63 78.44 21.83L78.53 21.91L78.57 21.96Q78.99 21.92 83.37 22.03L83.37 22.03L83.40 22.07Q85.92 22.07 86.30 18.61L86.32 18.63L86.33 18.63Q86.42 16.78 85.50 15.87L85.54 15.90L85.66 16.02Q84.18 14.93 82.20 14.77L82.27 14.85L82.19 14.76Q79.04 14.62 77.17 14.16ZM78.67 23.89L78.62 23.83L78.53 23.74Q78.73 29.77 76.95 35.71L77.08 35.84L76.93 35.69Q75.70 36.02 73.11 37.05L73.12 37.06L73.20 37.15Q76.06 30.67 75.72 23.21L75.55 23.05L75.53 23.03Q75.34 15.79 72.03 9.28L72.05 9.30L71.98 9.24Q76.87 12.07 83.84 12.07L83.86 12.09L83.85 12.09Q89.42 12.02 89.69 15.56L89.67 15.54L89.77 15.64Q89.89 16.30 89.82 16.91L89.70 16.79L89.66 17.97L89.69 18.00Q88.75 21.82 86.62 23.53L86.73 23.64L86.70 23.61Q85.89 24.29 84.86 24.29L84.85 24.27L82.36 24.38L82.28 24.30Q87.86 31.51 92.39 36.08L92.37 36.06L92.32 36.01Q90.27 35.41 87.34 35.07L87.22 34.95L87.24 34.97Q83.52 31.05 78.61 23.82ZM87.24 35.46L87.11 35.33L87.40 35.31L88.79 36.71L88.69 36.61Q89.39 37.26 90.03 37.87L89.91 37.75L89.99 37.82Q93.53 38.44 97.11 40.30L97.15 40.35L97.06 40.25Q90.19 33.57 84.78 26.64L84.65 26.51L86.55 26.66L86.50 26.61Q89.55 26.57 90.88 22.04L90.91 22.07L90.82 21.99Q91.59 19.86 91.59 17.16L91.53 17.10L91.64 17.21Q91.56 14.84 89.85 14.20L89.78 14.13L89.82 14.17Q89.83 13.91 89.26 13.23L89.10 13.07L89.12 13.09Q87.52 11.72 83.87 11.64L83.84 11.62L83.94 11.71Q76.02 11.53 71.34 8.52L71.25 8.43L71.32 8.50Q74.92 15.18 75.26 22.87L75.44 23.05L75.44 23.06Q75.71 30.93 72.59 37.79L72.61 37.81L72.54 37.74Q73.81 37.18 74.61 36.88L74.60 36.87L73.63 39.17L73.58 39.13Q76.39 38.17 79.06 37.67L78.95 37.56L79.13 37.74Q80.40 32.61 80.59 27.40L80.42 27.23L80.54 27.36Q84.07 32.33 87.23 35.45ZM85.84 17.39L85.97 17.51L85.82 17.37Q85.97 17.74 85.97 18.09L85.97 18.09L86.01 18.69L85.90 18.59Q86.03 19.82 85.34 20.77L85.32 20.75L85.28 20.71Q84.59 21.39 83.68 21.58L83.82 21.73L83.69 21.59Q83.52 21.69 81.92 21.73L81.81 21.62L81.91 21.72Q81.40 21.81 80.56 21.70L80.51 21.65L80.46 21.60Q80.44 20.17 80.10 17.12L80.00 17.03L79.97 17.00Q81.41 17.22 82.09 17.22L82.10 17.22L82.05 17.17Q83.88 17.18 85.83 17.37Z"/><path fill="#111" d="M62.63 18.39L62.54 18.29L62.57 18.33Q60.81 14.21 54.60 14.40L54.53 14.32L54.70 14.49Q50.27 14.59 48.29 16.04L48.12 15.87L48.24 15.99Q45.77 17.67 45.77 21.78L45.82 21.83L45.74 23.62L45.78 23.65Q45.81 32.52 54.83 32.52L54.89 32.58L54.80 32.48Q56.83 32.46 58.31 31.66L58.40 31.75L58.42 31.76Q60.16 30.65 60.01 28.79L60.06 28.84L60.15 28.92Q59.91 26.79 56.22 25.87L56.12 25.78L54.25 25.85L54.26 25.86Q53.26 25.80 52.31 25.84L52.30 25.84L52.23 25.76Q52.34 24.92 52.30 23.02L52.32 23.04L52.31 23.02Q59.87 22.94 64.06 22.59L64.12 22.66L64.09 22.63Q64.12 23.53 64.12 24.33L64.08 24.29L64.06 24.27Q64.10 25.12 64.14 25.91L64.09 25.86L64.04 25.81Q62.94 25.81 62.94 25.81L62.94 25.81L63.11 25.99Q61.69 25.94 62.07 25.94L62.05 25.92L62.09 25.96Q63.06 27.46 63.44 29.44L63.38 29.38L63.46 29.45Q63.69 30.30 63.69 30.75L63.58 30.65L63.58 30.65Q63.66 35.37 54.87 35.37L54.86 35.36L54.83 35.33Q47.76 35.38 45.17 33.29L45.13 33.25L45.19 33.30Q43.13 30.86 43.13 25.80L43.02 25.69L43.02 25.69Q43.19 24.80 43.04 22.09L42.90 21.96L42.97 22.03Q42.74 19.58 42.77 18.21L42.82 18.26L42.82 18.26Q42.98 15.45 44.35 13.85L44.42 13.92L44.30 13.80Q46.93 11.83 51.81 11.64L51.74 11.58L54.51 11.60L54.32 11.41Q57.54 11.43 60.96 11.85L60.93 11.81L60.86 11.75Q64.72 12.33 65.67 15.57L65.66 15.55L65.60 15.49Q64.67 16.50 62.57 18.33ZM63.95 20.51L64.12 20.56L64.03 20.47Q65.17 19.32 67.03 17.34L67.10 17.41L67.12 17.43Q66.80 16.47 65.81 14.76L65.85 14.79L65.90 14.84Q64.69 12.15 60.88 11.50L60.81 11.43L60.73 11.34Q58.66 11.30 54.36 10.99L54.43 11.06L51.64 11.09L51.73 11.19Q46.62 11.43 44.03 13.41L44.02 13.41L43.89 13.28Q42.49 14.89 42.38 17.97L42.45 18.04L42.46 18.05Q42.58 17.72 42.81 23.20L42.74 23.12L42.80 23.19Q42.65 24.37 42.72 27.11L42.74 27.12L42.77 27.15Q42.97 31.62 44.72 33.56L44.83 33.67L44.82 33.66Q45.21 34.51 46.09 35.38L45.97 35.26L46.01 35.30Q48.91 37.18 54.43 37.53L54.33 37.42L57.36 37.75L57.26 37.65Q58.96 37.86 60.98 37.75L60.99 37.77L60.92 37.69Q62.43 37.68 64.52 37.14L64.37 37.00L64.47 37.09Q66.45 36.63 66.41 34.31L66.36 34.26L66.33 34.23Q66.28 32.92 65.21 30.14L65.32 30.25L65.40 30.33Q65.04 29.37 64.51 28.57L64.51 28.57L64.45 28.50Q65.09 28.58 66.27 28.77L66.31 28.80L66.22 28.72Q65.94 25.12 65.98 24.44L66.01 24.47L65.98 24.44Q65.66 24.50 65.24 24.47L65.19 24.42L65.25 24.47Q64.86 24.42 64.48 24.50L64.40 24.42L64.38 24.41Q64.36 23.27 64.43 22.21L64.54 22.31L64.53 22.31Q58.23 22.79 51.95 22.67L52.02 22.74L51.89 22.61Q52.07 23.66 52.07 24.58L51.92 24.43L51.89 26.15L51.95 26.21Q52.47 26.35 52.89 26.31L52.80 26.22L52.89 26.31Q53.17 26.17 53.63 26.17L53.72 26.26L53.72 26.27Q53.59 26.59 53.63 27.09L53.70 27.16L53.72 27.18Q53.69 27.61 53.66 28.11L53.65 28.10L53.61 28.06Q54.76 28.14 55.79 28.10L55.79 28.10L55.85 28.17Q56.76 28.05 57.79 28.09L57.73 28.03L57.83 28.13Q58.93 28.43 59.81 28.81L59.79 28.80L59.69 28.73L59.74 28.79Q59.97 30.38 58.29 31.29L58.16 31.17L58.22 31.23Q56.52 32.11 54.81 32.11L54.75 32.05L54.87 32.17Q50.91 32.06 48.47 30.30L48.52 30.36L48.54 30.37Q47.56 28.33 47.72 25.78L47.86 25.92L47.74 25.80Q48.10 21.07 49.95 19.07L49.88 19.00L49.92 19.04Q51.68 16.96 56.37 16.65L56.50 16.79L56.37 16.66Q60.08 16.49 62.02 18.28L61.99 18.24L62.00 18.25Q62.12 18.41 62.23 18.60L62.14 18.51L62.35 18.61L62.39 18.64Q63.06 19.42 63.63 20.53L63.52 20.42L63.94 20.49Z"/><path fill="#333" d="M119.09 18.28L119.18 18.37L119.18 18.37Q117.46 14.28 111.25 14.47L111.27 14.49L111.25 14.47Q106.72 14.47 104.74 15.92L104.79 15.97L104.86 16.04Q102.42 17.74 102.42 21.85L102.35 21.79L102.43 23.74L102.31 23.61Q102.30 32.43 111.32 32.43L111.41 32.53L111.33 32.44Q113.47 32.53 114.96 31.73L114.87 31.65L115.02 31.79Q116.69 30.60 116.53 28.74L116.54 28.75L116.72 28.92Q116.36 26.66 112.67 25.75L112.77 25.85L110.82 25.85L110.73 25.76Q109.78 25.76 108.83 25.80L108.84 25.80L108.93 25.90Q108.87 24.88 108.83 22.98L108.80 22.95L108.80 22.94Q116.46 22.96 120.65 22.62L120.71 22.67L120.74 22.71Q120.74 23.58 120.74 24.38L120.69 24.33L120.73 24.37Q120.58 25.02 120.62 25.82L120.75 25.95L120.61 25.81Q119.66 25.96 119.66 25.96L119.53 25.84L119.56 25.87Q118.15 25.82 118.53 25.82L118.49 25.78L118.65 25.94Q119.66 27.49 120.04 29.47L120.10 29.53L120.07 29.49Q120.15 30.19 120.15 30.64L120.24 30.73L120.07 30.56Q120.18 35.32 111.39 35.32L111.33 35.27L111.39 35.32Q104.18 35.23 101.59 33.14L101.75 33.30L101.57 33.11Q99.61 30.77 99.61 25.71L99.77 25.88L99.74 25.84Q99.63 24.67 99.48 21.97L99.48 21.96L99.55 22.03Q99.44 19.71 99.47 18.34L99.34 18.21L99.42 18.29Q99.62 15.52 100.99 13.92L100.94 13.87L100.85 13.78Q103.35 11.68 108.23 11.49L108.33 11.59L111.09 11.60L110.91 11.43Q114.12 11.44 117.55 11.86L117.47 11.79L117.47 11.78Q121.24 12.27 122.19 15.51L122.13 15.46L122.26 15.59Q121.15 16.41 119.05 18.24ZM120.54 20.53L120.69 20.56L120.53 20.40Q121.71 19.29 123.57 17.31L123.70 17.44L123.65 17.39Q123.38 16.47 122.39 14.76L122.40 14.77L122.31 14.68Q121.25 12.14 117.45 11.49L117.38 11.43L117.36 11.41Q115.39 11.46 111.09 11.15L110.90 10.97L108.24 11.12L108.26 11.14Q103.16 11.41 100.57 13.39L100.62 13.43L100.61 13.43Q99.12 14.94 99.01 18.03L98.98 18.00L99.11 18.13Q99.03 17.59 99.25 23.07L99.39 23.21L99.39 23.20Q99.34 24.49 99.42 27.24L99.47 27.28L99.30 27.12Q99.65 31.73 101.40 33.67L101.31 33.58L101.36 33.62Q101.75 34.48 102.63 35.35L102.59 35.31L102.65 35.37Q105.39 37.09 110.91 37.43L110.97 37.49L113.97 37.79L113.95 37.77Q115.45 37.78 117.47 37.67L117.55 37.75L117.47 37.67Q118.85 37.53 120.95 37.00L121.08 37.13L121.03 37.08Q123.05 36.67 123.01 34.34L123.00 34.33L122.86 34.20Q122.96 33.03 121.89 30.25L121.84 30.20L121.94 30.30Q121.53 29.28 120.99 28.48L121.10 28.58L121.12 28.60Q121.58 28.50 122.76 28.69L122.78 28.71L122.79 28.71Q122.51 25.12 122.54 24.43L122.66 24.55L122.55 24.43Q122.24 24.51 121.82 24.47L121.86 24.51L121.76 24.41Q121.42 24.41 121.03 24.48L120.98 24.43L120.98 24.43Q120.96 23.31 121.04 22.24L120.99 22.20L121.04 22.25Q114.81 22.79 108.53 22.68L108.50 22.65L108.60 22.75Q108.65 23.67 108.65 24.58L108.47 24.41L108.60 26.29L108.63 26.31Q109.05 26.36 109.47 26.32L109.48 26.33L109.39 26.24Q109.68 26.11 110.14 26.11L110.27 26.24L110.18 26.15Q110.16 26.59 110.20 27.08L110.33 27.22L110.25 27.14Q110.37 27.71 110.33 28.21L110.33 28.21L110.22 28.09Q111.30 28.12 112.33 28.08L112.41 28.16L112.34 28.09Q113.38 28.10 114.41 28.14L114.43 28.16L114.42 28.15Q115.47 28.40 116.35 28.78L116.24 28.68L116.36 28.83L116.19 28.66Q116.38 30.22 114.70 31.14L114.83 31.26L114.79 31.22Q113.06 32.08 111.35 32.08L111.31 32.04L111.35 32.08Q107.47 32.05 105.04 30.30L105.09 30.35L105.11 30.37Q104.15 28.35 104.31 25.80L104.36 25.85L104.25 25.75Q104.56 20.95 106.41 18.95L106.54 19.09L106.51 19.06Q108.27 16.97 112.95 16.67L113.08 16.79L113.03 16.75Q116.69 16.52 118.63 18.31L118.63 18.31L118.70 18.38Q118.59 18.31 118.71 18.50L118.74 18.53L119.00 18.68L118.96 18.65Q119.60 19.40 120.17 20.50L120.19 20.52L120.56 20.55Z"/><path fill="#222" d="M21.41 27.91L21.39 27.89L21.46 27.96Q24.63 27.67 27.83 27.79L27.76 27.72L27.68 27.64Q27.67 25.11 27.67 22.71L27.64 22.69L27.67 22.71Q27.69 20.26 27.88 17.71L27.90 17.73L27.79 17.62Q26.60 19.36 21.39 27.89ZM31.42 35.38L31.32 35.27L31.36 35.32Q29.66 34.98 27.87 34.91L27.84 34.87L27.90 34.94Q27.68 32.55 27.57 30.08L27.66 30.16L27.62 30.13Q22.31 29.96 17.59 31.36L17.60 31.37L17.51 31.29Q17.57 30.74 17.76 29.75L17.82 29.81L17.79 29.77Q19.68 26.72 23.26 20.44L23.27 20.44L23.29 20.47Q26.04 15.45 29.47 11.57L29.53 11.64L29.53 11.63Q30.31 11.34 31.98 11.08L32.04 11.14L32.15 11.25Q30.10 17.54 30.10 24.58L30.24 24.72L30.18 24.65Q30.12 26.08 30.19 27.56L30.25 27.61L31.62 27.81L31.52 27.70Q32.16 27.78 32.77 27.89L32.83 27.96L32.67 27.79Q32.81 28.80 33.07 30.75L33.22 30.89L33.11 30.78Q31.89 30.51 30.41 30.32L30.53 30.45L30.41 30.32Q30.75 32.46 31.44 35.39ZM33.12 27.60L32.99 27.46L32.97 27.44Q32.93 27.52 32.74 27.52L32.73 27.51L32.21 27.37L32.26 27.42Q32.14 25.93 32.14 24.52L32.08 24.46L32.05 24.43Q32.22 18.20 34.28 12.19L34.18 12.09L34.20 12.12Q33.52 12.46 32.07 12.84L31.92 12.69L31.92 12.69Q32.14 11.92 32.59 10.51L32.67 10.59L32.74 10.65Q31.35 10.94 29.30 11.17L29.35 11.22L29.28 11.15Q25.49 15.63 20.28 24.99L20.28 25.00L22.35 21.32L22.20 21.17Q21.97 22.38 21.70 22.95L21.60 22.85L17.06 31.78L17.13 31.85Q17.79 31.71 18.93 31.33L19.03 31.43L18.69 31.48L18.73 31.52Q18.71 32.29 18.40 33.55L18.36 33.51L18.35 33.50Q22.51 32.21 27.34 32.40L27.26 32.32L27.36 32.42Q27.43 33.40 27.62 35.38L27.47 35.23L27.45 35.21Q28.61 35.31 29.68 35.42L29.73 35.47L29.73 35.48Q29.78 36.06 30.05 37.43L30.09 37.46L30.14 37.52Q31.90 37.61 34.91 38.52L34.94 38.55L34.97 38.58Q34.00 36.47 33.09 33.20L33.19 33.30L34.56 33.68L34.48 33.59Q35.18 33.84 35.87 34.19L36.00 34.32L35.83 34.15Q35.14 31.75 34.99 30.07L35.06 30.14L34.88 29.96Q34.40 29.91 33.26 29.68L33.35 29.77L33.33 29.74Q32.99 28.34 32.99 27.47ZM25.11 27.42L24.94 27.25L24.98 27.30Q25.83 26.09 27.39 23.54L27.33 23.48L27.38 23.52Q27.30 24.40 27.27 25.36L27.29 25.39L27.30 25.39Q27.40 26.48 27.44 27.43L27.42 27.42L27.41 27.41Q26.72 27.25 26.15 27.25L26.27 27.37L26.25 27.35Q25.67 27.38 25.06 27.38Z"/><path fill="#333" d="M130.32 9.22L130.48 9.38L130.33 9.22Q134.30 11.94 139.06 12.17L139.05 12.15L139.02 12.13Q143.54 12.19 147.80 10.44L147.76 10.40L147.78 10.42Q147.59 11.03 146.83 13.81L146.90 13.88L146.78 13.76Q144.07 14.82 141.10 14.97L141.10 14.97L141.12 14.99Q138.11 15.10 135.22 14.38L135.25 14.41L135.21 14.37Q136.06 18.15 136.25 21.81L136.16 21.71L136.12 21.68Q138.18 21.95 139.78 21.91L139.80 21.94L139.76 21.89Q140.93 21.84 143.33 21.73L143.31 21.71L143.31 21.72Q143.37 22.45 143.37 23.14L143.36 23.13L143.32 24.42L143.38 24.49Q140.95 24.45 136.15 24.52L136.17 24.55L136.16 24.53Q136.24 28.73 135.67 32.73L135.67 32.73L135.52 32.57Q138.23 32.01 140.98 32.13L140.92 32.07L140.88 32.03Q143.65 32.17 146.24 33.01L146.25 33.03L146.24 33.01Q146.33 33.83 146.60 34.59L146.57 34.56L146.99 36.05L147.13 36.19Q143.78 34.74 140.35 34.74L140.48 34.87L140.41 34.80Q135.46 34.72 131.20 36.97L131.21 36.98L131.27 37.05Q133.69 30.32 133.42 23.20L133.28 23.06L133.39 23.18Q133.11 16.01 130.45 9.34ZM130.77 37.76L130.81 37.80L130.81 37.81Q131.96 36.97 132.72 36.63L132.88 36.78L132.75 36.65Q132.55 37.40 131.97 38.93L132.10 39.05L132.02 38.97Q136.48 36.93 141.55 37.19L141.60 37.24L141.71 37.35Q146.78 37.55 150.77 40.25L150.72 40.20L150.75 40.23Q149.69 37.80 149.01 35.86L148.95 35.80L149.01 35.86Q147.87 35.10 146.88 34.76L147.07 34.95L146.94 34.82Q146.51 33.40 146.36 32.60L146.41 32.65L146.41 32.65Q143.38 31.72 140.22 31.72L140.23 31.73L140.24 31.73Q139.04 31.68 137.90 31.79L137.96 31.85L137.93 31.82Q137.98 30.50 138.01 29.28L138.05 29.31L138.15 26.83L138.21 26.89Q139.90 26.68 141.69 26.72L141.81 26.83L141.79 26.82Q143.54 26.78 145.33 26.93L145.42 27.02L145.31 26.91Q145.28 26.00 145.28 25.05L145.26 25.03L145.33 23.20L144.51 23.26L144.57 23.31Q144.08 23.32 143.63 23.32L143.70 23.39L143.59 23.28Q143.70 22.71 143.85 21.42L143.81 21.37L143.73 21.29Q142.10 21.49 140.92 21.53L140.95 21.55L140.93 21.54Q140.13 21.69 138.30 21.61L138.19 21.50L138.26 21.57Q138.05 20.03 137.86 17.21L137.91 17.26L137.92 17.28Q139.04 17.48 140.03 17.48L139.94 17.39L139.99 17.44Q144.62 17.34 148.31 15.44L148.40 15.54L148.34 15.47Q148.95 13.15 149.83 10.94L149.88 10.99L149.88 11.00Q148.57 11.85 147.73 12.20L147.68 12.15L147.59 12.06Q147.96 11.36 148.41 9.80L148.35 9.73L148.49 9.87Q143.71 11.87 138.83 11.56L138.97 11.70L138.82 11.55Q133.52 11.23 129.67 8.37L129.68 8.39L129.74 8.44Q132.59 15.37 132.90 22.99L132.86 22.95L133.03 23.12Q133.24 30.94 130.72 37.71Z"/><path d="M11 6 C94 34,112 6,184 28" stroke="#666" fill="none"/><path fill="#333" d="M170.71 22.25L170.59 22.13L170.71 22.25Q171.42 22.16 172.83 22.01L172.82 22.00L172.88 22.07Q172.88 22.75 172.88 23.40L172.81 23.32L172.75 24.52L172.85 24.63Q171.98 24.59 171.15 24.67L171.04 24.56L171.19 24.71Q170.30 24.70 169.46 24.66L169.46 24.66L169.48 24.68Q166.52 30.74 163.10 35.35L163.14 35.39L163.10 35.35Q160.64 36.05 159.35 36.66L159.32 36.64L159.43 36.75Q163.54 31.03 166.58 24.75L166.51 24.68L163.96 24.75L163.82 24.61Q163.85 23.31 163.73 21.97L163.85 22.09L163.85 22.09Q165.76 22.25 167.81 22.25L167.81 22.25L169.57 18.41L169.59 18.42Q170.61 16.55 171.83 14.95L171.85 14.98L171.84 14.97Q170.32 15.16 168.72 15.16L168.59 15.03L168.66 15.10Q162.67 15.20 158.90 12.99L158.76 12.85L158.24 11.27L158.18 11.21Q157.81 10.34 157.43 9.47L157.52 9.56L157.44 9.47Q161.76 12.08 167.47 12.31L167.44 12.28L167.60 12.44Q172.68 12.61 177.82 10.63L177.74 10.56L177.84 10.65Q177.50 10.92 177.01 11.80L177.05 11.84L177.02 11.81Q173.41 16.58 170.56 22.10ZM178.61 13.17L178.72 13.28L179.71 11.27L179.68 11.23Q178.74 11.74 177.06 12.46L176.96 12.36L177.28 12.18L177.16 12.06Q177.42 12.06 177.53 11.94L177.45 11.86L177.51 11.93Q177.87 11.21 178.59 9.88L178.59 9.88L178.55 9.84Q173.23 12.13 167.48 11.90L167.54 11.96L167.59 12.02Q161.51 11.68 156.75 8.71L156.77 8.73L156.81 8.77Q157.84 10.64 158.68 13.31L158.61 13.24L158.59 13.22Q159.68 13.85 160.48 14.15L160.59 14.26L160.51 14.19Q160.60 14.46 161.05 16.33L161.08 16.35L161.08 16.35Q164.25 17.62 169.77 17.46L169.71 17.40L169.78 17.48Q169.39 17.96 167.41 21.73L167.51 21.84L167.56 21.88Q165.46 21.84 163.48 21.65L163.53 21.69L163.42 21.59Q163.56 22.49 163.56 23.37L163.52 23.32L163.55 25.06L165.32 25.16L165.32 26.57L165.15 26.40Q161.31 33.87 158.53 37.44L158.53 37.44L158.57 37.48Q160.18 36.73 161.81 36.23L161.66 36.09L161.81 36.24Q161.05 37.08 159.68 38.79L159.66 38.76L159.72 38.83Q162.78 37.62 165.21 37.39L165.34 37.52L165.25 37.43Q168.27 33.75 171.39 26.97L171.41 26.99L174.73 27.07L174.72 27.06Q174.67 26.18 174.67 25.26L174.79 25.38L174.76 23.56L174.68 23.48Q174.51 23.57 173.95 23.61L173.87 23.52L173.90 23.56Q173.26 23.51 172.99 23.51L173.11 23.62L173.08 23.60Q173.03 23.43 173.07 23.28L173.11 23.32L173.04 22.98L173.18 23.12Q175.68 17.97 178.76 13.33Z"/><path d="M17 9 C120 12,104 17,193 26" stroke="#777" fill="none"/></svg>