<svg xmlns="http://www.w3.org/2000/svg" width="200" height="40" viewBox="0,0,200,40"><path fill="#333" d="M56.07 27.13L46.83 17.13L46.85 17.15Q47.64 20.79 47.64 24.52L47.71 24.59L47.77 24.65Q47.61 30.47 45.55 36.03L45.62 36.10L45.61 36.08Q44.53 36.33 42.28 37.10L42.26 37.08L42.40 37.22Q45.23 31.44 45.23 24.74L45.12 24.64L45.10 24.61Q45.08 15.95 40.59 8.53L40.60 8.54L40.63 8.57Q41.02 8.69 41.70 9.11L41.82 9.22L41.68 9.08Q53.82 20.35 61.66 29.60L61.73 29.67L61.61 29.55Q61.37 27.17 61.37 24.74L61.44 24.81L61.33 24.70Q61.41 17.55 63.92 11.34L63.94 11.36L63.83 11.25Q66.22 10.78 67.82 10.10L67.78 10.06L67.88 10.16Q64.50 16.26 64.19 23.41L64.21 23.43L64.20 23.43Q63.98 30.85 66.95 37.02L66.87 36.94L66.92 36.99Q66.25 36.82 65.83 36.63L65.83 36.62L65.91 36.71Q61.28 32.69 56.07 27.13L56.06 27.12ZM69.42 40.06L69.59 40.23L69.57 40.21Q70.00 40.34 70.42 40.53L70.43 40.54L71.17 40.78L71.15 40.76Q66.06 33.88 66.06 24.52L66.05 24.51L66.02 24.48Q66.00 17.23 69.31 10.98L69.40 11.08L69.43 11.11Q68.74 11.29 67.33 11.90L67.39 11.95L67.39 11.95Q67.71 11.06 68.55 9.49L68.59 9.54L68.55 9.50Q66.04 10.34 63.61 10.91L63.56 10.87L63.71 11.02Q61.02 17.42 61.02 24.85L60.94 24.77L60.93 24.76Q61.01 26.70 61.20 28.68L61.29 28.77L61.16 28.64Q56.48 22.93 51.72 18.32L51.79 18.40L41.66 8.65L41.77 8.75Q41.21 8.47 40.00 7.90L39.84 7.74L39.84 7.74Q44.81 15.57 44.81 24.66L44.80 24.66L44.74 24.60Q44.86 31.83 41.78 37.85L41.71 37.79L41.65 37.73Q42.09 37.74 43.72 37.13L43.74 37.15L43.57 36.98Q43.33 37.84 42.49 39.33L42.56 39.40L42.57 39.41Q43.77 38.74 47.24 37.94L47.35 38.05L47.25 37.95Q49.61 31.86 49.61 24.67L49.63 24.69L49.62 24.68Q49.65 22.62 49.42 20.48L49.41 20.47L49.45 20.51Q60.80 33.19 69.40 40.05Z"/><path fill="#222" d="M79.32 24.59L79.42 24.68L79.34 24.61Q79.34 28.88 78.62 33.03L78.66 33.06L78.74 33.14Q81.00 32.58 84.08 32.47L83.89 32.28L84.06 32.45Q85.33 32.58 86.39 31.57L86.38 31.56L86.31 31.48Q87.52 30.62 87.52 29.29L87.35 29.11L87.52 29.29Q87.42 28.89 87.39 28.62L87.46 28.69L87.31 28.54Q87.17 25.62 84.92 24.79L85.10 24.97L85.07 24.94Q84.31 24.63 83.62 24.70L83.58 24.66L83.48 24.56Q82.45 24.52 81.42 24.56L81.47 24.60L81.45 24.59Q80.31 24.56 79.29 24.56ZM78.08 14.14L78.13 14.19L78.11 14.17Q79.04 17.54 79.31 21.91L79.30 21.90L79.38 21.98Q80.84 22.11 83.50 22.15L83.39 22.03L83.32 21.96Q86.43 22.18 86.77 18.64L86.65 18.52L86.64 18.50Q86.78 16.51 85.37 15.68L85.43 15.74L85.56 15.87Q84.48 15.17 80.07 14.52L80.19 14.65L80.07 14.53Q79.09 14.46 78.18 14.23ZM74.48 37.07L74.57 37.16L74.54 37.13Q77.06 30.51 76.79 23.13L76.62 22.96L76.69 23.03Q76.49 15.82 73.56 9.35L73.40 9.19L73.43 9.22Q77.34 11.87 83.56 12.12L83.41 11.97L83.44 11.99Q89.63 12.21 89.97 15.10L90.17 15.30L89.98 15.11Q90.49 18.06 89.08 20.72L88.95 20.59L88.95 20.59Q88.34 22.23 86.74 22.91L86.67 22.84L86.72 22.89Q90.24 23.44 90.47 28.81L90.44 28.78L90.59 28.93Q90.70 30.07 90.63 31.48L90.50 31.35L90.62 31.47Q90.53 32.76 89.60 33.69L89.55 33.64L89.55 33.64Q88.56 34.52 87.23 34.67L87.21 34.65L87.30 34.74Q85.75 34.75 84.69 34.75L84.75 34.82L84.86 34.93Q78.95 34.72 74.42 37.01ZM87.39 37.49L87.25 37.35L87.33 37.43Q88.27 37.50 90.14 37.61L90.10 37.58L90.17 37.64Q91.43 37.54 92.54 36.66L92.55 36.68L92.62 36.75Q93.43 35.84 93.32 34.28L93.35 34.31L93.39 34.36Q93.26 33.35 92.54 29.89L92.42 29.77L92.52 29.87Q91.87 26.67 90.00 25.18L90.00 25.18L89.48 24.24L89.57 24.33Q91.19 22.87 91.76 19.10L91.85 19.19L91.77 19.11Q92.04 18.08 91.96 16.67L91.84 16.55L91.84 16.55Q91.73 15.19 90.63 14.35L90.78 14.51L90.75 14.47Q90.37 14.20 90.25 14.16L90.36 14.27L90.31 14.22Q90.03 13.67 89.19 12.87L89.12 12.80L89.13 12.81Q87.70 11.84 83.47 11.65L83.52 11.70L83.46 11.63Q76.76 11.29 72.76 8.40L72.82 8.45L72.85 8.49Q76.07 15.43 76.37 22.97L76.46 23.06L76.41 23.01Q76.68 30.79 73.87 37.71L73.95 37.79L75.91 36.75L75.96 36.80Q75.60 37.96 75.10 39.10L75.14 39.14L75.10 39.10Q79.33 37.17 84.36 37.17L84.38 37.19L84.40 37.21Q85.76 37.16 87.21 37.31ZM85.08 26.78L85.15 26.85L85.26 26.95Q85.94 26.83 86.86 27.29L86.75 27.18L86.75 27.19Q86.95 27.61 87.10 28.68L87.16 28.73L87.11 28.69Q87.34 30.10 86.41 31.14L86.23 30.97L86.37 31.10Q85.35 32.07 83.95 31.96L84.05 32.06L82.53 32.14L82.44 32.05Q81.73 32.14 81.01 32.25L81.09 32.33L81.09 32.33Q81.27 30.39 81.35 26.92L81.37 26.95L81.36 26.93Q82.03 26.88 83.28 26.84L83.38 26.94L83.39 26.94Q84.62 26.88 85.23 26.92ZM84.07 17.19L84.06 17.19L84.53 17.27L84.48 17.23Q84.77 17.29 84.96 17.32L85.03 17.39L85.34 17.32L85.61 17.41L86.22 17.48L86.35 17.61Q86.33 17.74 86.33 18.04L86.41 18.13L86.42 18.67L86.44 18.69Q86.41 19.92 85.53 20.85L85.56 20.87L85.39 20.71Q84.62 21.74 83.40 21.74L83.33 21.67L83.29 21.63Q82.30 21.67 82.30 21.67L82.30 21.67L82.34 21.71Q81.07 21.73 81.41 21.73L81.29 21.61L81.37 21.69Q81.33 20.17 81.03 17.12L81.04 17.14L80.97 17.07Q82.55 17.19 84.07 17.19Z"/><path fill="#333" d="M17.24 9.28L17.26 9.30L17.32 9.35Q21.02 11.80 25.78 12.03L25.84 12.09L25.77 12.02Q30.51 12.30 34.77 10.55L34.73 10.52L34.65 10.44Q34.39 10.97 33.63 13.75L33.66 13.78L33.71 13.83Q31.01 14.90 28.04 15.06L27.95 14.96L27.91 14.92Q25.02 15.16 22.13 14.43L22.09 14.40L22.08 14.39Q22.88 18.11 23.07 21.77L22.94 21.64L23.08 21.78Q25.03 21.94 26.63 21.91L26.67 21.94L26.64 21.92Q27.87 21.92 30.27 21.81L30.20 21.75L30.18 21.72Q30.16 22.39 30.16 23.08L30.26 23.17L30.28 24.52L30.21 24.46Q27.75 24.40 22.96 24.47L22.97 24.48L23.09 24.60Q22.92 28.55 22.35 32.54L22.41 32.61L22.42 32.61Q25.09 32.02 27.83 32.13L27.85 32.15L27.74 32.04Q30.51 32.18 33.10 33.02L33.11 33.03L33.10 33.01Q33.16 33.80 33.42 34.56L33.47 34.61L33.87 36.07L33.85 36.05Q30.68 34.79 27.26 34.79L27.23 34.77L27.18 34.72Q22.37 34.78 18.11 37.02L18.12 37.03L18.13 37.04Q20.52 30.30 20.26 23.18L20.14 23.06L20.11 23.04Q19.92 15.96 17.26 9.30ZM17.61 37.74L17.60 37.73L17.73 37.87Q18.81 36.97 19.58 36.63L19.70 36.75L19.64 36.68Q19.55 37.55 18.98 39.07L18.90 39.00L18.83 38.93Q23.46 37.04 28.52 37.31L28.51 37.30L28.47 37.26Q33.66 37.57 37.66 40.28L37.58 40.20L37.69 40.31Q36.53 37.78 35.85 35.84L35.80 35.80L35.77 35.76Q34.91 35.29 33.92 34.95L33.73 34.75L33.74 34.77Q33.35 33.38 33.20 32.58L33.19 32.58L33.33 32.71Q30.14 31.62 26.98 31.62L27.01 31.64L27.05 31.69Q25.97 31.75 24.83 31.87L24.82 31.86L24.69 31.73Q24.84 30.51 24.88 29.29L24.83 29.24L25.02 26.84L24.96 26.78Q26.79 26.71 28.58 26.75L28.65 26.81L28.53 26.69Q30.53 26.91 32.32 27.06L32.31 27.05L32.16 26.90Q32.24 26.10 32.24 25.15L32.16 25.07L32.11 23.12L31.33 23.21L31.37 23.26Q30.87 23.25 30.41 23.25L30.56 23.40L30.45 23.29Q30.42 22.57 30.57 21.28L30.68 21.38L30.68 21.38Q29.06 21.59 27.88 21.63L27.85 21.61L27.77 21.52Q26.86 21.56 25.03 21.49L25.17 21.62L25.00 21.46Q24.95 20.07 24.76 17.26L24.73 17.23L24.87 17.36Q25.93 17.51 26.92 17.51L26.83 17.42L26.92 17.51Q31.46 17.33 35.15 15.43L35.32 15.60L35.23 15.50Q35.78 13.13 36.66 10.92L36.65 10.91L36.60 10.86Q35.39 11.82 34.56 12.17L34.41 12.02L34.50 12.11Q34.86 11.41 35.32 9.85L35.18 9.71L35.19 9.71Q30.59 11.90 25.72 11.59L25.80 11.67L25.79 11.66Q20.46 11.32 16.61 8.46L16.59 8.44L16.61 8.46Q19.60 15.52 19.90 23.13L19.85 23.09L19.91 23.14Q20.10 30.94 17.59 37.72Z"/><path fill="#111" d="M120.83 18.02L120.87 18.06L120.97 18.15Q118.97 20.69 116.30 26.32L116.46 26.47L114.32 30.58L114.37 30.63Q113.59 32.63 112.26 34.88L112.18 34.80L112.21 34.83Q112.69 34.85 111.02 34.89L110.88 34.75L110.99 34.87Q111.02 34.89 109.76 34.89L109.72 34.85L109.62 34.75Q108.91 33.28 105.98 26.12L106.12 26.26L106.05 26.20Q103.80 20.74 101.70 17.73L101.87 17.90L101.85 17.88Q102.47 20.83 102.47 23.99L102.55 24.06L102.57 24.08Q102.63 30.65 99.66 36.21L99.66 36.21L99.59 36.15Q98.18 36.41 95.82 37.13L95.92 37.23L95.85 37.16Q99.62 31.56 99.62 24.33L99.52 24.23L99.50 24.21Q99.64 15.40 94.23 8.44L94.27 8.47L94.21 8.42Q95.75 9.04 98.11 9.72L98.25 9.86L98.15 9.77Q105.26 16.57 111.35 29.90L111.38 29.92L111.26 29.81Q114.85 22.89 117.06 19.38L117.05 19.37L116.95 19.27Q120.66 13.63 124.62 10.16L124.48 10.02L124.50 10.03Q125.84 9.89 128.20 9.13L128.28 9.21L128.16 9.09Q123.22 15.76 123.22 24.36L123.24 24.38L123.15 24.30Q123.21 31.02 126.64 36.54L126.63 36.53L126.61 36.51Q125.27 36.21 122.53 35.60L122.45 35.51L122.51 35.57Q120.13 30.76 120.13 24.78L120.12 24.77L120.27 24.92Q120.23 21.45 120.91 18.10ZM122.31 35.94L122.34 35.97L122.26 35.89Q122.99 36.05 124.44 36.32L124.51 36.39L124.53 36.41Q124.96 37.15 125.91 38.63L125.95 38.67L125.82 38.54Q127.94 38.94 131.40 40.16L131.57 40.33L131.56 40.32Q125.18 33.86 125.18 24.04L125.19 24.05L125.15 24.01Q125.14 16.27 129.52 10.14L129.50 10.13L127.42 10.94L127.38 10.91Q128.43 9.40 129.08 8.53L128.97 8.42L129.05 8.50Q127.15 9.11 124.52 9.64L124.52 9.64L124.56 9.68Q117.82 15.80 111.76 28.40L111.69 28.33L111.73 28.37Q106.63 17.48 101.68 12.23L101.56 12.11L101.64 12.19Q101.24 12.09 100.67 11.98L100.64 11.95L99.49 10.73L99.52 10.76Q98.92 10.08 98.23 9.47L98.20 9.44L98.23 9.46Q95.12 8.41 93.33 7.68L93.34 7.70L93.43 7.79Q99.24 14.82 99.24 24.22L99.28 24.26L99.33 24.31Q99.26 31.85 95.11 37.71L95.19 37.79L95.19 37.79Q95.85 37.54 97.15 37.12L97.05 37.03L97.11 37.09Q97.12 37.47 95.71 39.57L95.69 39.55L95.69 39.55Q97.36 38.94 100.87 38.18L100.91 38.22L100.95 38.26Q104.66 31.20 104.47 23.43L104.56 23.52L104.39 23.36Q105.91 27.35 109.38 35.23L109.48 35.33L109.45 35.31Q109.62 35.17 109.85 35.17L110.00 35.32L110.48 35.27L110.35 35.14Q110.88 35.90 111.68 37.19L111.69 37.20L111.75 37.26Q113.34 37.21 113.34 37.21L113.28 37.16L113.43 37.30Q114.36 37.21 115.01 37.29L114.97 37.24L114.89 37.16Q116.51 33.19 119.86 25.19L119.81 25.14L119.95 25.29Q119.74 30.64 122.33 35.97Z"/><path fill="#111" d="M169.73 34.84L169.73 34.85L169.72 34.84Q167.81 34.83 165.79 35.02L165.79 35.01L165.73 34.95Q166.33 29.65 166.33 24.82L166.35 24.84L166.41 24.90Q166.40 19.98 165.75 14.76L165.90 14.91L165.91 14.92Q161.12 14.32 157.92 12.64L157.99 12.71L157.38 11.07L157.34 11.03Q157.19 10.57 156.58 9.36L156.54 9.32L156.56 9.34Q161.64 12.02 167.66 12.21L167.61 12.17L167.55 12.10Q173.48 12.32 178.92 10.27L178.86 10.20L178.83 10.18Q178.23 11.70 177.58 13.53L177.56 13.51L177.48 13.43Q173.91 14.77 169.64 14.96L169.59 14.90L169.61 14.92Q169.53 20.06 169.53 25.01L169.50 24.98L169.43 24.91Q169.46 29.89 169.76 34.87ZM179.52 9.50L179.64 9.62L179.56 9.54Q173.73 11.81 167.52 11.62L167.60 11.70L167.44 11.53Q160.80 11.37 155.70 8.40L155.70 8.40L155.72 8.43Q156.61 9.85 157.90 13.12L157.76 12.98L157.90 13.11Q158.38 13.25 159.64 13.82L159.76 13.94L159.77 13.96Q160.05 14.69 160.39 16.21L160.23 16.06L160.25 16.08Q162.63 17.01 165.68 17.24L165.76 17.32L165.76 17.32Q166.12 20.99 166.12 24.76L166.05 24.69L166.12 24.76Q165.99 30.00 165.19 35.37L165.22 35.39L165.26 35.44Q166.85 35.24 167.38 35.24L167.41 35.26L167.43 35.29Q167.44 35.60 167.38 36.27L167.48 36.36L167.31 36.20Q167.34 36.95 167.34 37.29L167.34 37.29L167.32 37.27Q168.43 37.13 169.96 37.20L170.05 37.29L170.04 37.29Q170.86 37.23 172.69 37.38L172.86 37.56L172.77 37.47Q171.51 32.51 171.39 27.33L171.47 27.41L171.39 27.33Q171.32 22.08 171.85 17.17L171.82 17.14L171.81 17.13Q175.76 16.58 178.92 15.36L179.02 15.47L178.93 15.38Q179.63 12.99 180.65 10.93L180.70 10.98L180.62 10.90Q179.33 11.63 178.53 11.93L178.47 11.87L178.59 11.99Q178.92 10.61 179.49 9.47Z"/><path d="M18 29 C105 5,99 21,199 1" stroke="#888" fill="none"/><path d="M12 31 C118 35,99 13,182 13" stroke="#777" fill="none"/><path fill="#333" d="M140.79 15.17L140.77 15.15L140.81 15.20Q136.42 15.11 132.73 14.12L132.80 14.19L132.80 14.19Q134.24 18.68 134.43 23.51L134.44 23.52L134.44 23.52Q134.58 28.26 133.36 32.87L133.31 32.82L133.33 32.84Q136.11 32.20 139.62 32.05L139.70 32.13L139.77 32.20Q143.56 31.88 145.35 29.44L145.42 29.51L145.42 29.51Q146.92 27.43 147.11 23.32L147.23 23.44L147.19 23.40Q147.29 21.68 146.83 19.96L146.70 19.83L146.74 19.86Q145.54 15.20 140.82 15.20ZM128.74 37.04L128.88 37.19L128.84 37.15Q131.76 31.50 131.76 24.80L131.70 24.74L131.64 24.68Q131.73 16.24 127.43 9.24L127.44 9.24L127.47 9.27Q132.59 11.80 140.85 11.99L140.96 12.10L140.98 12.13Q149.89 12.35 150.23 19.51L150.21 19.50L150.17 19.45Q150.24 22.11 150.20 23.56L150.31 23.67L150.13 23.49Q150.22 28.34 149.39 30.51L149.22 30.34L149.31 30.43Q148.95 31.59 148.19 32.43L148.09 32.34L148.13 32.38Q146.79 33.93 144.17 34.42L144.08 34.34L144.05 34.31Q142.48 34.60 139.47 34.83L139.46 34.82L139.57 34.93Q133.52 35.47 128.92 37.22ZM146.85 37.10L146.85 37.10L146.72 36.98Q149.60 36.77 151.23 35.29L151.14 35.20L151.15 35.20Q152.39 33.48 152.35 30.74L152.30 30.68L152.29 30.67Q152.37 29.38 152.22 25.88L152.17 25.83L151.79 21.27L151.69 21.16Q151.60 18.98 150.65 16.88L150.56 16.80L150.55 16.78Q150.14 15.96 149.46 15.32L149.49 15.34L149.34 15.04L149.42 15.12Q147.81 12.26 143.39 11.88L143.37 11.85L143.43 11.91Q140.69 11.73 133.69 11.01L133.61 10.92L133.63 10.95Q130.34 10.47 126.65 8.46L126.75 8.56L126.63 8.44Q131.42 15.78 131.42 24.53L131.47 24.58L131.47 24.59Q131.55 31.67 128.20 37.84L128.20 37.84L128.12 37.75Q128.90 37.58 130.23 37.09L130.24 37.09L130.20 37.06Q129.76 37.79 128.88 39.28L128.95 39.34L128.90 39.29Q132.00 38.29 135.35 37.79L135.41 37.85L135.34 37.78Q137.41 37.45 141.06 37.34L140.97 37.25L141.10 37.37Q144.97 37.25 146.80 37.06ZM146.88 23.47L146.75 23.35L146.73 23.32Q146.45 31.42 139.75 31.80L139.72 31.77L139.75 31.80Q137.69 31.80 135.64 32.06L135.81 32.23L135.73 32.16Q136.39 28.25 136.39 24.60L136.51 24.71L136.48 24.69Q136.42 20.93 135.70 17.09L135.66 17.05L135.59 16.98Q138.02 17.50 142.70 17.50L142.73 17.54L142.56 17.36Q143.99 17.27 145.62 18.22L145.68 18.27L145.63 18.22Q146.94 20.52 146.78 23.38Z"/></svg>