<svg xmlns="http://www.w3.org/2000/svg" width="200" height="40" viewBox="0,0,200,40"><path fill="#222" d="M56.06 27.12L46.90 17.20L46.83 17.13Q47.68 20.84 47.68 24.57L47.72 24.61L47.59 24.48Q47.62 30.48 45.56 36.04L45.62 36.10L45.61 36.09Q44.54 36.35 42.30 37.11L42.29 37.11L42.23 37.05Q45.08 31.29 45.08 24.59L45.19 24.70L45.22 24.73Q45.10 15.97 40.61 8.55L40.66 8.60L40.74 8.68Q41.04 8.71 41.72 9.13L41.84 9.25L41.84 9.24Q53.87 20.40 61.71 29.65L61.77 29.71L61.68 29.62Q61.42 27.23 61.42 24.80L61.34 24.71L61.35 24.72Q61.36 17.50 63.88 11.30L63.85 11.27L63.96 11.38Q66.12 10.69 67.72 10.00L67.88 10.16L67.80 10.08Q64.53 16.29 64.22 23.45L64.23 23.46L64.19 23.41Q63.97 30.84 66.93 37.01L66.92 36.99L66.86 36.93Q66.39 36.95 65.97 36.76L65.87 36.67L65.94 36.73Q61.27 32.67 56.05 27.11L56.14 27.20ZM69.40 40.04L69.42 40.06L69.59 40.23Q69.99 40.32 70.41 40.51L70.43 40.54L71.31 40.92L71.19 40.80Q66.12 33.95 66.12 24.58L65.97 24.43L66.14 24.60Q66.11 17.34 69.43 11.10L69.30 10.97L69.47 11.14Q68.65 11.20 67.24 11.81L67.25 11.82L67.23 11.79Q67.66 11.01 68.50 9.45L68.52 9.47L68.50 9.45Q66.13 10.43 63.69 11.00L63.70 11.00L63.55 10.86Q60.92 17.33 60.92 24.75L61.03 24.86L61.00 24.83Q60.92 26.62 61.11 28.60L61.28 28.76L61.14 28.62Q56.57 23.03 51.82 18.42L51.76 18.37L41.68 8.67L41.76 8.75Q41.11 8.36 39.89 7.79L39.96 7.86L39.92 7.82Q44.76 15.52 44.76 24.62L44.86 24.72L44.76 24.61Q44.69 31.66 41.61 37.68L41.77 37.84L41.68 37.75Q41.95 37.60 43.59 36.99L43.63 37.04L43.74 37.15Q43.43 37.94 42.59 39.42L42.42 39.25L42.60 39.43Q43.75 38.72 47.22 37.92L47.27 37.97L47.21 37.91Q49.66 31.92 49.66 24.72L49.53 24.59L49.68 24.74Q49.67 22.63 49.44 20.50L49.43 20.49L49.40 20.46Q60.90 33.29 69.50 40.14Z"/><path fill="#333" d="M25.60 35.28L25.56 35.25L23.18 28.40L23.06 28.29Q18.79 15.79 12.85 9.40L12.78 9.33L12.74 9.29Q14.84 10.44 17.43 11.05L17.34 10.96L17.47 11.09Q22.56 17.32 26.90 30.07L26.88 30.06L26.90 30.07Q30.00 22.02 30.69 20.42L30.65 20.38L30.69 20.42Q33.05 14.79 35.87 11.48L35.82 11.43L35.85 11.46Q37.92 11.09 40.55 10.22L40.44 10.11L40.50 10.17Q35.93 14.78 32.89 22.01L32.99 22.12L32.90 22.03Q31.53 25.72 27.84 35.24L27.72 35.12L27.72 35.12Q27.20 35.17 26.63 35.14L26.68 35.19L26.67 35.18Q26.17 35.24 25.59 35.28ZM30.52 37.62L30.54 37.63L30.47 37.56Q33.26 27.56 34.82 23.53L34.91 23.61L34.85 23.56Q37.85 15.86 42.26 10.98L42.34 11.06L42.33 11.05Q41.30 11.43 39.21 12.15L39.19 12.13L40.35 10.82L40.36 10.83Q40.87 10.09 41.48 9.44L41.41 9.37L41.58 9.53Q38.67 10.44 35.66 11.01L35.68 11.02L35.77 11.11Q31.20 16.25 27.31 27.71L27.44 27.83L27.36 27.75Q23.81 17.73 20.61 13.36L20.53 13.27L20.51 13.25Q20.26 13.31 19.39 13.16L19.25 13.02L19.21 12.98Q19.07 12.69 17.47 10.63L17.52 10.68L17.56 10.73Q14.54 9.94 11.83 8.54L11.72 8.42L11.86 8.56Q18.47 15.63 22.85 28.42L22.72 28.29L22.83 28.41Q23.95 31.96 25.13 35.54L25.21 35.61L25.29 35.69Q25.63 35.73 26.47 35.62L26.33 35.48L26.36 35.51Q26.81 36.31 27.50 37.64L27.43 37.57L27.45 37.59Q28.38 37.60 29.10 37.68L29.10 37.67L29.08 37.66Q29.77 37.62 30.53 37.62Z"/><path fill="#222" d="M108.24 21.91L108.06 21.73L108.25 21.92Q109.96 22.00 111.79 22.00L111.82 22.02L111.71 21.91Q113.56 21.98 115.38 21.82L115.32 21.76L115.32 21.75Q115.25 22.45 115.25 23.17L115.23 23.15L115.18 24.44L115.33 24.58Q112.82 24.44 108.06 24.55L108.06 24.55L108.20 24.69Q108.10 30.53 106.96 35.51L107.10 35.65L107.00 35.56Q104.75 36.20 103.27 37.00L103.35 37.08L103.27 37.00Q105.68 30.28 105.42 23.16L105.35 23.09L105.45 23.20Q105.18 16.04 102.52 9.37L102.46 9.32L102.43 9.29Q106.09 11.81 110.85 12.03L110.97 12.16L110.83 12.01Q115.58 12.28 119.73 10.52L119.63 10.43L119.65 10.44Q119.38 11.28 119.15 12.08L119.23 12.16L118.63 13.65L118.77 13.78Q116.05 14.88 113.08 15.03L113.06 15.01L112.98 14.93Q110.10 15.13 107.24 14.40L107.25 14.41L107.24 14.40Q107.95 17.81 108.14 21.81ZM120.35 9.81L120.39 9.85L120.37 9.83Q115.73 11.93 110.86 11.63L110.92 11.68L110.92 11.69Q105.57 11.36 101.84 8.50L101.82 8.49L101.82 8.49Q104.65 15.39 104.95 23.00L104.96 23.01L104.91 22.96Q105.41 31.07 102.90 37.85L102.78 37.74L102.89 37.84Q103.52 37.40 104.89 36.76L104.78 36.65L104.94 36.81Q104.58 37.40 104.01 38.93L104.13 39.04L104.06 38.98Q106.47 37.99 109.36 37.50L109.39 37.53L109.32 37.46Q109.83 32.48 110.02 26.77L110.05 26.81L110.07 26.82Q111.95 26.88 113.78 26.88L113.70 26.80L113.74 26.84Q115.44 26.75 117.27 26.94L117.27 26.95L117.34 27.01Q117.17 26.01 117.17 25.10L117.31 25.24L117.22 23.24L117.23 23.25Q116.45 23.35 115.62 23.35L115.67 23.40L115.53 23.26Q115.70 22.56 115.78 21.53L115.76 21.52L115.69 21.44Q114.28 21.60 112.88 21.60L112.92 21.64L112.96 21.69Q111.49 21.63 110.12 21.59L110.05 21.51L110.04 19.37L110.11 19.45Q110.02 18.29 109.91 17.22L109.97 17.28L109.84 17.16Q110.91 17.31 111.90 17.31L111.95 17.36L111.89 17.30Q116.67 17.32 120.28 15.41L120.33 15.47L120.35 15.48Q120.84 13.65 121.75 11.02L121.65 10.92L121.65 10.92Q120.47 11.87 119.67 12.22L119.66 12.20L119.60 12.14Q119.91 11.42 120.40 9.86Z"/><path d="M7 2 C115 37,88 18,194 32" stroke="#777" fill="none"/><path fill="#222" d="M164.68 21.78L164.66 21.76L164.67 21.77Q166.45 21.91 168.28 21.91L168.35 21.99L168.44 22.07Q170.16 22.00 171.98 21.85L171.91 21.78L171.94 21.81Q171.89 22.52 171.89 23.24L171.85 23.20L171.77 24.46L171.83 24.52Q169.53 24.58 164.78 24.69L164.66 24.58L164.67 24.58Q164.77 30.63 163.63 35.62L163.66 35.65L163.55 35.54Q161.28 36.16 159.79 36.96L159.91 37.08L159.82 36.99Q162.21 30.24 161.95 23.12L161.95 23.13L161.91 23.08Q161.71 15.99 159.05 9.33L158.97 9.26L159.01 9.29Q162.73 11.87 167.49 12.10L167.40 12.01L167.55 12.16Q172.10 12.22 176.25 10.47L176.28 10.50L176.19 10.41Q176.00 11.32 175.77 12.12L175.79 12.15L175.28 13.73L175.37 13.82Q172.63 14.88 169.66 15.03L169.69 15.06L169.63 15.01Q166.73 15.19 163.88 14.47L163.85 14.44L163.82 14.41Q164.48 17.77 164.67 21.77ZM176.86 9.75L176.92 9.81L177.00 9.89Q172.21 11.84 167.34 11.53L167.34 11.53L167.36 11.55Q162.16 11.38 158.43 8.52L158.34 8.44L158.46 8.55Q161.27 15.43 161.57 23.05L161.65 23.13L161.48 22.96Q161.94 31.03 159.42 37.81L159.45 37.83L159.35 37.74Q160.03 37.34 161.40 36.70L161.49 36.79L161.47 36.77Q161.24 37.49 160.67 39.01L160.71 39.05L160.58 38.92Q162.94 37.90 165.83 37.40L165.91 37.48L165.92 37.48Q166.51 32.59 166.70 26.88L166.67 26.86L166.59 26.78Q168.43 26.79 170.26 26.79L170.23 26.76L170.33 26.86Q172.15 26.89 173.98 27.08L173.99 27.09L173.91 27.01Q173.84 26.10 173.84 25.19L173.84 25.20L173.80 23.24L173.75 23.20Q173.04 23.36 172.20 23.36L172.20 23.36L172.24 23.40Q172.28 22.57 172.36 21.54L172.24 21.43L172.28 21.46Q170.89 21.63 169.48 21.63L169.51 21.66L169.46 21.61Q168.01 21.57 166.64 21.53L166.65 21.54L166.71 19.47L166.58 19.34Q166.56 18.26 166.45 17.19L166.43 17.17L166.42 17.16Q167.40 17.22 168.39 17.22L168.47 17.31L168.51 17.35Q173.26 17.34 176.88 15.44L176.93 15.49L176.86 15.42Q177.34 13.58 178.26 10.95L178.34 11.04L178.14 10.84Q177.02 11.85 176.22 12.20L176.11 12.08L176.23 12.20Q176.44 11.38 176.93 9.82Z"/><path d="M17 38 C113 19,80 13,184 5" stroke="#222" fill="none"/><path fill="#222" d="M135.70 14.29L135.75 14.34L135.76 14.35Q136.55 18.53 136.70 22.11L136.77 22.17L136.69 22.10Q137.88 22.26 138.95 22.26L139.03 22.34L141.23 22.34L141.24 22.34Q142.14 22.18 143.02 20.77L142.98 20.73L143.03 20.79Q143.68 19.53 143.79 18.35L143.79 18.34L143.83 18.39Q144.34 15.51 140.12 15.01L140.08 14.98L140.00 14.90Q138.32 14.86 135.69 14.29ZM136.80 24.95L136.77 24.91L136.84 24.99Q136.73 31.16 135.59 35.58L135.61 35.60L135.63 35.61Q134.20 36.06 131.88 37.12L131.81 37.05L131.87 37.11Q134.21 30.43 133.95 23.16L133.99 23.20L133.91 23.12Q133.69 15.82 130.91 9.39L130.90 9.37L130.75 9.23Q134.93 12.04 141.18 12.04L141.24 12.10L141.16 12.02Q147.25 12.06 147.41 15.53L147.52 15.64L147.48 15.60Q147.59 18.07 146.60 20.73L146.42 20.56L146.55 20.69Q146.15 21.81 145.20 23.03L145.06 22.89L145.13 22.96Q143.88 24.64 141.33 24.91L141.26 24.84L141.32 24.90Q139.05 24.91 136.80 24.95ZM142.95 27.21L143.01 27.27L142.85 27.11Q147.09 27.43 148.35 22.63L148.27 22.56L148.33 22.62Q149.29 18.98 149.14 16.96L149.16 16.98L149.07 16.88Q149.11 15.52 148.35 14.53L148.25 14.43L148.22 14.40Q147.92 14.10 147.42 13.87L147.42 13.87L147.51 13.96Q147.42 13.72 146.81 12.95L146.72 12.87L146.80 12.94Q145.21 11.58 141.25 11.58L141.25 11.58L141.35 11.68Q134.39 11.61 130.16 8.45L130.11 8.39L130.25 8.54Q133.41 15.62 133.68 23.08L133.53 22.93L133.69 23.09Q133.83 30.62 131.17 37.70L131.33 37.87L131.16 37.69Q132.29 37.11 133.28 36.73L133.29 36.74L132.91 37.89L133.00 37.98Q132.68 38.42 132.42 38.99L132.45 39.03L132.43 39.01Q134.92 38.03 137.82 37.50L137.82 37.50L137.78 37.46Q138.59 31.91 138.66 27.19L138.78 27.31L138.68 27.21Q139.89 27.24 140.88 27.24L140.72 27.07L140.70 27.06Q142.14 27.17 142.94 27.21ZM141.94 17.22L141.97 17.25L141.93 17.21Q142.40 17.18 143.39 17.41L143.39 17.42L143.43 17.45Q143.55 17.68 143.58 17.99L143.66 18.06L143.62 18.02Q143.71 18.34 143.63 18.60L143.66 18.63L143.50 18.47Q143.43 19.74 142.71 20.62L142.81 20.71L142.71 20.61Q142.25 21.79 141.22 21.98L141.24 22.00L141.14 21.91Q140.35 21.83 138.71 21.83L138.84 21.96L138.68 21.80Q138.63 19.51 138.40 17.15L138.50 17.24L140.14 17.21L140.31 17.37Q141.02 17.25 141.90 17.18Z"/><path fill="#444" d="M79.10 25.59L79.16 25.64L79.25 25.73Q79.05 25.54 82.44 25.50L82.50 25.56L82.48 25.54Q84.80 25.57 85.86 25.61L85.85 25.60L85.84 25.59Q84.85 22.78 82.42 17.14L82.41 17.14L82.30 17.02Q81.78 18.48 80.73 21.34L80.73 21.34L80.76 21.37Q79.67 24.17 79.10 25.58ZM86.99 28.11L87.06 28.18L87.07 28.19Q84.75 28.12 82.55 28.16L82.50 28.11L82.47 28.08Q80.15 28.05 77.87 28.24L77.90 28.27L77.90 28.27Q76.52 31.84 73.29 36.03L73.29 36.03L73.13 35.88Q70.60 36.54 69.23 37.03L69.21 37.02L69.32 37.13Q74.32 31.35 79.00 17.99L79.07 18.06L79.15 18.14Q80.35 14.65 81.72 11.42L81.64 11.34L81.60 11.30Q81.98 11.37 82.32 11.37L82.38 11.44L82.99 11.32L83.02 11.34Q83.84 12.78 88.68 24.43L88.55 24.30L88.72 24.47Q91.92 32.24 95.91 36.39L95.89 36.36L95.91 36.39Q95.46 36.31 91.57 35.43L91.51 35.37L91.60 35.46Q89.04 32.33 87.07 28.19ZM91.37 35.65L91.40 35.68L92.08 35.86L91.98 35.77Q92.28 35.83 92.58 35.95L92.51 35.88L92.61 35.98Q92.91 36.31 94.74 38.33L94.81 38.41L94.77 38.36Q98.38 39.24 100.78 40.27L100.83 40.31L100.75 40.23Q95.33 35.76 91.33 27.77L91.19 27.63L91.22 27.66Q89.57 24.33 88.13 20.37L88.26 20.51L85.54 13.03L85.55 13.04Q85.22 13.06 84.99 13.06L84.99 13.05L84.48 13.08L84.41 13.00Q84.09 12.38 83.37 11.01L83.40 11.04L83.43 11.08Q82.92 11.09 82.46 11.05L82.35 10.95L82.46 11.05Q81.83 10.84 81.30 10.84L81.43 10.98L81.37 10.92Q80.06 14.94 76.18 25.10L76.08 25.00L76.11 25.03Q73.04 33.04 68.40 37.84L68.29 37.73L68.35 37.79Q69.40 37.40 71.42 36.79L71.35 36.72L71.29 36.66Q70.60 37.61 69.04 39.40L69.04 39.40L69.05 39.41Q70.84 38.83 74.76 38.07L74.67 37.98L74.70 38.01Q78.10 33.65 79.66 30.41L79.73 30.48L79.76 30.51Q81.50 30.38 83.82 30.42L83.85 30.45L83.66 30.26Q86.51 30.41 87.88 30.48L87.74 30.35L87.76 30.37Q89.18 32.89 91.54 35.82ZM83.71 21.02L83.62 20.93L83.75 21.07Q84.64 23.18 85.41 25.27L85.29 25.15L81.96 25.14L82.06 25.24Q82.58 23.74 83.64 20.96Z"/></svg>