<svg xmlns="http://www.w3.org/2000/svg" width="200" height="40" viewBox="0,0,200,40"><path d="M18 7 C91 8,120 11,191 34" stroke="#999" fill="none"/><path d="M6 5 C95 22,99 16,189 8" stroke="#888" fill="none"/><path fill="#222" d="M25.49 14.69L25.39 14.59L23.82 14.69L23.95 14.82Q21.62 14.86 21.39 16.88L21.42 16.91L21.46 16.94Q21.30 17.59 21.34 18.58L21.45 18.69L21.34 18.58Q21.45 20.59 22.71 21.92L22.73 21.94L22.66 21.87Q23.98 23.27 25.88 23.12L25.84 23.08L25.71 22.95Q27.79 22.82 28.56 21.91L28.58 21.93L28.57 21.93Q29.76 21.13 30.02 18.88L29.91 18.77L29.90 18.76Q30.26 16.60 29.00 15.76L29.03 15.79L28.94 15.71Q28.04 14.89 25.38 14.58ZM31.52 23.92L31.47 23.87L30.14 26.12L30.21 26.18Q27.57 31.05 23.80 35.12L23.68 35.00L23.72 35.04Q22.01 35.12 19.30 35.92L19.43 36.04L19.30 35.91Q24.67 29.67 27.82 24.87L27.95 24.99L27.86 24.91Q26.94 25.66 25.30 25.73L25.19 25.62L25.11 25.54Q22.20 25.79 20.68 23.81L20.58 23.72L20.58 23.71Q19.44 22.20 18.34 17.63L18.41 17.70L18.35 17.64Q18.41 17.25 18.26 16.31L18.26 16.31L18.23 16.28Q17.96 15.24 17.96 14.78L18.04 14.86L18.10 14.91Q18.03 13.06 19.10 12.45L19.08 12.43L19.02 12.37Q20.24 11.61 22.10 11.61L22.17 11.68L22.10 11.61Q25.43 11.74 25.43 11.74L25.47 11.78L25.47 11.78Q27.50 11.68 28.76 11.87L28.87 11.98L28.79 11.90Q30.86 12.10 31.77 12.60L31.91 12.73L31.87 12.69Q33.29 13.51 33.48 15.26L33.48 15.26L33.40 15.18Q33.38 15.39 33.19 18.05L33.14 18.00L33.18 18.04Q32.91 20.28 32.68 21.12L32.60 21.04L32.66 21.10Q32.28 22.51 31.52 23.92ZM33.49 26.38L33.41 26.30L33.30 26.20Q34.48 24.17 35.01 19.87L34.88 19.74L34.87 19.74Q35.22 17.60 35.18 16.73L35.17 16.72L35.06 16.61Q35.14 14.87 33.96 13.95L34.02 14.00L33.59 13.77L33.55 13.73Q33.37 13.05 32.45 12.41L32.35 12.30L32.34 12.29Q30.13 11.37 25.33 11.22L25.28 11.17L25.38 11.27Q24.42 11.26 21.99 11.26L22.04 11.32L21.96 11.24Q20.13 11.16 18.64 11.84L18.65 11.85L18.76 11.96Q17.68 12.82 17.76 14.65L17.67 14.56L17.63 14.52Q17.78 15.39 17.97 17.41L17.97 17.42L18.12 17.56Q18.64 20.10 18.91 20.94L18.90 20.93L18.97 21.00Q19.54 22.86 20.49 24.16L20.43 24.09L20.40 24.06Q20.61 24.36 20.99 24.74L21.01 24.75L21.11 24.85Q21.40 25.33 22.05 26.25L21.92 26.12L21.97 26.17Q23.45 27.54 25.39 27.73L25.41 27.75L25.34 27.68Q23.56 30.47 22.00 32.37L21.94 32.31L18.45 36.81L18.41 36.77Q20.55 35.90 22.18 35.56L22.27 35.65L22.18 35.56Q21.52 36.54 19.96 38.25L19.96 38.24L19.98 38.26Q23.06 37.34 26.18 37.31L26.15 37.28L26.17 37.30Q28.51 34.73 32.85 27.49L32.69 27.33L32.70 27.42L32.76 27.48Q32.96 26.69 33.30 26.20ZM27.36 17.02L27.44 17.10L27.33 16.99Q28.03 16.97 28.49 17.08L28.38 16.98L28.35 16.94Q29.17 17.23 29.55 17.34L29.44 17.24L29.51 17.31Q29.56 17.62 29.64 18.04L29.68 18.08L29.74 18.14Q29.70 18.44 29.58 18.82L29.71 18.95L29.58 18.82Q29.52 20.51 28.34 21.62L28.30 21.58L28.47 21.75Q27.47 22.73 25.84 22.69L25.73 22.58L25.85 22.70Q25.30 22.57 23.78 22.27L23.93 22.42L23.96 22.45Q23.63 21.48 23.63 20.75L23.73 20.85L23.73 20.85Q23.49 20.42 23.49 20.19L23.64 20.34L23.58 20.28Q23.54 18.03 25.82 17.23L25.87 17.28L25.94 17.35Q26.47 16.97 27.31 16.97Z"/><path fill="#333" d="M175.44 35.39L175.38 35.33L175.42 35.38Q172.46 31.50 169.84 22.86L169.76 22.78L169.81 22.83Q169.05 20.59 168.25 18.46L168.43 18.64L165.46 27.32L165.40 27.26Q163.74 32.34 161.34 35.57L161.22 35.45L161.26 35.49Q160.43 35.57 158.79 35.72L158.79 35.72L158.75 35.68Q158.83 34.47 158.83 33.21L159.00 33.38L158.96 33.34Q158.96 27.33 156.22 21.20L156.17 21.15L156.25 21.23Q153.05 14.26 147.19 9.28L147.10 9.19L147.19 9.28Q149.34 9.98 151.70 10.51L151.57 10.39L151.57 10.39Q160.26 18.84 161.55 29.80L161.74 29.99L161.64 29.89Q163.32 26.63 164.77 21.26L164.70 21.19L164.63 21.13Q166.62 13.63 167.12 12.23L167.27 12.38L169.48 12.34L169.38 12.24Q170.14 14.34 170.79 16.66L170.87 16.74L172.05 21.12L172.09 21.16Q173.60 26.55 175.01 29.79L174.94 29.72L174.94 29.72Q176.74 18.23 184.66 10.88L184.56 10.79L184.69 10.92Q186.12 10.48 189.08 9.83L189.14 9.89L189.00 9.74Q183.71 14.08 180.66 20.21L180.77 20.32L180.67 20.22Q177.66 26.53 177.66 33.31L177.69 33.34L177.62 33.27Q177.67 34.42 177.74 35.57L177.77 35.60L176.61 35.46L176.67 35.52Q176.01 35.39 175.44 35.39ZM181.62 38.22L181.71 38.31L181.68 38.28Q180.48 34.77 180.60 30.88L180.58 30.86L180.62 30.91Q180.81 19.22 190.17 10.96L190.22 11.00L190.27 11.05Q189.33 11.29 187.39 11.83L187.34 11.78L187.28 11.72Q188.39 11.03 190.29 9.25L190.17 9.12L190.12 9.07Q187.54 9.92 184.61 10.42L184.60 10.41L184.58 10.39Q177.10 17.53 175.20 27.01L175.14 26.95L175.20 27.01Q174.64 25.39 171.79 13.93L171.76 13.90L171.69 13.83Q171.27 13.91 170.32 13.91L170.44 14.02L170.03 12.85L170.18 13.01Q169.91 12.31 169.68 11.82L169.70 11.84L166.76 11.79L166.91 11.94Q166.05 14.36 164.78 19.48L164.84 19.54L164.76 19.46Q163.43 24.52 162.44 27.00L162.41 26.97L162.48 27.04Q160.86 19.10 155.30 12.79L155.30 12.78L155.42 12.90Q154.83 12.73 153.88 12.54L153.90 12.56L153.93 12.59Q153.25 11.79 151.69 10.16L151.69 10.16L151.72 10.19Q148.15 9.21 145.98 8.41L145.98 8.41L145.98 8.41Q151.82 13.26 155.09 19.46L155.07 19.44L155.09 19.46Q158.52 26.05 158.52 33.06L158.50 33.04L158.55 33.09Q158.48 34.57 158.29 36.17L158.36 36.24L158.27 36.15Q158.52 36.17 158.97 36.08L159.06 36.16L159.01 36.12Q159.52 36.08 159.75 36.08L159.73 36.05L159.73 37.08L159.74 37.10Q159.70 37.51 159.77 38.04L159.79 38.06L159.74 38.01Q160.88 37.92 163.16 37.77L163.22 37.83L163.16 37.77Q166.87 32.46 169.61 23.06L169.51 22.95L169.49 22.94Q172.38 31.84 175.35 35.80L175.22 35.67L175.26 35.71Q175.84 35.83 176.68 35.95L176.55 35.82L176.66 35.93Q177.36 36.82 178.43 37.89L178.59 38.05L178.42 37.88Q179.32 38.06 181.72 38.32Z"/><path fill="#222" d="M147.38 18.28L147.41 18.31L147.29 18.19Q145.64 14.18 139.44 14.37L139.51 14.45L139.43 14.36Q135.05 14.51 133.07 15.96L133.13 16.02L133.01 15.90Q130.62 17.66 130.62 21.77L130.62 21.78L130.77 23.79L130.60 23.62Q130.73 32.59 139.76 32.59L139.60 32.43L139.78 32.61Q141.79 32.56 143.27 31.76L143.30 31.78L143.31 31.80Q145.12 30.75 144.97 28.89L144.99 28.91L144.81 28.73Q144.65 26.66 140.95 25.75L141.03 25.82L139.17 25.91L139.02 25.76Q138.10 25.79 137.15 25.83L137.25 25.93L137.22 25.90Q137.26 24.99 137.23 23.09L137.06 22.92L137.13 22.99Q144.72 22.93 148.90 22.58L148.98 22.66L149.01 22.69Q148.88 23.43 148.88 24.23L148.99 24.34L148.85 24.21Q148.99 25.15 149.03 25.95L148.98 25.89L149.07 25.98Q147.87 25.89 147.87 25.89L147.83 25.85L147.85 25.87Q146.38 25.77 146.76 25.77L146.95 25.96L146.85 25.86Q147.96 27.50 148.34 29.48L148.39 29.53L148.26 29.40Q148.42 30.17 148.42 30.63L148.46 30.67L148.52 30.73Q148.41 35.26 139.61 35.26L139.68 35.32L139.72 35.36Q132.62 35.38 130.03 33.29L129.86 33.12L129.92 33.18Q127.96 30.84 127.96 25.78L128.04 25.85L128.02 25.84Q128.01 24.76 127.85 22.05L127.84 22.04L127.76 21.96Q127.73 19.72 127.77 18.35L127.74 18.32L127.66 18.24Q127.84 15.46 129.21 13.86L129.24 13.88L129.27 13.92Q131.81 11.85 136.68 11.66L136.55 11.53L139.30 11.54L139.27 11.50Q142.44 11.47 145.87 11.89L145.87 11.90L145.72 11.75Q149.61 12.36 150.56 15.60L150.41 15.45L150.56 15.59Q149.45 16.43 147.36 18.26ZM148.80 20.50L148.93 20.51L148.92 20.50Q150.09 19.39 151.96 17.41L151.90 17.35L151.98 17.43Q151.71 16.52 150.72 14.81L150.60 14.69L150.62 14.70Q149.43 12.03 145.62 11.38L145.59 11.35L145.67 11.43Q143.50 11.28 139.20 10.97L139.25 11.03L136.62 11.21L136.58 11.18Q131.37 11.34 128.79 13.32L128.81 13.34L128.82 13.35Q127.36 14.89 127.24 17.98L127.38 18.12L127.30 18.04Q127.38 17.66 127.61 23.14L127.67 23.21L127.58 23.11Q127.63 24.49 127.70 27.23L127.64 27.17L127.60 27.13Q127.94 31.74 129.70 33.68L129.66 33.64L129.52 33.50Q130.00 34.44 130.87 35.31L130.81 35.25L130.87 35.31Q133.83 37.24 139.35 37.59L139.37 37.61L142.22 37.75L142.19 37.72Q143.83 37.88 145.85 37.77L145.72 37.64L145.81 37.72Q147.15 37.54 149.24 37.00L149.34 37.11L149.30 37.07Q151.35 36.68 151.31 34.35L151.26 34.31L151.19 34.24Q151.31 33.10 150.25 30.32L150.25 30.32L150.24 30.31Q149.78 29.24 149.24 28.44L149.33 28.53L149.33 28.53Q149.89 28.52 151.07 28.71L151.02 28.66L151.04 28.68Q150.72 25.05 150.76 24.36L150.87 24.48L150.76 24.37Q150.53 24.51 150.11 24.48L150.01 24.38L149.96 24.32Q149.77 24.48 149.39 24.55L149.23 24.39L149.21 24.37Q149.28 23.34 149.36 22.27L149.33 22.25L149.36 22.28Q142.99 22.68 136.71 22.57L136.78 22.65L136.82 22.68Q136.83 23.56 136.83 24.48L136.74 24.39L136.86 26.26L136.84 26.24Q137.16 26.18 137.58 26.14L137.66 26.22L137.74 26.31Q137.98 26.13 138.44 26.13L138.60 26.29L138.42 26.11Q138.56 26.70 138.60 27.20L138.64 27.24L138.51 27.11Q138.65 27.71 138.61 28.20L138.48 28.07L138.51 28.10Q139.62 28.14 140.65 28.11L140.62 28.08L140.62 28.08Q141.71 28.14 142.74 28.18L142.73 28.17L142.65 28.09Q143.69 28.34 144.57 28.72L144.49 28.64L144.51 28.70L144.60 28.79Q144.83 30.39 143.16 31.31L143.01 31.15L143.08 31.22Q141.45 32.18 139.74 32.18L139.63 32.08L139.75 32.20Q135.78 32.07 133.34 30.32L133.36 30.34L133.51 30.49Q132.55 28.46 132.70 25.91L132.59 25.80L132.71 25.92Q132.99 21.10 134.84 19.10L134.74 19.01L134.81 19.07Q136.69 17.11 141.37 16.80L141.36 16.79L141.21 16.65Q145.02 16.57 146.96 18.36L146.97 18.36L146.95 18.35Q147.05 18.48 147.16 18.67L146.99 18.50L147.14 18.54L147.12 18.52Q147.75 19.26 148.32 20.37L148.36 20.40L148.79 20.49Z"/><path fill="#222" d="M51.07 24.62L51.08 24.63L51.19 24.74Q51.02 28.84 50.29 32.99L50.33 33.03L50.42 33.11Q52.57 32.44 55.65 32.33L55.71 32.38L55.62 32.29Q57.09 32.63 58.16 31.62L58.07 31.53L58.06 31.52Q59.23 30.62 59.23 29.29L59.26 29.31L59.08 29.13Q59.21 28.96 59.17 28.69L59.09 28.61L59.11 28.63Q59.03 25.77 56.78 24.93L56.79 24.94L56.76 24.91Q55.96 24.57 55.27 24.64L55.20 24.57L55.34 24.71Q54.18 24.53 53.15 24.57L53.16 24.58L53.26 24.69Q52.12 24.65 51.10 24.65ZM49.79 14.14L49.95 14.29L49.84 14.19Q50.79 17.57 51.06 21.95L51.03 21.92L51.01 21.90Q52.51 22.06 55.17 22.10L55.08 22.01L55.19 22.12Q57.99 22.02 58.33 18.48L58.36 18.51L58.43 18.59Q58.60 16.62 57.19 15.78L57.28 15.87L57.10 15.69Q56.31 15.29 51.90 14.64L51.93 14.68L51.93 14.67Q50.73 14.39 49.82 14.16ZM46.16 37.03L46.27 37.15L46.17 37.04Q48.65 30.39 48.38 23.00L48.33 22.95L48.42 23.04Q48.17 15.79 45.24 9.31L45.17 9.25L45.20 9.27Q49.00 11.82 55.22 12.07L55.18 12.02L55.24 12.08Q61.49 12.36 61.84 15.25L61.84 15.26L61.74 15.16Q62.16 18.02 60.75 20.68L60.62 20.55L60.74 20.67Q59.95 22.12 58.35 22.80L58.31 22.77L58.42 22.88Q61.98 23.47 62.21 28.83L62.30 28.93L62.29 28.92Q62.28 29.94 62.21 31.35L62.34 31.48L62.29 31.42Q62.21 32.72 61.27 33.65L61.24 33.61L61.23 33.61Q60.36 34.60 59.02 34.75L59.06 34.78L58.92 34.65Q57.60 34.89 56.53 34.89L56.53 34.89L56.45 34.80Q50.76 34.82 46.23 37.10ZM59.07 37.46L58.95 37.34L58.99 37.38Q59.92 37.44 61.79 37.55L61.88 37.64L61.91 37.67Q63.15 37.54 64.25 36.66L64.30 36.71L64.37 36.78Q65.18 35.88 65.07 34.32L64.95 34.21L65.07 34.32Q65.00 33.38 64.28 29.91L64.26 29.90L64.26 29.90Q63.47 26.56 61.60 25.07L61.59 25.06L61.26 24.31L61.27 24.32Q62.90 22.86 63.47 19.10L63.48 19.11L63.49 19.12Q63.66 17.99 63.58 16.58L63.58 16.58L63.48 16.48Q63.56 15.30 62.46 14.47L62.52 14.53L62.50 14.51Q62.19 14.31 62.08 14.28L61.99 14.19L61.99 14.19Q61.80 13.74 60.97 12.94L60.84 12.81L60.82 12.79Q59.38 11.81 55.16 11.62L55.11 11.58L55.12 11.58Q48.44 11.26 44.45 8.37L44.59 8.52L44.63 8.56Q47.91 15.56 48.21 23.10L48.12 23.01L48.04 22.93Q48.55 30.94 45.73 37.87L45.69 37.82L47.70 36.82L47.77 36.90Q47.28 37.93 46.79 39.07L46.91 39.19L46.85 39.13Q51.10 37.22 56.12 37.22L56.18 37.27L56.17 37.26Q57.52 37.20 58.97 37.36ZM56.82 26.80L56.86 26.84L56.94 26.92Q57.52 26.70 58.44 27.16L58.61 27.33L58.51 27.23Q58.62 27.56 58.77 28.63L58.72 28.58L58.80 28.66Q58.97 30.01 58.03 31.05L57.99 31.01L58.07 31.09Q57.02 32.03 55.62 31.91L55.75 32.05L54.30 32.19L54.16 32.05Q53.45 32.15 52.73 32.26L52.77 32.31L52.63 32.17Q53.11 30.51 53.19 27.05L53.20 27.06L53.09 26.95Q53.67 26.81 54.93 26.77L55.09 26.94L55.04 26.89Q56.28 26.83 56.89 26.87ZM55.85 17.26L55.89 17.30L56.17 17.20L56.17 17.20Q56.44 17.25 56.64 17.28L56.74 17.39L56.96 17.23L57.34 17.42L57.99 17.54L58.07 17.62Q58.10 17.80 58.10 18.10L58.12 18.12L57.99 18.53L58.06 18.60Q58.10 19.90 57.23 20.83L57.11 20.71L57.14 20.74Q56.31 21.72 55.09 21.72L55.02 21.65L55.13 21.76Q54.16 21.81 54.16 21.81L54.04 21.69L54.08 21.73Q52.66 21.61 53.00 21.61L53.02 21.63L53.15 21.75Q53.04 20.16 52.73 17.11L52.71 17.09L52.65 17.03Q54.24 17.18 55.77 17.18Z"/><path fill="#333" d="M84.20 15.15L84.13 15.09L84.19 15.15Q79.74 15.00 76.05 14.01L76.09 14.05L76.11 14.07Q77.59 18.60 77.78 23.43L77.79 23.44L77.78 23.43Q78.11 28.36 76.89 32.97L76.86 32.94L76.84 32.92Q79.67 32.33 83.18 32.18L83.09 32.09L83.19 32.19Q87.01 31.90 88.80 29.46L88.95 29.62L88.81 29.47Q90.36 27.44 90.55 23.33L90.65 23.43L90.54 23.32Q90.59 21.55 90.13 19.83L90.14 19.84L90.14 19.83Q88.97 15.20 84.25 15.20ZM72.34 37.22L72.32 37.20L72.23 37.10Q75.06 31.37 75.06 24.67L75.25 24.86L75.15 24.75Q75.22 16.30 70.92 9.30L70.88 9.26L70.85 9.23Q76.16 11.95 84.42 12.14L84.28 12.00L84.45 12.17Q93.19 12.23 93.53 19.39L93.57 19.42L93.51 19.36Q93.71 22.15 93.67 23.59L93.75 23.67L93.58 23.51Q93.48 28.16 92.64 30.33L92.82 30.51L92.68 30.37Q92.39 31.60 91.63 32.44L91.59 32.41L91.51 32.33Q90.14 33.84 87.51 34.34L87.57 34.40L87.64 34.47Q85.99 34.69 82.98 34.92L83.02 34.95L82.89 34.82Q76.87 35.39 72.26 37.14ZM90.14 36.97L90.22 37.05L90.14 36.97Q92.91 36.66 94.55 35.17L94.51 35.13L94.54 35.16Q95.76 33.42 95.72 30.68L95.75 30.71L95.71 30.66Q95.81 29.39 95.66 25.89L95.52 25.75L95.17 21.21L95.27 21.32Q95.08 19.03 94.13 16.94L94.17 16.98L94.13 16.94Q93.64 16.03 92.95 15.38L92.92 15.35L92.86 15.14L92.76 15.03Q91.21 12.23 86.79 11.85L86.82 11.88L86.84 11.89Q84.07 11.67 77.06 10.95L77.13 11.02L77.01 10.90Q73.83 10.54 70.14 8.52L70.07 8.45L70.15 8.53Q74.98 15.91 74.98 24.66L74.83 24.51L74.95 24.64Q74.89 31.58 71.54 37.74L71.54 37.75L71.62 37.83Q72.23 37.49 73.56 36.99L73.54 36.97L73.60 37.03Q73.23 37.84 72.36 39.33L72.37 39.34L72.45 39.41Q75.48 38.34 78.83 37.84L78.81 37.82L78.81 37.82Q80.77 37.39 84.43 37.27L84.55 37.39L84.56 37.41Q88.27 37.11 90.09 36.92ZM90.23 23.40L90.16 23.32L90.18 23.34Q89.90 31.44 83.20 31.82L83.19 31.80L83.18 31.80Q81.14 31.82 79.08 32.08L79.14 32.14L79.24 32.23Q79.81 28.24 79.81 24.59L79.80 24.57L79.93 24.71Q79.82 20.90 79.09 17.05L79.07 17.03L79.03 16.99Q81.29 17.35 85.98 17.35L86.00 17.38L86.15 17.53Q87.55 17.40 89.18 18.35L89.07 18.23L89.17 18.33Q90.32 20.48 90.17 23.33Z"/><path fill="#222" d="M107.51 25.71L107.50 25.70L107.51 25.71Q107.37 25.57 110.76 25.53L110.83 25.61L110.76 25.54Q113.01 25.50 114.08 25.54L114.14 25.60L114.18 25.64Q113.12 22.76 110.68 17.12L110.73 17.17L110.65 17.09Q110.06 18.47 109.01 21.33L109.10 21.42L108.96 21.28Q108.01 24.23 107.43 25.64ZM115.34 28.17L115.18 28.02L115.21 28.04Q112.93 28.01 110.72 28.05L110.77 28.09L110.70 28.02Q108.55 28.16 106.27 28.35L106.24 28.32L106.26 28.34Q104.77 31.81 101.54 36.00L101.59 36.04L101.54 36.00Q98.85 36.51 97.48 37.00L97.48 37.00L97.46 36.98Q102.72 31.47 107.40 18.11L107.29 17.99L107.33 18.04Q108.57 14.59 109.94 11.36L110.04 11.45L109.85 11.26Q110.34 11.45 110.68 11.45L110.55 11.31L111.44 11.48L111.41 11.45Q112.09 12.74 116.92 24.39L116.81 24.28L116.90 24.37Q120.28 32.32 124.28 36.47L124.23 36.42L124.19 36.38Q123.70 36.27 119.82 35.39L119.84 35.42L119.71 35.28Q117.33 32.33 115.35 28.18ZM119.68 35.68L119.81 35.80L120.21 35.71L120.33 35.83Q120.64 35.91 120.94 36.02L120.87 35.95L120.86 35.94Q121.22 36.34 123.05 38.36L123.12 38.43L122.97 38.28Q126.71 39.28 129.11 40.31L129.09 40.29L128.98 40.18Q123.49 35.64 119.49 27.64L119.64 27.80L119.48 27.63Q118.00 24.48 116.55 20.52L116.59 20.55L113.79 12.99L113.81 13.01Q113.45 13.00 113.22 13.00L113.29 13.07L112.64 12.95L112.82 13.13Q112.26 12.27 111.54 10.90L111.54 10.90L111.53 10.88Q111.17 11.06 110.72 11.02L110.62 10.93L110.68 10.98Q110.25 10.98 109.72 10.98L109.67 10.93L109.76 11.03Q108.28 14.87 104.40 25.04L104.34 24.98L104.32 24.96Q101.19 32.91 96.55 37.70L96.70 37.86L96.53 37.69Q97.66 37.37 99.68 36.76L99.61 36.69L99.71 36.79Q98.97 37.70 97.41 39.48L97.41 39.48L97.25 39.32Q99.07 38.78 102.99 38.02L103.05 38.08L103.00 38.03Q106.32 33.58 107.88 30.34L107.92 30.38L107.92 30.39Q109.76 30.36 112.09 30.40L112.01 30.33L112.12 30.43Q114.64 30.26 116.01 30.33L116.01 30.33L116.16 30.48Q117.36 32.78 119.72 35.71ZM112.01 21.04L111.95 20.98L111.99 21.02Q112.95 23.19 113.71 25.29L113.64 25.22L110.36 25.25L110.40 25.29Q110.87 23.74 111.94 20.96Z"/></svg>