<svg xmlns="http://www.w3.org/2000/svg" width="200" height="40" viewBox="0,0,200,40"><path fill="#444" d="M175.58 18.20L175.62 18.24L175.73 18.35Q174.02 14.28 167.82 14.47L167.83 14.48L167.66 14.31Q163.32 14.50 161.34 15.95L161.31 15.91L161.42 16.03Q159.00 17.76 159.00 21.87L159.04 21.91L159.04 23.77L158.96 23.69Q159.05 32.62 168.07 32.62L168.07 32.61L167.94 32.48Q170.04 32.53 171.53 31.73L171.50 31.70L171.54 31.74Q173.45 30.79 173.29 28.93L173.29 28.93L173.23 28.87Q172.99 26.72 169.29 25.80L169.24 25.75L167.32 25.77L167.27 25.73Q166.51 25.92 165.56 25.95L165.51 25.90L165.43 25.83Q165.49 24.93 165.45 23.03L165.42 23.00L165.52 23.10Q173.12 23.04 177.30 22.70L177.19 22.59L177.29 22.69Q177.22 23.49 177.22 24.29L177.15 24.22L177.20 24.27Q177.15 25.02 177.19 25.82L177.37 26.00L177.36 25.99Q176.13 25.86 176.13 25.86L176.21 25.94L176.25 25.99Q174.68 25.79 175.06 25.79L175.21 25.93L175.18 25.90Q176.24 27.50 176.62 29.48L176.71 29.56L176.61 29.46Q176.80 30.26 176.80 30.72L176.73 30.66L176.66 30.58Q176.72 35.29 167.93 35.29L168.03 35.39L167.86 35.22Q160.86 35.34 158.27 33.25L158.29 33.26L158.17 33.15Q156.19 30.78 156.19 25.72L156.35 25.88L156.28 25.81Q156.24 24.70 156.09 22.00L156.19 22.10L156.06 21.97Q155.96 19.66 156.00 18.29L156.05 18.34L156.02 18.31Q156.16 15.49 157.53 13.89L157.39 13.75L157.45 13.81Q160.00 11.75 164.87 11.56L164.92 11.61L167.51 11.45L167.50 11.45Q170.67 11.42 174.09 11.83L174.08 11.82L174.11 11.85Q177.86 12.33 178.81 15.56L178.88 15.64L178.79 15.55Q177.85 16.55 175.76 18.37ZM177.05 20.47L177.16 20.46L177.12 20.42Q178.40 19.41 180.26 17.43L180.23 17.40L180.18 17.36Q180.01 16.53 179.02 14.82L178.87 14.67L178.96 14.76Q177.70 12.02 173.90 11.37L173.92 11.40L173.97 11.45Q171.95 11.44 167.65 11.14L167.48 10.97L164.91 11.22L164.84 11.15Q159.67 11.35 157.09 13.33L157.06 13.30L157.03 13.28Q155.65 14.90 155.54 17.99L155.53 17.98L155.56 18.01Q155.58 17.57 155.80 23.05L155.94 23.19L155.94 23.19Q155.95 24.53 156.03 27.27L156.00 27.24L156.05 27.29Q156.22 31.73 157.97 33.67L157.87 33.56L157.93 33.63Q158.33 34.49 159.21 35.36L159.20 35.35L159.07 35.22Q162.12 37.25 167.64 37.59L167.56 37.51L170.47 37.71L170.52 37.76Q172.14 37.90 174.16 37.79L174.10 37.73L174.09 37.71Q175.57 37.67 177.66 37.14L177.60 37.08L177.69 37.17Q179.50 36.55 179.47 34.23L179.49 34.25L179.58 34.33Q179.47 32.97 178.40 30.19L178.37 30.16L178.36 30.15Q178.14 29.32 177.60 28.52L177.59 28.50L177.68 28.59Q178.22 28.56 179.40 28.75L179.43 28.78L179.34 28.69Q179.09 25.13 179.13 24.45L179.22 24.54L179.18 24.50Q178.77 24.47 178.35 24.43L178.32 24.39L178.43 24.51Q177.90 24.32 177.52 24.40L177.55 24.43L177.54 24.42Q177.61 23.38 177.69 22.32L177.65 22.28L177.74 22.37Q171.42 22.83 165.14 22.71L165.05 22.62L165.08 22.66Q165.17 23.62 165.17 24.54L165.08 24.45L165.13 26.25L165.20 26.31Q165.48 26.22 165.90 26.18L166.00 26.28L165.92 26.20Q166.39 26.25 166.85 26.25L166.86 26.26L166.85 26.26Q166.74 26.60 166.77 27.09L166.93 27.24L166.91 27.23Q166.83 27.60 166.79 28.10L166.74 28.05L166.80 28.11Q167.90 28.14 168.93 28.10L168.98 28.15L168.84 28.02Q169.84 27.98 170.87 28.02L170.94 28.10L170.90 28.06Q171.94 28.30 172.82 28.68L172.85 28.71L172.78 28.68L172.92 28.82Q173.08 30.35 171.40 31.26L171.27 31.13L171.45 31.31Q169.76 32.20 168.04 32.20L168.03 32.19L168.06 32.22Q164.09 32.10 161.65 30.35L161.78 30.47L161.68 30.37Q160.70 28.32 160.85 25.77L160.95 25.87L160.85 25.77Q161.30 21.12 163.14 19.12L163.15 19.13L162.95 18.93Q164.93 17.06 169.61 16.76L169.54 16.68L169.66 16.80Q173.22 16.48 175.16 18.27L175.15 18.26L175.20 18.31Q175.25 18.40 175.36 18.59L175.46 18.68L175.56 18.67L175.44 18.55Q176.16 19.39 176.73 20.49L176.60 20.36L177.01 20.42Z"/><path d="M9 28 C106 35,102 30,190 38" stroke="#999" fill="none"/><path d="M14 10 C89 8,99 33,197 29" stroke="#111" fill="none"/><path fill="#222" d="M27.03 35.15L27.03 35.16L24.89 35.30L24.96 35.37Q24.43 35.29 23.46 35.35L23.50 35.39L23.38 35.27Q22.59 35.51 22.09 35.51L21.95 35.36L22.02 35.43Q20.37 35.42 19.34 34.58L19.30 34.54L19.42 34.66Q20.07 33.41 21.71 31.27L21.70 31.27L21.74 31.31Q23.08 32.96 25.29 32.73L25.29 32.73L25.22 32.66Q26.09 32.49 26.73 31.85L26.80 31.91L26.90 32.01Q27.44 31.26 27.32 30.38L27.29 30.35L27.42 30.48Q27.19 25.76 27.27 21.19L27.25 21.18L27.33 21.26Q27.30 16.57 27.83 11.97L27.89 12.02L27.85 11.99Q29.76 11.77 31.89 10.74L32.04 10.89L31.88 10.73Q30.11 17.56 30.11 24.79L29.99 24.67L30.08 24.76Q30.03 28.25 30.48 31.75L30.52 31.79L30.51 31.78Q30.67 32.21 30.67 32.55L30.54 32.42L30.60 32.48Q30.52 32.97 30.30 33.51L30.36 33.57L30.31 33.52Q29.89 34.93 27.07 35.19ZM31.87 37.89L32.02 38.05L32.35 38.03L32.58 37.85L32.86 37.75L32.78 37.67Q33.07 37.39 33.15 37.27L33.21 37.33L33.28 37.40Q33.46 36.21 33.19 35.22L33.18 35.21L33.11 35.14Q31.88 29.45 32.14 23.10L32.10 23.05L32.12 23.07Q32.28 16.87 34.07 10.97L34.08 10.99L34.14 11.05Q33.19 11.62 31.94 12.34L31.90 12.31L31.86 12.27Q32.19 11.65 32.61 10.12L32.56 10.08L32.60 10.11Q30.12 11.48 27.45 11.78L27.32 11.65L27.39 11.72Q27.01 16.10 26.93 21.05L26.89 21.00L26.98 21.09Q26.79 26.88 26.87 30.31L27.02 30.46L26.88 30.31Q27.09 32.24 25.34 32.40L25.30 32.35L25.31 32.37Q23.52 32.40 21.85 30.77L21.86 30.78L21.79 30.71Q19.83 33.32 18.88 34.88L18.88 34.89L18.76 34.76Q19.49 35.49 20.52 35.72L20.52 35.72L20.58 35.78Q20.44 35.87 20.17 36.10L20.17 36.10L20.13 36.06Q21.64 37.07 23.62 37.34L23.56 37.28L23.58 37.30Q24.05 37.43 27.35 37.73L27.26 37.64L27.26 37.65Q30.58 37.98 31.95 37.98Z"/><path fill="#333" d="M53.75 24.28L53.64 24.17L53.66 24.19Q51.82 24.21 50.60 25.54L50.60 25.54L50.67 25.62Q49.32 26.81 49.17 28.72L49.14 28.69L49.12 28.67Q49.05 30.93 50.27 31.94L50.32 31.99L50.33 32.00Q51.52 32.98 53.66 32.90L53.59 32.83L53.61 32.85Q55.92 32.69 56.87 31.74L56.78 31.64L56.89 31.76Q57.83 30.22 57.71 28.39L57.68 28.36L57.68 28.36Q57.58 26.51 56.49 25.31L56.63 25.44L56.56 25.38Q55.43 24.13 53.61 24.13ZM53.66 14.79L53.56 14.68L53.64 14.76Q52.25 14.67 50.92 15.17L50.81 15.06L50.89 15.13Q49.62 15.96 49.85 17.83L49.89 17.87L49.80 17.78Q50.33 21.55 53.68 21.55L53.67 21.54L53.72 21.58Q55.29 21.79 56.28 20.64L56.18 20.54L56.15 20.51Q57.27 19.50 57.31 17.94L57.32 17.95L57.18 17.81Q57.33 16.14 56.61 15.53L56.60 15.52L56.63 15.55Q54.92 14.67 53.62 14.75ZM53.33 35.28L53.43 35.38L50.26 35.25L50.23 35.22Q48.82 35.33 47.48 34.46L47.46 34.44L47.42 34.39Q46.01 33.21 46.16 30.36L46.24 30.44L46.19 30.39Q46.77 23.65 50.38 22.66L50.27 22.54L50.24 22.52Q47.97 21.62 46.64 16.25L46.77 16.39L46.60 16.21Q46.42 14.97 46.50 14.17L46.40 14.07L46.51 14.18Q46.80 12.04 50.49 12.00L50.46 11.96L50.42 11.93Q54.70 11.91 56.15 12.10L56.09 12.04L56.02 11.97Q59.96 12.59 60.41 14.61L60.37 14.57L60.41 14.61Q60.49 15.18 60.49 15.56L60.52 15.59L60.55 15.63Q60.46 16.21 60.27 16.82L60.22 16.78L60.32 16.87Q59.66 21.05 56.73 22.57L56.72 22.57L56.72 22.57Q60.30 23.44 60.79 28.73L60.83 28.77L60.73 28.67Q60.81 28.91 60.85 30.20L60.88 30.23L60.83 30.17Q60.91 32.92 59.31 33.99L59.26 33.94L59.29 33.97Q57.93 34.85 53.36 35.31ZM55.67 37.65L55.58 37.57L58.96 37.68L59.07 37.78Q60.73 37.81 62.25 37.08L62.16 36.99L62.27 37.10Q63.43 36.40 63.51 34.53L63.35 34.37L63.42 34.45Q63.39 33.27 63.01 31.33L63.17 31.49L63.04 31.36Q62.22 26.81 60.13 24.94L60.14 24.96L59.96 24.59L59.73 24.28L59.58 24.02L59.62 24.06Q61.14 22.57 62.05 18.42L62.07 18.44L62.04 18.41Q62.04 18.03 62.12 17.19L62.22 17.29L62.09 17.16Q62.24 16.55 62.16 15.94L62.09 15.87L62.13 15.91Q62.06 14.55 60.88 14.05L60.81 13.98L60.97 14.10L60.63 13.83L60.75 13.95Q60.50 13.25 59.32 12.45L59.31 12.44L59.32 12.41L59.23 12.32Q57.25 11.64 53.18 11.45L53.18 11.45L53.29 11.56Q51.73 11.45 50.36 11.57L50.30 11.50L50.33 11.53Q49.44 11.48 48.15 11.64L48.31 11.79L48.25 11.74Q46.32 12.13 46.09 13.76L46.11 13.78L45.96 13.63Q46.01 14.22 46.05 15.02L46.01 14.97L46.04 15.01Q46.19 15.58 46.76 17.94L46.79 17.96L46.72 17.90Q47.60 21.21 49.35 22.54L49.32 22.51L49.39 22.59L49.44 22.63Q46.68 23.94 46.14 29.12L45.95 28.93L46.05 29.03Q45.94 31.32 45.94 32.23L45.81 32.10L45.84 32.13Q45.89 33.90 47.07 34.81L47.18 34.92L47.14 34.88Q47.22 34.92 47.49 35.11L47.52 35.14L47.57 35.19Q48.61 37.49 55.73 37.72ZM55.25 26.50L55.37 26.62L55.31 26.56Q56.30 26.56 57.17 27.02L57.06 26.90L57.17 27.01Q57.42 27.87 57.38 28.40L57.37 28.39L57.45 28.47Q57.44 28.73 57.44 29.03L57.47 29.06L57.40 28.99Q57.39 31.35 55.11 32.18L55.28 32.35L55.19 32.27Q54.37 32.55 53.57 32.44L53.57 32.43L53.67 32.53Q52.46 32.55 51.32 32.09L51.38 32.15L51.41 32.18Q51.06 31.44 51.13 30.45L51.06 30.39L51.06 30.39Q51.23 28.80 52.43 27.59L52.44 27.59L52.41 27.56Q53.66 26.40 55.26 26.51ZM55.45 16.99L55.62 17.16L55.57 17.11Q56.37 17.00 56.91 17.16L56.85 17.10L56.85 17.90L56.88 17.93Q56.80 19.26 55.89 20.27L56.03 20.41L55.94 20.33Q55.00 21.30 53.63 21.11L53.75 21.23L53.58 21.06Q52.75 21.22 52.33 20.99L52.21 20.87L52.25 20.91Q52.29 20.72 52.17 20.04L52.15 20.01L52.06 19.92Q51.84 18.56 53.06 17.72L53.14 17.80L53.14 17.81Q54.17 17.09 55.58 17.12Z"/><path fill="#222" d="M84.11 15.06L84.21 15.17L84.11 15.07Q79.87 15.13 76.18 14.14L76.10 14.06L76.16 14.12Q77.67 18.68 77.86 23.51L77.89 23.54L77.95 23.60Q78.11 28.37 76.89 32.97L76.86 32.94L76.85 32.93Q79.69 32.35 83.19 32.19L83.08 32.08L83.13 32.13Q87.11 32.00 88.90 29.57L88.93 29.59L88.90 29.56Q90.39 27.48 90.58 23.37L90.54 23.32L90.57 23.35Q90.67 21.63 90.21 19.91L90.20 19.90L90.12 19.82Q88.88 15.11 84.16 15.11ZM72.31 37.19L72.35 37.23L72.29 37.16Q75.07 31.38 75.07 24.68L75.17 24.78L75.14 24.75Q75.19 16.27 70.89 9.27L70.87 9.25L70.90 9.28Q76.14 11.93 84.40 12.12L84.27 11.99L84.30 12.02Q93.33 12.37 93.67 19.53L93.50 19.35L93.49 19.34Q93.69 22.13 93.65 23.57L93.65 23.58L93.65 23.58Q93.49 28.18 92.66 30.35L92.79 30.48L92.77 30.47Q92.26 31.47 91.49 32.31L91.57 32.39L91.55 32.37Q90.22 33.93 87.60 34.43L87.65 34.48L87.61 34.44Q85.92 34.61 82.91 34.84L83.09 35.02L82.97 34.90Q76.88 35.40 72.28 37.15ZM90.17 37.00L90.24 37.07L90.24 37.07Q92.87 36.62 94.51 35.13L94.62 35.25L94.64 35.26Q95.77 33.43 95.74 30.69L95.79 30.74L95.65 30.61Q95.75 29.33 95.59 25.83L95.65 25.88L95.16 21.21L95.26 21.30Q95.01 18.96 94.06 16.87L94.00 16.81L94.01 16.81Q93.49 15.88 92.80 15.23L92.85 15.27L92.92 15.19L92.78 15.05Q91.21 12.23 86.80 11.85L86.81 11.86L86.77 11.82Q84.10 11.71 77.10 10.99L77.10 10.99L77.08 10.97Q73.81 10.51 70.11 8.49L70.08 8.46L70.13 8.51Q75.00 15.93 75.00 24.69L75.01 24.70L74.95 24.64Q74.96 31.65 71.61 37.82L71.65 37.86L71.62 37.82Q72.18 37.44 73.51 36.94L73.56 36.99L73.51 36.94Q73.21 37.82 72.34 39.31L72.36 39.33L72.38 39.35Q75.45 38.31 78.80 37.81L78.81 37.83L78.79 37.81Q80.83 37.44 84.48 37.33L84.47 37.32L84.44 37.29Q88.32 37.17 90.15 36.98ZM90.20 23.37L90.18 23.34L90.26 23.43Q89.89 31.43 83.19 31.81L83.12 31.74L83.17 31.79Q81.24 31.92 79.18 32.18L79.05 32.05L79.17 32.16Q79.97 28.40 79.97 24.74L79.79 24.57L79.84 24.61Q79.85 20.93 79.12 17.08L79.07 17.03L79.18 17.14Q81.32 17.37 86.00 17.37L86.02 17.39L85.99 17.36Q87.37 17.22 89.01 18.18L89.15 18.32L89.02 18.19Q90.28 20.44 90.13 23.29Z"/><path fill="#222" d="M107.73 24.71L107.61 24.60L107.73 24.72Q107.60 28.85 106.88 33.00L106.86 32.98L107.01 33.14Q109.23 32.53 112.31 32.41L112.20 32.31L112.26 32.36Q113.53 32.49 114.60 31.49L114.68 31.57L114.69 31.58Q115.70 30.51 115.70 29.18L115.83 29.31L115.65 29.13Q115.64 28.82 115.60 28.55L115.71 28.65L115.77 28.72Q115.59 25.76 113.34 24.92L113.38 24.96L113.27 24.85Q112.55 24.58 111.86 24.66L111.85 24.65L111.93 24.73Q110.74 24.53 109.71 24.57L109.74 24.59L109.75 24.60Q108.64 24.60 107.61 24.60ZM106.51 14.28L106.43 14.20L106.45 14.22Q107.27 17.48 107.54 21.86L107.61 21.93L107.66 21.97Q108.96 21.95 111.63 21.99L111.69 22.05L111.63 21.99Q114.65 22.11 114.99 18.57L115.04 18.62L115.02 18.60Q115.07 16.52 113.66 15.68L113.67 15.69L113.85 15.87Q112.94 15.34 108.52 14.69L108.41 14.58L108.44 14.61Q107.39 14.47 106.47 14.25ZM102.70 37.01L102.75 37.06L102.70 37.01Q105.33 30.50 105.06 23.11L105.05 23.10L104.96 23.01Q104.69 15.73 101.76 9.26L101.76 9.26L101.72 9.23Q105.47 11.72 111.69 11.97L111.84 12.11L111.85 12.12Q118.10 12.39 118.44 15.29L118.43 15.27L118.44 15.28Q118.71 17.99 117.30 20.65L117.22 20.57L117.39 20.75Q116.51 22.11 114.91 22.80L114.90 22.79L114.94 22.82Q118.65 23.57 118.88 28.93L118.76 28.81L118.91 28.96Q118.87 29.95 118.79 31.36L118.79 31.35L118.87 31.44Q118.74 32.68 117.81 33.61L117.89 33.69L117.76 33.56Q116.95 34.62 115.62 34.77L115.58 34.74L115.56 34.72Q114.20 34.91 113.13 34.91L113.02 34.80L113.10 34.88Q107.33 34.82 102.80 37.10ZM115.49 37.31L115.67 37.49L115.58 37.40Q116.50 37.45 118.37 37.56L118.43 37.63L118.43 37.62Q119.81 37.63 120.92 36.76L120.92 36.76L120.97 36.81Q121.61 35.74 121.50 34.18L121.67 34.35L121.56 34.25Q121.59 33.39 120.86 29.93L120.70 29.77L120.78 29.85Q120.21 26.72 118.34 25.24L118.24 25.14L117.89 24.36L117.88 24.35Q119.49 22.88 120.06 19.11L120.05 19.10L120.09 19.14Q120.31 18.06 120.23 16.66L120.09 16.52L120.14 16.57Q120.07 15.24 118.96 14.40L118.97 14.41L119.10 14.54Q118.68 14.23 118.56 14.19L118.58 14.21L118.58 14.21Q118.28 13.64 117.44 12.84L117.49 12.89L117.54 12.93Q115.91 11.76 111.68 11.57L111.82 11.71L111.81 11.70Q105.15 11.40 101.16 8.51L101.13 8.48L101.18 8.54Q104.47 15.55 104.77 23.09L104.63 22.95L104.61 22.92Q105.00 30.81 102.18 37.74L102.16 37.72L104.32 36.88L104.21 36.77Q103.93 38.01 103.43 39.15L103.42 39.13L103.40 39.11Q107.70 37.24 112.72 37.24L112.69 37.21L112.76 37.28Q114.04 37.15 115.48 37.30ZM113.49 26.89L113.45 26.86L113.52 26.92Q114.14 26.75 115.06 27.21L115.05 27.20L115.02 27.17Q115.25 27.63 115.40 28.69L115.39 28.68L115.37 28.67Q115.51 29.98 114.58 31.03L114.57 31.02L114.64 31.09Q113.66 32.09 112.25 31.97L112.22 31.95L110.70 32.02L110.84 32.17Q109.93 32.06 109.21 32.17L109.23 32.19L109.22 32.18Q109.59 30.42 109.67 26.96L109.68 26.97L109.63 26.92Q110.37 26.93 111.62 26.89L111.57 26.84L111.51 26.78Q112.76 26.73 113.36 26.77ZM112.34 17.18L112.47 17.31L112.71 17.17L112.87 17.33Q113.08 17.31 113.27 17.35L113.23 17.30L113.68 17.38L113.99 17.50L114.49 17.47L114.47 17.44Q114.63 17.76 114.63 18.06L114.62 18.05L114.56 18.53L114.59 18.55Q114.70 19.92 113.82 20.85L113.74 20.77L113.66 20.69Q112.81 21.65 111.60 21.65L111.64 21.70L111.60 21.66Q110.60 21.68 110.60 21.68L110.58 21.66L110.58 21.67Q109.30 21.68 109.64 21.68L109.64 21.67L109.61 21.64Q109.54 20.09 109.24 17.04L109.38 17.19L109.28 17.09Q110.96 17.32 112.48 17.32Z"/><path fill="#111" d="M141.03 27.24L131.77 17.21L131.65 17.09Q132.60 20.90 132.60 24.63L132.51 24.54L132.61 24.64Q132.50 30.50 130.44 36.06L130.55 36.17L130.41 36.03Q129.37 36.32 127.12 37.08L127.13 37.09L127.13 37.09Q129.94 31.30 129.94 24.60L129.94 24.59L129.99 24.65Q130.01 16.02 125.52 8.60L125.57 8.66L125.52 8.61Q125.96 8.78 126.65 9.20L126.57 9.12L126.53 9.08Q138.62 20.29 146.46 29.54L146.63 29.71L146.51 29.59Q146.30 27.25 146.30 24.82L146.30 24.81L146.24 24.76Q146.16 17.44 148.67 11.23L148.80 11.36L148.78 11.34Q151.16 10.87 152.76 10.18L152.70 10.12L152.65 10.07Q149.35 16.25 149.05 23.41L149.16 23.52L148.98 23.34Q148.72 30.74 151.69 36.91L151.66 36.87L151.64 36.85Q151.09 36.80 150.67 36.61L150.75 36.68L150.69 36.63Q146.22 32.76 141.00 27.20L140.93 27.13ZM154.41 40.20L154.38 40.17L154.33 40.12Q154.86 40.34 155.28 40.53L155.29 40.54L156.07 40.82L156.11 40.87Q150.89 33.86 150.89 24.49L150.85 24.45L150.97 24.57Q150.98 17.35 154.29 11.11L154.20 11.02L154.21 11.02Q153.54 11.23 152.13 11.84L152.24 11.95L152.09 11.80Q152.59 11.08 153.43 9.52L153.46 9.55L153.34 9.43Q150.84 10.28 148.40 10.85L148.58 11.02L148.59 11.04Q145.85 17.40 145.85 24.82L145.84 24.81L145.90 24.87Q145.88 26.72 146.07 28.70L145.97 28.59L145.98 28.61Q141.38 22.98 136.63 18.38L136.63 18.38L126.66 8.79L126.60 8.73Q125.98 8.37 124.76 7.80L124.81 7.85L124.76 7.81Q129.63 15.53 129.63 24.62L129.67 24.67L129.64 24.64Q129.72 31.84 126.64 37.86L126.62 37.84L126.55 37.77Q126.77 37.57 128.41 36.96L128.44 36.99L128.47 37.02Q128.18 37.84 127.34 39.32L127.43 39.41L127.28 39.26Q128.69 38.80 132.15 38.00L132.11 37.96L132.07 37.92Q134.58 31.98 134.58 24.78L134.50 24.70L134.51 24.71Q134.47 22.58 134.24 20.45L134.24 20.44L134.18 20.39Q145.65 33.19 154.26 40.04Z"/></svg>