<svg xmlns="http://www.w3.org/2000/svg" width="200" height="40" viewBox="0,0,200,40"><path d="M17 27 C92 22,101 37,188 29" stroke="#888" fill="none"/><path fill="#111" d="M61.55 32.87L61.48 32.81L61.63 32.96Q61.88 33.89 62.41 35.91L62.42 35.92L62.49 35.99Q58.16 34.55 53.56 34.82L53.55 34.82L53.66 34.92Q49.11 35.20 45.11 37.18L45.01 37.08L45.08 37.16Q45.28 36.44 45.32 36.52L45.20 36.40L45.22 36.42Q48.95 32.46 52.87 28.04L52.85 28.02L52.85 28.02Q57.36 23.13 58.54 18.45L58.53 18.44L58.53 18.43Q58.92 16.62 57.65 15.44L57.72 15.52L57.78 15.58Q56.45 14.34 54.66 14.49L54.62 14.45L54.70 14.53Q54.23 14.36 53.88 14.36L53.93 14.41L53.98 14.46Q52.51 14.51 51.25 15.42L51.24 15.41L51.24 15.41Q49.83 16.66 50.06 19.33L50.18 19.45L50.18 19.45Q48.26 18.97 47.04 18.52L47.07 18.55L47.05 18.53Q47.01 17.27 46.93 15.82L46.89 15.79L46.80 15.69Q46.77 14.10 47.38 12.96L47.42 13.00L47.37 12.95Q49.17 11.59 52.52 11.59L52.42 11.49L54.33 11.65L54.36 11.68Q56.49 11.57 57.45 11.68L57.52 11.75L57.58 11.81Q61.89 12.20 62.16 14.64L62.20 14.68L62.18 14.67Q62.21 15.18 62.13 15.98L62.08 15.94L62.20 16.06Q62.07 16.61 61.92 17.30L61.91 17.29L61.96 17.34Q60.31 25.44 52.74 32.29L52.66 32.21L52.70 32.25Q54.19 32.18 55.56 32.18L55.58 32.20L55.49 32.11Q58.63 32.02 61.49 32.82ZM61.04 12.11L61.02 12.09L60.98 12.05Q59.50 11.53 57.79 11.45L57.60 11.27L54.36 11.26L54.24 11.14Q49.72 10.80 47.51 11.91L47.58 11.98L47.52 11.92Q46.60 13.44 46.60 15.49L46.62 15.51L46.58 15.47Q46.56 16.14 46.87 18.95L46.82 18.91L46.83 18.92Q47.43 19.22 48.61 19.52L48.61 19.52L48.52 20.46L48.66 20.60Q48.56 20.99 48.63 21.52L48.71 21.59L48.57 21.46Q49.85 21.60 52.33 21.83L52.35 21.85L52.41 21.92Q52.35 21.51 52.35 21.17L52.28 21.09L52.32 21.14Q52.33 19.32 53.55 17.97L53.60 18.02L53.55 17.97Q54.84 16.68 56.62 16.80L56.64 16.81L56.56 16.74Q57.29 16.74 58.05 16.89L58.15 16.99L58.07 16.91Q58.17 17.28 58.25 17.70L58.31 17.76L58.28 17.73Q58.30 18.13 58.22 18.47L58.20 18.45L58.14 18.39Q56.91 23.17 52.49 28.01L52.62 28.14L52.59 28.11Q50.44 30.33 44.99 36.38L45.05 36.44L45.02 36.41Q44.89 37.30 44.54 37.88L44.43 37.77L44.40 37.73Q46.05 36.90 47.57 36.37L47.59 36.40L47.62 36.43Q46.94 37.04 45.99 38.52L45.95 38.48L45.85 38.38Q45.75 38.74 45.64 39.08L45.73 39.18L45.72 39.17Q50.54 37.06 56.02 37.25L56.02 37.25L55.94 37.17Q61.75 37.46 66.32 39.82L66.31 39.80L65.34 37.69L65.17 37.53Q64.66 36.33 64.40 35.53L64.44 35.57L64.39 35.53Q63.61 35.06 62.40 34.64L62.41 34.65L62.48 34.73Q62.19 33.86 61.81 32.49L61.82 32.50L61.81 32.49Q59.75 32.07 57.47 31.88L57.45 31.87L57.36 31.77Q62.08 27.24 63.60 18.98L63.61 18.98L63.69 15.99L63.76 16.06Q63.74 14.32 62.52 13.63L62.59 13.70L62.41 13.56L62.51 13.66Q62.32 13.44 62.25 13.44L62.24 13.43L62.27 13.46Q62.14 12.72 61.04 12.11Z"/><path d="M6 3 C100 36,109 9,183 1" stroke="#888" fill="none"/><path fill="#333" d="M109.88 35.14L109.89 35.15L109.92 35.18Q106.57 35.41 104.93 34.88L104.77 34.71L104.87 34.82Q102.96 34.24 102.66 30.85L102.63 30.82L104.05 29.73L104.08 29.77Q104.75 29.17 105.51 28.68L105.52 28.69L105.50 28.67Q105.27 30.61 106.87 31.83L106.89 31.85L106.90 31.86Q108.10 32.79 110.23 32.60L110.31 32.68L110.19 32.56Q114.74 32.32 114.55 28.78L114.45 28.68L114.36 28.59Q114.28 26.41 111.65 25.19L111.74 25.28L111.73 25.27Q108.80 24.12 106.44 22.91L106.44 22.91L106.51 22.98Q103.96 21.65 102.97 16.96L102.91 16.90L102.96 16.95Q102.90 16.55 102.78 15.79L102.73 15.74L102.71 15.72Q102.62 14.94 102.69 14.37L102.75 14.42L102.68 14.36Q102.93 12.85 104.19 12.40L104.02 12.23L104.07 12.28Q106.54 11.48 110.54 11.67L110.53 11.66L110.57 11.70Q112.29 11.70 113.09 11.78L113.14 11.84L113.06 11.75Q114.53 11.93 115.60 12.38L115.76 12.54L115.74 12.53Q117.86 13.01 118.09 15.48L117.93 15.32L117.99 15.39Q116.92 16.07 114.71 17.40L114.74 17.43L114.81 17.50Q114.36 14.46 109.98 14.46L110.02 14.49L109.94 14.42Q107.99 14.38 107.00 15.06L107.06 15.12L107.14 15.20Q105.99 15.72 106.21 17.51L106.13 17.42L106.03 17.33Q106.37 19.60 109.34 21.12L109.29 21.08L109.27 21.06Q109.80 21.28 114.29 22.92L114.41 23.03L114.37 22.99Q117.01 24.49 117.43 28.87L117.41 28.85L117.44 28.89Q117.41 29.00 117.48 30.26L117.47 30.25L117.46 30.24Q117.54 33.02 115.98 34.13L116.12 34.26L116.06 34.20Q114.22 35.18 110.03 35.30ZM112.29 37.63L112.34 37.68L112.25 37.59Q113.81 37.78 115.79 37.78L115.74 37.73L115.78 37.77Q117.78 37.68 119.04 37.26L119.16 37.38L119.14 37.36Q120.21 36.37 120.13 34.58L120.11 34.56L120.19 34.64Q120.07 33.57 119.69 31.51L119.80 31.62L119.69 31.51Q118.81 26.87 116.72 25.00L116.72 25.00L116.85 25.13Q115.95 23.44 114.62 22.72L114.76 22.86L109.36 20.69L109.39 20.72Q109.09 20.58 108.64 20.35L108.53 20.24L108.52 19.96L108.54 19.64L108.36 19.46Q108.35 18.20 109.50 17.59L109.44 17.54L109.48 17.58Q110.29 17.05 112.01 16.86L111.93 16.78L111.82 16.68Q113.04 16.64 114.18 17.10L114.15 17.07L114.10 17.01Q114.26 17.22 114.45 18.06L114.40 18.00L114.53 18.13Q114.73 17.99 115.23 17.76L115.14 17.67L115.13 17.67Q115.81 18.53 115.92 19.67L115.89 19.64L115.94 19.69Q115.96 19.60 119.61 17.01L119.79 17.19L119.75 17.15Q119.37 14.40 117.92 13.72L118.07 13.87L118.05 13.85Q117.46 12.57 116.01 12.04L115.96 11.99L115.88 11.91Q113.76 11.27 110.57 11.27L110.59 11.30L110.57 11.28Q105.57 11.19 103.70 11.87L103.80 11.97L103.77 11.94Q102.39 12.35 102.28 14.03L102.35 14.10L102.25 14.00Q102.18 14.50 102.60 16.71L102.73 16.84L102.65 16.76Q103.35 20.55 105.52 22.79L105.51 22.78L105.51 22.78Q106.40 24.58 107.90 25.27L107.80 25.16L107.83 25.20Q109.28 25.83 113.20 27.39L113.16 27.34L113.14 27.37L113.98 27.90L113.86 27.81L113.87 27.83Q114.06 28.28 114.10 28.62L114.03 28.55L114.06 28.59Q114.21 32.12 110.29 32.27L110.32 32.30L110.31 32.30Q109.09 32.26 107.80 31.88L107.79 31.88L107.71 31.80Q107.55 31.14 107.55 30.42L107.57 30.44L107.47 30.34Q107.54 30.14 107.58 29.88L107.50 29.80L107.57 29.86Q107.18 30.12 106.38 30.62L106.23 30.47L106.41 30.64Q105.75 29.38 105.91 28.01L105.93 28.03L106.04 28.14Q103.80 29.18 102.20 30.59L102.26 30.65L102.29 30.67Q102.34 31.49 102.42 32.52L102.32 32.42L102.42 32.52Q102.80 34.31 104.09 35.07L104.09 35.06L104.11 35.08Q105.32 36.91 107.87 37.29L107.87 37.29L107.80 37.21Q109.36 37.45 112.30 37.64Z"/><path fill="#222" d="M92.58 18.05L92.64 18.11L92.59 18.06Q90.73 20.73 88.06 26.37L88.06 26.36L86.19 30.73L86.13 30.68Q85.22 32.54 83.88 34.79L83.81 34.72L83.95 34.85Q84.30 34.75 82.63 34.79L82.72 34.88L82.66 34.82Q82.70 34.86 81.44 34.86L81.41 34.83L81.38 34.79Q80.66 33.31 77.73 26.16L77.76 26.19L77.75 26.18Q75.57 20.81 73.48 17.80L73.56 17.87L73.57 17.88Q74.18 20.82 74.18 23.98L74.25 24.05L74.21 24.01Q74.20 30.50 71.23 36.06L71.37 36.20L71.30 36.14Q69.99 36.50 67.63 37.22L67.69 37.28L67.65 37.25Q71.40 31.63 71.40 24.40L71.34 24.34L71.35 24.34Q71.39 15.44 65.99 8.48L65.82 8.31L65.86 8.35Q67.53 9.10 69.89 9.79L69.89 9.80L69.98 9.88Q76.98 16.57 83.07 29.90L83.04 29.87L82.93 29.76Q86.46 22.79 88.67 19.28L88.74 19.35L88.65 19.26Q92.41 13.65 96.37 10.19L96.29 10.11L96.30 10.12Q97.60 9.94 99.96 9.18L99.83 9.04L99.97 9.19Q94.84 15.67 94.84 24.28L94.87 24.31L94.90 24.33Q94.82 30.92 98.25 36.44L98.29 36.47L98.36 36.55Q97.08 36.29 94.34 35.68L94.20 35.55L94.35 35.70Q91.92 30.84 91.92 24.86L91.87 24.80L91.81 24.74Q91.91 21.41 92.59 18.06ZM94.12 36.04L94.05 35.97L94.07 35.99Q94.72 36.07 96.17 36.34L96.25 36.41L96.27 36.44Q96.69 37.16 97.64 38.65L97.60 38.61L97.62 38.63Q99.65 38.94 103.11 40.16L103.25 40.30L103.23 40.27Q96.98 33.95 96.98 24.13L96.86 24.01L96.83 23.98Q96.95 16.37 101.33 10.24L101.29 10.20L99.17 10.98L99.16 10.96Q100.05 9.30 100.69 8.43L100.79 8.53L100.83 8.57Q98.95 9.19 96.32 9.73L96.22 9.63L96.19 9.59Q89.55 15.82 83.49 28.42L83.43 28.36L83.44 28.36Q78.24 17.38 73.29 12.13L73.36 12.19L73.33 12.16Q73.00 12.14 72.43 12.03L72.41 12.01L71.15 10.68L71.20 10.72Q70.66 10.10 69.97 9.49L69.80 9.32L69.96 9.48Q66.76 8.33 64.97 7.61L65.03 7.67L65.04 7.68Q71.10 14.96 71.10 24.36L70.99 24.25L71.12 24.38Q71.13 32.01 66.98 37.87L66.98 37.87L66.93 37.82Q67.62 37.60 68.91 37.18L68.96 37.22L68.89 37.15Q68.72 37.36 67.31 39.46L67.27 39.41L67.36 39.50Q69.06 38.92 72.56 38.16L72.55 38.15L72.69 38.28Q76.39 31.22 76.20 23.45L76.10 23.35L76.26 23.51Q77.64 27.36 81.10 35.24L81.18 35.32L81.18 35.32Q81.35 35.18 81.58 35.18L81.64 35.24L82.16 35.24L82.21 35.29Q82.63 35.93 83.43 37.22L83.36 37.16L83.49 37.29Q85.08 37.24 85.08 37.24L84.97 37.13L84.95 37.11Q86.05 37.19 86.70 37.26L86.74 37.31L86.65 37.21Q88.27 33.23 91.62 25.24L91.60 25.22L91.52 25.14Q91.46 30.64 94.05 35.97Z"/><path fill="#111" d="M165.70 34.89L165.73 34.91L165.65 34.83Q161.63 34.43 159.80 32.98L159.78 32.97L159.71 32.89Q157.80 31.36 157.38 28.35L157.57 28.55L157.54 28.52Q157.34 27.97 157.00 23.22L157.19 23.41L157.11 23.32Q157.18 22.18 157.10 20.92L157.13 20.95L157.06 20.88Q156.91 15.86 159.12 14.11L159.19 14.17L159.03 14.02Q161.71 11.94 169.48 11.25L169.49 11.27L169.44 11.22Q170.80 11.09 172.43 11.13L172.44 11.14L172.50 11.19Q172.43 11.13 175.40 11.13L175.57 11.29L175.41 11.14Q176.29 11.18 178.00 11.33L177.94 11.27L178.10 11.43Q177.49 12.26 176.46 15.35L176.54 15.43L176.51 15.40Q174.49 14.25 171.48 14.25L171.39 14.16L171.44 14.21Q170.73 14.26 169.94 14.34L169.86 14.27L169.78 14.18Q164.81 14.77 162.29 16.75L162.19 16.64L162.25 16.70Q160.25 18.32 160.10 21.67L159.97 21.54L160.01 21.58Q160.05 22.27 160.09 23.53L160.04 23.48L160.04 23.48Q160.18 28.34 162.58 30.43L162.61 30.46L162.53 30.38Q164.74 32.36 169.73 32.67L169.77 32.71L169.70 32.65Q172.91 32.88 175.91 31.09L175.95 31.13L175.85 31.03Q176.43 33.74 177.04 35.11L177.06 35.13L177.06 35.13Q175.04 35.47 173.41 35.44L173.34 35.37L173.44 35.47Q168.78 35.23 165.66 34.85ZM180.89 38.70L180.87 38.67L180.95 38.75Q179.13 35.71 178.44 33.13L178.41 33.09L178.29 32.98Q177.87 33.24 176.88 33.62L177.05 33.78L176.89 33.62Q176.68 32.96 176.49 32.12L176.50 32.13L176.09 30.39L175.98 30.28Q172.76 32.39 169.64 32.28L169.75 32.39L169.64 32.28Q165.30 32.01 162.97 30.26L163.11 30.39L163.15 30.43Q161.96 28.56 162.04 25.63L161.91 25.51L161.98 25.57Q162.20 21.15 164.68 19.02L164.60 18.94L164.64 18.98Q166.85 17.16 171.53 16.55L171.36 16.37L171.41 16.42Q172.15 16.25 172.87 16.25L173.03 16.41L173.03 16.41Q175.82 16.42 177.91 17.94L177.91 17.94L177.76 17.79Q178.35 15.75 179.57 12.51L179.65 12.60L179.49 12.43Q179.29 12.50 178.74 12.44L178.74 12.45L178.74 12.45Q178.22 12.42 177.95 12.42L177.95 12.42L177.92 12.39Q178.05 11.79 178.51 10.80L178.49 10.79L178.59 10.89Q178.33 10.85 175.83 10.78L175.92 10.86L175.90 10.84Q173.27 10.64 172.63 10.67L172.68 10.72L172.65 10.70Q162.18 11.07 158.71 13.66L158.70 13.65L158.71 13.65Q156.71 15.50 156.71 19.42L156.76 19.48L156.81 19.53Q156.80 20.62 156.91 23.32L156.81 23.21L156.85 23.26Q156.99 26.82 157.22 28.54L157.10 28.42L157.08 28.40Q157.56 31.62 159.16 33.14L159.16 33.14L159.07 33.05Q159.60 33.78 160.86 34.92L160.89 34.95L161.00 35.06Q164.13 36.71 169.38 37.47L169.37 37.45L169.49 37.57Q175.95 38.55 180.93 38.74Z"/><path fill="#111" d="M26.29 25.42L26.28 25.42L26.39 25.53Q22.76 31.72 19.34 35.68L19.47 35.81L19.46 35.81Q17.45 36.08 15.01 36.95L15.01 36.95L15.00 36.94Q20.02 31.46 24.78 23.04L24.74 23.00L24.84 23.10Q20.18 16.08 14.20 9.68L14.22 9.70L14.08 9.57Q17.05 10.82 19.33 11.31L19.30 11.28L19.34 11.32Q23.96 16.52 26.40 20.48L26.38 20.45L26.37 20.44Q28.92 16.06 32.84 11.65L32.80 11.60L32.93 11.74Q34.54 11.45 37.74 10.69L37.60 10.55L37.68 10.62Q31.66 17.13 28.19 23.07L28.23 23.10L28.12 23.00Q33.24 31.61 37.61 36.18L37.59 36.16L37.70 36.27Q35.07 35.43 32.98 35.20L33.01 35.23L32.98 35.21Q30.32 32.36 26.40 25.54ZM33.02 35.66L32.93 35.57L32.87 35.51Q33.16 35.53 33.62 35.65L33.60 35.63L33.72 35.75Q34.40 36.39 35.92 37.99L36.08 38.15L36.01 38.07Q39.38 38.90 42.43 40.27L42.42 40.27L42.40 40.24Q35.19 33.57 30.09 24.81L30.17 24.89L30.21 24.93Q33.86 18.19 39.76 11.33L39.78 11.35L39.82 11.40Q38.36 12.02 36.19 12.56L36.30 12.67L36.19 12.56Q37.09 11.67 38.84 9.88L38.80 9.84L38.92 9.96Q36.39 10.71 32.70 11.28L32.66 11.24L32.79 11.37Q29.38 15.20 26.80 19.50L26.75 19.46L26.77 19.47Q25.89 17.90 24.71 16.42L24.58 16.29L22.29 13.36L21.90 13.35L21.90 13.35Q21.72 13.32 21.49 13.24L21.62 13.37L21.62 13.37Q20.85 12.45 19.37 10.89L19.39 10.92L19.35 10.87Q15.62 10.08 13.03 8.71L13.05 8.73L12.94 8.61Q19.77 15.97 24.34 23.02L24.31 22.99L24.35 23.03Q19.93 31.29 14.18 37.88L14.05 37.74L14.04 37.73Q15.34 37.05 17.47 36.48L17.58 36.59L16.17 37.92L16.17 37.92Q16.20 37.95 14.87 39.29L14.89 39.30L14.94 39.35Q17.90 38.24 21.06 37.75L21.08 37.76L21.15 37.84Q25.18 33.34 27.77 28.59L27.70 28.51L27.71 28.52Q30.16 32.65 32.86 35.50Z"/><path fill="#222" d="M140.76 15.15L140.84 15.22L140.69 15.07Q136.45 15.14 132.76 14.15L132.77 14.16L132.63 14.02Q134.31 18.74 134.50 23.57L134.47 23.55L134.37 23.44Q134.54 28.23 133.33 32.84L133.39 32.90L133.38 32.89Q136.15 32.23 139.65 32.08L139.69 32.12L139.74 32.17Q143.58 31.89 145.37 29.46L145.37 29.46L145.45 29.54Q146.94 27.45 147.13 23.34L147.11 23.32L147.14 23.35Q147.16 21.54 146.70 19.83L146.69 19.82L146.74 19.87Q145.47 15.13 140.75 15.13ZM128.73 37.04L128.91 37.22L128.77 37.07Q131.66 31.40 131.66 24.70L131.81 24.85L131.72 24.76Q131.73 16.24 127.43 9.23L127.41 9.21L127.50 9.30Q132.66 11.88 140.92 12.07L141.02 12.16L140.83 11.98Q149.87 12.34 150.21 19.49L150.15 19.44L150.10 19.38Q150.26 22.13 150.23 23.58L150.21 23.57L150.14 23.49Q150.12 28.23 149.28 30.40L149.40 30.53L149.22 30.34Q148.94 31.58 148.17 32.42L148.19 32.43L148.03 32.28Q146.67 33.81 144.04 34.30L144.06 34.32L144.07 34.32Q142.63 34.75 139.62 34.98L139.47 34.83L139.57 34.93Q133.50 35.45 128.89 37.20ZM146.68 36.94L146.71 36.97L146.72 36.98Q149.43 36.61 151.07 35.13L151.15 35.20L151.13 35.19Q152.37 33.45 152.33 30.71L152.26 30.64L152.25 30.63Q152.27 29.28 152.12 25.78L152.22 25.88L151.84 21.32L151.72 21.19Q151.66 19.04 150.71 16.94L150.65 16.89L150.60 16.84Q150.09 15.90 149.40 15.26L149.37 15.23L149.50 15.21L149.43 15.14Q147.67 12.12 143.26 11.74L143.33 11.81L143.43 11.91Q140.70 11.73 133.70 11.01L133.54 10.85L133.68 10.99Q130.27 10.40 126.57 8.38L126.57 8.38L126.58 8.39Q131.44 15.79 131.44 24.55L131.55 24.67L131.49 24.60Q131.46 31.57 128.11 37.74L128.10 37.74L128.15 37.79Q128.86 37.55 130.19 37.05L130.17 37.02L130.25 37.11Q129.90 37.93 129.02 39.42L128.87 39.26L128.91 39.31Q131.98 38.27 135.34 37.78L135.42 37.86L135.30 37.74Q137.34 37.38 140.99 37.26L141.11 37.38L141.03 37.31Q144.98 37.26 146.81 37.07ZM146.77 23.36L146.70 23.29L146.80 23.39Q146.37 31.34 139.67 31.72L139.63 31.67L139.64 31.69Q137.80 31.90 135.74 32.17L135.64 32.06L135.73 32.15Q136.53 28.38 136.53 24.73L136.43 24.63L136.39 24.60Q136.50 21.01 135.78 17.17L135.63 17.02L135.73 17.11Q137.93 17.42 142.61 17.42L142.65 17.46L142.68 17.48Q143.99 17.27 145.62 18.22L145.62 18.21L145.63 18.23Q146.93 20.52 146.78 23.37Z"/></svg>