<svg xmlns="http://www.w3.org/2000/svg" width="200" height="40" viewBox="0,0,200,40"><path d="M16 37 C107 31,95 38,195 3" stroke="#888" fill="none"/><path fill="#333" d="M53.76 35.16L53.85 35.25L51.49 28.43L51.37 28.31Q46.92 15.64 40.98 9.25L41.15 9.42L41.17 9.43Q43.17 10.48 45.76 11.09L45.61 10.94L45.60 10.93Q50.77 17.24 55.11 30.00L55.10 29.98L55.09 29.98Q58.21 21.94 58.90 20.34L58.93 20.38L58.93 20.38Q61.28 14.73 64.09 11.42L64.05 11.38L64.14 11.46Q66.20 11.09 68.83 10.21L68.80 10.19L68.70 10.08Q64.13 14.70 61.09 21.93L61.22 22.06L61.09 21.93Q59.69 25.60 56.00 35.12L56.05 35.16L56.02 35.13Q55.51 35.19 54.94 35.16L55.03 35.25L54.90 35.11Q54.43 35.22 53.86 35.26ZM58.88 37.69L58.79 37.60L58.85 37.66Q61.58 27.60 63.14 23.56L63.10 23.52L63.07 23.49Q66.25 15.97 70.66 11.10L70.61 11.04L70.53 10.97Q69.53 11.37 67.44 12.10L67.39 12.05L68.61 10.80L68.59 10.78Q69.15 10.08 69.76 9.43L69.81 9.48L69.76 9.43Q67.00 10.49 64.00 11.06L63.86 10.92L63.87 10.93Q59.53 16.29 55.64 27.75L55.77 27.88L55.66 27.77Q52.02 17.65 48.82 13.28L48.82 13.27L48.82 13.28Q48.37 13.13 47.49 12.97L47.52 13.00L47.64 13.12Q47.30 12.63 45.70 10.58L45.80 10.67L45.66 10.54Q42.81 9.94 40.11 8.53L40.14 8.55L40.18 8.60Q46.74 15.61 51.11 28.40L51.09 28.38L51.01 28.29Q52.37 32.09 53.55 35.67L53.56 35.68L53.42 35.54Q53.90 35.71 54.73 35.60L54.81 35.67L54.73 35.59Q54.98 36.18 55.66 37.52L55.69 37.55L55.79 37.65Q56.65 37.59 57.37 37.67L57.26 37.56L57.39 37.68Q58.11 37.68 58.88 37.68Z"/><path d="M4 9 C108 34,94 25,194 15" stroke="#111" fill="none"/><path fill="#222" d="M73.77 9.24L73.81 9.28L73.85 9.31Q77.66 11.87 82.42 12.10L82.38 12.06L82.40 12.08Q86.95 12.18 91.21 10.42L91.28 10.49L91.34 10.55Q91.01 11.02 90.24 13.79L90.23 13.78L90.32 13.87Q87.46 14.78 84.49 14.93L84.60 15.04L84.62 15.06Q81.51 15.07 78.62 14.35L78.71 14.44L78.72 14.45Q79.36 18.02 79.55 21.68L79.63 21.76L79.66 21.79Q81.51 21.85 83.10 21.81L83.29 21.99L83.19 21.90Q84.39 21.87 86.79 21.76L86.80 21.77L86.88 21.85Q86.77 22.42 86.77 23.11L86.75 23.09L86.74 24.42L86.68 24.36Q84.32 24.40 79.53 24.47L79.56 24.51L79.50 24.45Q79.58 28.64 79.01 32.63L79.01 32.63L78.94 32.56Q81.66 32.01 84.40 32.13L84.30 32.02L84.29 32.02Q87.06 32.16 89.65 33.00L89.58 32.93L89.58 32.93Q89.81 33.88 90.08 34.64L89.96 34.53L90.39 36.02L90.45 36.08Q87.26 34.79 83.83 34.79L83.93 34.89L83.88 34.84Q79.02 34.85 74.76 37.10L74.78 37.12L74.63 36.97Q77.07 30.28 76.81 23.16L76.72 23.08L76.78 23.14Q76.59 16.06 73.93 9.39ZM74.12 37.68L74.31 37.87L74.20 37.76Q75.52 37.11 76.29 36.76L76.22 36.70L76.29 36.77Q76.04 37.47 75.47 38.99L75.39 38.91L75.53 39.06Q79.92 36.93 84.98 37.20L85.01 37.23L85.00 37.22Q90.30 37.64 94.29 40.34L94.34 40.39L94.16 40.21Q93.05 37.73 92.37 35.79L92.41 35.83L92.30 35.73Q91.36 35.16 90.37 34.82L90.46 34.91L90.46 34.91Q89.98 33.45 89.83 32.65L89.89 32.70L89.95 32.77Q86.69 31.60 83.53 31.60L83.62 31.69L83.71 31.78Q82.52 31.73 81.38 31.85L81.31 31.78L81.40 31.87Q81.50 30.59 81.54 29.38L81.54 29.38L81.55 26.80L81.60 26.85Q83.31 26.66 85.10 26.69L85.14 26.73L85.14 26.73Q87.04 26.84 88.83 27.00L88.75 26.92L88.82 26.99Q88.79 26.08 88.79 25.13L88.64 24.99L88.65 23.08L87.91 23.23L87.87 23.19Q87.60 23.41 87.15 23.41L87.08 23.35L87.04 23.31Q86.96 22.54 87.11 21.24L87.16 21.29L87.23 21.36Q85.65 21.61 84.47 21.65L84.51 21.69L84.39 21.57Q83.37 21.51 81.55 21.43L81.62 21.50L81.64 21.53Q81.53 20.08 81.34 17.26L81.45 17.37L81.38 17.30Q82.38 17.39 83.37 17.39L83.47 17.49L83.49 17.51Q88.16 17.46 91.85 15.55L91.85 15.55L91.86 15.56Q92.32 13.09 93.20 10.88L93.26 10.95L93.26 10.95Q91.96 11.81 91.12 12.16L91.10 12.14L91.04 12.08Q91.35 11.32 91.81 9.76L91.82 9.78L91.93 9.88Q87.27 12.00 82.40 11.70L82.33 11.63L82.42 11.72Q77.00 11.29 73.16 8.43L73.15 8.43L73.09 8.37Q76.00 15.35 76.31 22.97L76.47 23.13L76.46 23.12Q76.82 31.10 74.31 37.87Z"/><path fill="#111" d="M169.34 27.26L160.02 17.18L159.97 17.13Q160.77 20.78 160.77 24.51L160.86 24.60L160.75 24.49Q160.90 30.62 158.84 36.18L158.71 36.04L158.75 36.09Q157.75 36.42 155.51 37.18L155.46 37.13L155.45 37.13Q158.35 31.42 158.35 24.72L158.21 24.58L158.18 24.55Q158.25 15.98 153.76 8.55L153.88 8.68L153.72 8.51Q154.20 8.73 154.88 9.15L154.88 9.15L154.91 9.17Q167.09 20.48 174.93 29.73L174.78 29.57L174.82 29.62Q174.44 27.11 174.44 24.67L174.51 24.74L174.61 24.84Q174.48 17.47 176.99 11.27L177.14 11.41L177.10 11.38Q179.33 10.75 180.93 10.07L181.00 10.13L180.90 10.04Q177.62 16.24 177.31 23.39L177.31 23.39L177.25 23.33Q176.97 30.70 179.94 36.87L179.95 36.88L180.08 37.01Q179.41 36.84 178.99 36.65L179.02 36.67L178.97 36.62Q174.38 32.64 169.17 27.09L169.23 27.15ZM182.64 40.14L182.59 40.09L182.61 40.11Q183.05 40.25 183.47 40.44L183.43 40.40L184.39 40.86L184.41 40.88Q179.13 33.82 179.13 24.45L179.16 24.48L179.15 24.46Q179.17 17.26 182.49 11.01L182.60 11.13L182.51 11.04Q181.83 11.23 180.42 11.84L180.51 11.93L180.43 11.86Q180.84 11.05 181.68 9.48L181.75 9.55L181.64 9.45Q179.29 10.45 176.85 11.02L176.76 10.93L176.75 10.92Q174.24 17.50 174.24 24.92L174.13 24.81L174.12 24.80Q174.14 26.69 174.33 28.67L174.32 28.66L174.44 28.78Q169.68 22.99 164.92 18.39L164.96 18.42L154.83 8.68L154.79 8.63Q154.32 8.43 153.10 7.86L153.15 7.91L153.15 7.91Q157.88 15.49 157.88 24.59L157.90 24.61L157.89 24.60Q157.88 31.71 154.80 37.73L154.93 37.86L154.87 37.80Q155.22 37.73 156.85 37.12L156.69 36.96L156.75 37.02Q156.52 37.89 155.69 39.38L155.67 39.36L155.61 39.30Q157.02 38.85 160.49 38.05L160.42 37.98L160.52 38.08Q162.82 31.93 162.82 24.74L162.69 24.61L162.86 24.77Q162.83 22.66 162.60 20.52L162.52 20.44L162.63 20.55Q173.96 33.21 182.56 40.06Z"/><path fill="#111" d="M113.25 34.94L113.23 34.92L113.18 34.86Q111.25 34.84 109.24 35.03L109.16 34.96L109.18 34.97Q109.90 29.80 109.90 24.96L109.87 24.93L109.88 24.94Q109.81 19.96 109.17 14.75L109.20 14.79L109.18 14.77Q104.64 14.41 101.44 12.73L101.43 12.72L100.65 10.91L100.73 11.00Q100.58 10.54 99.97 9.32L99.82 9.17L99.90 9.25Q105.07 12.02 111.08 12.21L110.98 12.11L111.06 12.19Q116.82 12.24 122.27 10.18L122.34 10.26L122.31 10.22Q121.59 11.64 120.94 13.46L121.01 13.53L121.06 13.59Q117.37 14.81 113.11 15.00L113.04 14.93L113.05 14.93Q112.82 19.93 112.82 24.88L112.94 24.99L112.78 24.83Q112.94 29.95 113.25 34.93ZM123.08 9.62L122.94 9.49L123.08 9.63Q117.14 11.80 110.94 11.61L110.94 11.61L110.93 11.60Q104.32 11.47 99.22 8.50L99.28 8.55L99.17 8.44Q100.05 9.85 101.34 13.13L101.24 13.02L101.27 13.05Q101.83 13.28 103.09 13.85L103.09 13.85L103.16 13.92Q103.42 14.64 103.76 16.16L103.77 16.16L103.73 16.13Q105.95 16.90 108.99 17.13L109.07 17.20L109.18 17.32Q109.56 21.00 109.56 24.77L109.48 24.69L109.53 24.75Q109.55 30.13 108.75 35.50L108.73 35.48L108.69 35.44Q110.30 35.26 110.83 35.26L110.93 35.35L110.80 35.23Q110.95 35.68 110.89 36.34L110.77 36.22L110.79 36.24Q110.77 36.95 110.77 37.29L110.67 37.19L110.68 37.20Q112.03 37.29 113.55 37.37L113.48 37.30L113.50 37.32Q114.30 37.24 116.12 37.39L116.26 37.53L116.27 37.53Q114.94 32.51 114.83 27.34L114.84 27.35L114.82 27.33Q114.72 22.05 115.25 17.14L115.16 17.05L115.26 17.15Q119.28 16.68 122.44 15.46L122.33 15.35L122.47 15.49Q123.08 13.01 124.10 10.96L124.17 11.02L124.17 11.02Q122.66 11.53 121.86 11.83L121.89 11.86L122.04 12.01Q122.42 10.68 122.99 9.54Z"/><path fill="#111" d="M18.71 10.85L18.74 10.87L18.65 10.78Q20.66 15.77 21.23 20.94L21.22 20.93L21.20 20.91Q24.97 16.83 30.87 12.00L30.70 11.83L30.79 11.92Q33.93 11.56 36.56 10.76L36.56 10.76L30.09 16.47L30.07 16.45Q26.71 19.45 23.85 22.31L23.76 22.21L23.76 22.22Q31.73 31.36 36.79 36.08L36.91 36.20L36.77 36.06Q33.79 35.25 31.47 35.10L31.46 35.09L31.43 35.06Q25.52 29.54 21.22 23.71L21.37 23.86L21.41 23.90Q21.52 30.51 19.65 35.84L19.57 35.77L19.58 35.77Q19.41 35.87 18.91 36.06L18.91 36.06L18.85 36.18L18.73 36.07Q18.60 36.17 16.05 37.08L16.10 37.13L16.15 37.18Q18.96 30.47 18.62 23.01L18.67 23.06L18.60 22.99Q18.40 15.79 14.86 9.28L14.82 9.23L15.40 9.55L15.72 9.76L15.76 9.76L15.72 9.72Q16.46 10.11 18.66 10.80ZM19.04 10.60L18.93 10.49L19.08 10.64Q16.81 10.08 14.18 8.56L14.17 8.55L14.01 8.39Q18.46 15.85 18.46 24.80L18.35 24.68L18.29 24.62Q18.32 31.65 15.35 37.71L15.45 37.81L17.38 36.84L17.49 36.95Q17.06 37.94 16.38 39.23L16.37 39.22L16.42 39.27Q18.57 38.38 20.51 37.96L20.64 38.09L20.58 37.80L20.73 37.95Q20.85 37.77 21.42 37.62L21.46 37.65L21.48 37.67Q23.14 31.75 23.25 26.96L23.15 26.85L23.30 27.00Q25.29 29.42 27.12 31.28L27.17 31.33L27.21 31.37Q28.24 32.32 31.24 35.29L31.43 35.48L31.44 35.49L31.42 35.46Q32.44 36.30 34.30 37.90L34.30 37.89L34.13 37.72Q38.12 38.55 41.58 40.26L41.50 40.18L41.55 40.23Q32.20 31.60 25.96 24.18L26.13 24.35L26.07 24.30Q30.50 20.05 39.26 11.44L39.13 11.31L39.18 11.37Q36.69 12.56 34.67 12.94L34.56 12.84L34.70 12.98Q35.86 11.93 38.19 9.91L38.18 9.90L38.16 9.89Q34.02 11.27 30.67 11.46L30.68 11.47L30.66 11.45Q27.80 13.73 22.93 18.41L23.01 18.49L22.95 18.44Q22.54 15.81 21.97 13.26L21.94 13.24L22.03 13.33Q20.75 13.07 19.76 12.73L19.88 12.85L19.76 12.73Q19.63 12.07 19.06 10.62Z"/><path fill="#333" d="M138.62 35.16L138.69 35.23L136.30 28.38L136.23 28.32Q131.92 15.78 125.98 9.39L125.93 9.33L125.98 9.39Q127.93 10.38 130.52 10.99L130.58 11.06L130.48 10.95Q135.68 17.30 140.02 30.05L140.12 30.15L140.05 30.08Q143.13 22.01 143.82 20.41L143.73 20.32L143.85 20.44Q146.18 14.78 149.00 11.47L148.93 11.39L149.02 11.48Q151.09 11.13 153.72 10.25L153.64 10.17L153.69 10.22Q149.07 14.78 146.03 22.01L146.06 22.04L146.01 22.00Q144.58 25.63 140.89 35.15L140.91 35.17L140.93 35.19Q140.32 35.14 139.74 35.10L139.78 35.14L139.84 35.20Q139.12 35.05 138.55 35.09ZM143.69 37.64L143.71 37.66L143.61 37.56Q146.55 27.71 148.11 23.67L148.05 23.62L148.06 23.62Q150.99 15.85 155.40 10.98L155.46 11.03L155.49 11.06Q154.48 11.46 152.38 12.19L152.23 12.04L153.51 10.83L153.44 10.77Q154.03 10.10 154.64 9.45L154.56 9.38L154.61 9.43Q151.81 10.43 148.80 11.00L148.88 11.08L148.91 11.11Q144.38 16.29 140.49 27.74L140.47 27.72L140.61 27.86Q136.95 17.73 133.75 13.35L133.65 13.25L133.67 13.27Q133.24 13.15 132.37 12.99L132.45 13.08L132.53 13.16Q132.26 12.73 130.66 10.68L130.63 10.65L130.60 10.62Q127.61 9.87 124.91 8.47L124.86 8.42L124.96 8.52Q131.54 15.55 135.91 28.34L135.99 28.42L135.94 28.37Q137.25 32.11 138.43 35.69L138.33 35.59L138.41 35.67Q138.70 35.66 139.53 35.54L139.61 35.62L139.59 35.60Q139.99 36.34 140.68 37.67L140.55 37.55L140.57 37.56Q141.49 37.58 142.22 37.65L142.15 37.58L142.14 37.57Q142.85 37.56 143.61 37.56Z"/></svg>