<svg xmlns="http://www.w3.org/2000/svg" width="200" height="40" viewBox="0,0,200,40"><path d="M20 24 C84 21,95 18,195 23" stroke="#888" fill="none"/><path d="M9 9 C100 16,96 15,179 34" stroke="#666" fill="none"/><path fill="#444" d="M119.10 18.29L119.02 18.20L119.06 18.25Q117.34 14.16 111.13 14.35L111.18 14.41L111.23 14.45Q106.79 14.54 104.81 15.99L104.80 15.98L104.73 15.91Q102.39 17.72 102.39 21.83L102.48 21.92L102.29 23.60L102.36 23.66Q102.36 32.50 111.38 32.50L111.40 32.52L111.38 32.50Q113.39 32.45 114.88 31.65L114.94 31.71L114.96 31.74Q116.86 30.78 116.71 28.92L116.55 28.75L116.70 28.91Q116.50 26.80 112.81 25.89L112.78 25.86L110.76 25.78L110.90 25.92Q109.90 25.87 108.95 25.91L108.97 25.93L108.86 25.83Q108.98 25.00 108.95 23.09L108.93 23.07L108.95 23.10Q116.49 22.98 120.68 22.64L120.67 22.63L120.65 22.61Q120.61 23.45 120.61 24.25L120.63 24.27L120.75 24.39Q120.70 25.14 120.74 25.94L120.68 25.88L120.78 25.98Q119.51 25.82 119.51 25.82L119.62 25.93L119.56 25.86Q118.28 25.96 118.66 25.96L118.53 25.82L118.53 25.83Q119.75 27.58 120.14 29.56L120.15 29.57L120.02 29.45Q120.23 30.26 120.23 30.72L120.12 30.61L120.23 30.72Q120.13 35.27 111.34 35.27L111.37 35.30L111.31 35.24Q104.23 35.28 101.64 33.19L101.61 33.16L101.67 33.22Q99.68 30.85 99.68 25.78L99.70 25.80L99.67 25.77Q99.76 24.79 99.61 22.09L99.61 22.09L99.51 22.00Q99.34 19.62 99.38 18.24L99.41 18.27L99.48 18.35Q99.46 15.36 100.83 13.76L100.85 13.78L100.99 13.92Q103.41 11.73 108.28 11.54L108.26 11.52L111.04 11.55L110.93 11.44Q114.09 11.41 117.52 11.83L117.56 11.87L117.51 11.82Q121.22 12.26 122.17 15.49L122.31 15.64L122.21 15.53Q121.13 16.40 119.04 18.22ZM120.56 20.54L120.62 20.49L120.58 20.46Q121.82 19.41 123.69 17.43L123.74 17.48L123.73 17.47Q123.36 16.45 122.37 14.74L122.43 14.80L122.36 14.73Q121.14 12.03 117.34 11.38L117.45 11.50L117.41 11.45Q115.24 11.30 110.94 11.00L111.04 11.10L108.35 11.23L108.35 11.23Q103.11 11.36 100.52 13.34L100.53 13.35L100.46 13.28Q99.06 14.89 98.95 17.97L99.01 18.03L99.09 18.11Q99.10 17.66 99.33 23.14L99.26 23.08L99.21 23.03Q99.22 24.37 99.29 27.11L99.29 27.10L99.40 27.21Q99.62 31.70 101.38 33.64L101.40 33.67L101.42 33.68Q101.70 34.42 102.57 35.30L102.60 35.33L102.48 35.21Q105.40 37.09 110.92 37.44L110.92 37.44L113.96 37.77L113.82 37.64Q115.40 37.73 117.41 37.61L117.49 37.69L117.42 37.62Q118.98 37.66 121.07 37.12L120.96 37.01L121.14 37.19Q122.93 36.55 122.90 34.23L123.01 34.34L122.92 34.25Q122.91 32.99 121.85 30.21L121.84 30.20L121.95 30.31Q121.62 29.37 121.09 28.57L121.01 28.49L121.08 28.57Q121.62 28.54 122.80 28.73L122.79 28.72L122.79 28.72Q122.48 25.09 122.52 24.41L122.48 24.37L122.54 24.43Q122.11 24.38 121.69 24.34L121.72 24.38L121.77 24.43Q121.32 24.32 120.94 24.39L121.08 24.53L121.01 24.46Q120.99 23.33 121.06 22.27L121.09 22.29L121.10 22.31Q114.74 22.72 108.45 22.60L108.44 22.59L108.58 22.73Q108.46 23.48 108.46 24.40L108.63 24.57L108.54 26.23L108.51 26.20Q109.07 26.37 109.49 26.34L109.34 26.19L109.44 26.29Q109.79 26.22 110.25 26.22L110.32 26.29L110.17 26.15Q110.24 26.67 110.27 27.16L110.32 27.21L110.22 27.11Q110.29 27.64 110.26 28.13L110.26 28.14L110.27 28.15Q111.28 28.09 112.31 28.05L112.29 28.04L112.35 28.09Q113.36 28.08 114.39 28.12L114.44 28.17L114.32 28.05Q115.47 28.40 116.34 28.78L116.29 28.73L116.24 28.71L116.31 28.78Q116.54 30.39 114.87 31.30L114.77 31.20L114.88 31.31Q113.16 32.18 111.44 32.18L111.51 32.24L111.31 32.04Q107.66 32.24 105.23 30.49L105.07 30.33L105.18 30.44Q104.14 28.34 104.29 25.79L104.41 25.90L104.40 25.89Q104.64 21.03 106.48 19.03L106.45 19.00L106.41 18.96Q108.32 17.02 113.00 16.72L112.98 16.70L113.05 16.77Q116.61 16.44 118.55 18.23L118.53 18.22L118.68 18.36Q118.58 18.30 118.70 18.49L118.87 18.67L118.97 18.65L118.87 18.55Q119.50 19.30 120.07 20.40L120.04 20.37L120.40 20.39Z"/><path fill="#333" d="M164.01 25.64L164.10 25.73L164.08 25.71Q164.03 25.66 167.41 25.62L167.30 25.50L167.47 25.68Q169.58 25.50 170.65 25.54L170.72 25.62L170.64 25.53Q169.66 22.72 167.22 17.09L167.24 17.11L167.18 17.05Q166.61 18.46 165.57 21.32L165.57 21.32L165.62 21.37Q164.59 24.25 164.02 25.65ZM171.84 28.10L171.91 28.17L171.93 28.20Q169.58 28.09 167.38 28.13L167.37 28.12L167.37 28.12Q165.19 28.23 162.91 28.42L162.74 28.25L162.78 28.29Q161.38 31.84 158.14 36.03L158.12 36.00L157.99 35.87Q155.54 36.63 154.17 37.12L154.12 37.07L154.06 37.01Q159.17 31.35 163.85 17.99L163.92 18.05L163.97 18.10Q165.08 14.53 166.45 11.29L166.60 11.45L166.60 11.44Q166.93 11.47 167.27 11.47L167.19 11.38L168.02 11.49L167.97 11.44Q168.63 12.71 173.47 24.36L173.48 24.37L173.49 24.38Q176.67 32.14 180.67 36.29L180.67 36.29L180.77 36.38Q180.17 36.16 176.28 35.29L176.28 35.29L176.28 35.28Q173.76 32.19 171.78 28.04ZM176.28 35.70L176.29 35.71L176.81 35.74L176.84 35.77Q177.10 35.80 177.40 35.91L177.38 35.89L177.46 35.97Q177.74 36.29 179.57 38.30L179.63 38.37L179.64 38.37Q183.20 39.20 185.60 40.23L185.65 40.28L185.59 40.21Q180.24 35.82 176.24 27.82L176.06 27.64L176.21 27.79Q174.60 24.50 173.15 20.54L173.15 20.54L170.29 12.92L170.36 13.00Q170.00 12.98 169.77 12.98L169.75 12.96L169.23 12.97L169.22 12.95Q168.85 12.28 168.12 10.91L168.17 10.96L168.29 11.08Q167.66 10.98 167.21 10.94L167.25 10.99L167.31 11.04Q166.79 10.95 166.26 10.95L166.25 10.94L166.30 10.99Q164.91 14.92 161.02 25.09L160.89 24.96L161.05 25.12Q157.80 32.95 153.16 37.75L153.15 37.74L153.15 37.73Q154.31 37.45 156.33 36.84L156.17 36.68L156.30 36.81Q155.53 37.68 153.97 39.47L153.90 39.40L153.83 39.33Q155.67 38.81 159.59 38.05L159.57 38.03L159.56 38.01Q162.97 33.66 164.53 30.43L164.62 30.52L164.57 30.47Q166.36 30.39 168.68 30.43L168.53 30.27L168.56 30.30Q171.30 30.34 172.67 30.42L172.67 30.42L172.69 30.43Q173.89 32.74 176.25 35.67ZM168.48 20.94L168.58 21.03L168.51 20.96Q169.49 23.16 170.25 25.26L170.13 25.14L166.89 25.21L166.99 25.31Q167.54 23.84 168.61 21.06Z"/><path fill="#222" d="M25.50 35.18L25.50 35.19L23.04 28.27L23.19 28.42Q18.71 15.72 12.78 9.32L12.84 9.39L12.80 9.34Q14.83 10.43 17.42 11.04L17.30 10.92L17.47 11.09Q22.58 17.34 26.92 30.09L26.96 30.13L26.78 29.95Q30.02 22.04 30.70 20.44L30.62 20.35L30.57 20.31Q32.93 14.67 35.74 11.36L35.80 11.41L35.82 11.43Q37.98 11.15 40.60 10.27L40.55 10.22L40.56 10.23Q35.97 14.81 32.92 22.05L32.88 22.01L32.83 21.95Q31.46 25.65 27.76 35.16L27.81 35.21L27.82 35.22Q27.16 35.13 26.59 35.09L26.71 35.21L26.74 35.24Q26.06 35.13 25.49 35.17ZM30.49 37.59L30.62 37.71L30.43 37.53Q33.31 27.62 34.87 23.58L34.83 23.54L34.93 23.64Q37.97 15.98 42.39 11.11L42.30 11.02L42.20 10.92Q41.36 11.49 39.26 12.21L39.27 12.21L40.31 10.78L40.34 10.81Q40.94 10.16 41.55 9.51L41.50 9.46L41.45 9.41Q38.68 10.45 35.68 11.02L35.73 11.08L35.68 11.02Q31.30 16.36 27.42 27.82L27.36 27.75L27.31 27.70Q23.67 17.59 20.47 13.21L20.61 13.35L20.50 13.24Q20.09 13.13 19.21 12.98L19.25 13.02L19.20 12.97Q19.02 12.63 17.42 10.58L17.41 10.57L17.42 10.58Q14.57 9.98 11.87 8.57L11.72 8.42L11.83 8.53Q18.40 15.56 22.77 28.35L22.72 28.29L22.85 28.42Q24.07 32.07 25.25 35.65L25.21 35.61L25.23 35.63Q25.48 35.59 26.32 35.47L26.41 35.56L26.49 35.64Q26.75 36.24 27.43 37.57L27.37 37.51L27.52 37.66Q28.24 37.46 28.96 37.54L29.08 37.66L29.09 37.66Q29.69 37.54 30.45 37.54Z"/><path fill="#444" d="M50.95 14.40L50.95 14.40L50.87 14.32Q51.78 18.61 51.93 22.19L51.97 22.23L51.96 22.22Q53.02 22.26 54.09 22.26L54.01 22.18L56.19 22.15L56.23 22.19Q57.26 22.15 58.14 20.75L58.23 20.84L58.17 20.78Q58.83 19.53 58.94 18.35L59.09 18.50L59.12 18.54Q59.45 15.47 55.22 14.98L55.19 14.94L55.19 14.94Q53.59 14.98 50.96 14.41ZM51.97 24.97L51.86 24.86L51.92 24.93Q51.92 31.21 50.78 35.62L50.70 35.54L50.73 35.57Q49.21 35.92 46.89 36.98L47.00 37.10L46.97 37.07Q49.25 30.32 48.98 23.05L48.96 23.03L49.02 23.08Q48.79 15.77 46.01 9.34L45.95 9.28L45.96 9.30Q50.13 12.10 56.38 12.10L56.28 12.00L56.43 12.15Q62.44 12.10 62.59 15.57L62.53 15.50L62.57 15.55Q62.59 17.93 61.60 20.59L61.60 20.59L61.57 20.57Q61.21 21.73 60.26 22.95L60.32 23.01L60.22 22.90Q59.01 24.63 56.46 24.90L56.35 24.79L56.51 24.94Q54.16 24.88 51.92 24.92ZM58.16 27.28L57.99 27.11L58.11 27.23Q62.16 27.36 63.41 22.56L63.58 22.73L63.56 22.71Q64.42 18.96 64.27 16.94L64.34 17.01L64.30 16.98Q64.13 15.39 63.36 14.40L63.43 14.47L63.31 14.34Q63.03 14.07 62.53 13.84L62.65 13.96L62.63 13.93Q62.59 13.75 61.98 12.98L61.93 12.93L61.94 12.94Q60.42 11.64 56.46 11.64L56.51 11.70L56.44 11.63Q49.54 11.61 45.31 8.45L45.27 8.42L45.24 8.38Q48.49 15.55 48.76 23.01L48.84 23.10L48.83 23.09Q49.02 30.66 46.35 37.74L46.38 37.77L46.44 37.83Q47.46 37.13 48.45 36.75L48.41 36.72L48.02 37.85L47.98 37.81Q47.80 38.39 47.53 38.96L47.66 39.09L47.57 39.00Q49.97 37.93 52.86 37.40L52.99 37.53L52.98 37.52Q53.85 32.03 53.93 27.31L53.95 27.33L53.94 27.32Q54.88 27.09 55.87 27.09L55.91 27.12L56.03 27.24Q57.35 27.23 58.15 27.27ZM57.14 17.27L57.09 17.23L57.15 17.28Q57.64 17.28 58.63 17.51L58.59 17.47L58.63 17.51Q58.74 17.73 58.78 18.04L58.86 18.12L58.82 18.08Q58.76 18.24 58.68 18.51L58.73 18.56L58.70 18.53Q58.68 19.84 57.96 20.72L57.91 20.67L57.95 20.71Q57.38 21.78 56.36 21.97L56.22 21.84L56.21 21.83Q55.45 21.79 53.81 21.79L53.85 21.82L53.79 21.77Q53.92 19.65 53.69 17.29L53.61 17.21L55.46 17.38L55.34 17.27Q56.21 17.30 57.09 17.23Z"/><path fill="#333" d="M73.75 9.22L73.76 9.23L73.84 9.31Q77.56 11.77 82.32 12.00L82.39 12.07L82.38 12.06Q86.97 12.20 91.24 10.45L91.32 10.53L91.25 10.46Q91.00 11.01 90.24 13.79L90.32 13.87L90.31 13.86Q87.47 14.79 84.50 14.94L84.48 14.92L84.56 15.00Q81.58 15.14 78.68 14.41L78.72 14.45L78.68 14.41Q79.49 18.16 79.68 21.81L79.54 21.66L79.60 21.73Q81.60 21.94 83.20 21.90L83.19 21.89L83.13 21.83Q84.37 21.86 86.77 21.74L86.81 21.78L86.91 21.88Q86.82 22.48 86.82 23.16L86.69 23.04L86.69 24.37L86.84 24.52Q84.43 24.50 79.63 24.58L79.52 24.47L79.67 24.61Q79.64 28.69 79.07 32.69L78.95 32.58L79.01 32.63Q81.67 32.03 84.41 32.14L84.36 32.08L84.29 32.01Q87.02 32.11 89.60 32.95L89.71 33.05L89.62 32.97Q89.72 33.79 89.99 34.55L90.03 34.59L90.43 36.06L90.40 36.03Q87.21 34.75 83.79 34.75L83.79 34.75L83.78 34.74Q79.03 34.86 74.77 37.11L74.66 37.00L74.65 36.99Q77.05 30.26 76.79 23.14L76.86 23.21L76.71 23.07Q76.40 15.87 73.74 9.21ZM74.14 37.70L74.14 37.70L74.21 37.77Q75.40 36.98 76.16 36.64L76.30 36.78L76.23 36.71Q76.12 37.55 75.55 39.07L75.48 39.00L75.50 39.02Q80.03 37.04 85.09 37.31L85.00 37.21L85.03 37.25Q90.27 37.62 94.27 40.32L94.21 40.26L94.31 40.36Q93.07 37.75 92.38 35.80L92.30 35.72L92.43 35.85Q91.42 35.22 90.43 34.88L90.31 34.76L90.33 34.78Q90.08 33.54 89.93 32.74L89.93 32.75L89.81 32.63Q86.73 31.64 83.57 31.64L83.57 31.64L83.68 31.75Q82.45 31.66 81.30 31.77L81.25 31.71L81.34 31.81Q81.42 30.52 81.46 29.30L81.41 29.25L81.56 26.81L81.64 26.89Q83.45 26.79 85.24 26.83L85.23 26.83L85.18 26.78Q86.95 26.75 88.74 26.91L88.88 27.05L88.81 26.98Q88.63 25.93 88.63 24.97L88.82 25.16L88.76 23.20L88.02 23.34L87.83 23.14Q87.53 23.34 87.08 23.34L87.04 23.31L87.03 23.29Q87.13 22.71 87.28 21.42L87.21 21.34L87.25 21.39Q85.68 21.64 84.50 21.68L84.45 21.63L84.50 21.68Q83.50 21.63 81.68 21.56L81.73 21.61L81.72 21.61Q81.57 20.12 81.38 17.30L81.29 17.21L81.31 17.23Q82.32 17.33 83.31 17.33L83.43 17.45L83.45 17.47Q88.18 17.48 91.87 15.57L91.82 15.53L91.73 15.44Q92.46 13.23 93.34 11.03L93.29 10.98L93.22 10.91Q91.91 11.77 91.07 12.11L91.17 12.21L91.08 12.12Q91.39 11.37 91.85 9.81L91.93 9.89L91.84 9.79Q87.15 11.88 82.28 11.58L82.33 11.63L82.33 11.63Q77.11 11.40 73.27 8.54L73.28 8.56L73.23 8.51Q76.11 15.46 76.42 23.08L76.39 23.05L76.36 23.01Q76.71 30.98 74.19 37.76Z"/><path fill="#111" d="M147.09 35.33L147.05 35.29L147.19 35.43Q144.10 31.42 141.47 22.78L141.51 22.82L141.55 22.86Q140.87 20.70 140.07 18.57L140.11 18.61L137.22 27.36L137.25 27.40Q135.28 32.17 132.89 35.40L133.06 35.58L132.99 35.50Q132.22 35.66 130.59 35.81L130.47 35.69L130.45 35.67Q130.64 34.56 130.64 33.31L130.67 33.34L130.69 33.36Q130.59 27.24 127.85 21.11L127.90 21.17L127.84 21.11Q124.84 14.34 118.98 9.35L118.97 9.34L118.91 9.28Q120.93 9.85 123.29 10.38L123.37 10.47L123.42 10.52Q132.15 19.03 133.45 29.99L133.31 29.85L133.43 29.97Q135.03 26.62 136.47 21.25L136.44 21.22L136.41 21.18Q138.33 13.62 138.82 12.22L138.83 12.22L141.10 12.24L141.10 12.25Q141.84 14.32 142.49 16.65L142.44 16.60L143.83 21.18L143.77 21.12Q145.36 26.60 146.77 29.83L146.81 29.87L146.67 29.74Q148.45 18.22 156.36 10.88L156.36 10.88L156.34 10.85Q157.82 10.47 160.79 9.82L160.79 9.82L160.87 9.90Q155.38 14.04 152.33 20.17L152.36 20.19L152.50 20.34Q149.28 26.45 149.28 33.22L149.31 33.25L149.43 33.37Q149.29 34.34 149.37 35.48L149.43 35.54L148.22 35.35L148.29 35.43Q147.66 35.33 147.09 35.33ZM153.34 38.23L153.31 38.20L153.32 38.21Q152.23 34.79 152.34 30.91L152.14 30.71L152.33 30.90Q152.64 19.33 162.00 11.07L162.04 11.10L161.94 11.01Q161.01 11.26 159.07 11.79L159.02 11.75L158.98 11.71Q160.08 11.02 161.99 9.23L161.96 9.20L161.86 9.10Q159.29 9.96 156.36 10.45L156.30 10.39L156.41 10.50Q148.76 17.47 146.86 26.95L146.88 26.97L146.93 27.02Q146.26 25.29 143.41 13.83L143.45 13.88L143.54 13.96Q143.14 14.06 142.19 14.06L142.14 14.01L141.73 12.84L141.77 12.88Q141.69 12.38 141.46 11.89L141.47 11.90L138.61 11.93L138.57 11.89Q137.70 14.30 136.43 19.42L136.45 19.43L136.48 19.47Q135.13 24.52 134.15 26.99L134.10 26.95L134.26 27.11Q132.70 19.22 127.14 12.90L127.10 12.86L127.17 12.94Q126.62 12.81 125.67 12.62L125.73 12.68L125.55 12.49Q124.88 11.72 123.32 10.08L123.25 10.00L123.33 10.08Q119.96 9.31 117.79 8.51L117.74 8.45L117.88 8.60Q123.37 13.10 126.65 19.30L126.69 19.35L126.76 19.42Q130.22 26.03 130.22 33.04L130.29 33.11L130.28 33.10Q130.23 34.61 130.04 36.21L129.93 36.10L130.07 36.24Q130.20 36.14 130.66 36.05L130.60 35.99L130.72 36.12Q131.12 35.96 131.35 35.96L131.35 35.96L131.29 36.92L131.29 36.93Q131.37 37.47 131.45 38.00L131.50 38.06L131.40 37.96Q132.63 37.97 134.92 37.82L134.78 37.68L134.93 37.82Q138.50 32.37 141.24 22.97L141.19 22.92L141.32 23.05Q144.02 31.77 146.99 35.72L146.98 35.71L147.05 35.78Q147.47 35.75 148.31 35.86L148.33 35.88L148.26 35.81Q149.09 36.84 150.16 37.90L150.29 38.04L150.17 37.92Q151.01 38.04 153.41 38.30Z"/></svg>