<svg xmlns="http://www.w3.org/2000/svg" width="200" height="40" viewBox="0,0,200,40"><path fill="#222" d="M169.66 34.78L169.65 34.76L169.67 34.79Q167.70 34.72 165.69 34.91L165.74 34.97L165.79 35.02Q166.35 29.67 166.35 24.84L166.46 24.95L166.37 24.86Q166.55 20.13 165.90 14.91L165.85 14.86L165.85 14.86Q161.21 14.41 158.01 12.73L157.98 12.70L157.37 11.06L157.33 11.02Q157.17 10.56 156.56 9.34L156.41 9.19L156.46 9.24Q161.54 11.92 167.55 12.11L167.50 12.05L167.64 12.20Q173.42 12.27 178.87 10.21L178.93 10.28L178.80 10.14Q178.16 11.64 177.51 13.47L177.62 13.57L177.60 13.55Q173.90 14.77 169.64 14.96L169.70 15.02L169.71 15.02Q169.37 19.90 169.37 24.85L169.42 24.90L169.40 24.88Q169.45 29.88 169.75 34.87ZM179.57 9.55L179.55 9.53L179.61 9.59Q173.71 11.80 167.51 11.61L167.47 11.57L167.44 11.54Q160.95 11.52 155.85 8.55L155.79 8.49L155.77 8.47Q156.46 9.69 157.75 12.97L157.76 12.97L157.77 12.98Q158.48 13.35 159.73 13.92L159.68 13.87L159.73 13.91Q160.07 14.72 160.41 16.24L160.24 16.06L160.41 16.23Q162.52 16.90 165.56 17.12L165.73 17.29L165.60 17.16Q166.11 20.99 166.11 24.76L165.95 24.60L166.04 24.68Q166.03 30.04 165.23 35.41L165.33 35.50L165.23 35.41Q166.88 35.26 167.41 35.26L167.55 35.40L167.41 35.26Q167.50 35.66 167.45 36.33L167.34 36.22L167.35 36.23Q167.41 37.01 167.41 37.35L167.41 37.36L167.41 37.36Q168.54 37.24 170.07 37.31L169.95 37.19L170.02 37.27Q171.02 37.39 172.85 37.54L172.75 37.45L172.84 37.54Q171.53 32.53 171.42 27.36L171.47 27.41L171.44 27.38Q171.23 21.99 171.77 17.08L171.74 17.06L171.73 17.05Q175.69 16.52 178.85 15.30L178.94 15.39L179.00 15.44Q179.58 12.94 180.61 10.89L180.70 10.98L180.57 10.85Q179.23 11.53 178.43 11.84L178.56 11.96L178.55 11.95Q178.93 10.62 179.50 9.47Z"/><path fill="#333" d="M62.57 18.33L62.56 18.32L62.55 18.31Q60.85 14.25 54.65 14.44L54.68 14.47L54.55 14.34Q50.28 14.61 48.30 16.05L48.19 15.94L48.27 16.02Q45.88 17.77 45.88 21.89L45.86 21.87L45.73 23.60L45.76 23.64Q45.78 32.49 54.81 32.49L54.94 32.62L54.82 32.50Q56.87 32.50 58.36 31.70L58.41 31.76L58.38 31.73Q60.25 30.74 60.10 28.87L60.08 28.86L60.00 28.78Q59.83 26.71 56.14 25.79L56.09 25.75L54.18 25.78L54.16 25.75Q53.31 25.86 52.36 25.90L52.25 25.79L52.33 25.87Q52.33 24.92 52.29 23.01L52.31 23.03L52.28 22.99Q59.95 23.02 64.14 22.68L64.14 22.68L64.09 22.63Q64.16 23.57 64.16 24.37L64.18 24.39L64.06 24.27Q64.03 25.04 64.06 25.84L64.18 25.96L64.22 25.99Q63.09 25.96 63.09 25.96L62.95 25.83L62.95 25.82Q61.63 25.88 62.01 25.88L61.93 25.80L61.91 25.78Q63.02 27.42 63.40 29.40L63.43 29.43L63.53 29.53Q63.62 30.23 63.62 30.69L63.55 30.61L63.69 30.75Q63.63 35.34 54.83 35.34L54.73 35.23L54.74 35.24Q47.75 35.37 45.16 33.28L45.12 33.24L45.16 33.27Q43.04 30.77 43.04 25.71L43.17 25.84L43.19 25.87Q43.04 24.65 42.89 21.95L43.05 22.11L42.93 21.98Q42.79 19.64 42.83 18.27L42.84 18.28L42.78 18.22Q42.87 15.34 44.24 13.74L44.39 13.89L44.39 13.89Q46.79 11.68 51.66 11.49L51.83 11.66L54.49 11.58L54.46 11.55Q57.55 11.44 60.98 11.86L60.99 11.88L60.91 11.79Q64.67 12.28 65.62 15.52L65.63 15.52L65.62 15.51Q64.58 16.41 62.48 18.24ZM63.92 20.48L64.03 20.47L64.02 20.46Q65.27 19.43 67.14 17.45L67.04 17.35L67.15 17.46Q66.82 16.49 65.83 14.78L65.77 14.72L65.78 14.73Q64.68 12.13 60.87 11.49L60.91 11.52L60.84 11.46Q58.63 11.27 54.33 10.96L54.41 11.05L51.79 11.25L51.65 11.10Q46.63 11.45 44.04 13.43L43.97 13.35L43.98 13.37Q42.62 15.02 42.51 18.10L42.50 18.09L42.54 18.13Q42.49 17.63 42.72 23.11L42.73 23.12L42.65 23.04Q42.75 24.47 42.82 27.21L42.76 27.15L42.78 27.17Q43.01 31.66 44.76 33.60L44.80 33.64L44.77 33.61Q45.05 34.34 45.92 35.22L46.05 35.34L46.07 35.37Q48.84 37.11 54.36 37.45L54.44 37.53L57.31 37.69L57.25 37.64Q58.98 37.88 60.99 37.77L61.02 37.79L60.89 37.67Q62.33 37.58 64.42 37.04L64.46 37.08L64.42 37.04Q66.37 36.55 66.33 34.23L66.37 34.27L66.29 34.20Q66.43 33.08 65.36 30.30L65.40 30.33L65.21 30.15Q65.09 29.41 64.55 28.61L64.39 28.45L64.52 28.58Q64.99 28.47 66.17 28.66L66.17 28.66L66.32 28.82Q66.03 25.21 66.07 24.53L65.99 24.45L65.98 24.44Q65.54 24.38 65.12 24.34L65.20 24.42L65.21 24.44Q64.91 24.47 64.53 24.55L64.42 24.45L64.48 24.50Q64.41 23.33 64.49 22.26L64.52 22.30L64.54 22.31Q58.24 22.79 51.96 22.68L51.90 22.62L52.00 22.72Q52.00 23.59 52.00 24.50L52.04 24.55L51.98 26.24L52.04 26.30Q52.42 26.30 52.84 26.26L52.88 26.31L52.81 26.24Q53.15 26.15 53.60 26.15L53.57 26.12L53.66 26.21Q53.58 26.58 53.61 27.07L53.73 27.19L53.77 27.23Q53.61 27.53 53.57 28.02L53.72 28.17L53.57 28.02Q54.74 28.13 55.77 28.09L55.76 28.08L55.69 28.01Q56.74 28.03 57.77 28.07L57.83 28.13L57.84 28.14Q58.78 28.28 59.65 28.66L59.70 28.70L59.65 28.69L59.65 28.69Q59.90 30.31 58.22 31.23L58.31 31.32L58.17 31.17Q56.60 32.19 54.89 32.19L54.82 32.12L54.83 32.13Q50.96 32.11 48.53 30.36L48.58 30.42L48.54 30.37Q47.69 28.46 47.85 25.91L47.71 25.78L47.80 25.86Q47.96 20.93 49.81 18.93L49.83 18.95L49.97 19.09Q51.67 16.94 56.35 16.64L56.49 16.78L56.39 16.68Q60.00 16.41 61.94 18.20L61.95 18.20L61.99 18.24Q62.14 18.43 62.25 18.62L62.19 18.55L62.25 18.50L62.42 18.67Q62.96 19.32 63.53 20.43L63.61 20.51L63.96 20.52Z"/><path fill="#444" d="M73.83 9.30L73.77 9.23L73.83 9.30Q77.60 11.81 82.36 12.04L82.38 12.06L82.41 12.09Q87.00 12.23 91.27 10.48L91.35 10.56L91.26 10.47Q91.04 11.05 90.27 13.83L90.32 13.87L90.32 13.87Q87.49 14.81 84.52 14.96L84.62 15.06L84.51 14.95Q81.65 15.21 78.76 14.49L78.70 14.44L78.61 14.34Q79.42 18.09 79.61 21.74L79.58 21.71L79.68 21.81Q81.70 22.04 83.30 22.00L83.27 21.97L83.16 21.86Q84.49 21.97 86.89 21.86L86.84 21.81L86.73 21.70Q86.83 22.48 86.83 23.17L86.78 23.12L86.69 24.36L86.88 24.55Q84.42 24.49 79.62 24.57L79.50 24.45L79.64 24.58Q79.66 28.72 79.09 32.71L78.94 32.57L78.92 32.55Q81.58 31.93 84.32 32.04L84.36 32.08L84.37 32.09Q87.02 32.12 89.61 32.95L89.74 33.08L89.61 32.96Q89.75 33.82 90.02 34.58L90.11 34.67L90.38 36.01L90.50 36.13Q87.27 34.80 83.84 34.80L83.87 34.83L83.91 34.87Q79.01 34.84 74.74 37.09L74.76 37.11L74.75 37.10Q77.05 30.26 76.79 23.14L76.75 23.11L76.73 23.08Q76.53 16.00 73.87 9.33ZM74.24 37.80L74.22 37.79L74.23 37.79Q75.47 37.06 76.24 36.71L76.21 36.68L76.15 36.62Q75.99 37.42 75.42 38.94L75.48 39.00L75.41 38.93Q80.01 37.02 85.07 37.29L85.08 37.30L85.15 37.37Q90.20 37.54 94.20 40.25L94.31 40.36L94.18 40.23Q93.10 37.78 92.41 35.84L92.38 35.80L92.43 35.86Q91.39 35.19 90.40 34.85L90.42 34.87L90.38 34.83Q89.96 33.42 89.80 32.62L89.82 32.64L89.85 32.67Q86.82 31.73 83.66 31.73L83.62 31.69L83.65 31.72Q82.48 31.69 81.34 31.80L81.33 31.79L81.31 31.78Q81.50 30.59 81.54 29.38L81.43 29.27L81.65 26.90L81.64 26.89Q83.36 26.71 85.15 26.75L85.25 26.85L85.13 26.73Q87.01 26.81 88.80 26.96L88.80 26.97L88.79 26.96Q88.80 26.09 88.80 25.14L88.67 25.01L88.82 23.26L87.94 23.26L87.82 23.14Q87.44 23.25 86.99 23.25L86.96 23.22L87.02 23.28Q86.95 22.53 87.10 21.24L87.10 21.24L87.13 21.27Q85.53 21.49 84.35 21.53L84.37 21.55L84.34 21.52Q83.47 21.60 81.64 21.52L81.69 21.57L81.60 21.48Q81.57 20.12 81.38 17.30L81.38 17.31L81.41 17.33Q82.37 17.38 83.36 17.38L83.32 17.34L83.30 17.32Q88.19 17.49 91.89 15.59L91.88 15.58L91.76 15.46Q92.29 13.07 93.17 10.86L93.29 10.97L93.31 11.00Q91.98 11.84 91.14 12.18L91.07 12.11L91.01 12.05Q91.45 11.43 91.91 9.87L91.81 9.76L91.77 9.72Q87.28 12.01 82.41 11.71L82.29 11.59L82.41 11.71Q77.06 11.34 73.21 8.49L73.23 8.51L73.15 8.42Q76.09 15.44 76.39 23.05L76.48 23.14L76.31 22.96Q76.80 31.07 74.28 37.85Z"/><path fill="#222" d="M108.14 21.81L108.12 21.79L108.12 21.79Q109.87 21.90 111.70 21.90L111.74 21.95L111.77 21.98Q113.51 21.93 115.34 21.77L115.46 21.90L115.31 21.74Q115.27 22.47 115.27 23.20L115.35 23.27L115.20 24.45L115.21 24.46Q112.93 24.55 108.17 24.66L108.06 24.55L108.23 24.72Q108.19 30.62 107.05 35.61L107.03 35.59L107.06 35.61Q104.84 36.29 103.36 37.09L103.36 37.09L103.32 37.06Q105.63 30.23 105.37 23.11L105.40 23.15L105.29 23.03Q105.21 16.06 102.54 9.40L102.41 9.27L102.42 9.28Q106.06 11.78 110.82 12.01L110.87 12.06L110.90 12.08Q115.61 12.30 119.76 10.55L119.68 10.47L119.63 10.42Q119.38 11.28 119.16 12.08L119.12 12.05L118.72 13.74L118.62 13.64Q116.09 14.92 113.12 15.07L113.09 15.04L113.08 15.03Q110.15 15.18 107.30 14.46L107.24 14.40L107.16 14.32Q108.06 17.93 108.25 21.92ZM120.31 9.77L120.33 9.79L120.25 9.71Q115.74 11.94 110.87 11.63L110.92 11.69L110.84 11.60Q105.45 11.24 101.72 8.38L101.78 8.45L101.78 8.44Q104.77 15.51 105.08 23.13L104.91 22.96L104.93 22.98Q105.24 30.90 102.73 37.68L102.73 37.68L102.91 37.87Q103.46 37.34 104.83 36.70L104.92 36.79L104.80 36.67Q104.74 37.56 104.17 39.09L104.10 39.01L104.02 38.93Q106.34 37.87 109.23 37.37L109.26 37.40L109.20 37.34Q109.84 32.49 110.03 26.78L110.01 26.77L110.00 26.76Q111.92 26.85 113.75 26.85L113.76 26.86L113.63 26.73Q115.42 26.73 117.25 26.92L117.29 26.96L117.38 27.05Q117.23 26.07 117.23 25.15L117.14 25.06L117.15 23.17L117.28 23.30Q116.53 23.43 115.69 23.43L115.66 23.39L115.68 23.41Q115.69 22.55 115.77 21.52L115.60 21.35L115.70 21.45Q114.26 21.57 112.85 21.57L112.95 21.67L112.83 21.55Q111.45 21.58 110.08 21.55L110.08 21.55L109.96 19.29L110.01 19.34Q109.99 18.26 109.88 17.19L109.87 17.18L109.84 17.16Q110.83 17.23 111.82 17.23L111.91 17.32L111.91 17.32Q116.74 17.39 120.35 15.49L120.19 15.32L120.25 15.38Q120.78 13.59 121.69 10.96L121.64 10.91L121.70 10.97Q120.42 11.82 119.62 12.17L119.54 12.08L119.63 12.17Q119.81 11.33 120.31 9.77Z"/><path fill="#111" d="M17.15 33.91L17.14 33.90L17.21 33.97Q19.09 31.59 23.85 24.32L23.78 24.25L23.77 24.24Q27.95 18.18 30.81 14.91L30.79 14.89L30.64 14.74Q28.66 15.16 26.57 15.16L26.61 15.21L26.47 15.06Q21.33 15.18 17.34 13.39L17.23 13.28L17.38 13.44Q16.53 11.33 15.84 9.77L16.00 9.92L15.84 9.77Q20.41 11.93 26.08 12.05L26.20 12.16L26.07 12.03Q31.20 12.10 36.38 10.20L36.42 10.25L36.45 10.27Q36.08 11.12 35.77 11.92L35.85 11.99L35.15 13.47L35.18 13.50Q32.06 17.07 28.06 22.90L28.23 23.06L24.84 27.83L24.73 27.71Q23.07 30.16 21.24 32.44L21.25 32.45L21.34 32.55Q24.70 31.99 28.01 32.06L27.88 31.93L27.89 31.94Q31.32 32.13 34.48 33.04L34.50 33.07L35.04 34.71L34.94 34.62Q35.13 35.37 35.47 36.21L35.57 36.31L35.54 36.28Q30.92 34.74 25.78 34.93L25.71 34.86L25.67 34.82Q20.65 35.13 16.16 37.15L16.15 37.14L16.08 37.07Q16.41 35.95 17.14 33.90ZM15.43 37.72L15.57 37.85L15.52 37.80Q16.77 37.23 17.57 36.97L17.42 36.82L17.59 36.98Q17.20 37.62 16.52 39.14L16.61 39.24L16.59 39.21Q22.30 37.09 28.28 37.32L28.25 37.28L28.16 37.19Q34.59 37.54 39.62 40.32L39.54 40.24L39.60 40.30Q38.28 37.99 37.48 35.82L37.43 35.77L37.43 35.77Q36.98 35.59 35.46 35.02L35.44 35.00L35.29 34.84Q35.15 34.14 34.73 32.65L34.78 32.70L34.79 32.71Q30.58 31.47 25.48 31.66L25.51 31.69L25.47 31.65Q27.66 28.97 31.20 23.41L31.21 23.42L31.13 23.34Q34.80 17.65 36.71 15.10L36.64 15.03L36.64 15.03Q37.25 13.73 38.27 11.03L38.20 10.95L38.29 11.04Q37.52 11.31 36.08 11.92L36.18 12.02L36.04 11.87Q36.49 11.18 37.21 9.66L37.13 9.58L37.12 9.57Q31.88 11.79 26.17 11.72L26.16 11.71L26.24 11.79Q20.10 11.50 15.15 8.99L15.21 9.05L15.17 9.02Q16.40 11.46 17.12 13.71L17.01 13.60L16.99 13.58Q18.21 14.23 19.01 14.46L19.06 14.50L19.06 14.50Q19.27 15.13 19.53 16.58L19.44 16.48L19.59 16.64Q23.34 17.72 28.22 17.53L28.13 17.44L28.14 17.46Q25.83 20.74 22.51 25.73L22.38 25.59L16.84 33.91L16.89 33.96Q16.45 35.15 15.42 37.70Z"/><path d="M15 31 C109 5,108 17,197 21" stroke="#777" fill="none"/><path d="M16 27 C112 17,84 15,185 11" stroke="#333" fill="none"/><path fill="#444" d="M138.46 24.13L138.50 24.17L138.57 24.24Q136.70 24.23 135.48 25.56L135.40 25.49L135.50 25.58Q134.17 26.81 134.02 28.71L133.97 28.66L134.02 28.71Q133.92 30.94 135.14 31.95L135.09 31.90L135.08 31.88Q136.35 32.95 138.49 32.87L138.34 32.73L138.45 32.83Q140.84 32.75 141.79 31.80L141.81 31.82L141.72 31.74Q142.82 30.36 142.70 28.53L142.55 28.38L142.72 28.54Q142.59 26.66 141.50 25.46L141.47 25.43L141.34 25.30Q140.32 24.16 138.49 24.16ZM138.42 14.68L138.40 14.67L138.49 14.76Q137.13 14.69 135.80 15.19L135.66 15.05L135.67 15.06Q134.34 15.83 134.57 17.69L134.62 17.74L134.73 17.85Q135.07 21.43 138.42 21.43L138.58 21.58L138.52 21.53Q140.15 21.79 141.14 20.65L141.08 20.59L141.05 20.55Q142.13 19.50 142.17 17.94L142.06 17.83L142.13 17.90Q142.08 16.03 141.36 15.42L141.37 15.43L141.48 15.54Q139.80 14.70 138.51 14.78ZM138.16 35.25L138.29 35.38L135.17 35.31L135.11 35.25Q133.64 35.31 132.31 34.43L132.35 34.47L132.29 34.41Q130.90 33.24 131.05 30.39L131.11 30.45L131.12 30.46Q131.53 23.56 135.15 22.57L135.23 22.65L135.14 22.56Q132.85 21.64 131.52 16.27L131.62 16.38L131.58 16.34Q131.26 14.95 131.33 14.15L131.34 14.15L131.38 14.19Q131.53 11.91 135.23 11.88L135.34 11.98L135.34 11.99Q139.54 11.89 140.99 12.08L141.02 12.11L140.88 11.97Q144.86 12.64 145.32 14.66L145.16 14.50L145.18 14.52Q145.32 15.15 145.32 15.53L145.35 15.56L145.33 15.55Q145.38 16.28 145.19 16.89L145.25 16.95L145.08 16.78Q144.48 21.02 141.55 22.54L141.65 22.64L141.71 22.69Q145.20 23.49 145.70 28.78L145.72 28.81L145.67 28.75Q145.71 28.94 145.75 30.24L145.68 30.17L145.68 30.17Q145.78 32.94 144.18 34.00L144.18 34.00L144.23 34.06Q142.88 34.94 138.31 35.40ZM140.50 37.63L140.41 37.54L143.89 37.74L143.84 37.70Q145.48 37.70 147.00 36.97L147.01 36.98L147.10 37.07Q148.16 36.27 148.24 34.40L148.32 34.48L148.33 34.49Q148.37 33.40 147.99 31.46L147.97 31.43L147.94 31.40Q147.00 26.73 144.90 24.86L144.92 24.88L144.85 24.62L144.50 24.20L144.38 23.96L144.49 24.07Q146.10 22.67 147.01 18.52L146.93 18.44L146.87 18.38Q147.00 18.13 147.08 17.29L147.01 17.22L146.97 17.18Q147.16 16.61 147.08 16.00L147.11 16.03L147.09 16.01Q146.83 14.46 145.65 13.96L145.64 13.96L145.77 14.04L145.48 13.83L145.56 13.91Q145.36 13.25 144.18 12.46L144.11 12.38L144.24 12.47L144.06 12.29Q142.18 11.71 138.11 11.52L138.11 11.52L138.15 11.56Q136.48 11.34 135.11 11.45L135.16 11.50L135.13 11.48Q134.34 11.52 133.04 11.67L133.00 11.63L133.11 11.74Q131.22 12.17 131.00 13.81L130.88 13.70L130.99 13.80Q130.77 14.12 130.81 14.92L130.95 15.06L130.85 14.96Q131.10 15.63 131.67 17.99L131.54 17.86L131.58 17.90Q132.44 21.19 134.19 22.52L134.23 22.57L134.30 22.63L134.12 22.46Q131.48 23.89 130.94 29.06L130.84 28.96L130.88 29.00Q130.71 31.23 130.71 32.14L130.76 32.19L130.69 32.12Q130.89 34.03 132.07 34.95L132.04 34.92L131.96 34.83Q132.07 34.91 132.33 35.10L132.41 35.18L132.34 35.11Q133.45 37.47 140.57 37.70ZM140.09 26.48L140.09 26.48L140.09 26.48Q141.17 26.57 142.04 27.03L141.85 26.84L141.95 26.93Q142.30 27.90 142.26 28.43L142.33 28.49L142.32 28.49Q142.29 28.72 142.29 29.02L142.42 29.16L142.32 29.06Q142.31 31.40 140.02 32.24L140.04 32.26L140.12 32.34Q139.33 32.66 138.53 32.54L138.49 32.50L138.51 32.52Q137.37 32.59 136.22 32.14L136.10 32.01L136.21 32.12Q135.87 31.40 135.95 30.41L135.98 30.44L135.94 30.41Q136.14 28.86 137.34 27.64L137.26 27.55L137.31 27.61Q138.56 26.44 140.16 26.56ZM140.44 17.12L140.46 17.15L140.30 16.99Q141.24 17.02 141.78 17.17L141.78 17.18L141.74 17.93L141.64 17.83Q141.78 19.38 140.87 20.39L140.71 20.24L140.79 20.32Q139.97 21.41 138.59 21.22L138.46 21.09L138.54 21.17Q137.53 21.15 137.11 20.92L137.16 20.96L137.10 20.91Q137.10 20.67 136.98 19.99L137.00 20.00L136.86 19.87Q136.63 18.49 137.85 17.66L137.89 17.70L137.97 17.78Q138.90 16.96 140.31 17.00Z"/></svg>