<svg xmlns="http://www.w3.org/2000/svg" width="200" height="40" viewBox="0,0,200,40"><path fill="#111" d="M149.24 18.14L149.10 18.00L149.22 18.12Q147.25 20.68 144.58 26.32L144.73 26.46L142.66 30.64L142.71 30.68Q141.86 32.62 140.53 34.86L140.51 34.84L140.38 34.71Q141.03 34.90 139.35 34.94L139.16 34.75L139.35 34.94Q139.28 34.87 138.02 34.87L137.91 34.76L138.00 34.84Q137.30 33.38 134.37 26.22L134.27 26.13L134.34 26.20Q132.12 20.78 130.03 17.77L130.02 17.77L130.07 17.81Q130.91 20.98 130.91 24.14L130.80 24.03L130.78 24.01Q130.93 30.67 127.96 36.23L127.86 36.13L127.84 36.11Q126.58 36.52 124.22 37.24L124.09 37.11L124.26 37.29Q127.81 31.47 127.81 24.24L127.89 24.32L127.90 24.32Q127.92 15.40 122.52 8.44L122.57 8.49L122.44 8.36Q124.01 9.02 126.37 9.70L126.46 9.79L126.45 9.79Q133.55 16.57 139.64 29.90L139.55 29.81L139.70 29.96Q143.04 22.79 145.25 19.29L145.22 19.26L145.39 19.43Q148.93 13.60 152.89 10.14L152.79 10.04L152.75 10.00Q154.09 9.86 156.45 9.10L156.37 9.02L156.42 9.06Q151.43 15.69 151.43 24.29L151.49 24.35L151.52 24.38Q151.50 31.03 154.93 36.55L154.95 36.57L154.86 36.48Q153.59 36.23 150.85 35.62L150.78 35.56L150.92 35.70Q148.56 30.90 148.56 24.92L148.40 24.76L148.46 24.82Q148.40 21.34 149.09 17.99ZM150.61 35.96L150.60 35.95L150.67 36.02Q151.41 36.19 152.86 36.46L152.73 36.32L152.76 36.35Q153.28 37.18 154.23 38.66L154.09 38.52L154.27 38.70Q156.37 39.09 159.84 40.31L159.72 40.19L159.80 40.27Q153.56 33.96 153.56 24.13L153.52 24.10L153.46 24.04Q153.49 16.34 157.87 10.21L157.91 10.26L155.76 11.00L155.64 10.88Q156.59 9.28 157.24 8.40L157.37 8.53L157.39 8.55Q155.50 9.17 152.87 9.70L152.81 9.65L152.75 9.59Q145.98 15.68 139.93 28.28L139.99 28.34L139.94 28.30Q134.86 17.43 129.91 12.18L129.86 12.12L129.89 12.15Q129.57 12.14 129.00 12.03L129.04 12.07L127.76 10.71L127.77 10.72Q127.12 9.99 126.43 9.38L126.43 9.38L126.51 9.46Q123.37 8.37 121.58 7.65L121.71 7.78L121.73 7.80Q127.67 14.96 127.67 24.37L127.67 24.36L127.59 24.29Q127.53 31.84 123.38 37.70L123.48 37.80L123.40 37.71Q124.13 37.54 125.43 37.12L125.53 37.22L125.51 37.20Q125.38 37.45 123.97 39.55L123.88 39.45L123.84 39.41Q125.72 39.01 129.22 38.25L129.26 38.29L129.11 38.14Q132.90 31.16 132.71 23.39L132.81 23.49L132.72 23.40Q134.18 27.34 137.65 35.22L137.64 35.21L137.81 35.38Q137.93 35.19 138.16 35.19L138.25 35.29L138.68 35.18L138.65 35.15Q139.10 35.83 139.90 37.12L140.01 37.24L139.96 37.19Q141.67 37.26 141.67 37.26L141.72 37.30L141.68 37.27Q142.57 37.13 143.21 37.20L143.29 37.28L143.17 37.16Q144.83 33.22 148.18 25.23L148.08 25.13L148.23 25.28Q148.10 30.71 150.69 36.04Z"/><path fill="#222" d="M51.49 21.73L51.61 21.85L51.62 21.87Q53.36 21.96 55.19 21.96L55.18 21.95L55.12 21.90Q56.95 21.94 58.78 21.79L58.86 21.87L58.91 21.92Q58.73 22.50 58.73 23.23L58.79 23.28L58.79 24.62L58.61 24.43Q56.32 24.51 51.56 24.62L51.53 24.59L51.68 24.74Q51.53 30.53 50.39 35.51L50.54 35.67L50.35 35.48Q48.19 36.21 46.70 37.01L46.68 36.99L46.73 37.04Q49.11 30.28 48.84 23.16L48.90 23.22L48.80 23.11Q48.46 15.88 45.79 9.22L45.86 9.29L45.90 9.33Q49.52 11.80 54.27 12.03L54.34 12.10L54.36 12.12Q58.88 12.15 63.03 10.39L63.17 10.53L63.16 10.52Q62.76 11.23 62.53 12.03L62.72 12.22L62.14 13.73L62.08 13.67Q59.46 14.86 56.49 15.01L56.40 14.91L56.56 15.07Q53.43 15.03 50.58 14.31L50.65 14.38L50.61 14.34Q51.37 17.81 51.56 21.81ZM63.80 9.83L63.71 9.74L63.83 9.86Q59.07 11.84 54.20 11.54L54.34 11.68L54.34 11.68Q48.88 11.24 45.15 8.39L45.25 8.49L45.18 8.41Q48.19 15.50 48.49 23.11L48.34 22.96L48.39 23.01Q48.70 30.94 46.19 37.71L46.28 37.80L46.17 37.70Q46.80 37.26 48.17 36.61L48.19 36.63L48.34 36.78Q48.15 37.54 47.58 39.06L47.42 38.90L47.50 38.98Q49.82 37.91 52.71 37.42L52.79 37.50L52.75 37.46Q53.35 32.57 53.54 26.86L53.58 26.90L53.57 26.90Q55.41 26.91 57.23 26.91L57.20 26.87L57.23 26.90Q58.90 26.78 60.72 26.97L60.86 27.10L60.76 27.01Q60.61 26.02 60.61 25.11L60.74 25.24L60.55 23.14L60.65 23.24Q59.94 23.41 59.11 23.41L59.03 23.34L59.08 23.38Q59.13 22.56 59.21 21.53L59.07 21.39L59.13 21.46Q57.67 21.55 56.26 21.55L56.33 21.62L56.37 21.67Q54.97 21.67 53.60 21.63L53.53 21.57L53.48 19.39L53.58 19.49Q53.47 18.30 53.35 17.24L53.24 17.13L53.26 17.14Q54.30 17.27 55.29 17.27L55.35 17.33L55.34 17.33Q59.99 17.22 63.61 15.31L63.66 15.36L63.70 15.41Q64.12 13.51 65.04 10.88L65.10 10.94L65.12 10.96Q63.79 11.77 62.99 12.11L63.05 12.16L62.99 12.10Q63.34 11.42 63.83 9.86Z"/><path d="M6 39 C86 28,85 36,179 27" stroke="#444" fill="none"/><path fill="#222" d="M164.00 25.63L163.94 25.57L164.09 25.72Q163.95 25.58 167.34 25.54L167.42 25.63L167.30 25.51Q169.62 25.54 170.69 25.58L170.68 25.58L170.65 25.54Q169.61 22.67 167.17 17.04L167.27 17.14L167.20 17.07Q166.68 18.53 165.64 21.38L165.67 21.42L165.56 21.31Q164.58 24.23 164.01 25.64ZM171.83 28.09L171.84 28.11L171.88 28.14Q169.52 28.03 167.31 28.07L167.31 28.06L167.43 28.19Q165.19 28.23 162.91 28.42L162.86 28.37L162.89 28.41Q161.24 31.70 158.00 35.89L158.07 35.96L158.01 35.90Q155.50 36.59 154.13 37.08L154.15 37.10L154.15 37.10Q159.19 31.37 163.88 18.01L163.85 17.98L163.98 18.11Q165.15 14.60 166.52 11.36L166.56 11.40L166.54 11.38Q166.90 11.44 167.24 11.44L167.24 11.44L167.85 11.32L168.02 11.49Q168.62 12.70 173.45 24.35L173.46 24.36L173.58 24.47Q176.81 32.27 180.80 36.42L180.83 36.44L180.74 36.36Q180.19 36.19 176.31 35.31L176.32 35.33L176.39 35.39Q173.90 32.33 171.92 28.18ZM176.39 35.81L176.35 35.77L176.89 35.81L176.94 35.87Q177.17 35.87 177.47 35.98L177.48 35.99L177.35 35.86Q177.73 36.27 179.55 38.29L179.55 38.29L179.70 38.44Q183.33 39.32 185.73 40.35L185.62 40.25L185.58 40.20Q180.13 35.70 176.13 27.71L176.11 27.69L176.10 27.68Q174.53 24.44 173.09 20.48L173.13 20.52L170.37 13.01L170.39 13.02Q169.99 12.97 169.76 12.97L169.80 13.01L169.29 13.02L169.28 13.01Q168.96 12.39 168.24 11.02L168.13 10.92L168.16 10.94Q167.62 10.94 167.16 10.90L167.22 10.96L167.31 11.05Q166.86 11.01 166.32 11.01L166.15 10.84L166.22 10.91Q164.87 14.89 160.98 25.05L160.97 25.04L160.99 25.06Q157.78 32.92 153.13 37.72L153.28 37.87L153.14 37.73Q154.18 37.32 156.19 36.71L156.20 36.72L156.19 36.70Q155.45 37.60 153.89 39.39L154.01 39.51L153.92 39.42Q155.60 38.73 159.52 37.97L159.48 37.94L159.58 38.04Q163.05 33.74 164.61 30.50L164.57 30.46L164.46 30.35Q166.38 30.40 168.70 30.44L168.55 30.30L168.59 30.34Q171.23 30.27 172.60 30.35L172.75 30.50L172.73 30.48Q174.00 32.85 176.36 35.79ZM168.56 21.02L168.55 21.00L168.65 21.11Q169.36 23.03 170.12 25.12L170.18 25.18L166.84 25.15L166.86 25.18Q167.41 23.72 168.48 20.94Z"/><path fill="#333" d="M102.21 9.39L102.06 9.24L102.09 9.27Q105.87 11.80 110.63 12.02L110.78 12.18L110.77 12.16Q115.21 12.15 119.47 10.40L119.60 10.53L119.54 10.46Q119.35 11.07 118.59 13.85L118.60 13.86L118.67 13.93Q115.86 14.89 112.89 15.04L112.79 14.95L112.95 15.10Q109.81 15.09 106.92 14.36L107.04 14.49L106.95 14.40Q107.70 18.08 107.89 21.73L107.86 21.70L107.90 21.74Q109.88 21.93 111.47 21.89L111.58 22.00L111.55 21.97Q112.73 21.93 115.13 21.81L115.12 21.80L115.14 21.83Q115.06 22.43 115.06 23.12L115.16 23.22L114.98 24.37L115.02 24.40Q112.72 24.51 107.92 24.58L107.94 24.60L107.89 24.55Q107.91 28.68 107.34 32.68L107.24 32.58L107.34 32.68Q110.01 32.08 112.75 32.19L112.64 32.08L112.76 32.20Q115.29 32.11 117.88 32.94L117.86 32.92L117.97 33.03Q118.00 33.78 118.26 34.54L118.38 34.66L118.76 36.10L118.75 36.10Q115.59 34.83 112.16 34.83L112.19 34.86L112.12 34.79Q107.34 34.89 103.08 37.13L102.93 36.98L102.95 37.01Q105.40 30.32 105.13 23.20L105.07 23.14L104.99 23.05Q104.82 15.99 102.15 9.33ZM102.43 37.71L102.42 37.69L102.52 37.80Q103.82 37.12 104.58 36.77L104.45 36.65L104.60 36.80Q104.34 37.48 103.77 39.00L103.78 39.01L103.78 39.02Q108.23 36.96 113.29 37.23L113.40 37.33L113.26 37.20Q118.51 37.57 122.51 40.27L122.51 40.27L122.44 40.21Q121.36 37.75 120.67 35.81L120.71 35.84L120.65 35.79Q119.71 35.23 118.72 34.89L118.70 34.87L118.75 34.92Q118.25 33.43 118.10 32.63L118.19 32.72L118.09 32.62Q115.08 31.70 111.92 31.70L111.95 31.73L111.91 31.70Q110.72 31.64 109.58 31.76L109.65 31.83L109.70 31.88Q109.64 30.45 109.67 29.23L109.75 29.30L109.91 26.87L109.75 26.72Q111.72 26.78 113.51 26.82L113.52 26.83L113.48 26.79Q115.22 26.74 117.01 26.89L117.11 26.99L117.03 26.92Q117.09 26.09 117.09 25.14L117.10 25.16L117.03 23.18L116.26 23.28L116.21 23.24Q115.73 23.26 115.28 23.26L115.40 23.38L115.30 23.28Q115.41 22.70 115.56 21.41L115.55 21.39L115.52 21.37Q113.93 21.61 112.75 21.64L112.66 21.55L112.71 21.60Q111.82 21.66 109.99 21.59L109.94 21.54L109.85 21.45Q109.83 20.10 109.64 17.28L109.60 17.24L109.74 17.38Q110.70 17.42 111.68 17.42L111.76 17.50L111.72 17.45Q116.38 17.39 120.07 15.49L120.04 15.46L120.06 15.48Q120.59 13.07 121.46 10.87L121.49 10.89L121.62 11.02Q120.28 11.85 119.44 12.20L119.43 12.19L119.41 12.16Q119.75 11.44 120.21 9.88L120.14 9.81L120.22 9.89Q115.44 11.89 110.57 11.58L110.71 11.72L110.54 11.55Q105.26 11.26 101.41 8.40L101.51 8.50L101.52 8.51Q104.30 15.36 104.60 22.97L104.77 23.14L104.72 23.09Q104.98 30.96 102.47 37.74Z"/><path d="M18 27 C119 32,113 11,195 17" stroke="#222" fill="none"/><path fill="#444" d="M85.17 34.92L85.11 34.85L83.07 34.75L83.15 34.83Q82.25 34.88 81.30 35.00L81.22 34.92L81.35 35.05Q81.84 28.76 81.84 24.77L81.83 24.76L81.89 24.82Q77.91 18.13 70.26 9.45L70.25 9.45L70.28 9.47Q72.04 10.44 75.39 11.24L75.31 11.16L75.41 11.25Q80.43 16.81 83.43 22.02L83.43 22.02L83.49 22.08Q86.48 16.50 90.86 11.48L90.80 11.42L90.85 11.47Q93.22 11.02 95.73 10.22L95.74 10.23L95.65 10.14Q89.73 16.37 84.86 24.78L84.82 24.74L84.85 24.77Q84.82 31.78 85.12 34.87ZM94.15 12.21L96.91 9.42L96.99 9.50Q93.74 10.51 90.62 10.97L90.78 11.13L90.79 11.14Q86.51 15.81 83.69 20.91L83.63 20.85L83.61 20.83Q81.59 17.28 78.39 13.40L78.38 13.39L78.26 13.27Q77.98 13.25 77.48 13.18L77.48 13.18L77.64 13.34Q76.98 12.56 75.46 10.89L75.44 10.87L75.40 10.83Q71.97 10.02 69.00 8.46L69.02 8.48L68.97 8.43Q76.68 16.90 81.44 24.82L81.45 24.84L81.40 24.79Q81.41 31.23 80.80 35.38L80.72 35.30L80.81 35.39Q81.48 35.30 82.93 35.18L82.94 35.20L82.91 36.19L83.04 36.32Q82.90 36.64 82.83 37.17L82.92 37.27L82.83 37.18Q86.45 37.26 88.20 37.45L88.18 37.43L88.24 37.48Q86.99 32.81 86.88 26.84L86.77 26.73L86.78 26.74Q91.16 18.29 97.71 10.94L97.72 10.96L94.26 12.33Z"/><path fill="#444" d="M27.89 27.24L18.52 17.11L18.64 17.23Q19.47 20.91 19.47 24.64L19.30 24.48L19.46 24.64Q19.31 30.46 17.25 36.02L17.36 36.12L17.27 36.03Q16.29 36.38 14.04 37.14L13.99 37.09L14.11 37.21Q16.86 31.36 16.86 24.66L16.82 24.62L16.79 24.59Q16.89 16.04 12.39 8.62L12.41 8.64L12.28 8.51Q12.84 8.80 13.53 9.22L13.36 9.05L13.46 9.15Q25.50 20.32 33.35 29.57L33.47 29.70L33.37 29.60Q33.04 27.13 33.04 24.70L33.13 24.78L33.17 24.83Q33.13 17.55 35.64 11.35L35.54 11.24L35.54 11.24Q37.85 10.70 39.45 10.02L39.51 10.08L39.49 10.06Q36.16 16.21 35.86 23.36L36.01 23.52L35.97 23.47Q35.64 30.80 38.61 36.97L38.54 36.90L38.67 37.03Q38.03 36.89 37.61 36.69L37.53 36.61L37.66 36.74Q33.06 32.75 27.84 27.19L27.82 27.17ZM41.19 40.11L41.14 40.07L41.28 40.20Q41.72 40.35 42.14 40.54L42.02 40.42L42.98 40.88L42.99 40.89Q37.78 33.89 37.78 24.52L37.78 24.52L37.81 24.55Q37.80 17.31 41.11 11.07L41.14 11.10L41.11 11.07Q40.55 11.38 39.14 11.99L39.06 11.91L39.06 11.91Q39.51 11.14 40.35 9.58L40.35 9.59L40.28 9.51Q37.76 10.34 35.32 10.91L35.30 10.90L35.29 10.88Q32.80 17.49 32.80 24.91L32.70 24.81L32.68 24.79Q32.68 26.66 32.87 28.64L32.99 28.76L32.88 28.65Q28.28 23.02 23.52 18.42L23.42 18.31L13.45 8.73L13.51 8.79Q12.88 8.42 11.67 7.85L11.61 7.80L11.55 7.74Q16.53 15.57 16.53 24.67L16.55 24.70L16.59 24.73Q16.60 31.86 13.52 37.88L13.35 37.71L13.37 37.73Q13.64 37.58 15.28 36.97L15.31 37.00L15.40 37.09Q15.15 37.95 14.31 39.43L14.19 39.31L14.29 39.41Q15.53 38.78 18.99 37.98L18.97 37.96L19.04 38.03Q21.34 31.88 21.34 24.68L21.25 24.59L21.35 24.69Q21.38 22.63 21.15 20.50L21.14 20.48L21.12 20.46Q32.63 33.31 41.23 40.16Z"/></svg>