<svg xmlns="http://www.w3.org/2000/svg" width="200" height="40" viewBox="0,0,200,40"><path d="M9 1 C105 7,87 14,199 22" stroke="#666" fill="none"/><path d="M2 37 C81 18,102 12,181 5" stroke="#444" fill="none"/><path fill="#222" d="M110.27 14.61L110.35 14.70L108.67 14.69L108.69 14.71Q106.43 14.81 106.20 16.82L106.33 16.96L106.19 16.82Q106.14 17.56 106.17 18.55L106.26 18.64L106.27 18.65Q106.22 20.50 107.47 21.83L107.43 21.78L107.53 21.89Q108.84 23.28 110.75 23.13L110.70 23.08L110.60 22.97Q112.81 22.98 113.57 22.06L113.55 22.04L113.52 22.02Q114.64 21.15 114.90 18.90L114.78 18.78L114.88 18.88Q115.04 16.52 113.78 15.69L113.92 15.83L113.75 15.66Q112.87 14.85 110.20 14.55ZM116.34 23.89L116.38 23.92L115.04 26.16L115.11 26.23Q112.38 31.00 108.61 35.07L108.57 35.04L108.49 34.95Q106.99 35.24 104.29 36.04L104.31 36.06L104.15 35.90Q109.53 29.68 112.69 24.88L112.72 24.91L112.80 24.99Q111.74 25.60 110.10 25.67L109.97 25.55L109.97 25.54Q107.00 25.74 105.48 23.76L105.55 23.83L105.49 23.77Q104.38 22.28 103.28 17.71L103.14 17.57L103.19 17.63Q103.20 17.18 103.05 16.25L102.98 16.18L103.07 16.26Q102.80 15.22 102.80 14.76L102.95 14.91L103.00 14.96Q102.97 13.13 104.03 12.53L103.95 12.44L103.95 12.44Q105.13 11.64 106.99 11.64L106.98 11.63L106.98 11.63Q110.29 11.74 110.29 11.74L110.33 11.78L110.17 11.62Q112.48 11.80 113.74 11.99L113.61 11.86L113.70 11.96Q115.86 12.25 116.77 12.74L116.74 12.71L116.73 12.70Q118.11 13.47 118.30 15.22L118.26 15.18L118.34 15.26Q118.26 15.41 118.07 18.07L118.09 18.10L118.12 18.12Q117.63 20.15 117.40 20.98L117.40 20.99L117.47 21.05Q117.09 22.47 116.33 23.88ZM118.25 26.29L118.32 26.35L118.19 26.23Q119.16 24.00 119.70 19.70L119.75 19.75L119.73 19.74Q120.03 17.56 119.99 16.68L119.97 16.67L119.96 16.65Q119.88 14.75 118.70 13.83L118.81 13.94L118.38 13.70L118.48 13.80Q118.23 13.06 117.32 12.41L117.39 12.48L117.38 12.48Q114.95 11.34 110.16 11.19L110.12 11.16L110.23 11.26Q109.26 11.25 106.83 11.25L106.81 11.23L106.80 11.22Q105.09 11.27 103.61 11.95L103.62 11.96L103.54 11.88Q102.44 12.72 102.52 14.55L102.44 14.48L102.49 14.52Q102.65 15.40 102.84 17.42L102.81 17.39L102.94 17.53Q103.52 20.12 103.78 20.96L103.73 20.90L103.85 21.02Q104.30 22.77 105.25 24.06L105.39 24.20L105.33 24.14Q105.57 24.46 105.95 24.84L105.85 24.74L105.97 24.85Q106.21 25.29 106.85 26.20L106.92 26.27L106.87 26.22Q108.38 27.61 110.32 27.80L110.21 27.69L110.38 27.86Q108.39 30.43 106.82 32.34L106.78 32.29L103.18 36.69L103.24 36.74Q105.44 35.94 107.08 35.60L107.01 35.53L107.07 35.59Q106.35 36.51 104.79 38.22L104.77 38.20L104.85 38.28Q107.90 37.33 111.02 37.29L111.00 37.27L111.04 37.31Q113.37 34.74 117.71 27.50L117.70 27.49L117.73 27.59L117.55 27.42Q117.93 26.80 118.27 26.31ZM112.24 17.04L112.27 17.07L112.32 17.12Q112.94 17.01 113.39 17.13L113.21 16.94L113.29 17.03Q113.89 17.09 114.27 17.21L114.33 17.26L114.40 17.34Q114.41 17.61 114.48 18.03L114.51 18.06L114.53 18.07Q114.66 18.55 114.55 18.93L114.55 18.93L114.39 18.77Q114.49 20.63 113.31 21.73L113.21 21.63L113.32 21.74Q112.30 22.70 110.66 22.66L110.71 22.71L110.66 22.66Q110.30 22.71 108.77 22.41L108.77 22.41L108.77 22.40Q108.56 21.54 108.56 20.82L108.52 20.79L108.51 20.77Q108.40 20.48 108.40 20.25L108.37 20.21L108.39 20.24Q108.34 17.97 110.62 17.17L110.77 17.33L110.67 17.22Q111.32 16.96 112.16 16.96Z"/><path fill="#111" d="M138.25 35.23L138.24 35.22L138.20 35.17Q134.72 35.27 133.08 34.74L133.12 34.78L133.22 34.88Q131.12 34.11 130.82 30.72L130.85 30.76L132.37 29.76L132.29 29.69Q133.03 29.17 133.79 28.68L133.82 28.71L133.74 28.62Q133.48 30.54 135.08 31.75L135.13 31.80L135.09 31.77Q136.50 32.91 138.63 32.72L138.53 32.61L138.52 32.60Q142.88 32.17 142.69 28.63L142.70 28.64L142.73 28.67Q142.52 26.36 139.89 25.14L140.00 25.25L139.87 25.12Q137.17 24.21 134.81 22.99L134.83 23.02L134.65 22.83Q132.11 21.51 131.12 16.83L131.14 16.85L131.22 16.93Q131.09 16.45 130.97 15.69L131.08 15.80L131.04 15.76Q130.86 14.89 130.93 14.32L131.06 14.45L131.05 14.43Q131.05 12.69 132.31 12.23L132.43 12.36L132.47 12.39Q134.74 11.39 138.74 11.58L138.75 11.59L138.77 11.62Q140.62 11.75 141.42 11.83L141.46 11.86L141.40 11.80Q142.81 11.92 143.88 12.38L144.02 12.52L143.87 12.38Q146.01 12.87 146.24 15.35L146.29 15.40L146.38 15.49Q145.17 16.04 142.96 17.37L142.98 17.39L143.07 17.48Q142.71 14.52 138.33 14.52L138.16 14.35L138.24 14.43Q136.38 14.48 135.39 15.17L135.35 15.12L135.44 15.21Q134.24 15.69 134.47 17.48L134.48 17.48L134.42 17.43Q134.60 19.55 137.57 21.07L137.61 21.11L137.69 21.19Q138.17 21.36 142.66 23.00L142.74 23.08L142.72 23.06Q145.30 24.50 145.72 28.88L145.78 28.94L145.66 28.82Q145.80 29.11 145.87 30.37L145.78 30.27L145.75 30.24Q145.95 33.15 144.39 34.25L144.23 34.09L144.40 34.26Q142.44 35.12 138.25 35.23ZM140.58 37.63L140.53 37.59L140.65 37.70Q142.04 37.72 144.02 37.72L144.05 37.75L144.09 37.79Q146.06 37.67 147.32 37.26L147.39 37.32L147.34 37.27Q148.59 36.47 148.52 34.68L148.56 34.72L148.50 34.66Q148.36 33.57 147.98 31.51L147.99 31.53L147.98 31.52Q147.16 26.93 145.07 25.07L145.11 25.11L145.07 25.07Q144.21 23.41 142.88 22.68L143.06 22.87L137.61 20.65L137.62 20.67Q137.27 20.46 136.81 20.24L136.87 20.30L136.84 20.00L136.80 19.61L136.79 19.60Q136.50 18.06 137.64 17.45L137.75 17.56L137.69 17.50Q138.56 17.04 140.27 16.84L140.16 16.73L140.18 16.76Q141.43 16.75 142.57 17.20L142.42 17.05L142.44 17.07Q142.48 17.15 142.68 17.99L142.69 18.01L142.78 18.10Q142.94 17.92 143.44 17.69L143.34 17.59L143.50 17.75Q144.18 18.62 144.29 19.76L144.26 19.73L144.21 19.68Q144.32 19.68 147.98 17.09L148.03 17.14L147.99 17.10Q147.68 14.43 146.23 13.75L146.35 13.86L146.24 13.76Q145.69 12.52 144.25 11.99L144.32 12.06L144.17 11.91Q141.98 11.21 138.79 11.21L138.75 11.17L138.88 11.30Q133.77 11.11 131.91 11.79L132.02 11.90L132.11 11.99Q130.69 12.36 130.57 14.04L130.46 13.93L130.53 13.99Q130.57 14.61 130.99 16.82L130.88 16.70L130.93 16.75Q131.54 20.44 133.71 22.69L133.77 22.75L133.75 22.73Q134.52 24.41 136.02 25.10L136.07 25.15L136.13 25.21Q137.52 25.78 141.44 27.34L141.58 27.48L141.46 27.40L142.18 27.81L142.24 27.92L142.27 27.95Q142.35 28.29 142.39 28.63L142.38 28.63L142.46 28.70Q142.57 32.20 138.64 32.35L138.55 32.25L138.57 32.27Q137.43 32.32 136.14 31.94L136.10 31.90L136.16 31.96Q135.87 31.17 135.87 30.45L135.82 30.40L135.79 30.37Q135.78 30.09 135.82 29.83L135.72 29.73L135.78 29.79Q135.32 29.97 134.52 30.47L134.54 30.49L134.51 30.46Q134.06 29.41 134.22 28.03L134.34 28.15L134.26 28.07Q132.16 29.25 130.56 30.66L130.49 30.59L130.63 30.73Q130.55 31.41 130.62 32.44L130.65 32.47L130.77 32.58Q130.99 34.21 132.29 34.98L132.38 35.07L132.24 34.93Q133.47 36.77 136.02 37.15L136.04 37.17L136.18 37.31Q137.62 37.41 140.55 37.61Z"/><path fill="#333" d="M170.73 22.27L170.67 22.21L170.58 22.13Q171.43 22.18 172.84 22.02L172.86 22.04L172.90 22.08Q172.89 22.76 172.89 23.41L172.78 23.30L172.90 24.67L172.71 24.48Q171.95 24.56 171.11 24.63L171.18 24.70L171.15 24.67Q170.27 24.67 169.43 24.63L169.36 24.55L169.50 24.70Q166.54 30.76 163.12 35.37L163.24 35.49L163.11 35.36Q160.72 36.13 159.43 36.74L159.43 36.74L159.32 36.63Q163.49 30.99 166.54 24.71L166.46 24.63L163.94 24.73L163.86 24.65Q163.95 23.41 163.84 22.08L163.77 22.02L163.74 21.98Q165.73 22.22 167.78 22.22L167.81 22.25L169.68 18.52L169.72 18.56Q170.67 16.62 171.89 15.02L171.94 15.06L171.77 14.90Q170.20 15.04 168.60 15.04L168.77 15.21L168.71 15.15Q162.50 15.03 158.73 12.82L158.76 12.85L158.19 11.22L158.13 11.15Q157.84 10.38 157.46 9.50L157.36 9.40L157.48 9.51Q161.78 12.11 167.50 12.34L167.46 12.30L167.55 12.39Q172.60 12.53 177.74 10.55L177.83 10.65L177.86 10.67Q177.50 10.92 177.01 11.80L177.07 11.86L177.13 11.92Q173.58 16.75 170.72 22.27ZM178.61 13.17L178.63 13.19L179.60 11.16L179.72 11.28Q178.72 11.72 177.04 12.44L177.14 12.54L177.34 12.25L177.23 12.14Q177.43 12.07 177.55 11.96L177.41 11.82L177.41 11.82Q177.83 11.17 178.55 9.84L178.53 9.82L178.58 9.87Q173.20 12.10 167.45 11.87L167.57 12.00L167.52 11.95Q161.39 11.57 156.64 8.60L156.78 8.74L156.71 8.67Q157.68 10.48 158.52 13.15L158.66 13.28L158.60 13.22Q159.67 13.84 160.47 14.14L160.48 14.15L160.55 14.22Q160.59 14.46 161.05 16.32L161.16 16.43L161.06 16.34Q164.28 17.65 169.80 17.49L169.72 17.42L169.76 17.45Q169.58 18.15 167.60 21.92L167.49 21.81L167.41 21.73Q165.50 21.87 163.52 21.68L163.43 21.59L163.39 21.56Q163.54 22.47 163.54 23.34L163.56 23.37L163.45 24.97L165.20 25.04L165.23 26.48L165.21 26.46Q161.35 33.91 158.57 37.49L158.59 37.51L158.48 37.39Q160.12 36.67 161.76 36.18L161.76 36.18L161.73 36.15Q161.00 37.02 159.63 38.74L159.79 38.90L159.64 38.75Q162.85 37.69 165.29 37.47L165.30 37.47L165.39 37.57Q168.17 33.65 171.30 26.87L171.40 26.98L174.72 27.06L174.84 27.18Q174.80 26.30 174.80 25.39L174.75 25.34L174.71 23.51L174.80 23.60Q174.38 23.45 173.83 23.49L173.97 23.62L173.85 23.50Q173.32 23.57 173.06 23.57L172.99 23.50L173.01 23.53Q173.14 23.54 173.18 23.39L173.14 23.35L173.03 22.98L173.10 23.04Q175.68 17.97 178.76 13.33Z"/><path fill="#222" d="M85.17 34.91L85.16 34.91L83.12 34.81L83.16 34.84Q82.22 34.85 81.27 34.97L81.32 35.02L81.35 35.05Q81.83 28.75 81.83 24.76L81.93 24.85L81.84 24.77Q77.93 18.15 70.28 9.47L70.16 9.36L70.27 9.46Q71.96 10.36 75.31 11.16L75.39 11.24L75.26 11.11Q80.40 16.78 83.41 22.00L83.40 21.99L83.39 21.98Q86.34 16.37 90.72 11.34L90.84 11.46L90.85 11.47Q93.29 11.09 95.80 10.29L95.71 10.20L95.77 10.26Q89.65 16.29 84.78 24.70L84.87 24.80L84.76 24.68Q84.85 31.82 85.16 34.90ZM94.24 12.31L96.98 9.49L96.98 9.49Q93.87 10.65 90.75 11.10L90.63 10.98L90.72 11.07Q86.48 15.78 83.67 20.88L83.67 20.89L83.72 20.93Q81.50 17.20 78.30 13.31L78.29 13.30L78.23 13.24Q78.05 13.33 77.56 13.25L77.65 13.35L77.62 13.31Q76.93 12.51 75.41 10.83L75.41 10.84L75.43 10.86Q71.94 10.00 68.97 8.44L68.98 8.45L69.03 8.49Q76.76 16.99 81.52 24.91L81.56 24.94L81.53 24.91Q81.39 31.21 80.78 35.36L80.72 35.29L80.80 35.38Q81.58 35.40 83.03 35.29L82.89 35.14L83.02 36.30L82.98 36.26Q82.90 36.64 82.83 37.18L82.86 37.21L82.87 37.22Q86.49 37.30 88.24 37.49L88.09 37.34L88.17 37.42Q86.93 32.76 86.82 26.78L86.73 26.69L86.78 26.74Q91.10 18.23 97.64 10.88L97.79 11.02L94.23 12.30Z"/><path fill="#333" d="M53.71 14.63L53.69 14.60L52.20 14.79L52.12 14.71Q49.81 14.76 49.58 16.78L49.62 16.82L49.65 16.84Q49.67 17.66 49.71 18.65L49.70 18.65L49.56 18.51Q49.62 20.47 50.87 21.80L51.02 21.95L50.84 21.77Q52.12 23.12 54.02 22.97L54.07 23.02L54.09 23.03Q56.21 22.95 56.97 22.04L56.89 21.95L56.96 22.03Q57.91 21.00 58.18 18.75L58.21 18.78L58.29 18.86Q58.50 16.56 57.25 15.72L57.22 15.70L57.35 15.83Q56.48 15.03 53.81 14.73ZM59.84 23.95L59.79 23.91L58.45 26.14L58.43 26.12Q55.82 31.02 52.06 35.09L52.02 35.06L52.01 35.05Q50.29 35.11 47.59 35.91L47.72 36.05L47.57 35.90Q53.09 29.81 56.25 25.01L56.21 24.97L56.10 24.86Q55.04 25.47 53.40 25.55L53.50 25.64L53.39 25.54Q50.45 25.76 48.93 23.78L48.87 23.72L48.86 23.71Q47.80 22.27 46.70 17.70L46.71 17.71L46.60 17.60Q46.62 17.16 46.46 16.23L46.56 16.33L46.47 16.24Q46.34 15.33 46.34 14.87L46.33 14.86L46.36 14.89Q46.25 12.99 47.31 12.38L47.46 12.53L47.39 12.46Q48.59 11.67 50.45 11.67L50.52 11.74L50.56 11.78Q53.68 11.70 53.68 11.70L53.77 11.79L53.66 11.68Q55.83 11.72 57.08 11.91L57.08 11.91L57.08 11.91Q59.24 12.20 60.15 12.69L60.16 12.70L60.13 12.67Q61.57 13.50 61.76 15.25L61.67 15.16L61.79 15.29Q61.70 15.42 61.51 18.09L61.48 18.06L61.61 18.19Q61.09 20.18 60.86 21.01L60.81 20.97L60.96 21.11Q60.60 22.55 59.84 23.95ZM61.67 26.28L61.72 26.33L61.66 26.27Q62.63 24.04 63.16 19.74L63.10 19.68L63.26 19.84Q63.41 17.51 63.37 16.64L63.42 16.68L63.33 16.60Q63.34 14.78 62.16 13.87L62.12 13.82L61.93 13.82L61.81 13.70Q61.73 13.13 60.82 12.49L60.79 12.45L60.67 12.33Q58.50 11.46 53.71 11.31L53.59 11.20L53.67 11.27Q52.75 11.31 50.31 11.31L50.28 11.28L50.19 11.18Q48.44 11.18 46.95 11.86L47.10 12.02L47.05 11.96Q45.86 12.71 45.93 14.54L46.03 14.64L46.02 14.63Q46.21 15.54 46.40 17.55L46.43 17.58L46.30 17.46Q46.91 20.09 47.18 20.92L47.15 20.90L47.26 21.00Q47.84 22.88 48.79 24.17L48.70 24.09L48.69 24.08Q49.02 24.48 49.40 24.86L49.36 24.82L49.45 24.91Q49.74 25.39 50.38 26.30L50.37 26.28L50.37 26.28Q51.75 27.55 53.69 27.74L53.80 27.85L53.79 27.84Q51.91 30.53 50.35 32.43L50.26 32.34L46.56 36.64L46.64 36.71Q48.85 35.92 50.49 35.58L50.45 35.54L50.43 35.52Q49.75 36.47 48.19 38.19L48.12 38.12L48.27 38.27Q51.33 37.33 54.45 37.30L54.34 37.19L54.32 37.17Q56.63 34.56 60.97 27.33L61.09 27.45L61.01 27.45L61.10 27.54Q61.30 26.74 61.64 26.25ZM55.58 16.95L55.72 17.09L55.65 17.03Q56.29 16.94 56.74 17.05L56.80 17.11L56.78 17.08Q57.43 17.21 57.81 17.32L57.66 17.16L57.73 17.23Q57.85 17.62 57.93 18.04L57.96 18.08L58.02 18.14Q57.92 18.38 57.81 18.76L57.95 18.90L57.83 18.79Q57.91 20.62 56.73 21.72L56.64 21.63L56.65 21.64Q55.78 22.75 54.14 22.71L54.12 22.69L54.12 22.69Q53.75 22.74 52.23 22.43L52.15 22.36L52.18 22.38Q51.88 21.44 51.88 20.72L51.99 20.83L52.00 20.83Q51.90 20.54 51.90 20.32L51.79 20.20L51.94 20.36Q51.92 18.12 54.20 17.32L54.14 17.27L54.05 17.17Q54.87 17.08 55.71 17.08Z"/><path fill="#222" d="M27.55 15.08L27.54 15.07L27.60 15.12Q23.28 15.11 19.59 14.12L19.52 14.05L19.55 14.08Q21.10 18.67 21.29 23.51L21.35 23.57L21.30 23.52Q21.52 28.34 20.30 32.95L20.22 32.87L20.31 32.96Q23.01 32.23 26.51 32.08L26.62 32.19L26.58 32.15Q30.42 31.88 32.20 29.44L32.23 29.46L32.24 29.47Q33.84 27.49 34.03 23.38L33.98 23.33L33.95 23.31Q34.13 21.66 33.67 19.95L33.71 19.98L33.61 19.88Q32.32 15.13 27.60 15.13ZM15.59 37.04L15.66 37.11L15.70 37.14Q18.49 31.37 18.49 24.67L18.60 24.78L18.52 24.70Q18.49 16.15 14.19 9.14L14.24 9.19L14.36 9.31Q19.60 11.97 27.87 12.16L27.80 12.09L27.85 12.15Q36.72 12.33 37.06 19.49L36.94 19.37L37.05 19.48Q37.19 22.20 37.15 23.65L37.10 23.60L37.14 23.64Q36.96 28.22 36.13 30.39L36.17 30.44L36.09 30.36Q35.66 31.45 34.90 32.28L35.05 32.44L35.01 32.39Q33.69 33.97 31.07 34.47L30.91 34.32L31.03 34.43Q29.52 34.79 26.51 35.01L26.35 34.85L26.41 34.91Q20.21 35.30 15.60 37.05ZM33.55 36.95L33.62 37.02L33.63 37.03Q36.33 36.65 37.97 35.17L37.93 35.12L38.06 35.25Q39.08 33.31 39.05 30.57L39.17 30.70L39.16 30.68Q39.07 29.23 38.92 25.73L39.09 25.89L38.66 21.28L38.69 21.30Q38.37 18.90 37.42 16.80L37.52 16.90L37.41 16.79Q37.03 15.99 36.34 15.34L36.38 15.38L36.32 15.17L36.29 15.14Q34.53 12.12 30.12 11.74L30.11 11.73L30.15 11.77Q27.56 11.74 20.55 11.01L20.41 10.87L20.52 10.97Q17.21 10.48 13.51 8.46L13.59 8.54L13.58 8.53Q18.36 15.86 18.36 24.61L18.41 24.67L18.41 24.67Q18.35 31.61 15.00 37.78L14.93 37.71L15.03 37.81Q15.70 37.53 17.03 37.03L17.06 37.06L17.10 37.10Q16.72 37.90 15.85 39.39L15.90 39.44L15.76 39.30Q18.79 38.22 22.14 37.72L22.19 37.78L22.14 37.72Q24.20 37.38 27.85 37.27L27.94 37.35L27.84 37.26Q31.72 37.13 33.54 36.94ZM33.69 23.43L33.64 23.37L33.56 23.30Q33.23 31.34 26.53 31.72L26.57 31.76L26.60 31.79Q24.55 31.80 22.49 32.06L22.48 32.05L22.65 32.22Q23.28 28.28 23.28 24.63L23.30 24.65L23.28 24.62Q23.19 20.85 22.47 17.00L22.62 17.15L22.47 17.00Q24.83 17.45 29.51 17.45L29.60 17.54L29.58 17.53Q30.92 17.35 32.56 18.30L32.51 18.25L32.51 18.25Q33.79 20.51 33.63 23.37Z"/></svg>