<svg xmlns="http://www.w3.org/2000/svg" width="200" height="40" viewBox="0,0,200,40"><path d="M5 18 C82 25,106 6,187 6" stroke="#666" fill="none"/><path fill="#333" d="M161.96 14.10L162.00 14.14L162.09 14.22Q163.26 18.74 163.41 21.94L163.29 21.82L163.29 21.82Q163.84 21.91 168.22 22.03L168.13 21.94L168.23 22.04Q170.68 21.98 171.06 18.51L171.13 18.58L171.15 18.60Q171.34 16.85 170.43 15.94L170.36 15.87L170.36 15.87Q169.10 14.99 167.12 14.84L167.13 14.84L167.13 14.85Q163.91 14.63 162.04 14.17ZM163.38 23.73L163.50 23.86L163.52 23.87Q163.68 29.86 161.89 35.80L161.92 35.83L161.89 35.80Q160.69 36.16 158.10 37.19L157.96 37.05L158.03 37.11Q160.80 30.56 160.46 23.10L160.41 23.05L160.41 23.05Q160.09 15.69 156.78 9.18L156.91 9.31L156.87 9.27Q161.68 12.02 168.64 12.02L168.80 12.17L168.63 12.00Q174.44 12.18 174.70 15.72L174.56 15.57L174.67 15.69Q174.68 16.23 174.61 16.84L174.69 16.93L174.51 17.96L174.55 18.00Q173.66 21.87 171.53 23.59L171.47 23.53L171.46 23.52Q170.85 24.39 169.83 24.39L169.79 24.36L167.16 24.32L167.13 24.28Q172.84 31.63 177.37 36.20L177.27 36.10L177.21 36.04Q174.99 35.27 172.06 34.92L172.23 35.10L172.09 34.96Q168.31 30.99 163.40 23.76ZM172.00 35.37L171.95 35.31L172.24 35.30L173.63 36.69L173.64 36.70Q174.22 37.24 174.87 37.85L174.79 37.77L174.70 37.68Q178.27 38.32 181.85 40.19L181.89 40.23L182.02 40.35Q175.08 33.61 169.67 26.68L169.68 26.68L171.39 26.65L171.29 26.54Q174.50 26.67 175.83 22.14L175.85 22.16L175.73 22.03Q176.48 19.90 176.48 17.19L176.47 17.18L176.40 17.11Q176.39 14.82 174.68 14.17L174.80 14.29L174.71 14.20Q174.56 13.79 173.99 13.11L174.06 13.17L174.13 13.25Q172.32 11.67 168.67 11.59L168.70 11.62L168.74 11.66Q160.73 11.38 156.05 8.37L156.17 8.49L156.08 8.40Q159.81 15.21 160.15 22.90L160.27 23.02L160.20 22.95Q160.51 30.87 157.38 37.73L157.43 37.78L157.39 37.73Q158.63 37.15 159.43 36.84L159.57 36.98L158.44 39.13L158.44 39.13Q161.31 38.22 163.97 37.73L163.99 37.75L163.83 37.59Q165.17 32.53 165.36 27.31L165.38 27.34L165.33 27.29Q168.81 32.21 171.97 35.34ZM170.69 17.37L170.85 17.54L170.71 17.40Q170.89 17.80 170.89 18.14L170.82 18.08L170.76 18.59L170.84 18.67Q170.78 19.71 170.09 20.66L170.06 20.63L170.16 20.73Q169.52 21.46 168.60 21.65L168.65 21.70L168.63 21.67Q168.28 21.59 166.68 21.63L166.78 21.73L166.82 21.77Q166.21 21.77 165.37 21.66L165.34 21.62L165.31 21.60Q165.29 20.16 164.95 17.12L164.89 17.06L164.82 16.99Q166.27 17.22 166.95 17.22L166.90 17.17L166.93 17.20Q168.89 17.33 170.83 17.52Z"/><path fill="#333" d="M138.44 24.11L138.54 24.21L138.44 24.11Q136.64 24.18 135.43 25.51L135.45 25.54L135.40 25.49Q134.23 26.87 134.08 28.77L133.99 28.69L134.15 28.85Q133.88 30.90 135.10 31.91L135.11 31.92L135.12 31.93Q136.27 32.87 138.40 32.79L138.38 32.77L138.53 32.92Q140.80 32.72 141.75 31.76L141.76 31.78L141.72 31.74Q142.83 30.37 142.72 28.54L142.62 28.45L142.53 28.36Q142.53 26.60 141.44 25.40L141.51 25.47L141.45 25.41Q140.43 24.28 138.61 24.28ZM138.54 14.81L138.40 14.67L138.46 14.73Q137.13 14.69 135.80 15.19L135.67 15.06L135.66 15.05Q134.47 15.96 134.70 17.82L134.62 17.74L134.70 17.82Q135.25 21.60 138.60 21.60L138.52 21.53L138.53 21.53Q140.11 21.74 141.10 20.60L140.97 20.47L141.11 20.62Q141.96 19.33 142.00 17.77L142.13 17.90L142.11 17.89Q142.21 16.15 141.48 15.54L141.46 15.52L141.53 15.59Q139.75 14.65 138.46 14.73ZM138.20 35.29L138.27 35.37L135.26 35.40L135.21 35.35Q133.66 35.32 132.33 34.45L132.37 34.49L132.26 34.37Q130.86 33.20 131.01 30.35L131.03 30.36L131.12 30.46Q131.62 23.65 135.24 22.66L135.22 22.64L135.11 22.53Q132.89 21.69 131.56 16.32L131.53 16.29L131.56 16.32Q131.26 14.95 131.34 14.15L131.26 14.08L131.23 14.05Q131.60 11.98 135.29 11.94L135.24 11.89L135.36 12.01Q139.53 11.88 140.98 12.07L140.87 11.96L141.02 12.11Q144.74 12.52 145.20 14.54L145.25 14.59L145.34 14.68Q145.41 15.24 145.41 15.62L145.44 15.66L145.27 15.49Q145.43 16.33 145.24 16.94L145.14 16.84L145.10 16.80Q144.60 21.13 141.67 22.66L141.69 22.68L141.63 22.62Q145.22 23.50 145.71 28.79L145.69 28.77L145.71 28.79Q145.66 28.90 145.70 30.19L145.68 30.18L145.63 30.12Q145.66 32.82 144.06 33.88L144.05 33.87L144.13 33.95Q142.72 34.79 138.15 35.24ZM140.58 37.71L140.55 37.68L143.93 37.78L143.84 37.70Q145.55 37.77 147.07 37.04L147.12 37.09L146.99 36.96Q148.19 36.30 148.27 34.43L148.20 34.37L148.39 34.56Q148.39 33.41 148.00 31.47L148.01 31.47L147.93 31.39Q147.07 26.81 144.98 24.94L144.92 24.88L144.81 24.58L144.63 24.32L144.42 24.00L144.46 24.04Q145.97 22.54 146.88 18.39L147.05 18.56L146.89 18.40Q146.95 18.08 147.03 17.24L147.05 17.26L146.99 17.20Q147.17 16.62 147.09 16.01L146.99 15.91L146.99 15.91Q146.94 14.57 145.76 14.08L145.81 14.12L145.79 14.06L145.63 13.98L145.62 13.97Q145.34 13.24 144.16 12.44L144.02 12.30L144.12 12.35L144.22 12.46Q142.25 11.78 138.17 11.58L138.05 11.46L138.17 11.59Q136.45 11.31 135.08 11.43L135.16 11.50L135.16 11.50Q134.28 11.46 132.99 11.61L132.98 11.61L133.02 11.65Q131.11 12.06 130.88 13.70L130.96 13.78L130.98 13.80Q130.80 14.15 130.83 14.95L130.85 14.96L130.89 15.00Q131.06 15.58 131.63 17.94L131.60 17.92L131.53 17.85Q132.30 21.05 134.05 22.39L134.14 22.47L134.13 22.47L134.26 22.59Q131.46 23.87 130.92 29.04L130.86 28.98L130.91 29.03Q130.63 31.15 130.63 32.06L130.63 32.07L130.76 32.20Q130.70 33.84 131.88 34.75L131.99 34.87L131.94 34.82Q132.16 35.00 132.43 35.19L132.31 35.07L132.42 35.19Q133.30 37.32 140.42 37.55ZM140.23 26.62L140.23 26.62L140.18 26.57Q140.97 26.38 141.85 26.83L141.98 26.96L141.88 26.86Q142.24 27.83 142.20 28.36L142.33 28.50L142.21 28.38Q142.25 28.69 142.25 28.99L142.38 29.11L142.41 29.15Q142.30 31.39 140.01 32.23L140.05 32.27L139.99 32.21Q139.18 32.50 138.38 32.39L138.49 32.50L138.51 32.52Q137.29 32.52 136.15 32.06L136.23 32.14L136.17 32.08Q136.01 31.54 136.09 30.55L136.09 30.56L135.96 30.43Q136.24 28.96 137.44 27.74L137.42 27.72L137.36 27.66Q138.56 26.43 140.15 26.55ZM140.36 17.05L140.29 16.98L140.31 16.99Q141.23 17.00 141.76 17.16L141.77 17.17L141.80 17.99L141.77 17.96Q141.76 19.36 140.85 20.37L140.82 20.34L140.71 20.23Q139.80 21.24 138.43 21.05L138.53 21.15L138.61 21.24Q137.51 21.13 137.09 20.90L137.20 21.01L137.04 20.84Q137.13 20.71 137.02 20.02L136.94 19.94L137.00 20.01Q136.64 18.50 137.85 17.66L137.93 17.74L137.96 17.76Q138.91 16.97 140.32 17.00Z"/><path d="M16 17 C95 18,106 19,193 30" stroke="#666" fill="none"/><path fill="#222" d="M21.38 27.89L21.49 27.99L21.46 27.96Q24.47 27.51 27.66 27.62L27.66 27.61L27.83 27.79Q27.62 25.07 27.62 22.67L27.74 22.78L27.71 22.76Q27.67 20.25 27.86 17.69L27.85 17.68L27.80 17.63Q26.58 19.34 21.36 27.87ZM31.33 35.28L31.38 35.33L31.30 35.25Q29.71 35.03 27.92 34.95L27.79 34.83L27.93 34.97Q27.78 32.65 27.67 30.17L27.55 30.06L27.66 30.17Q22.22 29.86 17.49 31.27L17.51 31.28L17.56 31.34Q17.58 30.74 17.77 29.75L17.83 29.81L17.91 29.89Q19.71 26.75 23.29 20.47L23.17 20.34L23.16 20.33Q26.04 15.45 29.46 11.56L29.44 11.55L29.43 11.53Q30.47 11.50 32.14 11.24L32.10 11.19L32.13 11.23Q30.22 17.65 30.22 24.70L30.08 24.55L30.21 24.68Q30.16 26.12 30.24 27.61L30.21 27.57L31.46 27.65L31.45 27.63Q32.22 27.83 32.83 27.95L32.70 27.83L32.70 27.82Q32.92 28.92 33.19 30.86L33.09 30.76L33.11 30.78Q31.93 30.55 30.44 30.36L30.46 30.38L30.36 30.27Q30.64 32.35 31.33 35.28ZM32.99 27.46L32.99 27.47L33.04 27.51Q32.83 27.42 32.64 27.42L32.70 27.48L32.27 27.43L32.22 27.38Q32.18 25.97 32.18 24.56L32.19 24.57L32.07 24.45Q32.18 18.16 34.23 12.15L34.11 12.02L34.29 12.21Q33.35 12.29 31.90 12.67L32.08 12.85L32.04 12.81Q32.17 11.94 32.62 10.54L32.70 10.62L32.70 10.62Q31.39 10.98 29.33 11.21L29.40 11.27L29.38 11.25Q25.38 15.51 20.16 24.88L20.26 24.97L22.33 21.30L22.25 21.22Q21.93 22.34 21.66 22.91L21.56 22.81L17.14 31.86L17.17 31.90Q17.77 31.69 18.91 31.31L19.01 31.41L18.70 31.48L18.71 31.50Q18.60 32.18 18.29 33.44L18.34 33.49L18.38 33.52Q22.49 32.20 27.33 32.39L27.31 32.36L27.35 32.41Q27.43 33.40 27.62 35.38L27.64 35.40L27.60 35.36Q28.52 35.21 29.58 35.33L29.76 35.51L29.74 35.48Q29.83 36.11 30.10 37.48L30.16 37.54L30.01 37.39Q31.96 37.66 34.97 38.58L35.00 38.61L34.97 38.58Q34.01 36.47 33.09 33.20L33.04 33.15L34.62 33.74L34.45 33.57Q35.23 33.90 35.92 34.24L35.94 34.26L35.91 34.23Q35.16 31.76 35.00 30.09L35.01 30.09L34.91 30.00Q34.36 29.86 33.22 29.64L33.32 29.74L33.20 29.62Q32.98 28.33 32.98 27.45ZM25.01 27.33L25.02 27.33L24.95 27.27Q25.74 26.00 27.30 23.45L27.42 23.57L27.43 23.58Q27.26 24.36 27.22 25.31L27.41 25.50L27.40 25.49Q27.34 26.42 27.38 27.38L27.44 27.44L27.30 27.29Q26.74 27.27 26.17 27.27L26.15 27.25L26.18 27.28Q25.60 27.30 24.99 27.30Z"/><path fill="#222" d="M50.90 14.35L50.91 14.36L51.00 14.45Q51.82 18.66 51.98 22.24L51.96 22.22L51.90 22.16Q52.98 22.21 54.05 22.21L54.10 22.26L56.20 22.16L56.32 22.28Q57.36 22.25 58.23 20.84L58.09 20.70L58.16 20.77Q58.83 19.54 58.95 18.36L59.08 18.49L58.98 18.39Q59.31 15.33 55.08 14.84L55.17 14.93L55.26 15.02Q53.60 14.99 50.97 14.42ZM52.04 25.04L52.03 25.03L52.02 25.02Q51.80 31.08 50.65 35.50L50.65 35.49L50.65 35.50Q49.26 35.97 46.94 37.04L47.05 37.15L46.94 37.04Q49.35 30.42 49.08 23.15L49.01 23.08L49.02 23.09Q48.73 15.72 45.95 9.28L45.88 9.21L45.95 9.29Q50.06 12.02 56.31 12.02L56.40 12.12L56.28 12.00Q62.38 12.04 62.53 15.51L62.56 15.54L62.56 15.53Q62.58 17.92 61.59 20.59L61.58 20.58L61.66 20.65Q61.33 21.85 60.38 23.07L60.31 22.99L60.36 23.05Q59.04 24.66 56.49 24.93L56.43 24.87L56.41 24.85Q54.24 24.96 52.00 25.00ZM58.05 27.17L58.03 27.15L58.02 27.14Q62.26 27.46 63.51 22.66L63.49 22.63L63.54 22.69Q64.50 19.04 64.34 17.02L64.32 16.99L64.34 17.02Q64.18 15.45 63.42 14.46L63.35 14.39L63.32 14.36Q63.02 14.06 62.52 13.83L62.48 13.78L62.60 13.90Q62.64 13.79 62.03 13.03L61.98 12.98L61.97 12.97Q60.38 11.60 56.42 11.60L56.43 11.62L56.48 11.67Q49.60 11.67 45.37 8.51L45.32 8.46L45.28 8.43Q48.49 15.55 48.75 23.01L48.69 22.95L48.73 22.99Q49.00 30.65 46.34 37.73L46.38 37.77L46.49 37.88Q47.43 37.11 48.42 36.73L48.43 36.74L48.06 37.89L48.06 37.89Q47.86 38.45 47.59 39.02L47.58 39.01L47.69 39.12Q50.12 38.08 53.01 37.55L52.88 37.42L52.91 37.45Q53.87 32.05 53.94 27.33L53.78 27.16L53.76 27.14Q55.00 27.21 55.99 27.21L56.02 27.24L55.92 27.13Q57.28 27.16 58.08 27.20ZM57.08 17.22L57.22 17.35L57.04 17.18Q57.52 17.16 58.51 17.39L58.60 17.48L58.67 17.55Q58.64 17.64 58.68 17.94L58.72 17.98L58.82 18.08Q58.84 18.33 58.77 18.60L58.65 18.48L58.66 18.49Q58.62 19.78 57.90 20.66L57.98 20.74L57.93 20.69Q57.39 21.79 56.36 21.98L56.22 21.84L56.25 21.87Q55.59 21.93 53.95 21.93L53.84 21.82L53.87 21.84Q53.83 19.56 53.60 17.20L53.62 17.22L55.45 17.38L55.28 17.21Q56.15 17.24 57.02 17.16Z"/><path fill="#222" d="M107.36 25.56L107.34 25.54L107.40 25.60Q107.40 25.60 110.78 25.56L110.74 25.52L110.73 25.51Q113.06 25.55 114.13 25.59L114.05 25.51L114.19 25.65Q113.13 22.77 110.69 17.13L110.60 17.04L110.76 17.20Q110.12 18.54 109.07 21.39L109.13 21.45L109.12 21.44Q107.96 24.18 107.39 25.59ZM115.24 28.08L115.30 28.13L115.20 28.03Q113.01 28.09 110.80 28.13L110.85 28.17L110.69 28.01Q108.52 28.13 106.23 28.32L106.18 28.27L106.34 28.43Q104.68 31.71 101.44 35.90L101.44 35.90L101.55 36.01Q98.95 36.61 97.58 37.10L97.45 36.97L97.60 37.12Q102.66 31.41 107.34 18.05L107.38 18.09L107.37 18.07Q108.58 14.60 109.95 11.37L109.91 11.33L109.93 11.34Q110.23 11.34 110.58 11.34L110.57 11.34L111.30 11.35L111.39 11.43Q111.99 12.64 116.82 24.29L116.81 24.28L116.82 24.29Q120.17 32.21 124.17 36.36L124.23 36.42L124.27 36.46Q123.65 36.22 119.77 35.34L119.86 35.44L119.77 35.34Q117.23 32.23 115.25 28.08ZM119.83 35.82L119.76 35.76L120.24 35.74L120.30 35.80Q120.63 35.90 120.93 36.01L120.78 35.86L120.78 35.86Q121.21 36.33 123.04 38.35L123.03 38.33L123.01 38.32Q126.61 39.17 129.00 40.20L128.96 40.16L129.02 40.22Q123.55 35.70 119.56 27.71L119.65 27.80L119.49 27.65Q117.99 24.46 116.54 20.50L116.58 20.54L113.74 12.95L113.69 12.90Q113.42 12.97 113.19 12.97L113.16 12.94L112.63 12.94L112.71 13.02Q112.27 12.28 111.55 10.90L111.64 11.00L111.72 11.07Q111.18 11.07 110.72 11.03L110.57 10.88L110.69 11.00Q110.19 10.91 109.65 10.91L109.75 11.01L109.65 10.91Q108.28 14.87 104.39 25.03L104.40 25.04L104.33 24.97Q101.29 33.00 96.64 37.80L96.57 37.72L96.52 37.68Q97.57 37.29 99.59 36.68L99.74 36.83L99.60 36.68Q98.90 37.63 97.34 39.41L97.27 39.34L97.24 39.32Q99.04 38.75 102.96 37.99L102.97 38.00L102.90 37.93Q106.31 33.57 107.87 30.34L107.97 30.44L107.87 30.33Q109.70 30.30 112.02 30.34L112.06 30.38L112.04 30.36Q114.83 30.44 116.20 30.52L116.07 30.39L116.08 30.40Q117.38 32.80 119.74 35.73ZM111.99 21.01L111.97 20.99L112.05 21.08Q112.95 23.19 113.71 25.29L113.72 25.30L110.29 25.18L110.29 25.18Q111.02 23.89 112.09 21.11Z"/><path fill="#333" d="M79.23 35.31L79.28 35.36L79.34 35.42Q75.23 35.61 74.24 33.29L74.28 33.33L74.24 33.29Q74.95 32.28 76.51 30.50L76.65 30.64L76.62 30.60Q77.04 32.55 80.04 32.66L80.11 32.72L80.02 32.63Q83.45 32.76 85.09 31.42L85.05 31.38L85.06 31.40Q86.51 29.84 86.44 27.14L86.33 27.03L86.40 27.11Q86.22 22.01 81.42 22.24L81.57 22.38L81.45 22.27Q78.69 22.48 76.94 23.73L76.81 23.60L76.56 23.51L76.30 23.32L76.42 23.44Q76.80 20.32 76.69 17.58L76.50 17.39L76.54 17.43Q76.48 14.86 76.14 11.55L76.20 11.61L76.13 11.54Q79.76 12.46 83.56 12.35L83.65 12.44L83.51 12.29Q87.33 12.23 90.91 10.98L91.00 11.07L90.35 12.52L90.47 12.63Q90.01 13.24 89.82 14.08L89.82 14.08L89.95 14.20Q86.85 15.25 82.97 15.25L82.86 15.14L82.89 15.18Q81.43 15.17 79.95 15.02L80.03 15.10L79.97 15.04Q79.94 15.77 79.60 20.23L79.59 20.22L79.63 20.25Q80.47 19.80 82.52 19.65L82.38 19.50L82.46 19.58Q86.11 19.73 87.56 21.41L87.60 21.45L87.70 21.55Q89.03 23.03 89.29 26.87L89.28 26.85L89.19 26.77Q89.50 31.00 88.29 33.02L88.24 32.98L88.42 33.15Q86.37 35.02 83.05 35.25L82.98 35.17L82.99 35.19Q81.91 35.17 79.24 35.32ZM85.44 37.75L85.29 37.60L85.29 37.61Q88.70 37.66 90.60 36.56L90.77 36.73L90.63 36.58Q91.71 35.15 91.71 33.06L91.64 32.98L91.70 33.05Q91.60 29.86 90.64 25.75L90.73 25.84L90.72 25.82Q90.30 24.03 89.08 22.62L89.11 22.65L89.14 22.72L88.90 22.41L88.61 22.27L88.67 22.33Q88.33 21.57 87.68 20.88L87.58 20.78L87.72 20.96L87.73 20.97Q86.02 19.10 82.32 19.10L82.48 19.26L82.25 19.30L82.09 19.14Q82.27 18.67 82.46 17.57L82.50 17.61L82.49 17.59Q87.33 17.56 91.37 15.93L91.40 15.96L91.46 16.02Q91.96 14.69 92.91 11.87L92.75 11.72L90.68 12.69L90.69 12.70Q91.09 11.57 91.58 10.43L91.65 10.50L91.55 10.40Q87.67 11.81 83.56 11.89L83.63 11.96L83.71 12.04Q79.58 12.13 75.62 11.03L75.47 10.88L75.55 10.96Q76.20 15.34 76.20 19.76L76.24 19.80L76.22 19.77Q76.23 21.69 76.11 23.59L76.19 23.67L76.12 23.60Q76.41 23.81 76.98 24.12L77.04 24.18L76.95 24.09Q77.41 23.98 78.06 23.63L77.98 23.55L77.91 23.49Q77.86 24.23 77.63 25.75L77.71 25.83L77.76 25.89Q78.13 26.02 78.55 26.25L78.62 26.33L78.55 26.26Q81.29 24.46 83.15 24.46L83.14 24.45L83.10 24.41Q84.60 24.58 85.78 25.23L85.73 25.17L85.71 25.15Q86.02 26.15 86.05 27.10L86.01 27.05L86.11 27.16Q86.17 29.72 85.14 30.83L85.18 30.87L85.10 30.79Q83.82 32.10 81.57 32.32L81.44 32.19L81.47 32.22Q80.53 32.30 79.84 32.23L79.85 32.24L79.82 32.21Q79.08 32.19 78.32 31.85L78.24 31.77L78.32 31.66L78.13 31.69L78.05 31.62Q77.34 31.21 76.81 29.88L76.73 29.80L76.82 29.89Q75.53 31.35 73.86 33.48L73.73 33.35L73.73 33.35Q74.14 34.10 74.97 35.05L74.90 34.98L74.84 34.92Q75.91 36.75 78.73 37.25L78.80 37.32L78.88 37.40Q80.03 37.60 85.40 37.71Z"/></svg>