<svg xmlns="http://www.w3.org/2000/svg" width="200" height="40" viewBox="0,0,200,40"><path d="M10 10 C117 36,92 9,185 4" stroke="#888" fill="none"/><path fill="#222" d="M136.42 21.81L136.46 21.85L136.37 21.76Q138.22 21.97 140.05 21.97L140.14 22.06L140.05 21.97Q141.77 21.90 143.59 21.75L143.65 21.81L143.67 21.83Q143.64 22.56 143.64 23.28L143.54 23.18L143.48 24.45L143.61 24.58Q141.14 24.47 136.38 24.59L136.39 24.59L136.50 24.71Q136.45 30.59 135.31 35.58L135.30 35.57L135.38 35.65Q133.01 36.17 131.52 36.97L131.55 37.00L131.60 37.04Q134.02 30.34 133.76 23.22L133.62 23.08L133.69 23.15Q133.31 15.88 130.65 9.22L130.64 9.21L130.67 9.24Q134.49 11.92 139.25 12.15L139.23 12.13L139.09 11.99Q143.91 12.32 148.06 10.57L148.04 10.55L148.00 10.51Q147.80 11.41 147.57 12.21L147.54 12.18L146.93 13.66L146.93 13.66Q144.32 14.86 141.35 15.01L141.30 14.96L141.22 14.88Q138.31 15.05 135.45 14.33L135.46 14.34L135.45 14.33Q136.30 17.87 136.49 21.87ZM148.66 9.83L148.72 9.89L148.57 9.74Q143.98 11.89 139.11 11.59L139.16 11.64L139.17 11.65Q133.72 11.23 129.99 8.37L130.09 8.47L130.15 8.53Q132.91 15.36 133.21 22.98L133.20 22.97L133.28 23.05Q133.68 31.06 131.17 37.84L131.13 37.80L131.11 37.77Q131.78 37.38 133.15 36.73L133.05 36.63L133.18 36.77Q133.01 37.54 132.44 39.07L132.29 38.92L132.36 38.99Q134.77 38.01 137.66 37.51L137.61 37.46L137.52 37.37Q138.23 32.60 138.42 26.89L138.31 26.78L138.30 26.76Q140.23 26.87 142.06 26.87L141.91 26.72L141.98 26.79Q143.88 26.91 145.71 27.10L145.60 26.99L145.67 27.06Q145.44 25.99 145.44 25.08L145.60 25.24L145.47 23.20L145.47 23.20Q144.83 23.44 143.99 23.44L143.82 23.26L143.81 23.26Q143.88 22.45 143.95 21.42L143.93 21.40L144.06 21.53Q142.56 21.59 141.15 21.59L141.13 21.56L141.23 21.66Q139.79 21.63 138.42 21.59L138.45 21.63L138.34 19.39L138.35 19.39Q138.29 18.27 138.18 17.21L138.16 17.18L138.21 17.24Q139.13 17.25 140.12 17.25L140.22 17.35L140.14 17.27Q144.89 17.26 148.51 15.36L148.63 15.47L148.50 15.35Q148.98 13.51 149.90 10.88L149.95 10.93L149.99 10.97Q148.72 11.84 147.92 12.18L147.95 12.21L147.80 12.06Q148.18 11.41 148.67 9.84Z"/><path fill="#222" d="M102.07 33.97L102.08 33.99L102.12 34.03Q103.95 31.59 108.70 24.32L108.62 24.23L108.66 24.27Q112.65 18.03 115.51 14.75L115.50 14.75L115.49 14.74Q113.50 15.14 111.40 15.14L111.44 15.17L111.46 15.20Q106.14 15.13 102.14 13.34L102.08 13.28L102.10 13.29Q101.55 11.49 100.86 9.93L100.82 9.89L100.76 9.82Q105.25 11.92 110.92 12.03L111.05 12.16L111.11 12.22Q116.22 12.27 121.40 10.37L121.27 10.24L121.41 10.37Q120.96 11.14 120.66 11.94L120.73 12.02L120.06 13.52L119.98 13.44Q117.02 17.18 113.03 23.01L113.07 23.05L109.61 27.73L109.61 27.73Q108.03 30.26 106.20 32.55L106.19 32.54L106.16 32.51Q109.40 31.83 112.71 31.91L112.74 31.93L112.84 32.04Q116.21 32.16 119.37 33.08L119.27 32.98L119.82 34.64L119.72 34.54Q120.06 35.45 120.41 36.29L120.33 36.21L120.34 36.22Q115.76 34.72 110.62 34.91L110.64 34.93L110.52 34.81Q105.55 35.18 101.06 37.19L100.92 37.06L100.90 37.04Q101.30 35.99 102.03 33.93ZM100.40 37.83L100.45 37.87L100.29 37.72Q101.61 37.21 102.41 36.94L102.30 36.83L102.35 36.89Q102.15 37.71 101.46 39.23L101.40 39.17L101.48 39.25Q107.03 36.96 113.01 37.19L113.03 37.21L113.03 37.21Q119.41 37.49 124.43 40.27L124.53 40.37L124.39 40.23Q123.01 37.86 122.21 35.69L122.21 35.69L122.31 35.79Q121.75 35.50 120.23 34.93L120.13 34.83L120.25 34.95Q119.97 34.10 119.55 32.62L119.58 32.64L119.52 32.58Q115.42 31.45 110.32 31.64L110.38 31.70L110.33 31.65Q112.56 29.01 116.10 23.45L116.01 23.37L116.04 23.39Q119.73 17.71 121.63 15.16L121.68 15.21L121.65 15.19Q122.12 13.74 123.14 11.04L123.05 10.94L123.05 10.95Q122.36 11.28 120.91 11.89L120.89 11.87L120.89 11.87Q121.26 11.10 121.99 9.58L122.07 9.66L122.05 9.65Q116.75 11.81 111.04 11.73L110.91 11.60L111.04 11.73Q105.02 11.58 100.08 9.06L100.16 9.15L100.10 9.09Q101.19 11.39 101.91 13.64L102.03 13.76L102.00 13.74Q103.01 14.17 103.81 14.40L103.86 14.45L103.84 14.43Q104.06 15.07 104.33 16.52L104.31 16.49L104.46 16.65Q108.21 17.73 113.08 17.54L113.01 17.47L113.06 17.51Q110.69 20.74 107.38 25.73L107.34 25.70L101.71 33.92L101.77 33.98Q101.38 35.23 100.35 37.78Z"/><path d="M11 37 C114 31,114 39,187 31" stroke="#666" fill="none"/><path fill="#333" d="M17.19 9.23L17.19 9.23L17.34 9.37Q21.06 11.84 25.82 12.07L25.76 12.01L25.74 11.99Q30.39 12.19 34.66 10.44L34.68 10.46L34.66 10.44Q34.53 11.11 33.77 13.89L33.72 13.84L33.66 13.78Q31.03 14.92 28.06 15.07L27.99 15.01L28.01 15.02Q25.10 15.24 22.21 14.51L22.21 14.52L22.15 14.45Q22.89 18.12 23.08 21.78L22.94 21.64L22.94 21.64Q25.08 21.99 26.68 21.95L26.63 21.91L26.71 21.98Q27.85 21.91 30.25 21.79L30.30 21.84L30.21 21.75Q30.13 22.35 30.13 23.04L30.20 23.12L30.13 24.38L30.25 24.49Q27.72 24.36 22.92 24.44L22.91 24.43L22.97 24.49Q23.09 28.72 22.52 32.72L22.37 32.57L22.49 32.68Q25.03 31.95 27.77 32.07L27.87 32.16L27.88 32.18Q30.53 32.20 33.12 33.04L33.07 32.99L33.02 32.93Q33.15 33.79 33.42 34.56L33.47 34.61L33.85 36.06L33.89 36.09Q30.78 34.89 27.36 34.89L27.19 34.73L27.31 34.85Q22.50 34.90 18.23 37.15L18.10 37.01L18.16 37.08Q20.43 30.21 20.16 23.09L20.10 23.02L20.11 23.03Q19.96 16.00 17.30 9.34ZM17.60 37.73L17.64 37.78L17.63 37.76Q18.93 37.08 19.69 36.74L19.66 36.71L19.74 36.79Q19.46 37.46 18.89 38.98L18.84 38.93L18.80 38.90Q23.47 37.06 28.53 37.32L28.58 37.37L28.46 37.24Q33.67 37.59 37.67 40.29L37.64 40.26L37.76 40.38Q36.52 37.77 35.84 35.83L35.90 35.89L35.75 35.75Q34.72 35.10 33.73 34.75L33.76 34.78L33.92 34.95Q33.41 33.45 33.26 32.65L33.27 32.66L33.30 32.68Q30.24 31.72 27.08 31.72L27.11 31.75L27.09 31.73Q25.89 31.67 24.75 31.79L24.79 31.83L24.75 31.79Q24.79 30.46 24.83 29.24L24.94 29.35L25.00 26.82L25.00 26.82Q26.86 26.77 28.65 26.81L28.66 26.83L28.65 26.82Q30.44 26.82 32.23 26.97L32.22 26.96L32.24 26.98Q32.13 25.99 32.13 25.04L32.17 25.09L32.10 23.11L31.39 23.27L31.38 23.26Q30.85 23.23 30.39 23.23L30.47 23.30L30.54 23.38Q30.40 22.55 30.55 21.25L30.68 21.38L30.59 21.30Q28.94 21.47 27.76 21.51L27.90 21.65L27.83 21.58Q26.81 21.52 24.99 21.44L25.11 21.56L25.17 21.62Q25.07 20.19 24.88 17.37L24.74 17.23L24.84 17.33Q25.85 17.43 26.84 17.43L26.91 17.51L26.85 17.44Q31.59 17.46 35.28 15.56L35.20 15.48L35.23 15.50Q35.74 13.09 36.62 10.88L36.65 10.91L36.74 11.00Q35.25 11.68 34.41 12.02L34.47 12.08L34.59 12.20Q34.86 11.40 35.32 9.84L35.35 9.87L35.26 9.79Q30.68 11.98 25.80 11.67L25.85 11.72L25.70 11.57Q20.50 11.35 16.65 8.50L16.62 8.46L16.63 8.48Q19.58 15.51 19.89 23.12L19.79 23.02L19.73 22.96Q20.20 31.05 17.69 37.82Z"/><path fill="#222" d="M53.80 14.72L53.66 14.58L52.24 14.84L52.06 14.65Q49.84 14.79 49.61 16.81L49.75 16.95L49.70 16.90Q49.52 17.52 49.56 18.51L49.70 18.65L49.71 18.66Q49.74 20.59 50.99 21.92L51.01 21.94L50.95 21.88Q52.19 23.19 54.09 23.04L54.02 22.97L54.08 23.03Q56.20 22.94 56.96 22.02L56.91 21.98L56.92 21.98Q57.96 21.04 58.22 18.80L58.30 18.87L58.24 18.82Q58.61 16.67 57.36 15.84L57.22 15.70L57.29 15.77Q56.42 14.98 53.76 14.68ZM59.68 23.80L59.86 23.97L58.38 26.07L58.56 26.25Q55.69 30.88 51.92 34.95L51.98 35.02L51.97 35.01Q50.36 35.19 47.66 35.99L47.62 35.95L47.62 35.95Q53.05 29.77 56.21 24.97L56.05 24.81L56.11 24.87Q55.22 25.65 53.58 25.73L53.56 25.71L53.54 25.69Q50.47 25.78 48.95 23.80L49.01 23.86L48.93 23.78Q47.67 22.14 46.57 17.57L46.67 17.67L46.69 17.70Q46.56 17.10 46.40 16.17L46.55 16.32L46.44 16.21Q46.34 15.32 46.34 14.87L46.34 14.87L46.31 14.84Q46.39 13.14 47.46 12.53L47.46 12.53L47.35 12.41Q48.54 11.63 50.41 11.63L50.40 11.62L50.39 11.61Q53.74 11.77 53.74 11.77L53.65 11.67L53.62 11.64Q55.89 11.78 57.15 11.97L57.06 11.88L57.04 11.87Q59.20 12.16 60.12 12.66L60.20 12.74L60.25 12.79Q61.54 13.47 61.73 15.22L61.71 15.20L61.78 15.28Q61.73 15.45 61.54 18.11L61.47 18.04L61.51 18.08Q61.06 20.14 60.83 20.98L60.93 21.08L60.89 21.04Q60.56 22.51 59.80 23.92ZM61.65 26.25L61.64 26.25L61.58 26.19Q62.58 23.99 63.12 19.69L63.13 19.71L63.11 19.69Q63.49 17.59 63.45 16.72L63.45 16.72L63.40 16.66Q63.31 14.75 62.13 13.83L62.12 13.83L61.84 13.73L61.83 13.73Q61.68 13.08 60.77 12.44L60.68 12.34L60.72 12.39Q58.48 11.44 53.68 11.28L53.67 11.28L53.57 11.18Q52.74 11.29 50.30 11.29L50.29 11.28L50.31 11.30Q48.50 11.24 47.01 11.92L47.10 12.01L47.08 11.99Q45.77 12.63 45.85 14.46L45.94 14.55L45.98 14.59Q46.14 15.47 46.33 17.48L46.39 17.55L46.26 17.41Q46.88 20.06 47.15 20.89L47.23 20.98L47.20 20.95Q47.74 22.78 48.69 24.07L48.64 24.02L48.79 24.17Q48.90 24.36 49.28 24.74L49.41 24.87L49.36 24.82Q49.69 25.34 50.34 26.25L50.26 26.17L50.26 26.17Q51.82 27.62 53.76 27.81L53.78 27.83L53.76 27.81Q51.79 30.41 50.23 32.31L50.20 32.28L46.61 36.69L46.68 36.76Q48.89 35.96 50.53 35.62L50.59 35.68L50.45 35.54Q49.66 36.39 48.10 38.10L48.22 38.22L48.15 38.15Q51.26 37.26 54.38 37.23L54.43 37.28L54.40 37.24Q56.69 34.62 61.03 27.39L61.01 27.37L61.08 27.52L61.16 27.60Q61.24 26.68 61.58 26.19ZM55.70 17.07L55.56 16.93L55.58 16.95Q56.31 16.96 56.77 17.08L56.73 17.03L56.78 17.09Q57.30 17.08 57.69 17.19L57.69 17.20L57.78 17.28Q57.94 17.71 58.02 18.13L57.93 18.04L58.04 18.16Q58.02 18.48 57.90 18.86L57.97 18.92L57.86 18.81Q57.82 20.52 56.64 21.63L56.62 21.61L56.62 21.61Q55.73 22.69 54.09 22.66L54.14 22.71L54.18 22.75Q53.61 22.60 52.09 22.29L52.24 22.44L52.13 22.33Q51.96 21.52 51.96 20.80L51.94 20.77L51.99 20.83Q51.94 20.59 51.94 20.36L51.84 20.25L51.81 20.23Q51.90 18.11 54.19 17.31L54.04 17.16L54.18 17.30Q54.73 16.94 55.57 16.94Z"/><path fill="#222" d="M77.10 14.09L77.19 14.18L77.19 14.18Q78.27 18.61 78.42 21.81L78.53 21.92L78.44 21.82Q79.02 21.94 83.39 22.06L83.30 21.96L83.39 22.05Q85.87 22.02 86.25 18.55L86.37 18.68L86.37 18.68Q86.44 16.81 85.53 15.89L85.50 15.87L85.49 15.85Q84.19 14.93 82.21 14.78L82.34 14.91L82.36 14.94Q78.98 14.56 77.11 14.10ZM78.57 23.78L78.68 23.89L78.56 23.77Q78.86 29.90 77.07 35.84L77.04 35.80L77.07 35.83Q75.70 36.02 73.11 37.05L73.14 37.08L73.07 37.01Q75.91 30.52 75.57 23.06L75.71 23.20L75.72 23.22Q75.27 15.72 71.96 9.21L72.06 9.31L71.94 9.20Q76.80 12.00 83.77 12.00L83.88 12.11L83.76 11.99Q89.53 12.13 89.80 15.67L89.74 15.61L89.71 15.58Q89.74 16.14 89.66 16.75L89.66 16.75L89.63 17.94L89.61 17.92Q88.80 21.87 86.67 23.58L86.74 23.65L86.68 23.59Q85.82 24.22 84.80 24.22L84.87 24.30L82.34 24.36L82.27 24.28Q87.81 31.46 92.34 36.03L92.38 36.07L92.42 36.11Q90.19 35.32 87.26 34.98L87.30 35.03L87.32 35.04Q83.57 31.10 78.65 23.87ZM87.26 35.48L87.13 35.35L87.45 35.37L88.71 36.63L88.75 36.67Q89.29 37.17 89.94 37.78L89.99 37.83L90.01 37.85Q93.50 38.40 97.07 40.27L97.03 40.22L96.99 40.18Q90.16 33.54 84.75 26.61L84.77 26.63L86.55 26.66L86.42 26.53Q89.60 26.62 90.93 22.09L90.97 22.14L90.85 22.02Q91.60 19.87 91.60 17.17L91.50 17.07L91.66 17.22Q91.62 14.90 89.90 14.25L89.88 14.23L89.85 14.20Q89.82 13.90 89.25 13.22L89.15 13.12L89.10 13.07Q87.50 11.70 83.85 11.63L83.79 11.57L83.79 11.57Q75.92 11.43 71.24 8.42L71.34 8.52L71.31 8.49Q75.10 15.36 75.44 23.05L75.32 22.93L75.44 23.05Q75.79 31.01 72.67 37.86L72.55 37.75L72.56 37.76Q73.79 37.16 74.59 36.85L74.62 36.89L73.64 39.18L73.66 39.21Q76.31 38.09 78.98 37.59L79.12 37.74L79.04 37.65Q80.35 32.56 80.54 27.35L80.44 27.25L80.57 27.38Q83.96 32.22 87.12 35.34ZM85.86 17.41L85.93 17.47L85.96 17.51Q85.92 17.69 85.92 18.03L85.85 17.96L86.02 18.71L85.91 18.60Q85.98 19.77 85.30 20.72L85.29 20.72L85.17 20.60Q84.60 21.40 83.69 21.59L83.71 21.61L83.81 21.72Q83.45 21.62 81.85 21.66L81.95 21.75L81.87 21.68Q81.36 21.77 80.52 21.66L80.54 21.68L80.48 21.61Q80.46 20.19 80.12 17.15L80.12 17.15L80.00 17.03Q81.44 17.25 82.12 17.25L82.16 17.29L82.13 17.25Q83.87 17.16 85.81 17.35Z"/><path fill="#444" d="M164.79 21.89L164.64 21.74L164.75 21.85Q166.49 21.95 168.31 21.95L168.43 22.06L168.35 21.98Q170.09 21.94 171.92 21.79L172.03 21.89L171.94 21.81Q171.81 22.44 171.81 23.16L171.92 23.27L171.86 24.54L171.80 24.48Q169.54 24.59 164.78 24.70L164.71 24.63L164.81 24.73Q164.67 30.53 163.53 35.52L163.68 35.67L163.64 35.63Q161.34 36.22 159.86 37.02L159.96 37.13L159.87 37.04Q162.17 30.19 161.90 23.07L161.85 23.03L161.92 23.10Q161.75 16.04 159.09 9.38L158.99 9.27L159.11 9.40Q162.67 11.82 167.43 12.04L167.49 12.10L167.43 12.04Q172.05 12.17 176.19 10.42L176.24 10.46L176.36 10.58Q176.06 11.39 175.84 12.19L175.79 12.14L175.27 13.71L175.34 13.78Q172.60 14.85 169.63 15.01L169.63 15.01L169.53 14.91Q166.58 15.04 163.73 14.32L163.88 14.47L163.78 14.37Q164.47 17.76 164.66 21.76ZM176.93 9.82L176.87 9.75L176.99 9.88Q172.31 11.94 167.44 11.64L167.52 11.72L167.52 11.72Q162.09 11.31 158.36 8.46L158.41 8.51L158.42 8.51Q161.29 15.46 161.59 23.07L161.58 23.06L161.66 23.13Q161.95 31.04 159.44 37.82L159.36 37.74L159.34 37.72Q160.02 37.34 161.39 36.69L161.34 36.64L161.45 36.75Q161.13 37.38 160.56 38.90L160.57 38.92L160.60 38.94Q162.99 37.95 165.88 37.45L165.80 37.37L165.94 37.51Q166.50 32.58 166.69 26.87L166.71 26.89L166.69 26.88Q168.47 26.83 170.30 26.83L170.36 26.89L170.27 26.80Q172.15 26.89 173.98 27.08L173.86 26.96L174.00 27.10Q173.71 25.98 173.71 25.07L173.87 25.22L173.70 23.14L173.78 23.22Q173.08 23.40 172.24 23.40L172.24 23.40L172.20 23.36Q172.24 22.53 172.32 21.50L172.25 21.43L172.30 21.48Q170.89 21.64 169.49 21.64L169.43 21.58L169.39 21.54Q168.12 21.68 166.75 21.64L166.65 21.54L166.58 19.34L166.69 19.45Q166.54 18.23 166.42 17.17L166.41 17.15L166.49 17.23Q167.56 17.39 168.55 17.39L168.52 17.36L168.47 17.31Q173.29 17.38 176.91 15.47L176.89 15.45L176.87 15.43Q177.30 13.54 178.22 10.91L178.26 10.96L178.18 10.88Q176.88 11.71 176.08 12.05L176.23 12.20L176.16 12.13Q176.49 11.43 176.98 9.87Z"/></svg>