<svg xmlns="http://www.w3.org/2000/svg" width="200" height="40" viewBox="0,0,200,40"><path d="M16 15 C119 8,81 35,181 34" stroke="#666" fill="none"/><path fill="#222" d="M136.40 21.78L136.39 21.78L136.47 21.86Q138.18 21.93 140.01 21.93L139.97 21.89L139.97 21.89Q141.90 22.03 143.73 21.88L143.64 21.79L143.74 21.89Q143.61 22.53 143.61 23.25L143.49 23.13L143.58 24.55L143.48 24.45Q141.17 24.50 136.41 24.62L136.38 24.58L136.49 24.69Q136.54 30.68 135.40 35.67L135.33 35.60L135.31 35.58Q133.13 36.30 131.65 37.10L131.62 37.07L131.70 37.15Q133.95 30.26 133.68 23.14L133.62 23.08L133.69 23.15Q133.39 15.96 130.72 9.29L130.80 9.37L130.79 9.36Q134.38 11.81 139.14 12.04L139.09 11.99L139.19 12.09Q143.92 12.33 148.07 10.58L148.00 10.50L147.98 10.49Q147.67 11.28 147.44 12.08L147.46 12.10L146.93 13.66L146.99 13.72Q144.22 14.76 141.25 14.91L141.28 14.94L141.34 15.00Q138.47 15.21 135.61 14.49L135.61 14.49L135.48 14.36Q136.29 17.87 136.48 21.87ZM148.67 9.84L148.67 9.84L148.63 9.80Q144.05 11.97 139.18 11.66L139.18 11.66L139.18 11.66Q133.82 11.32 130.09 8.47L130.07 8.45L130.17 8.55Q132.94 15.40 133.25 23.01L133.34 23.11L133.33 23.10Q133.59 30.96 131.07 37.74L131.09 37.76L131.10 37.76Q131.82 37.42 133.19 36.77L133.22 36.80L133.03 36.62Q132.95 37.49 132.38 39.01L132.35 38.97L132.37 38.99Q134.79 38.03 137.68 37.53L137.62 37.47L137.57 37.43Q138.15 32.52 138.34 26.81L138.30 26.77L138.44 26.91Q140.25 26.89 142.08 26.89L142.04 26.85L141.94 26.75Q143.78 26.81 145.61 27.00L145.60 26.99L145.66 27.05Q145.56 26.11 145.56 25.19L145.44 25.08L145.59 23.33L145.49 23.22Q144.69 23.30 143.85 23.30L143.82 23.27L143.97 23.42Q143.83 22.41 143.91 21.38L144.03 21.49L143.93 21.40Q142.61 21.64 141.20 21.64L141.22 21.65L141.18 21.61Q139.81 21.66 138.44 21.62L138.52 21.70L138.42 19.47L138.24 19.29Q138.26 18.24 138.14 17.17L138.15 17.17L138.24 17.27Q139.08 17.20 140.07 17.20L140.14 17.27L140.24 17.36Q144.87 17.23 148.48 15.33L148.59 15.43L148.48 15.33Q149.08 13.61 150.00 10.98L149.86 10.84L150.02 11.01Q148.75 11.87 147.95 12.21L147.93 12.18L147.89 12.14Q148.21 11.44 148.71 9.88Z"/><path fill="#222" d="M45.48 9.23L45.48 9.24L45.56 9.32Q49.38 11.87 54.13 12.10L54.18 12.15L54.09 12.05Q58.76 12.27 63.02 10.52L62.91 10.41L62.90 10.40Q62.68 10.98 61.92 13.76L62.04 13.88L61.96 13.80Q59.20 14.80 56.23 14.95L56.31 15.04L56.28 15.00Q53.37 15.22 50.48 14.50L50.34 14.35L50.36 14.38Q51.02 17.97 51.21 21.62L51.20 21.62L51.30 21.71Q53.30 21.92 54.90 21.89L54.82 21.81L54.87 21.86Q56.15 21.92 58.55 21.80L58.50 21.76L58.46 21.71Q58.48 22.42 58.48 23.11L58.46 23.09L58.39 24.35L58.51 24.47Q56.03 24.39 51.23 24.46L51.22 24.45L51.23 24.46Q51.26 28.60 50.69 32.60L50.68 32.59L50.79 32.70Q53.27 31.91 56.01 32.02L56.12 32.13L56.10 32.11Q58.74 32.12 61.32 32.96L61.42 33.06L61.43 33.06Q61.47 33.83 61.74 34.59L61.79 34.64L62.19 36.11L62.09 36.01Q59.04 34.86 55.62 34.86L55.62 34.87L55.54 34.79Q50.71 34.83 46.44 37.07L46.43 37.06L46.34 36.97Q48.72 30.22 48.46 23.10L48.56 23.20L48.54 23.18Q48.24 15.99 45.57 9.33ZM45.87 37.71L45.95 37.80L45.90 37.74Q47.22 37.09 47.98 36.74L47.97 36.73L47.95 36.72Q47.68 37.39 47.11 38.92L47.11 38.92L47.14 38.95Q51.71 37.01 56.77 37.28L56.79 37.29L56.69 37.19Q61.99 37.62 65.98 40.32L65.94 40.27L65.98 40.31Q64.72 37.69 64.04 35.74L64.04 35.75L64.02 35.73Q63.08 35.17 62.09 34.83L62.06 34.79L62.03 34.76Q61.73 33.48 61.58 32.68L61.56 32.66L61.52 32.62Q58.47 31.67 55.31 31.67L55.40 31.76L55.29 31.64Q54.19 31.69 53.05 31.80L52.99 31.75L53.06 31.81Q53.16 30.54 53.20 29.32L53.10 29.23L53.26 26.80L53.30 26.84Q55.09 26.72 56.88 26.76L56.96 26.84L56.83 26.71Q58.65 26.74 60.44 26.90L60.54 26.99L60.45 26.90Q60.45 26.03 60.45 25.08L60.52 25.15L60.38 23.11L59.57 23.17L59.58 23.18Q59.19 23.28 58.73 23.28L58.68 23.23L58.67 23.22Q58.78 22.64 58.93 21.35L58.95 21.37L58.99 21.41Q57.26 21.50 56.08 21.54L56.06 21.53L56.09 21.55Q55.17 21.59 53.34 21.51L53.41 21.58L53.27 21.44Q53.23 20.07 53.04 17.25L53.06 17.27L53.17 17.38Q54.21 17.50 55.20 17.50L55.03 17.34L55.11 17.42Q59.78 17.37 63.47 15.46L63.42 15.41L63.58 15.57Q64.02 13.08 64.90 10.87L65.05 11.02L64.98 10.95Q63.68 11.82 62.84 12.17L62.86 12.18L62.81 12.13Q63.04 11.30 63.50 9.74L63.46 9.70L63.65 9.89Q59.01 12.02 54.13 11.72L53.94 11.53L54.01 11.60Q48.81 11.38 44.96 8.52L44.91 8.48L44.97 8.53Q47.83 15.46 48.13 23.08L48.09 23.04L48.05 22.99Q48.50 31.06 45.99 37.83Z"/><path fill="#333" d="M166.87 24.26L166.88 24.26L166.81 24.20Q164.90 24.15 163.68 25.48L163.63 25.43L163.80 25.60Q162.56 26.91 162.41 28.81L162.39 28.80L162.26 28.67Q162.14 30.87 163.36 31.88L163.40 31.93L163.32 31.84Q164.54 32.85 166.67 32.78L166.65 32.76L166.73 32.83Q169.05 32.68 170.00 31.73L170.05 31.77L169.92 31.64Q171.01 30.26 170.89 28.43L170.91 28.45L170.99 28.53Q170.82 26.60 169.73 25.40L169.64 25.31L169.67 25.35Q168.67 24.22 166.84 24.22ZM166.74 14.72L166.84 14.82L166.83 14.81Q165.42 14.69 164.08 15.19L164.05 15.16L163.95 15.05Q162.68 15.88 162.91 17.74L163.02 17.86L162.92 17.76Q163.44 21.51 166.79 21.51L166.78 21.50L166.83 21.55Q168.39 21.74 169.38 20.60L169.29 20.51L169.34 20.56Q170.40 19.49 170.44 17.93L170.41 17.90L170.46 17.95Q170.55 16.21 169.82 15.60L169.83 15.60L169.78 15.56Q168.13 14.74 166.84 14.82ZM166.60 35.40L166.53 35.33L163.50 35.35L163.53 35.38Q161.87 35.24 160.53 34.37L160.64 34.48L160.61 34.45Q159.21 33.27 159.37 30.42L159.32 30.37L159.33 30.38Q159.84 23.59 163.46 22.60L163.43 22.57L163.42 22.56Q161.23 21.73 159.89 16.37L159.92 16.39L159.82 16.29Q159.45 14.85 159.52 14.05L159.49 14.02L159.58 14.11Q159.86 11.95 163.55 11.91L163.59 11.95L163.53 11.89Q167.75 11.81 169.19 12.00L169.34 12.14L169.24 12.05Q173.03 12.53 173.49 14.54L173.59 14.65L173.58 14.64Q173.75 15.30 173.75 15.68L173.70 15.63L173.56 15.49Q173.60 16.21 173.41 16.82L173.53 16.95L173.39 16.80Q172.87 21.12 169.94 22.65L170.02 22.72L169.89 22.60Q173.33 23.33 173.82 28.62L173.91 28.71L174.00 28.80Q173.86 28.81 173.90 30.10L174.04 30.25L173.98 30.18Q174.11 32.98 172.51 34.05L172.41 33.95L172.41 33.95Q171.09 34.87 166.52 35.32ZM168.76 37.60L168.75 37.60L172.14 37.71L172.03 37.60Q173.83 37.76 175.35 37.04L175.29 36.98L175.30 36.99Q176.43 36.25 176.51 34.39L176.60 34.48L176.50 34.38Q176.70 33.44 176.32 31.50L176.21 31.38L176.16 31.34Q175.40 26.85 173.31 24.98L173.25 24.93L172.98 24.46L172.94 24.35L172.80 24.09L172.63 23.93Q174.33 22.62 175.24 18.47L175.32 18.55L175.27 18.49Q175.32 18.16 175.39 17.32L175.39 17.32L175.26 17.19Q175.45 16.62 175.37 16.01L175.31 15.94L175.39 16.03Q175.08 14.42 173.90 13.93L173.90 13.92L174.04 14.03L173.77 13.83L173.85 13.91Q173.55 13.16 172.37 12.36L172.41 12.40L172.47 12.42L172.41 12.36Q170.36 11.60 166.29 11.41L166.45 11.58L166.31 11.44Q164.74 11.32 163.37 11.43L163.51 11.57L163.45 11.51Q162.58 11.48 161.29 11.63L161.32 11.66L161.45 11.79Q159.43 12.09 159.20 13.73L159.27 13.80L159.23 13.76Q159.06 14.13 159.10 14.92L159.28 15.10L159.21 15.04Q159.32 15.57 159.89 17.93L159.97 18.00L159.80 17.83Q160.77 21.24 162.52 22.57L162.52 22.57L162.52 22.57L162.41 22.46Q159.69 23.81 159.16 28.99L159.13 28.97L159.28 29.12Q159.07 31.30 159.07 32.21L159.05 32.20L159.09 32.23Q159.11 33.97 160.29 34.88L160.33 34.92L160.28 34.88Q160.47 35.02 160.73 35.21L160.62 35.10L160.73 35.21Q161.56 37.30 168.68 37.53ZM168.38 26.49L168.40 26.51L168.46 26.57Q169.34 26.46 170.21 26.91L170.33 27.03L170.33 27.03Q170.62 27.93 170.59 28.47L170.57 28.45L170.60 28.48Q170.70 28.85 170.70 29.15L170.55 29.00L170.58 29.03Q170.62 31.43 168.33 32.26L168.30 32.23L168.27 32.20Q167.59 32.63 166.79 32.51L166.82 32.55L166.82 32.54Q165.67 32.61 164.53 32.15L164.39 32.02L164.40 32.02Q164.13 31.37 164.21 30.39L164.37 30.55L164.28 30.46Q164.54 28.96 165.73 27.75L165.65 27.66L165.56 27.57Q166.81 26.40 168.40 26.51ZM168.72 17.12L168.73 17.13L168.60 17.00Q169.38 16.87 169.91 17.02L170.02 17.12L169.96 17.86L169.91 17.82Q170.01 19.33 169.10 20.34L169.10 20.34L169.11 20.35Q168.13 21.29 166.76 21.10L166.75 21.09L166.86 21.20Q165.85 21.18 165.43 20.95L165.33 20.85L165.33 20.85Q165.33 20.62 165.21 19.93L165.29 20.01L165.30 20.02Q164.92 18.50 166.14 17.66L166.21 17.73L166.13 17.65Q167.27 17.04 168.68 17.08Z"/><path fill="#333" d="M106.88 35.29L107.02 35.42L106.98 35.38Q105.58 35.47 104.02 35.05L103.94 34.97L103.93 34.96Q102.66 34.00 102.51 32.36L102.67 32.52L102.53 32.38Q102.66 32.35 102.85 29.73L102.75 29.63L102.83 29.71Q103.82 29.48 105.84 29.10L105.75 29.01L105.70 29.92L105.63 29.85Q105.37 31.60 106.78 32.17L106.79 32.18L106.66 32.05Q107.46 32.40 109.55 32.40L109.54 32.39L109.60 32.45Q111.27 32.37 111.46 32.29L111.44 32.27L111.44 32.27Q112.33 32.09 113.05 31.60L113.12 31.66L113.00 31.55Q114.48 30.66 114.29 28.57L114.27 28.55L114.25 28.54Q114.19 26.23 112.46 24.67L112.38 24.59L112.29 24.50Q110.60 22.98 108.13 22.98L108.06 22.91L108.07 22.70L108.10 22.73Q108.45 22.66 109.33 22.58L109.41 22.67L109.47 22.72Q111.31 22.54 112.68 21.31L112.66 21.29L112.66 21.29Q114.04 20.06 114.19 18.19L114.11 18.11L114.30 18.30Q114.38 17.96 114.38 17.62L114.34 17.59L114.34 17.58Q114.23 15.94 112.86 15.03L112.98 15.16L112.89 15.06Q111.69 14.28 110.09 14.39L110.15 14.46L110.17 14.47Q108.74 14.19 107.52 14.60L107.67 14.76L107.53 14.61Q106.08 15.14 105.77 16.28L105.80 16.32L105.86 16.37Q105.56 17.03 105.64 17.79L105.73 17.88L105.76 17.91Q104.60 17.55 102.55 16.83L102.58 16.86L102.60 16.88Q102.38 15.22 102.42 14.38L102.52 14.48L102.37 14.33Q102.54 12.86 103.61 12.18L103.56 12.13L103.64 12.22Q104.96 11.52 106.56 11.52L106.59 11.55L106.63 11.58Q109.85 11.61 113.01 11.88L112.86 11.72L112.89 11.75Q117.97 12.18 117.66 15.95L117.80 16.09L117.76 16.06Q117.57 17.42 117.07 18.98L117.09 19.00L117.09 19.00Q116.24 22.15 113.88 23.06L113.85 23.03L113.96 23.14Q116.52 23.61 117.13 26.96L117.14 26.97L117.12 26.95Q117.26 28.00 117.33 30.02L117.49 30.17L117.37 30.06Q117.58 34.57 112.98 35.02L113.05 35.09L112.95 34.99Q112.18 35.03 106.89 35.30ZM112.20 37.63L112.11 37.54L112.18 37.61Q112.72 37.58 115.57 37.66L115.65 37.73L115.59 37.67Q117.31 37.72 118.95 37.07L119.07 37.20L119.03 37.15Q120.25 36.24 120.06 34.49L119.94 34.37L120.00 34.44Q119.82 33.04 119.52 31.29L119.67 31.44L119.66 31.43Q118.91 26.91 116.97 25.27L116.99 25.30L116.78 24.90L116.58 24.66L116.65 24.72Q118.36 23.24 119.12 18.86L119.28 19.02L119.10 18.84Q119.19 18.43 119.30 17.48L119.28 17.46L119.36 17.54Q119.35 16.69 119.27 16.00L119.34 16.07L119.43 16.16Q119.26 14.47 117.97 13.79L117.81 13.62L117.87 13.76L117.76 13.65Q117.56 12.77 116.42 12.23L116.44 12.26L116.33 12.14Q114.80 11.46 109.66 11.15L109.74 11.23L109.66 11.15Q108.01 11.10 106.41 11.10L106.45 11.14L106.50 11.19Q104.91 11.20 103.39 11.84L103.39 11.84L103.36 11.82Q102.12 12.56 102.12 14.31L102.18 14.36L102.12 14.31Q102.05 13.82 102.32 17.17L102.36 17.21L102.37 17.22Q102.60 17.22 104.23 17.83L104.32 17.91L104.25 17.85Q104.27 18.40 104.23 18.89L104.24 18.90L104.22 18.88Q104.19 19.35 104.23 19.88L104.26 19.91L104.34 19.99Q106.09 20.33 108.11 20.44L108.19 20.52L108.17 20.51Q108.03 18.43 109.13 17.59L109.06 17.52L109.08 17.54Q109.90 16.87 111.91 16.64L112.06 16.78L112.02 16.74Q113.15 16.73 113.72 16.92L113.81 17.01L113.81 17.02Q113.81 17.09 113.85 17.21L113.80 17.16L113.77 17.31L113.92 17.92L113.91 17.91Q113.86 18.05 113.82 18.20L113.92 18.30L113.92 18.30Q113.86 20.03 112.34 21.21L112.31 21.18L112.29 21.16Q111.42 22.13 109.41 22.32L109.27 22.18L109.25 22.16Q108.52 22.31 107.65 22.31L107.75 22.41L107.68 22.34Q107.77 22.73 107.92 23.42L107.92 23.42L107.85 23.35Q109.68 23.43 111.13 24.15L111.12 24.15L111.07 24.21L109.50 24.39L109.49 24.38Q109.48 24.68 109.60 25.29L109.51 25.20L109.63 25.32Q111.76 25.24 113.47 26.57L113.45 26.55L113.41 26.51Q113.58 26.84 113.89 28.47L114.02 28.60L113.89 28.48Q114.24 31.56 111.30 31.98L111.30 31.97L111.30 31.97Q109.05 32.09 108.48 32.05L108.51 32.08L108.55 32.12Q108.04 31.95 107.50 31.87L107.66 32.03L107.55 31.47L107.77 31.11L107.78 30.71L107.76 30.34L107.77 30.35Q106.86 30.47 106.06 30.66L106.05 30.64L106.09 30.69Q106.02 30.43 106.02 30.24L106.08 30.30L106.08 30.29Q105.95 29.94 105.95 29.71L106.04 29.80L106.09 29.85Q105.98 29.29 106.13 28.56L106.17 28.59L106.23 28.65Q104.41 28.93 102.54 29.27L102.42 29.15L102.58 29.31Q102.46 29.69 102.35 30.81L102.42 30.88L102.28 30.74Q102.35 32.05 102.35 32.66L102.19 32.50L102.29 32.60Q102.28 34.57 103.65 35.33L103.64 35.32L103.68 35.36Q105.18 37.66 109.90 37.47L110.00 37.56L110.00 37.56Q110.62 37.43 112.14 37.58Z"/><path d="M9 8 C86 9,109 11,189 17" stroke="#777" fill="none"/><path fill="#111" d="M81.66 35.20L81.74 35.29L81.74 35.29Q78.21 35.34 76.57 34.81L76.58 34.81L76.54 34.77Q74.64 34.20 74.33 30.81L74.38 30.86L75.76 29.73L75.68 29.65Q76.37 29.08 77.13 28.58L77.26 28.71L77.26 28.71Q76.94 30.57 78.54 31.79L78.63 31.88L78.50 31.75Q79.91 32.89 82.04 32.70L81.90 32.55L82.06 32.72Q86.36 32.22 86.17 28.68L86.13 28.64L86.26 28.77Q86.02 26.44 83.40 25.22L83.49 25.31L83.33 25.15Q80.59 24.20 78.22 22.98L78.08 22.84L78.13 22.88Q75.64 21.62 74.65 16.94L74.64 16.92L74.57 16.85Q74.56 16.50 74.45 15.74L74.45 15.74L74.37 15.66Q74.39 14.99 74.46 14.42L74.43 14.39L74.41 14.36Q74.63 12.84 75.89 12.38L75.82 12.31L75.75 12.24Q78.31 11.53 82.30 11.72L82.12 11.53L82.16 11.57Q84.10 11.80 84.90 11.87L84.88 11.85L84.90 11.88Q86.41 12.09 87.47 12.55L87.37 12.44L87.35 12.42Q89.48 12.92 89.71 15.39L89.78 15.46L89.73 15.41Q88.59 16.02 86.38 17.35L86.52 17.49L86.50 17.47Q86.02 14.41 81.65 14.41L81.66 14.42L81.65 14.41Q79.86 14.53 78.87 15.21L78.81 15.15L78.83 15.18Q77.68 15.70 77.91 17.49L77.88 17.46L77.87 17.45Q78.14 19.66 81.11 21.18L81.00 21.07L81.00 21.07Q81.70 21.47 86.19 23.10L86.10 23.01L86.01 22.92Q88.71 24.48 89.13 28.86L89.21 28.94L89.23 28.96Q89.23 29.12 89.31 30.37L89.22 30.28L89.15 30.21Q89.35 33.11 87.79 34.22L87.75 34.18L87.64 34.07Q85.89 35.13 81.70 35.25ZM83.94 37.56L83.95 37.57L83.97 37.59Q85.35 37.61 87.33 37.61L87.48 37.75L87.41 37.68Q89.45 37.63 90.70 37.21L90.72 37.23L90.87 37.37Q92.07 36.52 92.00 34.73L91.98 34.72L91.82 34.56Q91.96 33.75 91.58 31.69L91.57 31.68L91.50 31.61Q90.61 26.95 88.51 25.08L88.47 25.04L88.56 25.13Q87.77 23.54 86.44 22.82L86.31 22.69L81.11 20.73L80.97 20.59Q80.76 20.53 80.30 20.30L80.23 20.23L80.14 19.87L80.22 19.61L80.20 19.59Q80.03 18.16 81.17 17.55L81.24 17.62L81.17 17.55Q81.97 17.02 83.69 16.83L83.55 16.69L83.60 16.74Q84.66 16.55 85.81 17.01L85.85 17.05L85.94 17.15Q86.04 17.29 86.23 18.12L86.18 18.07L86.10 17.99Q86.44 17.99 86.94 17.76L86.83 17.65L86.78 17.60Q87.59 18.60 87.71 19.75L87.75 19.79L87.61 19.65Q87.73 19.66 91.39 17.07L91.51 17.19L91.37 17.06Q91.09 14.41 89.64 13.73L89.63 13.72L89.74 13.83Q89.09 12.49 87.64 11.95L87.76 12.07L87.74 12.05Q85.43 11.23 82.23 11.23L82.27 11.27L82.24 11.23Q77.29 11.19 75.42 11.88L75.41 11.87L75.37 11.83Q74.08 12.33 73.97 14.00L73.94 13.98L73.94 13.97Q74.01 14.62 74.43 16.83L74.32 16.71L74.42 16.82Q75.12 20.60 77.29 22.85L77.14 22.70L77.24 22.80Q77.97 24.44 79.47 25.12L79.52 25.17L79.49 25.14Q81.03 25.86 84.95 27.42L85.01 27.48L84.84 27.35L85.54 27.74L85.69 27.94L85.70 27.94Q85.71 28.22 85.75 28.56L85.82 28.63L85.84 28.65Q85.95 32.15 82.03 32.31L82.08 32.35L82.03 32.30Q80.87 32.33 79.58 31.95L79.61 31.97L79.48 31.85Q79.12 30.99 79.12 30.27L79.11 30.26L79.29 30.44Q79.18 30.07 79.22 29.80L79.23 29.81L79.19 29.77Q78.79 30.01 77.99 30.51L77.96 30.49L78.09 30.61Q77.49 29.40 77.64 28.03L77.59 27.98L77.62 28.01Q75.55 29.22 73.96 30.63L73.94 30.62L73.97 30.64Q74.08 31.51 74.15 32.54L74.16 32.55L74.07 32.45Q74.42 34.22 75.72 34.98L75.84 35.10L75.77 35.03Q76.96 36.83 79.51 37.21L79.59 37.29L79.53 37.23Q81.04 37.40 83.97 37.59Z"/><path fill="#222" d="M23.32 21.85L23.23 21.76L23.31 21.84Q25.00 21.89 26.82 21.89L26.89 21.95L26.93 21.99Q28.79 22.07 30.62 21.92L30.46 21.75L30.48 21.77Q30.49 22.55 30.49 23.27L30.44 23.22L30.33 24.44L30.49 24.61Q28.06 24.53 23.30 24.65L23.27 24.61L23.26 24.61Q23.34 30.63 22.20 35.61L22.06 35.48L22.23 35.65Q19.89 36.20 18.41 37.00L18.43 37.02L18.40 36.99Q20.85 30.30 20.58 23.18L20.58 23.19L20.48 23.08Q20.30 16.01 17.64 9.35L17.49 9.21L17.67 9.38Q21.18 11.76 25.94 11.98L26.01 12.05L25.98 12.02Q30.65 12.20 34.80 10.45L34.84 10.49L34.93 10.58Q34.52 11.27 34.29 12.07L34.38 12.16L33.81 13.69L33.93 13.80Q31.22 14.90 28.25 15.05L28.24 15.04L28.14 14.94Q25.21 15.10 22.36 14.37L22.30 14.32L22.34 14.36Q23.19 17.91 23.38 21.91ZM35.51 9.83L35.45 9.76L35.42 9.73Q30.91 11.96 26.04 11.66L26.04 11.67L26.06 11.69Q20.67 11.32 16.94 8.46L16.89 8.41L16.88 8.41Q19.75 15.35 20.05 22.96L20.12 23.02L20.20 23.10Q20.50 31.02 17.99 37.80L18.02 37.83L18.01 37.82Q18.55 37.29 19.92 36.65L19.90 36.62L19.99 36.72Q19.86 37.54 19.29 39.06L19.18 38.95L19.20 38.98Q21.61 38.00 24.51 37.50L24.40 37.40L24.53 37.52Q25.13 32.64 25.32 26.93L25.19 26.80L25.20 26.82Q26.96 26.75 28.79 26.75L28.78 26.74L28.88 26.84Q30.69 26.86 32.52 27.05L32.51 27.04L32.42 26.95Q32.30 25.99 32.30 25.08L32.35 25.13L32.46 23.33L32.32 23.20Q31.61 23.37 30.78 23.37L30.77 23.36L30.69 23.28Q30.81 22.52 30.88 21.50L30.80 21.41L30.90 21.51Q29.40 21.57 27.99 21.57L28.14 21.72L27.99 21.57Q26.73 21.72 25.36 21.68L25.31 21.63L25.14 19.33L25.13 19.31Q25.25 18.37 25.13 17.30L25.15 17.32L25.04 17.21Q26.03 17.29 27.02 17.29L27.10 17.37L27.09 17.36Q31.81 17.32 35.43 15.41L35.41 15.40L35.48 15.47Q35.83 13.50 36.75 10.87L36.76 10.88L36.81 10.94Q35.42 11.68 34.62 12.03L34.66 12.06L34.77 12.17Q34.93 11.30 35.43 9.74Z"/></svg>