<svg xmlns="http://www.w3.org/2000/svg" width="200" height="40" viewBox="0,0,200,40"><path d="M4 6 C89 7,87 13,193 6" stroke="#555" fill="none"/><path d="M20 35 C112 26,89 34,188 7" stroke="#333" fill="none"/><path fill="#333" d="M166.79 24.17L166.86 24.25L166.79 24.17Q164.86 24.11 163.64 25.44L163.69 25.49L163.68 25.49Q162.47 26.82 162.32 28.72L162.39 28.79L162.31 28.72Q162.07 30.80 163.29 31.81L163.30 31.83L163.32 31.84Q164.63 32.94 166.76 32.86L166.72 32.82L166.82 32.93Q169.11 32.74 170.06 31.78L170.05 31.78L169.96 31.69Q171.08 30.33 170.97 28.50L170.96 28.49L170.86 28.40Q170.76 26.55 169.68 25.35L169.78 25.46L169.70 25.37Q168.68 24.24 166.85 24.24ZM166.77 14.75L166.81 14.79L166.72 14.70Q165.41 14.69 164.08 15.18L164.06 15.16L163.96 15.06Q162.75 15.95 162.98 17.82L162.88 17.72L162.89 17.72Q163.50 21.57 166.85 21.57L166.74 21.46L166.71 21.43Q168.44 21.79 169.43 20.65L169.28 20.50L169.44 20.66Q170.30 19.39 170.34 17.83L170.31 17.80L170.30 17.79Q170.49 16.15 169.77 15.54L169.77 15.55L169.70 15.48Q168.08 14.69 166.79 14.77ZM166.43 35.23L166.51 35.32L163.53 35.38L163.36 35.21Q161.97 35.34 160.63 34.47L160.63 34.46L160.64 34.47Q159.32 33.38 159.48 30.53L159.45 30.51L159.47 30.53Q159.75 23.49 163.36 22.50L163.50 22.64L163.37 22.50Q161.20 21.71 159.87 16.34L159.89 16.36L159.80 16.27Q159.45 14.86 159.53 14.06L159.49 14.02L159.55 14.08Q159.91 12.00 163.60 11.97L163.48 11.84L163.58 11.94Q167.82 11.89 169.27 12.08L169.22 12.03L169.20 12.01Q173.03 12.52 173.48 14.54L173.62 14.67L173.47 14.52Q173.59 15.14 173.59 15.52L173.61 15.54L173.74 15.67Q173.64 16.25 173.45 16.86L173.55 16.96L173.52 16.94Q172.95 21.19 170.01 22.72L169.88 22.58L169.92 22.62Q173.39 23.39 173.89 28.68L173.92 28.72L173.90 28.70Q173.88 28.83 173.92 30.12L173.97 30.18L174.00 30.21Q174.02 32.89 172.42 33.96L172.40 33.93L172.40 33.94Q171.09 34.87 166.52 35.33ZM168.72 37.56L168.72 37.56L172.06 37.63L172.08 37.65Q173.90 37.83 175.42 37.11L175.41 37.10L175.42 37.11Q176.47 36.30 176.55 34.43L176.69 34.57L176.60 34.48Q176.70 33.44 176.32 31.50L176.19 31.37L176.29 31.47Q175.41 26.85 173.31 24.99L173.29 24.96L173.00 24.48L172.81 24.22L172.66 23.96L172.80 24.09Q174.34 22.63 175.26 18.48L175.21 18.43L175.26 18.49Q175.35 18.19 175.42 17.35L175.33 17.26L175.35 17.28Q175.47 16.64 175.40 16.03L175.28 15.92L175.27 15.91Q175.27 14.61 174.09 14.11L174.08 14.11L174.03 14.02L173.94 14.00L173.90 13.96Q173.51 13.12 172.33 12.32L172.31 12.29L172.36 12.31L172.53 12.48Q170.52 11.76 166.44 11.57L166.44 11.57L166.48 11.61Q164.83 11.40 163.46 11.52L163.44 11.50L163.36 11.42Q162.68 11.57 161.38 11.73L161.29 11.63L161.28 11.62Q159.47 12.13 159.24 13.77L159.27 13.80L159.13 13.66Q159.05 14.12 159.09 14.92L159.24 15.07L159.23 15.06Q159.32 15.56 159.89 17.92L159.85 17.88L159.79 17.82Q160.70 21.17 162.45 22.50L162.34 22.39L162.57 22.62L162.58 22.63Q159.70 23.83 159.17 29.00L159.22 29.05L159.11 28.94Q158.95 31.18 158.95 32.10L158.93 32.08L159.06 32.20Q159.16 34.02 160.34 34.93L160.28 34.87L160.32 34.91Q160.46 35.02 160.73 35.21L160.72 35.20L160.61 35.09Q161.64 37.38 168.76 37.60ZM168.45 26.55L168.50 26.61L168.40 26.50Q169.32 26.44 170.20 26.90L170.27 26.97L170.14 26.84Q170.59 27.90 170.55 28.43L170.64 28.52L170.53 28.42Q170.59 28.74 170.59 29.04L170.65 29.10L170.57 29.02Q170.57 31.38 168.28 32.22L168.24 32.17L168.25 32.18Q167.48 32.52 166.68 32.40L166.73 32.45L166.81 32.53Q165.53 32.47 164.39 32.01L164.55 32.17L164.47 32.09Q164.22 31.47 164.30 30.48L164.26 30.44L164.31 30.49Q164.54 28.96 165.73 27.75L165.71 27.72L165.69 27.70Q166.85 26.44 168.45 26.55ZM168.58 16.98L168.67 17.07L168.58 16.98Q169.42 16.91 169.95 17.06L169.92 17.03L170.03 17.93L169.98 17.89Q169.95 19.26 169.03 20.27L169.05 20.29L169.01 20.24Q168.21 21.37 166.84 21.18L166.71 21.05L166.71 21.05Q165.78 21.11 165.37 20.89L165.40 20.92L165.35 20.87Q165.26 20.55 165.15 19.87L165.32 20.04L165.19 19.92Q164.95 18.53 166.17 17.69L166.15 17.67L166.18 17.70Q167.29 17.06 168.70 17.10Z"/><path fill="#222" d="M107.48 14.35L107.41 14.28L107.52 14.39Q108.26 18.52 108.41 22.10L108.53 22.22L108.41 22.11Q109.66 22.33 110.73 22.33L110.72 22.32L112.79 22.17L112.84 22.23Q113.96 22.28 114.83 20.87L114.81 20.85L114.81 20.85Q115.58 19.72 115.70 18.54L115.58 18.42L115.52 18.36Q116.07 15.52 111.84 15.03L111.83 15.02L111.81 14.99Q110.18 15.00 107.56 14.43ZM108.52 24.95L108.58 25.02L108.61 25.04Q108.48 31.19 107.34 35.61L107.33 35.60L107.29 35.57Q105.78 35.91 103.45 36.98L103.45 36.98L103.51 37.04Q105.98 30.49 105.72 23.22L105.71 23.21L105.61 23.11Q105.40 15.81 102.62 9.38L102.45 9.21L102.51 9.27Q106.65 12.04 112.90 12.04L113.02 12.17L112.84 11.99Q118.96 12.05 119.11 15.51L119.15 15.55L119.06 15.46Q119.27 18.03 118.28 20.70L118.16 20.58L118.22 20.64Q117.82 21.77 116.87 22.99L116.86 22.97L116.79 22.91Q115.51 24.56 112.96 24.82L112.95 24.81L113.09 24.95Q110.84 24.99 108.60 25.03ZM114.55 27.10L114.66 27.21L114.58 27.13Q118.87 27.50 120.13 22.70L120.07 22.65L119.98 22.55Q121.09 19.05 120.93 17.04L120.92 17.02L120.87 16.98Q120.77 15.46 120.01 14.47L120.05 14.52L120.04 14.51Q119.54 14.00 119.04 13.77L119.23 13.97L119.23 13.96Q119.15 13.73 118.54 12.97L118.62 13.04L118.62 13.05Q117.06 11.72 113.10 11.72L112.92 11.54L113.05 11.67Q106.21 11.72 101.99 8.56L101.91 8.48L101.96 8.54Q105.12 15.61 105.39 23.08L105.31 23.00L105.31 22.99Q105.60 30.68 102.94 37.76L103.02 37.84L102.94 37.76Q104.02 37.12 105.01 36.74L104.92 36.65L104.55 37.81L104.61 37.87Q104.38 38.40 104.12 38.97L104.13 38.98L104.23 39.09Q106.52 37.91 109.41 37.38L109.42 37.39L109.47 37.44Q110.29 31.89 110.36 27.17L110.34 27.15L110.50 27.32Q111.49 27.12 112.48 27.12L112.45 27.09L112.57 27.21Q113.78 27.09 114.58 27.13ZM113.71 17.27L113.60 17.16L113.60 17.16Q114.20 17.27 115.19 17.50L115.21 17.52L115.11 17.41Q115.34 17.76 115.37 18.06L115.32 18.00L115.38 18.07Q115.44 18.35 115.36 18.62L115.26 18.52L115.20 18.46Q115.13 19.72 114.40 20.59L114.37 20.56L114.45 20.65Q113.96 21.79 112.93 21.98L112.95 21.99L112.87 21.91Q112.12 21.89 110.49 21.89L110.39 21.79L110.43 21.84Q110.50 19.66 110.27 17.30L110.19 17.21L112.01 17.36L111.88 17.23Q112.80 17.32 113.68 17.24Z"/><path fill="#333" d="M130.51 9.40L130.43 9.33L130.45 9.34Q134.24 11.88 139.00 12.11L138.95 12.06L139.05 12.16Q143.61 12.27 147.88 10.52L147.87 10.51L147.75 10.39Q147.54 10.98 146.78 13.76L146.79 13.77L146.90 13.88Q144.12 14.87 141.15 15.02L141.20 15.07L141.22 15.09Q138.12 15.11 135.23 14.39L135.30 14.46L135.33 14.49Q135.94 18.03 136.13 21.69L136.13 21.69L136.22 21.78Q138.15 21.92 139.75 21.88L139.84 21.97L139.77 21.90Q141.02 21.93 143.42 21.82L143.48 21.88L143.35 21.75Q143.28 22.36 143.28 23.05L143.40 23.17L143.39 24.50L143.33 24.43Q140.97 24.47 136.17 24.54L136.20 24.57L136.24 24.61Q136.10 28.58 135.53 32.58L135.57 32.62L135.59 32.65Q138.12 31.90 140.86 32.02L141.04 32.19L140.92 32.08Q143.62 32.15 146.21 32.99L146.15 32.92L146.30 33.07Q146.40 33.90 146.67 34.66L146.55 34.55L147.03 36.09L147.04 36.10Q143.86 34.82 140.43 34.82L140.38 34.77L140.44 34.83Q135.51 34.77 131.25 37.02L131.29 37.06L131.33 37.11Q133.64 30.28 133.38 23.16L133.34 23.13L133.43 23.21Q133.12 16.01 130.45 9.35ZM130.70 37.69L130.78 37.77L130.75 37.74Q132.12 37.13 132.88 36.79L132.81 36.72L132.71 36.61Q132.65 37.50 132.08 39.03L132.03 38.99L131.98 38.93Q136.49 36.93 141.56 37.20L141.60 37.25L141.60 37.25Q146.84 37.61 150.84 40.32L150.81 40.29L150.80 40.28Q149.61 37.72 148.92 35.78L148.93 35.78L148.92 35.77Q147.92 35.15 146.93 34.81L146.90 34.78L146.88 34.76Q146.62 33.51 146.46 32.71L146.36 32.60L146.44 32.68Q143.34 31.68 140.18 31.68L140.18 31.68L140.21 31.71Q139.15 31.78 138.00 31.90L137.84 31.73L137.89 31.79Q138.11 30.63 138.14 29.41L138.11 29.38L138.19 26.87L138.14 26.82Q140.01 26.79 141.80 26.82L141.79 26.81L141.79 26.81Q143.57 26.80 145.36 26.96L145.43 27.02L145.31 26.91Q145.22 25.94 145.22 24.99L145.36 25.13L145.26 23.13L144.49 23.24L144.41 23.15Q144.02 23.26 143.57 23.26L143.65 23.34L143.54 23.24Q143.55 22.55 143.70 21.26L143.74 21.30L143.86 21.42Q142.24 21.63 141.06 21.67L141.05 21.66L141.00 21.61Q140.02 21.58 138.20 21.51L138.15 21.46L138.19 21.51Q138.20 20.18 138.01 17.36L138.01 17.36L137.89 17.24Q138.95 17.39 139.94 17.39L139.88 17.33L140.02 17.47Q144.69 17.41 148.38 15.51L148.38 15.51L148.38 15.51Q149.04 13.24 149.92 11.03L149.84 10.96L149.78 10.89Q148.42 11.71 147.58 12.05L147.57 12.04L147.61 12.07Q148.00 11.40 148.46 9.84L148.41 9.80L148.41 9.79Q143.79 11.95 138.92 11.64L138.86 11.59L138.89 11.62Q133.57 11.28 129.72 8.43L129.83 8.53L129.79 8.50Q132.65 15.43 132.96 23.05L132.95 23.04L132.90 22.98Q133.37 31.07 130.85 37.84Z"/><path fill="#333" d="M62.48 18.24L62.45 18.20L62.46 18.22Q60.90 14.29 54.69 14.48L54.70 14.49L54.62 14.41Q50.14 14.46 48.16 15.91L48.18 15.93L48.31 16.06Q45.72 17.62 45.72 21.73L45.87 21.88L45.72 23.60L45.73 23.61Q45.76 32.46 54.78 32.46L54.75 32.43L54.82 32.51Q56.83 32.46 58.32 31.67L58.38 31.73L58.41 31.76Q60.11 30.60 59.96 28.73L59.97 28.75L59.96 28.74Q59.93 26.81 56.24 25.89L56.12 25.78L54.17 25.77L54.24 25.84Q53.21 25.75 52.25 25.79L52.30 25.84L52.33 25.86Q52.29 24.87 52.25 22.97L52.27 22.99L52.37 23.09Q60.02 23.08 64.20 22.74L64.03 22.57L64.07 22.61Q64.12 23.54 64.12 24.34L64.02 24.23L64.14 24.35Q64.08 25.09 64.12 25.89L64.19 25.96L64.06 25.83Q63.04 25.91 63.04 25.91L63.07 25.95L63.07 25.95Q61.62 25.87 62.00 25.87L62.07 25.93L62.07 25.94Q63.08 27.48 63.46 29.46L63.45 29.45L63.49 29.49Q63.65 30.26 63.65 30.71L63.66 30.73L63.60 30.66Q63.69 35.40 54.90 35.40L54.90 35.40L54.73 35.23Q47.60 35.23 45.02 33.13L45.07 33.18L45.11 33.23Q43.06 30.79 43.06 25.73L43.17 25.85L43.12 25.80Q43.12 24.72 42.97 22.02L43.05 22.10L42.94 22.00Q42.76 19.61 42.80 18.24L42.92 18.36L42.90 18.34Q42.95 15.42 44.32 13.82L44.43 13.93L44.29 13.79Q46.90 11.79 51.77 11.60L51.74 11.57L54.50 11.59L54.48 11.57Q57.41 11.30 60.83 11.72L60.93 11.81L60.85 11.73Q64.76 12.37 65.71 15.61L65.73 15.62L65.63 15.53Q64.59 16.43 62.50 18.25ZM63.81 20.37L63.99 20.43L64.03 20.48Q65.22 19.38 67.08 17.40L67.06 17.37L67.12 17.43Q66.70 16.37 65.71 14.66L65.87 14.82L65.82 14.77Q64.60 12.05 60.79 11.41L60.85 11.47L60.85 11.46Q58.75 11.39 54.45 11.08L54.43 11.06L51.65 11.10L51.73 11.18Q46.58 11.40 43.99 13.38L43.94 13.32L43.98 13.37Q42.57 14.97 42.46 18.05L42.48 18.07L42.54 18.14Q42.55 17.68 42.78 23.17L42.82 23.21L42.73 23.12Q42.82 24.54 42.90 27.29L42.80 27.19L42.80 27.18Q43.02 31.67 44.77 33.61L44.82 33.66L44.81 33.65Q45.21 34.50 46.08 35.38L45.98 35.28L46.10 35.40Q48.96 37.23 54.48 37.57L54.38 37.47L57.35 37.74L57.28 37.67Q58.83 37.73 60.85 37.62L60.86 37.64L61.00 37.78Q62.39 37.64 64.48 37.11L64.49 37.12L64.55 37.17Q66.41 36.60 66.37 34.28L66.47 34.37L66.37 34.27Q66.33 32.97 65.26 30.19L65.23 30.16L65.36 30.30Q65.07 29.39 64.54 28.60L64.50 28.56L64.49 28.55Q65.10 28.58 66.28 28.77L66.35 28.84L66.16 28.66Q65.93 25.12 65.97 24.43L66.03 24.49L66.09 24.55Q65.70 24.55 65.29 24.51L65.12 24.34L65.13 24.35Q64.84 24.40 64.46 24.48L64.41 24.43L64.37 24.39Q64.43 23.35 64.51 22.28L64.43 22.20L64.55 22.33Q58.29 22.84 52.01 22.73L51.91 22.63L52.04 22.76Q51.91 23.50 51.91 24.42L52.04 24.54L52.03 26.29L52.08 26.34Q52.46 26.34 52.88 26.30L52.90 26.32L52.83 26.25Q53.11 26.12 53.57 26.12L53.70 26.24L53.69 26.24Q53.60 26.60 53.64 27.10L53.64 27.10L53.66 27.12Q53.74 27.66 53.70 28.15L53.58 28.03L53.75 28.20Q54.75 28.14 55.78 28.10L55.66 27.98L55.82 28.13Q56.80 28.09 57.83 28.13L57.87 28.17L57.87 28.17Q58.85 28.35 59.73 28.73L59.66 28.67L59.76 28.80L59.80 28.84Q60.00 30.41 58.32 31.33L58.24 31.24L58.32 31.32Q56.54 32.13 54.83 32.13L54.88 32.18L54.76 32.06Q50.93 32.07 48.49 30.32L48.61 30.44L48.57 30.40Q47.58 28.35 47.74 25.80L47.74 25.81L47.70 25.76Q48.03 21.00 49.88 19.00L49.95 19.07L49.83 18.95Q51.74 17.02 56.43 16.71L56.41 16.70L56.53 16.82Q60.06 16.47 62.00 18.26L62.11 18.36L62.04 18.29Q62.17 18.46 62.28 18.65L62.28 18.64L62.34 18.59L62.27 18.52Q62.99 19.36 63.56 20.46L63.59 20.49L63.98 20.53Z"/><path fill="#222" d="M88.53 23.66L88.56 23.68L82.66 23.76L82.72 23.82Q79.68 23.75 76.75 23.67L76.88 23.80L76.71 23.64Q76.99 30.50 74.94 36.02L74.79 35.87L74.85 35.94Q73.07 36.48 71.32 37.17L71.31 37.15L71.25 37.10Q74.01 31.37 74.01 24.71L73.99 24.69L74.01 24.70Q74.01 16.21 69.89 9.17L70.04 9.32L69.93 9.21Q71.38 9.93 73.85 10.73L73.87 10.74L73.96 10.83Q76.07 15.88 76.61 20.75L76.58 20.73L76.66 20.81Q79.90 21.27 82.75 21.23L82.59 21.07L82.76 21.23Q85.40 21.21 88.71 20.95L88.65 20.88L88.65 20.88Q89.17 16.52 90.92 11.42L90.86 11.36L90.78 11.28Q92.80 10.94 95.04 10.11L95.10 10.17L94.96 10.02Q91.45 16.86 91.45 24.82L91.40 24.77L91.33 24.71Q91.47 31.05 93.83 36.38L93.84 36.39L93.70 36.25Q92.24 35.77 90.18 35.47L90.09 35.37L90.16 35.45Q88.44 30.38 88.56 23.68ZM89.79 35.68L89.89 35.79L89.83 35.72Q90.89 35.91 91.99 36.18L91.93 36.11L91.98 36.16Q92.43 37.00 93.08 38.48L92.91 38.31L93.02 38.43Q96.39 39.39 98.18 40.30L98.05 40.18L98.10 40.23Q93.60 34.02 93.30 25.76L93.39 25.85L93.45 25.91Q93.12 17.85 96.77 11.04L96.81 11.07L95.58 11.37L95.71 11.49Q95.06 11.56 94.45 11.72L94.56 11.83L94.55 11.82Q94.91 10.96 95.75 9.40L95.74 9.39L95.75 9.40Q93.20 10.54 90.57 11.04L90.59 11.06L90.59 11.06Q88.78 15.76 88.32 20.44L88.33 20.45L88.35 20.47Q85.99 20.81 83.55 20.81L83.50 20.76L83.43 20.68Q81.04 20.70 78.53 20.55L78.59 20.61L78.46 20.47Q78.32 17.28 77.21 13.21L77.30 13.30L77.31 13.31Q76.58 13.15 75.13 12.77L75.00 12.64L75.06 12.69Q74.75 11.54 74.29 10.52L74.20 10.43L74.35 10.57Q71.58 9.78 69.29 8.53L69.24 8.47L69.29 8.52Q73.83 15.92 73.83 24.71L73.83 24.71L73.80 24.68Q73.75 31.61 70.63 37.73L70.59 37.69L70.75 37.85Q71.45 37.56 72.78 36.99L72.69 36.89L72.76 36.97Q72.42 37.81 71.62 39.33L71.57 39.28L71.65 39.36Q74.41 38.31 76.66 37.89L76.62 37.86L76.73 37.97Q78.45 32.27 78.64 26.10L78.79 26.25L78.71 26.17Q80.22 26.00 83.41 25.96L83.48 26.03L83.60 26.14Q86.27 25.92 88.17 26.00L88.34 26.17L88.22 26.05Q88.50 31.81 89.83 35.73Z"/><path fill="#333" d="M17.29 9.33L17.20 9.24L17.31 9.34Q21.02 11.80 25.78 12.03L25.91 12.16L25.76 12.01Q30.40 12.19 34.66 10.44L34.69 10.47L34.71 10.50Q34.43 11.02 33.67 13.79L33.74 13.86L33.69 13.81Q30.91 14.80 27.94 14.95L27.96 14.97L28.02 15.04Q24.95 15.08 22.05 14.36L22.09 14.39L22.21 14.51Q22.89 18.12 23.08 21.78L23.03 21.73L22.95 21.65Q25.12 22.03 26.72 21.99L26.55 21.83L26.71 21.98Q27.82 21.88 30.22 21.76L30.21 21.76L30.25 21.80Q30.29 22.52 30.29 23.20L30.19 23.10L30.27 24.51L30.17 24.42Q27.84 24.48 23.04 24.56L22.98 24.50L23.08 24.59Q23.03 28.66 22.46 32.66L22.51 32.71L22.42 32.62Q25.10 32.02 27.84 32.13L27.79 32.08L27.87 32.17Q30.50 32.17 33.09 33.00L33.07 32.99L33.17 33.09Q33.26 33.90 33.52 34.66L33.47 34.60L33.94 36.14L33.85 36.05Q30.75 34.86 27.32 34.86L27.36 34.89L27.34 34.87Q22.48 34.88 18.22 37.13L18.22 37.13L18.16 37.08Q20.54 30.32 20.28 23.20L20.13 23.05L20.11 23.04Q19.92 15.96 17.26 9.30ZM17.57 37.71L17.65 37.78L17.71 37.85Q18.98 37.13 19.74 36.79L19.60 36.65L19.72 36.77Q19.42 37.42 18.84 38.94L18.88 38.97L18.96 39.05Q23.51 37.10 28.57 37.36L28.49 37.28L28.45 37.24Q33.64 37.56 37.64 40.26L37.63 40.25L37.66 40.28Q36.42 37.67 35.73 35.73L35.80 35.79L35.88 35.87Q34.76 35.14 33.77 34.79L33.86 34.88L33.76 34.78Q33.36 33.40 33.21 32.60L33.37 32.76L33.31 32.70Q30.12 31.60 26.96 31.60L26.97 31.61L27.01 31.65Q25.83 31.61 24.68 31.72L24.76 31.80L24.85 31.89Q24.95 30.62 24.99 29.40L24.87 29.28L25.07 26.89L24.91 26.73Q26.76 26.68 28.55 26.71L28.70 26.86L28.63 26.79Q30.47 26.85 32.26 27.00L32.29 27.03L32.25 26.99Q32.14 26.00 32.14 25.05L32.18 25.09L32.22 23.23L31.45 23.33L31.41 23.29Q30.87 23.25 30.41 23.25L30.57 23.41L30.41 23.25Q30.46 22.62 30.62 21.32L30.63 21.33L30.59 21.30Q29.04 21.58 27.86 21.62L27.82 21.57L27.76 21.51Q26.97 21.67 25.14 21.60L25.13 21.59L25.13 21.58Q24.97 20.09 24.78 17.28L24.74 17.24L24.88 17.38Q25.76 17.34 26.75 17.34L26.90 17.49L26.82 17.41Q31.61 17.48 35.31 15.58L35.29 15.56L35.33 15.60Q35.85 13.20 36.73 10.99L36.62 10.88L36.61 10.87Q35.34 11.76 34.50 12.11L34.43 12.04L34.42 12.03Q34.72 11.26 35.17 9.70L35.22 9.74L35.26 9.79Q30.55 11.86 25.68 11.55L25.81 11.68L25.78 11.65Q20.47 11.33 16.63 8.48L16.53 8.38L16.53 8.37Q19.54 15.46 19.84 23.07L19.84 23.07L19.75 22.98Q20.15 30.99 17.64 37.77Z"/></svg>