<svg xmlns="http://www.w3.org/2000/svg" width="200" height="40" viewBox="0,0,200,40"><path d="M20 39 C89 11,93 22,182 19" stroke="#222" fill="none"/><path d="M11 2 C99 33,85 26,183 9" stroke="#888" fill="none"/><path fill="#444" d="M24.27 34.89L24.38 34.99L24.32 34.94Q20.19 34.42 18.36 32.97L18.25 32.86L18.37 32.98Q16.41 31.40 15.99 28.39L16.13 28.53L16.13 28.54Q16.00 28.06 15.65 23.30L15.69 23.34L15.62 23.26Q15.78 22.21 15.71 20.95L15.60 20.85L15.62 20.87Q15.48 15.86 17.69 14.11L17.72 14.14L17.76 14.18Q20.28 11.94 28.05 11.25L28.13 11.34L28.13 11.33Q29.39 11.11 31.03 11.15L31.14 11.26L31.17 11.29Q31.07 11.20 34.04 11.20L34.05 11.20L34.07 11.22Q34.90 11.22 36.62 11.37L36.69 11.44L36.60 11.35Q36.18 12.38 35.15 15.47L35.06 15.37L35.01 15.33Q32.94 14.13 29.93 14.13L30.07 14.26L29.99 14.19Q29.26 14.22 28.46 14.29L28.46 14.29L28.38 14.21Q23.40 14.79 20.88 16.77L20.89 16.77L20.84 16.73Q18.70 18.20 18.55 21.55L18.62 21.62L18.60 21.60Q18.51 22.16 18.55 23.42L18.73 23.60L18.62 23.48Q18.77 28.35 21.16 30.45L21.10 30.38L21.24 30.52Q23.34 32.39 28.32 32.70L28.35 32.72L28.34 32.72Q31.43 32.83 34.43 31.04L34.35 30.96L34.34 30.95Q35.07 33.81 35.68 35.18L35.72 35.22L35.72 35.22Q33.53 35.39 31.90 35.35L31.87 35.33L32.02 35.48Q27.49 35.36 24.37 34.98ZM39.45 38.68L39.48 38.71L39.34 38.58Q37.68 35.70 37.00 33.11L36.85 32.96L37.03 33.14Q36.61 33.41 35.62 33.79L35.51 33.67L35.55 33.72Q35.25 32.96 35.06 32.12L34.91 31.97L34.63 30.36L34.57 30.31Q31.41 32.47 28.29 32.36L28.29 32.36L28.27 32.34Q23.92 32.06 21.59 30.31L21.57 30.28L21.56 30.28Q20.49 28.52 20.57 25.59L20.58 25.60L20.52 25.54Q20.78 21.16 23.26 19.03L23.22 18.99L23.27 19.04Q25.29 17.02 29.97 16.41L30.02 16.46L29.92 16.36Q30.89 16.42 31.62 16.42L31.57 16.37L31.44 16.25Q34.39 16.42 36.49 17.94L36.39 17.84L36.42 17.88Q36.84 15.66 38.05 12.43L38.10 12.47L38.06 12.44Q37.90 12.54 37.34 12.48L37.36 12.50L37.31 12.45Q36.67 12.30 36.40 12.30L36.55 12.45L36.55 12.45Q36.71 11.89 37.17 10.90L37.06 10.78L37.06 10.79Q36.81 10.77 34.32 10.69L34.50 10.87L34.35 10.72Q31.92 10.71 31.27 10.75L31.22 10.70L31.26 10.73Q20.76 11.09 17.30 13.68L17.25 13.63L17.36 13.74Q15.36 15.58 15.36 19.50L15.28 19.42L15.36 19.50Q15.21 20.46 15.33 23.17L15.42 23.25L15.43 23.26Q15.61 26.87 15.84 28.59L15.64 28.39L15.71 28.46Q16.19 31.68 17.79 33.21L17.65 33.06L17.81 33.22Q18.24 33.84 19.49 34.98L19.46 34.95L19.51 35.00Q22.76 36.77 28.02 37.53L27.90 37.42L28.07 37.58Q34.43 38.46 39.42 38.65Z"/><path fill="#222" d="M55.95 15.20L55.95 15.19L55.93 15.17Q51.62 15.17 47.93 14.18L47.87 14.12L47.92 14.16Q49.37 18.66 49.56 23.50L49.55 23.49L49.51 23.45Q49.71 28.25 48.49 32.86L48.59 32.95L48.49 32.86Q51.43 32.37 54.93 32.22L54.90 32.18L54.85 32.14Q58.78 31.95 60.57 29.51L60.57 29.51L60.66 29.61Q62.13 27.50 62.32 23.38L62.22 23.28L62.23 23.30Q62.40 21.64 61.94 19.92L61.92 19.91L61.98 19.97Q60.62 15.14 55.90 15.14ZM43.89 37.05L43.99 37.15L43.98 37.14Q46.88 31.48 46.88 24.78L46.78 24.67L46.81 24.71Q46.94 16.31 42.64 9.30L42.58 9.24L42.62 9.29Q47.72 11.79 55.98 11.98L56.00 12.00L56.12 12.12Q64.85 12.18 65.19 19.33L65.22 19.36L65.35 19.49Q65.39 22.12 65.35 23.56L65.29 23.50L65.27 23.49Q65.39 28.36 64.55 30.53L64.39 30.37L64.36 30.34Q63.99 31.49 63.23 32.33L63.19 32.29L63.23 32.33Q61.97 33.97 59.35 34.46L59.26 34.37L59.37 34.49Q57.71 34.69 54.70 34.92L54.63 34.85L54.63 34.85Q48.64 35.44 44.03 37.19ZM61.89 37.01L61.85 36.96L61.85 36.96Q64.58 36.61 66.21 35.12L66.24 35.15L66.37 35.28Q67.39 33.33 67.35 30.59L67.48 30.72L67.52 30.76Q67.43 29.30 67.28 25.80L67.38 25.90L66.99 21.32L66.95 21.28Q66.68 18.92 65.73 16.82L65.88 16.97L65.69 16.79Q65.22 15.89 64.53 15.25L64.61 15.33L64.48 15.04L64.64 15.20Q62.97 12.27 58.55 11.89L58.49 11.83L58.43 11.77Q55.78 11.67 48.77 10.94L48.81 10.99L48.87 11.04Q45.42 10.41 41.73 8.39L41.85 8.52L41.86 8.53Q46.70 15.92 46.70 24.68L46.55 24.52L46.72 24.69Q46.63 31.61 43.28 37.78L43.26 37.75L43.31 37.80Q44.03 37.57 45.36 37.08L45.39 37.11L45.23 36.95Q44.95 37.84 44.07 39.32L44.08 39.34L44.09 39.34Q47.14 38.28 50.49 37.78L50.49 37.79L50.53 37.83Q52.45 37.35 56.11 37.24L56.25 37.38L56.28 37.41Q60.12 37.26 61.95 37.07ZM61.93 23.38L61.84 23.29L61.91 23.36Q61.55 31.38 54.85 31.76L54.80 31.71L54.79 31.70Q52.89 31.85 50.84 32.12L50.84 32.12L50.85 32.13Q51.59 28.31 51.59 24.65L51.65 24.71L51.57 24.63Q51.46 20.83 50.74 16.98L50.75 17.00L50.87 17.11Q53.11 17.46 57.80 17.46L57.73 17.39L57.71 17.37Q59.24 17.38 60.88 18.33L60.70 18.15L60.87 18.32Q62.11 20.55 61.96 23.41Z"/><path fill="#111" d="M81.95 24.19L81.86 24.10L81.98 24.23Q80.06 24.17 78.84 25.50L78.85 25.51L78.85 25.51Q77.66 26.87 77.51 28.77L77.56 28.82L77.39 28.66Q77.28 30.86 78.49 31.87L78.56 31.93L78.42 31.80Q79.78 32.95 81.91 32.87L81.86 32.82L81.83 32.79Q84.15 32.64 85.10 31.68L85.22 31.81L85.19 31.77Q86.13 30.24 86.02 28.41L85.96 28.36L86.07 28.46Q85.91 26.55 84.82 25.35L84.88 25.41L84.85 25.38Q83.83 24.24 82.00 24.24ZM81.92 14.76L81.95 14.79L81.82 14.66Q80.57 14.70 79.23 15.20L79.11 15.08L79.09 15.05Q77.78 15.84 78.01 17.70L78.06 17.75L78.13 17.82Q78.54 21.47 81.89 21.47L82.02 21.60L81.95 21.53Q83.50 21.71 84.49 20.57L84.54 20.62L84.55 20.63Q85.52 19.46 85.55 17.90L85.55 17.89L85.44 17.78Q85.64 16.16 84.92 15.55L84.83 15.46L84.95 15.58Q83.23 14.70 81.94 14.78ZM81.73 35.39L81.59 35.26L78.52 35.23L78.66 35.37Q76.97 35.21 75.64 34.33L75.70 34.39L75.74 34.43Q74.40 33.32 74.56 30.46L74.54 30.45L74.61 30.52Q74.98 23.58 78.60 22.59L78.55 22.55L78.51 22.51Q76.38 21.74 75.05 16.37L74.93 16.26L74.94 16.27Q74.73 14.99 74.81 14.19L74.65 14.04L74.66 14.05Q75.10 12.06 78.80 12.02L78.64 11.86L78.68 11.90Q82.88 11.80 84.33 11.99L84.35 12.02L84.37 12.03Q88.22 12.57 88.68 14.59L88.74 14.65L88.72 14.63Q88.72 15.12 88.72 15.50L88.76 15.55L88.88 15.66Q88.70 16.17 88.51 16.78L88.65 16.92L88.66 16.93Q88.07 21.17 85.13 22.69L85.12 22.68L84.99 22.55Q88.54 23.40 89.03 28.69L89.09 28.74L89.16 28.82Q89.08 28.88 89.11 30.18L89.05 30.12L89.09 30.15Q89.10 32.83 87.50 33.89L87.55 33.94L87.51 33.90Q86.30 34.94 81.73 35.40ZM83.86 37.56L84.02 37.72L87.36 37.79L87.21 37.64Q88.98 37.77 90.50 37.04L90.47 37.02L90.44 36.98Q91.56 36.24 91.64 34.37L91.64 34.38L91.68 34.42Q91.84 33.43 91.46 31.49L91.34 31.38L91.32 31.35Q90.53 26.84 88.44 24.97L88.34 24.87L88.09 24.43L88.00 24.27L87.82 23.97L87.90 24.05Q89.50 22.64 90.41 18.49L90.35 18.43L90.37 18.46Q90.39 18.09 90.47 17.25L90.47 17.26L90.53 17.31Q90.57 16.59 90.49 15.98L90.46 15.95L90.47 15.97Q90.30 14.50 89.12 14.00L89.12 14.00L89.20 14.05L89.05 13.97L88.93 13.85Q88.78 13.24 87.60 12.44L87.53 12.38L87.61 12.42L87.48 12.29Q85.69 11.79 81.61 11.60L81.51 11.49L81.48 11.46Q80.00 11.43 78.63 11.54L78.60 11.52L78.67 11.58Q77.83 11.58 76.53 11.73L76.48 11.68L76.49 11.69Q74.47 12.00 74.25 13.63L74.30 13.69L74.37 13.76Q74.26 14.18 74.30 14.98L74.27 14.95L74.36 15.04Q74.54 15.64 75.11 18.00L75.11 18.00L75.07 17.96Q75.86 21.19 77.61 22.52L77.48 22.39L77.61 22.51L77.65 22.55Q74.84 23.82 74.31 29.00L74.34 29.03L74.27 28.96Q74.13 31.22 74.13 32.13L74.09 32.09L74.23 32.23Q74.17 33.89 75.35 34.80L75.30 34.75L75.49 34.94Q75.55 34.96 75.81 35.15L75.81 35.15L75.87 35.21Q76.82 37.41 83.93 37.64ZM83.56 26.53L83.49 26.46L83.61 26.58Q84.49 26.47 85.37 26.92L85.41 26.96L85.39 26.95Q85.78 27.95 85.74 28.48L85.72 28.46L85.76 28.50Q85.73 28.73 85.73 29.04L85.77 29.08L85.66 28.97Q85.81 31.48 83.52 32.32L83.41 32.20L83.38 32.17Q82.58 32.47 81.78 32.36L81.89 32.47L81.85 32.43Q80.79 32.59 79.64 32.13L79.70 32.18L79.64 32.12Q79.28 31.38 79.36 30.39L79.45 30.49L79.52 30.56Q79.64 28.92 80.84 27.70L80.74 27.61L80.82 27.69Q82.03 26.48 83.63 26.60ZM83.87 17.13L83.78 17.04L83.72 16.98Q84.59 16.94 85.13 17.09L85.13 17.09L85.09 17.85L85.16 17.92Q85.05 19.22 84.13 20.23L84.15 20.25L84.22 20.31Q83.22 21.23 81.85 21.04L81.97 21.16L81.86 21.06Q81.05 21.24 80.63 21.01L80.51 20.89L80.63 21.00Q80.52 20.67 80.41 19.98L80.37 19.95L80.45 20.03Q80.16 18.59 81.37 17.75L81.26 17.64L81.35 17.73Q82.41 17.04 83.82 17.08Z"/><path fill="#333" d="M112.63 27.12L103.37 17.10L103.39 17.12Q104.24 20.82 104.24 24.55L104.29 24.60L104.35 24.67Q104.26 30.55 102.21 36.11L102.12 36.02L102.20 36.11Q101.21 36.45 98.96 37.21L98.79 37.04L98.84 37.09Q101.71 31.35 101.71 24.65L101.74 24.68L101.74 24.68Q101.65 15.95 97.15 8.52L97.22 8.58L97.15 8.51Q97.71 8.81 98.39 9.23L98.40 9.23L98.27 9.11Q110.41 20.37 118.25 29.62L118.31 29.68L118.25 29.62Q118.05 27.28 118.05 24.85L117.95 24.75L117.98 24.78Q118.01 17.58 120.52 11.37L120.42 11.27L120.50 11.35Q122.84 10.83 124.43 10.14L124.49 10.19L124.34 10.05Q121.05 16.24 120.75 23.40L120.75 23.40L120.68 23.33Q120.42 30.72 123.39 36.89L123.39 36.89L123.39 36.89Q122.83 36.82 122.41 36.63L122.35 36.57L122.48 36.70Q117.80 32.63 112.58 27.07L112.64 27.13ZM126.07 40.14L125.99 40.06L125.99 40.06Q126.55 40.31 126.97 40.50L126.98 40.52L127.81 40.85L127.82 40.86Q122.59 33.84 122.59 24.48L122.54 24.43L122.58 24.47Q122.67 17.33 125.98 11.08L126.00 11.10L126.05 11.15Q125.39 11.37 123.98 11.98L123.97 11.96L123.88 11.87Q124.37 11.14 125.21 9.58L125.03 9.41L125.07 9.45Q122.69 10.41 120.25 10.99L120.29 11.03L120.22 10.95Q117.59 17.43 117.59 24.85L117.65 24.91L117.58 24.84Q117.49 26.61 117.68 28.59L117.67 28.58L117.83 28.74Q113.20 23.09 108.44 18.48L108.27 18.31L98.27 8.69L98.29 8.71Q97.74 8.42 96.52 7.85L96.39 7.72L96.52 7.85Q101.42 15.61 101.42 24.70L101.33 24.61L101.45 24.73Q101.33 31.73 98.25 37.75L98.21 37.71L98.25 37.75Q98.68 37.76 100.32 37.15L100.14 36.98L100.21 37.04Q99.82 37.77 98.99 39.25L99.03 39.29L99.02 39.28Q100.32 38.72 103.79 37.92L103.94 38.08L103.96 38.10Q106.14 31.82 106.14 24.63L106.23 24.72L106.19 24.67Q106.22 22.61 105.99 20.48L106.06 20.55L105.92 20.41Q117.53 33.35 126.13 40.20Z"/><path fill="#222" d="M139.36 25.35L139.38 25.38L139.48 25.48Q135.93 31.75 132.50 35.71L132.44 35.64L132.50 35.70Q130.68 36.17 128.24 37.04L128.25 37.05L128.23 37.03Q133.14 31.43 137.90 23.02L137.93 23.05L137.88 23.00Q133.37 16.13 127.39 9.73L127.32 9.66L127.33 9.67Q130.19 10.81 132.47 11.31L132.49 11.33L132.61 11.45Q137.12 16.53 139.56 20.49L139.69 20.63L139.70 20.63Q142.11 16.11 146.03 11.70L146.04 11.70L146.10 11.76Q147.62 11.38 150.82 10.62L150.89 10.70L150.90 10.71Q144.76 17.09 141.29 23.03L141.33 23.06L141.33 23.06Q146.42 31.65 150.80 36.22L150.84 36.26L150.84 36.27Q148.28 35.49 146.18 35.26L146.16 35.24L146.23 35.31Q143.45 32.34 139.53 25.53ZM146.13 35.63L146.16 35.65L146.17 35.66Q146.42 35.65 146.88 35.77L146.83 35.72L146.81 35.70Q147.56 36.41 149.08 38.01L149.07 38.00L149.12 38.04Q152.48 38.86 155.53 40.23L155.49 40.19L155.60 40.30Q148.34 33.58 143.24 24.82L143.23 24.81L143.33 24.91Q147.04 18.23 152.94 11.38L152.91 11.35L152.96 11.39Q151.49 12.02 149.32 12.55L149.38 12.61L149.33 12.56Q150.22 11.66 151.97 9.87L151.91 9.81L151.99 9.89Q149.62 10.79 145.93 11.36L145.96 11.40L145.79 11.23Q142.43 15.10 139.84 19.40L139.78 19.34L139.89 19.45Q139.03 17.91 137.85 16.42L137.86 16.43L135.44 13.36L135.10 13.41L135.01 13.32Q134.87 13.33 134.65 13.25L134.72 13.33L134.80 13.41Q134.04 12.50 132.56 10.94L132.55 10.93L132.48 10.86Q128.79 10.10 126.20 8.73L126.20 8.73L126.15 8.68Q132.92 15.98 137.49 23.02L137.46 23.00L137.46 23.00Q133.04 31.25 127.29 37.84L127.31 37.86L127.13 37.68Q128.50 37.07 130.63 36.50L130.64 36.51L129.45 38.06L129.40 38.01Q129.33 37.94 128.00 39.27L128.16 39.43L127.99 39.27Q131.03 38.23 134.19 37.74L134.14 37.68L134.17 37.71Q138.15 33.17 140.74 28.41L140.75 28.42L140.75 28.42Q143.40 32.74 146.10 35.60Z"/><path fill="#222" d="M164.07 14.38L164.13 14.43L163.97 14.27Q164.81 18.51 164.96 22.08L165.03 22.15L165.01 22.13Q166.25 22.34 167.32 22.34L167.27 22.30L169.44 22.26L169.36 22.18Q170.36 22.11 171.24 20.71L171.39 20.86L171.35 20.82Q171.99 19.56 172.11 18.37L172.12 18.39L172.17 18.44Q172.58 15.46 168.36 14.97L168.36 14.98L168.24 14.85Q166.67 14.92 164.04 14.35ZM165.17 25.03L165.05 24.91L165.13 24.99Q164.97 31.11 163.83 35.53L163.96 35.66L163.83 35.53Q162.50 36.06 160.17 37.13L160.06 37.02L160.03 36.98Q162.49 30.42 162.22 23.15L162.28 23.21L162.29 23.21Q161.93 15.77 159.15 9.34L159.12 9.31L159.15 9.34Q163.19 12.01 169.44 12.01L169.52 12.10L169.56 12.14Q175.64 12.16 175.79 15.63L175.63 15.46L175.71 15.55Q175.79 17.99 174.80 20.65L174.81 20.66L174.76 20.61Q174.36 21.74 173.41 22.95L173.33 22.88L173.51 23.05Q172.15 24.62 169.60 24.89L169.65 24.94L169.62 24.91Q167.27 24.85 165.03 24.89ZM171.28 27.26L171.27 27.25L171.20 27.18Q175.28 27.33 176.53 22.54L176.61 22.61L176.68 22.68Q177.65 19.05 177.50 17.03L177.39 16.93L177.52 17.05Q177.22 15.35 176.46 14.36L176.52 14.41L176.49 14.38Q176.21 14.10 175.71 13.87L175.66 13.82L175.78 13.94Q175.62 13.63 175.01 12.87L175.15 13.00L175.10 12.96Q173.47 11.56 169.52 11.56L169.59 11.64L169.55 11.60Q162.61 11.54 158.38 8.38L158.39 8.39L158.45 8.45Q161.70 15.62 161.97 23.08L161.96 23.07L161.80 22.92Q162.24 30.75 159.58 37.83L159.56 37.81L159.62 37.87Q160.66 37.19 161.65 36.81L161.69 36.85L161.11 37.80L161.23 37.92Q161.09 38.54 160.83 39.11L160.74 39.03L160.71 39.00Q163.21 38.03 166.10 37.49L166.18 37.57L166.11 37.50Q166.86 31.89 166.93 27.17L167.07 27.31L167.02 27.26Q168.12 27.18 169.11 27.18L169.04 27.11L169.01 27.09Q170.46 27.20 171.26 27.24ZM170.24 17.23L170.33 17.32L170.20 17.19Q170.72 17.22 171.71 17.45L171.67 17.41L171.66 17.40Q171.85 17.70 171.89 18.00L171.81 17.92L171.88 18.00Q171.99 18.34 171.91 18.60L171.96 18.65L171.89 18.58Q171.82 19.84 171.10 20.72L171.09 20.71L171.07 20.69Q170.41 21.66 169.38 21.85L169.52 22.00L169.50 21.98Q168.70 21.90 167.06 21.90L166.98 21.81L166.97 21.81Q166.96 19.55 166.73 17.19L166.82 17.28L168.46 17.24L168.55 17.34Q169.46 17.40 170.33 17.33Z"/></svg>